<svg xmlns="http://www.w3.org/2000/svg" xmlns:xlink="http://www.w3.org/1999/xlink" width="1728" height="1728" viewBox="0 0 1296 1296"><defs><style>*{stroke-linejoin:round;stroke-linecap:butt}</style></defs><g id="figure_1"><path id="patch_1" d="M0 1296h1296V0H0z" style="fill:#fff"/><g id="axes_1"><path id="patch_2" d="M165.24 1153.44h997.92V155.52H165.24z" style="fill:#fff"/><path id="patch_3" d="M1063.368 355.104a99.797 99.797 0 0 0 70.564-29.228 99.797 99.797 0 0 0 29.228-70.564 99.797 99.797 0 0 0-29.228-70.564 99.797 99.797 0 0 0-70.564-29.228 99.797 99.797 0 0 0-70.564 29.228 99.797 99.797 0 0 0-29.228 70.564 99.797 99.797 0 0 0 29.228 70.564 99.797 99.797 0 0 0 70.564 29.228z" clip-path="url(#pd6c2b09057)" style="fill:#ff0"/><path id="patch_4" d="M263.036 351.112a97.8 97.8 0 0 0 69.152-28.644 97.8 97.8 0 0 0 28.644-69.152 97.8 97.8 0 0 0-28.644-69.152 97.8 97.8 0 0 0-69.152-28.644 97.8 97.8 0 0 0-69.152 28.644 97.8 97.8 0 0 0-28.644 69.152 97.8 97.8 0 0 0 28.644 69.152 97.8 97.8 0 0 0 69.152 28.644z" clip-path="url(#pd6c2b09057)" style="fill:#fffa05"/><path id="patch_5" d="M1067.36 1153.44a95.805 95.805 0 0 0 67.74-28.06 95.805 95.805 0 0 0 28.06-67.74 95.805 95.805 0 0 0-28.06-67.741 95.805 95.805 0 0 0-67.74-28.06 95.805 95.805 0 0 0-67.741 28.06 95.805 95.805 0 0 0-28.06 67.74 95.805 95.805 0 0 0 28.06 67.742 95.805 95.805 0 0 0 67.74 28.059z" clip-path="url(#pd6c2b09057)" style="fill:#fff50a"/><path id="patch_6" d="M259.044 1153.44a93.809 93.809 0 0 0 66.33-27.475 93.809 93.809 0 0 0 27.475-66.33 93.809 93.809 0 0 0-27.475-66.33 93.809 93.809 0 0 0-66.33-27.474 93.809 93.809 0 0 0-66.33 27.475 93.809 93.809 0 0 0-27.474 66.33 93.809 93.809 0 0 0 27.475 66.33 93.809 93.809 0 0 0 66.33 27.474z" clip-path="url(#pd6c2b09057)" style="fill:#fff00f"/><path id="patch_7" d="M871.934 339.137a91.813 91.813 0 0 0 64.918-26.89 91.813 91.813 0 0 0 26.89-64.918 91.813 91.813 0 0 0-26.89-64.919 91.813 91.813 0 0 0-64.918-26.89 91.813 91.813 0 0 0-64.919 26.89 91.813 91.813 0 0 0-26.89 64.919 91.813 91.813 0 0 0 26.89 64.918 91.813 91.813 0 0 0 64.919 26.89z" clip-path="url(#pd6c2b09057)" style="fill:#ffeb14"/><path id="patch_8" d="M450.475 335.146a89.817 89.817 0 0 0 89.813-89.813 89.817 89.817 0 0 0-89.813-89.813 89.817 89.817 0 0 0-89.813 89.813 89.817 89.817 0 0 0 89.813 89.813z" clip-path="url(#pd6c2b09057)" style="fill:#ffe51a"/><path id="patch_9" d="M883.916 1153.44a87.821 87.821 0 0 0 87.817-87.817 87.821 87.821 0 0 0-87.817-87.817 87.821 87.821 0 0 0-87.817 87.817 87.821 87.821 0 0 0 87.817 87.817z" clip-path="url(#pd6c2b09057)" style="fill:#ffe01f"/><path id="patch_10" d="M438.493 1153.44a85.825 85.825 0 0 0 85.82-85.821 85.825 85.825 0 0 0-85.82-85.821 85.825 85.825 0 0 0-85.822 85.82 85.825 85.825 0 0 0 85.822 85.822z" clip-path="url(#pd6c2b09057)" style="fill:#ffdb24"/><path id="patch_11" d="M1079.335 522.059a83.83 83.83 0 0 0 83.825-83.825 83.83 83.83 0 0 0-83.825-83.826 83.83 83.83 0 0 0-83.826 83.826 83.83 83.83 0 0 0 83.826 83.825z" clip-path="url(#pd6c2b09057)" style="fill:#ffd629"/><path id="patch_12" d="M247.07 514.06a81.833 81.833 0 0 0 81.829-81.83 81.833 81.833 0 0 0-81.83-81.829 81.833 81.833 0 0 0-81.829 81.83 81.833 81.833 0 0 0 81.83 81.83z" clip-path="url(#pd6c2b09057)" style="fill:#ffd02f"/><path id="patch_13" d="M245.074 966.394a79.837 79.837 0 0 0 79.833-79.834 79.837 79.837 0 0 0-79.833-79.833 79.837 79.837 0 0 0-79.834 79.833 79.837 79.837 0 0 0 79.834 79.834z" clip-path="url(#pd6c2b09057)" style="fill:#ffcb34"/><path id="patch_14" d="M1085.322 962.771a77.841 77.841 0 0 0 77.838-77.838 77.841 77.841 0 0 0-77.838-77.838 77.841 77.841 0 0 0-77.838 77.838 77.841 77.841 0 0 0 77.838 77.838z" clip-path="url(#pd6c2b09057)" style="fill:#ffc639"/><path id="patch_15" d="M1087.318 673.543a75.845 75.845 0 0 0 75.842-75.842 75.845 75.845 0 0 0-75.842-75.842 75.845 75.845 0 0 0-75.842 75.842 75.845 75.845 0 0 0 75.842 75.842z" clip-path="url(#pd6c2b09057)" style="fill:#ffc13e"/><path id="patch_16" d="M613.353 303.212a73.85 73.85 0 0 0 73.846-73.846 73.85 73.85 0 0 0-73.846-73.846 73.85 73.85 0 0 0-73.846 73.846 73.85 73.85 0 0 0 73.846 73.846z" clip-path="url(#pd6c2b09057)" style="fill:#ffbc43"/><path id="patch_17" d="M595.544 1153.44a71.854 71.854 0 0 0 71.85-71.85 71.854 71.854 0 0 0-71.85-71.85 71.854 71.854 0 0 0-71.85 71.85 71.854 71.854 0 0 0 71.85 71.85z" clip-path="url(#pd6c2b09057)" style="fill:#ffb649"/><path id="patch_18" d="M965.826 1000.834a55.886 55.886 0 0 0 55.884-55.884 55.886 55.886 0 0 0-55.884-55.883 55.886 55.886 0 0 0-55.883 55.883 55.886 55.886 0 0 0 55.883 55.884z" clip-path="url(#pd6c2b09057)" style="fill:#ff8d72"/><path id="patch_19" d="M365.207 419.316a53.89 53.89 0 0 0 53.888-53.888 53.89 53.89 0 0 0-53.888-53.888 53.89 53.89 0 0 0-53.887 53.888 53.89 53.89 0 0 0 53.887 53.888z" clip-path="url(#pd6c2b09057)" style="fill:#ff8778"/><path id="patch_20" d="M358.642 1005.19a51.894 51.894 0 0 0 51.892-51.893 51.894 51.894 0 0 0-51.892-51.891 51.894 51.894 0 0 0-51.892 51.891 51.894 51.894 0 0 0 51.892 51.892z" clip-path="url(#pd6c2b09057)" style="fill:#ff827d"/><path id="patch_21" d="M734.756 255.312a49.898 49.898 0 0 0 49.896-49.896 49.898 49.898 0 0 0-49.896-49.896 49.898 49.898 0 0 0-49.896 49.896 49.898 49.898 0 0 0 49.896 49.896z" clip-path="url(#pd6c2b09057)" style="fill:#ff7d82"/><path id="patch_22" d="M358.793 203.363a21.955 21.955 0 1 0 0-43.91 21.955 21.955 0 0 0 0 43.91z" clip-path="url(#pd6c2b09057)" style="fill:#ff34cb"/><path id="patch_23" d="M185.198 993.056a19.96 19.96 0 1 0 0-39.918 19.96 19.96 0 0 0 0 39.918z" clip-path="url(#pd6c2b09057)" style="fill:#ff2fd0"/><path id="patch_24" d="M1145.197 541.845a17.963 17.963 0 1 0 0-35.927 17.963 17.963 0 0 0 0 35.927z" clip-path="url(#pd6c2b09057)" style="fill:#ff29d6"/><path id="patch_25" d="M1147.193 187.453a15.967 15.967 0 1 0 0-31.934 15.967 15.967 0 0 0 0 31.934z" clip-path="url(#pd6c2b09057)" style="fill:#ff24db"/><path id="patch_26" d="M677.593 183.462a13.972 13.972 0 1 0 0-27.943 13.972 13.972 0 0 0 0 27.943z" clip-path="url(#pd6c2b09057)" style="fill:#ff1fe0"/><path id="patch_27" d="M969.394 1024.69a11.976 11.976 0 1 0 0-23.951 11.976 11.976 0 0 0 0 23.951z" clip-path="url(#pd6c2b09057)" style="fill:#ff1ae5"/><path id="patch_28" d="M301.721 368.44a9.98 9.98 0 1 0 0-19.96 9.98 9.98 0 0 0 0 19.96z" clip-path="url(#pd6c2b09057)" style="fill:#ff14eb"/><path id="patch_29" d="M1124.613 171.487a7.984 7.984 0 1 0 0-15.968 7.984 7.984 0 0 0 0 15.968z" clip-path="url(#pd6c2b09057)" style="fill:#ff0ff0"/><path id="patch_30" d="M659.301 167.495a5.988 5.988 0 1 0 0-11.976 5.988 5.988 0 0 0 0 11.976z" clip-path="url(#pd6c2b09057)" style="fill:#ff0af5"/><path id="patch_31" d="M984.663 1005.777a3.992 3.992 0 1 0 0-7.984 3.992 3.992 0 0 0 0 7.984z" clip-path="url(#pd6c2b09057)" style="fill:#ff05fa"/><path id="patch_32" d="M989.576 1000.358a1.996 1.996 0 1 0 0-3.992 1.996 1.996 0 0 0 0 3.992z" clip-path="url(#pd6c2b09057)" style="fill:#f0f"/><path id="patch_33" d="M933.54 892.451a99.797 99.797 0 0 0 70.563-29.228 99.797 99.797 0 0 0 29.229-70.564 99.797 99.797 0 0 0-29.229-70.563 99.797 99.797 0 0 0-70.563-29.229 99.797 99.797 0 0 0-70.564 29.229 99.797 99.797 0 0 0-29.228 70.563 99.797 99.797 0 0 0 29.228 70.564 99.797 99.797 0 0 0 70.564 29.228z" clip-path="url(#pd6c2b09057)" style="fill:#ff0"/><path id="patch_34" d="M263.036 708.941a97.8 97.8 0 0 0 69.152-28.643 97.8 97.8 0 0 0 28.644-69.153 97.8 97.8 0 0 0-28.644-69.152 97.8 97.8 0 0 0-69.152-28.644 97.8 97.8 0 0 0-69.152 28.644 97.8 97.8 0 0 0-28.644 69.152 97.8 97.8 0 0 0 28.644 69.153 97.8 97.8 0 0 0 69.152 28.643z" clip-path="url(#pd6c2b09057)" style="fill:#fffa05"/><path id="patch_35" d="M546.185 1017.17a95.805 95.805 0 0 0 67.74-28.059 95.805 95.805 0 0 0 28.06-67.741 95.805 95.805 0 0 0-28.06-67.741 95.805 95.805 0 0 0-67.74-28.06 95.805 95.805 0 0 0-67.741 28.06 95.805 95.805 0 0 0-28.06 67.74 95.805 95.805 0 0 0 28.06 67.742 95.805 95.805 0 0 0 67.74 28.06z" clip-path="url(#pd6c2b09057)" style="fill:#fff50a"/><path id="patch_36" d="M975.638 1153.44a21.955 21.955 0 1 0-.001-43.91 21.955 21.955 0 0 0 0 43.91z" clip-path="url(#pd6c2b09057)" style="fill:#ff34cb"/><path id="patch_37" d="M535.152 195.437a19.96 19.96 0 1 0-.001-39.919 19.96 19.96 0 0 0 0 39.919z" clip-path="url(#pd6c2b09057)" style="fill:#ff2fd0"/><path id="patch_38" d="M523.694 1153.44a17.963 17.963 0 1 0-.001-35.927 17.963 17.963 0 0 0 0 35.927z" clip-path="url(#pd6c2b09057)" style="fill:#ff29d6"/><path id="patch_39" d="M1147.193 1153.44a15.967 15.967 0 1 0 0-31.935 15.967 15.967 0 0 0 0 31.935z" clip-path="url(#pd6c2b09057)" style="fill:#ff24db"/><path id="patch_40" d="M179.21 183.462a13.972 13.972 0 1 0 0-27.943 13.972 13.972 0 0 0 0 27.943z" clip-path="url(#pd6c2b09057)" style="fill:#ff1fe0"/><path id="patch_41" d="M527.703 1039.524a11.976 11.976 0 1 0 0-23.951 11.976 11.976 0 0 0 0 23.95z" clip-path="url(#pd6c2b09057)" style="fill:#ff1ae5"/><path id="patch_42" d="M1005.52 1153.44a9.98 9.98 0 1 0 0-19.96 9.98 9.98 0 0 0 0 19.96z" clip-path="url(#pd6c2b09057)" style="fill:#ff14eb"/><path id="patch_43" d="M173.223 1012.888a7.984 7.984 0 1 0 0-15.968 7.984 7.984 0 0 0 0 15.968z" clip-path="url(#pd6c2b09057)" style="fill:#ff0ff0"/><path id="patch_44" d="M695.886 167.495a5.988 5.988 0 1 0 0-11.976 5.988 5.988 0 0 0 0 11.976z" clip-path="url(#pd6c2b09057)" style="fill:#ff0af5"/><path id="patch_45" d="M1103.285 163.503a3.992 3.992 0 1 0 0-7.983 3.992 3.992 0 0 0 0 7.983z" clip-path="url(#pd6c2b09057)" style="fill:#ff05fa"/><path id="patch_46" d="M1161.164 159.512a1.996 1.996 0 1 0 0-3.992 1.996 1.996 0 0 0 0 3.992z" clip-path="url(#pd6c2b09057)" style="fill:#f0f"/><path id="patch_47" d="M923.268 634.765a99.797 99.797 0 0 0 70.564-29.228 99.797 99.797 0 0 0 29.228-70.564 99.797 99.797 0 0 0-29.228-70.564 99.797 99.797 0 0 0-70.564-29.228 99.797 99.797 0 0 0-70.564 29.228 99.797 99.797 0 0 0-29.228 70.564 99.797 99.797 0 0 0 29.228 70.564 99.797 99.797 0 0 0 70.564 29.228z" clip-path="url(#pd6c2b09057)" style="fill:#ff0"/><path id="patch_48" d="M350.573 461.799a21.955 21.955 0 1 0 0-43.91 21.955 21.955 0 0 0 0 43.91z" clip-path="url(#pd6c2b09057)" style="fill:#ff34cb"/><path id="patch_49" d="M1143.202 990.145a19.96 19.96 0 1 0-.001-39.919 19.96 19.96 0 0 0 0 39.919z" clip-path="url(#pd6c2b09057)" style="fill:#ff2fd0"/><path id="patch_50" d="M325.516 175.478a9.98 9.98 0 1 0 0-19.959 9.98 9.98 0 0 0 0 19.96z" clip-path="url(#pd6c2b09057)" style="fill:#ff14eb"/><path id="patch_51" d="M1155.177 202.05a7.984 7.984 0 1 0 0-15.967 7.984 7.984 0 0 0 0 15.967z" clip-path="url(#pd6c2b09057)" style="fill:#ff0ff0"/><path id="patch_52" d="M521.742 1112.316a5.988 5.988 0 1 0 0-11.976 5.988 5.988 0 0 0 0 11.976z" clip-path="url(#pd6c2b09057)" style="fill:#ff0af5"/><path id="patch_53" d="M169.232 1024.926a3.992 3.992 0 1 0 0-7.983 3.992 3.992 0 0 0 0 7.983z" clip-path="url(#pd6c2b09057)" style="fill:#ff05fa"/><path id="patch_54" d="M1161.164 1153.44a1.996 1.996 0 1 0 0-3.992 1.996 1.996 0 0 0 0 3.992z" clip-path="url(#pd6c2b09057)" style="fill:#f0f"/><path id="patch_55" d="M565.292 496.012a99.797 99.797 0 0 0 70.564-29.228 99.797 99.797 0 0 0 29.228-70.564 99.797 99.797 0 0 0-29.228-70.563 99.797 99.797 0 0 0-70.564-29.229 99.797 99.797 0 0 0-70.563 29.229A99.797 99.797 0 0 0 465.5 396.22a99.797 99.797 0 0 0 29.229 70.564 99.797 99.797 0 0 0 70.563 29.228z" clip-path="url(#pd6c2b09057)" style="fill:#ff0"/><path id="patch_56" d="M969.755 199.428a21.955 21.955 0 1 0-.001-43.91 21.955 21.955 0 0 0 0 43.91z" clip-path="url(#pd6c2b09057)" style="fill:#ff34cb"/><path id="patch_57" d="M345.582 1153.44a19.96 19.96 0 1 0 0-39.919 19.96 19.96 0 0 0 0 39.919z" clip-path="url(#pd6c2b09057)" style="fill:#ff2fd0"/><path id="patch_58" d="M183.203 355.104a17.963 17.963 0 1 0-.001-35.927 17.963 17.963 0 0 0 0 35.927z" clip-path="url(#pd6c2b09057)" style="fill:#ff29d6"/><path id="patch_59" d="M181.207 1153.44a15.967 15.967 0 1 0 0-31.935 15.967 15.967 0 0 0 0 31.935z" clip-path="url(#pd6c2b09057)" style="fill:#ff24db"/><path id="patch_60" d="M787.56 183.462a13.972 13.972 0 1 0 0-27.943 13.972 13.972 0 0 0 0 27.943z" clip-path="url(#pd6c2b09057)" style="fill:#ff1fe0"/><path id="patch_61" d="M177.215 381.599a11.976 11.976 0 1 0 0-23.951 11.976 11.976 0 0 0 0 23.95z" clip-path="url(#pd6c2b09057)" style="fill:#ff1ae5"/><path id="patch_62" d="M1000.254 175.478a9.98 9.98 0 1 0 0-19.959 9.98 9.98 0 0 0 0 19.96z" clip-path="url(#pd6c2b09057)" style="fill:#ff14eb"/><path id="patch_63" d="M1155.177 1122.876a7.984 7.984 0 1 0 0-15.967 7.984 7.984 0 0 0 0 15.967z" clip-path="url(#pd6c2b09057)" style="fill:#ff0ff0"/><path id="patch_64" d="M535.618 207.408a5.988 5.988 0 1 0 0-11.976 5.988 5.988 0 0 0 0 11.976z" clip-path="url(#pd6c2b09057)" style="fill:#ff0af5"/><path id="patch_65" d="M302.552 163.503a3.992 3.992 0 1 0 0-7.983 3.992 3.992 0 0 0 0 7.983z" clip-path="url(#pd6c2b09057)" style="fill:#ff05fa"/><path id="patch_66" d="M167.236 159.512a1.996 1.996 0 1 0 0-3.992 1.996 1.996 0 0 0 0 3.992z" clip-path="url(#pd6c2b09057)" style="fill:#f0f"/><path id="patch_67" d="M1097.297 804.917a65.866 65.866 0 0 0 65.863-65.863 65.866 65.866 0 0 0-65.863-65.863 65.866 65.866 0 0 0-65.862 65.863 65.866 65.866 0 0 0 65.862 65.863z" clip-path="url(#pd6c2b09057)" style="fill:#ffa758"/><path id="patch_68" d="M731.026 1153.44a63.87 63.87 0 0 0 63.867-63.867 63.87 63.87 0 0 0-63.867-63.867 63.87 63.87 0 0 0-63.867 63.867 63.87 63.87 0 0 0 63.867 63.867z" clip-path="url(#pd6c2b09057)" style="fill:#ffa15e"/><path id="patch_69" d="M1147.193 690.164a15.967 15.967 0 1 0 0-31.935 15.967 15.967 0 0 0 0 31.935z" clip-path="url(#pd6c2b09057)" style="fill:#ff24db"/><path id="patch_70" d="M1046.957 815.496a13.972 13.972 0 1 0 0-27.943 13.972 13.972 0 0 0 0 27.943z" clip-path="url(#pd6c2b09057)" style="fill:#ff1fe0"/><path id="patch_71" d="M363.331 309.907a11.976 11.976 0 1 0 0-23.95 11.976 11.976 0 0 0 0 23.95z" clip-path="url(#pd6c2b09057)" style="fill:#ff1ae5"/><path id="patch_72" d="M175.22 952.99a9.98 9.98 0 1 0-.001-19.959 9.98 9.98 0 0 0 0 19.96z" clip-path="url(#pd6c2b09057)" style="fill:#ff14eb"/><path id="patch_73" d="M204.313 1153.44a7.984 7.984 0 1 0 0-15.967 7.984 7.984 0 0 0 0 15.967z" clip-path="url(#pd6c2b09057)" style="fill:#ff0ff0"/><path id="patch_74" d="M171.228 392.546a5.988 5.988 0 1 0 0-11.975 5.988 5.988 0 0 0 0 11.975z" clip-path="url(#pd6c2b09057)" style="fill:#ff0af5"/><path id="patch_75" d="M1159.168 1100.742a3.992 3.992 0 1 0 0-7.984 3.992 3.992 0 0 0 0 7.984z" clip-path="url(#pd6c2b09057)" style="fill:#ff05fa"/><path id="patch_76" d="M167.236 1153.44a1.996 1.996 0 1 0 0-3.992 1.996 1.996 0 0 0 0 3.992z" clip-path="url(#pd6c2b09057)" style="fill:#f0f"/><path id="patch_77" d="M1039.46 696.341a17.963 17.963 0 1 0-.001-35.926 17.963 17.963 0 0 0 0 35.926z" clip-path="url(#pd6c2b09057)" style="fill:#ff29d6"/><path id="patch_78" d="M663.285 1153.44a15.967 15.967 0 1 0 0-31.935 15.967 15.967 0 0 0 0 31.935z" clip-path="url(#pd6c2b09057)" style="fill:#ff24db"/><path id="patch_79" d="M981.543 451.24a13.972 13.972 0 1 0 0-27.943 13.972 13.972 0 0 0 0 27.943z" clip-path="url(#pd6c2b09057)" style="fill:#ff1fe0"/><path id="patch_80" d="M548.614 297.68a11.976 11.976 0 1 0 0-23.951 11.976 11.976 0 0 0 0 23.95z" clip-path="url(#pd6c2b09057)" style="fill:#ff1ae5"/><path id="patch_81" d="M940.152 175.478a9.98 9.98 0 1 0 0-19.959 9.98 9.98 0 0 0 0 19.96z" clip-path="url(#pd6c2b09057)" style="fill:#ff14eb"/><path id="patch_82" d="M1124.613 1153.44a7.984 7.984 0 1 0 0-15.967 7.984 7.984 0 0 0 0 15.967z" clip-path="url(#pd6c2b09057)" style="fill:#ff0ff0"/><path id="patch_83" d="M1157.172 699.74a5.988 5.988 0 1 0 0-11.976 5.988 5.988 0 0 0 0 11.976z" clip-path="url(#pd6c2b09057)" style="fill:#ff0af5"/><path id="patch_84" d="M1023.451 163.503a3.992 3.992 0 1 0 0-7.983 3.992 3.992 0 0 0 0 7.983z" clip-path="url(#pd6c2b09057)" style="fill:#ff05fa"/><path id="patch_85" d="M1135.903 159.512a1.996 1.996 0 1 0 0-3.992 1.996 1.996 0 0 0 0 3.992z" clip-path="url(#pd6c2b09057)" style="fill:#f0f"/><path id="patch_86" d="M1005.54 384.402a21.955 21.955 0 1 0-.001-43.91 21.955 21.955 0 0 0 0 43.91z" clip-path="url(#pd6c2b09057)" style="fill:#ff34cb"/><path id="patch_87" d="M185.198 542.744a19.96 19.96 0 1 0 0-39.919 19.96 19.96 0 0 0 0 39.92z" clip-path="url(#pd6c2b09057)" style="fill:#ff2fd0"/><path id="patch_88" d="M1145.197 825.808a17.963 17.963 0 1 0 0-35.927 17.963 17.963 0 0 0 0 35.927z" clip-path="url(#pd6c2b09057)" style="fill:#ff29d6"/><path id="patch_89" d="M1153.18 506.058a9.98 9.98 0 1 0 0-19.96 9.98 9.98 0 0 0 0 19.96z" clip-path="url(#pd6c2b09057)" style="fill:#ff14eb"/><path id="patch_90" d="M173.223 198.596a7.984 7.984 0 1 0 0-15.967 7.984 7.984 0 0 0 0 15.967z" clip-path="url(#pd6c2b09057)" style="fill:#ff0ff0"/><path id="patch_91" d="M918.825 167.495a5.988 5.988 0 1 0 0-11.976 5.988 5.988 0 0 0 0 11.976z" clip-path="url(#pd6c2b09057)" style="fill:#ff0af5"/><path id="patch_92" d="M1159.168 219.387a3.992 3.992 0 1 0 0-7.984 3.992 3.992 0 0 0 0 7.984z" clip-path="url(#pd6c2b09057)" style="fill:#ff05fa"/><path id="patch_93" d="M167.236 1034.266a1.996 1.996 0 1 0 0-3.992 1.996 1.996 0 0 0 0 3.992z" clip-path="url(#pd6c2b09057)" style="fill:#f0f"/><path id="patch_94" d="M944.446 436.75a43.91 43.91 0 0 0 43.909-43.908 43.91 43.91 0 0 0-43.909-43.909 43.91 43.91 0 0 0-43.908 43.909 43.91 43.91 0 0 0 43.908 43.908z" clip-path="url(#pd6c2b09057)" style="fill:#ff6d92"/><path id="patch_95" d="M990.208 688.958a35.927 35.927 0 0 0 25.403-61.328 35.927 35.927 0 0 0-61.328 25.403 35.927 35.927 0 0 0 35.925 35.925z" clip-path="url(#pd6c2b09057)" style="fill:#ff58a7"/><path id="patch_96" d="M1141.206 370.88a21.955 21.955 0 1 0-.001-43.911 21.955 21.955 0 0 0 0 43.91z" clip-path="url(#pd6c2b09057)" style="fill:#ff34cb"/><path id="patch_97" d="M973.922 354.892a19.96 19.96 0 1 0 0-39.919 19.96 19.96 0 0 0 0 39.919z" clip-path="url(#pd6c2b09057)" style="fill:#ff2fd0"/><path id="patch_98" d="M798.767 1153.44a17.963 17.963 0 1 0 0-35.927 17.963 17.963 0 0 0 0 35.927z" clip-path="url(#pd6c2b09057)" style="fill:#ff29d6"/><path id="patch_99" d="M1034.774 539.313a11.976 11.976 0 1 0 0-23.95 11.976 11.976 0 0 0 0 23.95z" clip-path="url(#pd6c2b09057)" style="fill:#ff1ae5"/><path id="patch_100" d="M1153.18 328.405a9.98 9.98 0 1 0 0-19.96 9.98 9.98 0 0 0 0 19.96z" clip-path="url(#pd6c2b09057)" style="fill:#ff14eb"/><path id="patch_101" d="M173.223 1122.35a7.984 7.984 0 1 0 0-15.967 7.984 7.984 0 0 0 0 15.967z" clip-path="url(#pd6c2b09057)" style="fill:#ff0ff0"/><path id="patch_102" d="M171.228 210.907a5.988 5.988 0 1 0 0-11.975 5.988 5.988 0 0 0 0 11.975z" clip-path="url(#pd6c2b09057)" style="fill:#ff0af5"/><path id="patch_103" d="M1028.25 1153.44a3.992 3.992 0 1 0 0-7.984 3.992 3.992 0 0 0 0 7.984z" clip-path="url(#pd6c2b09057)" style="fill:#ff05fa"/><path id="patch_104" d="M1161.164 1128.179a1.996 1.996 0 1 0 0-3.992 1.996 1.996 0 0 0 0 3.992z" clip-path="url(#pd6c2b09057)" style="fill:#f0f"/><path id="patch_105" d="M200.333 171.487a7.984 7.984 0 1 0 0-15.968 7.984 7.984 0 0 0 0 15.968z" clip-path="url(#pd6c2b09057)" style="fill:#ff0ff0"/><path id="patch_106" d="M1157.172 793.092a5.988 5.988 0 1 0 0-11.976 5.988 5.988 0 0 0 0 11.976z" clip-path="url(#pd6c2b09057)" style="fill:#ff0af5"/><path id="patch_107" d="M1106.47 1153.44a3.992 3.992 0 1 0 0-7.984 3.992 3.992 0 0 0 0 7.984z" clip-path="url(#pd6c2b09057)" style="fill:#ff05fa"/><path id="patch_108" d="M1161.164 184.773a1.996 1.996 0 1 0 0-3.992 1.996 1.996 0 0 0 0 3.992z" clip-path="url(#pd6c2b09057)" style="fill:#f0f"/><path id="patch_109" d="M211.11 357.737a9.98 9.98 0 1 0 0-19.96 9.98 9.98 0 0 0 0 19.96z" clip-path="url(#pd6c2b09057)" style="fill:#ff14eb"/><path id="patch_110" d="M313.776 1153.44a7.984 7.984 0 1 0 0-15.967 7.984 7.984 0 0 0 0 15.967z" clip-path="url(#pd6c2b09057)" style="fill:#ff0ff0"/><path id="patch_111" d="M214.16 167.495a5.988 5.988 0 1 0 0-11.976 5.988 5.988 0 0 0 0 11.976z" clip-path="url(#pd6c2b09057)" style="fill:#ff0af5"/><path id="patch_112" d="M1159.168 299.22a3.992 3.992 0 1 0 0-7.983 3.992 3.992 0 0 0 0 7.983z" clip-path="url(#pd6c2b09057)" style="fill:#ff05fa"/><path id="patch_113" d="M192.497 1153.44a1.996 1.996 0 1 0 0-3.992 1.996 1.996 0 0 0 0 3.992z" clip-path="url(#pd6c2b09057)" style="fill:#f0f"/><path id="patch_114" d="M377.184 434.112a7.984 7.984 0 1 0 0-15.967 7.984 7.984 0 0 0 0 15.967z" clip-path="url(#pd6c2b09057)" style="fill:#ff0ff0"/><path id="patch_115" d="M643.73 1153.44a5.988 5.988 0 1 0 0-11.976 5.988 5.988 0 0 0 0 11.976z" clip-path="url(#pd6c2b09057)" style="fill:#ff0af5"/><path id="patch_116" d="M220.344 1153.44a3.992 3.992 0 1 0 0-7.984 3.992 3.992 0 0 0 0 7.984z" clip-path="url(#pd6c2b09057)" style="fill:#ff05fa"/><path id="patch_117" d="M1135.903 1153.44a1.996 1.996 0 1 0 0-3.992 1.996 1.996 0 0 0 0 3.992z" clip-path="url(#pd6c2b09057)" style="fill:#f0f"/><path id="patch_118" d="M719.719 395.844a69.858 69.858 0 0 0 69.854-69.854 69.858 69.858 0 0 0-69.854-69.854 69.858 69.858 0 0 0-69.854 69.854 69.858 69.858 0 0 0 69.854 69.854z" clip-path="url(#pd6c2b09057)" style="fill:#ffb14e"/><path id="patch_119" d="M1153.18 388.507a9.98 9.98 0 1 0 0-19.959 9.98 9.98 0 0 0 0 19.96z" clip-path="url(#pd6c2b09057)" style="fill:#ff14eb"/><path id="patch_120" d="M173.223 317.183a7.984 7.984 0 1 0 0-15.967 7.984 7.984 0 0 0 0 15.967z" clip-path="url(#pd6c2b09057)" style="fill:#ff0ff0"/><path id="patch_121" d="M778.026 1153.44a5.988 5.988 0 1 0 0-11.976 5.988 5.988 0 0 0 0 11.976z" clip-path="url(#pd6c2b09057)" style="fill:#ff0af5"/><path id="patch_122" d="M297.745 1153.44a3.992 3.992 0 1 0 0-7.984 3.992 3.992 0 0 0 0 7.984z" clip-path="url(#pd6c2b09057)" style="fill:#ff05fa"/><path id="patch_123" d="M1039.705 1153.44a1.996 1.996 0 1 0 0-3.992 1.996 1.996 0 0 0 0 3.992z" clip-path="url(#pd6c2b09057)" style="fill:#f0f"/><path id="patch_124" d="M830.96 1153.44a7.984 7.984 0 1 0 0-15.967 7.984 7.984 0 0 0 0 15.967z" clip-path="url(#pd6c2b09057)" style="fill:#ff0ff0"/><path id="patch_125" d="M1026.398 517.436a5.988 5.988 0 1 0 0-11.976 5.988 5.988 0 0 0 0 11.976z" clip-path="url(#pd6c2b09057)" style="fill:#ff0af5"/><path id="patch_126" d="M169.232 1102.328a3.992 3.992 0 1 0 0-7.984 3.992 3.992 0 0 0 0 7.984z" clip-path="url(#pd6c2b09057)" style="fill:#ff05fa"/><path id="patch_127" d="M167.236 182.048a1.996 1.996 0 1 0 0-3.992 1.996 1.996 0 0 0 0 3.992z" clip-path="url(#pd6c2b09057)" style="fill:#f0f"/><path id="patch_128" d="M426.774 485.32a43.91 43.91 0 0 0 43.909-43.908 43.91 43.91 0 0 0-43.909-43.908 43.91 43.91 0 0 0-43.908 43.908 43.91 43.91 0 0 0 43.908 43.909z" clip-path="url(#pd6c2b09057)" style="fill:#ff6d92"/><path id="patch_129" d="M674.798 1041.888a41.915 41.915 0 0 0 41.912-41.912 41.915 41.915 0 0 0-41.912-41.913 41.915 41.915 0 0 0-41.913 41.913 41.915 41.915 0 0 0 41.913 41.912z" clip-path="url(#pd6c2b09057)" style="fill:#ff6897"/><path id="patch_130" d="M346.901 541.83a39.919 39.919 0 0 0 39.917-39.916 39.919 39.919 0 0 0-39.917-39.917 39.919 39.919 0 0 0-39.916 39.917A39.919 39.919 0 0 0 346.9 541.83z" clip-path="url(#pd6c2b09057)" style="fill:#ff639c"/><path id="patch_131" d="M1155.177 1010.313a7.984 7.984 0 1 0 0-15.968 7.984 7.984 0 0 0 0 15.968z" clip-path="url(#pd6c2b09057)" style="fill:#ff0ff0"/><path id="patch_132" d="M359.55 221.146a5.988 5.988 0 1 0 0-11.975 5.988 5.988 0 0 0 0 11.975z" clip-path="url(#pd6c2b09057)" style="fill:#ff0af5"/><path id="patch_133" d="M772.625 163.503a3.992 3.992 0 1 0 0-7.983 3.992 3.992 0 0 0 0 7.983z" clip-path="url(#pd6c2b09057)" style="fill:#ff05fa"/><path id="patch_134" d="M167.236 1128.179a1.996 1.996 0 1 0 0-3.992 1.996 1.996 0 0 0 0 3.992z" clip-path="url(#pd6c2b09057)" style="fill:#f0f"/><path id="patch_135" d="M458.937 685.172a99.797 99.797 0 0 0 70.564-29.229 99.797 99.797 0 0 0 29.228-70.563 99.797 99.797 0 0 0-29.228-70.564 99.797 99.797 0 0 0-70.564-29.228 99.797 99.797 0 0 0-70.563 29.228 99.797 99.797 0 0 0-29.229 70.564 99.797 99.797 0 0 0 29.229 70.563 99.797 99.797 0 0 0 70.563 29.229z" clip-path="url(#pd6c2b09057)" style="fill:#ff0"/><path id="patch_136" d="M963.184 316.835a11.976 11.976 0 1 0 0-23.951 11.976 11.976 0 0 0 0 23.95z" clip-path="url(#pd6c2b09057)" style="fill:#ff1ae5"/><path id="patch_137" d="M390.6 175.478a9.98 9.98 0 1 0 0-19.959 9.98 9.98 0 0 0 0 19.96z" clip-path="url(#pd6c2b09057)" style="fill:#ff14eb"/><path id="patch_138" d="M560.397 171.487a7.984 7.984 0 1 0 0-15.968 7.984 7.984 0 0 0 0 15.968z" clip-path="url(#pd6c2b09057)" style="fill:#ff0ff0"/><path id="patch_139" d="M333.66 423.591a5.988 5.988 0 1 0 0-11.975 5.988 5.988 0 0 0 0 11.975z" clip-path="url(#pd6c2b09057)" style="fill:#ff0af5"/><path id="patch_140" d="M169.232 296.823a3.992 3.992 0 1 0 0-7.983 3.992 3.992 0 0 0 0 7.983z" clip-path="url(#pd6c2b09057)" style="fill:#ff05fa"/><path id="patch_141" d="M231.679 1153.44a1.996 1.996 0 1 0 0-3.992 1.996 1.996 0 0 0 0 3.992z" clip-path="url(#pd6c2b09057)" style="fill:#f0f"/><path id="patch_142" d="M381.46 869.104a99.797 99.797 0 0 0 70.564-29.228 99.797 99.797 0 0 0 29.229-70.564 99.797 99.797 0 0 0-29.229-70.564 99.797 99.797 0 0 0-70.563-29.228 99.797 99.797 0 0 0-70.564 29.228 99.797 99.797 0 0 0-29.228 70.564 99.797 99.797 0 0 0 29.228 70.564 99.797 99.797 0 0 0 70.564 29.228z" clip-path="url(#pd6c2b09057)" style="fill:#ff0"/><path id="patch_143" d="M962.42 292.901a5.988 5.988 0 1 0-.001-11.976 5.988 5.988 0 0 0 0 11.976z" clip-path="url(#pd6c2b09057)" style="fill:#ff0af5"/><path id="patch_144" d="M1159.168 1022.521a3.992 3.992 0 1 0 0-7.984 3.992 3.992 0 0 0 0 7.984z" clip-path="url(#pd6c2b09057)" style="fill:#ff05fa"/><path id="patch_145" d="M189.772 159.512a1.996 1.996 0 1 0 0-3.992 1.996 1.996 0 0 0 0 3.992z" clip-path="url(#pd6c2b09057)" style="fill:#f0f"/><path id="patch_146" d="M620.938 1013.678a11.976 11.976 0 1 0 0-23.95 11.976 11.976 0 0 0 0 23.95z" clip-path="url(#pd6c2b09057)" style="fill:#ff1ae5"/><path id="patch_147" d="M943.122 1153.44a9.98 9.98 0 1 0 0-19.96 9.98 9.98 0 0 0 0 19.96z" clip-path="url(#pd6c2b09057)" style="fill:#ff14eb"/><path id="patch_148" d="M1155.177 556.472a7.984 7.984 0 1 0 0-15.968 7.984 7.984 0 0 0 0 15.968z" clip-path="url(#pd6c2b09057)" style="fill:#ff0ff0"/><path id="patch_149" d="M193.7 368.479a5.988 5.988 0 1 0 0-11.976 5.988 5.988 0 0 0 0 11.976z" clip-path="url(#pd6c2b09057)" style="fill:#ff0af5"/><path id="patch_150" d="M1018.144 1153.44a3.992 3.992 0 1 0 0-7.984 3.992 3.992 0 0 0 0 7.984z" clip-path="url(#pd6c2b09057)" style="fill:#ff05fa"/><path id="patch_151" d="M167.236 227.37a1.996 1.996 0 1 0 0-3.992 1.996 1.996 0 0 0 0 3.992z" clip-path="url(#pd6c2b09057)" style="fill:#f0f"/><path id="patch_152" d="M546.686 1148.171a5.988 5.988 0 1 0 0-11.976 5.988 5.988 0 0 0 0 11.976z" clip-path="url(#pd6c2b09057)" style="fill:#ff0af5"/><path id="patch_153" d="M1159.168 395.143a3.992 3.992 0 1 0 0-7.984 3.992 3.992 0 0 0 0 7.984z" clip-path="url(#pd6c2b09057)" style="fill:#ff05fa"/><path id="patch_154" d="M286.41 1153.44a1.996 1.996 0 1 0 0-3.992 1.996 1.996 0 0 0 0 3.992z" clip-path="url(#pd6c2b09057)" style="fill:#f0f"/><path id="patch_155" d="M769.667 1032.112a55.886 55.886 0 0 0 55.883-55.884 55.886 55.886 0 0 0-55.883-55.883 55.886 55.886 0 0 0-55.884 55.883 55.886 55.886 0 0 0 55.884 55.884z" clip-path="url(#pd6c2b09057)" style="fill:#ff8d72"/><path id="patch_156" d="M217.132 809.724a51.894 51.894 0 0 0 51.892-51.891 51.894 51.894 0 0 0-51.892-51.892 51.894 51.894 0 0 0-51.892 51.892 51.894 51.894 0 0 0 51.892 51.891z" clip-path="url(#pd6c2b09057)" style="fill:#ff827d"/><path id="patch_157" d="M862.102 974.097a49.898 49.898 0 0 0 49.896-49.896 49.898 49.898 0 0 0-49.896-49.896 49.898 49.898 0 0 0-49.896 49.896 49.898 49.898 0 0 0 49.896 49.896z" clip-path="url(#pd6c2b09057)" style="fill:#ff7d82"/><path id="patch_158" d="M447.265 383a23.951 23.951 0 1 0-.001-47.902 23.951 23.951 0 0 0 0 47.902z" clip-path="url(#pd6c2b09057)" style="fill:#ff39c6"/><path id="patch_159" d="M434.913 981.857a21.955 21.955 0 1 0 0-43.91 21.955 21.955 0 0 0 0 43.91z" clip-path="url(#pd6c2b09057)" style="fill:#ff34cb"/><path id="patch_160" d="M175.22 499.362a9.98 9.98 0 1 0-.001-19.96 9.98 9.98 0 0 0 0 19.96z" clip-path="url(#pd6c2b09057)" style="fill:#ff14eb"/><path id="patch_161" d="M685.865 1153.44a7.984 7.984 0 1 0 0-15.967 7.984 7.984 0 0 0 0 15.967z" clip-path="url(#pd6c2b09057)" style="fill:#ff0ff0"/><path id="patch_162" d="M1038.901 789.252a5.988 5.988 0 1 0 0-11.976 5.988 5.988 0 0 0 0 11.976z" clip-path="url(#pd6c2b09057)" style="fill:#ff0af5"/><path id="patch_163" d="M338.139 163.503a3.992 3.992 0 1 0 0-7.983 3.992 3.992 0 0 0 0 7.983z" clip-path="url(#pd6c2b09057)" style="fill:#ff05fa"/><path id="patch_164" d="M1161.164 1087.29a1.996 1.996 0 1 0 0-3.991 1.996 1.996 0 0 0 0 3.992z" clip-path="url(#pd6c2b09057)" style="fill:#f0f"/><path id="patch_165" d="M299.13 513.4a7.984 7.984 0 1 0-.001-15.968 7.984 7.984 0 0 0 0 15.967z" clip-path="url(#pd6c2b09057)" style="fill:#ff0ff0"/><path id="patch_166" d="M629.077 991.678a5.988 5.988 0 1 0 0-11.975 5.988 5.988 0 0 0 0 11.975z" clip-path="url(#pd6c2b09057)" style="fill:#ff0af5"/><path id="patch_167" d="M1159.168 487.448a3.992 3.992 0 1 0 0-7.984 3.992 3.992 0 0 0 0 7.984z" clip-path="url(#pd6c2b09057)" style="fill:#ff05fa"/><path id="patch_168" d="M1035.143 159.512a1.996 1.996 0 1 0 0-3.992 1.996 1.996 0 0 0 0 3.992z" clip-path="url(#pd6c2b09057)" style="fill:#f0f"/><path id="patch_169" d="M682.672 423.572a17.963 17.963 0 1 0 0-35.926 17.963 17.963 0 0 0 0 35.926z" clip-path="url(#pd6c2b09057)" style="fill:#ff29d6"/><path id="patch_170" d="M179.21 833.738a13.972 13.972 0 1 0 0-27.943 13.972 13.972 0 0 0 0 27.943z" clip-path="url(#pd6c2b09057)" style="fill:#ff1fe0"/><path id="patch_171" d="M397.801 503.79a11.976 11.976 0 1 0 0-23.95 11.976 11.976 0 0 0 0 23.95z" clip-path="url(#pd6c2b09057)" style="fill:#ff1ae5"/><path id="patch_172" d="M373.807 1153.44a9.98 9.98 0 1 0 0-19.96 9.98 9.98 0 0 0 0 19.96z" clip-path="url(#pd6c2b09057)" style="fill:#ff14eb"/><path id="patch_173" d="M173.223 563.245a7.984 7.984 0 1 0 0-15.967 7.984 7.984 0 0 0 0 15.967z" clip-path="url(#pd6c2b09057)" style="fill:#ff0ff0"/><path id="patch_174" d="M1033.445 367.017a5.988 5.988 0 1 0 0-11.976 5.988 5.988 0 0 0 0 11.976z" clip-path="url(#pd6c2b09057)" style="fill:#ff0af5"/><path id="patch_175" d="M1159.168 992.03a3.992 3.992 0 1 0 0-7.984 3.992 3.992 0 0 0 0 7.983z" clip-path="url(#pd6c2b09057)" style="fill:#ff05fa"/><path id="patch_176" d="M167.236 283.254a1.996 1.996 0 1 0 0-3.992 1.996 1.996 0 0 0 0 3.992z" clip-path="url(#pd6c2b09057)" style="fill:#f0f"/><path id="patch_177" d="M504.03 171.487a7.984 7.984 0 1 0-.001-15.968 7.984 7.984 0 0 0 0 15.968z" clip-path="url(#pd6c2b09057)" style="fill:#ff0ff0"/><path id="patch_178" d="M171.228 848.821a5.988 5.988 0 1 0 0-11.975 5.988 5.988 0 0 0 0 11.975z" clip-path="url(#pd6c2b09057)" style="fill:#ff0af5"/><path id="patch_179" d="M1159.168 209.349a3.992 3.992 0 1 0 0-7.984 3.992 3.992 0 0 0 0 7.984z" clip-path="url(#pd6c2b09057)" style="fill:#ff05fa"/><path id="patch_180" d="M167.236 1088.997a1.996 1.996 0 1 0 0-3.992 1.996 1.996 0 0 0 0 3.992z" clip-path="url(#pd6c2b09057)" style="fill:#f0f"/><path id="patch_181" d="M1153.18 950.653a9.98 9.98 0 1 0 0-19.96 9.98 9.98 0 0 0 0 19.96z" clip-path="url(#pd6c2b09057)" style="fill:#ff14eb"/><path id="patch_182" d="M490.843 1153.44a7.984 7.984 0 1 0 0-15.967 7.984 7.984 0 0 0 0 15.967z" clip-path="url(#pd6c2b09057)" style="fill:#ff0ff0"/><path id="patch_183" d="M389.267 1153.44a5.988 5.988 0 1 0 0-11.976 5.988 5.988 0 0 0 0 11.976z" clip-path="url(#pd6c2b09057)" style="fill:#ff0af5"/><path id="patch_184" d="M1111.268 163.503a3.992 3.992 0 1 0 0-7.983 3.992 3.992 0 0 0 0 7.983z" clip-path="url(#pd6c2b09057)" style="fill:#ff05fa"/><path id="patch_185" d="M1161.164 1031.98a1.996 1.996 0 1 0 0-3.992 1.996 1.996 0 0 0 0 3.992z" clip-path="url(#pd6c2b09057)" style="fill:#f0f"/><path id="patch_186" d="M811.176 175.478a9.98 9.98 0 1 0 0-19.959 9.98 9.98 0 0 0 0 19.96z" clip-path="url(#pd6c2b09057)" style="fill:#ff14eb"/><path id="patch_187" d="M173.223 806.628a7.984 7.984 0 1 0 0-15.967 7.984 7.984 0 0 0 0 15.967z" clip-path="url(#pd6c2b09057)" style="fill:#ff0ff0"/><path id="patch_188" d="M665.541 1121.623a5.988 5.988 0 1 0 0-11.976 5.988 5.988 0 0 0 0 11.976z" clip-path="url(#pd6c2b09057)" style="fill:#ff0af5"/><path id="patch_189" d="M842.25 1153.44a3.992 3.992 0 1 0 0-7.984 3.992 3.992 0 0 0 0 7.984z" clip-path="url(#pd6c2b09057)" style="fill:#ff05fa"/><path id="patch_190" d="M235.094 159.512a1.996 1.996 0 1 0 0-3.992 1.996 1.996 0 0 0 0 3.992z" clip-path="url(#pd6c2b09057)" style="fill:#f0f"/><path id="patch_191" d="M564.43 823.92a85.825 85.825 0 0 0 85.822-85.82 85.825 85.825 0 0 0-85.821-85.822 85.825 85.825 0 0 0-85.822 85.821 85.825 85.825 0 0 0 85.822 85.822z" clip-path="url(#pd6c2b09057)" style="fill:#ffdb24"/><path id="patch_192" d="M270.597 810.266a13.972 13.972 0 1 0 0-27.943 13.972 13.972 0 0 0 0 27.943z" clip-path="url(#pd6c2b09057)" style="fill:#ff1fe0"/><path id="patch_193" d="M639.052 324.223a11.976 11.976 0 1 0 0-23.952 11.976 11.976 0 0 0 0 23.952z" clip-path="url(#pd6c2b09057)" style="fill:#ff1ae5"/><path id="patch_194" d="M1031.066 963.964a9.98 9.98 0 1 0 0-19.96 9.98 9.98 0 0 0 0 19.96z" clip-path="url(#pd6c2b09057)" style="fill:#ff14eb"/><path id="patch_195" d="M1155.177 654.897a7.984 7.984 0 1 0 0-15.967 7.984 7.984 0 0 0 0 15.967z" clip-path="url(#pd6c2b09057)" style="fill:#ff0ff0"/><path id="patch_196" d="M414.513 984.985a5.988 5.988 0 1 0 0-11.976 5.988 5.988 0 0 0 0 11.976z" clip-path="url(#pd6c2b09057)" style="fill:#ff0af5"/><path id="patch_197" d="M1159.168 309.795a3.992 3.992 0 1 0 0-7.984 3.992 3.992 0 0 0 0 7.984z" clip-path="url(#pd6c2b09057)" style="fill:#ff05fa"/><path id="patch_198" d="M1095.015 1153.44a1.996 1.996 0 1 0 0-3.992 1.996 1.996 0 0 0 0 3.992z" clip-path="url(#pd6c2b09057)" style="fill:#f0f"/><path id="patch_199" d="M658.386 677.814a99.797 99.797 0 0 0 70.563-29.228 99.797 99.797 0 0 0 29.229-70.564 99.797 99.797 0 0 0-29.229-70.563 99.797 99.797 0 0 0-70.563-29.229 99.797 99.797 0 0 0-70.564 29.229 99.797 99.797 0 0 0-29.228 70.563 99.797 99.797 0 0 0 29.228 70.564 99.797 99.797 0 0 0 70.564 29.228z" clip-path="url(#pd6c2b09057)" style="fill:#ff0"/><path id="patch_200" d="M1155.177 839.779a7.984 7.984 0 1 0 0-15.968 7.984 7.984 0 0 0 0 15.968z" clip-path="url(#pd6c2b09057)" style="fill:#ff0ff0"/><path id="patch_201" d="M543.725 274.408a5.988 5.988 0 1 0 0-11.976 5.988 5.988 0 0 0 0 11.976z" clip-path="url(#pd6c2b09057)" style="fill:#ff0af5"/><path id="patch_202" d="M629.414 1153.44a3.992 3.992 0 1 0 0-7.984 3.992 3.992 0 0 0 0 7.984z" clip-path="url(#pd6c2b09057)" style="fill:#ff05fa"/><path id="patch_203" d="M1091.593 159.512a1.996 1.996 0 1 0 0-3.992 1.996 1.996 0 0 0 0 3.992z" clip-path="url(#pd6c2b09057)" style="fill:#f0f"/><path id="patch_204" d="M369.86 670.113a13.972 13.972 0 1 0 0-27.943 13.972 13.972 0 0 0 0 27.943z" clip-path="url(#pd6c2b09057)" style="fill:#ff1fe0"/><path id="patch_205" d="M945.295 332.76a11.976 11.976 0 1 0 0-23.952 11.976 11.976 0 0 0 0 23.951z" clip-path="url(#pd6c2b09057)" style="fill:#ff1ae5"/><path id="patch_206" d="M352.682 1024.86a9.98 9.98 0 1 0 0-19.96 9.98 9.98 0 0 0 0 19.96z" clip-path="url(#pd6c2b09057)" style="fill:#ff14eb"/><path id="patch_207" d="M721.166 1026.386a7.984 7.984 0 1 0 0-15.968 7.984 7.984 0 0 0 0 15.968z" clip-path="url(#pd6c2b09057)" style="fill:#ff0ff0"/><path id="patch_208" d="M670.475 390.986a5.988 5.988 0 1 0 0-11.976 5.988 5.988 0 0 0 0 11.976z" clip-path="url(#pd6c2b09057)" style="fill:#ff0af5"/><path id="patch_209" d="M492.739 163.503a3.992 3.992 0 1 0 0-7.983 3.992 3.992 0 0 0 0 7.983z" clip-path="url(#pd6c2b09057)" style="fill:#ff05fa"/><path id="patch_210" d="M290.978 159.512a1.996 1.996 0 1 0 0-3.992 1.996 1.996 0 0 0 0 3.992z" clip-path="url(#pd6c2b09057)" style="fill:#f0f"/><path id="patch_211" d="M652.75 705.616a13.972 13.972 0 1 0 0-27.943 13.972 13.972 0 0 0 0 27.943z" clip-path="url(#pd6c2b09057)" style="fill:#ff1fe0"/><path id="patch_212" d="M281.48 731.331a11.976 11.976 0 1 0-.001-23.951 11.976 11.976 0 0 0 0 23.951z" clip-path="url(#pd6c2b09057)" style="fill:#ff1ae5"/><path id="patch_213" d="M425.12 397.529a9.98 9.98 0 1 0 0-19.96 9.98 9.98 0 0 0 0 19.96z" clip-path="url(#pd6c2b09057)" style="fill:#ff14eb"/><path id="patch_214" d="M1000.34 618.292a7.984 7.984 0 1 0 0-15.967 7.984 7.984 0 0 0 0 15.967z" clip-path="url(#pd6c2b09057)" style="fill:#ff0ff0"/><path id="patch_215" d="M987.42 424.183a5.988 5.988 0 1 0 0-11.975 5.988 5.988 0 0 0 0 11.975z" clip-path="url(#pd6c2b09057)" style="fill:#ff0af5"/><path id="patch_216" d="M1159.168 710.617a3.992 3.992 0 1 0 0-7.984 3.992 3.992 0 0 0 0 7.984z" clip-path="url(#pd6c2b09057)" style="fill:#ff05fa"/><path id="patch_217" d="M1161.164 285.533a1.996 1.996 0 1 0 0-3.992 1.996 1.996 0 0 0 0 3.992z" clip-path="url(#pd6c2b09057)" style="fill:#f0f"/><path id="patch_218" d="M740.733 501.822a53.89 53.89 0 0 0 53.887-53.887 53.89 53.89 0 0 0-53.887-53.888 53.89 53.89 0 0 0-53.888 53.888 53.89 53.89 0 0 0 53.888 53.887z" clip-path="url(#pd6c2b09057)" style="fill:#ff8778"/><path id="patch_219" d="M826.013 437.243a51.894 51.894 0 0 0 51.891-51.891 51.894 51.894 0 0 0-51.891-51.892 51.894 51.894 0 0 0-51.892 51.892 51.894 51.894 0 0 0 51.892 51.892z" clip-path="url(#pd6c2b09057)" style="fill:#ff827d"/><path id="patch_220" d="M671.984 449.673a13.972 13.972 0 1 0 0-27.943 13.972 13.972 0 0 0 0 27.943z" clip-path="url(#pd6c2b09057)" style="fill:#ff1fe0"/><path id="patch_221" d="M801.548 338.331a11.976 11.976 0 1 0 0-23.95 11.976 11.976 0 0 0 0 23.95z" clip-path="url(#pd6c2b09057)" style="fill:#ff1ae5"/><path id="patch_222" d="M694.635 259.84a9.98 9.98 0 1 0 0-19.96 9.98 9.98 0 0 0 0 19.96z" clip-path="url(#pd6c2b09057)" style="fill:#ff14eb"/><path id="patch_223" d="M386.686 483.222a7.984 7.984 0 1 0 0-15.968 7.984 7.984 0 0 0 0 15.968z" clip-path="url(#pd6c2b09057)" style="fill:#ff0ff0"/><path id="patch_224" d="M1121.256 529.229a5.988 5.988 0 1 0 0-11.976 5.988 5.988 0 0 0 0 11.976z" clip-path="url(#pd6c2b09057)" style="fill:#ff0af5"/><path id="patch_225" d="M169.232 505.997a3.992 3.992 0 1 0 0-7.983 3.992 3.992 0 0 0 0 7.983z" clip-path="url(#pd6c2b09057)" style="fill:#ff05fa"/><path id="patch_226" d="M1161.164 229.082a1.996 1.996 0 1 0 0-3.991 1.996 1.996 0 0 0 0 3.991z" clip-path="url(#pd6c2b09057)" style="fill:#f0f"/><path id="patch_227" d="M768.142 390.349a5.988 5.988 0 1 0 0-11.976 5.988 5.988 0 0 0 0 11.976z" clip-path="url(#pd6c2b09057)" style="fill:#ff0af5"/><path id="patch_228" d="M169.232 934.38a3.992 3.992 0 1 0 0-7.984 3.992 3.992 0 0 0 0 7.984z" clip-path="url(#pd6c2b09057)" style="fill:#ff05fa"/><path id="patch_229" d="M982.994 159.512a1.996 1.996 0 1 0 0-3.992 1.996 1.996 0 0 0 0 3.992z" clip-path="url(#pd6c2b09057)" style="fill:#f0f"/><path id="patch_230" d="M689.574 959.315a45.906 45.906 0 0 0 45.905-45.904 45.906 45.906 0 0 0-45.905-45.904 45.906 45.906 0 0 0-45.904 45.904 45.906 45.906 0 0 0 45.904 45.904z" clip-path="url(#pd6c2b09057)" style="fill:#ff728d"/><path id="patch_231" d="M561.929 652.31a13.972 13.972 0 1 0 0-27.943 13.972 13.972 0 0 0 0 27.943z" clip-path="url(#pd6c2b09057)" style="fill:#ff1fe0"/><path id="patch_232" d="M658.514 469.852a11.976 11.976 0 1 0 0-23.951 11.976 11.976 0 0 0 0 23.951z" clip-path="url(#pd6c2b09057)" style="fill:#ff1ae5"/><path id="patch_233" d="M992.98 894.924a9.98 9.98 0 1 0-.001-19.959 9.98 9.98 0 0 0 0 19.96z" clip-path="url(#pd6c2b09057)" style="fill:#ff14eb"/><path id="patch_234" d="M668.64 1057.474a7.984 7.984 0 1 0 0-15.968 7.984 7.984 0 0 0 0 15.968z" clip-path="url(#pd6c2b09057)" style="fill:#ff0ff0"/><path id="patch_235" d="M271.958 782.37a5.988 5.988 0 1 0 0-11.975 5.988 5.988 0 0 0 0 11.976z" clip-path="url(#pd6c2b09057)" style="fill:#ff0af5"/><path id="patch_236" d="M515.32 163.503a3.992 3.992 0 1 0 0-7.983 3.992 3.992 0 0 0 0 7.983z" clip-path="url(#pd6c2b09057)" style="fill:#ff05fa"/><path id="patch_237" d="M221.074 159.512a1.996 1.996 0 1 0 0-3.992 1.996 1.996 0 0 0 0 3.992z" clip-path="url(#pd6c2b09057)" style="fill:#f0f"/><path id="patch_238" d="M676.275 461.181a5.988 5.988 0 1 0 0-11.976 5.988 5.988 0 0 0 0 11.976z" clip-path="url(#pd6c2b09057)" style="fill:#ff0af5"/><path id="patch_239" d="M768.248 1153.44a3.992 3.992 0 1 0 0-7.984 3.992 3.992 0 0 0 0 7.984z" clip-path="url(#pd6c2b09057)" style="fill:#ff05fa"/><path id="patch_240" d="M167.236 962.471a1.996 1.996 0 1 0 0-3.992 1.996 1.996 0 0 0 0 3.992z" clip-path="url(#pd6c2b09057)" style="fill:#f0f"/><path id="patch_241" d="M472.928 712.25a13.972 13.972 0 1 0 0-27.943 13.972 13.972 0 0 0 0 27.943z" clip-path="url(#pd6c2b09057)" style="fill:#ff1fe0"/><path id="patch_242" d="M177.215 691.563a11.976 11.976 0 1 0 0-23.95 11.976 11.976 0 0 0 0 23.95z" clip-path="url(#pd6c2b09057)" style="fill:#ff1ae5"/><path id="patch_243" d="M785.83 1050.056a9.98 9.98 0 1 0-.001-19.959 9.98 9.98 0 0 0 0 19.96z" clip-path="url(#pd6c2b09057)" style="fill:#ff14eb"/><path id="patch_244" d="M920.778 907.66a7.984 7.984 0 1 0 0-15.967 7.984 7.984 0 0 0 0 15.967z" clip-path="url(#pd6c2b09057)" style="fill:#ff0ff0"/><path id="patch_245" d="M473.223 350.125a5.988 5.988 0 1 0 0-11.976 5.988 5.988 0 0 0 0 11.976z" clip-path="url(#pd6c2b09057)" style="fill:#ff0af5"/><path id="patch_246" d="M169.232 358.068a3.992 3.992 0 1 0 0-7.983 3.992 3.992 0 0 0 0 7.983z" clip-path="url(#pd6c2b09057)" style="fill:#ff05fa"/><path id="patch_247" d="M1112.115 1153.44a1.996 1.996 0 1 0 0-3.992 1.996 1.996 0 0 0 0 3.992z" clip-path="url(#pd6c2b09057)" style="fill:#f0f"/><path id="patch_248" d="M819.154 488.833a25.947 25.947 0 0 0 0-51.892 25.947 25.947 0 0 0 0 51.892z" clip-path="url(#pd6c2b09057)" style="fill:#ff3ec1"/><path id="patch_249" d="M426.617 938.705a23.951 23.951 0 1 0 0-47.903 23.951 23.951 0 0 0 0 47.903z" clip-path="url(#pd6c2b09057)" style="fill:#ff39c6"/><path id="patch_250" d="M1000.085 399.867a7.984 7.984 0 1 0 0-15.967 7.984 7.984 0 0 0 0 15.967z" clip-path="url(#pd6c2b09057)" style="fill:#ff0ff0"/><path id="patch_251" d="M171.228 665.53a5.988 5.988 0 1 0 0-11.976 5.988 5.988 0 0 0 0 11.975z" clip-path="url(#pd6c2b09057)" style="fill:#ff0af5"/><path id="patch_252" d="M1159.168 563.77a3.992 3.992 0 1 0 0-7.983 3.992 3.992 0 0 0 0 7.983z" clip-path="url(#pd6c2b09057)" style="fill:#ff05fa"/><path id="patch_253" d="M167.236 1017.285a1.996 1.996 0 1 0 0-3.991 1.996 1.996 0 0 0 0 3.991z" clip-path="url(#pd6c2b09057)" style="fill:#f0f"/><path id="patch_254" d="M1012.877 163.503a3.992 3.992 0 1 0 0-7.983 3.992 3.992 0 0 0 0 7.983z" clip-path="url(#pd6c2b09057)" style="fill:#ff05fa"/><path id="patch_255" d="M225.989 1153.44a1.996 1.996 0 1 0 0-3.992 1.996 1.996 0 0 0 0 3.992z" clip-path="url(#pd6c2b09057)" style="fill:#f0f"/><path id="patch_256" d="M442.53 399.954a7.984 7.984 0 1 0 0-15.968 7.984 7.984 0 0 0 0 15.968z" clip-path="url(#pd6c2b09057)" style="fill:#ff0ff0"/><path id="patch_257" d="M274.602 770.691a5.988 5.988 0 1 0 0-11.975 5.988 5.988 0 0 0 0 11.975z" clip-path="url(#pd6c2b09057)" style="fill:#ff0af5"/><path id="patch_258" d="M169.232 480.752a3.992 3.992 0 1 0 0-7.984 3.992 3.992 0 0 0 0 7.984z" clip-path="url(#pd6c2b09057)" style="fill:#ff05fa"/><path id="patch_259" d="M650.643 1153.44a1.996 1.996 0 1 0 0-3.992 1.996 1.996 0 0 0 0 3.992z" clip-path="url(#pd6c2b09057)" style="fill:#f0f"/><path id="patch_260" d="M169.232 544.629a3.992 3.992 0 1 0 0-7.984 3.992 3.992 0 0 0 0 7.984z" clip-path="url(#pd6c2b09057)" style="fill:#ff05fa"/><path id="patch_261" d="M1161.164 364.16a1.996 1.996 0 1 0 0-3.992 1.996 1.996 0 0 0 0 3.992z" clip-path="url(#pd6c2b09057)" style="fill:#f0f"/><path id="patch_262" d="M352.778 561.442a9.98 9.98 0 1 0 0-19.96 9.98 9.98 0 0 0 0 19.96z" clip-path="url(#pd6c2b09057)" style="fill:#ff14eb"/><path id="patch_263" d="M1115.613 973.74a7.984 7.984 0 1 0 0-15.968 7.984 7.984 0 0 0 0 15.967z" clip-path="url(#pd6c2b09057)" style="fill:#ff0ff0"/><path id="patch_264" d="M634.049 980.784a5.988 5.988 0 1 0 0-11.975 5.988 5.988 0 0 0 0 11.975z" clip-path="url(#pd6c2b09057)" style="fill:#ff0af5"/><path id="patch_265" d="M169.232 997.606a3.992 3.992 0 1 0 0-7.984 3.992 3.992 0 0 0 0 7.984z" clip-path="url(#pd6c2b09057)" style="fill:#ff05fa"/><path id="patch_266" d="M167.236 319.179a1.996 1.996 0 1 0 0-3.992 1.996 1.996 0 0 0 0 3.992z" clip-path="url(#pd6c2b09057)" style="fill:#f0f"/><path id="patch_267" d="M793.902 542.677a29.939 29.939 0 0 0 21.17-51.106 29.939 29.939 0 0 0-51.107 21.169 29.939 29.939 0 0 0 29.937 29.937z" clip-path="url(#pd6c2b09057)" style="fill:#ff49b6"/><path id="patch_268" d="M927.07 690.592a27.943 27.943 0 0 0 19.758-47.7 27.943 27.943 0 0 0-47.7 19.758 27.943 27.943 0 0 0 27.942 27.942z" clip-path="url(#pd6c2b09057)" style="fill:#ff43bc"/><path id="patch_269" d="M759.05 921.036a25.947 25.947 0 0 0 0-51.891 25.947 25.947 0 0 0 0 51.891z" clip-path="url(#pd6c2b09057)" style="fill:#ff3ec1"/><path id="patch_270" d="M728.661 879.466a23.951 23.951 0 1 0 0-47.902 23.951 23.951 0 0 0 0 47.902z" clip-path="url(#pd6c2b09057)" style="fill:#ff39c6"/><path id="patch_271" d="M688.41 717.962a21.955 21.955 0 1 0 0-43.91 21.955 21.955 0 0 0 0 43.91z" clip-path="url(#pd6c2b09057)" style="fill:#ff34cb"/><path id="patch_272" d="M492.053 835.2a19.96 19.96 0 1 0 0-39.92 19.96 19.96 0 0 0 0 39.92z" clip-path="url(#pd6c2b09057)" style="fill:#ff2fd0"/><path id="patch_273" d="M1019.372 726.125a17.963 17.963 0 1 0-.001-35.927 17.963 17.963 0 0 0 0 35.927z" clip-path="url(#pd6c2b09057)" style="fill:#ff29d6"/><path id="patch_274" d="M177.215 715.513a11.976 11.976 0 1 0 0-23.95 11.976 11.976 0 0 0 0 23.95z" clip-path="url(#pd6c2b09057)" style="fill:#ff1ae5"/><path id="patch_275" d="M651.011 963.836a9.98 9.98 0 1 0 0-19.96 9.98 9.98 0 0 0 0 19.96z" clip-path="url(#pd6c2b09057)" style="fill:#ff14eb"/><path id="patch_276" d="M351.392 1110.428a7.984 7.984 0 1 0 0-15.967 7.984 7.984 0 0 0 0 15.967z" clip-path="url(#pd6c2b09057)" style="fill:#ff0ff0"/><path id="patch_277" d="M800.224 443.156a5.988 5.988 0 1 0 0-11.976 5.988 5.988 0 0 0 0 11.976z" clip-path="url(#pd6c2b09057)" style="fill:#ff0af5"/><path id="patch_278" d="M1159.168 932.043a3.992 3.992 0 1 0 0-7.984 3.992 3.992 0 0 0 0 7.984z" clip-path="url(#pd6c2b09057)" style="fill:#ff05fa"/><path id="patch_279" d="M1035.713 1153.44a1.996 1.996 0 1 0 0-3.992 1.996 1.996 0 0 0 0 3.992z" clip-path="url(#pd6c2b09057)" style="fill:#f0f"/><path id="patch_280" d="M297.11 969.742a9.98 9.98 0 1 0 0-19.96 9.98 9.98 0 0 0 0 19.96z" clip-path="url(#pd6c2b09057)" style="fill:#ff14eb"/><path id="patch_281" d="M519.506 828.43a7.984 7.984 0 1 0 0-15.968 7.984 7.984 0 0 0 0 15.968z" clip-path="url(#pd6c2b09057)" style="fill:#ff0ff0"/><path id="patch_282" d="M171.228 728.567a5.988 5.988 0 1 0 0-11.976 5.988 5.988 0 0 0 0 11.976z" clip-path="url(#pd6c2b09057)" style="fill:#ff0af5"/><path id="patch_283" d="M1159.168 478.81a3.992 3.992 0 1 0 0-7.984 3.992 3.992 0 0 0 0 7.984z" clip-path="url(#pd6c2b09057)" style="fill:#ff05fa"/><path id="patch_284" d="M303.39 1153.44a1.996 1.996 0 1 0 0-3.992 1.996 1.996 0 0 0 0 3.992z" clip-path="url(#pd6c2b09057)" style="fill:#f0f"/><path id="patch_285" d="M675.013 477.09a7.984 7.984 0 1 0 0-15.967 7.984 7.984 0 0 0 0 15.968z" clip-path="url(#pd6c2b09057)" style="fill:#ff0ff0"/><path id="patch_286" d="M1121.27 812.774a5.988 5.988 0 1 0 0-11.975 5.988 5.988 0 0 0 0 11.975z" clip-path="url(#pd6c2b09057)" style="fill:#ff0af5"/><path id="patch_287" d="M479.553 1153.44a3.992 3.992 0 1 0 0-7.984 3.992 3.992 0 0 0 0 7.984z" clip-path="url(#pd6c2b09057)" style="fill:#ff05fa"/><path id="patch_288" d="M212.297 1153.44a1.996 1.996 0 1 0 0-3.992 1.996 1.996 0 0 0 0 3.992z" clip-path="url(#pd6c2b09057)" style="fill:#f0f"/><path id="patch_289" d="M705.663 163.503a3.992 3.992 0 1 0 0-7.983 3.992 3.992 0 0 0 0 7.983z" clip-path="url(#pd6c2b09057)" style="fill:#ff05fa"/><path id="patch_290" d="M786.792 1153.44a1.996 1.996 0 1 0 0-3.992 1.996 1.996 0 0 0 0 3.992z" clip-path="url(#pd6c2b09057)" style="fill:#f0f"/><path id="patch_291" d="M964.992 219.276a7.984 7.984 0 1 0 0-15.967 7.984 7.984 0 0 0 0 15.967z" clip-path="url(#pd6c2b09057)" style="fill:#ff0ff0"/><path id="patch_292" d="M198.462 820.488a5.988 5.988 0 1 0 0-11.976 5.988 5.988 0 0 0 0 11.976z" clip-path="url(#pd6c2b09057)" style="fill:#ff0af5"/><path id="patch_293" d="M169.232 472.768a3.992 3.992 0 1 0 0-7.983 3.992 3.992 0 0 0 0 7.983z" clip-path="url(#pd6c2b09057)" style="fill:#ff05fa"/><path id="patch_294" d="M167.236 1094.687a1.996 1.996 0 1 0 0-3.992 1.996 1.996 0 0 0 0 3.992z" clip-path="url(#pd6c2b09057)" style="fill:#f0f"/><path id="patch_295" d="M169.232 791.346a3.992 3.992 0 1 0 0-7.983 3.992 3.992 0 0 0 0 7.983z" clip-path="url(#pd6c2b09057)" style="fill:#ff05fa"/><path id="patch_296" d="M167.236 1108.38a1.996 1.996 0 1 0 0-3.993 1.996 1.996 0 0 0 0 3.992z" clip-path="url(#pd6c2b09057)" style="fill:#f0f"/><path id="patch_297" d="M1110.92 360.013a7.984 7.984 0 1 0 0-15.968 7.984 7.984 0 0 0 0 15.968z" clip-path="url(#pd6c2b09057)" style="fill:#ff0ff0"/><path id="patch_298" d="M452.531 696.952a5.988 5.988 0 1 0 0-11.975 5.988 5.988 0 0 0 0 11.975z" clip-path="url(#pd6c2b09057)" style="fill:#ff0af5"/><path id="patch_299" d="M325.066 1153.44a3.992 3.992 0 1 0 0-7.984 3.992 3.992 0 0 0 0 7.984z" clip-path="url(#pd6c2b09057)" style="fill:#ff05fa"/><path id="patch_300" d="M925.74 159.512a1.996 1.996 0 1 0 0-3.992 1.996 1.996 0 0 0 0 3.992z" clip-path="url(#pd6c2b09057)" style="fill:#f0f"/><path id="patch_301" d="M571.687 163.503a3.992 3.992 0 1 0 0-7.983 3.992 3.992 0 0 0 0 7.983z" clip-path="url(#pd6c2b09057)" style="fill:#ff05fa"/><path id="patch_302" d="M296.907 159.512a1.996 1.996 0 1 0 0-3.992 1.996 1.996 0 0 0 0 3.992z" clip-path="url(#pd6c2b09057)" style="fill:#f0f"/><path id="patch_303" d="M708.635 972.06a5.988 5.988 0 1 0 0-11.976 5.988 5.988 0 0 0 0 11.976z" clip-path="url(#pd6c2b09057)" style="fill:#ff0af5"/><path id="patch_304" d="M956.915 1153.44a3.992 3.992 0 1 0 0-7.984 3.992 3.992 0 0 0 0 7.984z" clip-path="url(#pd6c2b09057)" style="fill:#ff05fa"/><path id="patch_305" d="M167.236 381.641a1.996 1.996 0 1 0 0-3.992 1.996 1.996 0 0 0 0 3.992z" clip-path="url(#pd6c2b09057)" style="fill:#f0f"/><path id="patch_306" d="M643.207 478.667a7.984 7.984 0 1 0 0-15.967 7.984 7.984 0 0 0 0 15.967z" clip-path="url(#pd6c2b09057)" style="fill:#ff0ff0"/><path id="patch_307" d="M462.237 984.922a5.988 5.988 0 1 0 0-11.976 5.988 5.988 0 0 0 0 11.976z" clip-path="url(#pd6c2b09057)" style="fill:#ff0af5"/><path id="patch_308" d="M312.893 163.503a3.992 3.992 0 1 0 0-7.983 3.992 3.992 0 0 0 0 7.983z" clip-path="url(#pd6c2b09057)" style="fill:#ff05fa"/><path id="patch_309" d="M167.236 300.473a1.996 1.996 0 1 0 0-3.992 1.996 1.996 0 0 0 0 3.992z" clip-path="url(#pd6c2b09057)" style="fill:#f0f"/><path id="patch_310" d="M412.607 163.503a3.992 3.992 0 1 0 0-7.983 3.992 3.992 0 0 0 0 7.983z" clip-path="url(#pd6c2b09057)" style="fill:#ff05fa"/><path id="patch_311" d="M931.226 159.512a1.996 1.996 0 1 0 0-3.992 1.996 1.996 0 0 0 0 3.992z" clip-path="url(#pd6c2b09057)" style="fill:#f0f"/><path id="patch_312" d="M559.955 622.748a5.988 5.988 0 1 0 0-11.975 5.988 5.988 0 0 0 0 11.975z" clip-path="url(#pd6c2b09057)" style="fill:#ff0af5"/><path id="patch_313" d="M815.702 1153.44a3.992 3.992 0 1 0 0-7.984 3.992 3.992 0 0 0 0 7.984z" clip-path="url(#pd6c2b09057)" style="fill:#ff05fa"/><path id="patch_314" d="M1161.164 1104.39a1.996 1.996 0 1 0 0-3.99 1.996 1.996 0 0 0 0 3.99z" clip-path="url(#pd6c2b09057)" style="fill:#f0f"/><path id="patch_315" d="M1025.876 737.2a5.988 5.988 0 1 0 0-11.975 5.988 5.988 0 0 0 0 11.975z" clip-path="url(#pd6c2b09057)" style="fill:#ff0af5"/><path id="patch_316" d="M1159.168 405.641a3.992 3.992 0 1 0 0-7.984 3.992 3.992 0 0 0 0 7.984z" clip-path="url(#pd6c2b09057)" style="fill:#ff05fa"/><path id="patch_317" d="M1161.164 1014.88a1.996 1.996 0 1 0 0-3.992 1.996 1.996 0 0 0 0 3.992z" clip-path="url(#pd6c2b09057)" style="fill:#f0f"/><path id="patch_318" d="M699.092 1153.44a3.992 3.992 0 1 0 0-7.984 3.992 3.992 0 0 0 0 7.984z" clip-path="url(#pd6c2b09057)" style="fill:#ff05fa"/><path id="patch_319" d="M996.595 1153.44a1.996 1.996 0 1 0 0-3.992 1.996 1.996 0 0 0 0 3.992z" clip-path="url(#pd6c2b09057)" style="fill:#f0f"/><path id="patch_320" d="M665.978 870.59a45.906 45.906 0 0 0 45.904-45.903 45.906 45.906 0 0 0-45.904-45.905 45.906 45.906 0 0 0-45.904 45.905 45.906 45.906 0 0 0 45.904 45.904z" clip-path="url(#pd6c2b09057)" style="fill:#ff728d"/><path id="patch_321" d="M793.04 877.972a43.91 43.91 0 0 0 43.908-43.909 43.91 43.91 0 0 0-43.908-43.908 43.91 43.91 0 0 0-43.909 43.908 43.91 43.91 0 0 0 43.909 43.909z" clip-path="url(#pd6c2b09057)" style="fill:#ff6d92"/><path id="patch_322" d="M859.667 874.358a5.988 5.988 0 1 0 0-11.976 5.988 5.988 0 0 0 0 11.976z" clip-path="url(#pd6c2b09057)" style="fill:#ff0af5"/><path id="patch_323" d="M1159.168 781.318a3.992 3.992 0 1 0 0-7.984 3.992 3.992 0 0 0 0 7.984z" clip-path="url(#pd6c2b09057)" style="fill:#ff05fa"/><path id="patch_324" d="M167.236 213.83a1.996 1.996 0 1 0 0-3.993 1.996 1.996 0 0 0 0 3.992z" clip-path="url(#pd6c2b09057)" style="fill:#f0f"/><path id="patch_325" d="M720.456 691.7a15.967 15.967 0 1 0 0-31.935 15.967 15.967 0 0 0 0 31.935z" clip-path="url(#pd6c2b09057)" style="fill:#ff24db"/><path id="patch_326" d="M795.513 925.302a13.972 13.972 0 1 0 0-27.943 13.972 13.972 0 0 0 0 27.943z" clip-path="url(#pd6c2b09057)" style="fill:#ff1fe0"/><path id="patch_327" d="M851.887 455.717a11.976 11.976 0 1 0 0-23.95 11.976 11.976 0 0 0 0 23.95z" clip-path="url(#pd6c2b09057)" style="fill:#ff1ae5"/><path id="patch_328" d="M957.515 695.236a9.98 9.98 0 1 0 0-19.96 9.98 9.98 0 0 0 0 19.96z" clip-path="url(#pd6c2b09057)" style="fill:#ff14eb"/><path id="patch_329" d="M212.83 976.927a7.984 7.984 0 1 0 0-15.967 7.984 7.984 0 0 0 0 15.967z" clip-path="url(#pd6c2b09057)" style="fill:#ff0ff0"/><path id="patch_330" d="M543.7 654.65a5.988 5.988 0 1 0 0-11.976 5.988 5.988 0 0 0 0 11.976z" clip-path="url(#pd6c2b09057)" style="fill:#ff0af5"/><path id="patch_331" d="M921.361 1153.44a3.992 3.992 0 1 0 0-7.984 3.992 3.992 0 0 0 0 7.984z" clip-path="url(#pd6c2b09057)" style="fill:#ff05fa"/><path id="patch_332" d="M167.236 223.379a1.996 1.996 0 1 0 0-3.992 1.996 1.996 0 0 0 0 3.992z" clip-path="url(#pd6c2b09057)" style="fill:#f0f"/><path id="patch_333" d="M739.311 667.087a11.976 11.976 0 1 0 0-23.95 11.976 11.976 0 0 0 0 23.95z" clip-path="url(#pd6c2b09057)" style="fill:#ff1ae5"/><path id="patch_334" d="M375.605 471.08a9.98 9.98 0 1 0 0-19.96 9.98 9.98 0 0 0 0 19.96z" clip-path="url(#pd6c2b09057)" style="fill:#ff14eb"/><path id="patch_335" d="M946.582 348.684a7.984 7.984 0 1 0 0-15.967 7.984 7.984 0 0 0 0 15.967z" clip-path="url(#pd6c2b09057)" style="fill:#ff0ff0"/><path id="patch_336" d="M349.56 674.445a5.988 5.988 0 1 0 0-11.976 5.988 5.988 0 0 0 0 11.976z" clip-path="url(#pd6c2b09057)" style="fill:#ff0af5"/><path id="patch_337" d="M1159.168 639.615a3.992 3.992 0 1 0 0-7.983 3.992 3.992 0 0 0 0 7.983z" clip-path="url(#pd6c2b09057)" style="fill:#ff05fa"/><path id="patch_338" d="M290.402 1153.44a1.996 1.996 0 1 0 0-3.992 1.996 1.996 0 0 0 0 3.992z" clip-path="url(#pd6c2b09057)" style="fill:#f0f"/><path id="patch_339" d="M752.645 795.853a55.886 55.886 0 0 0 55.884-55.884 55.886 55.886 0 0 0-55.884-55.883 55.886 55.886 0 0 0-55.883 55.883 55.886 55.886 0 0 0 55.883 55.884z" clip-path="url(#pd6c2b09057)" style="fill:#ff8d72"/><path id="patch_340" d="M801.61 687.626a53.89 53.89 0 0 0 53.887-53.887 53.89 53.89 0 0 0-53.887-53.888 53.89 53.89 0 0 0-53.888 53.888 53.89 53.89 0 0 0 53.888 53.887z" clip-path="url(#pd6c2b09057)" style="fill:#ff8778"/><path id="patch_341" d="M734.508 831.975a17.963 17.963 0 1 0-.001-35.926 17.963 17.963 0 0 0 0 35.926z" clip-path="url(#pd6c2b09057)" style="fill:#ff29d6"/><path id="patch_342" d="M340.866 903.775a15.967 15.967 0 1 0 0-31.935 15.967 15.967 0 0 0 0 31.935z" clip-path="url(#pd6c2b09057)" style="fill:#ff24db"/><path id="patch_343" d="M874.109 444.319a13.972 13.972 0 1 0 0-27.943 13.972 13.972 0 0 0 0 27.943z" clip-path="url(#pd6c2b09057)" style="fill:#ff1fe0"/><path id="patch_344" d="M927.101 348.335a11.976 11.976 0 1 0 0-23.95 11.976 11.976 0 0 0 0 23.95z" clip-path="url(#pd6c2b09057)" style="fill:#ff1ae5"/><path id="patch_345" d="M751.518 683.34a9.98 9.98 0 1 0 0-19.96 9.98 9.98 0 0 0 0 19.96z" clip-path="url(#pd6c2b09057)" style="fill:#ff14eb"/><path id="patch_346" d="M973.002 1108.84a7.984 7.984 0 1 0 0-15.968 7.984 7.984 0 0 0 0 15.968z" clip-path="url(#pd6c2b09057)" style="fill:#ff0ff0"/><path id="patch_347" d="M364.49 639.001a5.988 5.988 0 1 0 0-11.976 5.988 5.988 0 0 0 0 11.976z" clip-path="url(#pd6c2b09057)" style="fill:#ff0af5"/><path id="patch_348" d="M403.223 163.503a3.992 3.992 0 1 0 0-7.983 3.992 3.992 0 0 0 0 7.983z" clip-path="url(#pd6c2b09057)" style="fill:#ff05fa"/><path id="patch_349" d="M535.669 1153.44a1.996 1.996 0 1 0 0-3.992 1.996 1.996 0 0 0 0 3.992z" clip-path="url(#pd6c2b09057)" style="fill:#f0f"/><path id="patch_350" d="M1159.168 662.196a3.992 3.992 0 1 0 0-7.984 3.992 3.992 0 0 0 0 7.984z" clip-path="url(#pd6c2b09057)" style="fill:#ff05fa"/><path id="patch_351" d="M1161.164 371.598a1.996 1.996 0 1 0 0-3.991 1.996 1.996 0 0 0 0 3.991z" clip-path="url(#pd6c2b09057)" style="fill:#f0f"/><path id="patch_352" d="M169.232 926.397a3.992 3.992 0 1 0 0-7.984 3.992 3.992 0 0 0 0 7.984z" clip-path="url(#pd6c2b09057)" style="fill:#ff05fa"/><path id="patch_353" d="M1161.164 1091.282a1.996 1.996 0 1 0 0-3.991 1.996 1.996 0 0 0 0 3.991z" clip-path="url(#pd6c2b09057)" style="fill:#f0f"/><path id="patch_354" d="M762.981 163.503a3.992 3.992 0 1 0 0-7.983 3.992 3.992 0 0 0 0 7.983z" clip-path="url(#pd6c2b09057)" style="fill:#ff05fa"/><path id="patch_355" d="M167.236 1030.274a1.996 1.996 0 1 0 0-3.992 1.996 1.996 0 0 0 0 3.992z" clip-path="url(#pd6c2b09057)" style="fill:#f0f"/><path id="patch_356" d="M885.995 419.26a11.976 11.976 0 1 0 0-23.951 11.976 11.976 0 0 0 0 23.951z" clip-path="url(#pd6c2b09057)" style="fill:#ff1ae5"/><path id="patch_357" d="M903.818 977.13a9.98 9.98 0 1 0 0-19.959 9.98 9.98 0 0 0 0 19.96z" clip-path="url(#pd6c2b09057)" style="fill:#ff14eb"/><path id="patch_358" d="M193.182 699.547a7.984 7.984 0 1 0 0-15.968 7.984 7.984 0 0 0 0 15.968z" clip-path="url(#pd6c2b09057)" style="fill:#ff0ff0"/><path id="patch_359" d="M1125.279 678.864a5.988 5.988 0 1 0 0-11.976 5.988 5.988 0 0 0 0 11.976z" clip-path="url(#pd6c2b09057)" style="fill:#ff0af5"/><path id="patch_360" d="M506.758 1153.44a3.992 3.992 0 1 0 0-7.984 3.992 3.992 0 0 0 0 7.984z" clip-path="url(#pd6c2b09057)" style="fill:#ff05fa"/><path id="patch_361" d="M666.215 159.512a1.996 1.996 0 1 0 0-3.992 1.996 1.996 0 0 0 0 3.992z" clip-path="url(#pd6c2b09057)" style="fill:#f0f"/><path id="patch_362" d="M902.862 437.094a9.98 9.98 0 1 0 0-19.96 9.98 9.98 0 0 0 0 19.96z" clip-path="url(#pd6c2b09057)" style="fill:#ff14eb"/><path id="patch_363" d="M791.721 893.922a7.984 7.984 0 1 0 0-15.968 7.984 7.984 0 0 0 0 15.968z" clip-path="url(#pd6c2b09057)" style="fill:#ff0ff0"/><path id="patch_364" d="M797.326 1117.558a5.988 5.988 0 1 0 0-11.975 5.988 5.988 0 0 0 0 11.975z" clip-path="url(#pd6c2b09057)" style="fill:#ff0af5"/><path id="patch_365" d="M561.673 1153.44a3.992 3.992 0 1 0 0-7.984 3.992 3.992 0 0 0 0 7.984z" clip-path="url(#pd6c2b09057)" style="fill:#ff05fa"/><path id="patch_366" d="M343.784 159.512a1.996 1.996 0 1 0 0-3.992 1.996 1.996 0 0 0 0 3.992z" clip-path="url(#pd6c2b09057)" style="fill:#f0f"/><path id="patch_367" d="M811.663 898.727a11.976 11.976 0 1 0 0-23.95 11.976 11.976 0 0 0 0 23.95z" clip-path="url(#pd6c2b09057)" style="fill:#ff1ae5"/><path id="patch_368" d="M646.976 887.22a9.98 9.98 0 1 0 0-19.96 9.98 9.98 0 0 0 0 19.96z" clip-path="url(#pd6c2b09057)" style="fill:#ff14eb"/><path id="patch_369" d="M456.817 407.084a7.984 7.984 0 1 0 0-15.967 7.984 7.984 0 0 0 0 15.967z" clip-path="url(#pd6c2b09057)" style="fill:#ff0ff0"/><path id="patch_370" d="M485.955 791.736a5.988 5.988 0 1 0 0-11.975 5.988 5.988 0 0 0 0 11.975z" clip-path="url(#pd6c2b09057)" style="fill:#ff0af5"/><path id="patch_371" d="M169.232 575.621a3.992 3.992 0 1 0 0-7.983 3.992 3.992 0 0 0 0 7.983z" clip-path="url(#pd6c2b09057)" style="fill:#ff05fa"/><path id="patch_372" d="M1031.15 159.512a1.996 1.996 0 1 0 0-3.992 1.996 1.996 0 0 0 0 3.992z" clip-path="url(#pd6c2b09057)" style="fill:#f0f"/><path id="patch_373" d="M647.691 163.503a3.992 3.992 0 1 0 0-7.983 3.992 3.992 0 0 0 0 7.983z" clip-path="url(#pd6c2b09057)" style="fill:#ff05fa"/><path id="patch_374" d="M1161.164 507a1.996 1.996 0 1 0 0-3.992 1.996 1.996 0 0 0 0 3.992z" clip-path="url(#pd6c2b09057)" style="fill:#f0f"/><path id="patch_375" d="M330.502 874.2a7.984 7.984 0 1 0 0-15.967 7.984 7.984 0 0 0 0 15.967z" clip-path="url(#pd6c2b09057)" style="fill:#ff0ff0"/><path id="patch_376" d="M531.867 301.848a5.988 5.988 0 1 0 0-11.976 5.988 5.988 0 0 0 0 11.976z" clip-path="url(#pd6c2b09057)" style="fill:#ff0af5"/><path id="patch_377" d="M929.345 1153.44a3.992 3.992 0 1 0 0-7.984 3.992 3.992 0 0 0 0 7.984z" clip-path="url(#pd6c2b09057)" style="fill:#ff05fa"/><path id="patch_378" d="M167.236 287.245a1.996 1.996 0 1 0 0-3.991 1.996 1.996 0 0 0 0 3.991z" clip-path="url(#pd6c2b09057)" style="fill:#f0f"/><path id="patch_379" d="M833.647 163.503a3.992 3.992 0 1 0 0-7.983 3.992 3.992 0 0 0 0 7.983z" clip-path="url(#pd6c2b09057)" style="fill:#ff05fa"/><path id="patch_380" d="M1161.164 995.679a1.996 1.996 0 1 0 0-3.992 1.996 1.996 0 0 0 0 3.992z" clip-path="url(#pd6c2b09057)" style="fill:#f0f"/><path id="patch_381" d="M635.196 872.45a5.988 5.988 0 1 0 0-11.976 5.988 5.988 0 0 0 0 11.976z" clip-path="url(#pd6c2b09057)" style="fill:#ff0af5"/><path id="patch_382" d="M401.475 1153.44a3.992 3.992 0 1 0 0-7.984 3.992 3.992 0 0 0 0 7.984z" clip-path="url(#pd6c2b09057)" style="fill:#ff05fa"/><path id="patch_383" d="M1161.164 223.036a1.996 1.996 0 1 0 0-3.992 1.996 1.996 0 0 0 0 3.992z" clip-path="url(#pd6c2b09057)" style="fill:#f0f"/><path id="patch_384" d="M274.786 758.717a5.988 5.988 0 1 0 0-11.975 5.988 5.988 0 0 0 0 11.975z" clip-path="url(#pd6c2b09057)" style="fill:#ff0af5"/><path id="patch_385" d="M377.977 163.503a3.992 3.992 0 1 0 0-7.983 3.992 3.992 0 0 0 0 7.983z" clip-path="url(#pd6c2b09057)" style="fill:#ff05fa"/><path id="patch_386" d="M167.236 851.743a1.996 1.996 0 1 0 0-3.991 1.996 1.996 0 0 0 0 3.991z" clip-path="url(#pd6c2b09057)" style="fill:#f0f"/><path id="patch_387" d="M553.69 1153.44a3.992 3.992 0 1 0 0-7.984 3.992 3.992 0 0 0 0 7.984z" clip-path="url(#pd6c2b09057)" style="fill:#ff05fa"/><path id="patch_388" d="M1161.164 1027.989a1.996 1.996 0 1 0 0-3.992 1.996 1.996 0 0 0 0 3.992z" clip-path="url(#pd6c2b09057)" style="fill:#f0f"/><path id="patch_389" d="M1159.168 847.077a3.992 3.992 0 1 0 0-7.983 3.992 3.992 0 0 0 0 7.983z" clip-path="url(#pd6c2b09057)" style="fill:#ff05fa"/><path id="patch_390" d="M364.882 1153.44a1.996 1.996 0 1 0 0-3.992 1.996 1.996 0 0 0 0 3.992z" clip-path="url(#pd6c2b09057)" style="fill:#f0f"/><path id="patch_391" d="M829.41 883.806a9.98 9.98 0 1 0-.001-19.96 9.98 9.98 0 0 0 0 19.96z" clip-path="url(#pd6c2b09057)" style="fill:#ff14eb"/><path id="patch_392" d="M215.885 524.44a7.984 7.984 0 1 0 0-15.968 7.984 7.984 0 0 0 0 15.967z" clip-path="url(#pd6c2b09057)" style="fill:#ff0ff0"/><path id="patch_393" d="M950.898 644.483a5.988 5.988 0 1 0 0-11.975 5.988 5.988 0 0 0 0 11.975z" clip-path="url(#pd6c2b09057)" style="fill:#ff0af5"/><path id="patch_394" d="M823.798 163.503a3.992 3.992 0 1 0 0-7.983 3.992 3.992 0 0 0 0 7.983z" clip-path="url(#pd6c2b09057)" style="fill:#ff05fa"/><path id="patch_395" d="M1097.64 159.512a1.996 1.996 0 1 0 0-3.992 1.996 1.996 0 0 0 0 3.992z" clip-path="url(#pd6c2b09057)" style="fill:#f0f"/><path id="patch_396" d="M474.816 724.135a5.988 5.988 0 1 0 0-11.975 5.988 5.988 0 0 0 0 11.975z" clip-path="url(#pd6c2b09057)" style="fill:#ff0af5"/><path id="patch_397" d="M731.527 887.302a3.992 3.992 0 1 0 0-7.984 3.992 3.992 0 0 0 0 7.984z" clip-path="url(#pd6c2b09057)" style="fill:#ff05fa"/><path id="patch_398" d="M231.103 159.512a1.996 1.996 0 1 0 0-3.992 1.996 1.996 0 0 0 0 3.992z" clip-path="url(#pd6c2b09057)" style="fill:#f0f"/><path id="patch_399" d="M372.787 902.896a15.967 15.967 0 1 0 0-31.935 15.967 15.967 0 0 0 0 31.935z" clip-path="url(#pd6c2b09057)" style="fill:#ff24db"/><path id="patch_400" d="M469.866 854.882a13.972 13.972 0 1 0 0-27.943 13.972 13.972 0 0 0 0 27.943z" clip-path="url(#pd6c2b09057)" style="fill:#ff1fe0"/><path id="patch_401" d="M751.99 524.803a11.976 11.976 0 1 0 0-23.95 11.976 11.976 0 0 0 0 23.95z" clip-path="url(#pd6c2b09057)" style="fill:#ff1ae5"/><path id="patch_402" d="M846.425 869.428a9.98 9.98 0 1 0 0-19.96 9.98 9.98 0 0 0 0 19.96z" clip-path="url(#pd6c2b09057)" style="fill:#ff14eb"/><path id="patch_403" d="M273.897 746.77a7.984 7.984 0 1 0 0-15.967 7.984 7.984 0 0 0 0 15.968z" clip-path="url(#pd6c2b09057)" style="fill:#ff0ff0"/><path id="patch_404" d="M793.88 316.1a5.988 5.988 0 1 0 0-11.976 5.988 5.988 0 0 0 0 11.976z" clip-path="url(#pd6c2b09057)" style="fill:#ff0af5"/><path id="patch_405" d="M943.852 182.963a3.992 3.992 0 1 0 0-7.984 3.992 3.992 0 0 0 0 7.984z" clip-path="url(#pd6c2b09057)" style="fill:#ff05fa"/><path id="patch_406" d="M798.122 159.512a1.996 1.996 0 1 0 0-3.992 1.996 1.996 0 0 0 0 3.992z" clip-path="url(#pd6c2b09057)" style="fill:#f0f"/><path id="patch_407" d="M1050.97 963.194a3.992 3.992 0 1 0 0-7.983 3.992 3.992 0 0 0 0 7.983z" clip-path="url(#pd6c2b09057)" style="fill:#ff05fa"/><path id="patch_408" d="M847.896 1153.44a1.996 1.996 0 1 0 0-3.992 1.996 1.996 0 0 0 0 3.992z" clip-path="url(#pd6c2b09057)" style="fill:#f0f"/><path id="patch_409" d="M356.258 574.267a3.992 3.992 0 1 0 0-7.984 3.992 3.992 0 0 0 0 7.984z" clip-path="url(#pd6c2b09057)" style="fill:#ff05fa"/><path id="patch_410" d="M1099.007 1153.44a1.996 1.996 0 1 0 0-3.992 1.996 1.996 0 0 0 0 3.992z" clip-path="url(#pd6c2b09057)" style="fill:#f0f"/><path id="patch_411" d="M556.357 537.194a17.963 17.963 0 1 0 0-35.926 17.963 17.963 0 0 0 0 35.926z" clip-path="url(#pd6c2b09057)" style="fill:#ff29d6"/><path id="patch_412" d="M449.567 878.882a15.967 15.967 0 1 0 0-31.935 15.967 15.967 0 0 0 0 31.935z" clip-path="url(#pd6c2b09057)" style="fill:#ff24db"/><path id="patch_413" d="M422.384 889.43a13.972 13.972 0 1 0 0-27.943 13.972 13.972 0 0 0 0 27.943z" clip-path="url(#pd6c2b09057)" style="fill:#ff1fe0"/><path id="patch_414" d="M661.141 728.172a11.976 11.976 0 1 0 0-23.95 11.976 11.976 0 0 0 0 23.95z" clip-path="url(#pd6c2b09057)" style="fill:#ff1ae5"/><path id="patch_415" d="M887.884 395.391a9.98 9.98 0 1 0 0-19.959 9.98 9.98 0 0 0 0 19.96z" clip-path="url(#pd6c2b09057)" style="fill:#ff14eb"/><path id="patch_416" d="M261.67 724.9a7.984 7.984 0 1 0 0-15.968 7.984 7.984 0 0 0 0 15.967z" clip-path="url(#pd6c2b09057)" style="fill:#ff0ff0"/><path id="patch_417" d="M824.75 500.313a5.988 5.988 0 1 0 0-11.975 5.988 5.988 0 0 0 0 11.975z" clip-path="url(#pd6c2b09057)" style="fill:#ff0af5"/><path id="patch_418" d="M1009.462 622.058a3.992 3.992 0 1 0 0-7.984 3.992 3.992 0 0 0 0 7.984z" clip-path="url(#pd6c2b09057)" style="fill:#ff05fa"/><path id="patch_419" d="M1161.164 329.348a1.996 1.996 0 1 0 0-3.992 1.996 1.996 0 0 0 0 3.992z" clip-path="url(#pd6c2b09057)" style="fill:#f0f"/><path id="patch_420" d="M387.294 664.46a3.992 3.992 0 1 0 0-7.984 3.992 3.992 0 0 0 0 7.984z" clip-path="url(#pd6c2b09057)" style="fill:#ff05fa"/><path id="patch_421" d="M1161.164 291.58a1.996 1.996 0 1 0 0-3.992 1.996 1.996 0 0 0 0 3.992z" clip-path="url(#pd6c2b09057)" style="fill:#f0f"/><path id="patch_422" d="M678.912 191.397a3.992 3.992 0 1 0 0-7.984 3.992 3.992 0 0 0 0 7.984z" clip-path="url(#pd6c2b09057)" style="fill:#ff05fa"/><path id="patch_423" d="M623.77 1153.44a1.996 1.996 0 1 0 0-3.992 1.996 1.996 0 0 0 0 3.992z" clip-path="url(#pd6c2b09057)" style="fill:#f0f"/><path id="patch_424" d="M759.731 543.352a9.98 9.98 0 1 0 0-19.96 9.98 9.98 0 0 0 0 19.96z" clip-path="url(#pd6c2b09057)" style="fill:#ff14eb"/><path id="patch_425" d="M422.4 346.996a7.984 7.984 0 1 0 0-15.968 7.984 7.984 0 0 0 0 15.968z" clip-path="url(#pd6c2b09057)" style="fill:#ff0ff0"/><path id="patch_426" d="M740.858 927.323a5.988 5.988 0 1 0 0-11.976 5.988 5.988 0 0 0 0 11.976z" clip-path="url(#pd6c2b09057)" style="fill:#ff0af5"/><path id="patch_427" d="M524.943 1047.267a3.992 3.992 0 1 0 0-7.984 3.992 3.992 0 0 0 0 7.984z" clip-path="url(#pd6c2b09057)" style="fill:#ff05fa"/><path id="patch_428" d="M487.094 159.512a1.996 1.996 0 1 0 0-3.992 1.996 1.996 0 0 0 0 3.992z" clip-path="url(#pd6c2b09057)" style="fill:#f0f"/><path id="patch_429" d="M777.313 583.963a19.96 19.96 0 1 0-.001-39.919 19.96 19.96 0 0 0 0 39.919z" clip-path="url(#pd6c2b09057)" style="fill:#ff2fd0"/><path id="patch_430" d="M890.1 375.521a17.963 17.963 0 1 0 0-35.927 17.963 17.963 0 0 0 0 35.927z" clip-path="url(#pd6c2b09057)" style="fill:#ff29d6"/><g id="matplotlib.axis_1"><g id="xtick_1"><g id="line2d_1"><defs><path id="m5151be4150" d="M0 0v3.5" style="stroke:#000;stroke-width:.8"/></defs><use xlink:href="#m5151be4150" x="165.24" y="1153.44" style="stroke:#000;stroke-width:.8"/></g><g id="text_1" transform="matrix(.1 0 0 -.1 162.059 1168.038)"><defs><path id="DejaVuSans-30" d="M2034 4250q-487 0-733-480-245-479-245-1442 0-959 245-1439 246-480 733-480 491 0 736 480 246 480 246 1439 0 963-246 1442-245 480-736 480zm0 500q785 0 1199-621 414-620 414-1801 0-1178-414-1799Q2819-91 2034-91q-784 0-1198 620-414 621-414 1799 0 1181 414 1801 414 621 1198 621z" transform="scale(.01563)"/></defs><use xlink:href="#DejaVuSans-30"/></g></g><g id="xtick_2"><use xlink:href="#m5151be4150" id="line2d_2" x="364.824" y="1153.44" style="stroke:#000;stroke-width:.8"/><g id="text_2" transform="matrix(.1 0 0 -.1 355.28 1168.038)"><defs><path id="DejaVuSans-32" d="M1228 531h2203V0H469v531q359 372 979 998 621 627 780 809 303 340 423 576 121 236 121 464 0 372-261 606-261 235-680 235-297 0-627-103-329-103-704-313v638q381 153 712 231 332 78 607 78 725 0 1156-363 431-362 431-968 0-288-108-546-107-257-392-607-78-91-497-524-418-433-1181-1211z" transform="scale(.01563)"/></defs><use xlink:href="#DejaVuSans-32"/><use xlink:href="#DejaVuSans-30" x="63.623"/><use xlink:href="#DejaVuSans-30" x="127.246"/></g></g><g id="xtick_3"><use xlink:href="#m5151be4150" id="line2d_3" x="564.408" y="1153.44" style="stroke:#000;stroke-width:.8"/><g id="text_3" transform="matrix(.1 0 0 -.1 554.864 1168.038)"><defs><path id="DejaVuSans-34" d="M2419 4116 825 1625h1594v2491zm-166 550h794V1625h666v-525h-666V0h-628v1100H313v609l1940 2957z" transform="scale(.01563)"/></defs><use xlink:href="#DejaVuSans-34"/><use xlink:href="#DejaVuSans-30" x="63.623"/><use xlink:href="#DejaVuSans-30" x="127.246"/></g></g><g id="xtick_4"><use xlink:href="#m5151be4150" id="line2d_4" x="763.992" y="1153.44" style="stroke:#000;stroke-width:.8"/><g id="text_4" transform="matrix(.1 0 0 -.1 754.448 1168.038)"><defs><path id="DejaVuSans-36" d="M2113 2584q-425 0-674-291-248-290-248-796 0-503 248-796 249-292 674-292t673 292q248 293 248 796 0 506-248 796-248 291-673 291zm1253 1979v-575q-238 112-480 171-242 60-480 60-625 0-955-422-329-422-376-1275 184 272 462 417 279 145 613 145 703 0 1111-427 408-426 408-1160 0-719-425-1154Q2819-91 2113-91q-810 0-1238 620-428 621-428 1799 0 1106 525 1764t1409 658q238 0 480-47t505-140z" transform="scale(.01563)"/></defs><use xlink:href="#DejaVuSans-36"/><use xlink:href="#DejaVuSans-30" x="63.623"/><use xlink:href="#DejaVuSans-30" x="127.246"/></g></g><g id="xtick_5"><use xlink:href="#m5151be4150" id="line2d_5" x="963.576" y="1153.44" style="stroke:#000;stroke-width:.8"/><g id="text_5" transform="matrix(.1 0 0 -.1 954.032 1168.038)"><defs><path id="DejaVuSans-38" d="M2034 2216q-450 0-708-241-257-241-257-662 0-422 257-663 258-241 708-241t709 242q260 243 260 662 0 421-258 662-257 241-711 241zm-631 268q-406 100-633 378-226 279-226 679 0 559 398 884 399 325 1092 325 697 0 1094-325t397-884q0-400-227-679-226-278-629-378 456-106 710-416 255-309 255-755 0-679-414-1042Q2806-91 2034-91q-771 0-1186 362-414 363-414 1042 0 446 256 755 257 310 713 416zm-231 997q0-362 226-565 227-203 636-203 407 0 636 203 230 203 230 565 0 363-230 566-229 203-636 203-409 0-636-203-226-203-226-566z" transform="scale(.01563)"/></defs><use xlink:href="#DejaVuSans-38"/><use xlink:href="#DejaVuSans-30" x="63.623"/><use xlink:href="#DejaVuSans-30" x="127.246"/></g></g><g id="xtick_6"><use xlink:href="#m5151be4150" id="line2d_6" x="1163.16" y="1153.44" style="stroke:#000;stroke-width:.8"/><g id="text_6" transform="matrix(.1 0 0 -.1 1150.435 1168.038)"><defs><path id="DejaVuSans-31" d="M794 531h1031v3560L703 3866v575l1116 225h631V531h1031V0H794v531z" transform="scale(.01563)"/></defs><use xlink:href="#DejaVuSans-31"/><use xlink:href="#DejaVuSans-30" x="63.623"/><use xlink:href="#DejaVuSans-30" x="127.246"/><use xlink:href="#DejaVuSans-30" x="190.869"/></g></g></g><g id="matplotlib.axis_2"><g id="ytick_1"><g id="line2d_7"><defs><path id="m3e3c099beb" d="M0 0h-3.5" style="stroke:#000;stroke-width:.8"/></defs><use xlink:href="#m3e3c099beb" x="165.24" y="1153.44" style="stroke:#000;stroke-width:.8"/></g><use xlink:href="#DejaVuSans-30" id="text_7" transform="matrix(.1 0 0 -.1 151.877 1157.24)"/></g><g id="ytick_2"><use xlink:href="#m3e3c099beb" id="line2d_8" x="165.24" y="953.856" style="stroke:#000;stroke-width:.8"/><g id="text_8" transform="matrix(.1 0 0 -.1 139.153 957.655)"><use xlink:href="#DejaVuSans-32"/><use xlink:href="#DejaVuSans-30" x="63.623"/><use xlink:href="#DejaVuSans-30" x="127.246"/></g></g><g id="ytick_3"><use xlink:href="#m3e3c099beb" id="line2d_9" x="165.24" y="754.272" style="stroke:#000;stroke-width:.8"/><g id="text_9" transform="matrix(.1 0 0 -.1 139.153 758.071)"><use xlink:href="#DejaVuSans-34"/><use xlink:href="#DejaVuSans-30" x="63.623"/><use xlink:href="#DejaVuSans-30" x="127.246"/></g></g><g id="ytick_4"><use xlink:href="#m3e3c099beb" id="line2d_10" x="165.24" y="554.688" style="stroke:#000;stroke-width:.8"/><g id="text_10" transform="matrix(.1 0 0 -.1 139.153 558.487)"><use xlink:href="#DejaVuSans-36"/><use xlink:href="#DejaVuSans-30" x="63.623"/><use xlink:href="#DejaVuSans-30" x="127.246"/></g></g><g id="ytick_5"><use xlink:href="#m3e3c099beb" id="line2d_11" x="165.24" y="355.104" style="stroke:#000;stroke-width:.8"/><g id="text_11" transform="matrix(.1 0 0 -.1 139.153 358.903)"><use xlink:href="#DejaVuSans-38"/><use xlink:href="#DejaVuSans-30" x="63.623"/><use xlink:href="#DejaVuSans-30" x="127.246"/></g></g><g id="ytick_6"><use xlink:href="#m3e3c099beb" id="line2d_12" x="165.24" y="155.52" style="stroke:#000;stroke-width:.8"/><g id="text_12" transform="matrix(.1 0 0 -.1 132.79 159.32)"><use xlink:href="#DejaVuSans-31"/><use xlink:href="#DejaVuSans-30" x="63.623"/><use xlink:href="#DejaVuSans-30" x="127.246"/><use xlink:href="#DejaVuSans-30" x="190.869"/></g></g></g><path id="patch_431" d="M165.24 1153.44V155.52" style="fill:none;stroke:#000;stroke-width:.8;stroke-linejoin:miter;stroke-linecap:square"/><path id="patch_432" d="M1163.16 1153.44V155.52" style="fill:none;stroke:#000;stroke-width:.8;stroke-linejoin:miter;stroke-linecap:square"/><path id="patch_433" d="M165.24 1153.44h997.92" style="fill:none;stroke:#000;stroke-width:.8;stroke-linejoin:miter;stroke-linecap:square"/><path id="patch_434" d="M165.24 155.52h997.92" style="fill:none;stroke:#000;stroke-width:.8;stroke-linejoin:miter;stroke-linecap:square"/><g id="text_13" transform="matrix(.12 0 0 -.12 438.434 149.52)"><defs><path id="DejaVuSans-4c" d="M628 4666h631V531h2272V0H628v4666z" transform="scale(.01563)"/><path id="DejaVuSans-69" d="M603 3500h575V0H603v3500zm0 1363h575v-729H603v729z" transform="scale(.01563)"/><path id="DejaVuSans-6e" d="M3513 2113V0h-575v2094q0 497-194 743-194 247-581 247-466 0-735-297-269-296-269-809V0H581v3500h578v-544q207 316 486 472 280 156 646 156 603 0 912-373 310-373 310-1098z" transform="scale(.01563)"/><path id="DejaVuSans-65" d="M3597 1894v-281H953q38-594 358-905t892-311q331 0 642 81t618 244V178Q3153 47 2828-22t-659-69q-838 0-1327 487-489 488-489 1320 0 859 464 1363 464 505 1252 505 706 0 1117-455 411-454 411-1235zm-575 169q-6 471-264 752-258 282-683 282-481 0-770-272t-333-766l2050 4z" transform="scale(.01563)"/><path id="DejaVuSans-61" d="M2194 1759q-697 0-966-159t-269-544q0-306 202-486 202-179 548-179 479 0 768 339t289 901v128h-572zm1147 238V0h-575v531q-197-318-491-470T1556-91q-537 0-855 302-317 302-317 808 0 590 395 890 396 300 1180 300h807v57q0 397-261 614t-733 217q-300 0-585-72-284-72-546-216v532q315 122 612 182 297 61 578 61 760 0 1135-394 375-393 375-1193z" transform="scale(.01563)"/><path id="DejaVuSans-72" d="M2631 2963q-97 56-211 82-114 27-251 27-488 0-749-317t-261-911V0H581v3500h578v-544q182 319 472 473 291 155 707 155 59 0 131-8 72-7 159-23l3-590z" transform="scale(.01563)"/><path id="DejaVuSans-52" d="M2841 2188q203-69 395-294t386-619L4263 0h-679l-596 1197q-232 469-449 622t-592 153h-688V0H628v4666h1425q800 0 1194-335 394-334 394-1009 0-441-205-732-205-290-595-402zM1259 4147V2491h794q456 0 689 211t233 620q0 409-233 617t-689 208h-794z" transform="scale(.01563)"/><path id="DejaVuSans-64" d="M2906 2969v1894h575V0h-575v525q-181-312-458-464-276-152-664-152-634 0-1033 506-398 507-398 1332t398 1331q399 506 1033 506 388 0 664-152 277-151 458-463zM947 1747q0-634 261-995t717-361q456 0 718 361 263 361 263 995t-263 995q-262 361-718 361t-717-361q-261-361-261-995z" transform="scale(.01563)"/><path id="DejaVuSans-75" d="M544 1381v2119h575V1403q0-497 193-746 194-248 582-248 465 0 735 297 271 297 271 810v1984h575V0h-575v538q-209-319-486-474-276-155-642-155-603 0-916 375-312 375-312 1097zm1447 2203z" transform="scale(.01563)"/><path id="DejaVuSans-73" d="M2834 3397v-544q-243 125-506 187-262 63-544 63-428 0-642-131t-214-394q0-200 153-314t616-217l197-44q612-131 870-370t258-667q0-488-386-773Q2250-91 1575-91q-281 0-586 55T347 128v594q319-166 628-249 309-82 613-82 406 0 624 139 219 139 219 392 0 234-158 359-157 125-692 241l-200 47q-534 112-772 345-237 233-237 639 0 494 350 762 350 269 994 269 318 0 599-47 282-46 519-140z" transform="scale(.01563)"/><path id="DejaVuSans-56" d="M1831 0 50 4666h659L2188 738l1481 3928h656L2547 0h-716z" transform="scale(.01563)"/><path id="DejaVuSans-74" d="M1172 4494v-994h1184v-447H1172V1153q0-428 117-550t477-122h590V0h-590q-666 0-919 248-253 249-253 905v1900H172v447h422v994h578z" transform="scale(.01563)"/><path id="DejaVuSans-6f" d="M1959 3097q-462 0-731-361t-269-989q0-628 267-989 268-361 733-361 460 0 728 362 269 363 269 988 0 622-269 986-268 364-728 364zm0 487q750 0 1178-488 429-487 429-1349 0-859-429-1349Q2709-91 1959-91q-753 0-1180 489-426 490-426 1349 0 862 426 1349 427 488 1180 488z" transform="scale(.01563)"/><path id="DejaVuSans-46" d="M628 4666h2681v-532H1259V2759h1850v-531H1259V0H628v4666z" transform="scale(.01563)"/><path id="DejaVuSans-5f" d="M3263-1063v-446H-63v446h3326z" transform="scale(.01563)"/><path id="DejaVuSans-2c" d="M750 794h659V256L897-744H494L750 256v538z" transform="scale(.01563)"/><path id="DejaVuSans-62" d="M3116 1747q0 634-261 995t-717 361q-457 0-718-361t-261-995q0-634 261-995t718-361q456 0 717 361t261 995zM1159 2969q182 312 458 463 277 152 661 152 638 0 1036-506 399-506 399-1331T3314 415Q2916-91 2278-91q-384 0-661 152-276 152-458 464V0H581v4863h578V2969z" transform="scale(.01563)"/><path id="DejaVuSans-3d" d="M678 2906h4006v-525H678v525zm0-1275h4006v-531H678v531z" transform="scale(.01563)"/><path id="DejaVuSans-2e" d="M684 794h660V0H684v794z" transform="scale(.01563)"/><path id="DejaVuSans-33" d="M2597 2516q453-97 707-404 255-306 255-756 0-690-475-1069Q2609-91 1734-91q-293 0-604 58T488 141v609q262-153 574-231 313-78 654-78 593 0 904 234t311 681q0 413-289 645-289 233-804 233h-544v519h569q465 0 712 186t247 536q0 359-255 551-254 193-729 193-260 0-557-57-297-56-653-174v562q360 100 674 150t592 50q719 0 1137-327 419-326 419-882 0-388-222-655t-631-370z" transform="scale(.01563)"/><path id="DejaVuSans-39" d="M703 97v575q238-113 481-172 244-59 479-59 625 0 954 420 330 420 377 1277-181-269-460-413-278-144-615-144-700 0-1108 423-408 424-408 1159 0 718 425 1152 425 435 1131 435 810 0 1236-621 427-620 427-1801 0-1103-524-1761Q2575-91 1691-91q-238 0-482 47Q966 3 703 97zm1256 1978q425 0 673 290 249 291 249 798 0 503-249 795-248 292-673 292t-673-292q-248-292-248-795 0-507 248-798 248-290 673-290z" transform="scale(.01563)"/><path id="DejaVuSans-37" d="M525 4666h3000v-269L1831 0h-659l1594 4134H525v532z" transform="scale(.01563)"/></defs><use xlink:href="#DejaVuSans-4c"/><use xlink:href="#DejaVuSans-69" x="55.713"/><use xlink:href="#DejaVuSans-6e" x="83.496"/><use xlink:href="#DejaVuSans-65" x="146.875"/><use xlink:href="#DejaVuSans-61" x="208.398"/><use xlink:href="#DejaVuSans-72" x="269.678"/><use xlink:href="#DejaVuSans-52" x="310.791"/><use xlink:href="#DejaVuSans-61" x="378.023"/><use xlink:href="#DejaVuSans-64" x="439.303"/><use xlink:href="#DejaVuSans-69" x="502.779"/><use xlink:href="#DejaVuSans-75" x="530.563"/><use xlink:href="#DejaVuSans-73" x="593.941"/><use xlink:href="#DejaVuSans-56" x="646.041"/><use xlink:href="#DejaVuSans-61" x="706.699"/><use xlink:href="#DejaVuSans-72" x="767.979"/><use xlink:href="#DejaVuSans-69" x="809.092"/><use xlink:href="#DejaVuSans-61" x="836.875"/><use xlink:href="#DejaVuSans-74" x="898.154"/><use xlink:href="#DejaVuSans-69" x="937.363"/><use xlink:href="#DejaVuSans-6f" x="965.146"/><use xlink:href="#DejaVuSans-6e" x="1026.328"/><use xlink:href="#DejaVuSans-46" x="1089.707"/><use xlink:href="#DejaVuSans-6f" x="1143.602"/><use xlink:href="#DejaVuSans-72" x="1204.783"/><use xlink:href="#DejaVuSans-65" x="1243.646"/><use xlink:href="#DejaVuSans-73" x="1305.17"/><use xlink:href="#DejaVuSans-74" x="1357.27"/><use xlink:href="#DejaVuSans-5f" x="1396.479"/><use xlink:href="#DejaVuSans-32" x="1446.479"/><use xlink:href="#DejaVuSans-2c" x="1510.102"/><use xlink:href="#DejaVuSans-20" x="1541.889"/><use xlink:href="#DejaVuSans-62" x="1573.676"/><use xlink:href="#DejaVuSans-3d" x="1637.152"/><use xlink:href="#DejaVuSans-30" x="1720.941"/><use xlink:href="#DejaVuSans-2e" x="1784.564"/><use xlink:href="#DejaVuSans-38" x="1816.352"/><use xlink:href="#DejaVuSans-31" x="1879.975"/><use xlink:href="#DejaVuSans-34" x="1943.598"/><use xlink:href="#DejaVuSans-32" x="2007.221"/><use xlink:href="#DejaVuSans-34" x="2070.844"/><use xlink:href="#DejaVuSans-34" x="2134.467"/><use xlink:href="#DejaVuSans-33" x="2198.09"/><use xlink:href="#DejaVuSans-2c" x="2261.713"/><use xlink:href="#DejaVuSans-20" x="2293.5"/><use xlink:href="#DejaVuSans-61" x="2325.287"/><use xlink:href="#DejaVuSans-3d" x="2386.566"/><use xlink:href="#DejaVuSans-30" x="2470.355"/><use xlink:href="#DejaVuSans-2e" x="2533.979"/><use xlink:href="#DejaVuSans-39" x="2565.766"/><use xlink:href="#DejaVuSans-31" x="2629.389"/><use xlink:href="#DejaVuSans-37" x="2693.012"/><use xlink:href="#DejaVuSans-36" x="2756.635"/><use xlink:href="#DejaVuSans-37" x="2820.258"/><use xlink:href="#DejaVuSans-31" x="2883.881"/><use xlink:href="#DejaVuSans-38" x="2947.504"/><use xlink:href="#DejaVuSans-2c" x="3011.127"/><use xlink:href="#DejaVuSans-20" x="3042.914"/><use xlink:href="#DejaVuSans-64" x="3074.701"/><use xlink:href="#DejaVuSans-3d" x="3138.178"/><use xlink:href="#DejaVuSans-30" x="3221.967"/><use xlink:href="#DejaVuSans-2e" x="3285.59"/><use xlink:href="#DejaVuSans-38" x="3317.377"/><use xlink:href="#DejaVuSans-38" x="3381"/><use xlink:href="#DejaVuSans-37" x="3444.623"/><use xlink:href="#DejaVuSans-32" x="3508.246"/><use xlink:href="#DejaVuSans-39" x="3571.869"/><use xlink:href="#DejaVuSans-33" x="3635.492"/><use xlink:href="#DejaVuSans-37" x="3699.115"/></g></g></g><defs><clipPath id="pd6c2b09057"><path d="M165.24 155.52h997.92v997.92H165.24z"/></clipPath></defs></svg>