<svg xmlns="http://www.w3.org/2000/svg" xmlns:xlink="http://www.w3.org/1999/xlink" width="864" height="345.6" viewBox="0 0 648 259.2"><defs><style>*{stroke-linejoin:round;stroke-linecap:butt}</style></defs><g id="figure_1"><path id="patch_1" d="M0 259.2h648V0H0z" style="fill:#fff"/><g id="axes_1"><path id="patch_2" d="M82.62 230.688h498.96V31.104H82.62z" style="fill:#fff"/><path id="patch_3" d="M569.605 55.054a11.976 11.976 0 1 0 0-23.951 11.976 11.976 0 0 0 0 23.951z" clip-path="url(#pe92141345e)" style="fill:#f0f"/><path id="patch_4" d="M548.864 49.067a8.982 8.982 0 1 0 0-17.964 8.982 8.982 0 0 0 0 17.964z" clip-path="url(#pe92141345e)" style="fill:#ffc03f"/><path id="patch_5" d="M88.608 43.079a5.988 5.988 0 1 0 0-11.976 5.988 5.988 0 0 0 0 11.976z" clip-path="url(#pe92141345e)" style="fill:#ff40bf"/><path id="patch_6" d="M577.588 230.688a3.992 3.992 0 1 0 0-7.984 3.992 3.992 0 0 0 0 7.984z" clip-path="url(#pe92141345e)" style="fill:#ff807f"/><path id="patch_7" d="M85.614 230.688a2.994 2.994 0 1 0 0-5.988 2.994 2.994 0 0 0 0 5.988z" clip-path="url(#pe92141345e)" style="fill:#ff0"/><path id="patch_8" d="M563.76 230.688a11.976 11.976 0 1 0 0-23.951 11.976 11.976 0 0 0 0 23.951z" clip-path="url(#pe92141345e)" style="fill:#f0f"/><path id="patch_9" d="M572.599 72.802a8.982 8.982 0 1 0 0-17.964 8.982 8.982 0 0 0 0 17.964z" clip-path="url(#pe92141345e)" style="fill:#ffc03f"/><path id="patch_10" d="M100.583 43.079a5.988 5.988 0 1 0 0-11.976 5.988 5.988 0 0 0 0 11.976z" clip-path="url(#pe92141345e)" style="fill:#ff40bf"/><path id="patch_11" d="M561.622 60.898a3.992 3.992 0 1 0 0-7.983 3.992 3.992 0 0 0 0 7.983z" clip-path="url(#pe92141345e)" style="fill:#ff807f"/><path id="patch_12" d="M91.601 230.688a2.994 2.994 0 1 0 0-5.988 2.994 2.994 0 0 0 0 5.988z" clip-path="url(#pe92141345e)" style="fill:#ff0"/><path id="patch_13" d="M94.595 66.002a11.976 11.976 0 1 0 0-23.951 11.976 11.976 0 0 0 0 23.95z" clip-path="url(#pe92141345e)" style="fill:#f0f"/><path id="patch_14" d="M543.02 230.688a8.982 8.982 0 1 0-.001-17.963 8.982 8.982 0 0 0 0 17.963z" clip-path="url(#pe92141345e)" style="fill:#ffc03f"/><path id="patch_15" d="M88.608 225.214a5.988 5.988 0 1 0 0-11.975 5.988 5.988 0 0 0 0 11.975z" clip-path="url(#pe92141345e)" style="fill:#ff40bf"/><path id="patch_16" d="M555.925 55.305a3.992 3.992 0 1 0 0-7.984 3.992 3.992 0 0 0 0 7.984z" clip-path="url(#pe92141345e)" style="fill:#ff807f"/><path id="patch_17" d="M85.614 68.996a2.994 2.994 0 1 0 0-5.988 2.994 2.994 0 0 0 0 5.988z" clip-path="url(#pe92141345e)" style="fill:#ff0"/><path id="patch_18" d="M569.605 96.537a11.976 11.976 0 1 0 0-23.951 11.976 11.976 0 0 0 0 23.95z" clip-path="url(#pe92141345e)" style="fill:#f0f"/><path id="patch_19" d="M555.436 78.103a8.982 8.982 0 1 0 0-17.964 8.982 8.982 0 0 0 0 17.964z" clip-path="url(#pe92141345e)" style="fill:#ffc03f"/><path id="patch_20" d="M100.069 230.688a5.988 5.988 0 1 0 0-11.976 5.988 5.988 0 0 0 0 11.976z" clip-path="url(#pe92141345e)" style="fill:#ff40bf"/><path id="patch_21" d="M531.044 230.688a3.992 3.992 0 1 0 0-7.984 3.992 3.992 0 0 0 0 7.984z" clip-path="url(#pe92141345e)" style="fill:#ff807f"/><path id="patch_22" d="M108.537 230.688a2.994 2.994 0 1 0 0-5.988 2.994 2.994 0 0 0 0 5.988z" clip-path="url(#pe92141345e)" style="fill:#ff0"/><path id="patch_23" d="M569.605 120.487a11.976 11.976 0 1 0 0-23.951 11.976 11.976 0 0 0 0 23.95z" clip-path="url(#pe92141345e)" style="fill:#f0f"/><path id="patch_24" d="M530.901 49.067a8.982 8.982 0 1 0 0-17.964 8.982 8.982 0 0 0 0 17.964z" clip-path="url(#pe92141345e)" style="fill:#ffc03f"/><path id="patch_25" d="M88.608 80.457a5.988 5.988 0 1 0 0-11.976 5.988 5.988 0 0 0 0 11.976z" clip-path="url(#pe92141345e)" style="fill:#ff40bf"/><path id="patch_26" d="M539.882 53.438a3.992 3.992 0 1 0 0-7.983 3.992 3.992 0 0 0 0 7.983z" clip-path="url(#pe92141345e)" style="fill:#ff807f"/><path id="patch_27" d="M578.586 99.53a2.994 2.994 0 1 0 0-5.987 2.994 2.994 0 0 0 0 5.988z" clip-path="url(#pe92141345e)" style="fill:#ff0"/><path id="patch_28" d="M117.518 55.054a11.976 11.976 0 1 0 0-23.951 11.976 11.976 0 0 0 0 23.951z" clip-path="url(#pe92141345e)" style="fill:#f0f"/><path id="patch_29" d="M519.07 230.688a8.982 8.982 0 1 0-.001-17.963 8.982 8.982 0 0 0 0 17.963z" clip-path="url(#pe92141345e)" style="fill:#ffc03f"/><path id="patch_30" d="M117.004 230.688a5.988 5.988 0 1 0 0-11.976 5.988 5.988 0 0 0 0 11.976z" clip-path="url(#pe92141345e)" style="fill:#ff40bf"/><path id="patch_31" d="M547.064 56.925a3.992 3.992 0 1 0 0-7.984 3.992 3.992 0 0 0 0 7.984z" clip-path="url(#pe92141345e)" style="fill:#ff807f"/><path id="patch_32" d="M530.877 222.707a2.994 2.994 0 1 0 0-5.988 2.994 2.994 0 0 0 0 5.988z" clip-path="url(#pe92141345e)" style="fill:#ff0"/><path id="patch_33" d="M94.595 103.38a11.976 11.976 0 1 0 0-23.951 11.976 11.976 0 0 0 0 23.95z" clip-path="url(#pe92141345e)" style="fill:#f0f"/><path id="patch_34" d="M530.375 216.73a8.982 8.982 0 1 0 0-17.964 8.982 8.982 0 0 0 0 17.964z" clip-path="url(#pe92141345e)" style="fill:#ffc03f"/><path id="patch_35" d="M100.583 80.457a5.988 5.988 0 1 0 0-11.976 5.988 5.988 0 0 0 0 11.976z" clip-path="url(#pe92141345e)" style="fill:#ff40bf"/><path id="patch_36" d="M577.588 126.331a3.992 3.992 0 1 0 0-7.984 3.992 3.992 0 0 0 0 7.984z" clip-path="url(#pe92141345e)" style="fill:#ff807f"/><path id="patch_37" d="M108.537 224.7a2.994 2.994 0 1 0 0-5.987 2.994 2.994 0 0 0 0 5.987z" clip-path="url(#pe92141345e)" style="fill:#ff0"/><path id="patch_38" d="M94.595 127.33a11.976 11.976 0 1 0 0-23.951 11.976 11.976 0 0 0 0 23.95z" clip-path="url(#pe92141345e)" style="fill:#f0f"/><path id="patch_39" d="M548.32 213.525a8.982 8.982 0 1 0 0-17.963 8.982 8.982 0 0 0 0 17.963z" clip-path="url(#pe92141345e)" style="fill:#ffc03f"/><path id="patch_40" d="M539.48 65.405a5.988 5.988 0 1 0-.001-11.975 5.988 5.988 0 0 0 0 11.975z" clip-path="url(#pe92141345e)" style="fill:#ff40bf"/><path id="patch_41" d="M131.345 39.087a3.992 3.992 0 1 0 0-7.983 3.992 3.992 0 0 0 0 7.983z" clip-path="url(#pe92141345e)" style="fill:#ff807f"/><path id="patch_42" d="M85.614 106.374a2.994 2.994 0 1 0 0-5.988 2.994 2.994 0 0 0 0 5.988z" clip-path="url(#pe92141345e)" style="fill:#ff0"/><path id="patch_43" d="M498.328 230.688a11.976 11.976 0 1 0 0-23.951 11.976 11.976 0 0 0 0 23.951z" clip-path="url(#pe92141345e)" style="fill:#f0f"/><path id="patch_44" d="M91.601 213.542a8.982 8.982 0 1 0 0-17.964 8.982 8.982 0 0 0 0 17.964z" clip-path="url(#pe92141345e)" style="fill:#ffc03f"/><path id="patch_45" d="M512.823 214.091a5.988 5.988 0 1 0 0-11.975 5.988 5.988 0 0 0 0 11.975z" clip-path="url(#pe92141345e)" style="fill:#ff40bf"/><path id="patch_46" d="M577.588 134.315a3.992 3.992 0 1 0 0-7.984 3.992 3.992 0 0 0 0 7.984z" clip-path="url(#pe92141345e)" style="fill:#ff807f"/><path id="patch_47" d="M533.644 55.584a2.994 2.994 0 1 0 0-5.988 2.994 2.994 0 0 0 0 5.988z" clip-path="url(#pe92141345e)" style="fill:#ff0"/><path id="patch_48" d="M94.595 151.28a11.976 11.976 0 1 0 0-23.951 11.976 11.976 0 0 0 0 23.95z" clip-path="url(#pe92141345e)" style="fill:#f0f"/><path id="patch_49" d="M111.793 136.311a8.982 8.982 0 1 0 0-17.963 8.982 8.982 0 0 0 0 17.963z" clip-path="url(#pe92141345e)" style="fill:#ffc03f"/><path id="patch_50" d="M141.123 43.079a5.988 5.988 0 1 0 0-11.976 5.988 5.988 0 0 0 0 11.976z" clip-path="url(#pe92141345e)" style="fill:#ff40bf"/><path id="patch_51" d="M570.675 130.323a3.992 3.992 0 1 0 0-7.984 3.992 3.992 0 0 0 0 7.984z" clip-path="url(#pe92141345e)" style="fill:#ff807f"/><path id="patch_52" d="M85.614 130.324a2.994 2.994 0 1 0 0-5.988 2.994 2.994 0 0 0 0 5.988z" clip-path="url(#pe92141345e)" style="fill:#ff0"/><path id="patch_53" d="M474.378 230.688a11.976 11.976 0 1 0 0-23.951 11.976 11.976 0 0 0 0 23.951z" clip-path="url(#pe92141345e)" style="fill:#f0f"/><path id="patch_54" d="M91.601 195.579a8.982 8.982 0 1 0 0-17.963 8.982 8.982 0 0 0 0 17.963z" clip-path="url(#pe92141345e)" style="fill:#ffc03f"/><path id="patch_55" d="M128.98 230.688a5.988 5.988 0 1 0-.001-11.976 5.988 5.988 0 0 0 0 11.976z" clip-path="url(#pe92141345e)" style="fill:#ff40bf"/><path id="patch_56" d="M518.926 39.087a3.992 3.992 0 1 0 0-7.983 3.992 3.992 0 0 0 0 7.983z" clip-path="url(#pe92141345e)" style="fill:#ff807f"/><path id="patch_57" d="M486.353 230.688a2.994 2.994 0 1 0 0-5.988 2.994 2.994 0 0 0 0 5.988z" clip-path="url(#pe92141345e)" style="fill:#ff0"/><path id="patch_58" d="M94.595 175.23a11.976 11.976 0 1 0 0-23.951 11.976 11.976 0 0 0 0 23.951z" clip-path="url(#pe92141345e)" style="fill:#f0f"/><path id="patch_59" d="M501.744 207.018a8.982 8.982 0 1 0 0-17.963 8.982 8.982 0 0 0 0 17.963z" clip-path="url(#pe92141345e)" style="fill:#ffc03f"/><path id="patch_60" d="M488.017 209.992a5.988 5.988 0 1 0 0-11.975 5.988 5.988 0 0 0 0 11.975z" clip-path="url(#pe92141345e)" style="fill:#ff40bf"/><path id="patch_61" d="M577.588 142.298a3.992 3.992 0 1 0 0-7.984 3.992 3.992 0 0 0 0 7.984z" clip-path="url(#pe92141345e)" style="fill:#ff807f"/><path id="patch_62" d="M85.614 178.224a2.994 2.994 0 1 0 0-5.988 2.994 2.994 0 0 0 0 5.988z" clip-path="url(#pe92141345e)" style="fill:#ff0"/><path id="patch_63" d="M158.058 55.054a11.976 11.976 0 1 0 0-23.951 11.976 11.976 0 0 0 0 23.951z" clip-path="url(#pe92141345e)" style="fill:#f0f"/><path id="patch_64" d="M139.057 60.898a8.982 8.982 0 1 0 0-17.963 8.982 8.982 0 0 0 0 17.963z" clip-path="url(#pe92141345e)" style="fill:#ffc03f"/><path id="patch_65" d="M516.659 202.747a5.988 5.988 0 1 0 0-11.975 5.988 5.988 0 0 0 0 11.975z" clip-path="url(#pe92141345e)" style="fill:#ff40bf"/><path id="patch_66" d="M570.675 138.306a3.992 3.992 0 1 0 0-7.984 3.992 3.992 0 0 0 0 7.984z" clip-path="url(#pe92141345e)" style="fill:#ff807f"/><path id="patch_67" d="M85.614 154.274a2.994 2.994 0 1 0 0-5.988 2.994 2.994 0 0 0 0 5.988z" clip-path="url(#pe92141345e)" style="fill:#ff0"/><path id="patch_68" d="M145.914 230.688a11.976 11.976 0 1 0 0-23.951 11.976 11.976 0 0 0 0 23.951z" clip-path="url(#pe92141345e)" style="fill:#f0f"/><path id="patch_69" d="M506.95 49.067a8.982 8.982 0 1 0 0-17.964 8.982 8.982 0 0 0 0 17.964z" clip-path="url(#pe92141345e)" style="fill:#ffc03f"/><path id="patch_70" d="M457.443 230.688a5.988 5.988 0 1 0 0-11.976 5.988 5.988 0 0 0 0 11.976z" clip-path="url(#pe92141345e)" style="fill:#ff40bf"/><path id="patch_71" d="M171.886 39.087a3.992 3.992 0 1 0 0-7.983 3.992 3.992 0 0 0 0 7.983z" clip-path="url(#pe92141345e)" style="fill:#ff807f"/><path id="patch_72" d="M96.725 218.377a2.994 2.994 0 1 0 0-5.987 2.994 2.994 0 0 0 0 5.987z" clip-path="url(#pe92141345e)" style="fill:#ff0"/><path id="patch_73" d="M169.865 230.688a11.976 11.976 0 1 0 0-23.951 11.976 11.976 0 0 0 0 23.951z" clip-path="url(#pe92141345e)" style="fill:#f0f"/><path id="patch_74" d="M572.599 159.263a8.982 8.982 0 1 0 0-17.964 8.982 8.982 0 0 0 0 17.964z" clip-path="url(#pe92141345e)" style="fill:#ffc03f"/><path id="patch_75" d="M104.843 217.528a5.988 5.988 0 1 0 0-11.975 5.988 5.988 0 0 0 0 11.975z" clip-path="url(#pe92141345e)" style="fill:#ff40bf"/><path id="patch_76" d="M494.976 39.087a3.992 3.992 0 1 0 0-7.983 3.992 3.992 0 0 0 0 7.983z" clip-path="url(#pe92141345e)" style="fill:#ff807f"/><path id="patch_77" d="M157.89 230.688a2.994 2.994 0 1 0 0-5.988 2.994 2.994 0 0 0 0 5.988z" clip-path="url(#pe92141345e)" style="fill:#ff0"/><path id="patch_78" d="M440.507 230.688a11.976 11.976 0 1 0 0-23.951 11.976 11.976 0 0 0 0 23.951z" clip-path="url(#pe92141345e)" style="fill:#f0f"/><path id="patch_79" d="M107.837 205.856a8.982 8.982 0 1 0 0-17.964 8.982 8.982 0 0 0 0 17.964z" clip-path="url(#pe92141345e)" style="fill:#ffc03f"/><path id="patch_80" d="M116.554 215.03a5.988 5.988 0 1 0 0-11.975 5.988 5.988 0 0 0 0 11.975z" clip-path="url(#pe92141345e)" style="fill:#ff40bf"/><path id="patch_81" d="M122.992 220.709a3.992 3.992 0 1 0 0-7.984 3.992 3.992 0 0 0 0 7.984z" clip-path="url(#pe92141345e)" style="fill:#ff807f"/><path id="patch_82" d="M519.093 45.073a2.994 2.994 0 1 0 0-5.988 2.994 2.994 0 0 0 0 5.988z" clip-path="url(#pe92141345e)" style="fill:#ff0"/><path id="patch_83" d="M185.713 55.054a11.976 11.976 0 1 0 0-23.951 11.976 11.976 0 0 0 0 23.951z" clip-path="url(#pe92141345e)" style="fill:#f0f"/><path id="patch_84" d="M519.595 63.025a8.982 8.982 0 1 0 0-17.963 8.982 8.982 0 0 0 0 17.963z" clip-path="url(#pe92141345e)" style="fill:#ffc03f"/><path id="patch_85" d="M457.443 218.713a5.988 5.988 0 1 0 0-11.976 5.988 5.988 0 0 0 0 11.976z" clip-path="url(#pe92141345e)" style="fill:#ff40bf"/><path id="patch_86" d="M577.588 166.248a3.992 3.992 0 1 0 0-7.984 3.992 3.992 0 0 0 0 7.984z" clip-path="url(#pe92141345e)" style="fill:#ff807f"/><path id="patch_87" d="M129.912 218.762a2.994 2.994 0 1 0 0-5.988 2.994 2.994 0 0 0 0 5.988z" clip-path="url(#pe92141345e)" style="fill:#ff0"/><path id="patch_88" d="M209.664 55.054a11.976 11.976 0 1 0-.001-23.951 11.976 11.976 0 0 0 0 23.951z" clip-path="url(#pe92141345e)" style="fill:#f0f"/><path id="patch_89" d="M419.766 230.688a8.982 8.982 0 1 0 0-17.963 8.982 8.982 0 0 0 0 17.963z" clip-path="url(#pe92141345e)" style="fill:#ffc03f"/><path id="patch_90" d="M186.8 230.688a5.988 5.988 0 1 0 0-11.976 5.988 5.988 0 0 0 0 11.976z" clip-path="url(#pe92141345e)" style="fill:#ff40bf"/><path id="patch_91" d="M126.62 213.598a3.992 3.992 0 1 0 0-7.984 3.992 3.992 0 0 0 0 7.984z" clip-path="url(#pe92141345e)" style="fill:#ff807f"/><path id="patch_92" d="M197.688 37.092a2.994 2.994 0 1 0 0-5.988 2.994 2.994 0 0 0 0 5.988z" clip-path="url(#pe92141345e)" style="fill:#ff0"/><path id="patch_93" d="M481.148 55.054a11.976 11.976 0 1 0 0-23.951 11.976 11.976 0 0 0 0 23.951z" clip-path="url(#pe92141345e)" style="fill:#f0f"/><path id="patch_94" d="M572.599 183.213a8.982 8.982 0 1 0 0-17.964 8.982 8.982 0 0 0 0 17.964z" clip-path="url(#pe92141345e)" style="fill:#ffc03f"/><path id="patch_95" d="M122.686 204.744a5.988 5.988 0 1 0 0-11.975 5.988 5.988 0 0 0 0 11.975z" clip-path="url(#pe92141345e)" style="fill:#ff40bf"/><path id="patch_96" d="M407.79 230.688a3.992 3.992 0 1 0 0-7.984 3.992 3.992 0 0 0 0 7.984z" clip-path="url(#pe92141345e)" style="fill:#ff807f"/><path id="patch_97" d="M112.3 220.044a2.994 2.994 0 1 0 0-5.988 2.994 2.994 0 0 0 0 5.988z" clip-path="url(#pe92141345e)" style="fill:#ff0"/><path id="patch_98" d="M457.198 55.054a11.976 11.976 0 1 0 0-23.951 11.976 11.976 0 0 0 0 23.951z" clip-path="url(#pe92141345e)" style="fill:#f0f"/><path id="patch_99" d="M230.405 49.067a8.982 8.982 0 1 0 0-17.964 8.982 8.982 0 0 0 0 17.964z" clip-path="url(#pe92141345e)" style="fill:#ffc03f"/><path id="patch_100" d="M198.775 230.688a5.988 5.988 0 1 0 0-11.976 5.988 5.988 0 0 0 0 11.976z" clip-path="url(#pe92141345e)" style="fill:#ff40bf"/><path id="patch_101" d="M577.588 190.198a3.992 3.992 0 1 0 0-7.984 3.992 3.992 0 0 0 0 7.984z" clip-path="url(#pe92141345e)" style="fill:#ff807f"/><path id="patch_102" d="M469.173 37.092a2.994 2.994 0 1 0 0-5.988 2.994 2.994 0 0 0 0 5.988z" clip-path="url(#pe92141345e)" style="fill:#ff0"/><path id="patch_103" d="M393.963 230.688a11.976 11.976 0 1 0 0-23.951 11.976 11.976 0 0 0 0 23.951z" clip-path="url(#pe92141345e)" style="fill:#f0f"/><path id="patch_104" d="M572.599 207.163a8.982 8.982 0 1 0 0-17.964 8.982 8.982 0 0 0 0 17.964z" clip-path="url(#pe92141345e)" style="fill:#ffc03f"/><path id="patch_105" d="M245.071 43.079a5.988 5.988 0 1 0 0-11.976 5.988 5.988 0 0 0 0 11.976z" clip-path="url(#pe92141345e)" style="fill:#ff40bf"/><path id="patch_106" d="M577.588 214.148a3.992 3.992 0 1 0 0-7.984 3.992 3.992 0 0 0 0 7.984z" clip-path="url(#pe92141345e)" style="fill:#ff807f"/><path id="patch_107" d="M570.605 165.083a2.994 2.994 0 1 0 0-5.988 2.994 2.994 0 0 0 0 5.988z" clip-path="url(#pe92141345e)" style="fill:#ff0"/><path id="patch_108" d="M215.71 230.688a11.976 11.976 0 1 0 0-23.951 11.976 11.976 0 0 0 0 23.951z" clip-path="url(#pe92141345e)" style="fill:#f0f"/><path id="patch_109" d="M558.64 170.568a8.982 8.982 0 1 0 0-17.963 8.982 8.982 0 0 0 0 17.963z" clip-path="url(#pe92141345e)" style="fill:#ffc03f"/><path id="patch_110" d="M377.028 230.688a5.988 5.988 0 1 0 0-11.976 5.988 5.988 0 0 0 0 11.976z" clip-path="url(#pe92141345e)" style="fill:#ff40bf"/><path id="patch_111" d="M443.37 39.087a3.992 3.992 0 1 0 0-7.983 3.992 3.992 0 0 0 0 7.983z" clip-path="url(#pe92141345e)" style="fill:#ff807f"/><path id="patch_112" d="M570.605 189.033a2.994 2.994 0 1 0 0-5.988 2.994 2.994 0 0 0 0 5.988z" clip-path="url(#pe92141345e)" style="fill:#ff0"/><path id="patch_113" d="M239.66 230.688a11.976 11.976 0 1 0 0-23.951 11.976 11.976 0 0 0 0 23.951z" clip-path="url(#pe92141345e)" style="fill:#f0f"/><path id="patch_114" d="M558.64 194.518a8.982 8.982 0 1 0 0-17.963 8.982 8.982 0 0 0 0 17.963z" clip-path="url(#pe92141345e)" style="fill:#ffc03f"/><path id="patch_115" d="M257.046 43.079a5.988 5.988 0 1 0 0-11.976 5.988 5.988 0 0 0 0 11.976z" clip-path="url(#pe92141345e)" style="fill:#ff40bf"/><path id="patch_116" d="M367.25 230.688a3.992 3.992 0 1 0 0-7.984 3.992 3.992 0 0 0 0 7.984z" clip-path="url(#pe92141345e)" style="fill:#ff807f"/><path id="patch_117" d="M227.685 230.688a2.994 2.994 0 1 0 0-5.988 2.994 2.994 0 0 0 0 5.988z" clip-path="url(#pe92141345e)" style="fill:#ff0"/><path id="patch_118" d="M429.543 55.054a11.976 11.976 0 1 0 0-23.951 11.976 11.976 0 0 0 0 23.951z" clip-path="url(#pe92141345e)" style="fill:#f0f"/><path id="patch_119" d="M271.713 49.067a8.982 8.982 0 1 0 0-17.964 8.982 8.982 0 0 0 0 17.964z" clip-path="url(#pe92141345e)" style="fill:#ffc03f"/><path id="patch_120" d="M412.608 43.079a5.988 5.988 0 1 0 0-11.976 5.988 5.988 0 0 0 0 11.976z" clip-path="url(#pe92141345e)" style="fill:#ff40bf"/><path id="patch_121" d="M253.488 230.688a3.992 3.992 0 1 0 0-7.984 3.992 3.992 0 0 0 0 7.984z" clip-path="url(#pe92141345e)" style="fill:#ff807f"/><path id="patch_122" d="M560.634 176.723a2.994 2.994 0 1 0 0-5.988 2.994 2.994 0 0 0 0 5.988z" clip-path="url(#pe92141345e)" style="fill:#ff0"/><path id="patch_123" d="M353.423 230.688a11.976 11.976 0 1 0 0-23.951 11.976 11.976 0 0 0 0 23.951z" clip-path="url(#pe92141345e)" style="fill:#f0f"/><path id="patch_124" d="M374.962 218.856a8.982 8.982 0 1 0 0-17.963 8.982 8.982 0 0 0 0 17.963z" clip-path="url(#pe92141345e)" style="fill:#ffc03f"/><path id="patch_125" d="M286.379 43.079a5.988 5.988 0 1 0 0-11.976 5.988 5.988 0 0 0 0 11.976z" clip-path="url(#pe92141345e)" style="fill:#ff40bf"/><path id="patch_126" d="M553.65 177.554a3.992 3.992 0 1 0 0-7.984 3.992 3.992 0 0 0 0 7.984z" clip-path="url(#pe92141345e)" style="fill:#ff807f"/><path id="patch_127" d="M560.289 207.146a2.994 2.994 0 1 0 0-5.988 2.994 2.994 0 0 0 0 5.988z" clip-path="url(#pe92141345e)" style="fill:#ff0"/><path id="patch_128" d="M395.673 55.054a11.976 11.976 0 1 0 0-23.951 11.976 11.976 0 0 0 0 23.951z" clip-path="url(#pe92141345e)" style="fill:#f0f"/><path id="patch_129" d="M332.681 230.688a8.982 8.982 0 1 0 0-17.963 8.982 8.982 0 0 0 0 17.963z" clip-path="url(#pe92141345e)" style="fill:#ffc03f"/><path id="patch_130" d="M412.608 55.054a5.988 5.988 0 1 0 0-11.976 5.988 5.988 0 0 0 0 11.976z" clip-path="url(#pe92141345e)" style="fill:#ff40bf"/><path id="patch_131" d="M261.471 230.688a3.992 3.992 0 1 0 0-7.984 3.992 3.992 0 0 0 0 7.984z" clip-path="url(#pe92141345e)" style="fill:#ff807f"/><path id="patch_132" d="M558.603 201.4a2.994 2.994 0 1 0 0-5.987 2.994 2.994 0 0 0 0 5.988z" clip-path="url(#pe92141345e)" style="fill:#ff0"/><path id="patch_133" d="M303.314 55.054a11.976 11.976 0 1 0 0-23.951 11.976 11.976 0 0 0 0 23.951z" clip-path="url(#pe92141345e)" style="fill:#f0f"/><path id="patch_134" d="M374.931 49.067a8.982 8.982 0 1 0 0-17.964 8.982 8.982 0 0 0 0 17.964z" clip-path="url(#pe92141345e)" style="fill:#ffc03f"/><path id="patch_135" d="M286.379 55.054a5.988 5.988 0 1 0 0-11.976 5.988 5.988 0 0 0 0 11.976z" clip-path="url(#pe92141345e)" style="fill:#ff40bf"/><path id="patch_136" d="M255.624 222.996a3.992 3.992 0 1 0 0-7.984 3.992 3.992 0 0 0 0 7.984z" clip-path="url(#pe92141345e)" style="fill:#ff807f"/><path id="patch_137" d="M322.31 230.688a2.994 2.994 0 1 0 0-5.988 2.994 2.994 0 0 0 0 5.988z" clip-path="url(#pe92141345e)" style="fill:#ff0"/><path id="patch_138" d="M275.299 230.688a11.976 11.976 0 1 0 0-23.951 11.976 11.976 0 0 0 0 23.951z" clip-path="url(#pe92141345e)" style="fill:#f0f"/><path id="patch_139" d="M256.36 215.033a8.982 8.982 0 1 0 0-17.963 8.982 8.982 0 0 0 0 17.963z" clip-path="url(#pe92141345e)" style="fill:#ffc03f"/><path id="patch_140" d="M320.25 43.079a5.988 5.988 0 1 0 0-11.976 5.988 5.988 0 0 0 0 11.976z" clip-path="url(#pe92141345e)" style="fill:#ff40bf"/><path id="patch_141" d="M362.956 39.087a3.992 3.992 0 1 0 0-7.983 3.992 3.992 0 0 0 0 7.983z" clip-path="url(#pe92141345e)" style="fill:#ff807f"/><path id="patch_142" d="M287.274 230.688a2.994 2.994 0 1 0 0-5.988 2.994 2.994 0 0 0 0 5.988z" clip-path="url(#pe92141345e)" style="fill:#ff0"/><path id="patch_143" d="M310.336 230.688a11.976 11.976 0 1 0 0-23.951 11.976 11.976 0 0 0 0 23.951z" clip-path="url(#pe92141345e)" style="fill:#f0f"/><path id="patch_144" d="M334.916 49.067a8.982 8.982 0 1 0 0-17.964 8.982 8.982 0 0 0 0 17.964z" clip-path="url(#pe92141345e)" style="fill:#ffc03f"/><path id="patch_145" d="M349.582 43.079a5.988 5.988 0 1 0 0-11.976 5.988 5.988 0 0 0 0 11.976z" clip-path="url(#pe92141345e)" style="fill:#ff40bf"/><path id="patch_146" d="M296.508 230.688a3.992 3.992 0 1 0 0-7.984 3.992 3.992 0 0 0 0 7.984z" clip-path="url(#pe92141345e)" style="fill:#ff807f"/><path id="patch_147" d="M289.836 225.276a2.994 2.994 0 1 0 0-5.988 2.994 2.994 0 0 0 0 5.988z" clip-path="url(#pe92141345e)" style="fill:#ff0"/><path id="patch_148" d="M192.787 219.74a11.976 11.976 0 1 0 0-23.95 11.976 11.976 0 0 0 0 23.95z" clip-path="url(#pe92141345e)" style="fill:#f0f"/><path id="patch_149" d="M243.839 60.99a8.982 8.982 0 1 0 0-17.963 8.982 8.982 0 0 0 0 17.964z" clip-path="url(#pe92141345e)" style="fill:#ffc03f"/><path id="patch_150" d="M292.554 219.71a5.988 5.988 0 1 0 0-11.976 5.988 5.988 0 0 0 0 11.976z" clip-path="url(#pe92141345e)" style="fill:#ff40bf"/><path id="patch_151" d="M323.63 50.473a3.992 3.992 0 1 0-.001-7.984 3.992 3.992 0 0 0 0 7.984z" clip-path="url(#pe92141345e)" style="fill:#ff807f"/><path id="patch_152" d="M363.123 45.073a2.994 2.994 0 1 0 0-5.988 2.994 2.994 0 0 0 0 5.988z" clip-path="url(#pe92141345e)" style="fill:#ff0"/><path id="patch_153" d="M548.864 108.512a11.976 11.976 0 1 0 0-23.951 11.976 11.976 0 0 0 0 23.95z" clip-path="url(#pe92141345e)" style="fill:#f0f"/><path id="patch_154" d="M226.795 66.663a8.982 8.982 0 1 0 0-17.964 8.982 8.982 0 0 0 0 17.964z" clip-path="url(#pe92141345e)" style="fill:#ffc03f"/><path id="patch_155" d="M259.544 54.79a5.988 5.988 0 1 0 0-11.975 5.988 5.988 0 0 0 0 11.976z" clip-path="url(#pe92141345e)" style="fill:#ff40bf"/><path id="patch_156" d="M105.156 155.272a3.992 3.992 0 1 0 0-7.984 3.992 3.992 0 0 0 0 7.984z" clip-path="url(#pe92141345e)" style="fill:#ff807f"/><path id="patch_157" d="M554.744 85.765a2.994 2.994 0 1 0 0-5.988 2.994 2.994 0 0 0 0 5.988z" clip-path="url(#pe92141345e)" style="fill:#ff0"/><path id="patch_158" d="M153.938 78.647a11.976 11.976 0 1 0 0-23.951 11.976 11.976 0 0 0 0 23.951z" clip-path="url(#pe92141345e)" style="fill:#f0f"/><path id="patch_159" d="M388.786 207.387a8.982 8.982 0 1 0 0-17.963 8.982 8.982 0 0 0 0 17.963z" clip-path="url(#pe92141345e)" style="fill:#ffc03f"/><path id="patch_160" d="M169.187 63.166a5.988 5.988 0 1 0 0-11.975 5.988 5.988 0 0 0 0 11.975z" clip-path="url(#pe92141345e)" style="fill:#ff40bf"/><path id="patch_161" d="M548.108 84.58a3.992 3.992 0 1 0 0-7.984 3.992 3.992 0 0 0 0 7.984z" clip-path="url(#pe92141345e)" style="fill:#ff807f"/><path id="patch_162" d="M108.4 148.087a2.994 2.994 0 1 0 0-5.988 2.994 2.994 0 0 0 0 5.988z" clip-path="url(#pe92141345e)" style="fill:#ff0"/><path id="patch_163" d="M116.748 94.277a11.976 11.976 0 1 0 0-23.952 11.976 11.976 0 0 0 0 23.952z" clip-path="url(#pe92141345e)" style="fill:#f0f"/><path id="patch_164" d="M112.208 111.742a8.982 8.982 0 1 0 0-17.964 8.982 8.982 0 0 0 0 17.964z" clip-path="url(#pe92141345e)" style="fill:#ffc03f"/><path id="patch_165" d="M109.098 72.037a5.988 5.988 0 1 0 0-11.976 5.988 5.988 0 0 0 0 11.976z" clip-path="url(#pe92141345e)" style="fill:#ff40bf"/><path id="patch_166" d="M547.584 182.743a3.992 3.992 0 1 0 0-7.984 3.992 3.992 0 0 0 0 7.984z" clip-path="url(#pe92141345e)" style="fill:#ff807f"/><path id="patch_167" d="M109.564 142.214a2.994 2.994 0 1 0 0-5.988 2.994 2.994 0 0 0 0 5.988z" clip-path="url(#pe92141345e)" style="fill:#ff0"/><path id="patch_168" d="M484.295 198.407a11.976 11.976 0 1 0 0-23.951 11.976 11.976 0 0 0 0 23.951z" clip-path="url(#pe92141345e)" style="fill:#f0f"/><path id="patch_169" d="M133.097 77.843a8.982 8.982 0 1 0 0-17.963 8.982 8.982 0 0 0 0 17.963z" clip-path="url(#pe92141345e)" style="fill:#ffc03f"/><path id="patch_170" d="M543.878 194.004a5.988 5.988 0 1 0 0-11.975 5.988 5.988 0 0 0 0 11.975z" clip-path="url(#pe92141345e)" style="fill:#ff40bf"/><path id="patch_171" d="M127.246 61.275a3.992 3.992 0 1 0 0-7.984 3.992 3.992 0 0 0 0 7.984z" clip-path="url(#pe92141345e)" style="fill:#ff807f"/><path id="patch_172" d="M109.562 118.558a2.994 2.994 0 1 0 0-5.988 2.994 2.994 0 0 0 0 5.988z" clip-path="url(#pe92141345e)" style="fill:#ff0"/><path id="patch_173" d="M285.677 209.103a11.976 11.976 0 1 0 0-23.95 11.976 11.976 0 0 0 0 23.95z" clip-path="url(#pe92141345e)" style="fill:#f0f"/><path id="patch_174" d="M271.32 67.025a8.982 8.982 0 1 0 0-17.964 8.982 8.982 0 0 0 0 17.964z" clip-path="url(#pe92141345e)" style="fill:#ffc03f"/><path id="patch_175" d="M544.673 175.193a5.988 5.988 0 1 0 0-11.975 5.988 5.988 0 0 0 0 11.975z" clip-path="url(#pe92141345e)" style="fill:#ff40bf"/><path id="patch_176" d="M478.417 205.27a3.992 3.992 0 1 0 0-7.984 3.992 3.992 0 0 0 0 7.983z" clip-path="url(#pe92141345e)" style="fill:#ff807f"/><path id="patch_177" d="M272.394 207.022a2.994 2.994 0 1 0 0-5.987 2.994 2.994 0 0 0 0 5.987z" clip-path="url(#pe92141345e)" style="fill:#ff0"/><path id="patch_178" d="M337.07 213.19a11.976 11.976 0 1 0 0-23.951 11.976 11.976 0 0 0 0 23.951z" clip-path="url(#pe92141345e)" style="fill:#f0f"/><path id="patch_179" d="M466.18 205.951a8.982 8.982 0 1 0 0-17.963 8.982 8.982 0 0 0 0 17.963z" clip-path="url(#pe92141345e)" style="fill:#ffc03f"/><path id="patch_180" d="M256.538 66.382a5.988 5.988 0 1 0 0-11.976 5.988 5.988 0 0 0 0 11.976z" clip-path="url(#pe92141345e)" style="fill:#ff40bf"/><path id="patch_181" d="M116.541 119.249a3.992 3.992 0 1 0 0-7.984 3.992 3.992 0 0 0 0 7.984z" clip-path="url(#pe92141345e)" style="fill:#ff807f"/><path id="patch_182" d="M122.83 65.69a2.994 2.994 0 1 0 0-5.988 2.994 2.994 0 0 0 0 5.988z" clip-path="url(#pe92141345e)" style="fill:#ff0"/><path id="patch_183" d="M469.173 75.795a11.976 11.976 0 1 0 0-23.95 11.976 11.976 0 0 0 0 23.95z" clip-path="url(#pe92141345e)" style="fill:#f0f"/><path id="patch_184" d="M357.811 207.203a8.982 8.982 0 1 0 0-17.964 8.982 8.982 0 0 0 0 17.964z" clip-path="url(#pe92141345e)" style="fill:#ffc03f"/><path id="patch_185" d="M449.916 209.399a5.988 5.988 0 1 0 0-11.976 5.988 5.988 0 0 0 0 11.976z" clip-path="url(#pe92141345e)" style="fill:#ff40bf"/><path id="patch_186" d="M539.654 181.823a3.992 3.992 0 1 0 0-7.984 3.992 3.992 0 0 0 0 7.984z" clip-path="url(#pe92141345e)" style="fill:#ff807f"/><path id="patch_187" d="M117.98 70.377a2.994 2.994 0 1 0 0-5.987 2.994 2.994 0 0 0 0 5.987z" clip-path="url(#pe92141345e)" style="fill:#ff0"/><path id="patch_188" d="M362.613 69.014a11.976 11.976 0 1 0 0-23.95 11.976 11.976 0 0 0 0 23.95z" clip-path="url(#pe92141345e)" style="fill:#f0f"/><path id="patch_189" d="M535.136 89.684a8.982 8.982 0 1 0 0-17.963 8.982 8.982 0 0 0 0 17.963z" clip-path="url(#pe92141345e)" style="fill:#ffc03f"/><path id="patch_190" d="M374.228 200.912a5.988 5.988 0 1 0 0-11.976 5.988 5.988 0 0 0 0 11.976z" clip-path="url(#pe92141345e)" style="fill:#ff40bf"/><path id="patch_191" d="M298.925 210.033a3.992 3.992 0 1 0 0-7.984 3.992 3.992 0 0 0 0 7.984z" clip-path="url(#pe92141345e)" style="fill:#ff807f"/><path id="patch_192" d="M357.22 46.07a2.994 2.994 0 1 0 0-5.988 2.994 2.994 0 0 0 0 5.988z" clip-path="url(#pe92141345e)" style="fill:#ff0"/><path id="patch_193" d="M121.012 165.13a11.976 11.976 0 1 0 0-23.952 11.976 11.976 0 0 0 0 23.951z" clip-path="url(#pe92141345e)" style="fill:#f0f"/><path id="patch_194" d="M262.934 82.91a8.982 8.982 0 1 0 0-17.964 8.982 8.982 0 0 0 0 17.963z" clip-path="url(#pe92141345e)" style="fill:#ffc03f"/><path id="patch_195" d="M381.178 59.676a5.988 5.988 0 1 0 0-11.976 5.988 5.988 0 0 0 0 11.976z" clip-path="url(#pe92141345e)" style="fill:#ff40bf"/><path id="patch_196" d="M324.785 215.406a3.992 3.992 0 1 0 0-7.984 3.992 3.992 0 0 0 0 7.984z" clip-path="url(#pe92141345e)" style="fill:#ff807f"/><path id="patch_197" d="M116.844 64.498a2.994 2.994 0 1 0 0-5.987 2.994 2.994 0 0 0 0 5.987z" clip-path="url(#pe92141345e)" style="fill:#ff0"/><path id="patch_198" d="M433.664 207.736a11.976 11.976 0 1 0 0-23.95 11.976 11.976 0 0 0 0 23.95z" clip-path="url(#pe92141345e)" style="fill:#f0f"/><path id="patch_199" d="M245.336 79.305a8.982 8.982 0 1 0 0-17.963 8.982 8.982 0 0 0 0 17.963z" clip-path="url(#pe92141345e)" style="fill:#ffc03f"/><path id="patch_200" d="M451.113 197.484a5.988 5.988 0 1 0 0-11.976 5.988 5.988 0 0 0 0 11.976z" clip-path="url(#pe92141345e)" style="fill:#ff40bf"/><path id="patch_201" d="M346.203 50.473a3.992 3.992 0 1 0 0-7.984 3.992 3.992 0 0 0 0 7.984z" clip-path="url(#pe92141345e)" style="fill:#ff807f"/><path id="patch_202" d="M112.266 60.64a2.994 2.994 0 1 0 0-5.988 2.994 2.994 0 0 0 0 5.987z" clip-path="url(#pe92141345e)" style="fill:#ff0"/><path id="patch_203" d="M157.89 209.947a11.976 11.976 0 1 0 0-23.952 11.976 11.976 0 0 0 0 23.952z" clip-path="url(#pe92141345e)" style="fill:#f0f"/><path id="patch_204" d="M490.055 71.03a8.982 8.982 0 1 0 0-17.963 8.982 8.982 0 0 0 0 17.963z" clip-path="url(#pe92141345e)" style="fill:#ffc03f"/><path id="patch_205" d="M140.307 207.636a5.988 5.988 0 1 0 0-11.976 5.988 5.988 0 0 0 0 11.976z" clip-path="url(#pe92141345e)" style="fill:#ff40bf"/><path id="patch_206" d="M269.717 201.568a3.992 3.992 0 1 0 0-7.983 3.992 3.992 0 0 0 0 7.983z" clip-path="url(#pe92141345e)" style="fill:#ff807f"/><path id="patch_207" d="M134.77 211.713a2.994 2.994 0 1 0 0-5.988 2.994 2.994 0 0 0 0 5.988z" clip-path="url(#pe92141345e)" style="fill:#ff0"/><path id="patch_208" d="M526.725 180.436a11.976 11.976 0 1 0 0-23.951 11.976 11.976 0 0 0 0 23.951z" clip-path="url(#pe92141345e)" style="fill:#f0f"/><path id="patch_209" d="M504.322 189.242a8.982 8.982 0 1 0 0-17.964 8.982 8.982 0 0 0 0 17.964z" clip-path="url(#pe92141345e)" style="fill:#ffc03f"/><path id="patch_210" d="M541.152 163.747a5.988 5.988 0 1 0 0-11.975 5.988 5.988 0 0 0 0 11.975z" clip-path="url(#pe92141345e)" style="fill:#ff40bf"/><path id="patch_211" d="M426.68 214.721a3.992 3.992 0 1 0 0-7.983 3.992 3.992 0 0 0 0 7.983z" clip-path="url(#pe92141345e)" style="fill:#ff807f"/><path id="patch_212" d="M131.556 206.662a2.994 2.994 0 1 0 0-5.988 2.994 2.994 0 0 0 0 5.988z" clip-path="url(#pe92141345e)" style="fill:#ff0"/><path id="patch_213" d="M525.048 111.047a11.976 11.976 0 1 0 0-23.952 11.976 11.976 0 0 0 0 23.952z" clip-path="url(#pe92141345e)" style="fill:#f0f"/><path id="patch_214" d="M381.647 190.905a8.982 8.982 0 1 0 0-17.964 8.982 8.982 0 0 0 0 17.964z" clip-path="url(#pe92141345e)" style="fill:#ffc03f"/><path id="patch_215" d="M417.458 212.905a5.988 5.988 0 1 0 0-11.976 5.988 5.988 0 0 0 0 11.976z" clip-path="url(#pe92141345e)" style="fill:#ff40bf"/><path id="patch_216" d="M321.383 208.183a3.992 3.992 0 1 0 0-7.983 3.992 3.992 0 0 0 0 7.983z" clip-path="url(#pe92141345e)" style="fill:#ff807f"/><path id="patch_217" d="M132.231 200.712a2.994 2.994 0 1 0 0-5.988 2.994 2.994 0 0 0 0 5.988z" clip-path="url(#pe92141345e)" style="fill:#ff0"/><path id="patch_218" d="M142.381 99.624a11.976 11.976 0 1 0 0-23.95 11.976 11.976 0 0 0 0 23.95z" clip-path="url(#pe92141345e)" style="fill:#f0f"/><path id="patch_219" d="M306.575 204.546a8.982 8.982 0 1 0 0-17.964 8.982 8.982 0 0 0 0 17.964z" clip-path="url(#pe92141345e)" style="fill:#ffc03f"/><path id="patch_220" d="M126.241 103.538a5.988 5.988 0 1 0 0-11.976 5.988 5.988 0 0 0 0 11.976z" clip-path="url(#pe92141345e)" style="fill:#ff40bf"/><path id="patch_221" d="M533.501 186.91a3.992 3.992 0 1 0 0-7.983 3.992 3.992 0 0 0 0 7.983z" clip-path="url(#pe92141345e)" style="fill:#ff807f"/><path id="patch_222" d="M494.006 53.738a2.994 2.994 0 1 0 0-5.988 2.994 2.994 0 0 0 0 5.988z" clip-path="url(#pe92141345e)" style="fill:#ff0"/><path id="patch_223" d="M294.211 77.207a11.976 11.976 0 1 0 0-23.951 11.976 11.976 0 0 0 0 23.95z" clip-path="url(#pe92141345e)" style="fill:#f0f"/><path id="patch_224" d="M227.685 210.496a8.982 8.982 0 1 0 0-17.963 8.982 8.982 0 0 0 0 17.963z" clip-path="url(#pe92141345e)" style="fill:#ffc03f"/><path id="patch_225" d="M175.472 207.636a5.988 5.988 0 1 0 0-11.976 5.988 5.988 0 0 0 0 11.976z" clip-path="url(#pe92141345e)" style="fill:#ff40bf"/><path id="patch_226" d="M321.903 200.217a3.992 3.992 0 1 0 0-7.984 3.992 3.992 0 0 0 0 7.984z" clip-path="url(#pe92141345e)" style="fill:#ff807f"/><path id="patch_227" d="M495.981 48.086a2.994 2.994 0 1 0 0-5.988 2.994 2.994 0 0 0 0 5.988z" clip-path="url(#pe92141345e)" style="fill:#ff0"/><path id="patch_228" d="M548.864 132.462a11.976 11.976 0 1 0 0-23.951 11.976 11.976 0 0 0 0 23.951z" clip-path="url(#pe92141345e)" style="fill:#f0f"/><path id="patch_229" d="M555.829 152.827a8.982 8.982 0 1 0 0-17.963 8.982 8.982 0 0 0 0 17.963z" clip-path="url(#pe92141345e)" style="fill:#ffc03f"/><path id="patch_230" d="M524.087 192.216a5.988 5.988 0 1 0 0-11.975 5.988 5.988 0 0 0 0 11.975z" clip-path="url(#pe92141345e)" style="fill:#ff40bf"/><path id="patch_231" d="M409.836 217.35a3.992 3.992 0 1 0 0-7.983 3.992 3.992 0 0 0 0 7.983z" clip-path="url(#pe92141345e)" style="fill:#ff807f"/><path id="patch_232" d="M517.433 183.19a2.994 2.994 0 1 0 0-5.988 2.994 2.994 0 0 0 0 5.988z" clip-path="url(#pe92141345e)" style="fill:#ff0"/><path id="patch_233" d="M404.776 77.207a11.976 11.976 0 1 0 0-23.951 11.976 11.976 0 0 0 0 23.95z" clip-path="url(#pe92141345e)" style="fill:#f0f"/><path id="patch_234" d="M483.756 87.852a8.982 8.982 0 1 0 0-17.963 8.982 8.982 0 0 0 0 17.963z" clip-path="url(#pe92141345e)" style="fill:#ffc03f"/><path id="patch_235" d="M125.57 115.494a5.988 5.988 0 1 0 0-11.975 5.988 5.988 0 0 0 0 11.975z" clip-path="url(#pe92141345e)" style="fill:#ff40bf"/><path id="patch_236" d="M275.405 74.348a3.992 3.992 0 1 0 0-7.983 3.992 3.992 0 0 0 0 7.983z" clip-path="url(#pe92141345e)" style="fill:#ff807f"/><path id="patch_237" d="M549.411 156.95a2.994 2.994 0 1 0 0-5.988 2.994 2.994 0 0 0 0 5.988z" clip-path="url(#pe92141345e)" style="fill:#ff0"/><path id="patch_238" d="M121.336 192.82a11.976 11.976 0 1 0 0-23.951 11.976 11.976 0 0 0 0 23.951z" clip-path="url(#pe92141345e)" style="fill:#f0f"/><path id="patch_239" d="M174.397 80.193a8.982 8.982 0 1 0 0-17.963 8.982 8.982 0 0 0 0 17.963z" clip-path="url(#pe92141345e)" style="fill:#ffc03f"/><path id="patch_240" d="M367.07 191.312a5.988 5.988 0 1 0 0-11.976 5.988 5.988 0 0 0 0 11.976z" clip-path="url(#pe92141345e)" style="fill:#ff40bf"/><path id="patch_241" d="M538.073 112.298a3.992 3.992 0 1 0 0-7.984 3.992 3.992 0 0 0 0 7.984z" clip-path="url(#pe92141345e)" style="fill:#ff807f"/><path id="patch_242" d="M515.12 188.713a2.994 2.994 0 1 0 0-5.988 2.994 2.994 0 0 0 0 5.988z" clip-path="url(#pe92141345e)" style="fill:#ff0"/><path id="patch_243" d="M267.277 193.772a11.976 11.976 0 1 0 0-23.95 11.976 11.976 0 0 0 0 23.95z" clip-path="url(#pe92141345e)" style="fill:#f0f"/><path id="patch_244" d="M163.366 94.37a8.982 8.982 0 1 0 0-17.964 8.982 8.982 0 0 0 0 17.963z" clip-path="url(#pe92141345e)" style="fill:#ffc03f"/><path id="patch_245" d="M405.786 210.226a5.988 5.988 0 1 0 0-11.976 5.988 5.988 0 0 0 0 11.976z" clip-path="url(#pe92141345e)" style="fill:#ff40bf"/><path id="patch_246" d="M390.149 62.051a3.992 3.992 0 1 0 0-7.983 3.992 3.992 0 0 0 0 7.983z" clip-path="url(#pe92141345e)" style="fill:#ff807f"/><path id="patch_247" d="M545.319 152.58a2.994 2.994 0 1 0 0-5.988 2.994 2.994 0 0 0 0 5.987z" clip-path="url(#pe92141345e)" style="fill:#ff0"/><path id="patch_248" d="M330.96 72.64a11.976 11.976 0 1 0 0-23.951 11.976 11.976 0 0 0 0 23.951z" clip-path="url(#pe92141345e)" style="fill:#f0f"/><path id="patch_249" d="M538.31 148.857a8.982 8.982 0 1 0 0-17.963 8.982 8.982 0 0 0 0 17.963z" clip-path="url(#pe92141345e)" style="fill:#ffc03f"/><path id="patch_250" d="M212.725 206.988a5.988 5.988 0 1 0 0-11.976 5.988 5.988 0 0 0 0 11.976z" clip-path="url(#pe92141345e)" style="fill:#ff40bf"/><path id="patch_251" d="M105.7 188.07a3.992 3.992 0 1 0 0-7.983 3.992 3.992 0 0 0 0 7.983z" clip-path="url(#pe92141345e)" style="fill:#ff807f"/><path id="patch_252" d="M563.725 125.271a2.994 2.994 0 1 0 0-5.988 2.994 2.994 0 0 0 0 5.988z" clip-path="url(#pe92141345e)" style="fill:#ff0"/><path id="patch_253" d="M464.581 99.301a11.976 11.976 0 1 0 0-23.951 11.976 11.976 0 0 0 0 23.951z" clip-path="url(#pe92141345e)" style="fill:#f0f"/><path id="patch_254" d="M382.574 77.573a8.982 8.982 0 1 0 0-17.963 8.982 8.982 0 0 0 0 17.963z" clip-path="url(#pe92141345e)" style="fill:#ffc03f"/><path id="patch_255" d="M137.034 196.117a5.988 5.988 0 1 0 0-11.976 5.988 5.988 0 0 0 0 11.976z" clip-path="url(#pe92141345e)" style="fill:#ff40bf"/><path id="patch_256" d="M133.876 107.967a3.992 3.992 0 1 0 0-7.983 3.992 3.992 0 0 0 0 7.983z" clip-path="url(#pe92141345e)" style="fill:#ff807f"/><path id="patch_257" d="M498.984 57.064a2.994 2.994 0 1 0 0-5.988 2.994 2.994 0 0 0 0 5.988z" clip-path="url(#pe92141345e)" style="fill:#ff0"/><path id="patch_258" d="M289.754 185.503a11.976 11.976 0 1 0 0-23.951 11.976 11.976 0 0 0 0 23.951z" clip-path="url(#pe92141345e)" style="fill:#f0f"/><path id="patch_259" d="M251.014 96.347a8.982 8.982 0 1 0 0-17.963 8.982 8.982 0 0 0 0 17.963z" clip-path="url(#pe92141345e)" style="fill:#ffc03f"/><path id="patch_260" d="M311.146 65.232a5.988 5.988 0 1 0 0-11.976 5.988 5.988 0 0 0 0 11.976z" clip-path="url(#pe92141345e)" style="fill:#ff40bf"/><path id="patch_261" d="M532.916 194.872a3.992 3.992 0 1 0 0-7.983 3.992 3.992 0 0 0 0 7.983z" clip-path="url(#pe92141345e)" style="fill:#ff807f"/><path id="patch_262" d="M296.566 189.85a2.994 2.994 0 1 0 0-5.987 2.994 2.994 0 0 0 0 5.988z" clip-path="url(#pe92141345e)" style="fill:#ff0"/><path id="patch_263" d="M216.921 195.51a11.976 11.976 0 1 0 0-23.952 11.976 11.976 0 0 0 0 23.952z" clip-path="url(#pe92141345e)" style="fill:#f0f"/><path id="patch_264" d="M313.213 83.05a8.982 8.982 0 1 0 0-17.962 8.982 8.982 0 0 0 0 17.963z" clip-path="url(#pe92141345e)" style="fill:#ffc03f"/><path id="patch_265" d="M413.942 201.457a5.988 5.988 0 1 0 0-11.975 5.988 5.988 0 0 0 0 11.975z" clip-path="url(#pe92141345e)" style="fill:#ff40bf"/><path id="patch_266" d="M243.69 207.255a3.992 3.992 0 1 0 0-7.984 3.992 3.992 0 0 0 0 7.984z" clip-path="url(#pe92141345e)" style="fill:#ff807f"/><path id="patch_267" d="M527.068 197.695a2.994 2.994 0 1 0 0-5.988 2.994 2.994 0 0 0 0 5.988z" clip-path="url(#pe92141345e)" style="fill:#ff0"/><path id="patch_268" d="M141.353 130.06a11.976 11.976 0 1 0 0-23.952 11.976 11.976 0 0 0 0 23.951z" clip-path="url(#pe92141345e)" style="fill:#f0f"/><path id="patch_269" d="M247.001 199.701a8.982 8.982 0 1 0 0-17.963 8.982 8.982 0 0 0 0 17.963z" clip-path="url(#pe92141345e)" style="fill:#ffc03f"/><path id="patch_270" d="M504.968 66.755a5.988 5.988 0 1 0 0-11.976 5.988 5.988 0 0 0 0 11.976z" clip-path="url(#pe92141345e)" style="fill:#ff40bf"/><path id="patch_271" d="M531.975 117.45a3.992 3.992 0 1 0 0-7.985 3.992 3.992 0 0 0 0 7.984z" clip-path="url(#pe92141345e)" style="fill:#ff807f"/><path id="patch_272" d="M140.81 106.119a2.994 2.994 0 1 0 0-5.988 2.994 2.994 0 0 0 0 5.988z" clip-path="url(#pe92141345e)" style="fill:#ff0"/><path id="patch_273" d="M197.688 75.795a11.976 11.976 0 1 0 0-23.95 11.976 11.976 0 0 0 0 23.95z" clip-path="url(#pe92141345e)" style="fill:#f0f"/><path id="patch_274" d="M502.022 84.425a8.982 8.982 0 1 0 0-17.964 8.982 8.982 0 0 0 0 17.964z" clip-path="url(#pe92141345e)" style="fill:#ffc03f"/><path id="patch_275" d="M520.205 87.762a5.988 5.988 0 1 0 0-11.976 5.988 5.988 0 0 0 0 11.976z" clip-path="url(#pe92141345e)" style="fill:#ff40bf"/><path id="patch_276" d="M106.089 180.096a3.992 3.992 0 1 0 0-7.983 3.992 3.992 0 0 0 0 7.983z" clip-path="url(#pe92141345e)" style="fill:#ff807f"/><path id="patch_277" d="M258.441 197.253a2.994 2.994 0 1 0 0-5.988 2.994 2.994 0 0 0 0 5.988z" clip-path="url(#pe92141345e)" style="fill:#ff0"/><path id="patch_278" d="M462.582 188.3a11.976 11.976 0 1 0 0-23.951 11.976 11.976 0 0 0 0 23.95z" clip-path="url(#pe92141345e)" style="fill:#f0f"/><path id="patch_279" d="M399.491 192.963a8.982 8.982 0 1 0 0-17.963 8.982 8.982 0 0 0 0 17.963z" clip-path="url(#pe92141345e)" style="fill:#ffc03f"/><path id="patch_280" d="M524.198 76.472a5.988 5.988 0 1 0 0-11.976 5.988 5.988 0 0 0 0 11.976z" clip-path="url(#pe92141345e)" style="fill:#ff40bf"/><path id="patch_281" d="M418.52 61.098a3.992 3.992 0 1 0 0-7.984 3.992 3.992 0 0 0 0 7.984z" clip-path="url(#pe92141345e)" style="fill:#ff807f"/><path id="patch_282" d="M515.89 76.891a2.994 2.994 0 1 0 0-5.988 2.994 2.994 0 0 0 0 5.988z" clip-path="url(#pe92141345e)" style="fill:#ff0"/><path id="patch_283" d="M177.172 195.741a11.976 11.976 0 1 0 0-23.951 11.976 11.976 0 0 0 0 23.951z" clip-path="url(#pe92141345e)" style="fill:#f0f"/><path id="patch_284" d="M325.48 192.737a8.982 8.982 0 1 0 0-17.964 8.982 8.982 0 0 0 0 17.964z" clip-path="url(#pe92141345e)" style="fill:#ffc03f"/><path id="patch_285" d="M444.554 187.464a5.988 5.988 0 1 0 0-11.975 5.988 5.988 0 0 0 0 11.975z" clip-path="url(#pe92141345e)" style="fill:#ff40bf"/><path id="patch_286" d="M205.231 198.402a3.992 3.992 0 1 0 0-7.984 3.992 3.992 0 0 0 0 7.984z" clip-path="url(#pe92141345e)" style="fill:#ff807f"/><path id="patch_287" d="M400.5 198.908a2.994 2.994 0 1 0 0-5.988 2.994 2.994 0 0 0 0 5.988z" clip-path="url(#pe92141345e)" style="fill:#ff0"/><path id="patch_288" d="M446.52 83.571a11.976 11.976 0 1 0 0-23.95 11.976 11.976 0 0 0 0 23.95z" clip-path="url(#pe92141345e)" style="fill:#f0f"/><path id="patch_289" d="M425.547 76.992a8.982 8.982 0 1 0 0-17.963 8.982 8.982 0 0 0 0 17.963z" clip-path="url(#pe92141345e)" style="fill:#ffc03f"/><path id="patch_290" d="M510.41 94.65a5.988 5.988 0 1 0 0-11.976 5.988 5.988 0 0 0 0 11.975z" clip-path="url(#pe92141345e)" style="fill:#ff40bf"/><path id="patch_291" d="M302.491 187.149a3.992 3.992 0 1 0 0-7.984 3.992 3.992 0 0 0 0 7.984z" clip-path="url(#pe92141345e)" style="fill:#ff807f"/><path id="patch_292" d="M318.978 54.687a2.994 2.994 0 1 0 0-5.988 2.994 2.994 0 0 0 0 5.988z" clip-path="url(#pe92141345e)" style="fill:#ff0"/><path id="patch_293" d="M183.824 101.903a11.976 11.976 0 1 0 0-23.951 11.976 11.976 0 0 0 0 23.95z" clip-path="url(#pe92141345e)" style="fill:#f0f"/><path id="patch_294" d="M310.707 182.098a8.982 8.982 0 1 0 0-17.963 8.982 8.982 0 0 0 0 17.963z" clip-path="url(#pe92141345e)" style="fill:#ffc03f"/><path id="patch_295" d="M199.199 192.449a5.988 5.988 0 1 0 0-11.976 5.988 5.988 0 0 0 0 11.976z" clip-path="url(#pe92141345e)" style="fill:#ff40bf"/><path id="patch_296" d="M532.154 157.437a3.992 3.992 0 1 0 0-7.984 3.992 3.992 0 0 0 0 7.984z" clip-path="url(#pe92141345e)" style="fill:#ff807f"/><path id="patch_297" d="M455.408 60.934a2.994 2.994 0 1 0 0-5.988 2.994 2.994 0 0 0 0 5.988z" clip-path="url(#pe92141345e)" style="fill:#ff0"/><path id="patch_298" d="M271.139 105.186a11.976 11.976 0 1 0 0-23.95 11.976 11.976 0 0 0 0 23.95z" clip-path="url(#pe92141345e)" style="fill:#f0f"/><path id="patch_299" d="M167.366 111.88a8.982 8.982 0 1 0 0-17.963 8.982 8.982 0 0 0 0 17.964z" clip-path="url(#pe92141345e)" style="fill:#ffc03f"/><path id="patch_300" d="M302.336 166.695a5.988 5.988 0 1 0 0-11.976 5.988 5.988 0 0 0 0 11.976z" clip-path="url(#pe92141345e)" style="fill:#ff40bf"/><path id="patch_301" d="M562.298 133.107a3.992 3.992 0 1 0 0-7.983 3.992 3.992 0 0 0 0 7.983z" clip-path="url(#pe92141345e)" style="fill:#ff807f"/><path id="patch_302" d="M274.432 80.268a2.994 2.994 0 1 0 0-5.988 2.994 2.994 0 0 0 0 5.988z" clip-path="url(#pe92141345e)" style="fill:#ff0"/><path id="patch_303" d="M501.69 116.342a11.976 11.976 0 1 0 0-23.952 11.976 11.976 0 0 0 0 23.952z" clip-path="url(#pe92141345e)" style="fill:#f0f"/><path id="patch_304" d="M392.352 176.48a8.982 8.982 0 1 0 0-17.963 8.982 8.982 0 0 0 0 17.963z" clip-path="url(#pe92141345e)" style="fill:#ffc03f"/><path id="patch_305" d="M481.393 99.64a5.988 5.988 0 1 0 0-11.976 5.988 5.988 0 0 0 0 11.975z" clip-path="url(#pe92141345e)" style="fill:#ff40bf"/><path id="patch_306" d="M110.29 173.308a3.992 3.992 0 1 0 0-7.984 3.992 3.992 0 0 0 0 7.984z" clip-path="url(#pe92141345e)" style="fill:#ff807f"/><path id="patch_307" d="M449.727 59.043a2.994 2.994 0 1 0 0-5.987 2.994 2.994 0 0 0 0 5.987z" clip-path="url(#pe92141345e)" style="fill:#ff0"/><path id="patch_308" d="M482.191 174.55a11.976 11.976 0 1 0 0-23.952 11.976 11.976 0 0 0 0 23.952z" clip-path="url(#pe92141345e)" style="fill:#f0f"/><path id="patch_309" d="M347.873 192.24a8.982 8.982 0 1 0 0-17.964 8.982 8.982 0 0 0 0 17.963z" clip-path="url(#pe92141345e)" style="fill:#ffc03f"/><path id="patch_310" d="M255.31 107.692a5.988 5.988 0 1 0 0-11.975 5.988 5.988 0 0 0 0 11.975z" clip-path="url(#pe92141345e)" style="fill:#ff40bf"/><path id="patch_311" d="M178.984 63.069a3.992 3.992 0 1 0 0-7.984 3.992 3.992 0 0 0 0 7.984z" clip-path="url(#pe92141345e)" style="fill:#ff807f"/><path id="patch_312" d="M492.19 176.708a2.994 2.994 0 1 0 0-5.987 2.994 2.994 0 0 0 0 5.987z" clip-path="url(#pe92141345e)" style="fill:#ff0"/><path id="patch_313" d="M518.567 134.103a11.976 11.976 0 1 0 0-23.951 11.976 11.976 0 0 0 0 23.951z" clip-path="url(#pe92141345e)" style="fill:#f0f"/><path id="patch_314" d="M289.771 161.553a8.982 8.982 0 1 0 0-17.963 8.982 8.982 0 0 0 0 17.963z" clip-path="url(#pe92141345e)" style="fill:#ffc03f"/><path id="patch_315" d="M201.297 180.659a5.988 5.988 0 1 0 0-11.976 5.988 5.988 0 0 0 0 11.976z" clip-path="url(#pe92141345e)" style="fill:#ff40bf"/><path id="patch_316" d="M533.809 71.79a3.992 3.992 0 1 0 0-7.984 3.992 3.992 0 0 0 0 7.984z" clip-path="url(#pe92141345e)" style="fill:#ff807f"/><path id="patch_317" d="M533.423 123.285a2.994 2.994 0 1 0 0-5.988 2.994 2.994 0 0 0 0 5.988z" clip-path="url(#pe92141345e)" style="fill:#ff0"/><path id="patch_318" d="M415.734 98.503a11.976 11.976 0 1 0 0-23.951 11.976 11.976 0 0 0 0 23.95z" clip-path="url(#pe92141345e)" style="fill:#f0f"/><path id="patch_319" d="M273.536 169.238a8.982 8.982 0 1 0 0-17.963 8.982 8.982 0 0 0 0 17.963z" clip-path="url(#pe92141345e)" style="fill:#ffc03f"/><path id="patch_320" d="M406.91 176.969a5.988 5.988 0 1 0 0-11.976 5.988 5.988 0 0 0 0 11.976z" clip-path="url(#pe92141345e)" style="fill:#ff40bf"/><path id="patch_321" d="M122.711 124.315a3.992 3.992 0 1 0 0-7.984 3.992 3.992 0 0 0 0 7.984z" clip-path="url(#pe92141345e)" style="fill:#ff807f"/><path id="patch_322" d="M185.73 78.074a2.994 2.994 0 1 0 0-5.987 2.994 2.994 0 0 0 0 5.987z" clip-path="url(#pe92141345e)" style="fill:#ff0"/><path id="patch_323" d="M473.239 121.632a11.976 11.976 0 1 0 0-23.951 11.976 11.976 0 0 0 0 23.95z" clip-path="url(#pe92141345e)" style="fill:#f0f"/><path id="patch_324" d="M394.963 92.73a8.982 8.982 0 1 0 0-17.964 8.982 8.982 0 0 0 0 17.964z" clip-path="url(#pe92141345e)" style="fill:#ffc03f"/><path id="patch_325" d="M126.602 135.5a5.988 5.988 0 1 0 0-11.975 5.988 5.988 0 0 0 0 11.975z" clip-path="url(#pe92141345e)" style="fill:#ff40bf"/><path id="patch_326" d="M156.24 100.22a3.992 3.992 0 1 0 0-7.984 3.992 3.992 0 0 0 0 7.984z" clip-path="url(#pe92141345e)" style="fill:#ff807f"/><path id="patch_327" d="M193.657 182.387a2.994 2.994 0 1 0 0-5.988 2.994 2.994 0 0 0 0 5.988z" clip-path="url(#pe92141345e)" style="fill:#ff0"/><path id="patch_328" d="M460.478 164.442a11.976 11.976 0 1 0 0-23.95 11.976 11.976 0 0 0 0 23.95z" clip-path="url(#pe92141345e)" style="fill:#f0f"/><path id="patch_329" d="M444.399 174.888a8.982 8.982 0 1 0 0-17.964 8.982 8.982 0 0 0 0 17.964z" clip-path="url(#pe92141345e)" style="fill:#ffc03f"/><path id="patch_330" d="M414.069 186.569a5.988 5.988 0 1 0 0-11.976 5.988 5.988 0 0 0 0 11.976z" clip-path="url(#pe92141345e)" style="fill:#ff40bf"/><path id="patch_331" d="M512.304 71.524a3.992 3.992 0 1 0 0-7.983 3.992 3.992 0 0 0 0 7.983z" clip-path="url(#pe92141345e)" style="fill:#ff807f"/><path id="patch_332" d="M485.782 104.482a2.994 2.994 0 1 0 0-5.988 2.994 2.994 0 0 0 0 5.988z" clip-path="url(#pe92141345e)" style="fill:#ff0"/><path id="patch_333" d="M298.331 100.8a11.976 11.976 0 1 0 0-23.951 11.976 11.976 0 0 0 0 23.95z" clip-path="url(#pe92141345e)" style="fill:#f0f"/><path id="patch_334" d="M421.488 176.561a8.982 8.982 0 1 0 0-17.963 8.982 8.982 0 0 0 0 17.963z" clip-path="url(#pe92141345e)" style="fill:#ffc03f"/><path id="patch_335" d="M433.156 183.794a5.988 5.988 0 1 0 0-11.976 5.988 5.988 0 0 0 0 11.976z" clip-path="url(#pe92141345e)" style="fill:#ff40bf"/><path id="patch_336" d="M281.257 79.779a3.992 3.992 0 1 0 0-7.984 3.992 3.992 0 0 0 0 7.984z" clip-path="url(#pe92141345e)" style="fill:#ff807f"/><path id="patch_337" d="M528.897 65.824a2.994 2.994 0 1 0 0-5.987 2.994 2.994 0 0 0 0 5.987z" clip-path="url(#pe92141345e)" style="fill:#ff0"/><path id="patch_338" d="M273.552 151.276a11.976 11.976 0 1 0 0-23.952 11.976 11.976 0 0 0 0 23.952z" clip-path="url(#pe92141345e)" style="fill:#f0f"/><path id="patch_339" d="M406.177 165.012a8.982 8.982 0 1 0 0-17.964 8.982 8.982 0 0 0 0 17.964z" clip-path="url(#pe92141345e)" style="fill:#ffc03f"/><path id="patch_340" d="M522.477 156.996a5.988 5.988 0 1 0 0-11.976 5.988 5.988 0 0 0 0 11.976z" clip-path="url(#pe92141345e)" style="fill:#ff40bf"/><path id="patch_341" d="M533.683 131.263a3.992 3.992 0 1 0 0-7.983 3.992 3.992 0 0 0 0 7.983z" clip-path="url(#pe92141345e)" style="fill:#ff807f"/><path id="patch_342" d="M422.98 182.456a2.994 2.994 0 1 0 0-5.988 2.994 2.994 0 0 0 0 5.988z" clip-path="url(#pe92141345e)" style="fill:#ff0"/><path id="patch_343" d="M399.562 116.169a11.976 11.976 0 1 0 0-23.951 11.976 11.976 0 0 0 0 23.95z" clip-path="url(#pe92141345e)" style="fill:#f0f"/><path id="patch_344" d="M157.33 186.004a8.982 8.982 0 1 0 0-17.963 8.982 8.982 0 0 0 0 17.963z" clip-path="url(#pe92141345e)" style="fill:#ffc03f"/><path id="patch_345" d="M181.53 113.73a5.988 5.988 0 1 0-.001-11.975 5.988 5.988 0 0 0 0 11.975z" clip-path="url(#pe92141345e)" style="fill:#ff40bf"/><path id="patch_346" d="M231.84 193.217a3.992 3.992 0 1 0 0-7.984 3.992 3.992 0 0 0 0 7.984z" clip-path="url(#pe92141345e)" style="fill:#ff807f"/><path id="patch_347" d="M421.703 188.305a2.994 2.994 0 1 0 0-5.987 2.994 2.994 0 0 0 0 5.987z" clip-path="url(#pe92141345e)" style="fill:#ff0"/><path id="patch_348" d="M441.929 107.077a11.976 11.976 0 1 0 0-23.951 11.976 11.976 0 0 0 0 23.951z" clip-path="url(#pe92141345e)" style="fill:#f0f"/><path id="patch_349" d="M420.334 115.954a8.982 8.982 0 1 0 0-17.963 8.982 8.982 0 0 0 0 17.963z" clip-path="url(#pe92141345e)" style="fill:#ffc03f"/><path id="patch_350" d="M234.446 185.58a5.988 5.988 0 1 0 0-11.976 5.988 5.988 0 0 0 0 11.976z" clip-path="url(#pe92141345e)" style="fill:#ff40bf"/><path id="patch_351" d="M212.822 62.722a3.992 3.992 0 1 0 0-7.984 3.992 3.992 0 0 0 0 7.984z" clip-path="url(#pe92141345e)" style="fill:#ff807f"/><path id="patch_352" d="M426.633 99.782a2.994 2.994 0 1 0 0-5.987 2.994 2.994 0 0 0 0 5.987z" clip-path="url(#pe92141345e)" style="fill:#ff0"/><path id="patch_353" d="M296.59 144.731a11.976 11.976 0 1 0 0-23.951 11.976 11.976 0 0 0 0 23.951z" clip-path="url(#pe92141345e)" style="fill:#f0f"/><path id="patch_354" d="M233.417 92.743a8.982 8.982 0 1 0 0-17.963 8.982 8.982 0 0 0 0 17.963z" clip-path="url(#pe92141345e)" style="fill:#ffc03f"/><path id="patch_355" d="M215.042 74.447a5.988 5.988 0 1 0 0-11.976 5.988 5.988 0 0 0 0 11.976z" clip-path="url(#pe92141345e)" style="fill:#ff40bf"/><path id="patch_356" d="M191.505 176.739a3.992 3.992 0 1 0 0-7.984 3.992 3.992 0 0 0 0 7.984z" clip-path="url(#pe92141345e)" style="fill:#ff807f"/><path id="patch_357" d="M120.223 138.829a2.994 2.994 0 1 0 0-5.988 2.994 2.994 0 0 0 0 5.988z" clip-path="url(#pe92141345e)" style="fill:#ff0"/><path id="patch_358" d="M366.57 179.344a11.976 11.976 0 1 0 0-23.952 11.976 11.976 0 0 0 0 23.952z" clip-path="url(#pe92141345e)" style="fill:#f0f"/><path id="patch_359" d="M239.094 109.785a8.982 8.982 0 1 0 0-17.964 8.982 8.982 0 0 0 0 17.964z" clip-path="url(#pe92141345e)" style="fill:#ffc03f"/><path id="patch_360" d="M512.451 163.544a5.988 5.988 0 1 0 0-11.975 5.988 5.988 0 0 0 0 11.975z" clip-path="url(#pe92141345e)" style="fill:#ff40bf"/><path id="patch_361" d="M147.787 107.463a3.992 3.992 0 1 0 0-7.984 3.992 3.992 0 0 0 0 7.984z" clip-path="url(#pe92141345e)" style="fill:#ff807f"/><path id="patch_362" d="M125.614 141.433a2.994 2.994 0 1 0 0-5.988 2.994 2.994 0 0 0 0 5.988z" clip-path="url(#pe92141345e)" style="fill:#ff0"/><path id="patch_363" d="M377.383 107.13a11.976 11.976 0 1 0 0-23.95 11.976 11.976 0 0 0 0 23.95z" clip-path="url(#pe92141345e)" style="fill:#f0f"/><path id="patch_364" d="M137.517 148.738a8.982 8.982 0 1 0 0-17.964 8.982 8.982 0 0 0 0 17.964z" clip-path="url(#pe92141345e)" style="fill:#ffc03f"/><path id="patch_365" d="M316.294 94.706a5.988 5.988 0 1 0 0-11.976 5.988 5.988 0 0 0 0 11.976z" clip-path="url(#pe92141345e)" style="fill:#ff40bf"/><path id="patch_366" d="M490.63 93.865a3.992 3.992 0 1 0 0-7.984 3.992 3.992 0 0 0 0 7.984z" clip-path="url(#pe92141345e)" style="fill:#ff807f"/><path id="patch_367" d="M383.225 84.368a2.994 2.994 0 1 0 0-5.988 2.994 2.994 0 0 0 0 5.988z" clip-path="url(#pe92141345e)" style="fill:#ff0"/><path id="patch_368" d="M279.404 128.051a11.976 11.976 0 1 0 0-23.95 11.976 11.976 0 0 0 0 23.95z" clip-path="url(#pe92141345e)" style="fill:#f0f"/><path id="patch_369" d="M509.962 151.778a8.982 8.982 0 1 0 0-17.964 8.982 8.982 0 0 0 0 17.964z" clip-path="url(#pe92141345e)" style="fill:#ffc03f"/><path id="patch_370" d="M500.832 160.646a5.988 5.988 0 1 0 0-11.975 5.988 5.988 0 0 0 0 11.975z" clip-path="url(#pe92141345e)" style="fill:#ff40bf"/><path id="patch_371" d="M541.616 73.456a3.992 3.992 0 1 0 0-7.984 3.992 3.992 0 0 0 0 7.984z" clip-path="url(#pe92141345e)" style="fill:#ff807f"/><path id="patch_372" d="M155.393 106.156a2.994 2.994 0 1 0 0-5.988 2.994 2.994 0 0 0 0 5.988z" clip-path="url(#pe92141345e)" style="fill:#ff0"/><path id="patch_373" d="M318.935 165.819a11.976 11.976 0 1 0 0-23.951 11.976 11.976 0 0 0 0 23.95z" clip-path="url(#pe92141345e)" style="fill:#f0f"/><path id="patch_374" d="M492 151.554a8.982 8.982 0 1 0 0-17.963 8.982 8.982 0 0 0 0 17.963z" clip-path="url(#pe92141345e)" style="fill:#ffc03f"/><path id="patch_375" d="M501.13 136.698a5.988 5.988 0 1 0 0-11.975 5.988 5.988 0 0 0 0 11.975z" clip-path="url(#pe92141345e)" style="fill:#ff40bf"/><path id="patch_376" d="M443.995 56.049a3.992 3.992 0 1 0 0-7.984 3.992 3.992 0 0 0 0 7.984z" clip-path="url(#pe92141345e)" style="fill:#ff807f"/><path id="patch_377" d="M377.357 83.18a2.994 2.994 0 1 0 0-5.987 2.994 2.994 0 0 0 0 5.988z" clip-path="url(#pe92141345e)" style="fill:#ff0"/><path id="patch_378" d="M208.503 97.165a11.976 11.976 0 1 0 0-23.951 11.976 11.976 0 0 0 0 23.95z" clip-path="url(#pe92141345e)" style="fill:#f0f"/><path id="patch_379" d="M299.975 121.056a8.982 8.982 0 1 0 0-17.963 8.982 8.982 0 0 0 0 17.963z" clip-path="url(#pe92141345e)" style="fill:#ffc03f"/><path id="patch_380" d="M489.511 133.8a5.988 5.988 0 1 0 0-11.975 5.988 5.988 0 0 0 0 11.975z" clip-path="url(#pe92141345e)" style="fill:#ff40bf"/><path id="patch_381" d="M147.681 189.686a3.992 3.992 0 1 0 0-7.984 3.992 3.992 0 0 0 0 7.984z" clip-path="url(#pe92141345e)" style="fill:#ff807f"/><path id="patch_382" d="M195.082 81.554a2.994 2.994 0 1 0 0-5.987 2.994 2.994 0 0 0 0 5.987z" clip-path="url(#pe92141345e)" style="fill:#ff0"/><path id="patch_383" d="M387.175 159.167a11.976 11.976 0 1 0 0-23.95 11.976 11.976 0 0 0 0 23.95z" clip-path="url(#pe92141345e)" style="fill:#f0f"/><path id="patch_384" d="M476.038 143.317a8.982 8.982 0 1 0 0-17.963 8.982 8.982 0 0 0 0 17.963z" clip-path="url(#pe92141345e)" style="fill:#ffc03f"/><path id="patch_385" d="M142.363 183.238a5.988 5.988 0 1 0 0-11.976 5.988 5.988 0 0 0 0 11.976z" clip-path="url(#pe92141345e)" style="fill:#ff40bf"/><path id="patch_386" d="M430.335 84.06a3.992 3.992 0 1 0 0-7.984 3.992 3.992 0 0 0 0 7.983z" clip-path="url(#pe92141345e)" style="fill:#ff807f"/><path id="patch_387" d="M481.53 126.688a2.994 2.994 0 1 0 0-5.988 2.994 2.994 0 0 0 0 5.988z" clip-path="url(#pe92141345e)" style="fill:#ff0"/><path id="patch_388" d="M228.58 174.59a11.976 11.976 0 1 0 0-23.952 11.976 11.976 0 0 0 0 23.951z" clip-path="url(#pe92141345e)" style="fill:#f0f"/><path id="patch_389" d="M247.33 180.955a8.982 8.982 0 1 0 0-17.963 8.982 8.982 0 0 0 0 17.963z" clip-path="url(#pe92141345e)" style="fill:#ffc03f"/><path id="patch_390" d="M211.056 172.544a5.988 5.988 0 1 0 0-11.976 5.988 5.988 0 0 0 0 11.976z" clip-path="url(#pe92141345e)" style="fill:#ff40bf"/><path id="patch_391" d="M323.093 173.251a3.992 3.992 0 1 0 0-7.983 3.992 3.992 0 0 0 0 7.983z" clip-path="url(#pe92141345e)" style="fill:#ff807f"/><path id="patch_392" d="M485.892 122.587a2.994 2.994 0 1 0 0-5.988 2.994 2.994 0 0 0 0 5.988z" clip-path="url(#pe92141345e)" style="fill:#ff0"/><path id="patch_393" d="M318.197 134.398a11.976 11.976 0 1 0 0-23.95 11.976 11.976 0 0 0 0 23.95z" clip-path="url(#pe92141345e)" style="fill:#f0f"/><path id="patch_394" d="M257.312 161.527a8.982 8.982 0 1 0 0-17.963 8.982 8.982 0 0 0 0 17.963z" clip-path="url(#pe92141345e)" style="fill:#ffc03f"/><path id="patch_395" d="M313.248 111.144a5.988 5.988 0 1 0 0-11.976 5.988 5.988 0 0 0 0 11.976z" clip-path="url(#pe92141345e)" style="fill:#ff40bf"/><path id="patch_396" d="M302.613 154.724a3.992 3.992 0 1 0 0-7.984 3.992 3.992 0 0 0 0 7.984z" clip-path="url(#pe92141345e)" style="fill:#ff807f"/><path id="patch_397" d="M382.118 164.275a2.994 2.994 0 1 0 0-5.988 2.994 2.994 0 0 0 0 5.988z" clip-path="url(#pe92141345e)" style="fill:#ff0"/><path id="patch_398" d="M145.687 171.573a11.976 11.976 0 1 0 0-23.951 11.976 11.976 0 0 0 0 23.951z" clip-path="url(#pe92141345e)" style="fill:#f0f"/><path id="patch_399" d="M196.125 169.606a8.982 8.982 0 1 0 0-17.963 8.982 8.982 0 0 0 0 17.963z" clip-path="url(#pe92141345e)" style="fill:#ffc03f"/><path id="patch_400" d="M212.473 160.653a5.988 5.988 0 1 0 0-11.976 5.988 5.988 0 0 0 0 11.976z" clip-path="url(#pe92141345e)" style="fill:#ff40bf"/><path id="patch_401" d="M156.543 114.044a3.992 3.992 0 1 0 0-7.983 3.992 3.992 0 0 0 0 7.983z" clip-path="url(#pe92141345e)" style="fill:#ff807f"/><path id="patch_402" d="M311.348 99.209a2.994 2.994 0 1 0 0-5.988 2.994 2.994 0 0 0 0 5.988z" clip-path="url(#pe92141345e)" style="fill:#ff0"/><path id="patch_403" d="M250.524 144.694a11.976 11.976 0 1 0 0-23.95 11.976 11.976 0 0 0 0 23.95z" clip-path="url(#pe92141345e)" style="fill:#f0f"/><path id="patch_404" d="M335.739 175.347a8.982 8.982 0 1 0 0-17.963 8.982 8.982 0 0 0 0 17.963z" clip-path="url(#pe92141345e)" style="fill:#ffc03f"/><path id="patch_405" d="M224.894 102.055a5.988 5.988 0 1 0 0-11.975 5.988 5.988 0 0 0 0 11.975z" clip-path="url(#pe92141345e)" style="fill:#ff40bf"/><path id="patch_406" d="M504.71 167.846a3.992 3.992 0 1 0 0-7.984 3.992 3.992 0 0 0 0 7.984z" clip-path="url(#pe92141345e)" style="fill:#ff807f"/><path id="patch_407" d="M511.195 169.444a2.994 2.994 0 1 0 0-5.988 2.994 2.994 0 0 0 0 5.988z" clip-path="url(#pe92141345e)" style="fill:#ff0"/><path id="patch_408" d="M437.373 158.138a11.976 11.976 0 1 0 0-23.951 11.976 11.976 0 0 0 0 23.95z" clip-path="url(#pe92141345e)" style="fill:#f0f"/><path id="patch_409" d="M365.62 86.794a8.982 8.982 0 1 0 0-17.963 8.982 8.982 0 0 0 0 17.963z" clip-path="url(#pe92141345e)" style="fill:#ffc03f"/><path id="patch_410" d="M242.787 154.918a5.988 5.988 0 1 0 0-11.976 5.988 5.988 0 0 0 0 11.976z" clip-path="url(#pe92141345e)" style="fill:#ff40bf"/><path id="patch_411" d="M456.684 105.195a3.992 3.992 0 1 0 0-7.984 3.992 3.992 0 0 0 0 7.984z" clip-path="url(#pe92141345e)" style="fill:#ff807f"/><path id="patch_412" d="M433.635 163.651a2.994 2.994 0 1 0 0-5.988 2.994 2.994 0 0 0 0 5.988z" clip-path="url(#pe92141345e)" style="fill:#ff0"/><path id="patch_413" d="M164.828 135.677a11.976 11.976 0 1 0 0-23.951 11.976 11.976 0 0 0 0 23.95z" clip-path="url(#pe92141345e)" style="fill:#f0f"/><path id="patch_414" d="M452.192 122.355a8.982 8.982 0 1 0 0-17.964 8.982 8.982 0 0 0 0 17.964z" clip-path="url(#pe92141345e)" style="fill:#ffc03f"/><path id="patch_415" d="M437.252 118.433a5.988 5.988 0 1 0 0-11.976 5.988 5.988 0 0 0 0 11.976z" clip-path="url(#pe92141345e)" style="fill:#ff40bf"/><path id="patch_416" d="M311.95 141.109a3.992 3.992 0 1 0 0-7.984 3.992 3.992 0 0 0 0 7.984z" clip-path="url(#pe92141345e)" style="fill:#ff807f"/><path id="patch_417" d="M497.765 166.094a2.994 2.994 0 1 0 0-5.988 2.994 2.994 0 0 0 0 5.988z" clip-path="url(#pe92141345e)" style="fill:#ff0"/><path id="patch_418" d="M170.539 172.728a11.976 11.976 0 1 0 0-23.951 11.976 11.976 0 0 0 0 23.951z" clip-path="url(#pe92141345e)" style="fill:#f0f"/><path id="patch_419" d="M453.453 141.705a8.982 8.982 0 1 0 0-17.963 8.982 8.982 0 0 0 0 17.963z" clip-path="url(#pe92141345e)" style="fill:#ffc03f"/><path id="patch_420" d="M439.156 134.276a5.988 5.988 0 1 0 0-11.975 5.988 5.988 0 0 0 0 11.975z" clip-path="url(#pe92141345e)" style="fill:#ff40bf"/><path id="patch_421" d="M492.772 122.373a3.992 3.992 0 1 0 0-7.984 3.992 3.992 0 0 0 0 7.984z" clip-path="url(#pe92141345e)" style="fill:#ff807f"/><path id="patch_422" d="M499.733 171.75a2.994 2.994 0 1 0 0-5.989 2.994 2.994 0 0 0 0 5.988z" clip-path="url(#pe92141345e)" style="fill:#ff0"/><path id="patch_423" d="M353.435 106.838a11.976 11.976 0 1 0 0-23.951 11.976 11.976 0 0 0 0 23.95z" clip-path="url(#pe92141345e)" style="fill:#f0f"/><path id="patch_424" d="M347.94 83.621a8.982 8.982 0 1 0-.001-17.963 8.982 8.982 0 0 0 0 17.963z" clip-path="url(#pe92141345e)" style="fill:#ffc03f"/><path id="patch_425" d="M410.612 124.343a5.988 5.988 0 1 0 0-11.976 5.988 5.988 0 0 0 0 11.976z" clip-path="url(#pe92141345e)" style="fill:#ff40bf"/><path id="patch_426" d="M232.373 74.823a3.992 3.992 0 1 0 0-7.984 3.992 3.992 0 0 0 0 7.984z" clip-path="url(#pe92141345e)" style="fill:#ff807f"/><path id="patch_427" d="M307.768 145.706a2.994 2.994 0 1 0 0-5.988 2.994 2.994 0 0 0 0 5.988z" clip-path="url(#pe92141345e)" style="fill:#ff0"/><path id="patch_428" d="M199.49 120.02a11.976 11.976 0 1 0-.001-23.952 11.976 11.976 0 0 0 0 23.952z" clip-path="url(#pe92141345e)" style="fill:#f0f"/><path id="patch_429" d="M334.297 95.306a8.982 8.982 0 1 0 0-17.964 8.982 8.982 0 0 0 0 17.964z" clip-path="url(#pe92141345e)" style="fill:#ffc03f"/><path id="patch_430" d="M185.33 125.086a5.988 5.988 0 1 0 0-11.975 5.988 5.988 0 0 0 0 11.975z" clip-path="url(#pe92141345e)" style="fill:#ff40bf"/><path id="patch_431" d="M184.003 173.326a3.992 3.992 0 1 0 0-7.984 3.992 3.992 0 0 0 0 7.984z" clip-path="url(#pe92141345e)" style="fill:#ff807f"/><path id="patch_432" d="M464.216 140.966a2.994 2.994 0 1 0 0-5.987 2.994 2.994 0 0 0 0 5.987z" clip-path="url(#pe92141345e)" style="fill:#ff0"/><path id="patch_433" d="M222.162 151.515a11.976 11.976 0 1 0 0-23.95 11.976 11.976 0 0 0 0 23.95z" clip-path="url(#pe92141345e)" style="fill:#f0f"/><path id="patch_434" d="M334.715 113.263a8.982 8.982 0 1 0 0-17.963 8.982 8.982 0 0 0 0 17.963z" clip-path="url(#pe92141345e)" style="fill:#ffc03f"/><path id="patch_435" d="M205.12 151.202a5.988 5.988 0 1 0 0-11.976 5.988 5.988 0 0 0 0 11.976z" clip-path="url(#pe92141345e)" style="fill:#ff40bf"/><path id="patch_436" d="M134.552 175.032a3.992 3.992 0 1 0 0-7.984 3.992 3.992 0 0 0 0 7.984z" clip-path="url(#pe92141345e)" style="fill:#ff807f"/><path id="patch_437" d="M322.216 84.96a2.994 2.994 0 1 0 0-5.988 2.994 2.994 0 0 0 0 5.988z" clip-path="url(#pe92141345e)" style="fill:#ff0"/><path id="patch_438" d="M350.044 130.547a11.976 11.976 0 1 0 0-23.952 11.976 11.976 0 0 0 0 23.952z" clip-path="url(#pe92141345e)" style="fill:#f0f"/><path id="patch_439" d="M203.327 139.334a8.982 8.982 0 1 0 0-17.963 8.982 8.982 0 0 0 0 17.963z" clip-path="url(#pe92141345e)" style="fill:#ffc03f"/><path id="patch_440" d="M364.993 114.6a5.988 5.988 0 1 0 0-11.975 5.988 5.988 0 0 0 0 11.975z" clip-path="url(#pe92141345e)" style="fill:#ff40bf"/><path id="patch_441" d="M522.814 145.026a3.992 3.992 0 1 0 0-7.983 3.992 3.992 0 0 0 0 7.983z" clip-path="url(#pe92141345e)" style="fill:#ff807f"/><path id="patch_442" d="M131.616 167.696a2.994 2.994 0 1 0 0-5.988 2.994 2.994 0 0 0 0 5.988z" clip-path="url(#pe92141345e)" style="fill:#ff0"/><path id="patch_443" d="M373.23 136.55a11.976 11.976 0 1 0-.001-23.95 11.976 11.976 0 0 0 0 23.95z" clip-path="url(#pe92141345e)" style="fill:#f0f"/><path id="patch_444" d="M217.361 128.123a8.982 8.982 0 1 0 0-17.964 8.982 8.982 0 0 0 0 17.964z" clip-path="url(#pe92141345e)" style="fill:#ffc03f"/><path id="patch_445" d="M231.46 130.159a5.988 5.988 0 1 0 0-11.976 5.988 5.988 0 0 0 0 11.976z" clip-path="url(#pe92141345e)" style="fill:#ff40bf"/><path id="patch_446" d="M500.432 92.441a3.992 3.992 0 1 0 0-7.984 3.992 3.992 0 0 0 0 7.984z" clip-path="url(#pe92141345e)" style="fill:#ff807f"/><path id="patch_447" d="M235.267 135.3a2.994 2.994 0 1 0 0-5.988 2.994 2.994 0 0 0 0 5.987z" clip-path="url(#pe92141345e)" style="fill:#ff0"/><path id="patch_448" d="M356.437 153.628a11.976 11.976 0 1 0 0-23.952 11.976 11.976 0 0 0 0 23.952z" clip-path="url(#pe92141345e)" style="fill:#f0f"/><path id="patch_449" d="M336.666 143.684a8.982 8.982 0 1 0 0-17.964 8.982 8.982 0 0 0 0 17.964z" clip-path="url(#pe92141345e)" style="fill:#ffc03f"/><path id="patch_450" d="M340.163 155.245a5.988 5.988 0 1 0 0-11.976 5.988 5.988 0 0 0 0 11.976z" clip-path="url(#pe92141345e)" style="fill:#ff40bf"/><path id="patch_451" d="M261.405 168.848a3.992 3.992 0 1 0 0-7.984 3.992 3.992 0 0 0 0 7.984z" clip-path="url(#pe92141345e)" style="fill:#ff807f"/><path id="patch_452" d="M331.918 148.69a2.994 2.994 0 1 0 0-5.988 2.994 2.994 0 0 0 0 5.988z" clip-path="url(#pe92141345e)" style="fill:#ff0"/><path id="patch_453" d="M397.208 133.999a8.982 8.982 0 1 0 0-17.964 8.982 8.982 0 0 0 0 17.964z" clip-path="url(#pe92141345e)" style="fill:#ffc03f"/><path id="patch_454" d="M348.56 163.783a5.988 5.988 0 1 0 0-11.975 5.988 5.988 0 0 0 0 11.975z" clip-path="url(#pe92141345e)" style="fill:#ff40bf"/><path id="patch_455" d="M263.588 111.271a3.992 3.992 0 1 0 0-7.983 3.992 3.992 0 0 0 0 7.983z" clip-path="url(#pe92141345e)" style="fill:#ff807f"/><path id="patch_456" d="M238.197 144.204a2.994 2.994 0 1 0 0-5.988 2.994 2.994 0 0 0 0 5.988z" clip-path="url(#pe92141345e)" style="fill:#ff0"/><path id="patch_457" d="M415.228 147.69a11.976 11.976 0 1 0 0-23.951 11.976 11.976 0 0 0 0 23.951z" clip-path="url(#pe92141345e)" style="fill:#f0f"/><path id="patch_458" d="M190.35 151.755a8.982 8.982 0 1 0 0-17.964 8.982 8.982 0 0 0 0 17.964z" clip-path="url(#pe92141345e)" style="fill:#ffc03f"/><path id="patch_459" d="M255.918 119.652a5.988 5.988 0 1 0 0-11.976 5.988 5.988 0 0 0 0 11.976z" clip-path="url(#pe92141345e)" style="fill:#ff40bf"/><path id="patch_460" d="M479.726 150.765a3.992 3.992 0 1 0 0-7.984 3.992 3.992 0 0 0 0 7.984z" clip-path="url(#pe92141345e)" style="fill:#ff807f"/><path id="patch_461" d="M321.802 110.889a2.994 2.994 0 1 0 0-5.988 2.994 2.994 0 0 0 0 5.988z" clip-path="url(#pe92141345e)" style="fill:#ff0"/><path id="patch_462" d="M266.237 129.1a3.992 3.992 0 1 0 0-7.984 3.992 3.992 0 0 0 0 7.984z" clip-path="url(#pe92141345e)" style="fill:#ff807f"/><path id="patch_463" d="M321.623 104.904a2.994 2.994 0 1 0 0-5.988 2.994 2.994 0 0 0 0 5.988z" clip-path="url(#pe92141345e)" style="fill:#ff0"/><path id="patch_464" d="M244.217 163.372a3.992 3.992 0 1 0 0-7.984 3.992 3.992 0 0 0 0 7.984z" clip-path="url(#pe92141345e)" style="fill:#ff807f"/><path id="patch_465" d="M193.86 124.908a2.994 2.994 0 1 0-.001-5.988 2.994 2.994 0 0 0 0 5.988z" clip-path="url(#pe92141345e)" style="fill:#ff0"/><path id="patch_466" d="M225 77.882a3.992 3.992 0 1 0 0-7.984 3.992 3.992 0 0 0 0 7.984z" clip-path="url(#pe92141345e)" style="fill:#ff807f"/><path id="patch_467" d="M400.285 139.584a2.994 2.994 0 1 0 0-5.988 2.994 2.994 0 0 0 0 5.988z" clip-path="url(#pe92141345e)" style="fill:#ff0"/><path id="patch_468" d="M229.436 118.39a3.992 3.992 0 1 0 0-7.983 3.992 3.992 0 0 0 0 7.984z" clip-path="url(#pe92141345e)" style="fill:#ff807f"/><path id="patch_469" d="M431.23 135.506a2.994 2.994 0 1 0 0-5.987 2.994 2.994 0 0 0 0 5.987z" clip-path="url(#pe92141345e)" style="fill:#ff0"/><path id="patch_470" d="M384.487 113.447a3.992 3.992 0 1 0 0-7.984 3.992 3.992 0 0 0 0 7.984z" clip-path="url(#pe92141345e)" style="fill:#ff807f"/><path id="patch_471" d="M318.931 140.368a2.994 2.994 0 1 0 0-5.988 2.994 2.994 0 0 0 0 5.988z" clip-path="url(#pe92141345e)" style="fill:#ff0"/><path id="patch_472" d="M325.147 99.513a3.992 3.992 0 1 0 0-7.984 3.992 3.992 0 0 0 0 7.984z" clip-path="url(#pe92141345e)" style="fill:#ff807f"/><path id="patch_473" d="M264.604 121.31a2.994 2.994 0 1 0 0-5.988 2.994 2.994 0 0 0 0 5.988z" clip-path="url(#pe92141345e)" style="fill:#ff0"/><path id="patch_474" d="M190.153 131.827a3.992 3.992 0 1 0 0-7.984 3.992 3.992 0 0 0 0 7.984z" clip-path="url(#pe92141345e)" style="fill:#ff807f"/><path id="patch_475" d="M401.956 147.818a2.994 2.994 0 1 0 0-5.988 2.994 2.994 0 0 0 0 5.988z" clip-path="url(#pe92141345e)" style="fill:#ff0"/><path id="patch_476" d="M429.507 129.735a3.992 3.992 0 1 0 0-7.984 3.992 3.992 0 0 0 0 7.984z" clip-path="url(#pe92141345e)" style="fill:#ff807f"/><path id="patch_477" d="M324.732 138.884a2.994 2.994 0 1 0 0-5.988 2.994 2.994 0 0 0 0 5.988z" clip-path="url(#pe92141345e)" style="fill:#ff0"/><path id="patch_478" d="M224.373 112.218a3.992 3.992 0 1 0 0-7.983 3.992 3.992 0 0 0 0 7.983z" clip-path="url(#pe92141345e)" style="fill:#ff807f"/><path id="patch_479" d="M388.993 117.787a2.994 2.994 0 1 0 0-5.988 2.994 2.994 0 0 0 0 5.988z" clip-path="url(#pe92141345e)" style="fill:#ff0"/><path id="patch_480" d="M289.832 107.977a3.992 3.992 0 1 0 0-7.983 3.992 3.992 0 0 0 0 7.983z" clip-path="url(#pe92141345e)" style="fill:#ff807f"/><path id="patch_481" d="M248.929 111.018a2.994 2.994 0 1 0 0-5.988 2.994 2.994 0 0 0 0 5.988z" clip-path="url(#pe92141345e)" style="fill:#ff0"/><path id="patch_482" d="M244.1 121.584a5.988 5.988 0 1 0 0-11.976 5.988 5.988 0 0 0 0 11.976z" clip-path="url(#pe92141345e)" style="fill:#ff40bf"/><path id="patch_483" d="M326.024 80.102a3.992 3.992 0 1 0 0-7.984 3.992 3.992 0 0 0 0 7.984z" clip-path="url(#pe92141345e)" style="fill:#ff807f"/><path id="patch_484" d="M377.534 113.118a2.994 2.994 0 1 0 0-5.988 2.994 2.994 0 0 0 0 5.988z" clip-path="url(#pe92141345e)" style="fill:#ff0"/><path id="patch_485" d="M182.204 132.567a3.992 3.992 0 1 0 0-7.984 3.992 3.992 0 0 0 0 7.984z" clip-path="url(#pe92141345e)" style="fill:#ff807f"/><path id="patch_486" d="M335.257 119.239a2.994 2.994 0 1 0 0-5.988 2.994 2.994 0 0 0 0 5.988z" clip-path="url(#pe92141345e)" style="fill:#ff0"/><path id="patch_487" d="M419.576 121.918a2.994 2.994 0 1 0 0-5.988 2.994 2.994 0 0 0 0 5.988z" clip-path="url(#pe92141345e)" style="fill:#ff0"/><path id="patch_488" d="M216.655 110.18a3.992 3.992 0 1 0 0-7.984 3.992 3.992 0 0 0 0 7.983z" clip-path="url(#pe92141345e)" style="fill:#ff807f"/><path id="patch_489" d="M335.528 125.22a2.994 2.994 0 1 0 0-5.988 2.994 2.994 0 0 0 0 5.988z" clip-path="url(#pe92141345e)" style="fill:#ff0"/><path id="patch_490" d="M372.363 144.51a3.992 3.992 0 1 0 0-7.983 3.992 3.992 0 0 0 0 7.984z" clip-path="url(#pe92141345e)" style="fill:#ff807f"/><path id="patch_491" d="M425.456 120.791a2.994 2.994 0 1 0 0-5.988 2.994 2.994 0 0 0 0 5.988z" clip-path="url(#pe92141345e)" style="fill:#ff0"/><path id="patch_492" d="M370.921 152.363a3.992 3.992 0 1 0 0-7.984 3.992 3.992 0 0 0 0 7.984z" clip-path="url(#pe92141345e)" style="fill:#ff807f"/><g id="matplotlib.axis_1"><g id="xtick_1"><g id="line2d_1"><defs><path id="m827f22c998" d="M0 0v3.5" style="stroke:#000;stroke-width:.8"/></defs><use xlink:href="#m827f22c998" x="82.62" y="230.688" style="stroke:#000;stroke-width:.8"/></g><g id="text_1" transform="matrix(.1 0 0 -.1 79.439 245.286)"><defs><path id="DejaVuSans-30" d="M2034 4250q-487 0-733-480-245-479-245-1442 0-959 245-1439 246-480 733-480 491 0 736 480 246 480 246 1439 0 963-246 1442-245 480-736 480zm0 500q785 0 1199-621 414-620 414-1801 0-1178-414-1799Q2819-91 2034-91q-784 0-1198 620-414 621-414 1799 0 1181 414 1801 414 621 1198 621z" transform="scale(.01563)"/></defs><use xlink:href="#DejaVuSans-30"/></g></g><g id="xtick_2"><use xlink:href="#m827f22c998" id="line2d_2" x="182.412" y="230.688" style="stroke:#000;stroke-width:.8"/><g id="text_2" transform="matrix(.1 0 0 -.1 172.868 245.286)"><defs><path id="DejaVuSans-31" d="M794 531h1031v3560L703 3866v575l1116 225h631V531h1031V0H794v531z" transform="scale(.01563)"/></defs><use xlink:href="#DejaVuSans-31"/><use xlink:href="#DejaVuSans-30" x="63.623"/><use xlink:href="#DejaVuSans-30" x="127.246"/></g></g><g id="xtick_3"><use xlink:href="#m827f22c998" id="line2d_3" x="282.204" y="230.688" style="stroke:#000;stroke-width:.8"/><g id="text_3" transform="matrix(.1 0 0 -.1 272.66 245.286)"><defs><path id="DejaVuSans-32" d="M1228 531h2203V0H469v531q359 372 979 998 621 627 780 809 303 340 423 576 121 236 121 464 0 372-261 606-261 235-680 235-297 0-627-103-329-103-704-313v638q381 153 712 231 332 78 607 78 725 0 1156-363 431-362 431-968 0-288-108-546-107-257-392-607-78-91-497-524-418-433-1181-1211z" transform="scale(.01563)"/></defs><use xlink:href="#DejaVuSans-32"/><use xlink:href="#DejaVuSans-30" x="63.623"/><use xlink:href="#DejaVuSans-30" x="127.246"/></g></g><g id="xtick_4"><use xlink:href="#m827f22c998" id="line2d_4" x="381.996" y="230.688" style="stroke:#000;stroke-width:.8"/><g id="text_4" transform="matrix(.1 0 0 -.1 372.452 245.286)"><defs><path id="DejaVuSans-33" d="M2597 2516q453-97 707-404 255-306 255-756 0-690-475-1069Q2609-91 1734-91q-293 0-604 58T488 141v609q262-153 574-231 313-78 654-78 593 0 904 234t311 681q0 413-289 645-289 233-804 233h-544v519h569q465 0 712 186t247 536q0 359-255 551-254 193-729 193-260 0-557-57-297-56-653-174v562q360 100 674 150t592 50q719 0 1137-327 419-326 419-882 0-388-222-655t-631-370z" transform="scale(.01563)"/></defs><use xlink:href="#DejaVuSans-33"/><use xlink:href="#DejaVuSans-30" x="63.623"/><use xlink:href="#DejaVuSans-30" x="127.246"/></g></g><g id="xtick_5"><use xlink:href="#m827f22c998" id="line2d_5" x="481.788" y="230.688" style="stroke:#000;stroke-width:.8"/><g id="text_5" transform="matrix(.1 0 0 -.1 472.244 245.286)"><defs><path id="DejaVuSans-34" d="M2419 4116 825 1625h1594v2491zm-166 550h794V1625h666v-525h-666V0h-628v1100H313v609l1940 2957z" transform="scale(.01563)"/></defs><use xlink:href="#DejaVuSans-34"/><use xlink:href="#DejaVuSans-30" x="63.623"/><use xlink:href="#DejaVuSans-30" x="127.246"/></g></g><g id="xtick_6"><use xlink:href="#m827f22c998" id="line2d_6" x="581.58" y="230.688" style="stroke:#000;stroke-width:.8"/><g id="text_6" transform="matrix(.1 0 0 -.1 572.036 245.286)"><defs><path id="DejaVuSans-35" d="M691 4666h2478v-532H1269V2991q137 47 274 70 138 23 276 23 781 0 1237-428 457-428 457-1159 0-753-469-1171Q2575-91 1722-91q-294 0-599 50Q819 9 494 109v635q281-153 581-228t634-75q541 0 856 284 316 284 316 772 0 487-316 771-315 285-856 285-253 0-505-56-251-56-513-175v2344z" transform="scale(.01563)"/></defs><use xlink:href="#DejaVuSans-35"/><use xlink:href="#DejaVuSans-30" x="63.623"/><use xlink:href="#DejaVuSans-30" x="127.246"/></g></g></g><g id="matplotlib.axis_2"><g id="ytick_1"><g id="line2d_7"><defs><path id="m2e6fd536b6" d="M0 0h-3.5" style="stroke:#000;stroke-width:.8"/></defs><use xlink:href="#m2e6fd536b6" x="82.62" y="230.688" style="stroke:#000;stroke-width:.8"/></g><use xlink:href="#DejaVuSans-30" id="text_7" transform="matrix(.1 0 0 -.1 69.257 234.487)"/></g><g id="ytick_2"><use xlink:href="#m2e6fd536b6" id="line2d_8" x="82.62" y="205.74" style="stroke:#000;stroke-width:.8"/><g id="text_8" transform="matrix(.1 0 0 -.1 62.895 209.54)"><use xlink:href="#DejaVuSans-32"/><use xlink:href="#DejaVuSans-35" x="63.623"/></g></g><g id="ytick_3"><use xlink:href="#m2e6fd536b6" id="line2d_9" x="82.62" y="180.792" style="stroke:#000;stroke-width:.8"/><g id="text_9" transform="matrix(.1 0 0 -.1 62.895 184.591)"><use xlink:href="#DejaVuSans-35"/><use xlink:href="#DejaVuSans-30" x="63.623"/></g></g><g id="ytick_4"><use xlink:href="#m2e6fd536b6" id="line2d_10" x="82.62" y="155.844" style="stroke:#000;stroke-width:.8"/><g id="text_10" transform="matrix(.1 0 0 -.1 62.895 159.643)"><defs><path id="DejaVuSans-37" d="M525 4666h3000v-269L1831 0h-659l1594 4134H525v532z" transform="scale(.01563)"/></defs><use xlink:href="#DejaVuSans-37"/><use xlink:href="#DejaVuSans-35" x="63.623"/></g></g><g id="ytick_5"><use xlink:href="#m2e6fd536b6" id="line2d_11" x="82.62" y="130.896" style="stroke:#000;stroke-width:.8"/><g id="text_11" transform="matrix(.1 0 0 -.1 56.532 134.695)"><use xlink:href="#DejaVuSans-31"/><use xlink:href="#DejaVuSans-30" x="63.623"/><use xlink:href="#DejaVuSans-30" x="127.246"/></g></g><g id="ytick_6"><use xlink:href="#m2e6fd536b6" id="line2d_12" x="82.62" y="105.948" style="stroke:#000;stroke-width:.8"/><g id="text_12" transform="matrix(.1 0 0 -.1 56.532 109.747)"><use xlink:href="#DejaVuSans-31"/><use xlink:href="#DejaVuSans-32" x="63.623"/><use xlink:href="#DejaVuSans-35" x="127.246"/></g></g><g id="ytick_7"><use xlink:href="#m2e6fd536b6" id="line2d_13" x="82.62" y="81" style="stroke:#000;stroke-width:.8"/><g id="text_13" transform="matrix(.1 0 0 -.1 56.532 84.8)"><use xlink:href="#DejaVuSans-31"/><use xlink:href="#DejaVuSans-35" x="63.623"/><use xlink:href="#DejaVuSans-30" x="127.246"/></g></g><g id="ytick_8"><use xlink:href="#m2e6fd536b6" id="line2d_14" x="82.62" y="56.052" style="stroke:#000;stroke-width:.8"/><g id="text_14" transform="matrix(.1 0 0 -.1 56.532 59.851)"><use xlink:href="#DejaVuSans-31"/><use xlink:href="#DejaVuSans-37" x="63.623"/><use xlink:href="#DejaVuSans-35" x="127.246"/></g></g><g id="ytick_9"><use xlink:href="#m2e6fd536b6" id="line2d_15" x="82.62" y="31.104" style="stroke:#000;stroke-width:.8"/><g id="text_15" transform="matrix(.1 0 0 -.1 56.532 34.903)"><use xlink:href="#DejaVuSans-32"/><use xlink:href="#DejaVuSans-30" x="63.623"/><use xlink:href="#DejaVuSans-30" x="127.246"/></g></g></g><path id="patch_493" d="M82.62 230.688V31.104" style="fill:none;stroke:#000;stroke-width:.8;stroke-linejoin:miter;stroke-linecap:square"/><path id="patch_494" d="M581.58 230.688V31.104" style="fill:none;stroke:#000;stroke-width:.8;stroke-linejoin:miter;stroke-linecap:square"/><path id="patch_495" d="M82.62 230.688h498.96" style="fill:none;stroke:#000;stroke-width:.8;stroke-linejoin:miter;stroke-linecap:square"/><path id="patch_496" d="M82.62 31.104h498.96" style="fill:none;stroke:#000;stroke-width:.8;stroke-linejoin:miter;stroke-linecap:square"/><g id="text_16" transform="matrix(.12 0 0 -.12 148.705 25.104)"><defs><path id="DejaVuSans-53" d="M3425 4513v-616q-359 172-678 256-319 85-616 85-515 0-795-200t-280-569q0-310 186-468 186-157 705-254l381-78q706-135 1042-474t336-907q0-679-455-1029Q2797-91 1919-91q-331 0-705 75-373 75-773 222v650q384-215 753-325 369-109 725-109 540 0 834 212 294 213 294 607 0 343-211 537t-692 291l-385 75q-706 140-1022 440-315 300-315 835 0 619 436 975t1201 356q329 0 669-60 341-59 697-177z" transform="scale(.01563)"/><path id="DejaVuSans-68" d="M3513 2113V0h-575v2094q0 497-194 743-194 247-581 247-466 0-735-297-269-296-269-809V0H581v4863h578V2956q207 316 486 472 280 156 646 156 603 0 912-373 310-373 310-1098z" transform="scale(.01563)"/><path id="DejaVuSans-65" d="M3597 1894v-281H953q38-594 358-905t892-311q331 0 642 81t618 244V178Q3153 47 2828-22t-659-69q-838 0-1327 487-489 488-489 1320 0 859 464 1363 464 505 1252 505 706 0 1117-455 411-454 411-1235zm-575 169q-6 471-264 752-258 282-683 282-481 0-770-272t-333-766l2050 4z" transform="scale(.01563)"/><path id="DejaVuSans-72" d="M2631 2963q-97 56-211 82-114 27-251 27-488 0-749-317t-261-911V0H581v3500h578v-544q182 319 472 473 291 155 707 155 59 0 131-8 72-7 159-23l3-590z" transform="scale(.01563)"/><path id="DejaVuSans-77" d="M269 3500h575l719-2731 715 2731h678l719-2731 716 2731h575L4050 0h-678l-753 2869L1863 0h-679L269 3500z" transform="scale(.01563)"/><path id="DejaVuSans-6f" d="M1959 3097q-462 0-731-361t-269-989q0-628 267-989 268-361 733-361 460 0 728 362 269 363 269 988 0 622-269 986-268 364-728 364zm0 487q750 0 1178-488 429-487 429-1349 0-859-429-1349Q2709-91 1959-91q-753 0-1180 489-426 490-426 1349 0 862 426 1349 427 488 1180 488z" transform="scale(.01563)"/><path id="DejaVuSans-64" d="M2906 2969v1894h575V0h-575v525q-181-312-458-464-276-152-664-152-634 0-1033 506-398 507-398 1332t398 1331q399 506 1033 506 388 0 664-152 277-151 458-463zM947 1747q0-634 261-995t717-361q456 0 718 361 263 361 263 995t-263 995q-262 361-718 361t-717-361q-261-361-261-995z" transform="scale(.01563)"/><path id="DejaVuSans-46" d="M628 4666h2681v-532H1259V2759h1850v-531H1259V0H628v4666z" transform="scale(.01563)"/><path id="DejaVuSans-73" d="M2834 3397v-544q-243 125-506 187-262 63-544 63-428 0-642-131t-214-394q0-200 153-314t616-217l197-44q612-131 870-370t258-667q0-488-386-773Q2250-91 1575-91q-281 0-586 55T347 128v594q319-166 628-249 309-82 613-82 406 0 624 139 219 139 219 392 0 234-158 359-157 125-692 241l-200 47q-534 112-772 345-237 233-237 639 0 494 350 762 350 269 994 269 318 0 599-47 282-46 519-140z" transform="scale(.01563)"/><path id="DejaVuSans-74" d="M1172 4494v-994h1184v-447H1172V1153q0-428 117-550t477-122h590V0h-590q-666 0-919 248-253 249-253 905v1900H172v447h422v994h578z" transform="scale(.01563)"/><path id="DejaVuSans-2c" d="M750 794h659V256L897-744H494L750 256v538z" transform="scale(.01563)"/><path id="DejaVuSans-62" d="M3116 1747q0 634-261 995t-717 361q-457 0-718-361t-261-995q0-634 261-995t718-361q456 0 717 361t261 995zM1159 2969q182 312 458 463 277 152 661 152 638 0 1036-506 399-506 399-1331T3314 415Q2916-91 2278-91q-384 0-661 152-276 152-458 464V0H581v4863h578V2969z" transform="scale(.01563)"/><path id="DejaVuSans-3d" d="M678 2906h4006v-525H678v525zm0-1275h4006v-531H678v531z" transform="scale(.01563)"/><path id="DejaVuSans-2e" d="M684 794h660V0H684v794z" transform="scale(.01563)"/><path id="DejaVuSans-36" d="M2113 2584q-425 0-674-291-248-290-248-796 0-503 248-796 249-292 674-292t673 292q248 293 248 796 0 506-248 796-248 291-673 291zm1253 1979v-575q-238 112-480 171-242 60-480 60-625 0-955-422-329-422-376-1275 184 272 462 417 279 145 613 145 703 0 1111-427 408-426 408-1160 0-719-425-1154Q2819-91 2113-91q-810 0-1238 620-428 621-428 1799 0 1106 525 1764t1409 658q238 0 480-47t505-140z" transform="scale(.01563)"/><path id="DejaVuSans-61" d="M2194 1759q-697 0-966-159t-269-544q0-306 202-486 202-179 548-179 479 0 768 339t289 901v128h-572zm1147 238V0h-575v531q-197-318-491-470T1556-91q-537 0-855 302-317 302-317 808 0 590 395 890 396 300 1180 300h807v57q0 397-261 614t-733 217q-300 0-585-72-284-72-546-216v532q315 122 612 182 297 61 578 61 760 0 1135-394 375-393 375-1193z" transform="scale(.01563)"/><path id="DejaVuSans-38" d="M2034 2216q-450 0-708-241-257-241-257-662 0-422 257-663 258-241 708-241t709 242q260 243 260 662 0 421-258 662-257 241-711 241zm-631 268q-406 100-633 378-226 279-226 679 0 559 398 884 399 325 1092 325 697 0 1094-325t397-884q0-400-227-679-226-278-629-378 456-106 710-416 255-309 255-755 0-679-414-1042Q2806-91 2034-91q-771 0-1186 362-414 363-414 1042 0 446 256 755 257 310 713 416zm-231 997q0-362 226-565 227-203 636-203 407 0 636 203 230 203 230 565 0 363-230 566-229 203-636 203-409 0-636-203-226-203-226-566z" transform="scale(.01563)"/><path id="DejaVuSans-39" d="M703 97v575q238-113 481-172 244-59 479-59 625 0 954 420 330 420 377 1277-181-269-460-413-278-144-615-144-700 0-1108 423-408 424-408 1159 0 718 425 1152 425 435 1131 435 810 0 1236-621 427-620 427-1801 0-1103-524-1761Q2575-91 1691-91q-238 0-482 47Q966 3 703 97zm1256 1978q425 0 673 290 249 291 249 798 0 503-249 795-248 292-673 292t-673-292q-248-292-248-795 0-507 248-798 248-290 673-290z" transform="scale(.01563)"/></defs><use xlink:href="#DejaVuSans-53"/><use xlink:href="#DejaVuSans-68" x="63.477"/><use xlink:href="#DejaVuSans-65" x="126.855"/><use xlink:href="#DejaVuSans-72" x="188.379"/><use xlink:href="#DejaVuSans-77" x="229.492"/><use xlink:href="#DejaVuSans-6f" x="311.279"/><use xlink:href="#DejaVuSans-6f" x="372.461"/><use xlink:href="#DejaVuSans-64" x="433.643"/><use xlink:href="#DejaVuSans-46" x="497.119"/><use xlink:href="#DejaVuSans-6f" x="551.014"/><use xlink:href="#DejaVuSans-72" x="612.195"/><use xlink:href="#DejaVuSans-65" x="651.059"/><use xlink:href="#DejaVuSans-73" x="712.582"/><use xlink:href="#DejaVuSans-74" x="764.682"/><use xlink:href="#DejaVuSans-2c" x="803.891"/><use xlink:href="#DejaVuSans-20" x="835.678"/><use xlink:href="#DejaVuSans-62" x="867.465"/><use xlink:href="#DejaVuSans-3d" x="930.941"/><use xlink:href="#DejaVuSans-30" x="1014.73"/><use xlink:href="#DejaVuSans-2e" x="1078.354"/><use xlink:href="#DejaVuSans-36" x="1110.141"/><use xlink:href="#DejaVuSans-36" x="1173.764"/><use xlink:href="#DejaVuSans-37" x="1237.387"/><use xlink:href="#DejaVuSans-30" x="1301.01"/><use xlink:href="#DejaVuSans-35" x="1364.633"/><use xlink:href="#DejaVuSans-37" x="1428.256"/><use xlink:href="#DejaVuSans-32" x="1491.879"/><use xlink:href="#DejaVuSans-2c" x="1555.502"/><use xlink:href="#DejaVuSans-20" x="1587.289"/><use xlink:href="#DejaVuSans-61" x="1619.076"/><use xlink:href="#DejaVuSans-3d" x="1680.355"/><use xlink:href="#DejaVuSans-30" x="1764.145"/><use xlink:href="#DejaVuSans-2e" x="1827.768"/><use xlink:href="#DejaVuSans-38" x="1859.555"/><use xlink:href="#DejaVuSans-33" x="1923.178"/><use xlink:href="#DejaVuSans-35" x="1986.801"/><use xlink:href="#DejaVuSans-30" x="2050.424"/><use xlink:href="#DejaVuSans-30" x="2114.047"/><use xlink:href="#DejaVuSans-33" x="2177.67"/><use xlink:href="#DejaVuSans-39" x="2241.293"/><use xlink:href="#DejaVuSans-2c" x="2304.916"/><use xlink:href="#DejaVuSans-20" x="2336.703"/><use xlink:href="#DejaVuSans-64" x="2368.49"/><use xlink:href="#DejaVuSans-3d" x="2431.967"/><use xlink:href="#DejaVuSans-30" x="2515.756"/><use xlink:href="#DejaVuSans-2e" x="2579.379"/><use xlink:href="#DejaVuSans-37" x="2611.166"/><use xlink:href="#DejaVuSans-39" x="2674.789"/><use xlink:href="#DejaVuSans-38" x="2738.412"/><use xlink:href="#DejaVuSans-38" x="2802.035"/><use xlink:href="#DejaVuSans-36" x="2865.658"/><use xlink:href="#DejaVuSans-37" x="2929.281"/><use xlink:href="#DejaVuSans-31" x="2992.904"/></g></g></g><defs><clipPath id="pe92141345e"><path d="M82.62 31.104h498.96v199.584H82.62z"/></clipPath></defs></svg>