<?xml version="1.0" encoding="UTF-8" standalone="no"?>
<!-- Creator: Corel DESIGNER -->

<svg
   xml:space="preserve"
   width="750"
   height="750"
   style="clip-rule:evenodd;fill-rule:evenodd;image-rendering:optimizeQuality;shape-rendering:geometricPrecision;text-rendering:geometricPrecision"
   viewBox="0 0 7.3395628 7.3395664"
   version="1.1"
   id="svg6"
   sodipodi:docname="Pi-CM.svg"
   inkscape:version="1.2.2 (b0a8486541, 2022-12-01)"
   inkscape:export-filename="Pipng"
   inkscape:export-xdpi="96"
   inkscape:export-ydpi="96"
   xmlns:inkscape="http://www.inkscape.org/namespaces/inkscape"
   xmlns:sodipodi="http://sodipodi.sourceforge.net/DTD/sodipodi-0.dtd"
   xmlns="http://www.w3.org/2000/svg"
   xmlns:svg="http://www.w3.org/2000/svg"><defs
   id="defs10" /><sodipodi:namedview
   id="namedview8"
   pagecolor="#ffffff"
   bordercolor="#666666"
   borderopacity="1.0"
   inkscape:showpageshadow="2"
   inkscape:pageopacity="0.0"
   inkscape:pagecheckerboard="0"
   inkscape:deskcolor="#d1d1d1"
   inkscape:document-units="in"
   showgrid="false"
   inkscape:zoom="0.40120924"
   inkscape:cx="241.76911"
   inkscape:cy="295.3571"
   inkscape:current-layer="Layer_x0020_1" />
 <g
   id="Layer_x0020_1"
   inkscape:label="Layer 1"
   inkscape:groupmode="layer">
  <metadata
   id="CorelCorpID_0Corel-Layer" />
  <path
   class="fill:#1F1A17;fill-rule:nonzero"
   d="M 3.3021756,1.6620266 H 4.6641208 C 4.338701,3.0119175 4.1338079,3.8917541 4.1338079,4.855962 c 0,0.1687365 0,1.4724201 0.4941564,1.4724201 0.2531031,0 0.4700495,-0.2310089 0.4700495,-0.4359021 0,-0.060263 0,-0.08437 -0.084367,-0.2651564 C 4.6882276,4.7956941 4.6882276,3.7591705 4.6882276,3.6748085 c 0,-0.072317 0,-0.9280539 0.253103,-2.0127865 h 1.3498909 c 0.156687,0 0.5544198,0 0.5544198,-0.3856831 C 6.8456412,1.0111824 6.6166412,1.0111824 6.3996947,1.0111824 H 2.4343931 c -0.2772061,0 -0.6869961,0 -1.2414203,0.5905763 -0.3133664,0.3495228 -0.69904951,0.9883163 -0.69904951,1.0606239 0,0.072317 0.0602633,0.096424 0.13258007,0.096424 0.0843665,0 0.0964198,-0.03616 0.15668319,-0.1084733 C 1.4099193,1.6620165 2.0366519,1.6620165 2.3379732,1.6620165 H 3.024973 C 2.7598129,2.565959 2.4584999,3.6145314 1.4701863,5.7237342 c -0.09642,0.1928397 -0.09642,0.2169466 -0.09642,0.2892632 0,0.2551122 0.2169466,0.3153755 0.3254197,0.3153755 0.3495267,0 0.4459465,-0.3153755 0.5905763,-0.8215852 0.192843,-0.6146831 0.192843,-0.6387862 0.313366,-1.1208864 l 0.69905,-2.7238812 z"
   id="path3"
   style="stroke-width:0.923704" />
 </g>
</svg>
