<svg xmlns="http://www.w3.org/2000/svg" xmlns:xlink="http://www.w3.org/1999/xlink" width="576" height="230.4" viewBox="0 0 432 172.8"><defs><style>*{stroke-linejoin:round;stroke-linecap:butt}</style></defs><g id="figure_1"><path id="patch_1" d="M0 172.8h432V0H0z" style="fill:#fff"/><g id="axes_1"><path id="patch_2" d="M55.08 153.792h332.64V20.736H55.08z" style="fill:#fff"/><path id="patch_3" d="M63.063 153.792a7.984 7.984 0 1 0 0-15.967 7.984 7.984 0 0 0 0 15.967z" clip-path="url(#p7f7cf6f04f)" style="fill:#ff0029"/><path id="patch_4" d="M381.732 153.792a5.988 5.988 0 1 0 0-11.976 5.988 5.988 0 0 0 0 11.976z" clip-path="url(#p7f7cf6f04f)" style="fill:#0018ff"/><path id="patch_5" d="M59.072 28.72a3.992 3.992 0 1 0 0-7.984 3.992 3.992 0 0 0 0 7.983z" clip-path="url(#p7f7cf6f04f)" style="fill:#cdff00"/><path id="patch_6" d="M385.059 26.058a2.661 2.661 0 1 0 0-5.322 2.661 2.661 0 0 0 0 5.322z" clip-path="url(#p7f7cf6f04f)" style="fill:#00ff8c"/><path id="patch_7" d="M57.076 139.821a1.996 1.996 0 1 0 0-3.992 1.996 1.996 0 0 0 0 3.992z" clip-path="url(#p7f7cf6f04f)" style="fill:#ff00bf"/><path id="patch_8" d="M79.03 153.792a7.984 7.984 0 1 0 0-15.967 7.984 7.984 0 0 0 0 15.967z" clip-path="url(#p7f7cf6f04f)" style="fill:#ff0029"/><path id="patch_9" d="M381.732 141.817a5.988 5.988 0 1 0 0-11.976 5.988 5.988 0 0 0 0 11.976z" clip-path="url(#p7f7cf6f04f)" style="fill:#0018ff"/><path id="patch_10" d="M371.955 153.792a3.992 3.992 0 1 0 0-7.984 3.992 3.992 0 0 0 0 7.984z" clip-path="url(#p7f7cf6f04f)" style="fill:#cdff00"/><path id="patch_11" d="M375.492 144.478a2.661 2.661 0 1 0 0-5.322 2.661 2.661 0 0 0 0 5.322z" clip-path="url(#p7f7cf6f04f)" style="fill:#00ff8c"/><path id="patch_12" d="M71.047 153.792a1.996 1.996 0 1 0 0-3.992 1.996 1.996 0 0 0 0 3.992z" clip-path="url(#p7f7cf6f04f)" style="fill:#ff00bf"/><path id="patch_13" d="M63.063 44.001a7.984 7.984 0 1 0 0-15.967 7.984 7.984 0 0 0 0 15.967z" clip-path="url(#p7f7cf6f04f)" style="fill:#ff0029"/><path id="patch_14" d="M381.732 37.368a5.988 5.988 0 1 0 0-11.976 5.988 5.988 0 0 0 0 11.976z" clip-path="url(#p7f7cf6f04f)" style="fill:#0018ff"/><path id="patch_15" d="M67.055 28.72a3.992 3.992 0 1 0 0-7.984 3.992 3.992 0 0 0 0 7.983z" clip-path="url(#p7f7cf6f04f)" style="fill:#cdff00"/><path id="patch_16" d="M61.027 138.022a2.661 2.661 0 1 0 0-5.323 2.661 2.661 0 0 0 0 5.323z" clip-path="url(#p7f7cf6f04f)" style="fill:#00ff8c"/><path id="patch_17" d="M380.45 24.728a1.996 1.996 0 1 0 0-3.992 1.996 1.996 0 0 0 0 3.992z" clip-path="url(#p7f7cf6f04f)" style="fill:#ff00bf"/><path id="patch_18" d="M94.997 153.792a7.984 7.984 0 1 0 0-15.967 7.984 7.984 0 0 0 0 15.967z" clip-path="url(#p7f7cf6f04f)" style="fill:#ff0029"/><path id="patch_19" d="M71.047 140.33a5.988 5.988 0 1 0 0-11.975 5.988 5.988 0 0 0 0 11.976z" clip-path="url(#p7f7cf6f04f)" style="fill:#0018ff"/><path id="patch_20" d="M383.728 130.044a3.992 3.992 0 1 0 0-7.984 3.992 3.992 0 0 0 0 7.984z" clip-path="url(#p7f7cf6f04f)" style="fill:#cdff00"/><path id="patch_21" d="M375.84 26.058a2.661 2.661 0 1 0 0-5.322 2.661 2.661 0 0 0 0 5.322z" clip-path="url(#p7f7cf6f04f)" style="fill:#00ff8c"/><path id="patch_22" d="M87.013 153.792a1.996 1.996 0 1 0 0-3.992 1.996 1.996 0 0 0 0 3.992z" clip-path="url(#p7f7cf6f04f)" style="fill:#ff00bf"/><path id="patch_23" d="M360.665 153.792a7.984 7.984 0 1 0 0-15.967 7.984 7.984 0 0 0 0 15.967z" clip-path="url(#p7f7cf6f04f)" style="fill:#ff0029"/><path id="patch_24" d="M61.068 55.833a5.988 5.988 0 1 0 0-11.976 5.988 5.988 0 0 0 0 11.976z" clip-path="url(#p7f7cf6f04f)" style="fill:#0018ff"/><path id="patch_25" d="M371.765 140.298a3.992 3.992 0 1 0 0-7.984 3.992 3.992 0 0 0 0 7.984z" clip-path="url(#p7f7cf6f04f)" style="fill:#cdff00"/><path id="patch_26" d="M377.469 130.966a2.661 2.661 0 1 0 0-5.322 2.661 2.661 0 0 0 0 5.322z" clip-path="url(#p7f7cf6f04f)" style="fill:#00ff8c"/><path id="patch_27" d="M370.478 145.994a1.996 1.996 0 1 0 0-3.992 1.996 1.996 0 0 0 0 3.992z" clip-path="url(#p7f7cf6f04f)" style="fill:#ff00bf"/><path id="patch_28" d="M379.737 53.191a7.984 7.984 0 1 0 0-15.967 7.984 7.984 0 0 0 0 15.967z" clip-path="url(#p7f7cf6f04f)" style="fill:#ff0029"/><path id="patch_29" d="M76.833 32.711a5.988 5.988 0 1 0 0-11.976 5.988 5.988 0 0 0 0 11.976z" clip-path="url(#p7f7cf6f04f)" style="fill:#0018ff"/><path id="patch_30" d="M87.013 140.875a3.992 3.992 0 1 0 0-7.984 3.992 3.992 0 0 0 0 7.984z" clip-path="url(#p7f7cf6f04f)" style="fill:#cdff00"/><path id="patch_31" d="M79.655 137.844a2.661 2.661 0 1 0 0-5.323 2.661 2.661 0 0 0 0 5.323z" clip-path="url(#p7f7cf6f04f)" style="fill:#00ff8c"/><path id="patch_32" d="M102.98 153.792a1.996 1.996 0 1 0 0-3.992 1.996 1.996 0 0 0 0 3.992z" clip-path="url(#p7f7cf6f04f)" style="fill:#ff00bf"/><path id="patch_33" d="M379.737 122.745a7.984 7.984 0 1 0 0-15.967 7.984 7.984 0 0 0 0 15.967z" clip-path="url(#p7f7cf6f04f)" style="fill:#ff0029"/><path id="patch_34" d="M367.857 32.711a5.988 5.988 0 1 0 0-11.976 5.988 5.988 0 0 0 0 11.976z" clip-path="url(#p7f7cf6f04f)" style="fill:#0018ff"/><path id="patch_35" d="M372.664 39.537a3.992 3.992 0 1 0 0-7.984 3.992 3.992 0 0 0 0 7.984z" clip-path="url(#p7f7cf6f04f)" style="fill:#cdff00"/><path id="patch_36" d="M351.446 153.792a2.661 2.661 0 1 0 0-5.322 2.661 2.661 0 0 0 0 5.322z" clip-path="url(#p7f7cf6f04f)" style="fill:#00ff8c"/><path id="patch_37" d="M67.412 46.996a1.996 1.996 0 1 0 0-3.992 1.996 1.996 0 0 0 0 3.992z" clip-path="url(#p7f7cf6f04f)" style="fill:#ff00bf"/><path id="patch_38" d="M63.063 71.656a7.984 7.984 0 1 0 0-15.967 7.984 7.984 0 0 0 0 15.967z" clip-path="url(#p7f7cf6f04f)" style="fill:#ff0029"/><path id="patch_39" d="M381.732 65.023a5.988 5.988 0 1 0 0-11.975 5.988 5.988 0 0 0 0 11.975z" clip-path="url(#p7f7cf6f04f)" style="fill:#0018ff"/><path id="patch_40" d="M86.61 28.72a3.992 3.992 0 1 0 0-7.984 3.992 3.992 0 0 0 0 7.983z" clip-path="url(#p7f7cf6f04f)" style="fill:#cdff00"/><path id="patch_41" d="M93.469 137.936a2.661 2.661 0 1 0 0-5.323 2.661 2.661 0 0 0 0 5.323z" clip-path="url(#p7f7cf6f04f)" style="fill:#00ff8c"/><path id="patch_42" d="M78.183 132.76a1.996 1.996 0 1 0 0-3.992 1.996 1.996 0 0 0 0 3.992z" clip-path="url(#p7f7cf6f04f)" style="fill:#ff00bf"/><path id="patch_43" d="M110.964 153.792a7.984 7.984 0 1 0 0-15.967 7.984 7.984 0 0 0 0 15.967z" clip-path="url(#p7f7cf6f04f)" style="fill:#ff0029"/><path id="patch_44" d="M101.974 139.692a5.988 5.988 0 1 0 0-11.975 5.988 5.988 0 0 0 0 11.975z" clip-path="url(#p7f7cf6f04f)" style="fill:#0018ff"/><path id="patch_45" d="M383.728 107.463a3.992 3.992 0 1 0 0-7.984 3.992 3.992 0 0 0 0 7.984z" clip-path="url(#p7f7cf6f04f)" style="fill:#cdff00"/><path id="patch_46" d="M82.837 133.578a2.661 2.661 0 1 0 0-5.323 2.661 2.661 0 0 0 0 5.323z" clip-path="url(#p7f7cf6f04f)" style="fill:#00ff8c"/><path id="patch_47" d="M90.29 133.867a1.996 1.996 0 1 0 0-3.992 1.996 1.996 0 0 0 0 3.992z" clip-path="url(#p7f7cf6f04f)" style="fill:#ff00bf"/><path id="patch_48" d="M354.03 36.703a7.984 7.984 0 1 0 0-15.968 7.984 7.984 0 0 0 0 15.968z" clip-path="url(#p7f7cf6f04f)" style="fill:#ff0029"/><path id="patch_49" d="M365.953 48.918a5.988 5.988 0 1 0 0-11.976 5.988 5.988 0 0 0 0 11.976z" clip-path="url(#p7f7cf6f04f)" style="fill:#0018ff"/><path id="patch_50" d="M372.664 58.863a3.992 3.992 0 1 0 0-7.984 3.992 3.992 0 0 0 0 7.984z" clip-path="url(#p7f7cf6f04f)" style="fill:#cdff00"/><path id="patch_51" d="M363.248 36.703a2.661 2.661 0 1 0 0-5.323 2.661 2.661 0 0 0 0 5.323z" clip-path="url(#p7f7cf6f04f)" style="fill:#00ff8c"/><path id="patch_52" d="M94.559 132.743a1.996 1.996 0 1 0 0-3.992 1.996 1.996 0 0 0 0 3.992z" clip-path="url(#p7f7cf6f04f)" style="fill:#ff00bf"/><path id="patch_53" d="M345.014 150.633a7.984 7.984 0 1 0 0-15.967 7.984 7.984 0 0 0 0 15.967z" clip-path="url(#p7f7cf6f04f)" style="fill:#ff0029"/><path id="patch_54" d="M73.013 56.676a5.988 5.988 0 1 0 0-11.975 5.988 5.988 0 0 0 0 11.975z" clip-path="url(#p7f7cf6f04f)" style="fill:#0018ff"/><path id="patch_55" d="M59.072 78.955a3.992 3.992 0 1 0 0-7.984 3.992 3.992 0 0 0 0 7.984z" clip-path="url(#p7f7cf6f04f)" style="fill:#cdff00"/><path id="patch_56" d="M385.059 69.68a2.661 2.661 0 1 0 0-5.322 2.661 2.661 0 0 0 0 5.322z" clip-path="url(#p7f7cf6f04f)" style="fill:#00ff8c"/><path id="patch_57" d="M70.584 44.573a1.996 1.996 0 1 0 0-3.992 1.996 1.996 0 0 0 0 3.992z" clip-path="url(#p7f7cf6f04f)" style="fill:#ff00bf"/><path id="patch_58" d="M86.61 44.686a7.984 7.984 0 1 0 0-15.967 7.984 7.984 0 0 0 0 15.967z" clip-path="url(#p7f7cf6f04f)" style="fill:#ff0029"/><path id="patch_59" d="M96.388 32.711a5.988 5.988 0 1 0 0-11.976 5.988 5.988 0 0 0 0 11.976z" clip-path="url(#p7f7cf6f04f)" style="fill:#0018ff"/><path id="patch_60" d="M75.498 129.404a3.992 3.992 0 1 0 0-7.984 3.992 3.992 0 0 0 0 7.984z" clip-path="url(#p7f7cf6f04f)" style="fill:#cdff00"/><path id="patch_61" d="M73.333 41.479a2.661 2.661 0 1 0 0-5.323 2.661 2.661 0 0 0 0 5.323z" clip-path="url(#p7f7cf6f04f)" style="fill:#00ff8c"/><path id="patch_62" d="M359.633 38.973a1.996 1.996 0 1 0 0-3.992 1.996 1.996 0 0 0 0 3.992z" clip-path="url(#p7f7cf6f04f)" style="fill:#ff00bf"/><path id="patch_63" d="M372.065 108.742a7.984 7.984 0 1 0 0-15.967 7.984 7.984 0 0 0 0 15.967z" clip-path="url(#p7f7cf6f04f)" style="fill:#ff0029"/><path id="patch_64" d="M340.202 32.711a5.988 5.988 0 1 0 0-11.976 5.988 5.988 0 0 0 0 11.976z" clip-path="url(#p7f7cf6f04f)" style="fill:#0018ff"/><path id="patch_65" d="M383.728 99.48a3.992 3.992 0 1 0 0-7.984 3.992 3.992 0 0 0 0 7.984z" clip-path="url(#p7f7cf6f04f)" style="fill:#cdff00"/><path id="patch_66" d="M355.57 41.913a2.661 2.661 0 1 0-.001-5.322 2.661 2.661 0 0 0 0 5.322z" clip-path="url(#p7f7cf6f04f)" style="fill:#00ff8c"/><path id="patch_67" d="M76.833 36.703a1.996 1.996 0 1 0 0-3.992 1.996 1.996 0 0 0 0 3.992z" clip-path="url(#p7f7cf6f04f)" style="fill:#ff00bf"/><path id="patch_68" d="M369.944 74.517a7.984 7.984 0 1 0 0-15.968 7.984 7.984 0 0 0 0 15.968z" clip-path="url(#p7f7cf6f04f)" style="fill:#ff0029"/><path id="patch_69" d="M381.732 80.99a5.988 5.988 0 1 0 0-11.976 5.988 5.988 0 0 0 0 11.976z" clip-path="url(#p7f7cf6f04f)" style="fill:#0018ff"/><path id="patch_70" d="M383.728 91.496a3.992 3.992 0 1 0 0-7.983 3.992 3.992 0 0 0 0 7.983z" clip-path="url(#p7f7cf6f04f)" style="fill:#cdff00"/><path id="patch_71" d="M378.406 94.158a2.661 2.661 0 1 0 0-5.323 2.661 2.661 0 0 0 0 5.323z" clip-path="url(#p7f7cf6f04f)" style="fill:#00ff8c"/><path id="patch_72" d="M380.403 68.903a1.996 1.996 0 1 0 0-3.991 1.996 1.996 0 0 0 0 3.991z" clip-path="url(#p7f7cf6f04f)" style="fill:#ff00bf"/><path id="patch_73" d="M96.328 128.909a7.984 7.984 0 1 0 0-15.968 7.984 7.984 0 0 0 0 15.968z" clip-path="url(#p7f7cf6f04f)" style="fill:#ff0029"/><path id="patch_74" d="M362.688 60.582a5.988 5.988 0 1 0 0-11.976 5.988 5.988 0 0 0 0 11.976z" clip-path="url(#p7f7cf6f04f)" style="fill:#0018ff"/><path id="patch_75" d="M376.064 89.261a3.992 3.992 0 1 0 0-7.984 3.992 3.992 0 0 0 0 7.984z" clip-path="url(#p7f7cf6f04f)" style="fill:#cdff00"/><path id="patch_76" d="M354.232 139.989a2.661 2.661 0 1 0 0-5.323 2.661 2.661 0 0 0 0 5.323z" clip-path="url(#p7f7cf6f04f)" style="fill:#00ff8c"/><path id="patch_77" d="M72.873 36.18a1.996 1.996 0 1 0 0-3.993 1.996 1.996 0 0 0 0 3.992z" clip-path="url(#p7f7cf6f04f)" style="fill:#ff00bf"/><path id="patch_78" d="M70.735 85.66a7.984 7.984 0 1 0 0-15.968 7.984 7.984 0 0 0 0 15.967z" clip-path="url(#p7f7cf6f04f)" style="fill:#ff0029"/><path id="patch_79" d="M360.916 137.828a5.988 5.988 0 1 0 0-11.976 5.988 5.988 0 0 0 0 11.976z" clip-path="url(#p7f7cf6f04f)" style="fill:#0018ff"/><path id="patch_80" d="M59.072 86.938a3.992 3.992 0 1 0 0-7.983 3.992 3.992 0 0 0 0 7.983z" clip-path="url(#p7f7cf6f04f)" style="fill:#cdff00"/><path id="patch_81" d="M350.503 136.191a2.661 2.661 0 1 0 0-5.322 2.661 2.661 0 0 0 0 5.322z" clip-path="url(#p7f7cf6f04f)" style="fill:#00ff8c"/><path id="patch_82" d="M373.8 92.808a1.996 1.996 0 1 0 0-3.992 1.996 1.996 0 0 0 0 3.992z" clip-path="url(#p7f7cf6f04f)" style="fill:#ff00bf"/><path id="patch_83" d="M110.215 36.703a7.984 7.984 0 1 0 0-15.968 7.984 7.984 0 0 0 0 15.968z" clip-path="url(#p7f7cf6f04f)" style="fill:#ff0029"/><path id="patch_84" d="M366.41 93.78a5.988 5.988 0 1 0 0-11.975 5.988 5.988 0 0 0 0 11.975z" clip-path="url(#p7f7cf6f04f)" style="fill:#0018ff"/><path id="patch_85" d="M100.552 39.784a3.992 3.992 0 1 0 0-7.984 3.992 3.992 0 0 0 0 7.984z" clip-path="url(#p7f7cf6f04f)" style="fill:#cdff00"/><path id="patch_86" d="M371.28 83.307a2.661 2.661 0 1 0 0-5.322 2.661 2.661 0 0 0 0 5.322z" clip-path="url(#p7f7cf6f04f)" style="fill:#00ff8c"/><path id="patch_87" d="M366.698 81.81a1.996 1.996 0 1 0 0-3.991 1.996 1.996 0 0 0 0 3.991z" clip-path="url(#p7f7cf6f04f)" style="fill:#ff00bf"/><path id="patch_88" d="M63.929 130.305a7.984 7.984 0 1 0 0-15.968 7.984 7.984 0 0 0 0 15.968z" clip-path="url(#p7f7cf6f04f)" style="fill:#ff0029"/><path id="patch_89" d="M365.846 119.257a5.988 5.988 0 1 0 0-11.976 5.988 5.988 0 0 0 0 11.976z" clip-path="url(#p7f7cf6f04f)" style="fill:#0018ff"/><path id="patch_90" d="M370.337 126.173a3.992 3.992 0 1 0 0-7.984 3.992 3.992 0 0 0 0 7.984z" clip-path="url(#p7f7cf6f04f)" style="fill:#cdff00"/><path id="patch_91" d="M363.705 124.31a2.661 2.661 0 1 0 0-5.322 2.661 2.661 0 0 0 0 5.322z" clip-path="url(#p7f7cf6f04f)" style="fill:#00ff8c"/><path id="patch_92" d="M369.026 78.567a1.996 1.996 0 1 0 0-3.991 1.996 1.996 0 0 0 0 3.991z" clip-path="url(#p7f7cf6f04f)" style="fill:#ff00bf"/><path id="patch_93" d="M343.127 48.368a7.984 7.984 0 1 0 0-15.967 7.984 7.984 0 0 0 0 15.967z" clip-path="url(#p7f7cf6f04f)" style="fill:#ff0029"/><path id="patch_94" d="M328.227 32.711a5.988 5.988 0 1 0 0-11.976 5.988 5.988 0 0 0 0 11.976z" clip-path="url(#p7f7cf6f04f)" style="fill:#0018ff"/><path id="patch_95" d="M107.45 129.354a3.992 3.992 0 1 0 0-7.984 3.992 3.992 0 0 0 0 7.984z" clip-path="url(#p7f7cf6f04f)" style="fill:#cdff00"/><path id="patch_96" d="M364.444 78.401a2.661 2.661 0 1 0 0-5.323 2.661 2.661 0 0 0 0 5.323z" clip-path="url(#p7f7cf6f04f)" style="fill:#00ff8c"/><path id="patch_97" d="M362.8 82.668a1.996 1.996 0 1 0 0-3.992 1.996 1.996 0 0 0 0 3.992z" clip-path="url(#p7f7cf6f04f)" style="fill:#ff00bf"/><path id="patch_98" d="M354.008 73.524a7.984 7.984 0 1 0 0-15.967 7.984 7.984 0 0 0 0 15.967z" clip-path="url(#p7f7cf6f04f)" style="fill:#ff0029"/><path id="patch_99" d="M76.954 71.153a5.988 5.988 0 1 0 0-11.976 5.988 5.988 0 0 0 0 11.976z" clip-path="url(#p7f7cf6f04f)" style="fill:#0018ff"/><path id="patch_100" d="M111.814 136.039a3.992 3.992 0 1 0 0-7.984 3.992 3.992 0 0 0 0 7.984z" clip-path="url(#p7f7cf6f04f)" style="fill:#cdff00"/><path id="patch_101" d="M334.938 36.246a2.661 2.661 0 1 0 0-5.322 2.661 2.661 0 0 0 0 5.322z" clip-path="url(#p7f7cf6f04f)" style="fill:#00ff8c"/><path id="patch_102" d="M373.01 78.318a1.996 1.996 0 1 0 0-3.992 1.996 1.996 0 0 0 0 3.992z" clip-path="url(#p7f7cf6f04f)" style="fill:#ff00bf"/><path id="patch_103" d="M63.063 102.22a7.984 7.984 0 1 0 0-15.967 7.984 7.984 0 0 0 0 15.967z" clip-path="url(#p7f7cf6f04f)" style="fill:#ff0029"/><path id="patch_104" d="M61.068 114.052a5.988 5.988 0 1 0 0-11.976 5.988 5.988 0 0 0 0 11.976z" clip-path="url(#p7f7cf6f04f)" style="fill:#0018ff"/><path id="patch_105" d="M352.756 57.623a3.992 3.992 0 1 0 0-7.983 3.992 3.992 0 0 0 0 7.983z" clip-path="url(#p7f7cf6f04f)" style="fill:#cdff00"/><path id="patch_106" d="M356.747 50.97a2.661 2.661 0 1 0 0-5.322 2.661 2.661 0 0 0 0 5.322z" clip-path="url(#p7f7cf6f04f)" style="fill:#00ff8c"/><path id="patch_107" d="M361.604 74.009a1.996 1.996 0 1 0 0-3.992 1.996 1.996 0 0 0 0 3.992z" clip-path="url(#p7f7cf6f04f)" style="fill:#ff00bf"/><path id="patch_108" d="M342.14 134.927a7.984 7.984 0 1 0 0-15.967 7.984 7.984 0 0 0 0 15.967z" clip-path="url(#p7f7cf6f04f)" style="fill:#ff0029"/><path id="patch_109" d="M355.422 125.151a5.988 5.988 0 1 0 0-11.976 5.988 5.988 0 0 0 0 11.976z" clip-path="url(#p7f7cf6f04f)" style="fill:#0018ff"/><path id="patch_110" d="M345.548 61.057a3.992 3.992 0 1 0 0-7.984 3.992 3.992 0 0 0 0 7.984z" clip-path="url(#p7f7cf6f04f)" style="fill:#cdff00"/><path id="patch_111" d="M351.567 49.747a2.661 2.661 0 1 0 0-5.323 2.661 2.661 0 0 0 0 5.323z" clip-path="url(#p7f7cf6f04f)" style="fill:#00ff8c"/><path id="patch_112" d="M71.881 60.997a1.996 1.996 0 1 0 0-3.992 1.996 1.996 0 0 0 0 3.992z" clip-path="url(#p7f7cf6f04f)" style="fill:#ff00bf"/><path id="patch_113" d="M126.182 36.703a7.984 7.984 0 1 0 0-15.968 7.984 7.984 0 0 0 0 15.968z" clip-path="url(#p7f7cf6f04f)" style="fill:#ff0029"/><path id="patch_114" d="M107.938 48.49a5.988 5.988 0 1 0 0-11.975 5.988 5.988 0 0 0 0 11.976z" clip-path="url(#p7f7cf6f04f)" style="fill:#0018ff"/><path id="patch_115" d="M118.199 41.637a3.992 3.992 0 1 0 0-7.984 3.992 3.992 0 0 0 0 7.984z" clip-path="url(#p7f7cf6f04f)" style="fill:#cdff00"/><path id="patch_116" d="M358.29 77.947a2.661 2.661 0 1 0 0-5.322 2.661 2.661 0 0 0 0 5.322z" clip-path="url(#p7f7cf6f04f)" style="fill:#00ff8c"/><path id="patch_117" d="M118.199 24.728a1.996 1.996 0 1 0 0-3.992 1.996 1.996 0 0 0 0 3.992z" clip-path="url(#p7f7cf6f04f)" style="fill:#ff00bf"/><path id="patch_118" d="M77.284 121.554a7.984 7.984 0 1 0 0-15.967 7.984 7.984 0 0 0 0 15.967z" clip-path="url(#p7f7cf6f04f)" style="fill:#ff0029"/><path id="patch_119" d="M358.442 109.845a5.988 5.988 0 1 0 0-11.975 5.988 5.988 0 0 0 0 11.975z" clip-path="url(#p7f7cf6f04f)" style="fill:#0018ff"/><path id="patch_120" d="M357.46 87.37a3.992 3.992 0 1 0 0-7.983 3.992 3.992 0 0 0 0 7.984z" clip-path="url(#p7f7cf6f04f)" style="fill:#cdff00"/><path id="patch_121" d="M352.646 131.32a2.661 2.661 0 1 0 0-5.323 2.661 2.661 0 0 0 0 5.323z" clip-path="url(#p7f7cf6f04f)" style="fill:#00ff8c"/><path id="patch_122" d="M57.076 116.974a1.996 1.996 0 1 0 0-3.992 1.996 1.996 0 0 0 0 3.992z" clip-path="url(#p7f7cf6f04f)" style="fill:#ff00bf"/><path id="patch_123" d="M314.4 36.703a7.984 7.984 0 1 0-.001-15.968 7.984 7.984 0 0 0 0 15.968z" clip-path="url(#p7f7cf6f04f)" style="fill:#ff0029"/><path id="patch_124" d="M109.22 121.529a5.988 5.988 0 1 0-.001-11.976 5.988 5.988 0 0 0 0 11.976z" clip-path="url(#p7f7cf6f04f)" style="fill:#0018ff"/><path id="patch_125" d="M115.422 128.917a3.992 3.992 0 1 0 0-7.984 3.992 3.992 0 0 0 0 7.984z" clip-path="url(#p7f7cf6f04f)" style="fill:#cdff00"/><path id="patch_126" d="M346.863 53.205a2.661 2.661 0 1 0 0-5.323 2.661 2.661 0 0 0 0 5.323z" clip-path="url(#p7f7cf6f04f)" style="fill:#00ff8c"/><path id="patch_127" d="M355.036 45.974a1.996 1.996 0 1 0 0-3.992 1.996 1.996 0 0 0 0 3.992z" clip-path="url(#p7f7cf6f04f)" style="fill:#ff00bf"/><path id="patch_128" d="M86.53 83.322a7.984 7.984 0 1 0 0-15.968 7.984 7.984 0 0 0 0 15.968z" clip-path="url(#p7f7cf6f04f)" style="fill:#ff0029"/><path id="patch_129" d="M329.161 46.01a5.988 5.988 0 1 0 0-11.976 5.988 5.988 0 0 0 0 11.976z" clip-path="url(#p7f7cf6f04f)" style="fill:#0018ff"/><path id="patch_130" d="M70.136 107.892a3.992 3.992 0 1 0 0-7.984 3.992 3.992 0 0 0 0 7.984z" clip-path="url(#p7f7cf6f04f)" style="fill:#cdff00"/><path id="patch_131" d="M362.449 98.855a2.661 2.661 0 1 0 0-5.323 2.661 2.661 0 0 0 0 5.323z" clip-path="url(#p7f7cf6f04f)" style="fill:#00ff8c"/><path id="patch_132" d="M323.381 35.064a1.996 1.996 0 1 0 0-3.992 1.996 1.996 0 0 0 0 3.992z" clip-path="url(#p7f7cf6f04f)" style="fill:#ff00bf"/><path id="patch_133" d="M329.975 145.268a7.984 7.984 0 1 0 0-15.967 7.984 7.984 0 0 0 0 15.967z" clip-path="url(#p7f7cf6f04f)" style="fill:#ff0029"/><path id="patch_134" d="M340.038 71.373a5.988 5.988 0 1 0 0-11.976 5.988 5.988 0 0 0 0 11.976z" clip-path="url(#p7f7cf6f04f)" style="fill:#0018ff"/><path id="patch_135" d="M97.995 47.347a3.992 3.992 0 1 0 0-7.984 3.992 3.992 0 0 0 0 7.984z" clip-path="url(#p7f7cf6f04f)" style="fill:#cdff00"/><path id="patch_136" d="M341.66 54.328a2.661 2.661 0 1 0 0-5.323 2.661 2.661 0 0 0 0 5.323z" clip-path="url(#p7f7cf6f04f)" style="fill:#00ff8c"/><path id="patch_137" d="M320.958 38.236a1.996 1.996 0 1 0 0-3.992 1.996 1.996 0 0 0 0 3.992z" clip-path="url(#p7f7cf6f04f)" style="fill:#ff00bf"/><path id="patch_138" d="M142.149 36.703a7.984 7.984 0 1 0 0-15.968 7.984 7.984 0 0 0 0 15.968z" clip-path="url(#p7f7cf6f04f)" style="fill:#ff0029"/><path id="patch_139" d="M126.817 48.663a5.988 5.988 0 1 0 0-11.975 5.988 5.988 0 0 0 0 11.975z" clip-path="url(#p7f7cf6f04f)" style="fill:#0018ff"/><path id="patch_140" d="M351.963 81.332a3.992 3.992 0 1 0 0-7.984 3.992 3.992 0 0 0 0 7.984z" clip-path="url(#p7f7cf6f04f)" style="fill:#cdff00"/><path id="patch_141" d="M338.9 59.473a2.661 2.661 0 1 0 0-5.323 2.661 2.661 0 0 0 0 5.323z" clip-path="url(#p7f7cf6f04f)" style="fill:#00ff8c"/><path id="patch_142" d="M134.165 24.728a1.996 1.996 0 1 0 0-3.992 1.996 1.996 0 0 0 0 3.992z" clip-path="url(#p7f7cf6f04f)" style="fill:#ff00bf"/><path id="patch_143" d="M298.433 36.703a7.984 7.984 0 1 0 0-15.968 7.984 7.984 0 0 0 0 15.968z" clip-path="url(#p7f7cf6f04f)" style="fill:#ff0029"/><path id="patch_144" d="M100.314 113.523a5.988 5.988 0 1 0 0-11.976 5.988 5.988 0 0 0 0 11.976z" clip-path="url(#p7f7cf6f04f)" style="fill:#0018ff"/><path id="patch_145" d="M83.338 127.895a3.992 3.992 0 1 0 0-7.984 3.992 3.992 0 0 0 0 7.984z" clip-path="url(#p7f7cf6f04f)" style="fill:#cdff00"/><path id="patch_146" d="M345.572 74.693a2.661 2.661 0 1 0 0-5.323 2.661 2.661 0 0 0 0 5.323z" clip-path="url(#p7f7cf6f04f)" style="fill:#00ff8c"/><path id="patch_147" d="M306.416 24.728a1.996 1.996 0 1 0 0-3.992 1.996 1.996 0 0 0 0 3.992z" clip-path="url(#p7f7cf6f04f)" style="fill:#ff00bf"/><path id="patch_148" d="M123.69 141.571a7.984 7.984 0 1 0 0-15.967 7.984 7.984 0 0 0 0 15.967z" clip-path="url(#p7f7cf6f04f)" style="fill:#ff0029"/><path id="patch_149" d="M88.35 67.474a5.988 5.988 0 1 0 0-11.976 5.988 5.988 0 0 0 0 11.976z" clip-path="url(#p7f7cf6f04f)" style="fill:#0018ff"/><path id="patch_150" d="M357.087 95.345a3.992 3.992 0 1 0 0-7.983 3.992 3.992 0 0 0 0 7.983z" clip-path="url(#p7f7cf6f04f)" style="fill:#cdff00"/><path id="patch_151" d="M134.165 38.421a2.661 2.661 0 1 0 0-5.322 2.661 2.661 0 0 0 0 5.322z" clip-path="url(#p7f7cf6f04f)" style="fill:#00ff8c"/><path id="patch_152" d="M85.952 120.512a1.996 1.996 0 1 0 0-3.991 1.996 1.996 0 0 0 0 3.991z" clip-path="url(#p7f7cf6f04f)" style="fill:#ff00bf"/><path id="patch_153" d="M80.657 98.169a7.984 7.984 0 1 0 0-15.968 7.984 7.984 0 0 0 0 15.968z" clip-path="url(#p7f7cf6f04f)" style="fill:#ff0029"/><path id="patch_154" d="M348.137 92.928a5.988 5.988 0 1 0 0-11.976 5.988 5.988 0 0 0 0 11.976z" clip-path="url(#p7f7cf6f04f)" style="fill:#0018ff"/><path id="patch_155" d="M334.36 52.532a3.992 3.992 0 1 0 0-7.983 3.992 3.992 0 0 0 0 7.983z" clip-path="url(#p7f7cf6f04f)" style="fill:#cdff00"/><path id="patch_156" d="M73.05 100.58a2.661 2.661 0 1 0 0-5.322 2.661 2.661 0 0 0 0 5.322z" clip-path="url(#p7f7cf6f04f)" style="fill:#00ff8c"/><path id="patch_157" d="M71.005 89.647a1.996 1.996 0 1 0 0-3.992 1.996 1.996 0 0 0 0 3.992z" clip-path="url(#p7f7cf6f04f)" style="fill:#ff00bf"/><path id="patch_158" d="M327.103 129.562a7.984 7.984 0 1 0 0-15.968 7.984 7.984 0 0 0 0 15.968z" clip-path="url(#p7f7cf6f04f)" style="fill:#ff0029"/><path id="patch_159" d="M330.381 64.29a5.988 5.988 0 1 0 0-11.975 5.988 5.988 0 0 0 0 11.976z" clip-path="url(#p7f7cf6f04f)" style="fill:#0018ff"/><path id="patch_160" d="M334.495 152.366a3.992 3.992 0 1 0 0-7.984 3.992 3.992 0 0 0 0 7.984z" clip-path="url(#p7f7cf6f04f)" style="fill:#cdff00"/><path id="patch_161" d="M118.322 46.958a2.661 2.661 0 1 0 0-5.323 2.661 2.661 0 0 0 0 5.323z" clip-path="url(#p7f7cf6f04f)" style="fill:#00ff8c"/><path id="patch_162" d="M339.797 153.153a1.996 1.996 0 1 0 0-3.992 1.996 1.996 0 0 0 0 3.992z" clip-path="url(#p7f7cf6f04f)" style="fill:#ff00bf"/><path id="patch_163" d="M101.382 62.824a7.984 7.984 0 1 0 0-15.967 7.984 7.984 0 0 0 0 15.967z" clip-path="url(#p7f7cf6f04f)" style="fill:#ff0029"/><path id="patch_164" d="M338.701 83.273a5.988 5.988 0 1 0 0-11.976 5.988 5.988 0 0 0 0 11.976z" clip-path="url(#p7f7cf6f04f)" style="fill:#0018ff"/><path id="patch_165" d="M90.736 114.328a3.992 3.992 0 1 0 0-7.984 3.992 3.992 0 0 0 0 7.984z" clip-path="url(#p7f7cf6f04f)" style="fill:#cdff00"/><path id="patch_166" d="M80.735 60.048a2.661 2.661 0 1 0 0-5.323 2.661 2.661 0 0 0 0 5.323z" clip-path="url(#p7f7cf6f04f)" style="fill:#00ff8c"/><path id="patch_167" d="M328.4 49.965a1.996 1.996 0 1 0-.001-3.992 1.996 1.996 0 0 0 0 3.992z" clip-path="url(#p7f7cf6f04f)" style="fill:#ff00bf"/><path id="patch_168" d="M315.575 52.626a7.984 7.984 0 1 0 0-15.967 7.984 7.984 0 0 0 0 15.967z" clip-path="url(#p7f7cf6f04f)" style="fill:#ff0029"/><path id="patch_169" d="M139.632 48.45a5.988 5.988 0 1 0 0-11.976 5.988 5.988 0 0 0 0 11.975z" clip-path="url(#p7f7cf6f04f)" style="fill:#0018ff"/><path id="patch_170" d="M95.954 71.941a3.992 3.992 0 1 0 0-7.984 3.992 3.992 0 0 0 0 7.984z" clip-path="url(#p7f7cf6f04f)" style="fill:#cdff00"/><path id="patch_171" d="M306.416 38.421a2.661 2.661 0 1 0 0-5.322 2.661 2.661 0 0 0 0 5.322z" clip-path="url(#p7f7cf6f04f)" style="fill:#00ff8c"/><path id="patch_172" d="M75.719 103.732a1.996 1.996 0 1 0 0-3.992 1.996 1.996 0 0 0 0 3.992z" clip-path="url(#p7f7cf6f04f)" style="fill:#ff00bf"/><path id="patch_173" d="M158.116 36.703a7.984 7.984 0 1 0 0-15.968 7.984 7.984 0 0 0 0 15.968z" clip-path="url(#p7f7cf6f04f)" style="fill:#ff0029"/><path id="patch_174" d="M90.729 106.345a5.988 5.988 0 1 0 0-11.976 5.988 5.988 0 0 0 0 11.976z" clip-path="url(#p7f7cf6f04f)" style="fill:#0018ff"/><path id="patch_175" d="M350.987 100.495a3.992 3.992 0 1 0 0-7.983 3.992 3.992 0 0 0 0 7.983z" clip-path="url(#p7f7cf6f04f)" style="fill:#cdff00"/><path id="patch_176" d="M331.519 69.538a2.661 2.661 0 1 0 0-5.323 2.661 2.661 0 0 0 0 5.323z" clip-path="url(#p7f7cf6f04f)" style="fill:#00ff8c"/><path id="patch_177" d="M150.132 24.728a1.996 1.996 0 1 0 0-3.992 1.996 1.996 0 0 0 0 3.992z" clip-path="url(#p7f7cf6f04f)" style="fill:#ff00bf"/><path id="patch_178" d="M282.466 36.703a7.984 7.984 0 1 0 0-15.968 7.984 7.984 0 0 0 0 15.968z" clip-path="url(#p7f7cf6f04f)" style="fill:#ff0029"/><path id="patch_179" d="M94.255 92.967a5.988 5.988 0 1 0 0-11.976 5.988 5.988 0 0 0 0 11.976z" clip-path="url(#p7f7cf6f04f)" style="fill:#0018ff"/><path id="patch_180" d="M326.52 152.742a3.992 3.992 0 1 0 0-7.983 3.992 3.992 0 0 0 0 7.983z" clip-path="url(#p7f7cf6f04f)" style="fill:#cdff00"/><path id="patch_181" d="M93.23 50.658a2.661 2.661 0 1 0 0-5.322 2.661 2.661 0 0 0 0 5.322z" clip-path="url(#p7f7cf6f04f)" style="fill:#00ff8c"/><path id="patch_182" d="M290.45 24.728a1.996 1.996 0 1 0 0-3.992 1.996 1.996 0 0 0 0 3.992z" clip-path="url(#p7f7cf6f04f)" style="fill:#ff00bf"/><path id="patch_183" d="M113.205 110.134a7.984 7.984 0 1 0 0-15.967 7.984 7.984 0 0 0 0 15.967z" clip-path="url(#p7f7cf6f04f)" style="fill:#ff0029"/><path id="patch_184" d="M300.95 48.45a5.988 5.988 0 1 0-.001-11.976 5.988 5.988 0 0 0 0 11.975z" clip-path="url(#p7f7cf6f04f)" style="fill:#0018ff"/><path id="patch_185" d="M112.797 55.211a3.992 3.992 0 1 0 0-7.983 3.992 3.992 0 0 0 0 7.983z" clip-path="url(#p7f7cf6f04f)" style="fill:#cdff00"/><path id="patch_186" d="M120.88 51.625a2.661 2.661 0 1 0 0-5.322 2.661 2.661 0 0 0 0 5.322z" clip-path="url(#p7f7cf6f04f)" style="fill:#00ff8c"/><path id="patch_187" d="M334.122 72.742a1.996 1.996 0 1 0 0-3.992 1.996 1.996 0 0 0 0 3.992z" clip-path="url(#p7f7cf6f04f)" style="fill:#ff00bf"/><path id="patch_188" d="M124.95 125.654a7.984 7.984 0 1 0-.001-15.967 7.984 7.984 0 0 0 0 15.967z" clip-path="url(#p7f7cf6f04f)" style="fill:#ff0029"/><path id="patch_189" d="M327.061 80.459a5.988 5.988 0 1 0 0-11.976 5.988 5.988 0 0 0 0 11.976z" clip-path="url(#p7f7cf6f04f)" style="fill:#0018ff"/><path id="patch_190" d="M84.834 56.139a3.992 3.992 0 1 0 0-7.984 3.992 3.992 0 0 0 0 7.984z" clip-path="url(#p7f7cf6f04f)" style="fill:#cdff00"/><path id="patch_191" d="M147.12 40.793a2.661 2.661 0 1 0 0-5.322 2.661 2.661 0 0 0 0 5.322z" clip-path="url(#p7f7cf6f04f)" style="fill:#00ff8c"/><path id="patch_192" d="M85.943 108.743a1.996 1.996 0 1 0 0-3.992 1.996 1.996 0 0 0 0 3.992z" clip-path="url(#p7f7cf6f04f)" style="fill:#ff00bf"/><path id="patch_193" d="M314.937 139.903a7.984 7.984 0 1 0 0-15.968 7.984 7.984 0 0 0 0 15.968z" clip-path="url(#p7f7cf6f04f)" style="fill:#ff0029"/><path id="patch_194" d="M338.474 119.45a5.988 5.988 0 1 0 0-11.975 5.988 5.988 0 0 0 0 11.975z" clip-path="url(#p7f7cf6f04f)" style="fill:#0018ff"/><path id="patch_195" d="M98.504 79.506a3.992 3.992 0 1 0 0-7.984 3.992 3.992 0 0 0 0 7.984z" clip-path="url(#p7f7cf6f04f)" style="fill:#cdff00"/><path id="patch_196" d="M82.653 106.113a2.661 2.661 0 1 0 0-5.323 2.661 2.661 0 0 0 0 5.323z" clip-path="url(#p7f7cf6f04f)" style="fill:#00ff8c"/><path id="patch_197" d="M327.052 67.555a1.996 1.996 0 1 0 0-3.992 1.996 1.996 0 0 0 0 3.992z" clip-path="url(#p7f7cf6f04f)" style="fill:#ff00bf"/><path id="patch_198" d="M174.082 36.703a7.984 7.984 0 1 0 0-15.968 7.984 7.984 0 0 0 0 15.968z" clip-path="url(#p7f7cf6f04f)" style="fill:#ff0029"/><path id="patch_199" d="M105.896 74.798a5.988 5.988 0 1 0 0-11.976 5.988 5.988 0 0 0 0 11.976z" clip-path="url(#p7f7cf6f04f)" style="fill:#0018ff"/><path id="patch_200" d="M100.307 101.548a3.992 3.992 0 1 0 0-7.984 3.992 3.992 0 0 0 0 7.984z" clip-path="url(#p7f7cf6f04f)" style="fill:#cdff00"/><path id="patch_201" d="M346.3 119.807a2.661 2.661 0 1 0 0-5.323 2.661 2.661 0 0 0 0 5.323z" clip-path="url(#p7f7cf6f04f)" style="fill:#00ff8c"/><path id="patch_202" d="M166.099 24.728a1.996 1.996 0 1 0 0-3.992 1.996 1.996 0 0 0 0 3.992z" clip-path="url(#p7f7cf6f04f)" style="fill:#ff00bf"/><path id="patch_203" d="M339.059 105.543a7.984 7.984 0 1 0 0-15.968 7.984 7.984 0 0 0 0 15.968z" clip-path="url(#p7f7cf6f04f)" style="fill:#ff0029"/><path id="patch_204" d="M330.445 91.946a5.988 5.988 0 1 0 0-11.975 5.988 5.988 0 0 0 0 11.975z" clip-path="url(#p7f7cf6f04f)" style="fill:#0018ff"/><path id="patch_205" d="M290.45 41.637a3.992 3.992 0 1 0 0-7.984 3.992 3.992 0 0 0 0 7.984z" clip-path="url(#p7f7cf6f04f)" style="fill:#cdff00"/><path id="patch_206" d="M348.413 105.3a2.661 2.661 0 1 0 0-5.323 2.661 2.661 0 0 0 0 5.323z" clip-path="url(#p7f7cf6f04f)" style="fill:#00ff8c"/><path id="patch_207" d="M91.707 54.394a1.996 1.996 0 1 0 0-3.992 1.996 1.996 0 0 0 0 3.992z" clip-path="url(#p7f7cf6f04f)" style="fill:#ff00bf"/><path id="patch_208" d="M266.5 36.703a7.984 7.984 0 1 0-.001-15.968 7.984 7.984 0 0 0 0 15.968z" clip-path="url(#p7f7cf6f04f)" style="fill:#ff0029"/><path id="patch_209" d="M328.012 113.625a5.988 5.988 0 1 0 0-11.976 5.988 5.988 0 0 0 0 11.976z" clip-path="url(#p7f7cf6f04f)" style="fill:#0018ff"/><path id="patch_210" d="M320.082 148.023a3.992 3.992 0 1 0 0-7.984 3.992 3.992 0 0 0 0 7.984z" clip-path="url(#p7f7cf6f04f)" style="fill:#cdff00"/><path id="patch_211" d="M339.488 89.585a2.661 2.661 0 1 0 0-5.323 2.661 2.661 0 0 0 0 5.323z" clip-path="url(#p7f7cf6f04f)" style="fill:#00ff8c"/><path id="patch_212" d="M274.483 24.728a1.996 1.996 0 1 0 0-3.992 1.996 1.996 0 0 0 0 3.992z" clip-path="url(#p7f7cf6f04f)" style="fill:#ff00bf"/><path id="patch_213" d="M128.332 64.548a7.984 7.984 0 1 0 0-15.968 7.984 7.984 0 0 0 0 15.968z" clip-path="url(#p7f7cf6f04f)" style="fill:#ff0029"/><path id="patch_214" d="M135.75 132.521a5.988 5.988 0 1 0-.001-11.976 5.988 5.988 0 0 0 0 11.976z" clip-path="url(#p7f7cf6f04f)" style="fill:#0018ff"/><path id="patch_215" d="M112.536 63.19a3.992 3.992 0 1 0 0-7.983 3.992 3.992 0 0 0 0 7.983z" clip-path="url(#p7f7cf6f04f)" style="fill:#cdff00"/><path id="patch_216" d="M344.785 109.193a2.661 2.661 0 1 0 0-5.322 2.661 2.661 0 0 0 0 5.322z" clip-path="url(#p7f7cf6f04f)" style="fill:#00ff8c"/><path id="patch_217" d="M116.201 113.666a1.996 1.996 0 1 0 0-3.992 1.996 1.996 0 0 0 0 3.992z" clip-path="url(#p7f7cf6f04f)" style="fill:#ff00bf"/><path id="patch_218" d="M152.798 55.118a7.984 7.984 0 1 0 0-15.967 7.984 7.984 0 0 0 0 15.967z" clip-path="url(#p7f7cf6f04f)" style="fill:#ff0029"/><path id="patch_219" d="M166.099 46.172a5.988 5.988 0 1 0 0-11.975 5.988 5.988 0 0 0 0 11.975z" clip-path="url(#p7f7cf6f04f)" style="fill:#0018ff"/><path id="patch_220" d="M141.934 56.164a3.992 3.992 0 1 0 0-7.984 3.992 3.992 0 0 0 0 7.984z" clip-path="url(#p7f7cf6f04f)" style="fill:#cdff00"/><path id="patch_221" d="M346.975 114.527a2.661 2.661 0 1 0 0-5.322 2.661 2.661 0 0 0 0 5.322z" clip-path="url(#p7f7cf6f04f)" style="fill:#00ff8c"/><path id="patch_222" d="M118.938 55.193a1.996 1.996 0 1 0 0-3.992 1.996 1.996 0 0 0 0 3.992z" clip-path="url(#p7f7cf6f04f)" style="fill:#ff00bf"/><path id="patch_223" d="M312.064 124.197a7.984 7.984 0 1 0 0-15.968 7.984 7.984 0 0 0 0 15.968z" clip-path="url(#p7f7cf6f04f)" style="fill:#ff0029"/><path id="patch_224" d="M319.437 69.15a5.988 5.988 0 1 0 0-11.975 5.988 5.988 0 0 0 0 11.976z" clip-path="url(#p7f7cf6f04f)" style="fill:#0018ff"/><path id="patch_225" d="M185.372 28.72a3.992 3.992 0 1 0 0-7.984 3.992 3.992 0 0 0 0 7.983z" clip-path="url(#p7f7cf6f04f)" style="fill:#cdff00"/><path id="patch_226" d="M320.155 153.345a2.661 2.661 0 1 0 0-5.323 2.661 2.661 0 0 0 0 5.323z" clip-path="url(#p7f7cf6f04f)" style="fill:#00ff8c"/><path id="patch_227" d="M322.065 114.96a1.996 1.996 0 1 0 0-3.992 1.996 1.996 0 0 0 0 3.992z" clip-path="url(#p7f7cf6f04f)" style="fill:#ff00bf"/><path id="patch_228" d="M108.16 90.58a7.984 7.984 0 1 0 0-15.967 7.984 7.984 0 0 0 0 15.967z" clip-path="url(#p7f7cf6f04f)" style="fill:#ff0029"/><path id="patch_229" d="M318.805 89.132a5.988 5.988 0 1 0 0-11.975 5.988 5.988 0 0 0 0 11.975z" clip-path="url(#p7f7cf6f04f)" style="fill:#0018ff"/><path id="patch_230" d="M313.748 152.883a3.992 3.992 0 1 0 0-7.984 3.992 3.992 0 0 0 0 7.984z" clip-path="url(#p7f7cf6f04f)" style="fill:#cdff00"/><path id="patch_231" d="M322.376 57.69a2.661 2.661 0 1 0 0-5.322 2.661 2.661 0 0 0 0 5.322z" clip-path="url(#p7f7cf6f04f)" style="fill:#00ff8c"/><path id="patch_232" d="M132.99 49.735a1.996 1.996 0 1 0 0-3.992 1.996 1.996 0 0 0 0 3.992z" clip-path="url(#p7f7cf6f04f)" style="fill:#ff00bf"/><path id="patch_233" d="M280.692 52.57a7.984 7.984 0 1 0 0-15.967 7.984 7.984 0 0 0 0 15.968z" clip-path="url(#p7f7cf6f04f)" style="fill:#ff0029"/><path id="patch_234" d="M322.188 100.62a5.988 5.988 0 1 0 0-11.976 5.988 5.988 0 0 0 0 11.976z" clip-path="url(#p7f7cf6f04f)" style="fill:#0018ff"/><path id="patch_235" d="M317.15 77.295a3.992 3.992 0 1 0 0-7.983 3.992 3.992 0 0 0 0 7.983z" clip-path="url(#p7f7cf6f04f)" style="fill:#cdff00"/><path id="patch_236" d="M274.483 38.421a2.661 2.661 0 1 0 0-5.322 2.661 2.661 0 0 0 0 5.322z" clip-path="url(#p7f7cf6f04f)" style="fill:#00ff8c"/><path id="patch_237" d="M349.395 109.187a1.996 1.996 0 1 0 0-3.992 1.996 1.996 0 0 0 0 3.992z" clip-path="url(#p7f7cf6f04f)" style="fill:#ff00bf"/><path id="patch_238" d="M250.532 36.703a7.984 7.984 0 1 0 0-15.968 7.984 7.984 0 0 0 0 15.968z" clip-path="url(#p7f7cf6f04f)" style="fill:#ff0029"/><path id="patch_239" d="M138.645 120.901a5.988 5.988 0 1 0 0-11.975 5.988 5.988 0 0 0 0 11.975z" clip-path="url(#p7f7cf6f04f)" style="fill:#0018ff"/><path id="patch_240" d="M135.305 140.494a3.992 3.992 0 1 0 0-7.983 3.992 3.992 0 0 0 0 7.983z" clip-path="url(#p7f7cf6f04f)" style="fill:#cdff00"/><path id="patch_241" d="M291.33 46.9a2.661 2.661 0 1 0 0-5.322 2.661 2.661 0 0 0 0 5.322z" clip-path="url(#p7f7cf6f04f)" style="fill:#00ff8c"/><path id="patch_242" d="M258.516 24.728a1.996 1.996 0 1 0 0-3.992 1.996 1.996 0 0 0 0 3.992z" clip-path="url(#p7f7cf6f04f)" style="fill:#ff00bf"/><path id="patch_243" d="M179.622 51.678a7.984 7.984 0 1 0 0-15.968 7.984 7.984 0 0 0 0 15.968z" clip-path="url(#p7f7cf6f04f)" style="fill:#ff0029"/><path id="patch_244" d="M130.989 151.488a5.988 5.988 0 1 0 0-11.976 5.988 5.988 0 0 0 0 11.976z" clip-path="url(#p7f7cf6f04f)" style="fill:#0018ff"/><path id="patch_245" d="M185.372 36.703a3.992 3.992 0 1 0 0-7.984 3.992 3.992 0 0 0 0 7.984z" clip-path="url(#p7f7cf6f04f)" style="fill:#cdff00"/><path id="patch_246" d="M270.076 41.406a2.661 2.661 0 1 0 0-5.323 2.661 2.661 0 0 0 0 5.323z" clip-path="url(#p7f7cf6f04f)" style="fill:#00ff8c"/><path id="patch_247" d="M151.686 39.214a1.996 1.996 0 1 0 0-3.992 1.996 1.996 0 0 0 0 3.992z" clip-path="url(#p7f7cf6f04f)" style="fill:#ff00bf"/><path id="patch_248" d="M148.147 70.393a7.984 7.984 0 1 0 0-15.968 7.984 7.984 0 0 0 0 15.968z" clip-path="url(#p7f7cf6f04f)" style="fill:#ff0029"/><path id="patch_249" d="M302.223 132.117a5.988 5.988 0 1 0 0-11.976 5.988 5.988 0 0 0 0 11.976z" clip-path="url(#p7f7cf6f04f)" style="fill:#0018ff"/><path id="patch_250" d="M193.356 28.72a3.992 3.992 0 1 0 0-7.984 3.992 3.992 0 0 0 0 7.983z" clip-path="url(#p7f7cf6f04f)" style="fill:#cdff00"/><path id="patch_251" d="M122.445 146.82a2.661 2.661 0 1 0 0-5.322 2.661 2.661 0 0 0 0 5.322z" clip-path="url(#p7f7cf6f04f)" style="fill:#00ff8c"/><path id="patch_252" d="M158.255 40.693a1.996 1.996 0 1 0 0-3.991 1.996 1.996 0 0 0 0 3.991z" clip-path="url(#p7f7cf6f04f)" style="fill:#ff00bf"/><path id="patch_253" d="M119.611 79.453a7.984 7.984 0 1 0 0-15.967 7.984 7.984 0 0 0 0 15.967z" clip-path="url(#p7f7cf6f04f)" style="fill:#ff0029"/><path id="patch_254" d="M310.548 97.806a5.988 5.988 0 1 0 0-11.976 5.988 5.988 0 0 0 0 11.976z" clip-path="url(#p7f7cf6f04f)" style="fill:#0018ff"/><path id="patch_255" d="M314.492 104.977a3.992 3.992 0 1 0 0-7.984 3.992 3.992 0 0 0 0 7.984z" clip-path="url(#p7f7cf6f04f)" style="fill:#cdff00"/><path id="patch_256" d="M123.277 152.077a2.661 2.661 0 1 0 0-5.322 2.661 2.661 0 0 0 0 5.322z" clip-path="url(#p7f7cf6f04f)" style="fill:#00ff8c"/><path id="patch_257" d="M136.445 51.777a1.996 1.996 0 1 0 0-3.992 1.996 1.996 0 0 0 0 3.992z" clip-path="url(#p7f7cf6f04f)" style="fill:#ff00bf"/><path id="patch_258" d="M305.977 85.594a7.984 7.984 0 1 0 0-15.968 7.984 7.984 0 0 0 0 15.968z" clip-path="url(#p7f7cf6f04f)" style="fill:#ff0029"/><path id="patch_259" d="M304.588 108.192a5.988 5.988 0 1 0 0-11.975 5.988 5.988 0 0 0 0 11.975z" clip-path="url(#p7f7cf6f04f)" style="fill:#0018ff"/><path id="patch_260" d="M300.09 120.372a3.992 3.992 0 1 0 0-7.984 3.992 3.992 0 0 0 0 7.984z" clip-path="url(#p7f7cf6f04f)" style="fill:#cdff00"/><path id="patch_261" d="M312.138 71.591a2.661 2.661 0 1 0 0-5.322 2.661 2.661 0 0 0 0 5.322z" clip-path="url(#p7f7cf6f04f)" style="fill:#00ff8c"/><path id="patch_262" d="M118.37 59.144a1.996 1.996 0 1 0 0-3.992 1.996 1.996 0 0 0 0 3.992z" clip-path="url(#p7f7cf6f04f)" style="fill:#ff00bf"/><path id="patch_263" d="M258.516 50.53a7.984 7.984 0 1 0 0-15.967 7.984 7.984 0 0 0 0 15.967z" clip-path="url(#p7f7cf6f04f)" style="fill:#ff0029"/><path id="patch_264" d="M236.705 32.711a5.988 5.988 0 1 0 0-11.976 5.988 5.988 0 0 0 0 11.976z" clip-path="url(#p7f7cf6f04f)" style="fill:#0018ff"/><path id="patch_265" d="M144.944 126.646a3.992 3.992 0 1 0 0-7.984 3.992 3.992 0 0 0 0 7.984z" clip-path="url(#p7f7cf6f04f)" style="fill:#cdff00"/><path id="patch_266" d="M131.849 112.226a2.661 2.661 0 1 0 0-5.322 2.661 2.661 0 0 0 0 5.322z" clip-path="url(#p7f7cf6f04f)" style="fill:#00ff8c"/><path id="patch_267" d="M320.23 111.415a1.996 1.996 0 1 0 0-3.992 1.996 1.996 0 0 0 0 3.992z" clip-path="url(#p7f7cf6f04f)" style="fill:#ff00bf"/><path id="patch_268" d="M147.133 142.616a7.984 7.984 0 1 0 0-15.968 7.984 7.984 0 0 0 0 15.968z" clip-path="url(#p7f7cf6f04f)" style="fill:#ff0029"/><path id="patch_269" d="M291.946 58.853a5.988 5.988 0 1 0 0-11.975 5.988 5.988 0 0 0 0 11.975z" clip-path="url(#p7f7cf6f04f)" style="fill:#0018ff"/><path id="patch_270" d="M126.377 109.773a3.992 3.992 0 1 0 0-7.984 3.992 3.992 0 0 0 0 7.984z" clip-path="url(#p7f7cf6f04f)" style="fill:#cdff00"/><path id="patch_271" d="M138.932 144.74a2.661 2.661 0 1 0 0-5.322 2.661 2.661 0 0 0 0 5.323z" clip-path="url(#p7f7cf6f04f)" style="fill:#00ff8c"/><path id="patch_272" d="M314.198 144.917a1.996 1.996 0 1 0 0-3.992 1.996 1.996 0 0 0 0 3.992z" clip-path="url(#p7f7cf6f04f)" style="fill:#ff00bf"/><path id="patch_273" d="M167.499 62.069a7.984 7.984 0 1 0 0-15.968 7.984 7.984 0 0 0 0 15.968z" clip-path="url(#p7f7cf6f04f)" style="fill:#ff0029"/><path id="patch_274" d="M302.409 144.09a5.988 5.988 0 1 0 0-11.975 5.988 5.988 0 0 0 0 11.975z" clip-path="url(#p7f7cf6f04f)" style="fill:#0018ff"/><path id="patch_275" d="M140.492 152.539a3.992 3.992 0 1 0 0-7.984 3.992 3.992 0 0 0 0 7.984z" clip-path="url(#p7f7cf6f04f)" style="fill:#cdff00"/><path id="patch_276" d="M157.208 59.484a2.661 2.661 0 1 0 0-5.322 2.661 2.661 0 0 0 0 5.322z" clip-path="url(#p7f7cf6f04f)" style="fill:#00ff8c"/><path id="patch_277" d="M317.732 57.36a1.996 1.996 0 1 0 0-3.992 1.996 1.996 0 0 0 0 3.992z" clip-path="url(#p7f7cf6f04f)" style="fill:#ff00bf"/><path id="patch_278" d="M204.646 36.703a7.984 7.984 0 1 0 0-15.968 7.984 7.984 0 0 0 0 15.968z" clip-path="url(#p7f7cf6f04f)" style="fill:#ff0029"/><path id="patch_279" d="M121.876 91.243a5.988 5.988 0 1 0 0-11.975 5.988 5.988 0 0 0 0 11.975z" clip-path="url(#p7f7cf6f04f)" style="fill:#0018ff"/><path id="patch_280" d="M311.882 60.635a3.992 3.992 0 1 0 0-7.984 3.992 3.992 0 0 0 0 7.984z" clip-path="url(#p7f7cf6f04f)" style="fill:#cdff00"/><path id="patch_281" d="M309.604 146.348a2.661 2.661 0 1 0 0-5.323 2.661 2.661 0 0 0 0 5.323z" clip-path="url(#p7f7cf6f04f)" style="fill:#00ff8c"/><path id="patch_282" d="M325.74 53.804a1.996 1.996 0 1 0 0-3.992 1.996 1.996 0 0 0 0 3.992z" clip-path="url(#p7f7cf6f04f)" style="fill:#ff00bf"/><path id="patch_283" d="M296.62 98.712a7.984 7.984 0 1 0 0-15.967 7.984 7.984 0 0 0 0 15.967z" clip-path="url(#p7f7cf6f04f)" style="fill:#ff0029"/><path id="patch_284" d="M291.329 127.144a5.988 5.988 0 1 0 0-11.975 5.988 5.988 0 0 0 0 11.975z" clip-path="url(#p7f7cf6f04f)" style="fill:#0018ff"/><path id="patch_285" d="M306.355 69.633a3.992 3.992 0 1 0 0-7.984 3.992 3.992 0 0 0 0 7.984z" clip-path="url(#p7f7cf6f04f)" style="fill:#cdff00"/><path id="patch_286" d="M158.78 64.57a2.661 2.661 0 1 0 0-5.323 2.661 2.661 0 0 0 0 5.322z" clip-path="url(#p7f7cf6f04f)" style="fill:#00ff8c"/><path id="patch_287" d="M139.404 59.594a1.996 1.996 0 1 0 0-3.992 1.996 1.996 0 0 0 0 3.992z" clip-path="url(#p7f7cf6f04f)" style="fill:#ff00bf"/><path id="patch_288" d="M242.55 50.53a7.984 7.984 0 1 0-.001-15.967 7.984 7.984 0 0 0 0 15.967z" clip-path="url(#p7f7cf6f04f)" style="fill:#ff0029"/><path id="patch_289" d="M293.052 115.294a5.988 5.988 0 1 0 0-11.976 5.988 5.988 0 0 0 0 11.976z" clip-path="url(#p7f7cf6f04f)" style="fill:#0018ff"/><path id="patch_290" d="M294.333 136.232a3.992 3.992 0 1 0 0-7.984 3.992 3.992 0 0 0 0 7.984z" clip-path="url(#p7f7cf6f04f)" style="fill:#cdff00"/><path id="patch_291" d="M115.118 93.314a2.661 2.661 0 1 0 0-5.323 2.661 2.661 0 0 0 0 5.323z" clip-path="url(#p7f7cf6f04f)" style="fill:#00ff8c"/><path id="patch_292" d="M320.312 104.388a1.996 1.996 0 1 0 0-3.992 1.996 1.996 0 0 0 0 3.992z" clip-path="url(#p7f7cf6f04f)" style="fill:#ff00bf"/><path id="patch_293" d="M222.877 36.703a7.984 7.984 0 1 0 0-15.968 7.984 7.984 0 0 0 0 15.968z" clip-path="url(#p7f7cf6f04f)" style="fill:#ff0029"/><path id="patch_294" d="M296.52 73.315a5.988 5.988 0 1 0-.001-11.976 5.988 5.988 0 0 0 0 11.976z" clip-path="url(#p7f7cf6f04f)" style="fill:#0018ff"/><path id="patch_295" d="M193.356 36.703a3.992 3.992 0 1 0 0-7.984 3.992 3.992 0 0 0 0 7.984z" clip-path="url(#p7f7cf6f04f)" style="fill:#cdff00"/><path id="patch_296" d="M119.557 96.249a2.661 2.661 0 1 0 0-5.322 2.661 2.661 0 0 0 0 5.322z" clip-path="url(#p7f7cf6f04f)" style="fill:#00ff8c"/><path id="patch_297" d="M311.512 108.174a1.996 1.996 0 1 0 0-3.992 1.996 1.996 0 0 0 0 3.992z" clip-path="url(#p7f7cf6f04f)" style="fill:#ff00bf"/><path id="patch_298" d="M152.533 121.375a7.984 7.984 0 1 0 0-15.968 7.984 7.984 0 0 0 0 15.968z" clip-path="url(#p7f7cf6f04f)" style="fill:#ff0029"/><path id="patch_299" d="M127.978 101.547a5.988 5.988 0 1 0 0-11.976 5.988 5.988 0 0 0 0 11.976z" clip-path="url(#p7f7cf6f04f)" style="fill:#0018ff"/><path id="patch_300" d="M305.768 153.113a3.992 3.992 0 1 0 0-7.983 3.992 3.992 0 0 0 0 7.983z" clip-path="url(#p7f7cf6f04f)" style="fill:#cdff00"/><path id="patch_301" d="M132.872 107.004a2.661 2.661 0 1 0 0-5.323 2.661 2.661 0 0 0 0 5.323z" clip-path="url(#p7f7cf6f04f)" style="fill:#00ff8c"/><path id="patch_302" d="M303.347 113.352a1.996 1.996 0 1 0 0-3.992 1.996 1.996 0 0 0 0 3.992z" clip-path="url(#p7f7cf6f04f)" style="fill:#ff00bf"/><path id="patch_303" d="M280.277 68.532a7.984 7.984 0 1 0 0-15.968 7.984 7.984 0 0 0 0 15.968z" clip-path="url(#p7f7cf6f04f)" style="fill:#ff0029"/><path id="patch_304" d="M142.568 109.587a5.988 5.988 0 1 0 0-11.976 5.988 5.988 0 0 0 0 11.976z" clip-path="url(#p7f7cf6f04f)" style="fill:#0018ff"/><path id="patch_305" d="M232.54 39.784a3.992 3.992 0 1 0 0-7.984 3.992 3.992 0 0 0 0 7.984z" clip-path="url(#p7f7cf6f04f)" style="fill:#cdff00"/><path id="patch_306" d="M151.463 126.643a2.661 2.661 0 1 0 0-5.322 2.661 2.661 0 0 0 0 5.322z" clip-path="url(#p7f7cf6f04f)" style="fill:#00ff8c"/><path id="patch_307" d="M119.396 63.002a1.996 1.996 0 1 0 0-3.992 1.996 1.996 0 0 0 0 3.992z" clip-path="url(#p7f7cf6f04f)" style="fill:#ff00bf"/><path id="patch_308" d="M182.559 67.372a7.984 7.984 0 1 0 0-15.968 7.984 7.984 0 0 0 0 15.968z" clip-path="url(#p7f7cf6f04f)" style="fill:#ff0029"/><path id="patch_309" d="M269.023 58.257a5.988 5.988 0 1 0 0-11.975 5.988 5.988 0 0 0 0 11.975z" clip-path="url(#p7f7cf6f04f)" style="fill:#0018ff"/><path id="patch_310" d="M301.971 62.96a3.992 3.992 0 1 0 0-7.983 3.992 3.992 0 0 0 0 7.984z" clip-path="url(#p7f7cf6f04f)" style="fill:#cdff00"/><path id="patch_311" d="M295.469 78.573a2.661 2.661 0 1 0 0-5.322 2.661 2.661 0 0 0 0 5.322z" clip-path="url(#p7f7cf6f04f)" style="fill:#00ff8c"/><path id="patch_312" d="M121.037 110.486a1.996 1.996 0 1 0 0-3.992 1.996 1.996 0 0 0 0 3.992z" clip-path="url(#p7f7cf6f04f)" style="fill:#ff00bf"/><path id="patch_313" d="M134.02 86.332a7.984 7.984 0 1 0 0-15.967 7.984 7.984 0 0 0 0 15.967z" clip-path="url(#p7f7cf6f04f)" style="fill:#ff0029"/><path id="patch_314" d="M286.935 80.495a5.988 5.988 0 1 0 0-11.976 5.988 5.988 0 0 0 0 11.976z" clip-path="url(#p7f7cf6f04f)" style="fill:#0018ff"/><path id="patch_315" d="M158.427 72.543a3.992 3.992 0 1 0 0-7.984 3.992 3.992 0 0 0 0 7.984z" clip-path="url(#p7f7cf6f04f)" style="fill:#cdff00"/><path id="patch_316" d="M129.85 71.217a2.661 2.661 0 1 0 0-5.323 2.661 2.661 0 0 0 0 5.323z" clip-path="url(#p7f7cf6f04f)" style="fill:#00ff8c"/><path id="patch_317" d="M212.63 24.728a1.996 1.996 0 1 0 0-3.992 1.996 1.996 0 0 0 0 3.992z" clip-path="url(#p7f7cf6f04f)" style="fill:#ff00bf"/><path id="patch_318" d="M250.532 64.358a7.984 7.984 0 1 0 0-15.968 7.984 7.984 0 0 0 0 15.968z" clip-path="url(#p7f7cf6f04f)" style="fill:#ff0029"/><path id="patch_319" d="M281.928 119.727a5.988 5.988 0 1 0 0-11.976 5.988 5.988 0 0 0 0 11.976z" clip-path="url(#p7f7cf6f04f)" style="fill:#0018ff"/><path id="patch_320" d="M136.2 70.566a3.992 3.992 0 1 0 0-7.984 3.992 3.992 0 0 0 0 7.984z" clip-path="url(#p7f7cf6f04f)" style="fill:#cdff00"/><path id="patch_321" d="M293.03 83.304a2.661 2.661 0 1 0 0-5.322 2.661 2.661 0 0 0 0 5.322z" clip-path="url(#p7f7cf6f04f)" style="fill:#00ff8c"/><path id="patch_322" d="M296.746 102.703a1.996 1.996 0 1 0 0-3.992 1.996 1.996 0 0 0 0 3.992z" clip-path="url(#p7f7cf6f04f)" style="fill:#ff00bf"/><path id="patch_323" d="M289.379 151.125a7.984 7.984 0 1 0 0-15.967 7.984 7.984 0 0 0 0 15.967z" clip-path="url(#p7f7cf6f04f)" style="fill:#ff0029"/><path id="patch_324" d="M198.497 47.252a5.988 5.988 0 1 0 0-11.976 5.988 5.988 0 0 0 0 11.976z" clip-path="url(#p7f7cf6f04f)" style="fill:#0018ff"/><path id="patch_325" d="M189.864 53.891a3.992 3.992 0 1 0 0-7.984 3.992 3.992 0 0 0 0 7.984z" clip-path="url(#p7f7cf6f04f)" style="fill:#cdff00"/><path id="patch_326" d="M163.538 66.954a2.661 2.661 0 1 0 0-5.323 2.661 2.661 0 0 0 0 5.323z" clip-path="url(#p7f7cf6f04f)" style="fill:#00ff8c"/><path id="patch_327" d="M110.738 94.233a1.996 1.996 0 1 0 0-3.992 1.996 1.996 0 0 0 0 3.992z" clip-path="url(#p7f7cf6f04f)" style="fill:#ff00bf"/><path id="patch_328" d="M155.209 105.634a7.984 7.984 0 1 0 0-15.967 7.984 7.984 0 0 0 0 15.967z" clip-path="url(#p7f7cf6f04f)" style="fill:#ff0029"/><path id="patch_329" d="M142.605 97.612a5.988 5.988 0 1 0 0-11.975 5.988 5.988 0 0 0 0 11.975z" clip-path="url(#p7f7cf6f04f)" style="fill:#0018ff"/><path id="patch_330" d="M172.064 69.147a3.992 3.992 0 1 0 0-7.983 3.992 3.992 0 0 0 0 7.983z" clip-path="url(#p7f7cf6f04f)" style="fill:#cdff00"/><path id="patch_331" d="M141.42 73.36a2.661 2.661 0 1 0 0-5.323 2.661 2.661 0 0 0 0 5.322z" clip-path="url(#p7f7cf6f04f)" style="fill:#00ff8c"/><path id="patch_332" d="M318.134 107.733a1.996 1.996 0 1 0 0-3.992 1.996 1.996 0 0 0 0 3.992z" clip-path="url(#p7f7cf6f04f)" style="fill:#ff00bf"/><path id="patch_333" d="M224.438 52.593a7.984 7.984 0 1 0 0-15.967 7.984 7.984 0 0 0 0 15.967z" clip-path="url(#p7f7cf6f04f)" style="fill:#ff0029"/><path id="patch_334" d="M236.612 61.18a5.988 5.988 0 1 0 0-11.975 5.988 5.988 0 0 0 0 11.976z" clip-path="url(#p7f7cf6f04f)" style="fill:#0018ff"/><path id="patch_335" d="M286.38 135.54a3.992 3.992 0 1 0 0-7.984 3.992 3.992 0 0 0 0 7.984z" clip-path="url(#p7f7cf6f04f)" style="fill:#cdff00"/><path id="patch_336" d="M288.284 85.711a2.661 2.661 0 1 0 0-5.322 2.661 2.661 0 0 0 0 5.322z" clip-path="url(#p7f7cf6f04f)" style="fill:#00ff8c"/><path id="patch_337" d="M129.47 89.712a1.996 1.996 0 1 0 0-3.991 1.996 1.996 0 0 0 0 3.991z" clip-path="url(#p7f7cf6f04f)" style="fill:#ff00bf"/><path id="patch_338" d="M161.836 134.351a7.984 7.984 0 1 0 0-15.967 7.984 7.984 0 0 0 0 15.967z" clip-path="url(#p7f7cf6f04f)" style="fill:#ff0029"/><path id="patch_339" d="M210.47 47.406a5.988 5.988 0 1 0 0-11.976 5.988 5.988 0 0 0 0 11.976z" clip-path="url(#p7f7cf6f04f)" style="fill:#0018ff"/><path id="patch_340" d="M281.683 127.707a3.992 3.992 0 1 0 0-7.984 3.992 3.992 0 0 0 0 7.984z" clip-path="url(#p7f7cf6f04f)" style="fill:#cdff00"/><path id="patch_341" d="M292.102 103.028a2.661 2.661 0 1 0 0-5.323 2.661 2.661 0 0 0 0 5.323z" clip-path="url(#p7f7cf6f04f)" style="fill:#00ff8c"/><path id="patch_342" d="M290.255 62.664a1.996 1.996 0 1 0 0-3.992 1.996 1.996 0 0 0 0 3.992z" clip-path="url(#p7f7cf6f04f)" style="fill:#ff00bf"/><path id="patch_343" d="M265.163 73.68a7.984 7.984 0 1 0 0-15.967 7.984 7.984 0 0 0 0 15.967z" clip-path="url(#p7f7cf6f04f)" style="fill:#ff0029"/><path id="patch_344" d="M147.864 82.455a5.988 5.988 0 1 0 0-11.976 5.988 5.988 0 0 0 0 11.976z" clip-path="url(#p7f7cf6f04f)" style="fill:#0018ff"/><path id="patch_345" d="M284.534 108.098a3.992 3.992 0 1 0 0-7.984 3.992 3.992 0 0 0 0 7.984z" clip-path="url(#p7f7cf6f04f)" style="fill:#cdff00"/><path id="patch_346" d="M299.554 148.928a2.661 2.661 0 1 0 0-5.323 2.661 2.661 0 0 0 0 5.323z" clip-path="url(#p7f7cf6f04f)" style="fill:#00ff8c"/><path id="patch_347" d="M270.713 46.463a1.996 1.996 0 1 0 0-3.992 1.996 1.996 0 0 0 0 3.992z" clip-path="url(#p7f7cf6f04f)" style="fill:#ff00bf"/><path id="patch_348" d="M198.482 66.197a7.984 7.984 0 1 0 0-15.968 7.984 7.984 0 0 0 0 15.968z" clip-path="url(#p7f7cf6f04f)" style="fill:#ff0029"/><path id="patch_349" d="M165.174 113.43a5.988 5.988 0 1 0 0-11.975 5.988 5.988 0 0 0 0 11.975z" clip-path="url(#p7f7cf6f04f)" style="fill:#0018ff"/><path id="patch_350" d="M151.107 90.392a3.992 3.992 0 1 0 0-7.984 3.992 3.992 0 0 0 0 7.984z" clip-path="url(#p7f7cf6f04f)" style="fill:#cdff00"/><path id="patch_351" d="M190.267 41.265a2.661 2.661 0 1 0 0-5.323 2.661 2.661 0 0 0 0 5.323z" clip-path="url(#p7f7cf6f04f)" style="fill:#00ff8c"/><path id="patch_352" d="M288.561 68.687a1.996 1.996 0 1 0 0-3.992 1.996 1.996 0 0 0 0 3.992z" clip-path="url(#p7f7cf6f04f)" style="fill:#ff00bf"/><path id="patch_353" d="M178.962 82.928a7.984 7.984 0 1 0 0-15.967 7.984 7.984 0 0 0 0 15.967z" clip-path="url(#p7f7cf6f04f)" style="fill:#ff0029"/><path id="patch_354" d="M240.81 72.396a5.988 5.988 0 1 0 0-11.976 5.988 5.988 0 0 0 0 11.976z" clip-path="url(#p7f7cf6f04f)" style="fill:#0018ff"/><path id="patch_355" d="M275.598 75.563a3.992 3.992 0 1 0 0-7.983 3.992 3.992 0 0 0 0 7.983z" clip-path="url(#p7f7cf6f04f)" style="fill:#cdff00"/><path id="patch_356" d="M165.025 72.064a2.661 2.661 0 1 0 0-5.322 2.661 2.661 0 0 0 0 5.322z" clip-path="url(#p7f7cf6f04f)" style="fill:#00ff8c"/><path id="patch_357" d="M259.71 54.45a1.996 1.996 0 1 0 0-3.992 1.996 1.996 0 0 0 0 3.992z" clip-path="url(#p7f7cf6f04f)" style="fill:#ff00bf"/><path id="patch_358" d="M275.191 143.8a7.984 7.984 0 1 0 0-15.968 7.984 7.984 0 0 0 0 15.968z" clip-path="url(#p7f7cf6f04f)" style="fill:#ff0029"/><path id="patch_359" d="M272.174 126.675a5.988 5.988 0 1 0 0-11.976 5.988 5.988 0 0 0 0 11.976z" clip-path="url(#p7f7cf6f04f)" style="fill:#0018ff"/><path id="patch_360" d="M191.178 71.694a3.992 3.992 0 1 0 0-7.984 3.992 3.992 0 0 0 0 7.984z" clip-path="url(#p7f7cf6f04f)" style="fill:#cdff00"/><path id="patch_361" d="M106.153 95.711a2.661 2.661 0 1 0 0-5.322 2.661 2.661 0 0 0 0 5.322z" clip-path="url(#p7f7cf6f04f)" style="fill:#00ff8c"/><path id="patch_362" d="M189.598 45.914a1.996 1.996 0 1 0 0-3.992 1.996 1.996 0 0 0 0 3.992z" clip-path="url(#p7f7cf6f04f)" style="fill:#ff00bf"/><path id="patch_363" d="M277.84 93.096a7.984 7.984 0 1 0 0-15.967 7.984 7.984 0 0 0 0 15.967z" clip-path="url(#p7f7cf6f04f)" style="fill:#ff0029"/><path id="patch_364" d="M274.557 110.288a5.988 5.988 0 1 0 0-11.975 5.988 5.988 0 0 0 0 11.975z" clip-path="url(#p7f7cf6f04f)" style="fill:#0018ff"/><path id="patch_365" d="M250.6 72.341a3.992 3.992 0 1 0-.001-7.984 3.992 3.992 0 0 0 0 7.984z" clip-path="url(#p7f7cf6f04f)" style="fill:#cdff00"/><path id="patch_366" d="M133.874 91.893a2.661 2.661 0 1 0 0-5.323 2.661 2.661 0 0 0 0 5.323z" clip-path="url(#p7f7cf6f04f)" style="fill:#00ff8c"/><path id="patch_367" d="M137.306 99.592a1.996 1.996 0 1 0 0-3.992 1.996 1.996 0 0 0 0 3.992z" clip-path="url(#p7f7cf6f04f)" style="fill:#ff00bf"/><path id="patch_368" d="M170.9 102.683a7.984 7.984 0 1 0 0-15.968 7.984 7.984 0 0 0 0 15.968z" clip-path="url(#p7f7cf6f04f)" style="fill:#ff0029"/><path id="patch_369" d="M228.999 70.425a5.988 5.988 0 1 0 0-11.976 5.988 5.988 0 0 0 0 11.976z" clip-path="url(#p7f7cf6f04f)" style="fill:#0018ff"/><path id="patch_370" d="M159.09 90.314a3.992 3.992 0 1 0 0-7.984 3.992 3.992 0 0 0 0 7.984z" clip-path="url(#p7f7cf6f04f)" style="fill:#cdff00"/><path id="patch_371" d="M204.403 50.243a2.661 2.661 0 1 0 0-5.323 2.661 2.661 0 0 0 0 5.323z" clip-path="url(#p7f7cf6f04f)" style="fill:#00ff8c"/><path id="patch_372" d="M217.699 39.245a1.996 1.996 0 1 0 0-3.991 1.996 1.996 0 0 0 0 3.991z" clip-path="url(#p7f7cf6f04f)" style="fill:#ff00bf"/><path id="patch_373" d="M201.42 81.891a7.984 7.984 0 1 0 0-15.967 7.984 7.984 0 0 0 0 15.967z" clip-path="url(#p7f7cf6f04f)" style="fill:#ff0029"/><path id="patch_374" d="M245.995 83.19a5.988 5.988 0 1 0 0-11.975 5.988 5.988 0 0 0 0 11.975z" clip-path="url(#p7f7cf6f04f)" style="fill:#0018ff"/><path id="patch_375" d="M162.36 79.49a3.992 3.992 0 1 0 0-7.983 3.992 3.992 0 0 0 0 7.983z" clip-path="url(#p7f7cf6f04f)" style="fill:#cdff00"/><path id="patch_376" d="M288 99.636a2.661 2.661 0 1 0 0-5.323 2.661 2.661 0 0 0 0 5.323z" clip-path="url(#p7f7cf6f04f)" style="fill:#00ff8c"/><path id="patch_377" d="M233.978 49.653a1.996 1.996 0 1 0 0-3.992 1.996 1.996 0 0 0 0 3.992z" clip-path="url(#p7f7cf6f04f)" style="fill:#ff00bf"/><path id="patch_378" d="M179.113 116.376a7.984 7.984 0 1 0 0-15.968 7.984 7.984 0 0 0 0 15.968z" clip-path="url(#p7f7cf6f04f)" style="fill:#ff0029"/><path id="patch_379" d="M233.198 81.64a5.988 5.988 0 1 0 0-11.976 5.988 5.988 0 0 0 0 11.975z" clip-path="url(#p7f7cf6f04f)" style="fill:#0018ff"/><path id="patch_380" d="M278.19 151.402a3.992 3.992 0 1 0 0-7.984 3.992 3.992 0 0 0 0 7.984z" clip-path="url(#p7f7cf6f04f)" style="fill:#cdff00"/><path id="patch_381" d="M296.77 153.463a2.661 2.661 0 1 0 0-5.322 2.661 2.661 0 0 0 0 5.322z" clip-path="url(#p7f7cf6f04f)" style="fill:#00ff8c"/><path id="patch_382" d="M162.05 118.387a1.996 1.996 0 1 0 0-3.992 1.996 1.996 0 0 0 0 3.992z" clip-path="url(#p7f7cf6f04f)" style="fill:#ff00bf"/><path id="patch_383" d="M213.543 71.5a7.984 7.984 0 1 0 0-15.967 7.984 7.984 0 0 0 0 15.967z" clip-path="url(#p7f7cf6f04f)" style="fill:#ff0029"/><path id="patch_384" d="M184.84 101.637a5.988 5.988 0 1 0-.001-11.976 5.988 5.988 0 0 0 0 11.976z" clip-path="url(#p7f7cf6f04f)" style="fill:#0018ff"/><path id="patch_385" d="M281.2 100.845a3.992 3.992 0 1 0-.001-7.984 3.992 3.992 0 0 0 0 7.984z" clip-path="url(#p7f7cf6f04f)" style="fill:#cdff00"/><path id="patch_386" d="M270.006 77.837a2.661 2.661 0 1 0 0-5.323 2.661 2.661 0 0 0 0 5.323z" clip-path="url(#p7f7cf6f04f)" style="fill:#00ff8c"/><path id="patch_387" d="M213.172 35.901a1.996 1.996 0 1 0 0-3.992 1.996 1.996 0 0 0 0 3.992z" clip-path="url(#p7f7cf6f04f)" style="fill:#ff00bf"/><path id="patch_388" d="M216.48 87.194a7.984 7.984 0 1 0 0-15.967 7.984 7.984 0 0 0 0 15.967z" clip-path="url(#p7f7cf6f04f)" style="fill:#ff0029"/><path id="patch_389" d="M192.604 110.753a5.988 5.988 0 1 0 0-11.976 5.988 5.988 0 0 0 0 11.976z" clip-path="url(#p7f7cf6f04f)" style="fill:#0018ff"/><path id="patch_390" d="M209.866 55.37a3.992 3.992 0 1 0 0-7.983 3.992 3.992 0 0 0 0 7.984z" clip-path="url(#p7f7cf6f04f)" style="fill:#cdff00"/><path id="patch_391" d="M227.988 58.509a2.661 2.661 0 1 0 0-5.323 2.661 2.661 0 0 0 0 5.323z" clip-path="url(#p7f7cf6f04f)" style="fill:#00ff8c"/><path id="patch_392" d="M262.078 58.202a1.996 1.996 0 1 0 0-3.992 1.996 1.996 0 0 0 0 3.992z" clip-path="url(#p7f7cf6f04f)" style="fill:#ff00bf"/><path id="patch_393" d="M261.207 89.149a7.984 7.984 0 1 0 0-15.967 7.984 7.984 0 0 0 0 15.967z" clip-path="url(#p7f7cf6f04f)" style="fill:#ff0029"/><path id="patch_394" d="M205.141 93.361a5.988 5.988 0 1 0 0-11.975 5.988 5.988 0 0 0 0 11.975z" clip-path="url(#p7f7cf6f04f)" style="fill:#0018ff"/><path id="patch_395" d="M170.01 120.164a3.992 3.992 0 1 0-.001-7.984 3.992 3.992 0 0 0 0 7.984z" clip-path="url(#p7f7cf6f04f)" style="fill:#cdff00"/><path id="patch_396" d="M190.784 77.005a2.661 2.661 0 1 0 0-5.323 2.661 2.661 0 0 0 0 5.323z" clip-path="url(#p7f7cf6f04f)" style="fill:#00ff8c"/><path id="patch_397" d="M142.966 84.768a1.996 1.996 0 1 0 0-3.992 1.996 1.996 0 0 0 0 3.992z" clip-path="url(#p7f7cf6f04f)" style="fill:#ff00bf"/><path id="patch_398" d="M191.326 126.66a7.984 7.984 0 1 0 0-15.967 7.984 7.984 0 0 0 0 15.968z" clip-path="url(#p7f7cf6f04f)" style="fill:#ff0029"/><path id="patch_399" d="M193.346 91.297a5.988 5.988 0 1 0 0-11.976 5.988 5.988 0 0 0 0 11.976z" clip-path="url(#p7f7cf6f04f)" style="fill:#0018ff"/><path id="patch_400" d="M270.237 150.71a3.992 3.992 0 1 0 0-7.984 3.992 3.992 0 0 0 0 7.984z" clip-path="url(#p7f7cf6f04f)" style="fill:#cdff00"/><path id="patch_401" d="M286.054 94.682a2.661 2.661 0 1 0 0-5.322 2.661 2.661 0 0 0 0 5.322z" clip-path="url(#p7f7cf6f04f)" style="fill:#00ff8c"/><path id="patch_402" d="M169.91 72.738a1.996 1.996 0 1 0 0-3.991 1.996 1.996 0 0 0 0 3.991z" clip-path="url(#p7f7cf6f04f)" style="fill:#ff00bf"/><path id="patch_403" d="M216.73 103.16a7.984 7.984 0 1 0 0-15.968 7.984 7.984 0 0 0 0 15.967z" clip-path="url(#p7f7cf6f04f)" style="fill:#ff0029"/><path id="patch_404" d="M203.356 105.202a5.988 5.988 0 1 0 0-11.975 5.988 5.988 0 0 0 0 11.975z" clip-path="url(#p7f7cf6f04f)" style="fill:#0018ff"/><path id="patch_405" d="M180.004 90.911a3.992 3.992 0 1 0 0-7.984 3.992 3.992 0 0 0 0 7.984z" clip-path="url(#p7f7cf6f04f)" style="fill:#cdff00"/><path id="patch_406" d="M225.254 74.894a2.661 2.661 0 1 0 0-5.322 2.661 2.661 0 0 0 0 5.322z" clip-path="url(#p7f7cf6f04f)" style="fill:#00ff8c"/><path id="patch_407" d="M273.987 114.908a1.996 1.996 0 1 0 0-3.992 1.996 1.996 0 0 0 0 3.992z" clip-path="url(#p7f7cf6f04f)" style="fill:#ff00bf"/><path id="patch_408" d="M259.953 148.566a7.984 7.984 0 1 0 0-15.967 7.984 7.984 0 0 0 0 15.967z" clip-path="url(#p7f7cf6f04f)" style="fill:#ff0029"/><path id="patch_409" d="M228.069 93a5.988 5.988 0 1 0 0-11.975 5.988 5.988 0 0 0 0 11.976z" clip-path="url(#p7f7cf6f04f)" style="fill:#0018ff"/><path id="patch_410" d="M176.922 124.157a3.992 3.992 0 1 0 0-7.984 3.992 3.992 0 0 0 0 7.984z" clip-path="url(#p7f7cf6f04f)" style="fill:#cdff00"/><path id="patch_411" d="M274.655 98.314a2.661 2.661 0 1 0 0-5.322 2.661 2.661 0 0 0 0 5.322z" clip-path="url(#p7f7cf6f04f)" style="fill:#00ff8c"/><path id="patch_412" d="M102.195 92.592a1.996 1.996 0 1 0 0-3.992 1.996 1.996 0 0 0 0 3.992z" clip-path="url(#p7f7cf6f04f)" style="fill:#ff00bf"/><path id="patch_413" d="M211.785 118.34a7.984 7.984 0 1 0 0-15.967 7.984 7.984 0 0 0 0 15.967z" clip-path="url(#p7f7cf6f04f)" style="fill:#ff0029"/><path id="patch_414" d="M266.01 101.9a5.988 5.988 0 1 0 0-11.975 5.988 5.988 0 0 0 0 11.975z" clip-path="url(#p7f7cf6f04f)" style="fill:#0018ff"/><path id="patch_415" d="M264.908 133.673a3.992 3.992 0 1 0 0-7.984 3.992 3.992 0 0 0 0 7.984z" clip-path="url(#p7f7cf6f04f)" style="fill:#cdff00"/><path id="patch_416" d="M193.473 98.821a2.661 2.661 0 1 0 0-5.322 2.661 2.661 0 0 0 0 5.322z" clip-path="url(#p7f7cf6f04f)" style="fill:#00ff8c"/><path id="patch_417" d="M155.055 83.894a1.996 1.996 0 1 0 0-3.992 1.996 1.996 0 0 0 0 3.992z" clip-path="url(#p7f7cf6f04f)" style="fill:#ff00bf"/><path id="patch_418" d="M231.79 108.463a7.984 7.984 0 1 0 0-15.968 7.984 7.984 0 0 0 0 15.968z" clip-path="url(#p7f7cf6f04f)" style="fill:#ff0029"/><path id="patch_419" d="M239.865 95.065a5.988 5.988 0 1 0 0-11.976 5.988 5.988 0 0 0 0 11.976z" clip-path="url(#p7f7cf6f04f)" style="fill:#0018ff"/><path id="patch_420" d="M264.692 109.796a3.992 3.992 0 1 0 0-7.984 3.992 3.992 0 0 0 0 7.984z" clip-path="url(#p7f7cf6f04f)" style="fill:#cdff00"/><path id="patch_421" d="M223.15 60.727a2.661 2.661 0 1 0 0-5.322 2.661 2.661 0 0 0 0 5.322z" clip-path="url(#p7f7cf6f04f)" style="fill:#00ff8c"/><path id="patch_422" d="M253.191 75.743a1.996 1.996 0 1 0 0-3.992 1.996 1.996 0 0 0 0 3.992z" clip-path="url(#p7f7cf6f04f)" style="fill:#ff00bf"/><path id="patch_423" d="M253.523 133.952a7.984 7.984 0 1 0 0-15.968 7.984 7.984 0 0 0 0 15.968z" clip-path="url(#p7f7cf6f04f)" style="fill:#ff0029"/><path id="patch_424" d="M245.729 105.506a5.988 5.988 0 1 0 0-11.975 5.988 5.988 0 0 0 0 11.975z" clip-path="url(#p7f7cf6f04f)" style="fill:#0018ff"/><path id="patch_425" d="M257.861 105.664a3.992 3.992 0 1 0 0-7.984 3.992 3.992 0 0 0 0 7.984z" clip-path="url(#p7f7cf6f04f)" style="fill:#cdff00"/><path id="patch_426" d="M198.648 113.613a2.661 2.661 0 1 0 0-5.323 2.661 2.661 0 0 0 0 5.323z" clip-path="url(#p7f7cf6f04f)" style="fill:#00ff8c"/><path id="patch_427" d="M156.51 76.22a1.996 1.996 0 1 0 0-3.992 1.996 1.996 0 0 0 0 3.992z" clip-path="url(#p7f7cf6f04f)" style="fill:#ff00bf"/><path id="patch_428" d="M244.081 146.828a7.984 7.984 0 1 0 0-15.968 7.984 7.984 0 0 0 0 15.968z" clip-path="url(#p7f7cf6f04f)" style="fill:#ff0029"/><path id="patch_429" d="M256.542 117.551a5.988 5.988 0 1 0 0-11.975 5.988 5.988 0 0 0 0 11.975z" clip-path="url(#p7f7cf6f04f)" style="fill:#0018ff"/><path id="patch_430" d="M249.757 94.38a3.992 3.992 0 1 0 0-7.983 3.992 3.992 0 0 0 0 7.983z" clip-path="url(#p7f7cf6f04f)" style="fill:#cdff00"/><path id="patch_431" d="M173.821 87.125a2.661 2.661 0 1 0 0-5.323 2.661 2.661 0 0 0 0 5.323z" clip-path="url(#p7f7cf6f04f)" style="fill:#00ff8c"/><path id="patch_432" d="M283.072 152.872a1.996 1.996 0 1 0 0-3.992 1.996 1.996 0 0 0 0 3.992z" clip-path="url(#p7f7cf6f04f)" style="fill:#ff00bf"/><path id="patch_433" d="M241.794 120.907a7.984 7.984 0 1 0 0-15.967 7.984 7.984 0 0 0 0 15.967z" clip-path="url(#p7f7cf6f04f)" style="fill:#ff0029"/><path id="patch_434" d="M227.856 119.872a5.988 5.988 0 1 0 0-11.976 5.988 5.988 0 0 0 0 11.976z" clip-path="url(#p7f7cf6f04f)" style="fill:#0018ff"/><path id="patch_435" d="M241.604 131.12a3.992 3.992 0 1 0 0-7.984 3.992 3.992 0 0 0 0 7.984z" clip-path="url(#p7f7cf6f04f)" style="fill:#cdff00"/><path id="patch_436" d="M269.347 115.175a2.661 2.661 0 1 0 0-5.323 2.661 2.661 0 0 0 0 5.323z" clip-path="url(#p7f7cf6f04f)" style="fill:#00ff8c"/><path id="patch_437" d="M220.896 72.258a1.996 1.996 0 1 0 0-3.992 1.996 1.996 0 0 0 0 3.992z" clip-path="url(#p7f7cf6f04f)" style="fill:#ff00bf"/><path id="patch_438" d="M230.236 138.875a7.984 7.984 0 1 0 0-15.967 7.984 7.984 0 0 0 0 15.967z" clip-path="url(#p7f7cf6f04f)" style="fill:#ff0029"/><path id="patch_439" d="M231.448 150.798a5.988 5.988 0 1 0 0-11.976 5.988 5.988 0 0 0 0 11.976z" clip-path="url(#p7f7cf6f04f)" style="fill:#0018ff"/><path id="patch_440" d="M251.045 152.578a3.992 3.992 0 1 0 0-7.984 3.992 3.992 0 0 0 0 7.984z" clip-path="url(#p7f7cf6f04f)" style="fill:#cdff00"/><path id="patch_441" d="M264.556 152.842a2.661 2.661 0 1 0 0-5.323 2.661 2.661 0 0 0 0 5.323z" clip-path="url(#p7f7cf6f04f)" style="fill:#00ff8c"/><path id="patch_442" d="M214.865 50.08a1.996 1.996 0 1 0 0-3.993 1.996 1.996 0 0 0 0 3.992z" clip-path="url(#p7f7cf6f04f)" style="fill:#ff00bf"/><path id="patch_443" d="M217.974 149.102a7.984 7.984 0 1 0 0-15.968 7.984 7.984 0 0 0 0 15.968z" clip-path="url(#p7f7cf6f04f)" style="fill:#ff0029"/><path id="patch_444" d="M216.761 133.188a5.988 5.988 0 1 0 0-11.976 5.988 5.988 0 0 0 0 11.976z" clip-path="url(#p7f7cf6f04f)" style="fill:#0018ff"/><path id="patch_445" d="M167.273 87.279a3.992 3.992 0 1 0 0-7.984 3.992 3.992 0 0 0 0 7.984z" clip-path="url(#p7f7cf6f04f)" style="fill:#cdff00"/><path id="patch_446" d="M220.952 107.609a2.661 2.661 0 1 0 0-5.323 2.661 2.661 0 0 0 0 5.323z" clip-path="url(#p7f7cf6f04f)" style="fill:#00ff8c"/><path id="patch_447" d="M257.384 73.944a1.996 1.996 0 1 0 0-3.992 1.996 1.996 0 0 0 0 3.992z" clip-path="url(#p7f7cf6f04f)" style="fill:#ff00bf"/><path id="patch_448" d="M204.128 141.15a7.984 7.984 0 1 0 0-15.968 7.984 7.984 0 0 0 0 15.967z" clip-path="url(#p7f7cf6f04f)" style="fill:#ff0029"/><path id="patch_449" d="M205.34 153.071a5.988 5.988 0 1 0 0-11.975 5.988 5.988 0 0 0 0 11.975z" clip-path="url(#p7f7cf6f04f)" style="fill:#0018ff"/><path id="patch_450" d="M208.284 125.927a3.992 3.992 0 1 0 0-7.984 3.992 3.992 0 0 0 0 7.984z" clip-path="url(#p7f7cf6f04f)" style="fill:#cdff00"/><path id="patch_451" d="M263.78 125.786a2.661 2.661 0 1 0 0-5.323 2.661 2.661 0 0 0 0 5.323z" clip-path="url(#p7f7cf6f04f)" style="fill:#00ff8c"/><path id="patch_452" d="M198.333 93.539a1.996 1.996 0 1 0 0-3.992 1.996 1.996 0 0 0 0 3.992z" clip-path="url(#p7f7cf6f04f)" style="fill:#ff00bf"/><path id="patch_453" d="M191.866 151.375a7.984 7.984 0 1 0 0-15.967 7.984 7.984 0 0 0 0 15.967z" clip-path="url(#p7f7cf6f04f)" style="fill:#ff0029"/><path id="patch_454" d="M192.28 135.416a3.992 3.992 0 1 0 0-7.984 3.992 3.992 0 0 0 0 7.984z" clip-path="url(#p7f7cf6f04f)" style="fill:#cdff00"/><path id="patch_455" d="M257.407 97.696a2.661 2.661 0 1 0 0-5.322 2.661 2.661 0 0 0 0 5.322z" clip-path="url(#p7f7cf6f04f)" style="fill:#00ff8c"/><path id="patch_456" d="M273.827 153.506a1.996 1.996 0 1 0 0-3.992 1.996 1.996 0 0 0 0 3.992z" clip-path="url(#p7f7cf6f04f)" style="fill:#ff00bf"/><path id="patch_457" d="M180.34 140.326a7.984 7.984 0 1 0 0-15.968 7.984 7.984 0 0 0 0 15.968z" clip-path="url(#p7f7cf6f04f)" style="fill:#ff0029"/><path id="patch_458" d="M178.169 152.13a5.988 5.988 0 1 0 0-11.975 5.988 5.988 0 0 0 0 11.976z" clip-path="url(#p7f7cf6f04f)" style="fill:#0018ff"/><path id="patch_459" d="M170.732 143.48a3.992 3.992 0 1 0 0-7.983 3.992 3.992 0 0 0 0 7.984z" clip-path="url(#p7f7cf6f04f)" style="fill:#cdff00"/><path id="patch_460" d="M201.473 118.123a2.661 2.661 0 1 0 0-5.322 2.661 2.661 0 0 0 0 5.322z" clip-path="url(#p7f7cf6f04f)" style="fill:#00ff8c"/><path id="patch_461" d="M168.988 76.622a1.996 1.996 0 1 0 0-3.992 1.996 1.996 0 0 0 0 3.992z" clip-path="url(#p7f7cf6f04f)" style="fill:#ff00bf"/><path id="patch_462" d="M168.233 151.063a3.992 3.992 0 1 0 0-7.984 3.992 3.992 0 0 0 0 7.984z" clip-path="url(#p7f7cf6f04f)" style="fill:#cdff00"/><path id="patch_463" d="M233.903 122.73a2.661 2.661 0 1 0 0-5.323 2.661 2.661 0 0 0 0 5.322z" clip-path="url(#p7f7cf6f04f)" style="fill:#00ff8c"/><path id="patch_464" d="M171.233 124.03a1.996 1.996 0 1 0 0-3.993 1.996 1.996 0 0 0 0 3.992z" clip-path="url(#p7f7cf6f04f)" style="fill:#ff00bf"/><path id="patch_465" d="M160.796 146.404a5.988 5.988 0 1 0 0-11.975 5.988 5.988 0 0 0 0 11.975z" clip-path="url(#p7f7cf6f04f)" style="fill:#0018ff"/><path id="patch_466" d="M265.097 118.378a2.661 2.661 0 1 0 0-5.323 2.661 2.661 0 0 0 0 5.323z" clip-path="url(#p7f7cf6f04f)" style="fill:#00ff8c"/><path id="patch_467" d="M202.34 109.13a1.996 1.996 0 1 0 0-3.993 1.996 1.996 0 0 0 0 3.992z" clip-path="url(#p7f7cf6f04f)" style="fill:#ff00bf"/><path id="patch_468" d="M239.33 151.03a2.661 2.661 0 1 0 0-5.322 2.661 2.661 0 0 0 0 5.323z" clip-path="url(#p7f7cf6f04f)" style="fill:#00ff8c"/><path id="patch_469" d="M158.732 82.341a1.996 1.996 0 1 0 0-3.992 1.996 1.996 0 0 0 0 3.992z" clip-path="url(#p7f7cf6f04f)" style="fill:#ff00bf"/><path id="patch_470" d="M257.287 153.55a2.661 2.661 0 1 0 0-5.323 2.661 2.661 0 0 0 0 5.322z" clip-path="url(#p7f7cf6f04f)" style="fill:#00ff8c"/><path id="patch_471" d="M252.638 106.596a1.996 1.996 0 1 0 0-3.992 1.996 1.996 0 0 0 0 3.992z" clip-path="url(#p7f7cf6f04f)" style="fill:#ff00bf"/><path id="patch_472" d="M216.429 55.131a2.661 2.661 0 1 0 0-5.323 2.661 2.661 0 0 0 0 5.323z" clip-path="url(#p7f7cf6f04f)" style="fill:#00ff8c"/><path id="patch_473" d="M252.69 97.605a1.996 1.996 0 1 0 0-3.992 1.996 1.996 0 0 0 0 3.992z" clip-path="url(#p7f7cf6f04f)" style="fill:#ff00bf"/><path id="patch_474" d="M224.3 152.34a2.661 2.661 0 1 0 0-5.323 2.661 2.661 0 0 0 0 5.323z" clip-path="url(#p7f7cf6f04f)" style="fill:#00ff8c"/><path id="patch_475" d="M246.826 87.164a1.996 1.996 0 1 0 0-3.992 1.996 1.996 0 0 0 0 3.992z" clip-path="url(#p7f7cf6f04f)" style="fill:#ff00bf"/><path id="patch_476" d="M223.91 124.992a2.661 2.661 0 1 0 0-5.322 2.661 2.661 0 0 0 0 5.322z" clip-path="url(#p7f7cf6f04f)" style="fill:#00ff8c"/><path id="patch_477" d="M245.06 150.771a1.996 1.996 0 1 0 0-3.992 1.996 1.996 0 0 0 0 3.992z" clip-path="url(#p7f7cf6f04f)" style="fill:#ff00bf"/><path id="patch_478" d="M213.223 153.305a2.661 2.661 0 1 0 0-5.323 2.661 2.661 0 0 0 0 5.323z" clip-path="url(#p7f7cf6f04f)" style="fill:#00ff8c"/><path id="patch_479" d="M261.015 121.373a1.996 1.996 0 1 0 0-3.992 1.996 1.996 0 0 0 0 3.992z" clip-path="url(#p7f7cf6f04f)" style="fill:#ff00bf"/><path id="patch_480" d="M201.688 125.466a2.661 2.661 0 1 0 0-5.323 2.661 2.661 0 0 0 0 5.323z" clip-path="url(#p7f7cf6f04f)" style="fill:#00ff8c"/><path id="patch_481" d="M198.364 152.961a1.996 1.996 0 1 0 0-3.991 1.996 1.996 0 0 0 0 3.991z" clip-path="url(#p7f7cf6f04f)" style="fill:#ff00bf"/><path id="patch_482" d="M161.866 151.66a2.661 2.661 0 1 0 0-5.322 2.661 2.661 0 0 0 0 5.322z" clip-path="url(#p7f7cf6f04f)" style="fill:#00ff8c"/><path id="patch_483" d="M184.86 152.494a1.996 1.996 0 1 0 0-3.992 1.996 1.996 0 0 0 0 3.992z" clip-path="url(#p7f7cf6f04f)" style="fill:#ff00bf"/><path id="patch_484" d="M155.22 152.684a3.992 3.992 0 1 0 0-7.983 3.992 3.992 0 0 0 0 7.983z" clip-path="url(#p7f7cf6f04f)" style="fill:#cdff00"/><path id="patch_485" d="M219.705 121.729a2.661 2.661 0 1 0 0-5.323 2.661 2.661 0 0 0 0 5.323z" clip-path="url(#p7f7cf6f04f)" style="fill:#00ff8c"/><path id="patch_486" d="M170.43 135.505a1.996 1.996 0 1 0 0-3.992 1.996 1.996 0 0 0 0 3.992z" clip-path="url(#p7f7cf6f04f)" style="fill:#ff00bf"/><path id="patch_487" d="M172.255 153.502a1.996 1.996 0 1 0 0-3.992 1.996 1.996 0 0 0 0 3.992z" clip-path="url(#p7f7cf6f04f)" style="fill:#ff00bf"/><path id="patch_488" d="M238.055 124.172a1.996 1.996 0 1 0 0-3.992 1.996 1.996 0 0 0 0 3.992z" clip-path="url(#p7f7cf6f04f)" style="fill:#ff00bf"/><path id="patch_489" d="M235.853 153.464a1.996 1.996 0 1 0 0-3.992 1.996 1.996 0 0 0 0 3.992z" clip-path="url(#p7f7cf6f04f)" style="fill:#ff00bf"/><path id="patch_490" d="M219.813 152.922a1.996 1.996 0 1 0 0-3.992 1.996 1.996 0 0 0 0 3.992z" clip-path="url(#p7f7cf6f04f)" style="fill:#ff00bf"/><path id="patch_491" d="M250.758 86.481a1.996 1.996 0 1 0 0-3.991 1.996 1.996 0 0 0 0 3.991z" clip-path="url(#p7f7cf6f04f)" style="fill:#ff00bf"/><path id="patch_492" d="M153.255 145.033a1.996 1.996 0 1 0 0-3.992 1.996 1.996 0 0 0 0 3.992z" clip-path="url(#p7f7cf6f04f)" style="fill:#ff00bf"/><path id="patch_493" d="M149.346 148.23a2.661 2.661 0 1 0 0-5.323 2.661 2.661 0 0 0 0 5.323z" clip-path="url(#p7f7cf6f04f)" style="fill:#00ff8c"/><path id="patch_494" d="M149.432 152.22a1.996 1.996 0 1 0 0-3.991 1.996 1.996 0 0 0 0 3.992z" clip-path="url(#p7f7cf6f04f)" style="fill:#ff00bf"/><g id="matplotlib.axis_1"><g id="xtick_1"><g id="line2d_1"><defs><path id="m123dab217a" d="M0 0v3.5" style="stroke:#000;stroke-width:.8"/></defs><use xlink:href="#m123dab217a" x="55.08" y="153.792" style="stroke:#000;stroke-width:.8"/></g><g id="text_1" transform="matrix(.1 0 0 -.1 51.899 168.39)"><defs><path id="DejaVuSans-30" d="M2034 4250q-487 0-733-480-245-479-245-1442 0-959 245-1439 246-480 733-480 491 0 736 480 246 480 246 1439 0 963-246 1442-245 480-736 480zm0 500q785 0 1199-621 414-620 414-1801 0-1178-414-1799Q2819-91 2034-91q-784 0-1198 620-414 621-414 1799 0 1181 414 1801 414 621 1198 621z" transform="scale(.01563)"/></defs><use xlink:href="#DejaVuSans-30"/></g></g><g id="xtick_2"><use xlink:href="#m123dab217a" id="line2d_2" x="121.608" y="153.792" style="stroke:#000;stroke-width:.8"/><g id="text_2" transform="matrix(.1 0 0 -.1 112.064 168.39)"><defs><path id="DejaVuSans-31" d="M794 531h1031v3560L703 3866v575l1116 225h631V531h1031V0H794v531z" transform="scale(.01563)"/></defs><use xlink:href="#DejaVuSans-31"/><use xlink:href="#DejaVuSans-30" x="63.623"/><use xlink:href="#DejaVuSans-30" x="127.246"/></g></g><g id="xtick_3"><use xlink:href="#m123dab217a" id="line2d_3" x="188.136" y="153.792" style="stroke:#000;stroke-width:.8"/><g id="text_3" transform="matrix(.1 0 0 -.1 178.592 168.39)"><defs><path id="DejaVuSans-32" d="M1228 531h2203V0H469v531q359 372 979 998 621 627 780 809 303 340 423 576 121 236 121 464 0 372-261 606-261 235-680 235-297 0-627-103-329-103-704-313v638q381 153 712 231 332 78 607 78 725 0 1156-363 431-362 431-968 0-288-108-546-107-257-392-607-78-91-497-524-418-433-1181-1211z" transform="scale(.01563)"/></defs><use xlink:href="#DejaVuSans-32"/><use xlink:href="#DejaVuSans-30" x="63.623"/><use xlink:href="#DejaVuSans-30" x="127.246"/></g></g><g id="xtick_4"><use xlink:href="#m123dab217a" id="line2d_4" x="254.664" y="153.792" style="stroke:#000;stroke-width:.8"/><g id="text_4" transform="matrix(.1 0 0 -.1 245.12 168.39)"><defs><path id="DejaVuSans-33" d="M2597 2516q453-97 707-404 255-306 255-756 0-690-475-1069Q2609-91 1734-91q-293 0-604 58T488 141v609q262-153 574-231 313-78 654-78 593 0 904 234t311 681q0 413-289 645-289 233-804 233h-544v519h569q465 0 712 186t247 536q0 359-255 551-254 193-729 193-260 0-557-57-297-56-653-174v562q360 100 674 150t592 50q719 0 1137-327 419-326 419-882 0-388-222-655t-631-370z" transform="scale(.01563)"/></defs><use xlink:href="#DejaVuSans-33"/><use xlink:href="#DejaVuSans-30" x="63.623"/><use xlink:href="#DejaVuSans-30" x="127.246"/></g></g><g id="xtick_5"><use xlink:href="#m123dab217a" id="line2d_5" x="321.192" y="153.792" style="stroke:#000;stroke-width:.8"/><g id="text_5" transform="matrix(.1 0 0 -.1 311.648 168.39)"><defs><path id="DejaVuSans-34" d="M2419 4116 825 1625h1594v2491zm-166 550h794V1625h666v-525h-666V0h-628v1100H313v609l1940 2957z" transform="scale(.01563)"/></defs><use xlink:href="#DejaVuSans-34"/><use xlink:href="#DejaVuSans-30" x="63.623"/><use xlink:href="#DejaVuSans-30" x="127.246"/></g></g><g id="xtick_6"><use xlink:href="#m123dab217a" id="line2d_6" x="387.72" y="153.792" style="stroke:#000;stroke-width:.8"/><g id="text_6" transform="matrix(.1 0 0 -.1 378.176 168.39)"><defs><path id="DejaVuSans-35" d="M691 4666h2478v-532H1269V2991q137 47 274 70 138 23 276 23 781 0 1237-428 457-428 457-1159 0-753-469-1171Q2575-91 1722-91q-294 0-599 50Q819 9 494 109v635q281-153 581-228t634-75q541 0 856 284 316 284 316 772 0 487-316 771-315 285-856 285-253 0-505-56-251-56-513-175v2344z" transform="scale(.01563)"/></defs><use xlink:href="#DejaVuSans-35"/><use xlink:href="#DejaVuSans-30" x="63.623"/><use xlink:href="#DejaVuSans-30" x="127.246"/></g></g></g><g id="matplotlib.axis_2"><g id="ytick_1"><g id="line2d_7"><defs><path id="mafd17ac8e3" d="M0 0h-3.5" style="stroke:#000;stroke-width:.8"/></defs><use xlink:href="#mafd17ac8e3" x="55.08" y="153.792" style="stroke:#000;stroke-width:.8"/></g><use xlink:href="#DejaVuSans-30" id="text_7" transform="matrix(.1 0 0 -.1 41.718 157.591)"/></g><g id="ytick_2"><use xlink:href="#mafd17ac8e3" id="line2d_8" x="55.08" y="120.528" style="stroke:#000;stroke-width:.8"/><g id="text_8" transform="matrix(.1 0 0 -.1 35.355 124.327)"><use xlink:href="#DejaVuSans-35"/><use xlink:href="#DejaVuSans-30" x="63.623"/></g></g><g id="ytick_3"><use xlink:href="#mafd17ac8e3" id="line2d_9" x="55.08" y="87.264" style="stroke:#000;stroke-width:.8"/><g id="text_9" transform="matrix(.1 0 0 -.1 28.992 91.063)"><use xlink:href="#DejaVuSans-31"/><use xlink:href="#DejaVuSans-30" x="63.623"/><use xlink:href="#DejaVuSans-30" x="127.246"/></g></g><g id="ytick_4"><use xlink:href="#mafd17ac8e3" id="line2d_10" x="55.08" y="54" style="stroke:#000;stroke-width:.8"/><g id="text_10" transform="matrix(.1 0 0 -.1 28.992 57.8)"><use xlink:href="#DejaVuSans-31"/><use xlink:href="#DejaVuSans-35" x="63.623"/><use xlink:href="#DejaVuSans-30" x="127.246"/></g></g><g id="ytick_5"><use xlink:href="#mafd17ac8e3" id="line2d_11" x="55.08" y="20.736" style="stroke:#000;stroke-width:.8"/><g id="text_11" transform="matrix(.1 0 0 -.1 28.992 24.535)"><use xlink:href="#DejaVuSans-32"/><use xlink:href="#DejaVuSans-30" x="63.623"/><use xlink:href="#DejaVuSans-30" x="127.246"/></g></g></g><path id="patch_495" d="M55.08 153.792V20.736" style="fill:none;stroke:#000;stroke-width:.8;stroke-linejoin:miter;stroke-linecap:square"/><path id="patch_496" d="M387.72 153.792V20.736" style="fill:none;stroke:#000;stroke-width:.8;stroke-linejoin:miter;stroke-linecap:square"/><path id="patch_497" d="M55.08 153.792h332.64" style="fill:none;stroke:#000;stroke-width:.8;stroke-linejoin:miter;stroke-linecap:square"/><path id="patch_498" d="M55.08 20.736h332.64" style="fill:none;stroke:#000;stroke-width:.8;stroke-linejoin:miter;stroke-linecap:square"/><g id="text_12" transform="matrix(.12 0 0 -.12 38.005 14.736)"><defs><path id="DejaVuSans-53" d="M3425 4513v-616q-359 172-678 256-319 85-616 85-515 0-795-200t-280-569q0-310 186-468 186-157 705-254l381-78q706-135 1042-474t336-907q0-679-455-1029Q2797-91 1919-91q-331 0-705 75-373 75-773 222v650q384-215 753-325 369-109 725-109 540 0 834 212 294 213 294 607 0 343-211 537t-692 291l-385 75q-706 140-1022 440-315 300-315 835 0 619 436 975t1201 356q329 0 669-60 341-59 697-177z" transform="scale(.01563)"/><path id="DejaVuSans-68" d="M3513 2113V0h-575v2094q0 497-194 743-194 247-581 247-466 0-735-297-269-296-269-809V0H581v4863h578V2956q207 316 486 472 280 156 646 156 603 0 912-373 310-373 310-1098z" transform="scale(.01563)"/><path id="DejaVuSans-65" d="M3597 1894v-281H953q38-594 358-905t892-311q331 0 642 81t618 244V178Q3153 47 2828-22t-659-69q-838 0-1327 487-489 488-489 1320 0 859 464 1363 464 505 1252 505 706 0 1117-455 411-454 411-1235zm-575 169q-6 471-264 752-258 282-683 282-481 0-770-272t-333-766l2050 4z" transform="scale(.01563)"/><path id="DejaVuSans-72" d="M2631 2963q-97 56-211 82-114 27-251 27-488 0-749-317t-261-911V0H581v3500h578v-544q182 319 472 473 291 155 707 155 59 0 131-8 72-7 159-23l3-590z" transform="scale(.01563)"/><path id="DejaVuSans-77" d="M269 3500h575l719-2731 715 2731h678l719-2731 716 2731h575L4050 0h-678l-753 2869L1863 0h-679L269 3500z" transform="scale(.01563)"/><path id="DejaVuSans-6f" d="M1959 3097q-462 0-731-361t-269-989q0-628 267-989 268-361 733-361 460 0 728 362 269 363 269 988 0 622-269 986-268 364-728 364zm0 487q750 0 1178-488 429-487 429-1349 0-859-429-1349Q2709-91 1959-91q-753 0-1180 489-426 490-426 1349 0 862 426 1349 427 488 1180 488z" transform="scale(.01563)"/><path id="DejaVuSans-64" d="M2906 2969v1894h575V0h-575v525q-181-312-458-464-276-152-664-152-634 0-1033 506-398 507-398 1332t398 1331q399 506 1033 506 388 0 664-152 277-151 458-463zM947 1747q0-634 261-995t717-361q456 0 718 361 263 361 263 995t-263 995q-262 361-718 361t-717-361q-261-361-261-995z" transform="scale(.01563)"/><path id="DejaVuSans-46" d="M628 4666h2681v-532H1259V2759h1850v-531H1259V0H628v4666z" transform="scale(.01563)"/><path id="DejaVuSans-73" d="M2834 3397v-544q-243 125-506 187-262 63-544 63-428 0-642-131t-214-394q0-200 153-314t616-217l197-44q612-131 870-370t258-667q0-488-386-773Q2250-91 1575-91q-281 0-586 55T347 128v594q319-166 628-249 309-82 613-82 406 0 624 139 219 139 219 392 0 234-158 359-157 125-692 241l-200 47q-534 112-772 345-237 233-237 639 0 494 350 762 350 269 994 269 318 0 599-47 282-46 519-140z" transform="scale(.01563)"/><path id="DejaVuSans-74" d="M1172 4494v-994h1184v-447H1172V1153q0-428 117-550t477-122h590V0h-590q-666 0-919 248-253 249-253 905v1900H172v447h422v994h578z" transform="scale(.01563)"/><path id="DejaVuSans-2c" d="M750 794h659V256L897-744H494L750 256v538z" transform="scale(.01563)"/><path id="DejaVuSans-62" d="M3116 1747q0 634-261 995t-717 361q-457 0-718-361t-261-995q0-634 261-995t718-361q456 0 717 361t261 995zM1159 2969q182 312 458 463 277 152 661 152 638 0 1036-506 399-506 399-1331T3314 415Q2916-91 2278-91q-384 0-661 152-276 152-458 464V0H581v4863h578V2969z" transform="scale(.01563)"/><path id="DejaVuSans-3d" d="M678 2906h4006v-525H678v525zm0-1275h4006v-531H678v531z" transform="scale(.01563)"/><path id="DejaVuSans-2e" d="M684 794h660V0H684v794z" transform="scale(.01563)"/><path id="DejaVuSans-36" d="M2113 2584q-425 0-674-291-248-290-248-796 0-503 248-796 249-292 674-292t673 292q248 293 248 796 0 506-248 796-248 291-673 291zm1253 1979v-575q-238 112-480 171-242 60-480 60-625 0-955-422-329-422-376-1275 184 272 462 417 279 145 613 145 703 0 1111-427 408-426 408-1160 0-719-425-1154Q2819-91 2113-91q-810 0-1238 620-428 621-428 1799 0 1106 525 1764t1409 658q238 0 480-47t505-140z" transform="scale(.01563)"/><path id="DejaVuSans-37" d="M525 4666h3000v-269L1831 0h-659l1594 4134H525v532z" transform="scale(.01563)"/><path id="DejaVuSans-61" d="M2194 1759q-697 0-966-159t-269-544q0-306 202-486 202-179 548-179 479 0 768 339t289 901v128h-572zm1147 238V0h-575v531q-197-318-491-470T1556-91q-537 0-855 302-317 302-317 808 0 590 395 890 396 300 1180 300h807v57q0 397-261 614t-733 217q-300 0-585-72-284-72-546-216v532q315 122 612 182 297 61 578 61 760 0 1135-394 375-393 375-1193z" transform="scale(.01563)"/><path id="DejaVuSans-38" d="M2034 2216q-450 0-708-241-257-241-257-662 0-422 257-663 258-241 708-241t709 242q260 243 260 662 0 421-258 662-257 241-711 241zm-631 268q-406 100-633 378-226 279-226 679 0 559 398 884 399 325 1092 325 697 0 1094-325t397-884q0-400-227-679-226-278-629-378 456-106 710-416 255-309 255-755 0-679-414-1042Q2806-91 2034-91q-771 0-1186 362-414 363-414 1042 0 446 256 755 257 310 713 416zm-231 997q0-362 226-565 227-203 636-203 407 0 636 203 230 203 230 565 0 363-230 566-229 203-636 203-409 0-636-203-226-203-226-566z" transform="scale(.01563)"/><path id="DejaVuSans-39" d="M703 97v575q238-113 481-172 244-59 479-59 625 0 954 420 330 420 377 1277-181-269-460-413-278-144-615-144-700 0-1108 423-408 424-408 1159 0 718 425 1152 425 435 1131 435 810 0 1236-621 427-620 427-1801 0-1103-524-1761Q2575-91 1691-91q-238 0-482 47Q966 3 703 97zm1256 1978q425 0 673 290 249 291 249 798 0 503-249 795-248 292-673 292t-673-292q-248-292-248-795 0-507 248-798 248-290 673-290z" transform="scale(.01563)"/></defs><use xlink:href="#DejaVuSans-53"/><use xlink:href="#DejaVuSans-68" x="63.477"/><use xlink:href="#DejaVuSans-65" x="126.855"/><use xlink:href="#DejaVuSans-72" x="188.379"/><use xlink:href="#DejaVuSans-77" x="229.492"/><use xlink:href="#DejaVuSans-6f" x="311.279"/><use xlink:href="#DejaVuSans-6f" x="372.461"/><use xlink:href="#DejaVuSans-64" x="433.643"/><use xlink:href="#DejaVuSans-46" x="497.119"/><use xlink:href="#DejaVuSans-6f" x="551.014"/><use xlink:href="#DejaVuSans-72" x="612.195"/><use xlink:href="#DejaVuSans-65" x="651.059"/><use xlink:href="#DejaVuSans-73" x="712.582"/><use xlink:href="#DejaVuSans-74" x="764.682"/><use xlink:href="#DejaVuSans-2c" x="803.891"/><use xlink:href="#DejaVuSans-20" x="835.678"/><use xlink:href="#DejaVuSans-62" x="867.465"/><use xlink:href="#DejaVuSans-3d" x="930.941"/><use xlink:href="#DejaVuSans-30" x="1014.73"/><use xlink:href="#DejaVuSans-2e" x="1078.354"/><use xlink:href="#DejaVuSans-36" x="1110.141"/><use xlink:href="#DejaVuSans-37" x="1173.764"/><use xlink:href="#DejaVuSans-31" x="1237.387"/><use xlink:href="#DejaVuSans-30" x="1301.01"/><use xlink:href="#DejaVuSans-37" x="1364.633"/><use xlink:href="#DejaVuSans-32" x="1428.256"/><use xlink:href="#DejaVuSans-30" x="1491.879"/><use xlink:href="#DejaVuSans-2c" x="1555.502"/><use xlink:href="#DejaVuSans-20" x="1587.289"/><use xlink:href="#DejaVuSans-61" x="1619.076"/><use xlink:href="#DejaVuSans-3d" x="1680.355"/><use xlink:href="#DejaVuSans-30" x="1764.145"/><use xlink:href="#DejaVuSans-2e" x="1827.768"/><use xlink:href="#DejaVuSans-38" x="1859.555"/><use xlink:href="#DejaVuSans-33" x="1923.178"/><use xlink:href="#DejaVuSans-39" x="1986.801"/><use xlink:href="#DejaVuSans-39" x="2050.424"/><use xlink:href="#DejaVuSans-39" x="2114.047"/><use xlink:href="#DejaVuSans-39" x="2177.67"/><use xlink:href="#DejaVuSans-30" x="2241.293"/><use xlink:href="#DejaVuSans-2c" x="2304.916"/><use xlink:href="#DejaVuSans-20" x="2336.703"/><use xlink:href="#DejaVuSans-64" x="2368.49"/><use xlink:href="#DejaVuSans-3d" x="2431.967"/><use xlink:href="#DejaVuSans-30" x="2515.756"/><use xlink:href="#DejaVuSans-2e" x="2579.379"/><use xlink:href="#DejaVuSans-37" x="2611.166"/><use xlink:href="#DejaVuSans-39" x="2674.789"/><use xlink:href="#DejaVuSans-38" x="2738.412"/><use xlink:href="#DejaVuSans-38" x="2802.035"/><use xlink:href="#DejaVuSans-39" x="2865.658"/><use xlink:href="#DejaVuSans-36" x="2929.281"/><use xlink:href="#DejaVuSans-32" x="2992.904"/></g></g></g><defs><clipPath id="p7f7cf6f04f"><path d="M55.08 20.736h332.64v133.056H55.08z"/></clipPath></defs></svg>