<svg xmlns="http://www.w3.org/2000/svg" xmlns:xlink="http://www.w3.org/1999/xlink" width="864" height="345.6" viewBox="0 0 648 259.2"><defs><style>*{stroke-linejoin:round;stroke-linecap:butt}</style></defs><g id="figure_1"><path id="patch_1" d="M0 259.2h648V0H0z" style="fill:#fff"/><g id="axes_1"><path id="patch_2" d="M82.62 230.688h498.96V31.104H82.62z" style="fill:#fff"/><path id="patch_3" d="M569.605 55.054a11.976 11.976 0 1 0 0-23.951 11.976 11.976 0 0 0 0 23.951z" clip-path="url(#p48fa160e47)" style="fill:#9e0142"/><path id="patch_4" d="M545.655 55.054a11.976 11.976 0 1 0 0-23.951 11.976 11.976 0 0 0 0 23.951z" clip-path="url(#p48fa160e47)" style="fill:#9e0142"/><path id="patch_5" d="M572.599 72.802a8.982 8.982 0 1 0 0-17.964 8.982 8.982 0 0 0 0 17.964z" clip-path="url(#p48fa160e47)" style="fill:#86cfa5"/><path id="patch_6" d="M558.996 63.561a5.988 5.988 0 1 0 0-11.975 5.988 5.988 0 0 0 0 11.975z" clip-path="url(#p48fa160e47)" style="fill:#f98e52"/><path id="patch_7" d="M94.595 55.054a11.976 11.976 0 1 0 0-23.951 11.976 11.976 0 0 0 0 23.951z" clip-path="url(#p48fa160e47)" style="fill:#9e0142"/><path id="patch_8" d="M572.599 230.688a8.982 8.982 0 1 0 0-17.963 8.982 8.982 0 0 0 0 17.963z" clip-path="url(#p48fa160e47)" style="fill:#86cfa5"/><path id="patch_9" d="M86.612 230.688a3.992 3.992 0 1 0 0-7.984 3.992 3.992 0 0 0 0 7.984z" clip-path="url(#p48fa160e47)" style="fill:#ffffbe"/><path id="patch_10" d="M557.63 37.092a2.994 2.994 0 1 0 0-5.988 2.994 2.994 0 0 0 0 5.988z" clip-path="url(#p48fa160e47)" style="fill:#5e4fa2"/><path id="patch_11" d="M118.545 55.054a11.976 11.976 0 1 0 0-23.951 11.976 11.976 0 0 0 0 23.951z" clip-path="url(#p48fa160e47)" style="fill:#9e0142"/><path id="patch_12" d="M554.636 230.688a8.982 8.982 0 1 0 0-17.963 8.982 8.982 0 0 0 0 17.963z" clip-path="url(#p48fa160e47)" style="fill:#86cfa5"/><path id="patch_13" d="M575.592 84.474a5.988 5.988 0 1 0 0-11.975 5.988 5.988 0 0 0 0 11.975z" clip-path="url(#p48fa160e47)" style="fill:#f98e52"/><path id="patch_14" d="M521.705 55.054a11.976 11.976 0 1 0 0-23.951 11.976 11.976 0 0 0 0 23.951z" clip-path="url(#p48fa160e47)" style="fill:#9e0142"/><path id="patch_15" d="M94.595 230.688a3.992 3.992 0 1 0 0-7.984 3.992 3.992 0 0 0 0 7.984z" clip-path="url(#p48fa160e47)" style="fill:#ffffbe"/><path id="patch_16" d="M497.755 55.054a11.976 11.976 0 1 0 0-23.951 11.976 11.976 0 0 0 0 23.951z" clip-path="url(#p48fa160e47)" style="fill:#9e0142"/><path id="patch_17" d="M572.599 102.134a8.982 8.982 0 1 0 0-17.963 8.982 8.982 0 0 0 0 17.963z" clip-path="url(#p48fa160e47)" style="fill:#86cfa5"/><path id="patch_18" d="M88.608 222.906a5.988 5.988 0 1 0 0-11.975 5.988 5.988 0 0 0 0 11.975z" clip-path="url(#p48fa160e47)" style="fill:#f98e52"/><path id="patch_19" d="M509.73 37.092a2.994 2.994 0 1 0 0-5.988 2.994 2.994 0 0 0 0 5.988z" clip-path="url(#p48fa160e47)" style="fill:#5e4fa2"/><path id="patch_20" d="M533.895 230.688a11.976 11.976 0 1 0 0-23.951 11.976 11.976 0 0 0 0 23.951z" clip-path="url(#p48fa160e47)" style="fill:#9e0142"/><path id="patch_21" d="M139.286 49.067a8.982 8.982 0 1 0 0-17.964 8.982 8.982 0 0 0 0 17.964z" clip-path="url(#p48fa160e47)" style="fill:#86cfa5"/><path id="patch_22" d="M480.82 43.079a5.988 5.988 0 1 0 0-11.976 5.988 5.988 0 0 0 0 11.976z" clip-path="url(#p48fa160e47)" style="fill:#f98e52"/><path id="patch_23" d="M151.262 39.087a3.992 3.992 0 1 0 0-7.983 3.992 3.992 0 0 0 0 7.983z" clip-path="url(#p48fa160e47)" style="fill:#ffffbe"/><path id="patch_24" d="M463.884 55.054a11.976 11.976 0 1 0 0-23.951 11.976 11.976 0 0 0 0 23.951z" clip-path="url(#p48fa160e47)" style="fill:#9e0142"/><path id="patch_25" d="M572.599 120.097a8.982 8.982 0 1 0 0-17.963 8.982 8.982 0 0 0 0 17.963z" clip-path="url(#p48fa160e47)" style="fill:#86cfa5"/><path id="patch_26" d="M439.934 55.054a11.976 11.976 0 1 0 0-23.951 11.976 11.976 0 0 0 0 23.951z" clip-path="url(#p48fa160e47)" style="fill:#9e0142"/><path id="patch_27" d="M163.237 49.067a8.982 8.982 0 1 0 0-17.964 8.982 8.982 0 0 0 0 17.964z" clip-path="url(#p48fa160e47)" style="fill:#86cfa5"/><path id="patch_28" d="M480.82 55.054a5.988 5.988 0 1 0 0-11.976 5.988 5.988 0 0 0 0 11.976z" clip-path="url(#p48fa160e47)" style="fill:#f98e52"/><path id="patch_29" d="M533.68 37.092a2.994 2.994 0 1 0 0-5.988 2.994 2.994 0 0 0 0 5.988z" clip-path="url(#p48fa160e47)" style="fill:#5e4fa2"/><path id="patch_30" d="M569.605 143.832a11.976 11.976 0 1 0 0-23.951 11.976 11.976 0 0 0 0 23.951z" clip-path="url(#p48fa160e47)" style="fill:#9e0142"/><path id="patch_31" d="M86.612 60.898a3.992 3.992 0 1 0 0-7.983 3.992 3.992 0 0 0 0 7.983z" clip-path="url(#p48fa160e47)" style="fill:#ffffbe"/><path id="patch_32" d="M415.984 55.054a11.976 11.976 0 1 0 0-23.951 11.976 11.976 0 0 0 0 23.951z" clip-path="url(#p48fa160e47)" style="fill:#9e0142"/><path id="patch_33" d="M181.2 49.067a8.982 8.982 0 1 0-.001-17.964 8.982 8.982 0 0 0 0 17.964z" clip-path="url(#p48fa160e47)" style="fill:#86cfa5"/><path id="patch_34" d="M399.049 43.079a5.988 5.988 0 1 0 0-11.976 5.988 5.988 0 0 0 0 11.976z" clip-path="url(#p48fa160e47)" style="fill:#f98e52"/><path id="patch_35" d="M451.91 37.092a2.994 2.994 0 1 0-.001-5.988 2.994 2.994 0 0 0 0 5.988z" clip-path="url(#p48fa160e47)" style="fill:#5e4fa2"/><path id="patch_36" d="M94.595 82.71a11.976 11.976 0 1 0 0-23.952 11.976 11.976 0 0 0 0 23.951z" clip-path="url(#p48fa160e47)" style="fill:#9e0142"/><path id="patch_37" d="M572.599 161.58a8.982 8.982 0 1 0 0-17.964 8.982 8.982 0 0 0 0 17.964z" clip-path="url(#p48fa160e47)" style="fill:#86cfa5"/><path id="patch_38" d="M106.57 57.632a3.992 3.992 0 1 0 0-7.984 3.992 3.992 0 0 0 0 7.984z" clip-path="url(#p48fa160e47)" style="fill:#ffffbe"/><path id="patch_39" d="M569.605 185.315a11.976 11.976 0 1 0 0-23.951 11.976 11.976 0 0 0 0 23.95z" clip-path="url(#p48fa160e47)" style="fill:#9e0142"/><path id="patch_40" d="M114.77 72.674a8.982 8.982 0 1 0 0-17.964 8.982 8.982 0 0 0 0 17.964z" clip-path="url(#p48fa160e47)" style="fill:#86cfa5"/><path id="patch_41" d="M575.592 196.263a5.988 5.988 0 1 0 0-11.976 5.988 5.988 0 0 0 0 11.976z" clip-path="url(#p48fa160e47)" style="fill:#f98e52"/><path id="patch_42" d="M201.94 55.054a11.976 11.976 0 1 0 0-23.951 11.976 11.976 0 0 0 0 23.951z" clip-path="url(#p48fa160e47)" style="fill:#9e0142"/><path id="patch_43" d="M133.986 66.23a8.982 8.982 0 1 0 0-17.964 8.982 8.982 0 0 0 0 17.963z" clip-path="url(#p48fa160e47)" style="fill:#86cfa5"/><path id="patch_44" d="M148.078 58.188a5.988 5.988 0 1 0 0-11.976 5.988 5.988 0 0 0 0 11.976z" clip-path="url(#p48fa160e47)" style="fill:#f98e52"/><path id="patch_45" d="M389.271 39.087a3.992 3.992 0 1 0 0-7.983 3.992 3.992 0 0 0 0 7.983z" clip-path="url(#p48fa160e47)" style="fill:#ffffbe"/><path id="patch_46" d="M427.96 37.092a2.994 2.994 0 1 0-.001-5.988 2.994 2.994 0 0 0 0 5.988z" clip-path="url(#p48fa160e47)" style="fill:#5e4fa2"/><path id="patch_47" d="M225.89 55.054a11.976 11.976 0 1 0 0-23.951 11.976 11.976 0 0 0 0 23.951z" clip-path="url(#p48fa160e47)" style="fill:#9e0142"/><path id="patch_48" d="M108.423 230.688a11.976 11.976 0 1 0 0-23.951 11.976 11.976 0 0 0 0 23.951z" clip-path="url(#p48fa160e47)" style="fill:#9e0142"/><path id="patch_49" d="M563.617 215.132a8.982 8.982 0 1 0 0-17.963 8.982 8.982 0 0 0 0 17.963z" clip-path="url(#p48fa160e47)" style="fill:#86cfa5"/><path id="patch_50" d="M548.756 213.929a5.988 5.988 0 1 0 0-11.976 5.988 5.988 0 0 0 0 11.976z" clip-path="url(#p48fa160e47)" style="fill:#f98e52"/><path id="patch_51" d="M576.215 213.24a3.992 3.992 0 1 0 0-7.984 3.992 3.992 0 0 0 0 7.984z" clip-path="url(#p48fa160e47)" style="fill:#ffffbe"/><path id="patch_52" d="M94.595 106.66a11.976 11.976 0 1 0 0-23.952 11.976 11.976 0 0 0 0 23.951z" clip-path="url(#p48fa160e47)" style="fill:#9e0142"/><path id="patch_53" d="M111.793 91.69a8.982 8.982 0 1 0 0-17.963 8.982 8.982 0 0 0 0 17.964z" clip-path="url(#p48fa160e47)" style="fill:#86cfa5"/><path id="patch_54" d="M106.57 37.092a2.994 2.994 0 1 0 0-5.988 2.994 2.994 0 0 0 0 5.988z" clip-path="url(#p48fa160e47)" style="fill:#5e4fa2"/><path id="patch_55" d="M533.68 75.795a11.976 11.976 0 1 0 0-23.95 11.976 11.976 0 0 0 0 23.95z" clip-path="url(#p48fa160e47)" style="fill:#9e0142"/><path id="patch_56" d="M91.601 211.234a8.982 8.982 0 1 0 0-17.964 8.982 8.982 0 0 0 0 17.964z" clip-path="url(#p48fa160e47)" style="fill:#86cfa5"/><path id="patch_57" d="M563.617 196.263a5.988 5.988 0 1 0 0-11.976 5.988 5.988 0 0 0 0 11.976z" clip-path="url(#p48fa160e47)" style="fill:#f98e52"/><path id="patch_58" d="M94.595 130.61a11.976 11.976 0 1 0 0-23.952 11.976 11.976 0 0 0 0 23.951z" clip-path="url(#p48fa160e47)" style="fill:#9e0142"/><path id="patch_59" d="M148.978 76.123a8.982 8.982 0 1 0 0-17.963 8.982 8.982 0 0 0 0 17.963z" clip-path="url(#p48fa160e47)" style="fill:#86cfa5"/><path id="patch_60" d="M552.199 202.46a5.988 5.988 0 1 0 0-11.976 5.988 5.988 0 0 0 0 11.975z" clip-path="url(#p48fa160e47)" style="fill:#f98e52"/><path id="patch_61" d="M577.588 204.044a3.992 3.992 0 1 0 0-7.983 3.992 3.992 0 0 0 0 7.983z" clip-path="url(#p48fa160e47)" style="fill:#ffffbe"/><path id="patch_62" d="M213.916 37.092a2.994 2.994 0 1 0 0-5.988 2.994 2.994 0 0 0 0 5.988z" clip-path="url(#p48fa160e47)" style="fill:#5e4fa2"/><path id="patch_63" d="M375.444 55.054a11.976 11.976 0 1 0 0-23.951 11.976 11.976 0 0 0 0 23.951z" clip-path="url(#p48fa160e47)" style="fill:#9e0142"/><path id="patch_64" d="M94.595 193.486a11.976 11.976 0 1 0 0-23.951 11.976 11.976 0 0 0 0 23.951z" clip-path="url(#p48fa160e47)" style="fill:#9e0142"/><path id="patch_65" d="M108.764 205.933a8.982 8.982 0 1 0 0-17.964 8.982 8.982 0 0 0 0 17.964z" clip-path="url(#p48fa160e47)" style="fill:#86cfa5"/><path id="patch_66" d="M540.545 205.212a5.988 5.988 0 1 0 0-11.975 5.988 5.988 0 0 0 0 11.975z" clip-path="url(#p48fa160e47)" style="fill:#f98e52"/><path id="patch_67" d="M548.813 62.722a3.992 3.992 0 1 0 0-7.984 3.992 3.992 0 0 0 0 7.984z" clip-path="url(#p48fa160e47)" style="fill:#ffffbe"/><path id="patch_68" d="M94.595 169.536a11.976 11.976 0 1 0 0-23.951 11.976 11.976 0 0 0 0 23.951z" clip-path="url(#p48fa160e47)" style="fill:#9e0142"/><path id="patch_69" d="M396.983 60.898a8.982 8.982 0 1 0 0-17.963 8.982 8.982 0 0 0 0 17.963z" clip-path="url(#p48fa160e47)" style="fill:#86cfa5"/><path id="patch_70" d="M85.614 109.653a2.994 2.994 0 1 0 0-5.988 2.994 2.994 0 0 0 0 5.988z" clip-path="url(#p48fa160e47)" style="fill:#5e4fa2"/><path id="patch_71" d="M249.84 55.054a11.976 11.976 0 1 0 0-23.951 11.976 11.976 0 0 0 0 23.951z" clip-path="url(#p48fa160e47)" style="fill:#9e0142"/><path id="patch_72" d="M132.913 84.16a8.982 8.982 0 1 0 0-17.964 8.982 8.982 0 0 0 0 17.964z" clip-path="url(#p48fa160e47)" style="fill:#86cfa5"/><path id="patch_73" d="M88.608 146.613a5.988 5.988 0 1 0 0-11.975 5.988 5.988 0 0 0 0 11.975z" clip-path="url(#p48fa160e47)" style="fill:#f98e52"/><path id="patch_74" d="M549.386 70.685a3.992 3.992 0 1 0 0-7.984 3.992 3.992 0 0 0 0 7.984z" clip-path="url(#p48fa160e47)" style="fill:#ffffbe"/><path id="patch_75" d="M273.79 55.054a11.976 11.976 0 1 0 0-23.951 11.976 11.976 0 0 0 0 23.951z" clip-path="url(#p48fa160e47)" style="fill:#9e0142"/><path id="patch_76" d="M351.494 55.054a11.976 11.976 0 1 0 0-23.951 11.976 11.976 0 0 0 0 23.951z" clip-path="url(#p48fa160e47)" style="fill:#9e0142"/><path id="patch_77" d="M103.433 147.54a8.982 8.982 0 1 0 0-17.963 8.982 8.982 0 0 0 0 17.964z" clip-path="url(#p48fa160e47)" style="fill:#86cfa5"/><path id="patch_78" d="M554.304 188.736a5.988 5.988 0 1 0 0-11.976 5.988 5.988 0 0 0 0 11.976z" clip-path="url(#p48fa160e47)" style="fill:#f98e52"/><path id="patch_79" d="M85.614 172.53a2.994 2.994 0 1 0 0-5.988 2.994 2.994 0 0 0 0 5.988z" clip-path="url(#p48fa160e47)" style="fill:#5e4fa2"/><path id="patch_80" d="M132.373 230.688a11.976 11.976 0 1 0 0-23.951 11.976 11.976 0 0 0 0 23.951z" clip-path="url(#p48fa160e47)" style="fill:#9e0142"/><path id="patch_81" d="M560.675 88.7a8.982 8.982 0 1 0 0-17.963 8.982 8.982 0 0 0 0 17.964z" clip-path="url(#p48fa160e47)" style="fill:#86cfa5"/><path id="patch_82" d="M159.321 62.31a5.988 5.988 0 1 0 0-11.976 5.988 5.988 0 0 0 0 11.976z" clip-path="url(#p48fa160e47)" style="fill:#f98e52"/><path id="patch_83" d="M544.536 194.07a3.992 3.992 0 1 0 0-7.983 3.992 3.992 0 0 0 0 7.983z" clip-path="url(#p48fa160e47)" style="fill:#ffffbe"/><path id="patch_84" d="M327.543 55.054a11.976 11.976 0 1 0 0-23.951 11.976 11.976 0 0 0 0 23.951z" clip-path="url(#p48fa160e47)" style="fill:#9e0142"/><path id="patch_85" d="M153.114 230.688a8.982 8.982 0 1 0 0-17.963 8.982 8.982 0 0 0 0 17.963z" clip-path="url(#p48fa160e47)" style="fill:#86cfa5"/><path id="patch_86" d="M303.593 55.054a11.976 11.976 0 1 0 0-23.951 11.976 11.976 0 0 0 0 23.951z" clip-path="url(#p48fa160e47)" style="fill:#9e0142"/><path id="patch_87" d="M513.153 230.688a8.982 8.982 0 1 0 0-17.963 8.982 8.982 0 0 0 0 17.963z" clip-path="url(#p48fa160e47)" style="fill:#86cfa5"/><path id="patch_88" d="M172.218 58.048a5.988 5.988 0 1 0 0-11.976 5.988 5.988 0 0 0 0 11.976z" clip-path="url(#p48fa160e47)" style="fill:#f98e52"/><path id="patch_89" d="M289.766 39.087a3.992 3.992 0 1 0 0-7.983 3.992 3.992 0 0 0 0 7.983z" clip-path="url(#p48fa160e47)" style="fill:#ffffbe"/><path id="patch_90" d="M363.469 37.092a2.994 2.994 0 1 0 0-5.988 2.994 2.994 0 0 0 0 5.988z" clip-path="url(#p48fa160e47)" style="fill:#5e4fa2"/><path id="patch_91" d="M173.855 230.688a11.976 11.976 0 1 0 0-23.951 11.976 11.976 0 0 0 0 23.951z" clip-path="url(#p48fa160e47)" style="fill:#9e0142"/><path id="patch_92" d="M118.188 165.416a11.976 11.976 0 1 0 0-23.951 11.976 11.976 0 0 0 0 23.95z" clip-path="url(#p48fa160e47)" style="fill:#9e0142"/><path id="patch_93" d="M186.229 66.31a8.982 8.982 0 1 0 0-17.963 8.982 8.982 0 0 0 0 17.964z" clip-path="url(#p48fa160e47)" style="fill:#86cfa5"/><path id="patch_94" d="M108.695 174.677a5.988 5.988 0 1 0 0-11.975 5.988 5.988 0 0 0 0 11.975z" clip-path="url(#p48fa160e47)" style="fill:#f98e52"/><path id="patch_95" d="M546.032 77.93a3.992 3.992 0 1 0 0-7.984 3.992 3.992 0 0 0 0 7.983z" clip-path="url(#p48fa160e47)" style="fill:#ffffbe"/><path id="patch_96" d="M339.518 37.092a2.994 2.994 0 1 0 0-5.988 2.994 2.994 0 0 0 0 5.988z" clip-path="url(#p48fa160e47)" style="fill:#5e4fa2"/><path id="patch_97" d="M197.806 230.688a11.976 11.976 0 1 0 0-23.951 11.976 11.976 0 0 0 0 23.951z" clip-path="url(#p48fa160e47)" style="fill:#9e0142"/><path id="patch_98" d="M171.083 75.967a8.982 8.982 0 1 0 0-17.963 8.982 8.982 0 0 0 0 17.963z" clip-path="url(#p48fa160e47)" style="fill:#86cfa5"/><path id="patch_99" d="M221.756 230.688a11.976 11.976 0 1 0 0-23.951 11.976 11.976 0 0 0 0 23.951z" clip-path="url(#p48fa160e47)" style="fill:#9e0142"/><path id="patch_100" d="M363.469 69.258a8.982 8.982 0 1 0 0-17.963 8.982 8.982 0 0 0 0 17.963z" clip-path="url(#p48fa160e47)" style="fill:#86cfa5"/><path id="patch_101" d="M112.532 188.452a5.988 5.988 0 1 0 0-11.975 5.988 5.988 0 0 0 0 11.975z" clip-path="url(#p48fa160e47)" style="fill:#f98e52"/><path id="patch_102" d="M120.398 212.144a3.992 3.992 0 1 0 0-7.984 3.992 3.992 0 0 0 0 7.984z" clip-path="url(#p48fa160e47)" style="fill:#ffffbe"/><path id="patch_103" d="M492.412 230.688a11.976 11.976 0 1 0 0-23.951 11.976 11.976 0 0 0 0 23.951z" clip-path="url(#p48fa160e47)" style="fill:#9e0142"/><path id="patch_104" d="M128.598 207.08a8.982 8.982 0 1 0 0-17.963 8.982 8.982 0 0 0 0 17.964z" clip-path="url(#p48fa160e47)" style="fill:#86cfa5"/><path id="patch_105" d="M120.389 177.256a5.988 5.988 0 1 0 0-11.976 5.988 5.988 0 0 0 0 11.976z" clip-path="url(#p48fa160e47)" style="fill:#f98e52"/><path id="patch_106" d="M209.78 230.688a2.994 2.994 0 1 0 0-5.988 2.994 2.994 0 0 0 0 5.988z" clip-path="url(#p48fa160e47)" style="fill:#5e4fa2"/><path id="patch_107" d="M468.462 230.688a11.976 11.976 0 1 0 0-23.951 11.976 11.976 0 0 0 0 23.951z" clip-path="url(#p48fa160e47)" style="fill:#9e0142"/><path id="patch_108" d="M509.73 75.795a11.976 11.976 0 1 0 0-23.95 11.976 11.976 0 0 0 0 23.95z" clip-path="url(#p48fa160e47)" style="fill:#9e0142"/><path id="patch_109" d="M145.948 211.73a8.982 8.982 0 1 0 0-17.964 8.982 8.982 0 0 0 0 17.964z" clip-path="url(#p48fa160e47)" style="fill:#86cfa5"/><path id="patch_110" d="M451.527 230.688a5.988 5.988 0 1 0 0-11.976 5.988 5.988 0 0 0 0 11.976z" clip-path="url(#p48fa160e47)" style="fill:#f98e52"/><path id="patch_111" d="M160.028 214.721a3.992 3.992 0 1 0 0-7.983 3.992 3.992 0 0 0 0 7.983z" clip-path="url(#p48fa160e47)" style="fill:#ffffbe"/><path id="patch_112" d="M245.706 230.688a11.976 11.976 0 1 0 0-23.951 11.976 11.976 0 0 0 0 23.951z" clip-path="url(#p48fa160e47)" style="fill:#9e0142"/><path id="patch_113" d="M381.186 72.214a8.982 8.982 0 1 0 0-17.963 8.982 8.982 0 0 0 0 17.963z" clip-path="url(#p48fa160e47)" style="fill:#86cfa5"/><path id="patch_114" d="M480.437 230.688a2.994 2.994 0 1 0 0-5.988 2.994 2.994 0 0 0 0 5.988z" clip-path="url(#p48fa160e47)" style="fill:#5e4fa2"/><path id="patch_115" d="M122.51 141.859a11.976 11.976 0 1 0-.001-23.951 11.976 11.976 0 0 0 0 23.95z" clip-path="url(#p48fa160e47)" style="fill:#9e0142"/><path id="patch_116" d="M237.866 69.258a8.982 8.982 0 1 0 0-17.963 8.982 8.982 0 0 0 0 17.963z" clip-path="url(#p48fa160e47)" style="fill:#86cfa5"/><path id="patch_117" d="M439.552 230.688a5.988 5.988 0 1 0 0-11.976 5.988 5.988 0 0 0 0 11.976z" clip-path="url(#p48fa160e47)" style="fill:#f98e52"/><path id="patch_118" d="M259.533 230.688a3.992 3.992 0 1 0 0-7.984 3.992 3.992 0 0 0 0 7.984z" clip-path="url(#p48fa160e47)" style="fill:#ffffbe"/><path id="patch_119" d="M422.616 230.688a11.976 11.976 0 1 0 0-23.951 11.976 11.976 0 0 0 0 23.951z" clip-path="url(#p48fa160e47)" style="fill:#9e0142"/><path id="patch_120" d="M410.807 72.367a8.982 8.982 0 1 0 0-17.963 8.982 8.982 0 0 0 0 17.963z" clip-path="url(#p48fa160e47)" style="fill:#86cfa5"/><path id="patch_121" d="M424.996 64.605a5.988 5.988 0 1 0 0-11.976 5.988 5.988 0 0 0 0 11.976z" clip-path="url(#p48fa160e47)" style="fill:#f98e52"/><path id="patch_122" d="M185.83 230.688a2.994 2.994 0 1 0 0-5.988 2.994 2.994 0 0 0 0 5.988z" clip-path="url(#p48fa160e47)" style="fill:#5e4fa2"/><path id="patch_123" d="M398.666 230.688a11.976 11.976 0 1 0 0-23.951 11.976 11.976 0 0 0 0 23.951z" clip-path="url(#p48fa160e47)" style="fill:#9e0142"/><path id="patch_124" d="M267.517 230.688a3.992 3.992 0 1 0 0-7.984 3.992 3.992 0 0 0 0 7.984z" clip-path="url(#p48fa160e47)" style="fill:#ffffbe"/><path id="patch_125" d="M374.716 230.688a11.976 11.976 0 1 0 0-23.951 11.976 11.976 0 0 0 0 23.951z" clip-path="url(#p48fa160e47)" style="fill:#9e0142"/><path id="patch_126" d="M507.853 213.525a8.982 8.982 0 1 0 0-17.963 8.982 8.982 0 0 0 0 17.963z" clip-path="url(#p48fa160e47)" style="fill:#86cfa5"/><path id="patch_127" d="M396.249 72.855a5.988 5.988 0 1 0 0-11.975 5.988 5.988 0 0 0 0 11.975z" clip-path="url(#p48fa160e47)" style="fill:#f98e52"/><path id="patch_128" d="M350.766 230.688a11.976 11.976 0 1 0 0-23.951 11.976 11.976 0 0 0 0 23.951z" clip-path="url(#p48fa160e47)" style="fill:#9e0142"/><path id="patch_129" d="M279.492 230.688a8.982 8.982 0 1 0 0-17.963 8.982 8.982 0 0 0 0 17.963z" clip-path="url(#p48fa160e47)" style="fill:#86cfa5"/><path id="patch_130" d="M519.447 214.355a3.992 3.992 0 1 0 0-7.984 3.992 3.992 0 0 0 0 7.984z" clip-path="url(#p48fa160e47)" style="fill:#ffffbe"/><path id="patch_131" d="M261.816 37.092a2.994 2.994 0 1 0 0-5.988 2.994 2.994 0 0 0 0 5.988z" clip-path="url(#p48fa160e47)" style="fill:#5e4fa2"/><path id="patch_132" d="M326.816 230.688a11.976 11.976 0 1 0 0-23.951 11.976 11.976 0 0 0 0 23.951z" clip-path="url(#p48fa160e47)" style="fill:#9e0142"/><path id="patch_133" d="M524.78 207.518a8.982 8.982 0 1 0 0-17.963 8.982 8.982 0 0 0 0 17.963z" clip-path="url(#p48fa160e47)" style="fill:#86cfa5"/><path id="patch_134" d="M265.293 222.956a5.988 5.988 0 1 0 0-11.976 5.988 5.988 0 0 0 0 11.976z" clip-path="url(#p48fa160e47)" style="fill:#f98e52"/><path id="patch_135" d="M302.866 230.688a11.976 11.976 0 1 0 0-23.951 11.976 11.976 0 0 0 0 23.951z" clip-path="url(#p48fa160e47)" style="fill:#9e0142"/><path id="patch_136" d="M509.985 195.672a11.976 11.976 0 1 0 0-23.952 11.976 11.976 0 0 0 0 23.952z" clip-path="url(#p48fa160e47)" style="fill:#9e0142"/><path id="patch_137" d="M492.49 204.216a8.982 8.982 0 1 0 0-17.963 8.982 8.982 0 0 0 0 17.963z" clip-path="url(#p48fa160e47)" style="fill:#86cfa5"/><path id="patch_138" d="M480.437 211.312a5.988 5.988 0 1 0 0-11.976 5.988 5.988 0 0 0 0 11.976z" clip-path="url(#p48fa160e47)" style="fill:#f98e52"/><path id="patch_139" d="M536.553 194.07a3.992 3.992 0 1 0 0-7.983 3.992 3.992 0 0 0 0 7.983z" clip-path="url(#p48fa160e47)" style="fill:#ffffbe"/><path id="patch_140" d="M237.866 37.092a2.994 2.994 0 1 0 0-5.988 2.994 2.994 0 0 0 0 5.988z" clip-path="url(#p48fa160e47)" style="fill:#5e4fa2"/><path id="patch_141" d="M185.83 209.947a11.976 11.976 0 1 0 0-23.952 11.976 11.976 0 0 0 0 23.952z" clip-path="url(#p48fa160e47)" style="fill:#9e0142"/><path id="patch_142" d="M345.751 72.214a8.982 8.982 0 1 0 0-17.963 8.982 8.982 0 0 0 0 17.963z" clip-path="url(#p48fa160e47)" style="fill:#86cfa5"/><path id="patch_143" d="M168.248 207.636a5.988 5.988 0 1 0 0-11.976 5.988 5.988 0 0 0 0 11.976z" clip-path="url(#p48fa160e47)" style="fill:#f98e52"/><path id="patch_144" d="M445.54 219.74a11.976 11.976 0 1 0-.001-23.95 11.976 11.976 0 0 0 0 23.95z" clip-path="url(#p48fa160e47)" style="fill:#9e0142"/><path id="patch_145" d="M114.75 109.408a8.982 8.982 0 1 0-.001-17.963 8.982 8.982 0 0 0 0 17.963z" clip-path="url(#p48fa160e47)" style="fill:#86cfa5"/><path id="patch_146" d="M525.837 189.599a3.992 3.992 0 1 0 0-7.984 3.992 3.992 0 0 0 0 7.984z" clip-path="url(#p48fa160e47)" style="fill:#ffffbe"/><path id="patch_147" d="M338.791 230.688a2.994 2.994 0 1 0 0-5.988 2.994 2.994 0 0 0 0 5.988z" clip-path="url(#p48fa160e47)" style="fill:#5e4fa2"/><path id="patch_148" d="M209.78 209.947a11.976 11.976 0 1 0 0-23.952 11.976 11.976 0 0 0 0 23.952z" clip-path="url(#p48fa160e47)" style="fill:#9e0142"/><path id="patch_149" d="M357.17 86.08a8.982 8.982 0 1 0 0-17.963 8.982 8.982 0 0 0 0 17.963z" clip-path="url(#p48fa160e47)" style="fill:#86cfa5"/><path id="patch_150" d="M125.083 95.585a5.988 5.988 0 1 0 0-11.976 5.988 5.988 0 0 0 0 11.976z" clip-path="url(#p48fa160e47)" style="fill:#f98e52"/><path id="patch_151" d="M537.538 99.433a11.976 11.976 0 1 0 0-23.951 11.976 11.976 0 0 0 0 23.95z" clip-path="url(#p48fa160e47)" style="fill:#9e0142"/><path id="patch_152" d="M369.086 75.962a3.992 3.992 0 1 0 0-7.984 3.992 3.992 0 0 0 0 7.984z" clip-path="url(#p48fa160e47)" style="fill:#ffffbe"/><path id="patch_153" d="M188.835 90.098a11.976 11.976 0 1 0 0-23.951 11.976 11.976 0 0 0 0 23.951z" clip-path="url(#p48fa160e47)" style="fill:#9e0142"/><path id="patch_154" d="M557.043 111.116a8.982 8.982 0 1 0 0-17.964 8.982 8.982 0 0 0 0 17.964z" clip-path="url(#p48fa160e47)" style="fill:#86cfa5"/><path id="patch_155" d="M521.705 83.196a5.988 5.988 0 1 0 0-11.975 5.988 5.988 0 0 0 0 11.975z" clip-path="url(#p48fa160e47)" style="fill:#f98e52"/><path id="patch_156" d="M314.841 230.688a2.994 2.994 0 1 0 0-5.988 2.994 2.994 0 0 0 0 5.988z" clip-path="url(#p48fa160e47)" style="fill:#5e4fa2"/><path id="patch_157" d="M472.987 77.207a11.976 11.976 0 1 0 0-23.951 11.976 11.976 0 0 0 0 23.95z" clip-path="url(#p48fa160e47)" style="fill:#9e0142"/><path id="patch_158" d="M452.529 69.673a8.982 8.982 0 1 0 0-17.963 8.982 8.982 0 0 0 0 17.963z" clip-path="url(#p48fa160e47)" style="fill:#86cfa5"/><path id="patch_159" d="M137.861 179.075a11.976 11.976 0 1 0 0-23.951 11.976 11.976 0 0 0 0 23.951z" clip-path="url(#p48fa160e47)" style="fill:#9e0142"/><path id="patch_160" d="M137.833 155.125a8.982 8.982 0 1 0 0-17.963 8.982 8.982 0 0 0 0 17.963z" clip-path="url(#p48fa160e47)" style="fill:#86cfa5"/><path id="patch_161" d="M540.545 186.92a5.988 5.988 0 1 0 0-11.975 5.988 5.988 0 0 0 0 11.975z" clip-path="url(#p48fa160e47)" style="fill:#f98e52"/><path id="patch_162" d="M486.732 61.098a3.992 3.992 0 1 0 0-7.984 3.992 3.992 0 0 0 0 7.984z" clip-path="url(#p48fa160e47)" style="fill:#ffffbe"/><path id="patch_163" d="M386.691 209.947a11.976 11.976 0 1 0 0-23.952 11.976 11.976 0 0 0 0 23.952z" clip-path="url(#p48fa160e47)" style="fill:#9e0142"/><path id="patch_164" d="M549.172 177.668a8.982 8.982 0 1 0 0-17.963 8.982 8.982 0 0 0 0 17.963z" clip-path="url(#p48fa160e47)" style="fill:#86cfa5"/><path id="patch_165" d="M126.891 187.311a5.988 5.988 0 1 0 0-11.975 5.988 5.988 0 0 0 0 11.975z" clip-path="url(#p48fa160e47)" style="fill:#f98e52"/><path id="patch_166" d="M410.641 230.688a2.994 2.994 0 1 0 0-5.988 2.994 2.994 0 0 0 0 5.988z" clip-path="url(#p48fa160e47)" style="fill:#5e4fa2"/><path id="patch_167" d="M166.548 195.741a11.976 11.976 0 1 0 0-23.951 11.976 11.976 0 0 0 0 23.951z" clip-path="url(#p48fa160e47)" style="fill:#9e0142"/><path id="patch_168" d="M159.021 201.839a3.992 3.992 0 1 0 0-7.984 3.992 3.992 0 0 0 0 7.984z" clip-path="url(#p48fa160e47)" style="fill:#ffffbe"/><path id="patch_169" d="M135.336 116.321a11.976 11.976 0 1 0 0-23.951 11.976 11.976 0 0 0 0 23.951z" clip-path="url(#p48fa160e47)" style="fill:#9e0142"/><path id="patch_170" d="M527.883 181.778a8.982 8.982 0 1 0 0-17.964 8.982 8.982 0 0 0 0 17.964z" clip-path="url(#p48fa160e47)" style="fill:#86cfa5"/><path id="patch_171" d="M138.27 191.045a5.988 5.988 0 1 0 0-11.975 5.988 5.988 0 0 0 0 11.975z" clip-path="url(#p48fa160e47)" style="fill:#f98e52"/><path id="patch_172" d="M197.806 189.205a11.976 11.976 0 1 0 0-23.951 11.976 11.976 0 0 0 0 23.951z" clip-path="url(#p48fa160e47)" style="fill:#9e0142"/><path id="patch_173" d="M555.436 156.279a8.982 8.982 0 1 0 0-17.963 8.982 8.982 0 0 0 0 17.963z" clip-path="url(#p48fa160e47)" style="fill:#86cfa5"/><path id="patch_174" d="M146.987 184.193a3.992 3.992 0 1 0 0-7.984 3.992 3.992 0 0 0 0 7.984z" clip-path="url(#p48fa160e47)" style="fill:#ffffbe"/><path id="patch_175" d="M362.741 230.688a2.994 2.994 0 1 0 0-5.988 2.994 2.994 0 0 0 0 5.988z" clip-path="url(#p48fa160e47)" style="fill:#5e4fa2"/><path id="patch_176" d="M455.369 93.43a11.976 11.976 0 1 0 0-23.951 11.976 11.976 0 0 0 0 23.951z" clip-path="url(#p48fa160e47)" style="fill:#9e0142"/><path id="patch_177" d="M437.492 79.5a8.982 8.982 0 1 0 0-17.963 8.982 8.982 0 0 0 0 17.963z" clip-path="url(#p48fa160e47)" style="fill:#86cfa5"/><path id="patch_178" d="M558.833 122.983a5.988 5.988 0 1 0 0-11.975 5.988 5.988 0 0 0 0 11.975z" clip-path="url(#p48fa160e47)" style="fill:#f98e52"/><path id="patch_179" d="M507.069 99.597a11.976 11.976 0 1 0 0-23.951 11.976 11.976 0 0 0 0 23.951z" clip-path="url(#p48fa160e47)" style="fill:#9e0142"/><path id="patch_180" d="M548.683 139.634a8.982 8.982 0 1 0 0-17.963 8.982 8.982 0 0 0 0 17.963z" clip-path="url(#p48fa160e47)" style="fill:#86cfa5"/><path id="patch_181" d="M490.926 72.148a5.988 5.988 0 1 0 0-11.975 5.988 5.988 0 0 0 0 11.975z" clip-path="url(#p48fa160e47)" style="fill:#f98e52"/><path id="patch_182" d="M182.453 186.358a3.992 3.992 0 1 0 0-7.984 3.992 3.992 0 0 0 0 7.984z" clip-path="url(#p48fa160e47)" style="fill:#ffffbe"/><path id="patch_183" d="M386.691 230.688a2.994 2.994 0 1 0 0-5.988 2.994 2.994 0 0 0 0 5.988z" clip-path="url(#p48fa160e47)" style="fill:#5e4fa2"/><path id="patch_184" d="M258.15 77.517a11.976 11.976 0 1 0 0-23.952 11.976 11.976 0 0 0 0 23.952z" clip-path="url(#p48fa160e47)" style="fill:#9e0142"/><path id="patch_185" d="M465.8 206.886a11.976 11.976 0 1 0 0-23.951 11.976 11.976 0 0 0 0 23.951z" clip-path="url(#p48fa160e47)" style="fill:#9e0142"/><path id="patch_186" d="M487.177 89.634a8.982 8.982 0 1 0 0-17.963 8.982 8.982 0 0 0 0 17.963z" clip-path="url(#p48fa160e47)" style="fill:#86cfa5"/><path id="patch_187" d="M547.364 119.54a5.988 5.988 0 1 0 0-11.975 5.988 5.988 0 0 0 0 11.975z" clip-path="url(#p48fa160e47)" style="fill:#f98e52"/><path id="patch_188" d="M362.741 209.947a11.976 11.976 0 1 0 0-23.952 11.976 11.976 0 0 0 0 23.952z" clip-path="url(#p48fa160e47)" style="fill:#9e0142"/><path id="patch_189" d="M147.905 94.054a8.982 8.982 0 1 0 0-17.963 8.982 8.982 0 0 0 0 17.963z" clip-path="url(#p48fa160e47)" style="fill:#86cfa5"/><path id="patch_190" d="M471.332 85.104a3.992 3.992 0 1 0 0-7.984 3.992 3.992 0 0 0 0 7.984z" clip-path="url(#p48fa160e47)" style="fill:#ffffbe"/><path id="patch_191" d="M289.862 230.688a2.994 2.994 0 1 0 0-5.988 2.994 2.994 0 0 0 0 5.988z" clip-path="url(#p48fa160e47)" style="fill:#5e4fa2"/><path id="patch_192" d="M410.641 209.947a11.976 11.976 0 1 0 0-23.952 11.976 11.976 0 0 0 0 23.952z" clip-path="url(#p48fa160e47)" style="fill:#9e0142"/><path id="patch_193" d="M168.979 93.806a8.982 8.982 0 1 0 0-17.963 8.982 8.982 0 0 0 0 17.963z" clip-path="url(#p48fa160e47)" style="fill:#86cfa5"/><path id="patch_194" d="M199.713 69.816a5.988 5.988 0 1 0 0-11.975 5.988 5.988 0 0 0 0 11.975z" clip-path="url(#p48fa160e47)" style="fill:#f98e52"/><path id="patch_195" d="M398.666 189.205a11.976 11.976 0 1 0 0-23.951 11.976 11.976 0 0 0 0 23.951z" clip-path="url(#p48fa160e47)" style="fill:#9e0142"/><path id="patch_196" d="M157.786 80.658a3.992 3.992 0 1 0 0-7.984 3.992 3.992 0 0 0 0 7.984z" clip-path="url(#p48fa160e47)" style="fill:#ffffbe"/><path id="patch_197" d="M534.514 158.068a11.976 11.976 0 1 0 0-23.95 11.976 11.976 0 0 0 0 23.95z" clip-path="url(#p48fa160e47)" style="fill:#9e0142"/><path id="patch_198" d="M220.148 72.214a8.982 8.982 0 1 0 0-17.963 8.982 8.982 0 0 0 0 17.963z" clip-path="url(#p48fa160e47)" style="fill:#86cfa5"/><path id="patch_199" d="M206.28 79.83a5.988 5.988 0 1 0 0-11.975 5.988 5.988 0 0 0 0 11.975z" clip-path="url(#p48fa160e47)" style="fill:#f98e52"/><path id="patch_200" d="M315.568 37.092a2.994 2.994 0 1 0 0-5.988 2.994 2.994 0 0 0 0 5.988z" clip-path="url(#p48fa160e47)" style="fill:#5e4fa2"/><path id="patch_201" d="M422.616 189.205a11.976 11.976 0 1 0 0-23.951 11.976 11.976 0 0 0 0 23.951z" clip-path="url(#p48fa160e47)" style="fill:#9e0142"/><path id="patch_202" d="M410.641 169.014a8.982 8.982 0 1 0 0-17.964 8.982 8.982 0 0 0 0 17.964z" clip-path="url(#p48fa160e47)" style="fill:#86cfa5"/><path id="patch_203" d="M428.224 200.283a5.988 5.988 0 1 0 0-11.976 5.988 5.988 0 0 0 0 11.976z" clip-path="url(#p48fa160e47)" style="fill:#f98e52"/><path id="patch_204" d="M135.252 91.93a3.992 3.992 0 1 0 0-7.983 3.992 3.992 0 0 0 0 7.983z" clip-path="url(#p48fa160e47)" style="fill:#ffffbe"/><path id="patch_205" d="M338.791 209.947a11.976 11.976 0 1 0 0-23.952 11.976 11.976 0 0 0 0 23.952z" clip-path="url(#p48fa160e47)" style="fill:#9e0142"/><path id="patch_206" d="M441.223 195.854a8.982 8.982 0 1 0 0-17.963 8.982 8.982 0 0 0 0 17.963z" clip-path="url(#p48fa160e47)" style="fill:#86cfa5"/><path id="patch_207" d="M85.614 133.603a2.994 2.994 0 1 0 0-5.988 2.994 2.994 0 0 0 0 5.988z" clip-path="url(#p48fa160e47)" style="fill:#5e4fa2"/><path id="patch_208" d="M314.841 209.947a11.976 11.976 0 1 0 0-23.952 11.976 11.976 0 0 0 0 23.952z" clip-path="url(#p48fa160e47)" style="fill:#9e0142"/><path id="patch_209" d="M512.867 171.92a8.982 8.982 0 1 0 0-17.963 8.982 8.982 0 0 0 0 17.964z" clip-path="url(#p48fa160e47)" style="fill:#86cfa5"/><path id="patch_210" d="M395.681 165.505a5.988 5.988 0 1 0 0-11.976 5.988 5.988 0 0 0 0 11.976z" clip-path="url(#p48fa160e47)" style="fill:#f98e52"/><path id="patch_211" d="M525.512 164.034a3.992 3.992 0 1 0 0-7.984 3.992 3.992 0 0 0 0 7.984z" clip-path="url(#p48fa160e47)" style="fill:#ffffbe"/><path id="patch_212" d="M375.958 98.358a11.976 11.976 0 1 0 0-23.951 11.976 11.976 0 0 0 0 23.951z" clip-path="url(#p48fa160e47)" style="fill:#9e0142"/><path id="patch_213" d="M473.667 108.882a11.976 11.976 0 1 0 0-23.95 11.976 11.976 0 0 0 0 23.95z" clip-path="url(#p48fa160e47)" style="fill:#9e0142"/><path id="patch_214" d="M489.982 186.43a8.982 8.982 0 1 0 0-17.964 8.982 8.982 0 0 0 0 17.963z" clip-path="url(#p48fa160e47)" style="fill:#86cfa5"/><path id="patch_215" d="M358.886 97.957a5.988 5.988 0 1 0 0-11.976 5.988 5.988 0 0 0 0 11.976z" clip-path="url(#p48fa160e47)" style="fill:#f98e52"/><path id="patch_216" d="M85.614 85.703a2.994 2.994 0 1 0 0-5.988 2.994 2.994 0 0 0 0 5.988z" clip-path="url(#p48fa160e47)" style="fill:#5e4fa2"/><path id="patch_217" d="M451.136 117.003a11.976 11.976 0 1 0 0-23.951 11.976 11.976 0 0 0 0 23.951z" clip-path="url(#p48fa160e47)" style="fill:#9e0142"/><path id="patch_218" d="M436.325 99.183a8.982 8.982 0 1 0 0-17.963 8.982 8.982 0 0 0 0 17.963z" clip-path="url(#p48fa160e47)" style="fill:#86cfa5"/><path id="patch_219" d="M425.601 165.505a5.988 5.988 0 1 0 0-11.976 5.988 5.988 0 0 0 0 11.976z" clip-path="url(#p48fa160e47)" style="fill:#f98e52"/><path id="patch_220" d="M501.927 173.904a3.992 3.992 0 1 0 0-7.984 3.992 3.992 0 0 0 0 7.984z" clip-path="url(#p48fa160e47)" style="fill:#ffffbe"/><path id="patch_221" d="M469.434 132.455a11.976 11.976 0 1 0 0-23.95 11.976 11.976 0 0 0 0 23.95z" clip-path="url(#p48fa160e47)" style="fill:#9e0142"/><path id="patch_222" d="M495.413 167.674a8.982 8.982 0 1 0 0-17.963 8.982 8.982 0 0 0 0 17.963z" clip-path="url(#p48fa160e47)" style="fill:#86cfa5"/><path id="patch_223" d="M446.903 140.576a11.976 11.976 0 1 0 0-23.951 11.976 11.976 0 0 0 0 23.951z" clip-path="url(#p48fa160e47)" style="fill:#9e0142"/><path id="patch_224" d="M339.452 89.037a8.982 8.982 0 1 0 0-17.964 8.982 8.982 0 0 0 0 17.964z" clip-path="url(#p48fa160e47)" style="fill:#86cfa5"/><path id="patch_225" d="M506.971 155.168a5.988 5.988 0 1 0 0-11.976 5.988 5.988 0 0 0 0 11.976z" clip-path="url(#p48fa160e47)" style="fill:#f98e52"/><path id="patch_226" d="M559.566 164.916a3.992 3.992 0 1 0 0-7.984 3.992 3.992 0 0 0 0 7.984z" clip-path="url(#p48fa160e47)" style="fill:#ffffbe"/><path id="patch_227" d="M233.73 230.688a2.994 2.994 0 1 0 0-5.988 2.994 2.994 0 0 0 0 5.988z" clip-path="url(#p48fa160e47)" style="fill:#5e4fa2"/><path id="patch_228" d="M374.716 189.205a11.976 11.976 0 1 0 0-23.951 11.976 11.976 0 0 0 0 23.951z" clip-path="url(#p48fa160e47)" style="fill:#9e0142"/><path id="patch_229" d="M491.966 124.335a11.976 11.976 0 1 0 0-23.951 11.976 11.976 0 0 0 0 23.95z" clip-path="url(#p48fa160e47)" style="fill:#9e0142"/><path id="patch_230" d="M328.033 75.17a8.982 8.982 0 1 0 0-17.963 8.982 8.982 0 0 0 0 17.964z" clip-path="url(#p48fa160e47)" style="fill:#86cfa5"/><path id="patch_231" d="M315.568 62.455a5.988 5.988 0 1 0 0-11.976 5.988 5.988 0 0 0 0 11.976z" clip-path="url(#p48fa160e47)" style="fill:#f98e52"/><path id="patch_232" d="M481.967 191.64a3.992 3.992 0 1 0 0-7.983 3.992 3.992 0 0 0 0 7.984z" clip-path="url(#p48fa160e47)" style="fill:#ffffbe"/><path id="patch_233" d="M120.398 230.688a2.994 2.994 0 1 0 0-5.988 2.994 2.994 0 0 0 0 5.988z" clip-path="url(#p48fa160e47)" style="fill:#5e4fa2"/><path id="patch_234" d="M232.123 92.406a11.976 11.976 0 1 0 0-23.951 11.976 11.976 0 0 0 0 23.951z" clip-path="url(#p48fa160e47)" style="fill:#9e0142"/><path id="patch_235" d="M154.073 162.801a8.982 8.982 0 1 0 0-17.963 8.982 8.982 0 0 0 0 17.963z" clip-path="url(#p48fa160e47)" style="fill:#86cfa5"/><path id="patch_236" d="M399.877 154.027a11.976 11.976 0 1 0 0-23.951 11.976 11.976 0 0 0 0 23.95z" clip-path="url(#p48fa160e47)" style="fill:#9e0142"/><path id="patch_237" d="M420.612 154.072a8.982 8.982 0 1 0 0-17.963 8.982 8.982 0 0 0 0 17.963z" clip-path="url(#p48fa160e47)" style="fill:#86cfa5"/><path id="patch_238" d="M155.753 174.682a5.988 5.988 0 1 0 0-11.976 5.988 5.988 0 0 0 0 11.976z" clip-path="url(#p48fa160e47)" style="fill:#f98e52"/><path id="patch_239" d="M378.79 165.382a11.976 11.976 0 1 0 0-23.951 11.976 11.976 0 0 0 0 23.95z" clip-path="url(#p48fa160e47)" style="fill:#9e0142"/><path id="patch_240" d="M169.562 171.898a8.982 8.982 0 1 0 0-17.964 8.982 8.982 0 0 0 0 17.964z" clip-path="url(#p48fa160e47)" style="fill:#86cfa5"/><path id="patch_241" d="M304.492 67.007a5.988 5.988 0 1 0 0-11.976 5.988 5.988 0 0 0 0 11.976z" clip-path="url(#p48fa160e47)" style="fill:#f98e52"/><path id="patch_242" d="M216.849 79.771a3.992 3.992 0 1 0 0-7.983 3.992 3.992 0 0 0 0 7.983z" clip-path="url(#p48fa160e47)" style="fill:#ffffbe"/><path id="patch_243" d="M150.728 46.613a2.994 2.994 0 1 0 0-5.988 2.994 2.994 0 0 0 0 5.988z" clip-path="url(#p48fa160e47)" style="fill:#5e4fa2"/><path id="patch_244" d="M443.81 178.052a11.976 11.976 0 1 0 0-23.951 11.976 11.976 0 0 0 0 23.95z" clip-path="url(#p48fa160e47)" style="fill:#9e0142"/><path id="patch_245" d="M529.286 134.696a11.976 11.976 0 1 0 0-23.951 11.976 11.976 0 0 0 0 23.95z" clip-path="url(#p48fa160e47)" style="fill:#9e0142"/><path id="patch_246" d="M212.595 97.017a8.982 8.982 0 1 0 0-17.964 8.982 8.982 0 0 0 0 17.964z" clip-path="url(#p48fa160e47)" style="fill:#86cfa5"/><path id="patch_247" d="M518.835 143.317a5.988 5.988 0 1 0 0-11.975 5.988 5.988 0 0 0 0 11.975z" clip-path="url(#p48fa160e47)" style="fill:#f98e52"/><path id="patch_248" d="M121.165 115.694a3.992 3.992 0 1 0 0-7.984 3.992 3.992 0 0 0 0 7.984z" clip-path="url(#p48fa160e47)" style="fill:#ffffbe"/><path id="patch_249" d="M154.044 144.839a11.976 11.976 0 1 0 0-23.952 11.976 11.976 0 0 0 0 23.952z" clip-path="url(#p48fa160e47)" style="fill:#9e0142"/><path id="patch_250" d="M508.648 135.343a8.982 8.982 0 1 0 0-17.964 8.982 8.982 0 0 0 0 17.964z" clip-path="url(#p48fa160e47)" style="fill:#86cfa5"/><path id="patch_251" d="M493.698 60.612a2.994 2.994 0 1 0 0-5.988 2.994 2.994 0 0 0 0 5.988z" clip-path="url(#p48fa160e47)" style="fill:#5e4fa2"/><path id="patch_252" d="M416.269 136.565a11.976 11.976 0 1 0 0-23.951 11.976 11.976 0 0 0 0 23.95z" clip-path="url(#p48fa160e47)" style="fill:#9e0142"/><path id="patch_253" d="M430.284 116.1a8.982 8.982 0 1 0 0-17.964 8.982 8.982 0 0 0 0 17.963z" clip-path="url(#p48fa160e47)" style="fill:#86cfa5"/><path id="patch_254" d="M167.881 154.03a5.988 5.988 0 1 0 0-11.976 5.988 5.988 0 0 0 0 11.976z" clip-path="url(#p48fa160e47)" style="fill:#f98e52"/><path id="patch_255" d="M147.758 192.14a3.992 3.992 0 1 0 0-7.984 3.992 3.992 0 0 0 0 7.983z" clip-path="url(#p48fa160e47)" style="fill:#ffffbe"/><path id="patch_256" d="M326.816 189.205a11.976 11.976 0 1 0 0-23.951 11.976 11.976 0 0 0 0 23.951z" clip-path="url(#p48fa160e47)" style="fill:#9e0142"/><path id="patch_257" d="M274.272 213.386a11.976 11.976 0 1 0 0-23.951 11.976 11.976 0 0 0 0 23.95z" clip-path="url(#p48fa160e47)" style="fill:#9e0142"/><path id="patch_258" d="M513.41 118.023a8.982 8.982 0 1 0 0-17.963 8.982 8.982 0 0 0 0 17.963z" clip-path="url(#p48fa160e47)" style="fill:#86cfa5"/><path id="patch_259" d="M454.701 186.35a5.988 5.988 0 1 0 0-11.976 5.988 5.988 0 0 0 0 11.975z" clip-path="url(#p48fa160e47)" style="fill:#f98e52"/><path id="patch_260" d="M428.531 138.808a3.992 3.992 0 1 0 0-7.984 3.992 3.992 0 0 0 0 7.984z" clip-path="url(#p48fa160e47)" style="fill:#ffffbe"/><path id="patch_261" d="M349.615 89.384a2.994 2.994 0 1 0 0-5.988 2.994 2.994 0 0 0 0 5.988z" clip-path="url(#p48fa160e47)" style="fill:#5e4fa2"/><path id="patch_262" d="M302.866 189.205a11.976 11.976 0 1 0 0-23.951 11.976 11.976 0 0 0 0 23.951z" clip-path="url(#p48fa160e47)" style="fill:#9e0142"/><path id="patch_263" d="M344.6 106.246a8.982 8.982 0 1 0 0-17.964 8.982 8.982 0 0 0 0 17.964z" clip-path="url(#p48fa160e47)" style="fill:#86cfa5"/><path id="patch_264" d="M297.259 200.283a5.988 5.988 0 1 0 0-11.976 5.988 5.988 0 0 0 0 11.976z" clip-path="url(#p48fa160e47)" style="fill:#f98e52"/><path id="patch_265" d="M185.773 161.611a11.976 11.976 0 1 0 0-23.95 11.976 11.976 0 0 0 0 23.95z" clip-path="url(#p48fa160e47)" style="fill:#9e0142"/><path id="patch_266" d="M494.603 149.73a8.982 8.982 0 1 0 0-17.964 8.982 8.982 0 0 0 0 17.964z" clip-path="url(#p48fa160e47)" style="fill:#86cfa5"/><path id="patch_267" d="M100.383 59.877a2.994 2.994 0 1 0 0-5.988 2.994 2.994 0 0 0 0 5.988z" clip-path="url(#p48fa160e47)" style="fill:#5e4fa2"/><path id="patch_268" d="M350.766 189.205a11.976 11.976 0 1 0 0-23.951 11.976 11.976 0 0 0 0 23.951z" clip-path="url(#p48fa160e47)" style="fill:#9e0142"/><path id="patch_269" d="M289.694 67.744a8.982 8.982 0 1 0 0-17.963 8.982 8.982 0 0 0 0 17.963z" clip-path="url(#p48fa160e47)" style="fill:#86cfa5"/><path id="patch_270" d="M287.779 192.966a5.988 5.988 0 1 0 0-11.976 5.988 5.988 0 0 0 0 11.976z" clip-path="url(#p48fa160e47)" style="fill:#f98e52"/><path id="patch_271" d="M509.058 143.32a3.992 3.992 0 1 0 0-7.984 3.992 3.992 0 0 0 0 7.984z" clip-path="url(#p48fa160e47)" style="fill:#ffffbe"/><path id="patch_272" d="M392.95 131.1a11.976 11.976 0 1 0 0-23.951 11.976 11.976 0 0 0 0 23.951z" clip-path="url(#p48fa160e47)" style="fill:#9e0142"/><path id="patch_273" d="M467.687 179.927a11.976 11.976 0 1 0 0-23.951 11.976 11.976 0 0 0 0 23.95z" clip-path="url(#p48fa160e47)" style="fill:#9e0142"/><path id="patch_274" d="M457.095 158.85a8.982 8.982 0 1 0 0-17.963 8.982 8.982 0 0 0 0 17.963z" clip-path="url(#p48fa160e47)" style="fill:#86cfa5"/><path id="patch_275" d="M172.86 143.138a5.988 5.988 0 1 0-.001-11.975 5.988 5.988 0 0 0 0 11.975z" clip-path="url(#p48fa160e47)" style="fill:#f98e52"/><path id="patch_276" d="M489.63 100.556a3.992 3.992 0 1 0 0-7.983 3.992 3.992 0 0 0 0 7.983z" clip-path="url(#p48fa160e47)" style="fill:#ffffbe"/><path id="patch_277" d="M386.691 171.243a2.994 2.994 0 1 0 0-5.988 2.994 2.994 0 0 0 0 5.988z" clip-path="url(#p48fa160e47)" style="fill:#5e4fa2"/><path id="patch_278" d="M182.153 113.097a11.976 11.976 0 1 0 0-23.95 11.976 11.976 0 0 0 0 23.95z" clip-path="url(#p48fa160e47)" style="fill:#9e0142"/><path id="patch_279" d="M161.197 109.996a8.982 8.982 0 1 0 0-17.964 8.982 8.982 0 0 0 0 17.964z" clip-path="url(#p48fa160e47)" style="fill:#86cfa5"/><path id="patch_280" d="M198.351 99.345a5.988 5.988 0 1 0 0-11.975 5.988 5.988 0 0 0 0 11.975z" clip-path="url(#p48fa160e47)" style="fill:#f98e52"/><path id="patch_281" d="M323.886 106.061a11.976 11.976 0 1 0 0-23.951 11.976 11.976 0 0 0 0 23.951z" clip-path="url(#p48fa160e47)" style="fill:#9e0142"/><path id="patch_282" d="M168.812 126.264a8.982 8.982 0 1 0 0-17.963 8.982 8.982 0 0 0 0 17.963z" clip-path="url(#p48fa160e47)" style="fill:#86cfa5"/><path id="patch_283" d="M544.217 108.075a3.992 3.992 0 1 0 0-7.984 3.992 3.992 0 0 0 0 7.984z" clip-path="url(#p48fa160e47)" style="fill:#ffffbe"/><path id="patch_284" d="M334.433 127.564a11.976 11.976 0 1 0 0-23.951 11.976 11.976 0 0 0 0 23.951z" clip-path="url(#p48fa160e47)" style="fill:#9e0142"/><path id="patch_285" d="M185.206 137.669a8.982 8.982 0 1 0 0-17.964 8.982 8.982 0 0 0 0 17.964z" clip-path="url(#p48fa160e47)" style="fill:#86cfa5"/><path id="patch_286" d="M154.159 120.213a5.988 5.988 0 1 0 0-11.976 5.988 5.988 0 0 0 0 11.976z" clip-path="url(#p48fa160e47)" style="fill:#f98e52"/><path id="patch_287" d="M340.035 55.704a2.994 2.994 0 1 0 0-5.988 2.994 2.994 0 0 0 0 5.988z" clip-path="url(#p48fa160e47)" style="fill:#5e4fa2"/><path id="patch_288" d="M221.756 189.205a11.976 11.976 0 1 0 0-23.951 11.976 11.976 0 0 0 0 23.951z" clip-path="url(#p48fa160e47)" style="fill:#9e0142"/><path id="patch_289" d="M538.28 113.412a3.992 3.992 0 1 0 0-7.983 3.992 3.992 0 0 0 0 7.983z" clip-path="url(#p48fa160e47)" style="fill:#ffffbe"/><path id="patch_290" d="M226.502 115.687a11.976 11.976 0 1 0 0-23.951 11.976 11.976 0 0 0 0 23.951z" clip-path="url(#p48fa160e47)" style="fill:#9e0142"/><path id="patch_291" d="M201.991 116.858a8.982 8.982 0 1 0 0-17.963 8.982 8.982 0 0 0 0 17.963z" clip-path="url(#p48fa160e47)" style="fill:#86cfa5"/><path id="patch_292" d="M442.222 154.172a5.988 5.988 0 1 0 0-11.975 5.988 5.988 0 0 0 0 11.975z" clip-path="url(#p48fa160e47)" style="fill:#f98e52"/><path id="patch_293" d="M335.655 59.787a2.994 2.994 0 1 0 0-5.988 2.994 2.994 0 0 0 0 5.988z" clip-path="url(#p48fa160e47)" style="fill:#5e4fa2"/><path id="patch_294" d="M249.475 108.915a11.976 11.976 0 1 0 0-23.952 11.976 11.976 0 0 0 0 23.952z" clip-path="url(#p48fa160e47)" style="fill:#9e0142"/><path id="patch_295" d="M474.99 157.29a8.982 8.982 0 1 0 0-17.963 8.982 8.982 0 0 0 0 17.963z" clip-path="url(#p48fa160e47)" style="fill:#86cfa5"/><path id="patch_296" d="M243.854 132.196a11.976 11.976 0 1 0 0-23.952 11.976 11.976 0 0 0 0 23.952z" clip-path="url(#p48fa160e47)" style="fill:#9e0142"/><path id="patch_297" d="M201.638 144.925a8.982 8.982 0 1 0 0-17.963 8.982 8.982 0 0 0 0 17.963z" clip-path="url(#p48fa160e47)" style="fill:#86cfa5"/><path id="patch_298" d="M383.598 140.448a5.988 5.988 0 1 0 0-11.976 5.988 5.988 0 0 0 0 11.976z" clip-path="url(#p48fa160e47)" style="fill:#f98e52"/><path id="patch_299" d="M433.842 157.596a3.992 3.992 0 1 0 0-7.984 3.992 3.992 0 0 0 0 7.984z" clip-path="url(#p48fa160e47)" style="fill:#ffffbe"/><path id="patch_300" d="M415.473 104.267a11.976 11.976 0 1 0 0-23.951 11.976 11.976 0 0 0 0 23.951z" clip-path="url(#p48fa160e47)" style="fill:#9e0142"/><path id="patch_301" d="M223.324 133.407a8.982 8.982 0 1 0 0-17.963 8.982 8.982 0 0 0 0 17.963z" clip-path="url(#p48fa160e47)" style="fill:#86cfa5"/><path id="patch_302" d="M407.665 114.81a5.988 5.988 0 1 0 0-11.976 5.988 5.988 0 0 0 0 11.976z" clip-path="url(#p48fa160e47)" style="fill:#f98e52"/><path id="patch_303" d="M180.72 119.016a2.994 2.994 0 1 0 0-5.988 2.994 2.994 0 0 0 0 5.988z" clip-path="url(#p48fa160e47)" style="fill:#5e4fa2"/><path id="patch_304" d="M279.767 182.877a11.976 11.976 0 1 0 0-23.952 11.976 11.976 0 0 0 0 23.952z" clip-path="url(#p48fa160e47)" style="fill:#9e0142"/><path id="patch_305" d="M518.594 151.298a3.992 3.992 0 1 0 0-7.984 3.992 3.992 0 0 0 0 7.984z" clip-path="url(#p48fa160e47)" style="fill:#ffffbe"/><path id="patch_306" d="M209.78 168.464a11.976 11.976 0 1 0 0-23.951 11.976 11.976 0 0 0 0 23.95z" clip-path="url(#p48fa160e47)" style="fill:#9e0142"/><path id="patch_307" d="M298.183 83.575a8.982 8.982 0 1 0 0-17.964 8.982 8.982 0 0 0 0 17.964z" clip-path="url(#p48fa160e47)" style="fill:#86cfa5"/><path id="patch_308" d="M527.772 110.81a5.988 5.988 0 1 0 0-11.976 5.988 5.988 0 0 0 0 11.976z" clip-path="url(#p48fa160e47)" style="fill:#f98e52"/><path id="patch_309" d="M234.39 154.197a11.976 11.976 0 1 0 0-23.951 11.976 11.976 0 0 0 0 23.95z" clip-path="url(#p48fa160e47)" style="fill:#9e0142"/><path id="patch_310" d="M280.229 83.01a8.982 8.982 0 1 0 0-17.963 8.982 8.982 0 0 0 0 17.964z" clip-path="url(#p48fa160e47)" style="fill:#86cfa5"/><path id="patch_311" d="M286.962 215.092a3.992 3.992 0 1 0 0-7.983 3.992 3.992 0 0 0 0 7.983z" clip-path="url(#p48fa160e47)" style="fill:#ffffbe"/><path id="patch_312" d="M521.577 156.616a2.994 2.994 0 1 0 0-5.987 2.994 2.994 0 0 0 0 5.987z" clip-path="url(#p48fa160e47)" style="fill:#5e4fa2"/><path id="patch_313" d="M258.176 151.392a11.976 11.976 0 1 0 0-23.952 11.976 11.976 0 0 0 0 23.952z" clip-path="url(#p48fa160e47)" style="fill:#9e0142"/><path id="patch_314" d="M295.86 166.46a8.982 8.982 0 1 0 0-17.963 8.982 8.982 0 0 0 0 17.964z" clip-path="url(#p48fa160e47)" style="fill:#86cfa5"/><path id="patch_315" d="M216.94 143.953a5.988 5.988 0 1 0 0-11.976 5.988 5.988 0 0 0 0 11.976z" clip-path="url(#p48fa160e47)" style="fill:#f98e52"/><path id="patch_316" d="M288.611 105.211a11.976 11.976 0 1 0 0-23.951 11.976 11.976 0 0 0 0 23.951z" clip-path="url(#p48fa160e47)" style="fill:#9e0142"/><path id="patch_317" d="M233.73 209.947a11.976 11.976 0 1 0 0-23.952 11.976 11.976 0 0 0 0 23.952z" clip-path="url(#p48fa160e47)" style="fill:#9e0142"/><path id="patch_318" d="M268.434 96.558a8.982 8.982 0 1 0 0-17.964 8.982 8.982 0 0 0 0 17.964z" clip-path="url(#p48fa160e47)" style="fill:#86cfa5"/><path id="patch_319" d="M485.24 135.003a5.988 5.988 0 1 0 0-11.976 5.988 5.988 0 0 0 0 11.976z" clip-path="url(#p48fa160e47)" style="fill:#f98e52"/><path id="patch_320" d="M259.977 212.514a3.992 3.992 0 1 0 0-7.983 3.992 3.992 0 0 0 0 7.983z" clip-path="url(#p48fa160e47)" style="fill:#ffffbe"/><path id="patch_321" d="M243.582 73.793a2.994 2.994 0 1 0 0-5.987 2.994 2.994 0 0 0 0 5.987z" clip-path="url(#p48fa160e47)" style="fill:#5e4fa2"/><path id="patch_322" d="M369.396 135.437a11.976 11.976 0 1 0 0-23.952 11.976 11.976 0 0 0 0 23.952z" clip-path="url(#p48fa160e47)" style="fill:#9e0142"/><path id="patch_323" d="M271.463 114.263a8.982 8.982 0 1 0 0-17.963 8.982 8.982 0 0 0 0 17.963z" clip-path="url(#p48fa160e47)" style="fill:#86cfa5"/><path id="patch_324" d="M378.75 114.114a5.988 5.988 0 1 0 0-11.976 5.988 5.988 0 0 0 0 11.976z" clip-path="url(#p48fa160e47)" style="fill:#f98e52"/><path id="patch_325" d="M288.71 129.161a11.976 11.976 0 1 0 0-23.951 11.976 11.976 0 0 0 0 23.951z" clip-path="url(#p48fa160e47)" style="fill:#9e0142"/><path id="patch_326" d="M305.858 114.122a8.982 8.982 0 1 0 0-17.964 8.982 8.982 0 0 0 0 17.964z" clip-path="url(#p48fa160e47)" style="fill:#86cfa5"/><path id="patch_327" d="M476.948 138.56a3.992 3.992 0 1 0 0-7.983 3.992 3.992 0 0 0 0 7.983z" clip-path="url(#p48fa160e47)" style="fill:#ffffbe"/><path id="patch_328" d="M212.002 102.99a2.994 2.994 0 1 0 0-5.988 2.994 2.994 0 0 0 0 5.987z" clip-path="url(#p48fa160e47)" style="fill:#5e4fa2"/><path id="patch_329" d="M311.206 137.378a11.976 11.976 0 1 0 0-23.951 11.976 11.976 0 0 0 0 23.95z" clip-path="url(#p48fa160e47)" style="fill:#9e0142"/><path id="patch_330" d="M294.058 146.43a8.982 8.982 0 1 0 0-17.964 8.982 8.982 0 0 0 0 17.964z" clip-path="url(#p48fa160e47)" style="fill:#86cfa5"/><path id="patch_331" d="M256.447 205.176a5.988 5.988 0 1 0 0-11.976 5.988 5.988 0 0 0 0 11.976z" clip-path="url(#p48fa160e47)" style="fill:#f98e52"/><path id="patch_332" d="M248.713 173.393a11.976 11.976 0 1 0 0-23.951 11.976 11.976 0 0 0 0 23.95z" clip-path="url(#p48fa160e47)" style="fill:#9e0142"/><path id="patch_333" d="M277.005 65.455a3.992 3.992 0 1 0 0-7.984 3.992 3.992 0 0 0 0 7.984z" clip-path="url(#p48fa160e47)" style="fill:#ffffbe"/><path id="patch_334" d="M338.791 168.464a11.976 11.976 0 1 0 0-23.951 11.976 11.976 0 0 0 0 23.95z" clip-path="url(#p48fa160e47)" style="fill:#9e0142"/><path id="patch_335" d="M279.554 158.928a8.982 8.982 0 1 0 0-17.964 8.982 8.982 0 0 0 0 17.964z" clip-path="url(#p48fa160e47)" style="fill:#86cfa5"/><path id="patch_336" d="M306.312 96.166a5.988 5.988 0 1 0 0-11.976 5.988 5.988 0 0 0 0 11.976z" clip-path="url(#p48fa160e47)" style="fill:#f98e52"/><path id="patch_337" d="M494.032 130.179a2.994 2.994 0 1 0 0-5.988 2.994 2.994 0 0 0 0 5.988z" clip-path="url(#p48fa160e47)" style="fill:#5e4fa2"/><path id="patch_338" d="M317.91 167.242a8.982 8.982 0 1 0 0-17.964 8.982 8.982 0 0 0 0 17.964z" clip-path="url(#p48fa160e47)" style="fill:#86cfa5"/><path id="patch_339" d="M261.746 127.8a5.988 5.988 0 1 0 0-11.976 5.988 5.988 0 0 0 0 11.976z" clip-path="url(#p48fa160e47)" style="fill:#f98e52"/><path id="patch_340" d="M317.555 114.744a3.992 3.992 0 1 0 0-7.984 3.992 3.992 0 0 0 0 7.984z" clip-path="url(#p48fa160e47)" style="fill:#ffffbe"/><path id="patch_341" d="M267.066 164.187a5.988 5.988 0 1 0 0-11.975 5.988 5.988 0 0 0 0 11.975z" clip-path="url(#p48fa160e47)" style="fill:#f98e52"/><path id="patch_342" d="M418.31 109.983a2.994 2.994 0 1 0 0-5.987 2.994 2.994 0 0 0 0 5.987z" clip-path="url(#p48fa160e47)" style="fill:#5e4fa2"/><path id="patch_343" d="M257.89 116.6a3.992 3.992 0 1 0-.001-7.984 3.992 3.992 0 0 0 0 7.984z" clip-path="url(#p48fa160e47)" style="fill:#ffffbe"/><path id="patch_344" d="M261.233 193.986a8.982 8.982 0 1 0 0-17.963 8.982 8.982 0 0 0 0 17.963z" clip-path="url(#p48fa160e47)" style="fill:#86cfa5"/><path id="patch_345" d="M272.017 133.956a5.988 5.988 0 1 0 0-11.976 5.988 5.988 0 0 0 0 11.976z" clip-path="url(#p48fa160e47)" style="fill:#f98e52"/><path id="patch_346" d="M300.614 205.62a2.994 2.994 0 1 0 0-5.988 2.994 2.994 0 0 0 0 5.988z" clip-path="url(#p48fa160e47)" style="fill:#5e4fa2"/><path id="patch_347" d="M248.078 85.026a3.992 3.992 0 1 0 0-7.984 3.992 3.992 0 0 0 0 7.984z" clip-path="url(#p48fa160e47)" style="fill:#ffffbe"/><path id="patch_348" d="M312.426 75.976a5.988 5.988 0 1 0 0-11.975 5.988 5.988 0 0 0 0 11.975z" clip-path="url(#p48fa160e47)" style="fill:#f98e52"/><path id="patch_349" d="M307.933 149.052a5.988 5.988 0 1 0 0-11.975 5.988 5.988 0 0 0 0 11.975z" clip-path="url(#p48fa160e47)" style="fill:#f98e52"/><path id="patch_350" d="M250.03 195.538a3.992 3.992 0 1 0 0-7.983 3.992 3.992 0 0 0 0 7.983z" clip-path="url(#p48fa160e47)" style="fill:#ffffbe"/><path id="patch_351" d="M487.096 153.072a2.994 2.994 0 1 0 0-5.988 2.994 2.994 0 0 0 0 5.988z" clip-path="url(#p48fa160e47)" style="fill:#5e4fa2"/><path id="patch_352" d="M356.373 166.153a5.988 5.988 0 1 0 0-11.976 5.988 5.988 0 0 0 0 11.976z" clip-path="url(#p48fa160e47)" style="fill:#f98e52"/><path id="patch_353" d="M426.971 85.205a3.992 3.992 0 1 0 0-7.984 3.992 3.992 0 0 0 0 7.984z" clip-path="url(#p48fa160e47)" style="fill:#ffffbe"/><path id="patch_354" d="M356.445 154.178a8.982 8.982 0 1 0 0-17.963 8.982 8.982 0 0 0 0 17.963z" clip-path="url(#p48fa160e47)" style="fill:#86cfa5"/><path id="patch_355" d="M273.116 189.48a2.994 2.994 0 1 0 0-5.987 2.994 2.994 0 0 0 0 5.988z" clip-path="url(#p48fa160e47)" style="fill:#5e4fa2"/><path id="patch_356" d="M319.762 147.185a5.988 5.988 0 1 0 0-11.976 5.988 5.988 0 0 0 0 11.976z" clip-path="url(#p48fa160e47)" style="fill:#f98e52"/><path id="patch_357" d="M341.215 144.654a8.982 8.982 0 1 0 0-17.963 8.982 8.982 0 0 0 0 17.963z" clip-path="url(#p48fa160e47)" style="fill:#86cfa5"/><path id="patch_358" d="M246.529 188.19a5.988 5.988 0 1 0 0-11.976 5.988 5.988 0 0 0 0 11.975z" clip-path="url(#p48fa160e47)" style="fill:#f98e52"/><path id="patch_359" d="M290.067 207.737a3.992 3.992 0 1 0 0-7.983 3.992 3.992 0 0 0 0 7.983z" clip-path="url(#p48fa160e47)" style="fill:#ffffbe"/><path id="patch_360" d="M439.63 117.598a2.994 2.994 0 1 0 0-5.988 2.994 2.994 0 0 0 0 5.988z" clip-path="url(#p48fa160e47)" style="fill:#5e4fa2"/><path id="patch_361" d="M214.837 118.606a3.992 3.992 0 1 0 0-7.984 3.992 3.992 0 0 0 0 7.984z" clip-path="url(#p48fa160e47)" style="fill:#ffffbe"/><path id="patch_362" d="M434.838 121.187a2.994 2.994 0 1 0 0-5.988 2.994 2.994 0 0 0 0 5.988z" clip-path="url(#p48fa160e47)" style="fill:#5e4fa2"/><path id="patch_363" d="M230.82 165.814a5.988 5.988 0 1 0 0-11.976 5.988 5.988 0 0 0 0 11.976z" clip-path="url(#p48fa160e47)" style="fill:#f98e52"/><path id="patch_364" d="M520.39 102.098a3.992 3.992 0 1 0 0-7.983 3.992 3.992 0 0 0 0 7.983z" clip-path="url(#p48fa160e47)" style="fill:#ffffbe"/><path id="patch_365" d="M351.65 116.456a5.988 5.988 0 1 0 0-11.975 5.988 5.988 0 0 0 0 11.975z" clip-path="url(#p48fa160e47)" style="fill:#f98e52"/><path id="patch_366" d="M288.553 199.92a2.994 2.994 0 1 0 0-5.988 2.994 2.994 0 0 0 0 5.988z" clip-path="url(#p48fa160e47)" style="fill:#5e4fa2"/><path id="patch_367" d="M208.503 128.313a5.988 5.988 0 1 0 0-11.975 5.988 5.988 0 0 0 0 11.975z" clip-path="url(#p48fa160e47)" style="fill:#f98e52"/><path id="patch_368" d="M481.317 163.626a3.992 3.992 0 1 0 0-7.984 3.992 3.992 0 0 0 0 7.984z" clip-path="url(#p48fa160e47)" style="fill:#ffffbe"/><path id="patch_369" d="M351.042 128.416a5.988 5.988 0 1 0 0-11.976 5.988 5.988 0 0 0 0 11.976z" clip-path="url(#p48fa160e47)" style="fill:#f98e52"/><path id="patch_370" d="M465.23 143.755a3.992 3.992 0 1 0 0-7.984 3.992 3.992 0 0 0 0 7.984z" clip-path="url(#p48fa160e47)" style="fill:#ffffbe"/><path id="patch_371" d="M253.168 179.147a2.994 2.994 0 1 0 0-5.988 2.994 2.994 0 0 0 0 5.988z" clip-path="url(#p48fa160e47)" style="fill:#5e4fa2"/><path id="patch_372" d="M190.845 118.507a3.992 3.992 0 1 0 0-7.983 3.992 3.992 0 0 0 0 7.983z" clip-path="url(#p48fa160e47)" style="fill:#ffffbe"/><path id="patch_373" d="M482.586 169.497a2.994 2.994 0 1 0 0-5.987 2.994 2.994 0 0 0 0 5.987z" clip-path="url(#p48fa160e47)" style="fill:#5e4fa2"/><path id="patch_374" d="M367.032 111.643a5.988 5.988 0 1 0 0-11.976 5.988 5.988 0 0 0 0 11.976z" clip-path="url(#p48fa160e47)" style="fill:#f98e52"/><path id="patch_375" d="M282.362 135.828a3.992 3.992 0 1 0 0-7.984 3.992 3.992 0 0 0 0 7.984z" clip-path="url(#p48fa160e47)" style="fill:#ffffbe"/><path id="patch_376" d="M397.919 107.85a5.988 5.988 0 1 0 0-11.975 5.988 5.988 0 0 0 0 11.976z" clip-path="url(#p48fa160e47)" style="fill:#f98e52"/><path id="patch_377" d="M104.226 109.137a2.994 2.994 0 1 0 0-5.988 2.994 2.994 0 0 0 0 5.988z" clip-path="url(#p48fa160e47)" style="fill:#5e4fa2"/><path id="patch_378" d="M197.203 127.744a3.992 3.992 0 1 0 0-7.984 3.992 3.992 0 0 0 0 7.984z" clip-path="url(#p48fa160e47)" style="fill:#ffffbe"/><path id="patch_379" d="M107.75 130.383a2.994 2.994 0 1 0 0-5.988 2.994 2.994 0 0 0 0 5.988z" clip-path="url(#p48fa160e47)" style="fill:#5e4fa2"/><path id="patch_380" d="M403.46 82.415a5.988 5.988 0 1 0 0-11.975 5.988 5.988 0 0 0 0 11.975z" clip-path="url(#p48fa160e47)" style="fill:#f98e52"/><path id="patch_381" d="M325.304 136.89a3.992 3.992 0 1 0 0-7.983 3.992 3.992 0 0 0 0 7.983z" clip-path="url(#p48fa160e47)" style="fill:#ffffbe"/><path id="patch_382" d="M306.619 165.733a2.994 2.994 0 1 0 0-5.988 2.994 2.994 0 0 0 0 5.988z" clip-path="url(#p48fa160e47)" style="fill:#5e4fa2"/><path id="patch_383" d="M393.481 80.447a3.992 3.992 0 1 0 0-7.983 3.992 3.992 0 0 0 0 7.983z" clip-path="url(#p48fa160e47)" style="fill:#ffffbe"/><path id="patch_384" d="M396.302 92.015a5.988 5.988 0 1 0 0-11.975 5.988 5.988 0 0 0 0 11.975z" clip-path="url(#p48fa160e47)" style="fill:#f98e52"/><path id="patch_385" d="M356.726 105.868a3.992 3.992 0 1 0 0-7.983 3.992 3.992 0 0 0 0 7.983z" clip-path="url(#p48fa160e47)" style="fill:#ffffbe"/><path id="patch_386" d="M150.351 109.085a2.994 2.994 0 1 0 0-5.988 2.994 2.994 0 0 0 0 5.988z" clip-path="url(#p48fa160e47)" style="fill:#5e4fa2"/><path id="patch_387" d="M413.434 80.082a3.992 3.992 0 1 0 0-7.984 3.992 3.992 0 0 0 0 7.984z" clip-path="url(#p48fa160e47)" style="fill:#ffffbe"/><path id="patch_388" d="M546.415 158.167a2.994 2.994 0 1 0 0-5.988 2.994 2.994 0 0 0 0 5.988z" clip-path="url(#p48fa160e47)" style="fill:#5e4fa2"/><path id="patch_389" d="M353.793 136.49a3.992 3.992 0 1 0 0-7.984 3.992 3.992 0 0 0 0 7.983z" clip-path="url(#p48fa160e47)" style="fill:#ffffbe"/><path id="patch_390" d="M361.91 170.23a2.994 2.994 0 1 0 0-5.987 2.994 2.994 0 0 0 0 5.987z" clip-path="url(#p48fa160e47)" style="fill:#5e4fa2"/><path id="patch_391" d="M420.375 76.138a3.992 3.992 0 1 0 0-7.984 3.992 3.992 0 0 0 0 7.984z" clip-path="url(#p48fa160e47)" style="fill:#ffffbe"/><path id="patch_392" d="M560.894 69.346a2.994 2.994 0 1 0 0-5.988 2.994 2.994 0 0 0 0 5.988z" clip-path="url(#p48fa160e47)" style="fill:#5e4fa2"/><path id="patch_393" d="M330.431 146.877a3.992 3.992 0 1 0 0-7.984 3.992 3.992 0 0 0 0 7.984z" clip-path="url(#p48fa160e47)" style="fill:#ffffbe"/><path id="patch_394" d="M327.488 82.55a2.994 2.994 0 1 0 0-5.987 2.994 2.994 0 0 0 0 5.988z" clip-path="url(#p48fa160e47)" style="fill:#5e4fa2"/><path id="patch_395" d="M477.511 185.016a3.992 3.992 0 1 0 0-7.983 3.992 3.992 0 0 0 0 7.983z" clip-path="url(#p48fa160e47)" style="fill:#ffffbe"/><path id="patch_396" d="M320.588 82.455a3.992 3.992 0 1 0 0-7.983 3.992 3.992 0 0 0 0 7.983z" clip-path="url(#p48fa160e47)" style="fill:#ffffbe"/><path id="patch_397" d="M326.179 151.42a2.994 2.994 0 1 0 0-5.987 2.994 2.994 0 0 0 0 5.988z" clip-path="url(#p48fa160e47)" style="fill:#5e4fa2"/><path id="patch_398" d="M255.953 86.338a3.992 3.992 0 1 0 0-7.984 3.992 3.992 0 0 0 0 7.984z" clip-path="url(#p48fa160e47)" style="fill:#ffffbe"/><path id="patch_399" d="M213.916 55.054a2.994 2.994 0 1 0 0-5.988 2.994 2.994 0 0 0 0 5.988z" clip-path="url(#p48fa160e47)" style="fill:#5e4fa2"/><path id="patch_400" d="M313.437 86.005a3.992 3.992 0 1 0 0-7.984 3.992 3.992 0 0 0 0 7.984z" clip-path="url(#p48fa160e47)" style="fill:#ffffbe"/><path id="patch_401" d="M209.438 59.029a2.994 2.994 0 1 0 0-5.988 2.994 2.994 0 0 0 0 5.988z" clip-path="url(#p48fa160e47)" style="fill:#5e4fa2"/><path id="patch_402" d="M264.118 171.725a3.992 3.992 0 1 0 0-7.984 3.992 3.992 0 0 0 0 7.984z" clip-path="url(#p48fa160e47)" style="fill:#ffffbe"/><path id="patch_403" d="M363.584 157.805a2.994 2.994 0 1 0 0-5.988 2.994 2.994 0 0 0 0 5.988z" clip-path="url(#p48fa160e47)" style="fill:#5e4fa2"/><path id="patch_404" d="M179.787 178.833a3.992 3.992 0 1 0 0-7.984 3.992 3.992 0 0 0 0 7.984z" clip-path="url(#p48fa160e47)" style="fill:#ffffbe"/><path id="patch_405" d="M365.347 163.527a2.994 2.994 0 1 0 0-5.988 2.994 2.994 0 0 0 0 5.988z" clip-path="url(#p48fa160e47)" style="fill:#5e4fa2"/><path id="patch_406" d="M433.048 145.39a3.992 3.992 0 1 0 0-7.984 3.992 3.992 0 0 0 0 7.984z" clip-path="url(#p48fa160e47)" style="fill:#ffffbe"/><path id="patch_407" d="M499.474 77.717a2.994 2.994 0 1 0 0-5.988 2.994 2.994 0 0 0 0 5.988z" clip-path="url(#p48fa160e47)" style="fill:#5e4fa2"/><path id="patch_408" d="M113.348 117.316a3.992 3.992 0 1 0 0-7.984 3.992 3.992 0 0 0 0 7.984z" clip-path="url(#p48fa160e47)" style="fill:#ffffbe"/><path id="patch_409" d="M388.15 107.89a3.992 3.992 0 1 0 0-7.985 3.992 3.992 0 0 0 0 7.984z" clip-path="url(#p48fa160e47)" style="fill:#ffffbe"/><path id="patch_410" d="M521.968 89.18a2.994 2.994 0 1 0 0-5.988 2.994 2.994 0 0 0 0 5.988z" clip-path="url(#p48fa160e47)" style="fill:#5e4fa2"/><path id="patch_411" d="M182.327 169.218a3.992 3.992 0 1 0 0-7.983 3.992 3.992 0 0 0 0 7.983z" clip-path="url(#p48fa160e47)" style="fill:#ffffbe"/><path id="patch_412" d="M440.677 61.969a2.994 2.994 0 1 0 0-5.988 2.994 2.994 0 0 0 0 5.988z" clip-path="url(#p48fa160e47)" style="fill:#5e4fa2"/><path id="patch_413" d="M389.784 100.075a3.992 3.992 0 1 0 0-7.984 3.992 3.992 0 0 0 0 7.984z" clip-path="url(#p48fa160e47)" style="fill:#ffffbe"/><path id="patch_414" d="M434.69 61.87a2.994 2.994 0 1 0 0-5.988 2.994 2.994 0 0 0 0 5.988z" clip-path="url(#p48fa160e47)" style="fill:#5e4fa2"/><path id="patch_415" d="M274.054 141.729a3.992 3.992 0 1 0 0-7.984 3.992 3.992 0 0 0 0 7.984z" clip-path="url(#p48fa160e47)" style="fill:#ffffbe"/><path id="patch_416" d="M189.237 167.193a2.994 2.994 0 1 0 0-5.988 2.994 2.994 0 0 0 0 5.988z" clip-path="url(#p48fa160e47)" style="fill:#5e4fa2"/><path id="patch_417" d="M375.08 140.303a2.994 2.994 0 1 0 0-5.988 2.994 2.994 0 0 0 0 5.988z" clip-path="url(#p48fa160e47)" style="fill:#5e4fa2"/><path id="patch_418" d="M194.667 164.67a2.994 2.994 0 1 0 0-5.988 2.994 2.994 0 0 0 0 5.988z" clip-path="url(#p48fa160e47)" style="fill:#5e4fa2"/><path id="patch_419" d="M368.414 143.39a3.992 3.992 0 1 0 0-7.984 3.992 3.992 0 0 0 0 7.984z" clip-path="url(#p48fa160e47)" style="fill:#ffffbe"/><path id="patch_420" d="M289.095 49.797a2.994 2.994 0 1 0 0-5.988 2.994 2.994 0 0 0 0 5.988z" clip-path="url(#p48fa160e47)" style="fill:#5e4fa2"/><path id="patch_421" d="M461.214 135.984a2.994 2.994 0 1 0 0-5.988 2.994 2.994 0 0 0 0 5.988z" clip-path="url(#p48fa160e47)" style="fill:#5e4fa2"/><path id="patch_422" d="M235.129 170.7a2.994 2.994 0 1 0 0-5.987 2.994 2.994 0 0 0 0 5.987z" clip-path="url(#p48fa160e47)" style="fill:#5e4fa2"/><path id="patch_423" d="M238.596 177.762a3.992 3.992 0 1 0 0-7.983 3.992 3.992 0 0 0 0 7.983z" clip-path="url(#p48fa160e47)" style="fill:#ffffbe"/><path id="patch_424" d="M139.139 137.234a2.994 2.994 0 1 0 0-5.988 2.994 2.994 0 0 0 0 5.988z" clip-path="url(#p48fa160e47)" style="fill:#5e4fa2"/><path id="patch_425" d="M224.494 156.446a2.994 2.994 0 1 0 0-5.988 2.994 2.994 0 0 0 0 5.988z" clip-path="url(#p48fa160e47)" style="fill:#5e4fa2"/><path id="patch_426" d="M139.095 131.246a3.992 3.992 0 1 0 0-7.983 3.992 3.992 0 0 0 0 7.983z" clip-path="url(#p48fa160e47)" style="fill:#ffffbe"/><path id="patch_427" d="M258.462 176.349a2.994 2.994 0 1 0 0-5.988 2.994 2.994 0 0 0 0 5.988z" clip-path="url(#p48fa160e47)" style="fill:#5e4fa2"/><path id="patch_428" d="M537.416 105.483a2.994 2.994 0 1 0 0-5.988 2.994 2.994 0 0 0 0 5.988z" clip-path="url(#p48fa160e47)" style="fill:#5e4fa2"/><path id="patch_429" d="M143.68 124.71a3.992 3.992 0 1 0-.001-7.983 3.992 3.992 0 0 0 0 7.983z" clip-path="url(#p48fa160e47)" style="fill:#ffffbe"/><path id="patch_430" d="M109.908 124.798a2.994 2.994 0 1 0 0-5.988 2.994 2.994 0 0 0 0 5.988z" clip-path="url(#p48fa160e47)" style="fill:#5e4fa2"/><path id="patch_431" d="M136.694 123.689a2.994 2.994 0 1 0 0-5.988 2.994 2.994 0 0 0 0 5.988z" clip-path="url(#p48fa160e47)" style="fill:#5e4fa2"/><path id="patch_432" d="M118.13 192.483a2.994 2.994 0 1 0 0-5.988 2.994 2.994 0 0 0 0 5.988z" clip-path="url(#p48fa160e47)" style="fill:#5e4fa2"/><path id="patch_433" d="M247.496 206.845a2.994 2.994 0 1 0 0-5.987 2.994 2.994 0 0 0 0 5.987z" clip-path="url(#p48fa160e47)" style="fill:#5e4fa2"/><path id="patch_434" d="M430.794 131.2a2.994 2.994 0 1 0 0-5.987 2.994 2.994 0 0 0 0 5.988z" clip-path="url(#p48fa160e47)" style="fill:#5e4fa2"/><path id="patch_435" d="M541.904 162.104a2.994 2.994 0 1 0 0-5.987 2.994 2.994 0 0 0 0 5.987z" clip-path="url(#p48fa160e47)" style="fill:#5e4fa2"/><path id="patch_436" d="M424.868 205.62a2.994 2.994 0 1 0 0-5.988 2.994 2.994 0 0 0 0 5.988z" clip-path="url(#p48fa160e47)" style="fill:#5e4fa2"/><path id="patch_437" d="M532.306 164.662a2.994 2.994 0 1 0 0-5.988 2.994 2.994 0 0 0 0 5.988z" clip-path="url(#p48fa160e47)" style="fill:#5e4fa2"/><path id="patch_438" d="M273.742 120.032a2.994 2.994 0 1 0 0-5.988 2.994 2.994 0 0 0 0 5.988z" clip-path="url(#p48fa160e47)" style="fill:#5e4fa2"/><path id="patch_439" d="M154.443 195.565a2.994 2.994 0 1 0 0-5.988 2.994 2.994 0 0 0 0 5.988z" clip-path="url(#p48fa160e47)" style="fill:#5e4fa2"/><path id="patch_440" d="M537.14 168.194a2.994 2.994 0 1 0 0-5.988 2.994 2.994 0 0 0 0 5.988z" clip-path="url(#p48fa160e47)" style="fill:#5e4fa2"/><path id="patch_441" d="M430.85 205.878a2.994 2.994 0 1 0 0-5.988 2.994 2.994 0 0 0 0 5.988z" clip-path="url(#p48fa160e47)" style="fill:#5e4fa2"/><g id="matplotlib.axis_1"><g id="xtick_1"><g id="line2d_1"><defs><path id="m1111ee2a48" d="M0 0v3.5" style="stroke:#000;stroke-width:.8"/></defs><use xlink:href="#m1111ee2a48" x="82.62" y="230.688" style="stroke:#000;stroke-width:.8"/></g><g id="text_1" transform="matrix(.1 0 0 -.1 79.439 245.286)"><defs><path id="DejaVuSans-30" d="M2034 4250q-487 0-733-480-245-479-245-1442 0-959 245-1439 246-480 733-480 491 0 736 480 246 480 246 1439 0 963-246 1442-245 480-736 480zm0 500q785 0 1199-621 414-620 414-1801 0-1178-414-1799Q2819-91 2034-91q-784 0-1198 620-414 621-414 1799 0 1181 414 1801 414 621 1198 621z" transform="scale(.01563)"/></defs><use xlink:href="#DejaVuSans-30"/></g></g><g id="xtick_2"><use xlink:href="#m1111ee2a48" id="line2d_2" x="182.412" y="230.688" style="stroke:#000;stroke-width:.8"/><g id="text_2" transform="matrix(.1 0 0 -.1 172.868 245.286)"><defs><path id="DejaVuSans-31" d="M794 531h1031v3560L703 3866v575l1116 225h631V531h1031V0H794v531z" transform="scale(.01563)"/></defs><use xlink:href="#DejaVuSans-31"/><use xlink:href="#DejaVuSans-30" x="63.623"/><use xlink:href="#DejaVuSans-30" x="127.246"/></g></g><g id="xtick_3"><use xlink:href="#m1111ee2a48" id="line2d_3" x="282.204" y="230.688" style="stroke:#000;stroke-width:.8"/><g id="text_3" transform="matrix(.1 0 0 -.1 272.66 245.286)"><defs><path id="DejaVuSans-32" d="M1228 531h2203V0H469v531q359 372 979 998 621 627 780 809 303 340 423 576 121 236 121 464 0 372-261 606-261 235-680 235-297 0-627-103-329-103-704-313v638q381 153 712 231 332 78 607 78 725 0 1156-363 431-362 431-968 0-288-108-546-107-257-392-607-78-91-497-524-418-433-1181-1211z" transform="scale(.01563)"/></defs><use xlink:href="#DejaVuSans-32"/><use xlink:href="#DejaVuSans-30" x="63.623"/><use xlink:href="#DejaVuSans-30" x="127.246"/></g></g><g id="xtick_4"><use xlink:href="#m1111ee2a48" id="line2d_4" x="381.996" y="230.688" style="stroke:#000;stroke-width:.8"/><g id="text_4" transform="matrix(.1 0 0 -.1 372.452 245.286)"><defs><path id="DejaVuSans-33" d="M2597 2516q453-97 707-404 255-306 255-756 0-690-475-1069Q2609-91 1734-91q-293 0-604 58T488 141v609q262-153 574-231 313-78 654-78 593 0 904 234t311 681q0 413-289 645-289 233-804 233h-544v519h569q465 0 712 186t247 536q0 359-255 551-254 193-729 193-260 0-557-57-297-56-653-174v562q360 100 674 150t592 50q719 0 1137-327 419-326 419-882 0-388-222-655t-631-370z" transform="scale(.01563)"/></defs><use xlink:href="#DejaVuSans-33"/><use xlink:href="#DejaVuSans-30" x="63.623"/><use xlink:href="#DejaVuSans-30" x="127.246"/></g></g><g id="xtick_5"><use xlink:href="#m1111ee2a48" id="line2d_5" x="481.788" y="230.688" style="stroke:#000;stroke-width:.8"/><g id="text_5" transform="matrix(.1 0 0 -.1 472.244 245.286)"><defs><path id="DejaVuSans-34" d="M2419 4116 825 1625h1594v2491zm-166 550h794V1625h666v-525h-666V0h-628v1100H313v609l1940 2957z" transform="scale(.01563)"/></defs><use xlink:href="#DejaVuSans-34"/><use xlink:href="#DejaVuSans-30" x="63.623"/><use xlink:href="#DejaVuSans-30" x="127.246"/></g></g><g id="xtick_6"><use xlink:href="#m1111ee2a48" id="line2d_6" x="581.58" y="230.688" style="stroke:#000;stroke-width:.8"/><g id="text_6" transform="matrix(.1 0 0 -.1 572.036 245.286)"><defs><path id="DejaVuSans-35" d="M691 4666h2478v-532H1269V2991q137 47 274 70 138 23 276 23 781 0 1237-428 457-428 457-1159 0-753-469-1171Q2575-91 1722-91q-294 0-599 50Q819 9 494 109v635q281-153 581-228t634-75q541 0 856 284 316 284 316 772 0 487-316 771-315 285-856 285-253 0-505-56-251-56-513-175v2344z" transform="scale(.01563)"/></defs><use xlink:href="#DejaVuSans-35"/><use xlink:href="#DejaVuSans-30" x="63.623"/><use xlink:href="#DejaVuSans-30" x="127.246"/></g></g></g><g id="matplotlib.axis_2"><g id="ytick_1"><g id="line2d_7"><defs><path id="m80ccc9a33c" d="M0 0h-3.5" style="stroke:#000;stroke-width:.8"/></defs><use xlink:href="#m80ccc9a33c" x="82.62" y="230.688" style="stroke:#000;stroke-width:.8"/></g><use xlink:href="#DejaVuSans-30" id="text_7" transform="matrix(.1 0 0 -.1 69.257 234.487)"/></g><g id="ytick_2"><use xlink:href="#m80ccc9a33c" id="line2d_8" x="82.62" y="205.74" style="stroke:#000;stroke-width:.8"/><g id="text_8" transform="matrix(.1 0 0 -.1 62.895 209.54)"><use xlink:href="#DejaVuSans-32"/><use xlink:href="#DejaVuSans-35" x="63.623"/></g></g><g id="ytick_3"><use xlink:href="#m80ccc9a33c" id="line2d_9" x="82.62" y="180.792" style="stroke:#000;stroke-width:.8"/><g id="text_9" transform="matrix(.1 0 0 -.1 62.895 184.591)"><use xlink:href="#DejaVuSans-35"/><use xlink:href="#DejaVuSans-30" x="63.623"/></g></g><g id="ytick_4"><use xlink:href="#m80ccc9a33c" id="line2d_10" x="82.62" y="155.844" style="stroke:#000;stroke-width:.8"/><g id="text_10" transform="matrix(.1 0 0 -.1 62.895 159.643)"><defs><path id="DejaVuSans-37" d="M525 4666h3000v-269L1831 0h-659l1594 4134H525v532z" transform="scale(.01563)"/></defs><use xlink:href="#DejaVuSans-37"/><use xlink:href="#DejaVuSans-35" x="63.623"/></g></g><g id="ytick_5"><use xlink:href="#m80ccc9a33c" id="line2d_11" x="82.62" y="130.896" style="stroke:#000;stroke-width:.8"/><g id="text_11" transform="matrix(.1 0 0 -.1 56.532 134.695)"><use xlink:href="#DejaVuSans-31"/><use xlink:href="#DejaVuSans-30" x="63.623"/><use xlink:href="#DejaVuSans-30" x="127.246"/></g></g><g id="ytick_6"><use xlink:href="#m80ccc9a33c" id="line2d_12" x="82.62" y="105.948" style="stroke:#000;stroke-width:.8"/><g id="text_12" transform="matrix(.1 0 0 -.1 56.532 109.747)"><use xlink:href="#DejaVuSans-31"/><use xlink:href="#DejaVuSans-32" x="63.623"/><use xlink:href="#DejaVuSans-35" x="127.246"/></g></g><g id="ytick_7"><use xlink:href="#m80ccc9a33c" id="line2d_13" x="82.62" y="81" style="stroke:#000;stroke-width:.8"/><g id="text_13" transform="matrix(.1 0 0 -.1 56.532 84.8)"><use xlink:href="#DejaVuSans-31"/><use xlink:href="#DejaVuSans-35" x="63.623"/><use xlink:href="#DejaVuSans-30" x="127.246"/></g></g><g id="ytick_8"><use xlink:href="#m80ccc9a33c" id="line2d_14" x="82.62" y="56.052" style="stroke:#000;stroke-width:.8"/><g id="text_14" transform="matrix(.1 0 0 -.1 56.532 59.851)"><use xlink:href="#DejaVuSans-31"/><use xlink:href="#DejaVuSans-37" x="63.623"/><use xlink:href="#DejaVuSans-35" x="127.246"/></g></g><g id="ytick_9"><use xlink:href="#m80ccc9a33c" id="line2d_15" x="82.62" y="31.104" style="stroke:#000;stroke-width:.8"/><g id="text_15" transform="matrix(.1 0 0 -.1 56.532 34.903)"><use xlink:href="#DejaVuSans-32"/><use xlink:href="#DejaVuSans-30" x="63.623"/><use xlink:href="#DejaVuSans-30" x="127.246"/></g></g></g><path id="patch_442" d="M82.62 230.688V31.104" style="fill:none;stroke:#000;stroke-width:.8;stroke-linejoin:miter;stroke-linecap:square"/><path id="patch_443" d="M581.58 230.688V31.104" style="fill:none;stroke:#000;stroke-width:.8;stroke-linejoin:miter;stroke-linecap:square"/><path id="patch_444" d="M82.62 230.688h498.96" style="fill:none;stroke:#000;stroke-width:.8;stroke-linejoin:miter;stroke-linecap:square"/><path id="patch_445" d="M82.62 31.104h498.96" style="fill:none;stroke:#000;stroke-width:.8;stroke-linejoin:miter;stroke-linecap:square"/><g id="text_16" transform="matrix(.12 0 0 -.12 148.705 25.104)"><defs><path id="DejaVuSans-53" d="M3425 4513v-616q-359 172-678 256-319 85-616 85-515 0-795-200t-280-569q0-310 186-468 186-157 705-254l381-78q706-135 1042-474t336-907q0-679-455-1029Q2797-91 1919-91q-331 0-705 75-373 75-773 222v650q384-215 753-325 369-109 725-109 540 0 834 212 294 213 294 607 0 343-211 537t-692 291l-385 75q-706 140-1022 440-315 300-315 835 0 619 436 975t1201 356q329 0 669-60 341-59 697-177z" transform="scale(.01563)"/><path id="DejaVuSans-68" d="M3513 2113V0h-575v2094q0 497-194 743-194 247-581 247-466 0-735-297-269-296-269-809V0H581v4863h578V2956q207 316 486 472 280 156 646 156 603 0 912-373 310-373 310-1098z" transform="scale(.01563)"/><path id="DejaVuSans-65" d="M3597 1894v-281H953q38-594 358-905t892-311q331 0 642 81t618 244V178Q3153 47 2828-22t-659-69q-838 0-1327 487-489 488-489 1320 0 859 464 1363 464 505 1252 505 706 0 1117-455 411-454 411-1235zm-575 169q-6 471-264 752-258 282-683 282-481 0-770-272t-333-766l2050 4z" transform="scale(.01563)"/><path id="DejaVuSans-72" d="M2631 2963q-97 56-211 82-114 27-251 27-488 0-749-317t-261-911V0H581v3500h578v-544q182 319 472 473 291 155 707 155 59 0 131-8 72-7 159-23l3-590z" transform="scale(.01563)"/><path id="DejaVuSans-77" d="M269 3500h575l719-2731 715 2731h678l719-2731 716 2731h575L4050 0h-678l-753 2869L1863 0h-679L269 3500z" transform="scale(.01563)"/><path id="DejaVuSans-6f" d="M1959 3097q-462 0-731-361t-269-989q0-628 267-989 268-361 733-361 460 0 728 362 269 363 269 988 0 622-269 986-268 364-728 364zm0 487q750 0 1178-488 429-487 429-1349 0-859-429-1349Q2709-91 1959-91q-753 0-1180 489-426 490-426 1349 0 862 426 1349 427 488 1180 488z" transform="scale(.01563)"/><path id="DejaVuSans-64" d="M2906 2969v1894h575V0h-575v525q-181-312-458-464-276-152-664-152-634 0-1033 506-398 507-398 1332t398 1331q399 506 1033 506 388 0 664-152 277-151 458-463zM947 1747q0-634 261-995t717-361q456 0 718 361 263 361 263 995t-263 995q-262 361-718 361t-717-361q-261-361-261-995z" transform="scale(.01563)"/><path id="DejaVuSans-46" d="M628 4666h2681v-532H1259V2759h1850v-531H1259V0H628v4666z" transform="scale(.01563)"/><path id="DejaVuSans-73" d="M2834 3397v-544q-243 125-506 187-262 63-544 63-428 0-642-131t-214-394q0-200 153-314t616-217l197-44q612-131 870-370t258-667q0-488-386-773Q2250-91 1575-91q-281 0-586 55T347 128v594q319-166 628-249 309-82 613-82 406 0 624 139 219 139 219 392 0 234-158 359-157 125-692 241l-200 47q-534 112-772 345-237 233-237 639 0 494 350 762 350 269 994 269 318 0 599-47 282-46 519-140z" transform="scale(.01563)"/><path id="DejaVuSans-74" d="M1172 4494v-994h1184v-447H1172V1153q0-428 117-550t477-122h590V0h-590q-666 0-919 248-253 249-253 905v1900H172v447h422v994h578z" transform="scale(.01563)"/><path id="DejaVuSans-2c" d="M750 794h659V256L897-744H494L750 256v538z" transform="scale(.01563)"/><path id="DejaVuSans-62" d="M3116 1747q0 634-261 995t-717 361q-457 0-718-361t-261-995q0-634 261-995t718-361q456 0 717 361t261 995zM1159 2969q182 312 458 463 277 152 661 152 638 0 1036-506 399-506 399-1331T3314 415Q2916-91 2278-91q-384 0-661 152-276 152-458 464V0H581v4863h578V2969z" transform="scale(.01563)"/><path id="DejaVuSans-3d" d="M678 2906h4006v-525H678v525zm0-1275h4006v-531H678v531z" transform="scale(.01563)"/><path id="DejaVuSans-2e" d="M684 794h660V0H684v794z" transform="scale(.01563)"/><path id="DejaVuSans-36" d="M2113 2584q-425 0-674-291-248-290-248-796 0-503 248-796 249-292 674-292t673 292q248 293 248 796 0 506-248 796-248 291-673 291zm1253 1979v-575q-238 112-480 171-242 60-480 60-625 0-955-422-329-422-376-1275 184 272 462 417 279 145 613 145 703 0 1111-427 408-426 408-1160 0-719-425-1154Q2819-91 2113-91q-810 0-1238 620-428 621-428 1799 0 1106 525 1764t1409 658q238 0 480-47t505-140z" transform="scale(.01563)"/><path id="DejaVuSans-38" d="M2034 2216q-450 0-708-241-257-241-257-662 0-422 257-663 258-241 708-241t709 242q260 243 260 662 0 421-258 662-257 241-711 241zm-631 268q-406 100-633 378-226 279-226 679 0 559 398 884 399 325 1092 325 697 0 1094-325t397-884q0-400-227-679-226-278-629-378 456-106 710-416 255-309 255-755 0-679-414-1042Q2806-91 2034-91q-771 0-1186 362-414 363-414 1042 0 446 256 755 257 310 713 416zm-231 997q0-362 226-565 227-203 636-203 407 0 636 203 230 203 230 565 0 363-230 566-229 203-636 203-409 0-636-203-226-203-226-566z" transform="scale(.01563)"/><path id="DejaVuSans-39" d="M703 97v575q238-113 481-172 244-59 479-59 625 0 954 420 330 420 377 1277-181-269-460-413-278-144-615-144-700 0-1108 423-408 424-408 1159 0 718 425 1152 425 435 1131 435 810 0 1236-621 427-620 427-1801 0-1103-524-1761Q2575-91 1691-91q-238 0-482 47Q966 3 703 97zm1256 1978q425 0 673 290 249 291 249 798 0 503-249 795-248 292-673 292t-673-292q-248-292-248-795 0-507 248-798 248-290 673-290z" transform="scale(.01563)"/><path id="DejaVuSans-61" d="M2194 1759q-697 0-966-159t-269-544q0-306 202-486 202-179 548-179 479 0 768 339t289 901v128h-572zm1147 238V0h-575v531q-197-318-491-470T1556-91q-537 0-855 302-317 302-317 808 0 590 395 890 396 300 1180 300h807v57q0 397-261 614t-733 217q-300 0-585-72-284-72-546-216v532q315 122 612 182 297 61 578 61 760 0 1135-394 375-393 375-1193z" transform="scale(.01563)"/></defs><use xlink:href="#DejaVuSans-53"/><use xlink:href="#DejaVuSans-68" x="63.477"/><use xlink:href="#DejaVuSans-65" x="126.855"/><use xlink:href="#DejaVuSans-72" x="188.379"/><use xlink:href="#DejaVuSans-77" x="229.492"/><use xlink:href="#DejaVuSans-6f" x="311.279"/><use xlink:href="#DejaVuSans-6f" x="372.461"/><use xlink:href="#DejaVuSans-64" x="433.643"/><use xlink:href="#DejaVuSans-46" x="497.119"/><use xlink:href="#DejaVuSans-6f" x="551.014"/><use xlink:href="#DejaVuSans-72" x="612.195"/><use xlink:href="#DejaVuSans-65" x="651.059"/><use xlink:href="#DejaVuSans-73" x="712.582"/><use xlink:href="#DejaVuSans-74" x="764.682"/><use xlink:href="#DejaVuSans-2c" x="803.891"/><use xlink:href="#DejaVuSans-20" x="835.678"/><use xlink:href="#DejaVuSans-62" x="867.465"/><use xlink:href="#DejaVuSans-3d" x="930.941"/><use xlink:href="#DejaVuSans-30" x="1014.73"/><use xlink:href="#DejaVuSans-2e" x="1078.354"/><use xlink:href="#DejaVuSans-36" x="1110.141"/><use xlink:href="#DejaVuSans-38" x="1173.764"/><use xlink:href="#DejaVuSans-30" x="1237.387"/><use xlink:href="#DejaVuSans-39" x="1301.01"/><use xlink:href="#DejaVuSans-31" x="1364.633"/><use xlink:href="#DejaVuSans-38" x="1428.256"/><use xlink:href="#DejaVuSans-37" x="1491.879"/><use xlink:href="#DejaVuSans-2c" x="1555.502"/><use xlink:href="#DejaVuSans-20" x="1587.289"/><use xlink:href="#DejaVuSans-61" x="1619.076"/><use xlink:href="#DejaVuSans-3d" x="1680.355"/><use xlink:href="#DejaVuSans-30" x="1764.145"/><use xlink:href="#DejaVuSans-2e" x="1827.768"/><use xlink:href="#DejaVuSans-38" x="1859.555"/><use xlink:href="#DejaVuSans-35" x="1923.178"/><use xlink:href="#DejaVuSans-33" x="1986.801"/><use xlink:href="#DejaVuSans-38" x="2050.424"/><use xlink:href="#DejaVuSans-32" x="2114.047"/><use xlink:href="#DejaVuSans-32" x="2177.67"/><use xlink:href="#DejaVuSans-31" x="2241.293"/><use xlink:href="#DejaVuSans-2c" x="2304.916"/><use xlink:href="#DejaVuSans-20" x="2336.703"/><use xlink:href="#DejaVuSans-64" x="2368.49"/><use xlink:href="#DejaVuSans-3d" x="2431.967"/><use xlink:href="#DejaVuSans-30" x="2515.756"/><use xlink:href="#DejaVuSans-2e" x="2579.379"/><use xlink:href="#DejaVuSans-37" x="2611.166"/><use xlink:href="#DejaVuSans-39" x="2674.789"/><use xlink:href="#DejaVuSans-37" x="2738.412"/><use xlink:href="#DejaVuSans-34" x="2802.035"/><use xlink:href="#DejaVuSans-39" x="2865.658"/><use xlink:href="#DejaVuSans-34" x="2929.281"/><use xlink:href="#DejaVuSans-38" x="2992.904"/></g></g></g><defs><clipPath id="p48fa160e47"><path d="M82.62 31.104h498.96v199.584H82.62z"/></clipPath></defs></svg>