<svg xmlns="http://www.w3.org/2000/svg" xmlns:xlink="http://www.w3.org/1999/xlink" width="864" height="345.6" viewBox="0 0 648 259.2"><defs><style>*{stroke-linejoin:round;stroke-linecap:butt}</style></defs><g id="figure_1"><path id="patch_1" d="M0 259.2h648V0H0z" style="fill:#fff"/><g id="axes_1"><path id="patch_2" d="M82.62 230.688h498.96V31.104H82.62z" style="fill:#fff"/><path id="patch_3" d="M569.605 55.054a11.976 11.976 0 1 0 0-23.951 11.976 11.976 0 0 0 0 23.951z" clip-path="url(#p22e46fee52)" style="fill:#9e0142"/><path id="patch_4" d="M545.655 55.054a11.976 11.976 0 1 0 0-23.951 11.976 11.976 0 0 0 0 23.951z" clip-path="url(#p22e46fee52)" style="fill:#9e0142"/><path id="patch_5" d="M572.599 72.802a8.982 8.982 0 1 0 0-17.964 8.982 8.982 0 0 0 0 17.964z" clip-path="url(#p22e46fee52)" style="fill:#86cfa5"/><path id="patch_6" d="M558.996 63.561a5.988 5.988 0 1 0 0-11.975 5.988 5.988 0 0 0 0 11.975z" clip-path="url(#p22e46fee52)" style="fill:#f98e52"/><path id="patch_7" d="M94.595 55.054a11.976 11.976 0 1 0 0-23.951 11.976 11.976 0 0 0 0 23.951z" clip-path="url(#p22e46fee52)" style="fill:#9e0142"/><path id="patch_8" d="M572.599 230.688a8.982 8.982 0 1 0 0-17.963 8.982 8.982 0 0 0 0 17.963z" clip-path="url(#p22e46fee52)" style="fill:#86cfa5"/><path id="patch_9" d="M86.612 230.688a3.992 3.992 0 1 0 0-7.984 3.992 3.992 0 0 0 0 7.984z" clip-path="url(#p22e46fee52)" style="fill:#ffffbe"/><path id="patch_10" d="M557.63 37.092a2.994 2.994 0 1 0 0-5.988 2.994 2.994 0 0 0 0 5.988z" clip-path="url(#p22e46fee52)" style="fill:#5e4fa2"/><path id="patch_11" d="M118.545 55.054a11.976 11.976 0 1 0 0-23.951 11.976 11.976 0 0 0 0 23.951z" clip-path="url(#p22e46fee52)" style="fill:#9e0142"/><path id="patch_12" d="M554.636 230.688a8.982 8.982 0 1 0 0-17.963 8.982 8.982 0 0 0 0 17.963z" clip-path="url(#p22e46fee52)" style="fill:#86cfa5"/><path id="patch_13" d="M96.39 230.688a5.988 5.988 0 1 0-.001-11.976 5.988 5.988 0 0 0 0 11.976z" clip-path="url(#p22e46fee52)" style="fill:#f98e52"/><path id="patch_14" d="M569.605 96.537a11.976 11.976 0 1 0 0-23.951 11.976 11.976 0 0 0 0 23.95z" clip-path="url(#p22e46fee52)" style="fill:#9e0142"/><path id="patch_15" d="M88.277 222.88a3.992 3.992 0 1 0 0-7.983 3.992 3.992 0 0 0 0 7.983z" clip-path="url(#p22e46fee52)" style="fill:#ffffbe"/><path id="patch_16" d="M94.595 79.004a11.976 11.976 0 1 0 0-23.951 11.976 11.976 0 0 0 0 23.951z" clip-path="url(#p22e46fee52)" style="fill:#9e0142"/><path id="patch_17" d="M97.508 218.755a8.982 8.982 0 1 0 0-17.964 8.982 8.982 0 0 0 0 17.964z" clip-path="url(#p22e46fee52)" style="fill:#86cfa5"/><path id="patch_18" d="M558.768 75.534a5.988 5.988 0 1 0 0-11.975 5.988 5.988 0 0 0 0 11.975z" clip-path="url(#p22e46fee52)" style="fill:#f98e52"/><path id="patch_19" d="M85.614 58.048a2.994 2.994 0 1 0 0-5.988 2.994 2.994 0 0 0 0 5.988z" clip-path="url(#p22e46fee52)" style="fill:#5e4fa2"/><path id="patch_20" d="M569.605 212.94a11.976 11.976 0 1 0 0-23.95 11.976 11.976 0 0 0 0 23.95z" clip-path="url(#p22e46fee52)" style="fill:#9e0142"/><path id="patch_21" d="M111.032 230.576a8.982 8.982 0 1 0 0-17.963 8.982 8.982 0 0 0 0 17.963z" clip-path="url(#p22e46fee52)" style="fill:#86cfa5"/><path id="patch_22" d="M548.513 69.351a5.988 5.988 0 1 0 0-11.976 5.988 5.988 0 0 0 0 11.976z" clip-path="url(#p22e46fee52)" style="fill:#f98e52"/><path id="patch_23" d="M105.156 59.046a3.992 3.992 0 1 0 0-7.984 3.992 3.992 0 0 0 0 7.984z" clip-path="url(#p22e46fee52)" style="fill:#ffffbe"/><path id="patch_24" d="M569.605 188.99a11.976 11.976 0 1 0 0-23.95 11.976 11.976 0 0 0 0 23.95z" clip-path="url(#p22e46fee52)" style="fill:#9e0142"/><path id="patch_25" d="M552.407 197.972a8.982 8.982 0 1 0 0-17.964 8.982 8.982 0 0 0 0 17.964z" clip-path="url(#p22e46fee52)" style="fill:#86cfa5"/><path id="patch_26" d="M94.595 102.954a11.976 11.976 0 1 0 0-23.951 11.976 11.976 0 0 0 0 23.951z" clip-path="url(#p22e46fee52)" style="fill:#9e0142"/><path id="patch_27" d="M572.599 165.255a8.982 8.982 0 1 0 0-17.963 8.982 8.982 0 0 0 0 17.963z" clip-path="url(#p22e46fee52)" style="fill:#86cfa5"/><path id="patch_28" d="M111.943 68.358a5.988 5.988 0 1 0 0-11.976 5.988 5.988 0 0 0 0 11.976z" clip-path="url(#p22e46fee52)" style="fill:#f98e52"/><path id="patch_29" d="M106.57 37.092a2.994 2.994 0 1 0 0-5.988 2.994 2.994 0 0 0 0 5.988z" clip-path="url(#p22e46fee52)" style="fill:#5e4fa2"/><path id="patch_30" d="M521.705 55.054a11.976 11.976 0 1 0 0-23.951 11.976 11.976 0 0 0 0 23.951z" clip-path="url(#p22e46fee52)" style="fill:#9e0142"/><path id="patch_31" d="M542.661 230.688a3.992 3.992 0 1 0 0-7.984 3.992 3.992 0 0 0 0 7.984z" clip-path="url(#p22e46fee52)" style="fill:#ffffbe"/><path id="patch_32" d="M142.495 55.054a11.976 11.976 0 1 0 0-23.951 11.976 11.976 0 0 0 0 23.951z" clip-path="url(#p22e46fee52)" style="fill:#9e0142"/><path id="patch_33" d="M533.68 69.258a8.982 8.982 0 1 0 0-17.963 8.982 8.982 0 0 0 0 17.963z" clip-path="url(#p22e46fee52)" style="fill:#86cfa5"/><path id="patch_34" d="M551.892 209.938a5.988 5.988 0 1 0 0-11.976 5.988 5.988 0 0 0 0 11.976z" clip-path="url(#p22e46fee52)" style="fill:#f98e52"/><path id="patch_35" d="M130.52 37.092a2.994 2.994 0 1 0 0-5.988 2.994 2.994 0 0 0 0 5.988z" clip-path="url(#p22e46fee52)" style="fill:#5e4fa2"/><path id="patch_36" d="M497.755 55.054a11.976 11.976 0 1 0 0-23.951 11.976 11.976 0 0 0 0 23.951z" clip-path="url(#p22e46fee52)" style="fill:#9e0142"/><path id="patch_37" d="M112.856 86.292a8.982 8.982 0 1 0 0-17.963 8.982 8.982 0 0 0 0 17.963z" clip-path="url(#p22e46fee52)" style="fill:#86cfa5"/><path id="patch_38" d="M130.52 57.632a3.992 3.992 0 1 0 0-7.984 3.992 3.992 0 0 0 0 7.984z" clip-path="url(#p22e46fee52)" style="fill:#ffffbe"/><path id="patch_39" d="M473.805 55.054a11.976 11.976 0 1 0 0-23.951 11.976 11.976 0 0 0 0 23.951z" clip-path="url(#p22e46fee52)" style="fill:#9e0142"/><path id="patch_40" d="M538.172 223.506a8.982 8.982 0 1 0 0-17.963 8.982 8.982 0 0 0 0 17.963z" clip-path="url(#p22e46fee52)" style="fill:#86cfa5"/><path id="patch_41" d="M541.088 204.773a5.988 5.988 0 1 0 0-11.976 5.988 5.988 0 0 0 0 11.976z" clip-path="url(#p22e46fee52)" style="fill:#f98e52"/><path id="patch_42" d="M94.595 126.904a11.976 11.976 0 1 0 0-23.95 11.976 11.976 0 0 0 0 23.95z" clip-path="url(#p22e46fee52)" style="fill:#9e0142"/><path id="patch_43" d="M485.78 69.258a8.982 8.982 0 1 0 0-17.963 8.982 8.982 0 0 0 0 17.963z" clip-path="url(#p22e46fee52)" style="fill:#86cfa5"/><path id="patch_44" d="M123.19 72.47a5.988 5.988 0 1 0 0-11.976 5.988 5.988 0 0 0 0 11.975z" clip-path="url(#p22e46fee52)" style="fill:#f98e52"/><path id="patch_45" d="M86.612 132.749a3.992 3.992 0 1 0 0-7.984 3.992 3.992 0 0 0 0 7.984z" clip-path="url(#p22e46fee52)" style="fill:#ffffbe"/><path id="patch_46" d="M578.586 191.984a2.994 2.994 0 1 0 0-5.988 2.994 2.994 0 0 0 0 5.988z" clip-path="url(#p22e46fee52)" style="fill:#5e4fa2"/><path id="patch_47" d="M166.445 55.054a11.976 11.976 0 1 0 0-23.951 11.976 11.976 0 0 0 0 23.951z" clip-path="url(#p22e46fee52)" style="fill:#9e0142"/><path id="patch_48" d="M449.855 55.054a11.976 11.976 0 1 0 0-23.951 11.976 11.976 0 0 0 0 23.951z" clip-path="url(#p22e46fee52)" style="fill:#9e0142"/><path id="patch_49" d="M138.72 72.674a8.982 8.982 0 1 0 0-17.964 8.982 8.982 0 0 0 0 17.964z" clip-path="url(#p22e46fee52)" style="fill:#86cfa5"/><path id="patch_50" d="M152.55 63.952a5.988 5.988 0 1 0 0-11.976 5.988 5.988 0 0 0 0 11.976z" clip-path="url(#p22e46fee52)" style="fill:#f98e52"/><path id="patch_51" d="M436.027 39.087a3.992 3.992 0 1 0 0-7.983 3.992 3.992 0 0 0 0 7.983z" clip-path="url(#p22e46fee52)" style="fill:#ffffbe"/><path id="patch_52" d="M569.605 120.487a11.976 11.976 0 1 0 0-23.951 11.976 11.976 0 0 0 0 23.95z" clip-path="url(#p22e46fee52)" style="fill:#9e0142"/><path id="patch_53" d="M91.601 149.713a8.982 8.982 0 1 0 0-17.963 8.982 8.982 0 0 0 0 17.963z" clip-path="url(#p22e46fee52)" style="fill:#86cfa5"/><path id="patch_54" d="M154.47 37.092a2.994 2.994 0 1 0 0-5.988 2.994 2.994 0 0 0 0 5.988z" clip-path="url(#p22e46fee52)" style="fill:#5e4fa2"/><path id="patch_55" d="M569.605 144.437a11.976 11.976 0 1 0 0-23.951 11.976 11.976 0 0 0 0 23.951z" clip-path="url(#p22e46fee52)" style="fill:#9e0142"/><path id="patch_56" d="M424.052 49.067a8.982 8.982 0 1 0 0-17.964 8.982 8.982 0 0 0 0 17.964z" clip-path="url(#p22e46fee52)" style="fill:#86cfa5"/><path id="patch_57" d="M127.823 83.512a5.988 5.988 0 1 0 0-11.976 5.988 5.988 0 0 0 0 11.976z" clip-path="url(#p22e46fee52)" style="fill:#f98e52"/><path id="patch_58" d="M94.595 173.448a11.976 11.976 0 1 0 0-23.95 11.976 11.976 0 0 0 0 23.95z" clip-path="url(#p22e46fee52)" style="fill:#9e0142"/><path id="patch_59" d="M187.187 49.067a8.982 8.982 0 1 0 0-17.964 8.982 8.982 0 0 0 0 17.964z" clip-path="url(#p22e46fee52)" style="fill:#86cfa5"/><path id="patch_60" d="M88.608 184.396a5.988 5.988 0 1 0 0-11.976 5.988 5.988 0 0 0 0 11.976z" clip-path="url(#p22e46fee52)" style="fill:#f98e52"/><path id="patch_61" d="M412.077 39.087a3.992 3.992 0 1 0 0-7.983 3.992 3.992 0 0 0 0 7.983z" clip-path="url(#p22e46fee52)" style="fill:#ffffbe"/><path id="patch_62" d="M85.614 105.948a2.994 2.994 0 1 0 0-5.988 2.994 2.994 0 0 0 0 5.988z" clip-path="url(#p22e46fee52)" style="fill:#5e4fa2"/><path id="patch_63" d="M207.928 55.054a11.976 11.976 0 1 0 0-23.951 11.976 11.976 0 0 0 0 23.951z" clip-path="url(#p22e46fee52)" style="fill:#9e0142"/><path id="patch_64" d="M509.73 75.795a11.976 11.976 0 1 0 0-23.95 11.976 11.976 0 0 0 0 23.95z" clip-path="url(#p22e46fee52)" style="fill:#9e0142"/><path id="patch_65" d="M123.427 100.814a8.982 8.982 0 1 0 0-17.963 8.982 8.982 0 0 0 0 17.963z" clip-path="url(#p22e46fee52)" style="fill:#86cfa5"/><path id="patch_66" d="M88.608 196.371a5.988 5.988 0 1 0 0-11.975 5.988 5.988 0 0 0 0 11.975z" clip-path="url(#p22e46fee52)" style="fill:#f98e52"/><path id="patch_67" d="M86.612 204.153a3.992 3.992 0 1 0 0-7.984 3.992 3.992 0 0 0 0 7.984z" clip-path="url(#p22e46fee52)" style="fill:#ffffbe"/><path id="patch_68" d="M398.25 55.054a11.976 11.976 0 1 0-.001-23.951 11.976 11.976 0 0 0 0 23.951z" clip-path="url(#p22e46fee52)" style="fill:#9e0142"/><path id="patch_69" d="M228.67 49.067a8.982 8.982 0 1 0 0-17.964 8.982 8.982 0 0 0 0 17.964z" clip-path="url(#p22e46fee52)" style="fill:#86cfa5"/><path id="patch_70" d="M509.73 37.092a2.994 2.994 0 1 0 0-5.988 2.994 2.994 0 0 0 0 5.988z" clip-path="url(#p22e46fee52)" style="fill:#5e4fa2"/><path id="patch_71" d="M374.3 55.054a11.976 11.976 0 1 0-.001-23.951 11.976 11.976 0 0 0 0 23.951z" clip-path="url(#p22e46fee52)" style="fill:#9e0142"/><path id="patch_72" d="M102.327 193.377a8.982 8.982 0 1 0 0-17.963 8.982 8.982 0 0 0 0 17.963z" clip-path="url(#p22e46fee52)" style="fill:#86cfa5"/><path id="patch_73" d="M107.984 108.942a5.988 5.988 0 1 0 0-11.976 5.988 5.988 0 0 0 0 11.976z" clip-path="url(#p22e46fee52)" style="fill:#f98e52"/><path id="patch_74" d="M110.396 97.263a3.992 3.992 0 1 0 0-7.984 3.992 3.992 0 0 0 0 7.984z" clip-path="url(#p22e46fee52)" style="fill:#ffffbe"/><path id="patch_75" d="M350.35 55.054a11.976 11.976 0 1 0-.001-23.951 11.976 11.976 0 0 0 0 23.951z" clip-path="url(#p22e46fee52)" style="fill:#9e0142"/><path id="patch_76" d="M249.41 55.054a11.976 11.976 0 1 0 0-23.951 11.976 11.976 0 0 0 0 23.951z" clip-path="url(#p22e46fee52)" style="fill:#9e0142"/><path id="patch_77" d="M546.557 87.185a8.982 8.982 0 1 0 0-17.963 8.982 8.982 0 0 0 0 17.963z" clip-path="url(#p22e46fee52)" style="fill:#86cfa5"/><path id="patch_78" d="M333.414 43.079a5.988 5.988 0 1 0 0-11.976 5.988 5.988 0 0 0 0 11.976z" clip-path="url(#p22e46fee52)" style="fill:#f98e52"/><path id="patch_79" d="M386.274 37.092a2.994 2.994 0 1 0 0-5.988 2.994 2.994 0 0 0 0 5.988z" clip-path="url(#p22e46fee52)" style="fill:#5e4fa2"/><path id="patch_80" d="M273.36 55.054a11.976 11.976 0 1 0 0-23.951 11.976 11.976 0 0 0 0 23.951z" clip-path="url(#p22e46fee52)" style="fill:#9e0142"/><path id="patch_81" d="M552.407 105.518a8.982 8.982 0 1 0 0-17.963 8.982 8.982 0 0 0 0 17.963z" clip-path="url(#p22e46fee52)" style="fill:#86cfa5"/><path id="patch_82" d="M461.83 62.455a5.988 5.988 0 1 0 0-11.976 5.988 5.988 0 0 0 0 11.976z" clip-path="url(#p22e46fee52)" style="fill:#f98e52"/><path id="patch_83" d="M96.773 200.112a3.992 3.992 0 1 0 0-7.984 3.992 3.992 0 0 0 0 7.984z" clip-path="url(#p22e46fee52)" style="fill:#ffffbe"/><path id="patch_84" d="M316.479 55.054a11.976 11.976 0 1 0 0-23.951 11.976 11.976 0 0 0 0 23.951z" clip-path="url(#p22e46fee52)" style="fill:#9e0142"/><path id="patch_85" d="M295.737 49.067a8.982 8.982 0 1 0 0-17.964 8.982 8.982 0 0 0 0 17.964z" clip-path="url(#p22e46fee52)" style="fill:#86cfa5"/><path id="patch_86" d="M386.274 75.795a11.976 11.976 0 1 0 0-23.95 11.976 11.976 0 0 0 0 23.95z" clip-path="url(#p22e46fee52)" style="fill:#9e0142"/><path id="patch_87" d="M549.45 123.236a8.982 8.982 0 1 0 0-17.964 8.982 8.982 0 0 0 0 17.964z" clip-path="url(#p22e46fee52)" style="fill:#86cfa5"/><path id="patch_88" d="M333.414 55.054a5.988 5.988 0 1 0 0-11.976 5.988 5.988 0 0 0 0 11.976z" clip-path="url(#p22e46fee52)" style="fill:#f98e52"/><path id="patch_89" d="M104.69 201.144a3.992 3.992 0 1 0 0-7.984 3.992 3.992 0 0 0 0 7.984z" clip-path="url(#p22e46fee52)" style="fill:#ffffbe"/><path id="patch_90" d="M362.324 37.092a2.994 2.994 0 1 0 0-5.988 2.994 2.994 0 0 0 0 5.988z" clip-path="url(#p22e46fee52)" style="fill:#5e4fa2"/><path id="patch_91" d="M143.592 98.102a11.976 11.976 0 1 0 0-23.952 11.976 11.976 0 0 0 0 23.952z" clip-path="url(#p22e46fee52)" style="fill:#9e0142"/><path id="patch_92" d="M182.798 72.552a11.976 11.976 0 1 0 0-23.951 11.976 11.976 0 0 0 0 23.951z" clip-path="url(#p22e46fee52)" style="fill:#9e0142"/><path id="patch_93" d="M448.902 72.995a8.982 8.982 0 1 0 0-17.963 8.982 8.982 0 0 0 0 17.963z" clip-path="url(#p22e46fee52)" style="fill:#86cfa5"/><path id="patch_94" d="M164.84 66.957a5.988 5.988 0 1 0 0-11.975 5.988 5.988 0 0 0 0 11.975z" clip-path="url(#p22e46fee52)" style="fill:#f98e52"/><path id="patch_95" d="M472.868 63.01a3.992 3.992 0 1 0 0-7.984 3.992 3.992 0 0 0 0 7.984z" clip-path="url(#p22e46fee52)" style="fill:#ffffbe"/><path id="patch_96" d="M485.78 37.092a2.994 2.994 0 1 0 0-5.988 2.994 2.994 0 0 0 0 5.988z" clip-path="url(#p22e46fee52)" style="fill:#5e4fa2"/><path id="patch_97" d="M135.775 120.74a11.976 11.976 0 1 0 0-23.95 11.976 11.976 0 0 0 0 23.95z" clip-path="url(#p22e46fee52)" style="fill:#9e0142"/><path id="patch_98" d="M115.53 124.863a8.982 8.982 0 1 0 0-17.963 8.982 8.982 0 0 0 0 17.963z" clip-path="url(#p22e46fee52)" style="fill:#86cfa5"/><path id="patch_99" d="M532.253 114.254a11.976 11.976 0 1 0 0-23.95 11.976 11.976 0 0 0 0 23.95z" clip-path="url(#p22e46fee52)" style="fill:#9e0142"/><path id="patch_100" d="M465.454 79.972a8.982 8.982 0 1 0 0-17.963 8.982 8.982 0 0 0 0 17.963z" clip-path="url(#p22e46fee52)" style="fill:#86cfa5"/><path id="patch_101" d="M112.151 212.656a5.988 5.988 0 1 0 0-11.976 5.988 5.988 0 0 0 0 11.976z" clip-path="url(#p22e46fee52)" style="fill:#f98e52"/><path id="patch_102" d="M106.678 129.358a3.992 3.992 0 1 0 0-7.984 3.992 3.992 0 0 0 0 7.984z" clip-path="url(#p22e46fee52)" style="fill:#ffffbe"/><path id="patch_103" d="M129.433 223.541a11.976 11.976 0 1 0 0-23.95 11.976 11.976 0 0 0 0 23.95z" clip-path="url(#p22e46fee52)" style="fill:#9e0142"/><path id="patch_104" d="M119.031 202.355a8.982 8.982 0 1 0 0-17.963 8.982 8.982 0 0 0 0 17.963z" clip-path="url(#p22e46fee52)" style="fill:#86cfa5"/><path id="patch_105" d="M436.713 61.312a5.988 5.988 0 1 0 0-11.975 5.988 5.988 0 0 0 0 11.975z" clip-path="url(#p22e46fee52)" style="fill:#f98e52"/><path id="patch_106" d="M85.614 81.998a2.994 2.994 0 1 0 0-5.988 2.994 2.994 0 0 0 0 5.988z" clip-path="url(#p22e46fee52)" style="fill:#5e4fa2"/><path id="patch_107" d="M547.142 180.681a11.976 11.976 0 1 0 0-23.951 11.976 11.976 0 0 0 0 23.951z" clip-path="url(#p22e46fee52)" style="fill:#9e0142"/><path id="patch_108" d="M362.324 75.795a11.976 11.976 0 1 0 0-23.95 11.976 11.976 0 0 0 0 23.95z" clip-path="url(#p22e46fee52)" style="fill:#9e0142"/><path id="patch_109" d="M341.443 71.03a8.982 8.982 0 1 0 0-17.963 8.982 8.982 0 0 0 0 17.963z" clip-path="url(#p22e46fee52)" style="fill:#86cfa5"/><path id="patch_110" d="M152.325 75.924a5.988 5.988 0 1 0 0-11.975 5.988 5.988 0 0 0 0 11.975z" clip-path="url(#p22e46fee52)" style="fill:#f98e52"/><path id="patch_111" d="M123.144 230.234a3.992 3.992 0 1 0 0-7.984 3.992 3.992 0 0 0 0 7.984z" clip-path="url(#p22e46fee52)" style="fill:#ffffbe"/><path id="patch_112" d="M449.824 96.925a11.976 11.976 0 1 0 0-23.951 11.976 11.976 0 0 0 0 23.95z" clip-path="url(#p22e46fee52)" style="fill:#9e0142"/><path id="patch_113" d="M168.154 84.548a8.982 8.982 0 1 0 0-17.963 8.982 8.982 0 0 0 0 17.963z" clip-path="url(#p22e46fee52)" style="fill:#86cfa5"/><path id="patch_114" d="M535.747 230.688a2.994 2.994 0 1 0 0-5.988 2.994 2.994 0 0 0 0 5.988z" clip-path="url(#p22e46fee52)" style="fill:#5e4fa2"/><path id="patch_115" d="M233.058 72.552a11.976 11.976 0 1 0 0-23.951 11.976 11.976 0 0 0 0 23.951z" clip-path="url(#p22e46fee52)" style="fill:#9e0142"/><path id="patch_116" d="M116.521 142.798a8.982 8.982 0 1 0 0-17.963 8.982 8.982 0 0 0 0 17.963z" clip-path="url(#p22e46fee52)" style="fill:#86cfa5"/><path id="patch_117" d="M538.198 190.27a5.988 5.988 0 1 0 0-11.975 5.988 5.988 0 0 0 0 11.976z" clip-path="url(#p22e46fee52)" style="fill:#f98e52"/><path id="patch_118" d="M528.834 230.688a3.992 3.992 0 1 0 0-7.984 3.992 3.992 0 0 0 0 7.984z" clip-path="url(#p22e46fee52)" style="fill:#ffffbe"/><path id="patch_119" d="M429.586 84.117a11.976 11.976 0 1 0 0-23.952 11.976 11.976 0 0 0 0 23.952z" clip-path="url(#p22e46fee52)" style="fill:#9e0142"/><path id="patch_120" d="M407.156 71.03a8.982 8.982 0 1 0 0-17.963 8.982 8.982 0 0 0 0 17.963z" clip-path="url(#p22e46fee52)" style="fill:#86cfa5"/><path id="patch_121" d="M325.887 64.368a5.988 5.988 0 1 0 0-11.976 5.988 5.988 0 0 0 0 11.976z" clip-path="url(#p22e46fee52)" style="fill:#f98e52"/><path id="patch_122" d="M85.614 210.069a2.994 2.994 0 1 0 0-5.988 2.994 2.994 0 0 0 0 5.988z" clip-path="url(#p22e46fee52)" style="fill:#5e4fa2"/><path id="patch_123" d="M256.388 77.965a11.976 11.976 0 1 0 0-23.95 11.976 11.976 0 0 0 0 23.95z" clip-path="url(#p22e46fee52)" style="fill:#9e0142"/><path id="patch_124" d="M412.521 54.23a3.992 3.992 0 1 0 0-7.985 3.992 3.992 0 0 0 0 7.984z" clip-path="url(#p22e46fee52)" style="fill:#ffffbe"/><path id="patch_125" d="M240.035 95.463a11.976 11.976 0 1 0 0-23.95 11.976 11.976 0 0 0 0 23.95z" clip-path="url(#p22e46fee52)" style="fill:#9e0142"/><path id="patch_126" d="M185.142 90.383a8.982 8.982 0 1 0 0-17.963 8.982 8.982 0 0 0 0 17.963z" clip-path="url(#p22e46fee52)" style="fill:#86cfa5"/><path id="patch_127" d="M105.204 152.966a5.988 5.988 0 1 0 0-11.975 5.988 5.988 0 0 0 0 11.975z" clip-path="url(#p22e46fee52)" style="fill:#f98e52"/><path id="patch_128" d="M515.006 230.688a11.976 11.976 0 1 0 0-23.951 11.976 11.976 0 0 0 0 23.951z" clip-path="url(#p22e46fee52)" style="fill:#9e0142"/><path id="patch_129" d="M470.523 97.205a8.982 8.982 0 1 0 0-17.964 8.982 8.982 0 0 0 0 17.964z" clip-path="url(#p22e46fee52)" style="fill:#86cfa5"/><path id="patch_130" d="M100.115 133.903a3.992 3.992 0 1 0 0-7.984 3.992 3.992 0 0 0 0 7.984z" clip-path="url(#p22e46fee52)" style="fill:#ffffbe"/><path id="patch_131" d="M461.83 37.092a2.994 2.994 0 1 0 0-5.988 2.994 2.994 0 0 0 0 5.988z" clip-path="url(#p22e46fee52)" style="fill:#5e4fa2"/><path id="patch_132" d="M491.056 230.688a11.976 11.976 0 1 0 0-23.951 11.976 11.976 0 0 0 0 23.951z" clip-path="url(#p22e46fee52)" style="fill:#9e0142"/><path id="patch_133" d="M526.97 183.365a8.982 8.982 0 1 0 0-17.964 8.982 8.982 0 0 0 0 17.964z" clip-path="url(#p22e46fee52)" style="fill:#86cfa5"/><path id="patch_134" d="M420.777 61.83a5.988 5.988 0 1 0 0-11.975 5.988 5.988 0 0 0 0 11.976z" clip-path="url(#p22e46fee52)" style="fill:#f98e52"/><path id="patch_135" d="M467.106 230.688a11.976 11.976 0 1 0 0-23.951 11.976 11.976 0 0 0 0 23.951z" clip-path="url(#p22e46fee52)" style="fill:#9e0142"/><path id="patch_136" d="M170.498 108.367a11.976 11.976 0 1 0 0-23.951 11.976 11.976 0 0 0 0 23.951z" clip-path="url(#p22e46fee52)" style="fill:#9e0142"/><path id="patch_137" d="M525.55 201.271a8.982 8.982 0 1 0 0-17.963 8.982 8.982 0 0 0 0 17.963z" clip-path="url(#p22e46fee52)" style="fill:#86cfa5"/><path id="patch_138" d="M152.339 107.803a5.988 5.988 0 1 0 0-11.976 5.988 5.988 0 0 0 0 11.976z" clip-path="url(#p22e46fee52)" style="fill:#f98e52"/><path id="patch_139" d="M125.373 128.324a3.992 3.992 0 1 0 0-7.983 3.992 3.992 0 0 0 0 7.983z" clip-path="url(#p22e46fee52)" style="fill:#ffffbe"/><path id="patch_140" d="M578.586 123.48a2.994 2.994 0 1 0 0-5.987 2.994 2.994 0 0 0 0 5.988z" clip-path="url(#p22e46fee52)" style="fill:#5e4fa2"/><path id="patch_141" d="M443.156 230.688a11.976 11.976 0 1 0 0-23.951 11.976 11.976 0 0 0 0 23.951z" clip-path="url(#p22e46fee52)" style="fill:#9e0142"/><path id="patch_142" d="M260.776 95.463a8.982 8.982 0 1 0 0-17.963 8.982 8.982 0 0 0 0 17.963z" clip-path="url(#p22e46fee52)" style="fill:#86cfa5"/><path id="patch_143" d="M479.477 82.216a5.988 5.988 0 1 0 0-11.976 5.988 5.988 0 0 0 0 11.976z" clip-path="url(#p22e46fee52)" style="fill:#f98e52"/><path id="patch_144" d="M419.206 230.688a11.976 11.976 0 1 0 0-23.951 11.976 11.976 0 0 0 0 23.951z" clip-path="url(#p22e46fee52)" style="fill:#9e0142"/><path id="patch_145" d="M191.372 107.231a8.982 8.982 0 1 0 0-17.963 8.982 8.982 0 0 0 0 17.963z" clip-path="url(#p22e46fee52)" style="fill:#86cfa5"/><path id="patch_146" d="M405.378 230.688a3.992 3.992 0 1 0 0-7.984 3.992 3.992 0 0 0 0 7.984z" clip-path="url(#p22e46fee52)" style="fill:#ffffbe"/><path id="patch_147" d="M578.586 99.53a2.994 2.994 0 1 0 0-5.987 2.994 2.994 0 0 0 0 5.988z" clip-path="url(#p22e46fee52)" style="fill:#5e4fa2"/><path id="patch_148" d="M182.387 129.158a11.976 11.976 0 1 0 0-23.952 11.976 11.976 0 0 0 0 23.952z" clip-path="url(#p22e46fee52)" style="fill:#9e0142"/><path id="patch_149" d="M161.514 124.306a8.982 8.982 0 1 0 0-17.963 8.982 8.982 0 0 0 0 17.963z" clip-path="url(#p22e46fee52)" style="fill:#86cfa5"/><path id="patch_150" d="M223.738 81.92a5.988 5.988 0 1 0 0-11.975 5.988 5.988 0 0 0 0 11.975z" clip-path="url(#p22e46fee52)" style="fill:#f98e52"/><path id="patch_151" d="M391.55 230.688a11.976 11.976 0 1 0 0-23.951 11.976 11.976 0 0 0 0 23.951z" clip-path="url(#p22e46fee52)" style="fill:#9e0142"/><path id="patch_152" d="M109.576 159.941a3.992 3.992 0 1 0 0-7.984 3.992 3.992 0 0 0 0 7.984z" clip-path="url(#p22e46fee52)" style="fill:#ffffbe"/><path id="patch_153" d="M367.6 230.688a11.976 11.976 0 1 0 0-23.951 11.976 11.976 0 0 0 0 23.951z" clip-path="url(#p22e46fee52)" style="fill:#9e0142"/><path id="patch_154" d="M212.753 74.746a8.982 8.982 0 1 0 0-17.964 8.982 8.982 0 0 0 0 17.964z" clip-path="url(#p22e46fee52)" style="fill:#86cfa5"/><path id="patch_155" d="M196.726 77.908a5.988 5.988 0 1 0 0-11.975 5.988 5.988 0 0 0 0 11.975z" clip-path="url(#p22e46fee52)" style="fill:#f98e52"/><path id="patch_156" d="M479.08 230.688a2.994 2.994 0 1 0 0-5.988 2.994 2.994 0 0 0 0 5.988z" clip-path="url(#p22e46fee52)" style="fill:#5e4fa2"/><path id="patch_157" d="M167.013 147.522a11.976 11.976 0 1 0 0-23.952 11.976 11.976 0 0 0 0 23.952z" clip-path="url(#p22e46fee52)" style="fill:#9e0142"/><path id="patch_158" d="M147.873 135.994a8.982 8.982 0 1 0 0-17.964 8.982 8.982 0 0 0 0 17.964z" clip-path="url(#p22e46fee52)" style="fill:#86cfa5"/><path id="patch_159" d="M309.635 78.006a11.976 11.976 0 1 0 0-23.952 11.976 11.976 0 0 0 0 23.952z" clip-path="url(#p22e46fee52)" style="fill:#9e0142"/><path id="patch_160" d="M114.529 176.92a8.982 8.982 0 1 0 0-17.962 8.982 8.982 0 0 0 0 17.963z" clip-path="url(#p22e46fee52)" style="fill:#86cfa5"/><path id="patch_161" d="M199.489 91.66a5.988 5.988 0 1 0 0-11.975 5.988 5.988 0 0 0 0 11.975z" clip-path="url(#p22e46fee52)" style="fill:#f98e52"/><path id="patch_162" d="M302.936 55.529a3.992 3.992 0 1 0 0-7.984 3.992 3.992 0 0 0 0 7.984z" clip-path="url(#p22e46fee52)" style="fill:#ffffbe"/><path id="patch_163" d="M343.65 230.688a11.976 11.976 0 1 0 0-23.951 11.976 11.976 0 0 0 0 23.951z" clip-path="url(#p22e46fee52)" style="fill:#9e0142"/><path id="patch_164" d="M121.76 160.479a8.982 8.982 0 1 0 0-17.964 8.982 8.982 0 0 0 0 17.964z" clip-path="url(#p22e46fee52)" style="fill:#86cfa5"/><path id="patch_165" d="M212.768 86.72a5.988 5.988 0 1 0 0-11.975 5.988 5.988 0 0 0 0 11.976z" clip-path="url(#p22e46fee52)" style="fill:#f98e52"/><path id="patch_166" d="M379.575 230.688a2.994 2.994 0 1 0 0-5.988 2.994 2.994 0 0 0 0 5.988z" clip-path="url(#p22e46fee52)" style="fill:#5e4fa2"/><path id="patch_167" d="M479.08 209.947a11.976 11.976 0 1 0 0-23.952 11.976 11.976 0 0 0 0 23.952z" clip-path="url(#p22e46fee52)" style="fill:#9e0142"/><path id="patch_168" d="M198.689 66.128a3.992 3.992 0 1 0 0-7.983 3.992 3.992 0 0 0 0 7.983z" clip-path="url(#p22e46fee52)" style="fill:#ffffbe"/><path id="patch_169" d="M319.7 230.688a11.976 11.976 0 1 0 0-23.951 11.976 11.976 0 0 0 0 23.951z" clip-path="url(#p22e46fee52)" style="fill:#9e0142"/><path id="patch_170" d="M209.29 105.968a8.982 8.982 0 1 0 0-17.963 8.982 8.982 0 0 0 0 17.963z" clip-path="url(#p22e46fee52)" style="fill:#86cfa5"/><path id="patch_171" d="M327.084 76.283a5.988 5.988 0 1 0 0-11.976 5.988 5.988 0 0 0 0 11.976z" clip-path="url(#p22e46fee52)" style="fill:#f98e52"/><path id="patch_172" d="M295.75 230.688a11.976 11.976 0 1 0 0-23.951 11.976 11.976 0 0 0 0 23.951z" clip-path="url(#p22e46fee52)" style="fill:#9e0142"/><path id="patch_173" d="M458.2 208.725a8.982 8.982 0 1 0 0-17.964 8.982 8.982 0 0 0 0 17.964z" clip-path="url(#p22e46fee52)" style="fill:#86cfa5"/><path id="patch_174" d="M196.689 114.075a3.992 3.992 0 1 0 0-7.984 3.992 3.992 0 0 0 0 7.984z" clip-path="url(#p22e46fee52)" style="fill:#ffffbe"/><path id="patch_175" d="M355.625 230.688a2.994 2.994 0 1 0 0-5.988 2.994 2.994 0 0 0 0 5.988z" clip-path="url(#p22e46fee52)" style="fill:#5e4fa2"/><path id="patch_176" d="M271.8 230.688a11.976 11.976 0 1 0 0-23.951 11.976 11.976 0 0 0 0 23.951z" clip-path="url(#p22e46fee52)" style="fill:#9e0142"/><path id="patch_177" d="M499.962 208.725a8.982 8.982 0 1 0 0-17.964 8.982 8.982 0 0 0 0 17.964z" clip-path="url(#p22e46fee52)" style="fill:#86cfa5"/><path id="patch_178" d="M222.61 93.842a5.988 5.988 0 1 0 0-11.975 5.988 5.988 0 0 0 0 11.975z" clip-path="url(#p22e46fee52)" style="fill:#f98e52"/><path id="patch_179" d="M247.85 230.688a11.976 11.976 0 1 0 0-23.951 11.976 11.976 0 0 0 0 23.951z" clip-path="url(#p22e46fee52)" style="fill:#9e0142"/><path id="patch_180" d="M510.753 191.089a8.982 8.982 0 1 0 0-17.964 8.982 8.982 0 0 0 0 17.964z" clip-path="url(#p22e46fee52)" style="fill:#86cfa5"/><path id="patch_181" d="M294.342 62.596a5.988 5.988 0 1 0 0-11.975 5.988 5.988 0 0 0 0 11.975z" clip-path="url(#p22e46fee52)" style="fill:#f98e52"/><path id="patch_182" d="M512.845 198.902a3.992 3.992 0 1 0 0-7.983 3.992 3.992 0 0 0 0 7.983z" clip-path="url(#p22e46fee52)" style="fill:#ffffbe"/><path id="patch_183" d="M259.825 230.688a2.994 2.994 0 1 0 0-5.988 2.994 2.994 0 0 0 0 5.988z" clip-path="url(#p22e46fee52)" style="fill:#5e4fa2"/><path id="patch_184" d="M379.575 209.947a11.976 11.976 0 1 0 0-23.952 11.976 11.976 0 0 0 0 23.952z" clip-path="url(#p22e46fee52)" style="fill:#9e0142"/><path id="patch_185" d="M205.52 135.36a11.976 11.976 0 1 0 0-23.951 11.976 11.976 0 0 0 0 23.95z" clip-path="url(#p22e46fee52)" style="fill:#9e0142"/><path id="patch_186" d="M189.5 145.876a8.982 8.982 0 1 0 0-17.963 8.982 8.982 0 0 0 0 17.963z" clip-path="url(#p22e46fee52)" style="fill:#86cfa5"/><path id="patch_187" d="M131.41 138.265a5.988 5.988 0 1 0 0-11.975 5.988 5.988 0 0 0 0 11.975z" clip-path="url(#p22e46fee52)" style="fill:#f98e52"/><path id="patch_188" d="M320.907 99.138a11.976 11.976 0 1 0 0-23.952 11.976 11.976 0 0 0 0 23.952z" clip-path="url(#p22e46fee52)" style="fill:#9e0142"/><path id="patch_189" d="M488.485 97.164a8.982 8.982 0 1 0 0-17.963 8.982 8.982 0 0 0 0 17.963z" clip-path="url(#p22e46fee52)" style="fill:#86cfa5"/><path id="patch_190" d="M516.785 205.845a3.992 3.992 0 1 0 0-7.983 3.992 3.992 0 0 0 0 7.983z" clip-path="url(#p22e46fee52)" style="fill:#ffffbe"/><path id="patch_191" d="M283.775 230.688a2.994 2.994 0 1 0 0-5.988 2.994 2.994 0 0 0 0 5.988z" clip-path="url(#p22e46fee52)" style="fill:#5e4fa2"/><path id="patch_192" d="M228.886 116.66a11.976 11.976 0 1 0 0-23.95 11.976 11.976 0 0 0 0 23.95z" clip-path="url(#p22e46fee52)" style="fill:#9e0142"/><path id="patch_193" d="M249.682 111.073a8.982 8.982 0 1 0 0-17.963 8.982 8.982 0 0 0 0 17.963z" clip-path="url(#p22e46fee52)" style="fill:#86cfa5"/><path id="patch_194" d="M336.313 83.914a5.988 5.988 0 1 0 0-11.976 5.988 5.988 0 0 0 0 11.976z" clip-path="url(#p22e46fee52)" style="fill:#f98e52"/><path id="patch_195" d="M139.702 201.905a11.976 11.976 0 1 0 0-23.952 11.976 11.976 0 0 0 0 23.952z" clip-path="url(#p22e46fee52)" style="fill:#9e0142"/><path id="patch_196" d="M524.045 209.167a3.992 3.992 0 1 0 0-7.984 3.992 3.992 0 0 0 0 7.984z" clip-path="url(#p22e46fee52)" style="fill:#ffffbe"/><path id="patch_197" d="M223.9 230.688a11.976 11.976 0 1 0 0-23.951 11.976 11.976 0 0 0 0 23.951z" clip-path="url(#p22e46fee52)" style="fill:#9e0142"/><path id="patch_198" d="M132.384 174.963a8.982 8.982 0 1 0 0-17.963 8.982 8.982 0 0 0 0 17.963z" clip-path="url(#p22e46fee52)" style="fill:#86cfa5"/><path id="patch_199" d="M348.477 81.25a5.988 5.988 0 1 0 0-11.976 5.988 5.988 0 0 0 0 11.975z" clip-path="url(#p22e46fee52)" style="fill:#f98e52"/><path id="patch_200" d="M455.13 230.688a2.994 2.994 0 1 0 0-5.988 2.994 2.994 0 0 0 0 5.988z" clip-path="url(#p22e46fee52)" style="fill:#5e4fa2"/><path id="patch_201" d="M207.73 159.208a11.976 11.976 0 1 0-.001-23.951 11.976 11.976 0 0 0 0 23.95z" clip-path="url(#p22e46fee52)" style="fill:#9e0142"/><path id="patch_202" d="M331.675 210.496a8.982 8.982 0 1 0 0-17.963 8.982 8.982 0 0 0 0 17.963z" clip-path="url(#p22e46fee52)" style="fill:#86cfa5"/><path id="patch_203" d="M492.928 192.518a5.988 5.988 0 1 0 0-11.976 5.988 5.988 0 0 0 0 11.976z" clip-path="url(#p22e46fee52)" style="fill:#f98e52"/><path id="patch_204" d="M489.407 79.235a3.992 3.992 0 1 0 0-7.984 3.992 3.992 0 0 0 0 7.984z" clip-path="url(#p22e46fee52)" style="fill:#ffffbe"/><path id="patch_205" d="M199.95 230.688a11.976 11.976 0 1 0 0-23.951 11.976 11.976 0 0 0 0 23.951z" clip-path="url(#p22e46fee52)" style="fill:#9e0142"/><path id="patch_206" d="M460.384 112.032a8.982 8.982 0 1 0 0-17.963 8.982 8.982 0 0 0 0 17.963z" clip-path="url(#p22e46fee52)" style="fill:#86cfa5"/><path id="patch_207" d="M235.875 230.688a2.994 2.994 0 1 0 0-5.988 2.994 2.994 0 0 0 0 5.988z" clip-path="url(#p22e46fee52)" style="fill:#5e4fa2"/><path id="patch_208" d="M463.782 191.52a11.976 11.976 0 1 0 0-23.952 11.976 11.976 0 0 0 0 23.951z" clip-path="url(#p22e46fee52)" style="fill:#9e0142"/><path id="patch_209" d="M478.294 113.4a8.982 8.982 0 1 0 0-17.964 8.982 8.982 0 0 0 0 17.963z" clip-path="url(#p22e46fee52)" style="fill:#86cfa5"/><path id="patch_210" d="M482.66 186.357a5.988 5.988 0 1 0 0-11.976 5.988 5.988 0 0 0 0 11.976z" clip-path="url(#p22e46fee52)" style="fill:#f98e52"/><path id="patch_211" d="M496.81 82.225a3.992 3.992 0 1 0 0-7.984 3.992 3.992 0 0 0 0 7.984z" clip-path="url(#p22e46fee52)" style="fill:#ffffbe"/><path id="patch_212" d="M176 230.688a11.976 11.976 0 1 0 0-23.951 11.976 11.976 0 0 0 0 23.951z" clip-path="url(#p22e46fee52)" style="fill:#9e0142"/><path id="patch_213" d="M361.386 99.727a11.976 11.976 0 1 0 0-23.951 11.976 11.976 0 0 0 0 23.951z" clip-path="url(#p22e46fee52)" style="fill:#9e0142"/><path id="patch_214" d="M494.852 180.667a8.982 8.982 0 1 0 0-17.964 8.982 8.982 0 0 0 0 17.964z" clip-path="url(#p22e46fee52)" style="fill:#86cfa5"/><path id="patch_215" d="M124.98 185.626a5.988 5.988 0 1 0 0-11.976 5.988 5.988 0 0 0 0 11.976z" clip-path="url(#p22e46fee52)" style="fill:#f98e52"/><path id="patch_216" d="M578.586 147.43a2.994 2.994 0 1 0 0-5.987 2.994 2.994 0 0 0 0 5.988z" clip-path="url(#p22e46fee52)" style="fill:#5e4fa2"/><path id="patch_217" d="M283.775 209.947a11.976 11.976 0 1 0 0-23.952 11.976 11.976 0 0 0 0 23.952z" clip-path="url(#p22e46fee52)" style="fill:#9e0142"/><path id="patch_218" d="M512.172 173.182a8.982 8.982 0 1 0 0-17.963 8.982 8.982 0 0 0 0 17.963z" clip-path="url(#p22e46fee52)" style="fill:#86cfa5"/><path id="patch_219" d="M480.194 174.638a5.988 5.988 0 1 0 0-11.975 5.988 5.988 0 0 0 0 11.975z" clip-path="url(#p22e46fee52)" style="fill:#f98e52"/><path id="patch_220" d="M115.096 185.004a3.992 3.992 0 1 0 0-7.984 3.992 3.992 0 0 0 0 7.984z" clip-path="url(#p22e46fee52)" style="fill:#ffffbe"/><path id="patch_221" d="M259.825 209.947a11.976 11.976 0 1 0 0-23.952 11.976 11.976 0 0 0 0 23.952z" clip-path="url(#p22e46fee52)" style="fill:#9e0142"/><path id="patch_222" d="M529.983 165.657a8.982 8.982 0 1 0 0-17.964 8.982 8.982 0 0 0 0 17.964z" clip-path="url(#p22e46fee52)" style="fill:#86cfa5"/><path id="patch_223" d="M186.129 169.553a11.976 11.976 0 1 0 0-23.951 11.976 11.976 0 0 0 0 23.951z" clip-path="url(#p22e46fee52)" style="fill:#9e0142"/><path id="patch_224" d="M155.258 230.688a8.982 8.982 0 1 0 0-17.963 8.982 8.982 0 0 0 0 17.963z" clip-path="url(#p22e46fee52)" style="fill:#86cfa5"/><path id="patch_225" d="M338.694 95.65a5.988 5.988 0 1 0 0-11.976 5.988 5.988 0 0 0 0 11.976z" clip-path="url(#p22e46fee52)" style="fill:#f98e52"/><path id="patch_226" d="M372.408 80.192a3.992 3.992 0 1 0 0-7.984 3.992 3.992 0 0 0 0 7.984z" clip-path="url(#p22e46fee52)" style="fill:#ffffbe"/><path id="patch_227" d="M431.18 230.688a2.994 2.994 0 1 0 0-5.988 2.994 2.994 0 0 0 0 5.988z" clip-path="url(#p22e46fee52)" style="fill:#5e4fa2"/><path id="patch_228" d="M205.888 183.087a11.976 11.976 0 1 0 0-23.951 11.976 11.976 0 0 0 0 23.951z" clip-path="url(#p22e46fee52)" style="fill:#9e0142"/><path id="patch_229" d="M547.22 156.731a11.976 11.976 0 1 0 0-23.951 11.976 11.976 0 0 0 0 23.951z" clip-path="url(#p22e46fee52)" style="fill:#9e0142"/><path id="patch_230" d="M533.86 132.155a8.982 8.982 0 1 0-.001-17.963 8.982 8.982 0 0 0 0 17.963z" clip-path="url(#p22e46fee52)" style="fill:#86cfa5"/><path id="patch_231" d="M529.517 147.702a5.988 5.988 0 1 0 0-11.976 5.988 5.988 0 0 0 0 11.976z" clip-path="url(#p22e46fee52)" style="fill:#f98e52"/><path id="patch_232" d="M546.304 130.832a3.992 3.992 0 1 0 0-7.984 3.992 3.992 0 0 0 0 7.984z" clip-path="url(#p22e46fee52)" style="fill:#ffffbe"/><path id="patch_233" d="M261.386 37.092a2.994 2.994 0 1 0 0-5.988 2.994 2.994 0 0 0 0 5.988z" clip-path="url(#p22e46fee52)" style="fill:#5e4fa2"/><path id="patch_234" d="M487.28 164.12a11.976 11.976 0 1 0 0-23.951 11.976 11.976 0 0 0 0 23.95z" clip-path="url(#p22e46fee52)" style="fill:#9e0142"/><path id="patch_235" d="M515.284 155.333a8.982 8.982 0 1 0 0-17.964 8.982 8.982 0 0 0 0 17.964z" clip-path="url(#p22e46fee52)" style="fill:#86cfa5"/><path id="patch_236" d="M286.678 84.83a11.976 11.976 0 1 0 0-23.952 11.976 11.976 0 0 0 0 23.951z" clip-path="url(#p22e46fee52)" style="fill:#9e0142"/><path id="patch_237" d="M382.132 93.769a8.982 8.982 0 1 0 0-17.963 8.982 8.982 0 0 0 0 17.963z" clip-path="url(#p22e46fee52)" style="fill:#86cfa5"/><path id="patch_238" d="M471.395 166.516a5.988 5.988 0 1 0 0-11.975 5.988 5.988 0 0 0 0 11.975z" clip-path="url(#p22e46fee52)" style="fill:#f98e52"/><path id="patch_239" d="M227.278 145.371a11.976 11.976 0 1 0 0-23.951 11.976 11.976 0 0 0 0 23.951z" clip-path="url(#p22e46fee52)" style="fill:#9e0142"/><path id="patch_240" d="M244.05 128.13a8.982 8.982 0 1 0 0-17.963 8.982 8.982 0 0 0 0 17.964z" clip-path="url(#p22e46fee52)" style="fill:#86cfa5"/><path id="patch_241" d="M521.562 138.75a5.988 5.988 0 1 0 0-11.975 5.988 5.988 0 0 0 0 11.975z" clip-path="url(#p22e46fee52)" style="fill:#f98e52"/><path id="patch_242" d="M557.742 160.757a3.992 3.992 0 1 0 0-7.984 3.992 3.992 0 0 0 0 7.984z" clip-path="url(#p22e46fee52)" style="fill:#ffffbe"/><path id="patch_243" d="M533.68 37.092a2.994 2.994 0 1 0 0-5.988 2.994 2.994 0 0 0 0 5.988z" clip-path="url(#p22e46fee52)" style="fill:#5e4fa2"/><path id="patch_244" d="M355.625 209.947a11.976 11.976 0 1 0 0-23.952 11.976 11.976 0 0 0 0 23.952z" clip-path="url(#p22e46fee52)" style="fill:#9e0142"/><path id="patch_245" d="M235.875 209.947a11.976 11.976 0 1 0 0-23.952 11.976 11.976 0 0 0 0 23.952z" clip-path="url(#p22e46fee52)" style="fill:#9e0142"/><path id="patch_246" d="M517.088 125.724a8.982 8.982 0 1 0 0-17.964 8.982 8.982 0 0 0 0 17.964z" clip-path="url(#p22e46fee52)" style="fill:#86cfa5"/><path id="patch_247" d="M301.97 88.263a5.988 5.988 0 1 0 0-11.975 5.988 5.988 0 0 0 0 11.975z" clip-path="url(#p22e46fee52)" style="fill:#f98e52"/><path id="patch_248" d="M554.269 130.291a3.992 3.992 0 1 0 0-7.983 3.992 3.992 0 0 0 0 7.983z" clip-path="url(#p22e46fee52)" style="fill:#ffffbe"/><path id="patch_249" d="M247.85 189.205a11.976 11.976 0 1 0 0-23.951 11.976 11.976 0 0 0 0 23.951z" clip-path="url(#p22e46fee52)" style="fill:#9e0142"/><path id="patch_250" d="M226.969 187.983a8.982 8.982 0 1 0 0-17.963 8.982 8.982 0 0 0 0 17.963z" clip-path="url(#p22e46fee52)" style="fill:#86cfa5"/><path id="patch_251" d="M331.675 230.688a2.994 2.994 0 1 0 0-5.988 2.994 2.994 0 0 0 0 5.988z" clip-path="url(#p22e46fee52)" style="fill:#5e4fa2"/><path id="patch_252" d="M403.525 209.947a11.976 11.976 0 1 0 0-23.952 11.976 11.976 0 0 0 0 23.952z" clip-path="url(#p22e46fee52)" style="fill:#9e0142"/><path id="patch_253" d="M215.55 201.849a8.982 8.982 0 1 0 0-17.963 8.982 8.982 0 0 0 0 17.963z" clip-path="url(#p22e46fee52)" style="fill:#86cfa5"/><path id="patch_254" d="M509.59 138.495a5.988 5.988 0 1 0 0-11.975 5.988 5.988 0 0 0 0 11.975z" clip-path="url(#p22e46fee52)" style="fill:#f98e52"/><path id="patch_255" d="M284.373 61.046a3.992 3.992 0 1 0 0-7.983 3.992 3.992 0 0 0 0 7.983z" clip-path="url(#p22e46fee52)" style="fill:#ffffbe"/><path id="patch_256" d="M391.55 189.205a11.976 11.976 0 1 0 0-23.951 11.976 11.976 0 0 0 0 23.951z" clip-path="url(#p22e46fee52)" style="fill:#9e0142"/><path id="patch_257" d="M307.725 209.947a11.976 11.976 0 1 0 0-23.952 11.976 11.976 0 0 0 0 23.952z" clip-path="url(#p22e46fee52)" style="fill:#9e0142"/><path id="patch_258" d="M223.956 169.476a8.982 8.982 0 1 0 0-17.964 8.982 8.982 0 0 0 0 17.964z" clip-path="url(#p22e46fee52)" style="fill:#86cfa5"/><path id="patch_259" d="M146.663 212.476a5.988 5.988 0 1 0 0-11.976 5.988 5.988 0 0 0 0 11.976z" clip-path="url(#p22e46fee52)" style="fill:#f98e52"/><path id="patch_260" d="M220.814 122.788a3.992 3.992 0 1 0 0-7.984 3.992 3.992 0 0 0 0 7.984z" clip-path="url(#p22e46fee52)" style="fill:#ffffbe"/><path id="patch_261" d="M307.725 230.688a2.994 2.994 0 1 0 0-5.988 2.994 2.994 0 0 0 0 5.988z" clip-path="url(#p22e46fee52)" style="fill:#5e4fa2"/><path id="patch_262" d="M464.828 155.785a11.976 11.976 0 1 0 0-23.952 11.976 11.976 0 0 0 0 23.952z" clip-path="url(#p22e46fee52)" style="fill:#9e0142"/><path id="patch_263" d="M400.857 87.852a8.982 8.982 0 1 0 0-17.963 8.982 8.982 0 0 0 0 17.963z" clip-path="url(#p22e46fee52)" style="fill:#86cfa5"/><path id="patch_264" d="M459.427 166.928a5.988 5.988 0 1 0 0-11.975 5.988 5.988 0 0 0 0 11.975z" clip-path="url(#p22e46fee52)" style="fill:#f98e52"/><path id="patch_265" d="M367.6 189.205a11.976 11.976 0 1 0 0-23.951 11.976 11.976 0 0 0 0 23.951z" clip-path="url(#p22e46fee52)" style="fill:#9e0142"/><path id="patch_266" d="M468.155 128.227a8.982 8.982 0 1 0 0-17.964 8.982 8.982 0 0 0 0 17.964z" clip-path="url(#p22e46fee52)" style="fill:#86cfa5"/><path id="patch_267" d="M285.367 37.092a2.994 2.994 0 1 0 0-5.988 2.994 2.994 0 0 0 0 5.988z" clip-path="url(#p22e46fee52)" style="fill:#5e4fa2"/><path id="patch_268" d="M264.846 128.531a11.976 11.976 0 1 0 0-23.951 11.976 11.976 0 0 0 0 23.951z" clip-path="url(#p22e46fee52)" style="fill:#9e0142"/><path id="patch_269" d="M482.04 140.836a8.982 8.982 0 1 0 0-17.964 8.982 8.982 0 0 0 0 17.964z" clip-path="url(#p22e46fee52)" style="fill:#86cfa5"/><path id="patch_270" d="M161.505 214.091a5.988 5.988 0 1 0 0-11.975 5.988 5.988 0 0 0 0 11.975z" clip-path="url(#p22e46fee52)" style="fill:#f98e52"/><path id="patch_271" d="M503.68 144.541a3.992 3.992 0 1 0 0-7.983 3.992 3.992 0 0 0 0 7.983z" clip-path="url(#p22e46fee52)" style="fill:#ffffbe"/><path id="patch_272" d="M509.44 99.975a11.976 11.976 0 1 0 0-23.951 11.976 11.976 0 0 0 0 23.95z" clip-path="url(#p22e46fee52)" style="fill:#9e0142"/><path id="patch_273" d="M415.5 189.205a11.976 11.976 0 1 0 0-23.951 11.976 11.976 0 0 0 0 23.951z" clip-path="url(#p22e46fee52)" style="fill:#9e0142"/><path id="patch_274" d="M424.407 205.181a8.982 8.982 0 1 0 0-17.963 8.982 8.982 0 0 0 0 17.963z" clip-path="url(#p22e46fee52)" style="fill:#86cfa5"/><path id="patch_275" d="M497.615 138.613a5.988 5.988 0 1 0 0-11.976 5.988 5.988 0 0 0 0 11.976z" clip-path="url(#p22e46fee52)" style="fill:#f98e52"/><path id="patch_276" d="M262.585 104.742a3.992 3.992 0 1 0 0-7.984 3.992 3.992 0 0 0 0 7.984z" clip-path="url(#p22e46fee52)" style="fill:#ffffbe"/><path id="patch_277" d="M211.925 230.688a2.994 2.994 0 1 0 0-5.988 2.994 2.994 0 0 0 0 5.988z" clip-path="url(#p22e46fee52)" style="fill:#5e4fa2"/><path id="patch_278" d="M295.75 189.205a11.976 11.976 0 1 0 0-23.951 11.976 11.976 0 0 0 0 23.951z" clip-path="url(#p22e46fee52)" style="fill:#9e0142"/><path id="patch_279" d="M496.325 113.326a8.982 8.982 0 1 0 0-17.964 8.982 8.982 0 0 0 0 17.964z" clip-path="url(#p22e46fee52)" style="fill:#86cfa5"/><path id="patch_280" d="M448.247 194.55a5.988 5.988 0 1 0 0-11.976 5.988 5.988 0 0 0 0 11.976z" clip-path="url(#p22e46fee52)" style="fill:#f98e52"/><path id="patch_281" d="M173.66 206.853a11.976 11.976 0 1 0-.001-23.952 11.976 11.976 0 0 0 0 23.952z" clip-path="url(#p22e46fee52)" style="fill:#9e0142"/><path id="patch_282" d="M275.347 107.402a8.982 8.982 0 1 0 0-17.964 8.982 8.982 0 0 0 0 17.964z" clip-path="url(#p22e46fee52)" style="fill:#86cfa5"/><path id="patch_283" d="M143.283 230.688a3.992 3.992 0 1 0 0-7.984 3.992 3.992 0 0 0 0 7.984z" clip-path="url(#p22e46fee52)" style="fill:#ffffbe"/><path id="patch_284" d="M319.7 189.205a11.976 11.976 0 1 0 0-23.951 11.976 11.976 0 0 0 0 23.951z" clip-path="url(#p22e46fee52)" style="fill:#9e0142"/><path id="patch_285" d="M403.525 169.014a8.982 8.982 0 1 0 0-17.964 8.982 8.982 0 0 0 0 17.964z" clip-path="url(#p22e46fee52)" style="fill:#86cfa5"/><path id="patch_286" d="M292.65 95.782a5.988 5.988 0 1 0 0-11.976 5.988 5.988 0 0 0 0 11.976z" clip-path="url(#p22e46fee52)" style="fill:#f98e52"/><path id="patch_287" d="M503.03 230.688a2.994 2.994 0 1 0 0-5.988 2.994 2.994 0 0 0 0 5.988z" clip-path="url(#p22e46fee52)" style="fill:#5e4fa2"/><path id="patch_288" d="M271.8 189.205a11.976 11.976 0 1 0 0-23.951 11.976 11.976 0 0 0 0 23.951z" clip-path="url(#p22e46fee52)" style="fill:#9e0142"/><path id="patch_289" d="M135.3 230.688a3.992 3.992 0 1 0 0-7.984 3.992 3.992 0 0 0 0 7.984z" clip-path="url(#p22e46fee52)" style="fill:#ffffbe"/><path id="patch_290" d="M428.613 108.047a11.976 11.976 0 1 0 0-23.951 11.976 11.976 0 0 0 0 23.95z" clip-path="url(#p22e46fee52)" style="fill:#9e0142"/><path id="patch_291" d="M148.295 153.951a8.982 8.982 0 1 0 0-17.963 8.982 8.982 0 0 0 0 17.963z" clip-path="url(#p22e46fee52)" style="fill:#86cfa5"/><path id="patch_292" d="M303.822 100.095a5.988 5.988 0 1 0 0-11.976 5.988 5.988 0 0 0 0 11.976z" clip-path="url(#p22e46fee52)" style="fill:#f98e52"/><path id="patch_293" d="M187.975 230.688a2.994 2.994 0 1 0 0-5.988 2.994 2.994 0 0 0 0 5.988z" clip-path="url(#p22e46fee52)" style="fill:#5e4fa2"/><path id="patch_294" d="M283.775 168.464a11.976 11.976 0 1 0 0-23.951 11.976 11.976 0 0 0 0 23.95z" clip-path="url(#p22e46fee52)" style="fill:#9e0142"/><path id="patch_295" d="M293.296 113.73a8.982 8.982 0 1 0 0-17.963 8.982 8.982 0 0 0 0 17.964z" clip-path="url(#p22e46fee52)" style="fill:#86cfa5"/><path id="patch_296" d="M307.725 168.464a11.976 11.976 0 1 0 0-23.951 11.976 11.976 0 0 0 0 23.95z" clip-path="url(#p22e46fee52)" style="fill:#9e0142"/><path id="patch_297" d="M311.091 116.173a8.982 8.982 0 1 0 0-17.963 8.982 8.982 0 0 0 0 17.963z" clip-path="url(#p22e46fee52)" style="fill:#86cfa5"/><path id="patch_298" d="M415.722 89.55a5.988 5.988 0 1 0 0-11.976 5.988 5.988 0 0 0 0 11.976z" clip-path="url(#p22e46fee52)" style="fill:#f98e52"/><path id="patch_299" d="M185.34 209.755a3.992 3.992 0 1 0 0-7.984 3.992 3.992 0 0 0 0 7.984z" clip-path="url(#p22e46fee52)" style="fill:#ffffbe"/><path id="patch_300" d="M259.825 168.464a11.976 11.976 0 1 0 0-23.951 11.976 11.976 0 0 0 0 23.95z" clip-path="url(#p22e46fee52)" style="fill:#9e0142"/><path id="patch_301" d="M271.8 148.272a8.982 8.982 0 1 0 0-17.963 8.982 8.982 0 0 0 0 17.963z" clip-path="url(#p22e46fee52)" style="fill:#86cfa5"/><path id="patch_302" d="M188.443 181.378a5.988 5.988 0 1 0 0-11.975 5.988 5.988 0 0 0 0 11.975z" clip-path="url(#p22e46fee52)" style="fill:#f98e52"/><path id="patch_303" d="M499.576 163.675a2.994 2.994 0 1 0 0-5.987 2.994 2.994 0 0 0 0 5.988z" clip-path="url(#p22e46fee52)" style="fill:#5e4fa2"/><path id="patch_304" d="M379.575 168.464a11.976 11.976 0 1 0 0-23.951 11.976 11.976 0 0 0 0 23.95z" clip-path="url(#p22e46fee52)" style="fill:#9e0142"/><path id="patch_305" d="M516.358 107.782a3.992 3.992 0 1 0 0-7.984 3.992 3.992 0 0 0 0 7.984z" clip-path="url(#p22e46fee52)" style="fill:#ffffbe"/><path id="patch_306" d="M441.012 184.096a11.976 11.976 0 1 0 0-23.95 11.976 11.976 0 0 0 0 23.95z" clip-path="url(#p22e46fee52)" style="fill:#9e0142"/><path id="patch_307" d="M194.844 197.903a8.982 8.982 0 1 0 0-17.963 8.982 8.982 0 0 0 0 17.963z" clip-path="url(#p22e46fee52)" style="fill:#86cfa5"/><path id="patch_308" d="M449.86 159.726a5.988 5.988 0 1 0-.001-11.975 5.988 5.988 0 0 0 0 11.975z" clip-path="url(#p22e46fee52)" style="fill:#f98e52"/><path id="patch_309" d="M355.625 168.464a11.976 11.976 0 1 0 0-23.951 11.976 11.976 0 0 0 0 23.95z" clip-path="url(#p22e46fee52)" style="fill:#9e0142"/><path id="patch_310" d="M254.082 145.316a8.982 8.982 0 1 0 0-17.963 8.982 8.982 0 0 0 0 17.963z" clip-path="url(#p22e46fee52)" style="fill:#86cfa5"/><path id="patch_311" d="M503.054 158.615a3.992 3.992 0 1 0 0-7.984 3.992 3.992 0 0 0 0 7.984z" clip-path="url(#p22e46fee52)" style="fill:#ffffbe"/><path id="patch_312" d="M222.636 151.586a2.994 2.994 0 1 0 0-5.988 2.994 2.994 0 0 0 0 5.988z" clip-path="url(#p22e46fee52)" style="fill:#5e4fa2"/><path id="patch_313" d="M343.65 189.205a11.976 11.976 0 1 0 0-23.951 11.976 11.976 0 0 0 0 23.951z" clip-path="url(#p22e46fee52)" style="fill:#9e0142"/><path id="patch_314" d="M407.656 105.154a8.982 8.982 0 1 0 0-17.964 8.982 8.982 0 0 0 0 17.964z" clip-path="url(#p22e46fee52)" style="fill:#86cfa5"/><path id="patch_315" d="M244.22 153.582a5.988 5.988 0 1 0-.001-11.976 5.988 5.988 0 0 0 0 11.976z" clip-path="url(#p22e46fee52)" style="fill:#f98e52"/><path id="patch_316" d="M331.675 168.464a11.976 11.976 0 1 0 0-23.951 11.976 11.976 0 0 0 0 23.95z" clip-path="url(#p22e46fee52)" style="fill:#9e0142"/><path id="patch_317" d="M441.654 149.735a11.976 11.976 0 1 0 0-23.951 11.976 11.976 0 0 0 0 23.95z" clip-path="url(#p22e46fee52)" style="fill:#9e0142"/><path id="patch_318" d="M450.244 126.86a8.982 8.982 0 1 0 0-17.964 8.982 8.982 0 0 0 0 17.964z" clip-path="url(#p22e46fee52)" style="fill:#86cfa5"/><path id="patch_319" d="M443.234 205.425a5.988 5.988 0 1 0 0-11.976 5.988 5.988 0 0 0 0 11.976z" clip-path="url(#p22e46fee52)" style="fill:#f98e52"/><path id="patch_320" d="M158.157 202.694a3.992 3.992 0 1 0 0-7.983 3.992 3.992 0 0 0 0 7.983z" clip-path="url(#p22e46fee52)" style="fill:#ffffbe"/><path id="patch_321" d="M218.966 58.521a2.994 2.994 0 1 0 0-5.988 2.994 2.994 0 0 0 0 5.988z" clip-path="url(#p22e46fee52)" style="fill:#5e4fa2"/><path id="patch_322" d="M423.81 166.743a11.976 11.976 0 1 0 0-23.951 11.976 11.976 0 0 0 0 23.95z" clip-path="url(#p22e46fee52)" style="fill:#9e0142"/><path id="patch_323" d="M162.469 164.986a8.982 8.982 0 1 0 0-17.964 8.982 8.982 0 0 0 0 17.964z" clip-path="url(#p22e46fee52)" style="fill:#86cfa5"/><path id="patch_324" d="M445.429 109.693a5.988 5.988 0 1 0 0-11.976 5.988 5.988 0 0 0 0 11.976z" clip-path="url(#p22e46fee52)" style="fill:#f98e52"/><path id="patch_325" d="M343.65 147.722a11.976 11.976 0 1 0 0-23.95 11.976 11.976 0 0 0 0 23.95z" clip-path="url(#p22e46fee52)" style="fill:#9e0142"/><path id="patch_326" d="M289.518 145.316a8.982 8.982 0 1 0 0-17.963 8.982 8.982 0 0 0 0 17.963z" clip-path="url(#p22e46fee52)" style="fill:#86cfa5"/><path id="patch_327" d="M455.909 134.558a3.992 3.992 0 1 0 0-7.984 3.992 3.992 0 0 0 0 7.984z" clip-path="url(#p22e46fee52)" style="fill:#ffffbe"/><path id="patch_328" d="M172.505 152.465a2.994 2.994 0 1 0 0-5.988 2.994 2.994 0 0 0 0 5.988z" clip-path="url(#p22e46fee52)" style="fill:#5e4fa2"/><path id="patch_329" d="M367.6 147.722a11.976 11.976 0 1 0 0-23.95 11.976 11.976 0 0 0 0 23.95z" clip-path="url(#p22e46fee52)" style="fill:#9e0142"/><path id="patch_330" d="M300.078 130.364a8.982 8.982 0 1 0 0-17.964 8.982 8.982 0 0 0 0 17.964z" clip-path="url(#p22e46fee52)" style="fill:#86cfa5"/><path id="patch_331" d="M148.026 165.924a5.988 5.988 0 1 0 0-11.976 5.988 5.988 0 0 0 0 11.976z" clip-path="url(#p22e46fee52)" style="fill:#f98e52"/><path id="patch_332" d="M355.625 126.981a11.976 11.976 0 1 0 0-23.951 11.976 11.976 0 0 0 0 23.951z" clip-path="url(#p22e46fee52)" style="fill:#9e0142"/><path id="patch_333" d="M439.88 157.62a3.992 3.992 0 1 0 0-7.984 3.992 3.992 0 0 0 0 7.983z" clip-path="url(#p22e46fee52)" style="fill:#ffffbe"/><path id="patch_334" d="M415.021 127.767a11.976 11.976 0 1 0 0-23.951 11.976 11.976 0 0 0 0 23.951z" clip-path="url(#p22e46fee52)" style="fill:#9e0142"/><path id="patch_335" d="M155.845 181.682a8.982 8.982 0 1 0 0-17.963 8.982 8.982 0 0 0 0 17.963z" clip-path="url(#p22e46fee52)" style="fill:#86cfa5"/><path id="patch_336" d="M432.84 119.517a5.988 5.988 0 1 0 0-11.976 5.988 5.988 0 0 0 0 11.976z" clip-path="url(#p22e46fee52)" style="fill:#f98e52"/><path id="patch_337" d="M196.843 58.393a2.994 2.994 0 1 0 0-5.988 2.994 2.994 0 0 0 0 5.988z" clip-path="url(#p22e46fee52)" style="fill:#5e4fa2"/><path id="patch_338" d="M331.675 126.981a11.976 11.976 0 1 0 0-23.951 11.976 11.976 0 0 0 0 23.951z" clip-path="url(#p22e46fee52)" style="fill:#9e0142"/><path id="patch_339" d="M326.068 145.411a5.988 5.988 0 1 0 0-11.975 5.988 5.988 0 0 0 0 11.975z" clip-path="url(#p22e46fee52)" style="fill:#f98e52"/><path id="patch_340" d="M429.333 126.863a3.992 3.992 0 1 0 0-7.983 3.992 3.992 0 0 0 0 7.983z" clip-path="url(#p22e46fee52)" style="fill:#ffffbe"/><path id="patch_341" d="M377.715 117.248a11.976 11.976 0 1 0-.001-23.951 11.976 11.976 0 0 0 0 23.951z" clip-path="url(#p22e46fee52)" style="fill:#9e0142"/><path id="patch_342" d="M343.65 107.605a5.988 5.988 0 1 0 0-11.976 5.988 5.988 0 0 0 0 11.976z" clip-path="url(#p22e46fee52)" style="fill:#f98e52"/><path id="patch_343" d="M530.713 206.089a2.994 2.994 0 1 0 0-5.988 2.994 2.994 0 0 0 0 5.988z" clip-path="url(#p22e46fee52)" style="fill:#5e4fa2"/><path id="patch_344" d="M405.625 151.157a11.976 11.976 0 1 0 0-23.952 11.976 11.976 0 0 0 0 23.952z" clip-path="url(#p22e46fee52)" style="fill:#9e0142"/><path id="patch_345" d="M438.49 194.649a3.992 3.992 0 1 0 0-7.984 3.992 3.992 0 0 0 0 7.984z" clip-path="url(#p22e46fee52)" style="fill:#ffffbe"/><path id="patch_346" d="M193.59 53.198a2.994 2.994 0 1 0 0-5.988 2.994 2.994 0 0 0 0 5.988z" clip-path="url(#p22e46fee52)" style="fill:#5e4fa2"/><path id="patch_347" d="M394.541 154.666a3.992 3.992 0 1 0 0-7.984 3.992 3.992 0 0 0 0 7.984z" clip-path="url(#p22e46fee52)" style="fill:#ffffbe"/><path id="patch_348" d="M392.708 101.368a5.988 5.988 0 1 0 0-11.975 5.988 5.988 0 0 0 0 11.975z" clip-path="url(#p22e46fee52)" style="fill:#f98e52"/><path id="patch_349" d="M423.43 142.797a5.988 5.988 0 1 0 0-11.976 5.988 5.988 0 0 0 0 11.976z" clip-path="url(#p22e46fee52)" style="fill:#f98e52"/><path id="patch_350" d="M158.243 194.711a3.992 3.992 0 1 0 0-7.983 3.992 3.992 0 0 0 0 7.983z" clip-path="url(#p22e46fee52)" style="fill:#ffffbe"/><path id="patch_351" d="M559.14 124.286a2.994 2.994 0 1 0 0-5.988 2.994 2.994 0 0 0 0 5.988z" clip-path="url(#p22e46fee52)" style="fill:#5e4fa2"/><path id="patch_352" d="M398.743 114.186a5.988 5.988 0 1 0 0-11.976 5.988 5.988 0 0 0 0 11.976z" clip-path="url(#p22e46fee52)" style="fill:#f98e52"/><path id="patch_353" d="M390.363 147.863a3.992 3.992 0 1 0 0-7.984 3.992 3.992 0 0 0 0 7.984z" clip-path="url(#p22e46fee52)" style="fill:#ffffbe"/><path id="patch_354" d="M283.948 90.566a2.994 2.994 0 1 0 0-5.988 2.994 2.994 0 0 0 0 5.988z" clip-path="url(#p22e46fee52)" style="fill:#5e4fa2"/><path id="patch_355" d="M397.587 126.105a5.988 5.988 0 1 0 0-11.976 5.988 5.988 0 0 0 0 11.976z" clip-path="url(#p22e46fee52)" style="fill:#f98e52"/><path id="patch_356" d="M170.288 174.756a5.988 5.988 0 1 0 0-11.975 5.988 5.988 0 0 0 0 11.975z" clip-path="url(#p22e46fee52)" style="fill:#f98e52"/><path id="patch_357" d="M139.597 158.586a3.992 3.992 0 1 0 0-7.984 3.992 3.992 0 0 0 0 7.984z" clip-path="url(#p22e46fee52)" style="fill:#ffffbe"/><path id="patch_358" d="M278.398 88.319a2.994 2.994 0 1 0 0-5.988 2.994 2.994 0 0 0 0 5.988z" clip-path="url(#p22e46fee52)" style="fill:#5e4fa2"/><path id="patch_359" d="M312.98 124.019a3.992 3.992 0 1 0 0-7.984 3.992 3.992 0 0 0 0 7.984z" clip-path="url(#p22e46fee52)" style="fill:#ffffbe"/><path id="patch_360" d="M179.853 146.982a2.994 2.994 0 1 0 0-5.987 2.994 2.994 0 0 0 0 5.987z" clip-path="url(#p22e46fee52)" style="fill:#5e4fa2"/><path id="patch_361" d="M388.4 140.075a5.988 5.988 0 1 0 0-11.976 5.988 5.988 0 0 0 0 11.976z" clip-path="url(#p22e46fee52)" style="fill:#f98e52"/><path id="patch_362" d="M272.931 84.968a3.992 3.992 0 1 0 0-7.983 3.992 3.992 0 0 0 0 7.983z" clip-path="url(#p22e46fee52)" style="fill:#ffffbe"/><path id="patch_363" d="M285.598 123.575a5.988 5.988 0 1 0 0-11.976 5.988 5.988 0 0 0 0 11.976z" clip-path="url(#p22e46fee52)" style="fill:#f98e52"/><path id="patch_364" d="M561.49 167.431a2.994 2.994 0 1 0 0-5.988 2.994 2.994 0 0 0 0 5.988z" clip-path="url(#p22e46fee52)" style="fill:#5e4fa2"/><path id="patch_365" d="M167.52 182.348a3.992 3.992 0 1 0 0-7.984 3.992 3.992 0 0 0 0 7.984z" clip-path="url(#p22e46fee52)" style="fill:#ffffbe"/><path id="patch_366" d="M333.967 103.196a3.992 3.992 0 1 0 0-7.983 3.992 3.992 0 0 0 0 7.983z" clip-path="url(#p22e46fee52)" style="fill:#ffffbe"/><path id="patch_367" d="M495.256 74.416a2.994 2.994 0 1 0 0-5.987 2.994 2.994 0 0 0 0 5.987z" clip-path="url(#p22e46fee52)" style="fill:#5e4fa2"/><path id="patch_368" d="M413.705 77.78a3.992 3.992 0 1 0 0-7.983 3.992 3.992 0 0 0 0 7.984z" clip-path="url(#p22e46fee52)" style="fill:#ffffbe"/><path id="patch_369" d="M222.266 53.198a2.994 2.994 0 1 0 0-5.988 2.994 2.994 0 0 0 0 5.988z" clip-path="url(#p22e46fee52)" style="fill:#5e4fa2"/><path id="patch_370" d="M312.328 135.972a5.988 5.988 0 1 0 0-11.975 5.988 5.988 0 0 0 0 11.975z" clip-path="url(#p22e46fee52)" style="fill:#f98e52"/><path id="patch_371" d="M175.435 181.31a3.992 3.992 0 1 0 0-7.984 3.992 3.992 0 0 0 0 7.983z" clip-path="url(#p22e46fee52)" style="fill:#ffffbe"/><path id="patch_372" d="M282.207 112.265a2.994 2.994 0 1 0 0-5.988 2.994 2.994 0 0 0 0 5.988z" clip-path="url(#p22e46fee52)" style="fill:#5e4fa2"/><path id="patch_373" d="M242.097 165.367a5.988 5.988 0 1 0 0-11.975 5.988 5.988 0 0 0 0 11.975z" clip-path="url(#p22e46fee52)" style="fill:#f98e52"/><path id="patch_374" d="M279.118 132.57a3.992 3.992 0 1 0 0-7.983 3.992 3.992 0 0 0 0 7.984z" clip-path="url(#p22e46fee52)" style="fill:#ffffbe"/><path id="patch_375" d="M187.963 202.283a2.994 2.994 0 1 0 0-5.988 2.994 2.994 0 0 0 0 5.988z" clip-path="url(#p22e46fee52)" style="fill:#5e4fa2"/><path id="patch_376" d="M235.301 156.064a3.992 3.992 0 1 0 0-7.984 3.992 3.992 0 0 0 0 7.984z" clip-path="url(#p22e46fee52)" style="fill:#ffffbe"/><path id="patch_377" d="M561.005 153.583a2.994 2.994 0 1 0 0-5.988 2.994 2.994 0 0 0 0 5.988z" clip-path="url(#p22e46fee52)" style="fill:#5e4fa2"/><path id="patch_378" d="M193.125 207.987a3.992 3.992 0 1 0 0-7.984 3.992 3.992 0 0 0 0 7.984z" clip-path="url(#p22e46fee52)" style="fill:#ffffbe"/><path id="patch_379" d="M370.759 124.088a3.992 3.992 0 1 0 0-7.984 3.992 3.992 0 0 0 0 7.984z" clip-path="url(#p22e46fee52)" style="fill:#ffffbe"/><path id="patch_380" d="M228.563 152.435a2.994 2.994 0 1 0 0-5.988 2.994 2.994 0 0 0 0 5.988z" clip-path="url(#p22e46fee52)" style="fill:#5e4fa2"/><path id="patch_381" d="M135.608 151.67a3.992 3.992 0 1 0 0-7.983 3.992 3.992 0 0 0 0 7.984z" clip-path="url(#p22e46fee52)" style="fill:#ffffbe"/><path id="patch_382" d="M160.782 87.998a2.994 2.994 0 1 0 0-5.988 2.994 2.994 0 0 0 0 5.988z" clip-path="url(#p22e46fee52)" style="fill:#5e4fa2"/><path id="patch_383" d="M377.941 127.573a3.992 3.992 0 1 0 0-7.983 3.992 3.992 0 0 0 0 7.983z" clip-path="url(#p22e46fee52)" style="fill:#ffffbe"/><path id="patch_384" d="M137.053 143.838a2.994 2.994 0 1 0 0-5.988 2.994 2.994 0 0 0 0 5.988z" clip-path="url(#p22e46fee52)" style="fill:#5e4fa2"/><path id="patch_385" d="M431.18 212.144a3.992 3.992 0 1 0 0-7.984 3.992 3.992 0 0 0 0 7.984z" clip-path="url(#p22e46fee52)" style="fill:#ffffbe"/><path id="patch_386" d="M216.55 116.257a2.994 2.994 0 1 0-.001-5.987 2.994 2.994 0 0 0 0 5.987z" clip-path="url(#p22e46fee52)" style="fill:#5e4fa2"/><path id="patch_387" d="M429.773 188.38a3.992 3.992 0 1 0 0-7.983 3.992 3.992 0 0 0 0 7.983z" clip-path="url(#p22e46fee52)" style="fill:#ffffbe"/><path id="patch_388" d="M221.805 206.073a2.994 2.994 0 1 0 0-5.988 2.994 2.994 0 0 0 0 5.988z" clip-path="url(#p22e46fee52)" style="fill:#5e4fa2"/><path id="patch_389" d="M503.524 128.575a3.992 3.992 0 1 0 0-7.983 3.992 3.992 0 0 0 0 7.983z" clip-path="url(#p22e46fee52)" style="fill:#ffffbe"/><path id="patch_390" d="M277.012 64.137a3.992 3.992 0 1 0 0-7.984 3.992 3.992 0 0 0 0 7.984z" clip-path="url(#p22e46fee52)" style="fill:#ffffbe"/><path id="patch_391" d="M144.714 171.278a2.994 2.994 0 1 0 0-5.988 2.994 2.994 0 0 0 0 5.988z" clip-path="url(#p22e46fee52)" style="fill:#5e4fa2"/><path id="patch_392" d="M270.717 77.298a3.992 3.992 0 1 0 0-7.984 3.992 3.992 0 0 0 0 7.984z" clip-path="url(#p22e46fee52)" style="fill:#ffffbe"/><path id="patch_393" d="M216.079 207.825a2.994 2.994 0 1 0 0-5.988 2.994 2.994 0 0 0 0 5.988z" clip-path="url(#p22e46fee52)" style="fill:#5e4fa2"/><path id="patch_394" d="M303.183 137.97a3.992 3.992 0 1 0 0-7.984 3.992 3.992 0 0 0 0 7.984z" clip-path="url(#p22e46fee52)" style="fill:#ffffbe"/><path id="patch_395" d="M273.026 69.707a2.994 2.994 0 1 0 0-5.987 2.994 2.994 0 0 0 0 5.987z" clip-path="url(#p22e46fee52)" style="fill:#5e4fa2"/><path id="patch_396" d="M209.128 208.131a3.992 3.992 0 1 0 0-7.983 3.992 3.992 0 0 0 0 7.983z" clip-path="url(#p22e46fee52)" style="fill:#ffffbe"/><path id="patch_397" d="M103.306 141.194a2.994 2.994 0 1 0 0-5.988 2.994 2.994 0 0 0 0 5.988z" clip-path="url(#p22e46fee52)" style="fill:#5e4fa2"/><path id="patch_398" d="M309.037 143.398a3.992 3.992 0 1 0 0-7.984 3.992 3.992 0 0 0 0 7.984z" clip-path="url(#p22e46fee52)" style="fill:#ffffbe"/><path id="patch_399" d="M435.273 49.454a2.994 2.994 0 1 0 0-5.988 2.994 2.994 0 0 0 0 5.988z" clip-path="url(#p22e46fee52)" style="fill:#5e4fa2"/><path id="patch_400" d="M494.15 127.15a5.988 5.988 0 1 0 0-11.975 5.988 5.988 0 0 0 0 11.975z" clip-path="url(#p22e46fee52)" style="fill:#f98e52"/><path id="patch_401" d="M301.41 145.754a3.992 3.992 0 1 0 0-7.984 3.992 3.992 0 0 0 0 7.984z" clip-path="url(#p22e46fee52)" style="fill:#ffffbe"/><path id="patch_402" d="M203.505 111.546a2.994 2.994 0 1 0 0-5.988 2.994 2.994 0 0 0 0 5.988z" clip-path="url(#p22e46fee52)" style="fill:#5e4fa2"/><path id="patch_403" d="M503.033 120.607a3.992 3.992 0 1 0 0-7.984 3.992 3.992 0 0 0 0 7.984z" clip-path="url(#p22e46fee52)" style="fill:#ffffbe"/><path id="patch_404" d="M315.92 141.21a2.994 2.994 0 1 0 0-5.988 2.994 2.994 0 0 0 0 5.988z" clip-path="url(#p22e46fee52)" style="fill:#5e4fa2"/><path id="patch_405" d="M143.45 222.707a2.994 2.994 0 1 0 0-5.988 2.994 2.994 0 0 0 0 5.988z" clip-path="url(#p22e46fee52)" style="fill:#5e4fa2"/><path id="patch_406" d="M480.952 121.107a3.992 3.992 0 1 0 0-7.983 3.992 3.992 0 0 0 0 7.983z" clip-path="url(#p22e46fee52)" style="fill:#ffffbe"/><path id="patch_407" d="M131.23 145.23a2.994 2.994 0 1 0 0-5.988 2.994 2.994 0 0 0 0 5.988z" clip-path="url(#p22e46fee52)" style="fill:#5e4fa2"/><path id="patch_408" d="M321.49 195.085a2.994 2.994 0 1 0 0-5.987 2.994 2.994 0 0 0 0 5.987z" clip-path="url(#p22e46fee52)" style="fill:#5e4fa2"/><path id="patch_409" d="M234.515 172.441a3.992 3.992 0 1 0 0-7.984 3.992 3.992 0 0 0 0 7.984z" clip-path="url(#p22e46fee52)" style="fill:#ffffbe"/><path id="patch_410" d="M116.905 106.98a2.994 2.994 0 1 0 0-5.988 2.994 2.994 0 0 0 0 5.988z" clip-path="url(#p22e46fee52)" style="fill:#5e4fa2"/><path id="patch_411" d="M346.87 87.092a2.994 2.994 0 1 0 0-5.988 2.994 2.994 0 0 0 0 5.988z" clip-path="url(#p22e46fee52)" style="fill:#5e4fa2"/><path id="patch_412" d="M184.252 186.329a2.994 2.994 0 1 0 0-5.988 2.994 2.994 0 0 0 0 5.988z" clip-path="url(#p22e46fee52)" style="fill:#5e4fa2"/><path id="patch_413" d="M405.316 215.827a2.994 2.994 0 1 0 0-5.988 2.994 2.994 0 0 0 0 5.988z" clip-path="url(#p22e46fee52)" style="fill:#5e4fa2"/><path id="patch_414" d="M352.543 103.352a2.994 2.994 0 1 0 0-5.988 2.994 2.994 0 0 0 0 5.988z" clip-path="url(#p22e46fee52)" style="fill:#5e4fa2"/><path id="patch_415" d="M162.181 185.855a2.994 2.994 0 1 0 0-5.987 2.994 2.994 0 0 0 0 5.987z" clip-path="url(#p22e46fee52)" style="fill:#5e4fa2"/><path id="patch_416" d="M205.577 78.345a2.994 2.994 0 1 0 0-5.988 2.994 2.994 0 0 0 0 5.988z" clip-path="url(#p22e46fee52)" style="fill:#5e4fa2"/><path id="patch_417" d="M383.709 144.74a2.994 2.994 0 1 0 0-5.988 2.994 2.994 0 0 0 0 5.987z" clip-path="url(#p22e46fee52)" style="fill:#5e4fa2"/><path id="patch_418" d="M295.234 149.851a2.994 2.994 0 1 0 0-5.988 2.994 2.994 0 0 0 0 5.988z" clip-path="url(#p22e46fee52)" style="fill:#5e4fa2"/><path id="patch_419" d="M211.7 112.745a2.994 2.994 0 1 0 0-5.988 2.994 2.994 0 0 0 0 5.988z" clip-path="url(#p22e46fee52)" style="fill:#5e4fa2"/><path id="patch_420" d="M242.365 141.8a2.994 2.994 0 1 0 0-5.988 2.994 2.994 0 0 0 0 5.988z" clip-path="url(#p22e46fee52)" style="fill:#5e4fa2"/><path id="patch_421" d="M204.989 201.507a2.994 2.994 0 1 0 0-5.988 2.994 2.994 0 0 0 0 5.988z" clip-path="url(#p22e46fee52)" style="fill:#5e4fa2"/><path id="patch_422" d="M242.633 135.819a2.994 2.994 0 1 0 0-5.988 2.994 2.994 0 0 0 0 5.988z" clip-path="url(#p22e46fee52)" style="fill:#5e4fa2"/><path id="patch_423" d="M486.617 116.022a2.994 2.994 0 1 0 0-5.988 2.994 2.994 0 0 0 0 5.988z" clip-path="url(#p22e46fee52)" style="fill:#5e4fa2"/><path id="patch_424" d="M436.242 124.836a2.994 2.994 0 1 0 0-5.988 2.994 2.994 0 0 0 0 5.988z" clip-path="url(#p22e46fee52)" style="fill:#5e4fa2"/><path id="patch_425" d="M510.146 109.979a2.994 2.994 0 1 0 0-5.988 2.994 2.994 0 0 0 0 5.988z" clip-path="url(#p22e46fee52)" style="fill:#5e4fa2"/><path id="patch_426" d="M424.203 130.608a2.994 2.994 0 1 0 0-5.988 2.994 2.994 0 0 0 0 5.988z" clip-path="url(#p22e46fee52)" style="fill:#5e4fa2"/><path id="patch_427" d="M501.602 150.784a2.994 2.994 0 1 0 0-5.988 2.994 2.994 0 0 0 0 5.988z" clip-path="url(#p22e46fee52)" style="fill:#5e4fa2"/><path id="patch_428" d="M178.916 174.255a2.994 2.994 0 1 0 0-5.988 2.994 2.994 0 0 0 0 5.988z" clip-path="url(#p22e46fee52)" style="fill:#5e4fa2"/><path id="patch_429" d="M287.49 53.797a2.994 2.994 0 1 0 0-5.988 2.994 2.994 0 0 0 0 5.988z" clip-path="url(#p22e46fee52)" style="fill:#5e4fa2"/><path id="patch_430" d="M327.172 193.195a2.994 2.994 0 1 0 0-5.988 2.994 2.994 0 0 0 0 5.988z" clip-path="url(#p22e46fee52)" style="fill:#5e4fa2"/><path id="patch_431" d="M202.151 206.78a2.994 2.994 0 1 0 0-5.989 2.994 2.994 0 0 0 0 5.988z" clip-path="url(#p22e46fee52)" style="fill:#5e4fa2"/><path id="patch_432" d="M331.658 189.229a2.994 2.994 0 1 0 0-5.988 2.994 2.994 0 0 0 0 5.988z" clip-path="url(#p22e46fee52)" style="fill:#5e4fa2"/><path id="patch_433" d="M124.333 59.877a2.994 2.994 0 1 0 0-5.988 2.994 2.994 0 0 0 0 5.988z" clip-path="url(#p22e46fee52)" style="fill:#5e4fa2"/><path id="patch_434" d="M318.851 126.805a2.994 2.994 0 1 0 0-5.987 2.994 2.994 0 0 0 0 5.987z" clip-path="url(#p22e46fee52)" style="fill:#5e4fa2"/><path id="patch_435" d="M541.884 93.815a2.994 2.994 0 1 0 0-5.988 2.994 2.994 0 0 0 0 5.988z" clip-path="url(#p22e46fee52)" style="fill:#5e4fa2"/><path id="patch_436" d="M322.307 133.874a3.992 3.992 0 1 0 0-7.983 3.992 3.992 0 0 0 0 7.983z" clip-path="url(#p22e46fee52)" style="fill:#ffffbe"/><path id="patch_437" d="M149.54 118.148a2.994 2.994 0 1 0 0-5.988 2.994 2.994 0 0 0 0 5.988z" clip-path="url(#p22e46fee52)" style="fill:#5e4fa2"/><path id="patch_438" d="M536.171 90.793a3.992 3.992 0 1 0 0-7.984 3.992 3.992 0 0 0 0 7.984z" clip-path="url(#p22e46fee52)" style="fill:#ffffbe"/><path id="patch_439" d="M528.188 90.83a3.992 3.992 0 1 0 0-7.983 3.992 3.992 0 0 0 0 7.983z" clip-path="url(#p22e46fee52)" style="fill:#ffffbe"/><path id="patch_440" d="M329.885 132.861a2.994 2.994 0 1 0 0-5.988 2.994 2.994 0 0 0 0 5.988z" clip-path="url(#p22e46fee52)" style="fill:#5e4fa2"/><path id="patch_441" d="M532.147 83.898a3.992 3.992 0 1 0 0-7.984 3.992 3.992 0 0 0 0 7.984z" clip-path="url(#p22e46fee52)" style="fill:#ffffbe"/><path id="patch_442" d="M320.531 149.49a2.994 2.994 0 1 0 0-5.989 2.994 2.994 0 0 0 0 5.988z" clip-path="url(#p22e46fee52)" style="fill:#5e4fa2"/><path id="patch_443" d="M524.164 83.936a3.992 3.992 0 1 0 0-7.984 3.992 3.992 0 0 0 0 7.984z" clip-path="url(#p22e46fee52)" style="fill:#ffffbe"/><path id="patch_444" d="M535.699 138.193a2.994 2.994 0 1 0 0-5.988 2.994 2.994 0 0 0 0 5.988z" clip-path="url(#p22e46fee52)" style="fill:#5e4fa2"/><path id="patch_445" d="M528.123 77.003a3.992 3.992 0 1 0 0-7.984 3.992 3.992 0 0 0 0 7.984z" clip-path="url(#p22e46fee52)" style="fill:#ffffbe"/><path id="patch_446" d="M391.502 116.505a2.994 2.994 0 1 0 0-5.987 2.994 2.994 0 0 0 0 5.987z" clip-path="url(#p22e46fee52)" style="fill:#5e4fa2"/><path id="patch_447" d="M387.64 123.323a3.992 3.992 0 1 0-.001-7.983 3.992 3.992 0 0 0 0 7.983z" clip-path="url(#p22e46fee52)" style="fill:#ffffbe"/><path id="patch_448" d="M535.086 76.563a2.994 2.994 0 1 0 0-5.988 2.994 2.994 0 0 0 0 5.988z" clip-path="url(#p22e46fee52)" style="fill:#5e4fa2"/><path id="patch_449" d="M143.967 177.219a2.994 2.994 0 1 0 0-5.988 2.994 2.994 0 0 0 0 5.988z" clip-path="url(#p22e46fee52)" style="fill:#5e4fa2"/><path id="patch_450" d="M521.165 76.629a2.994 2.994 0 1 0 0-5.988 2.994 2.994 0 0 0 0 5.988z" clip-path="url(#p22e46fee52)" style="fill:#5e4fa2"/><path id="patch_451" d="M132.287 126.333a2.994 2.994 0 1 0 0-5.988 2.994 2.994 0 0 0 0 5.988z" clip-path="url(#p22e46fee52)" style="fill:#5e4fa2"/><g id="matplotlib.axis_1"><g id="xtick_1"><g id="line2d_1"><defs><path id="m0ab98260f5" d="M0 0v3.5" style="stroke:#000;stroke-width:.8"/></defs><use xlink:href="#m0ab98260f5" x="82.62" y="230.688" style="stroke:#000;stroke-width:.8"/></g><g id="text_1" transform="matrix(.1 0 0 -.1 79.439 245.286)"><defs><path id="DejaVuSans-30" d="M2034 4250q-487 0-733-480-245-479-245-1442 0-959 245-1439 246-480 733-480 491 0 736 480 246 480 246 1439 0 963-246 1442-245 480-736 480zm0 500q785 0 1199-621 414-620 414-1801 0-1178-414-1799Q2819-91 2034-91q-784 0-1198 620-414 621-414 1799 0 1181 414 1801 414 621 1198 621z" transform="scale(.01563)"/></defs><use xlink:href="#DejaVuSans-30"/></g></g><g id="xtick_2"><use xlink:href="#m0ab98260f5" id="line2d_2" x="182.412" y="230.688" style="stroke:#000;stroke-width:.8"/><g id="text_2" transform="matrix(.1 0 0 -.1 172.868 245.286)"><defs><path id="DejaVuSans-31" d="M794 531h1031v3560L703 3866v575l1116 225h631V531h1031V0H794v531z" transform="scale(.01563)"/></defs><use xlink:href="#DejaVuSans-31"/><use xlink:href="#DejaVuSans-30" x="63.623"/><use xlink:href="#DejaVuSans-30" x="127.246"/></g></g><g id="xtick_3"><use xlink:href="#m0ab98260f5" id="line2d_3" x="282.204" y="230.688" style="stroke:#000;stroke-width:.8"/><g id="text_3" transform="matrix(.1 0 0 -.1 272.66 245.286)"><defs><path id="DejaVuSans-32" d="M1228 531h2203V0H469v531q359 372 979 998 621 627 780 809 303 340 423 576 121 236 121 464 0 372-261 606-261 235-680 235-297 0-627-103-329-103-704-313v638q381 153 712 231 332 78 607 78 725 0 1156-363 431-362 431-968 0-288-108-546-107-257-392-607-78-91-497-524-418-433-1181-1211z" transform="scale(.01563)"/></defs><use xlink:href="#DejaVuSans-32"/><use xlink:href="#DejaVuSans-30" x="63.623"/><use xlink:href="#DejaVuSans-30" x="127.246"/></g></g><g id="xtick_4"><use xlink:href="#m0ab98260f5" id="line2d_4" x="381.996" y="230.688" style="stroke:#000;stroke-width:.8"/><g id="text_4" transform="matrix(.1 0 0 -.1 372.452 245.286)"><defs><path id="DejaVuSans-33" d="M2597 2516q453-97 707-404 255-306 255-756 0-690-475-1069Q2609-91 1734-91q-293 0-604 58T488 141v609q262-153 574-231 313-78 654-78 593 0 904 234t311 681q0 413-289 645-289 233-804 233h-544v519h569q465 0 712 186t247 536q0 359-255 551-254 193-729 193-260 0-557-57-297-56-653-174v562q360 100 674 150t592 50q719 0 1137-327 419-326 419-882 0-388-222-655t-631-370z" transform="scale(.01563)"/></defs><use xlink:href="#DejaVuSans-33"/><use xlink:href="#DejaVuSans-30" x="63.623"/><use xlink:href="#DejaVuSans-30" x="127.246"/></g></g><g id="xtick_5"><use xlink:href="#m0ab98260f5" id="line2d_5" x="481.788" y="230.688" style="stroke:#000;stroke-width:.8"/><g id="text_5" transform="matrix(.1 0 0 -.1 472.244 245.286)"><defs><path id="DejaVuSans-34" d="M2419 4116 825 1625h1594v2491zm-166 550h794V1625h666v-525h-666V0h-628v1100H313v609l1940 2957z" transform="scale(.01563)"/></defs><use xlink:href="#DejaVuSans-34"/><use xlink:href="#DejaVuSans-30" x="63.623"/><use xlink:href="#DejaVuSans-30" x="127.246"/></g></g><g id="xtick_6"><use xlink:href="#m0ab98260f5" id="line2d_6" x="581.58" y="230.688" style="stroke:#000;stroke-width:.8"/><g id="text_6" transform="matrix(.1 0 0 -.1 572.036 245.286)"><defs><path id="DejaVuSans-35" d="M691 4666h2478v-532H1269V2991q137 47 274 70 138 23 276 23 781 0 1237-428 457-428 457-1159 0-753-469-1171Q2575-91 1722-91q-294 0-599 50Q819 9 494 109v635q281-153 581-228t634-75q541 0 856 284 316 284 316 772 0 487-316 771-315 285-856 285-253 0-505-56-251-56-513-175v2344z" transform="scale(.01563)"/></defs><use xlink:href="#DejaVuSans-35"/><use xlink:href="#DejaVuSans-30" x="63.623"/><use xlink:href="#DejaVuSans-30" x="127.246"/></g></g></g><g id="matplotlib.axis_2"><g id="ytick_1"><g id="line2d_7"><defs><path id="mda90077f9d" d="M0 0h-3.5" style="stroke:#000;stroke-width:.8"/></defs><use xlink:href="#mda90077f9d" x="82.62" y="230.688" style="stroke:#000;stroke-width:.8"/></g><use xlink:href="#DejaVuSans-30" id="text_7" transform="matrix(.1 0 0 -.1 69.257 234.487)"/></g><g id="ytick_2"><use xlink:href="#mda90077f9d" id="line2d_8" x="82.62" y="205.74" style="stroke:#000;stroke-width:.8"/><g id="text_8" transform="matrix(.1 0 0 -.1 62.895 209.54)"><use xlink:href="#DejaVuSans-32"/><use xlink:href="#DejaVuSans-35" x="63.623"/></g></g><g id="ytick_3"><use xlink:href="#mda90077f9d" id="line2d_9" x="82.62" y="180.792" style="stroke:#000;stroke-width:.8"/><g id="text_9" transform="matrix(.1 0 0 -.1 62.895 184.591)"><use xlink:href="#DejaVuSans-35"/><use xlink:href="#DejaVuSans-30" x="63.623"/></g></g><g id="ytick_4"><use xlink:href="#mda90077f9d" id="line2d_10" x="82.62" y="155.844" style="stroke:#000;stroke-width:.8"/><g id="text_10" transform="matrix(.1 0 0 -.1 62.895 159.643)"><defs><path id="DejaVuSans-37" d="M525 4666h3000v-269L1831 0h-659l1594 4134H525v532z" transform="scale(.01563)"/></defs><use xlink:href="#DejaVuSans-37"/><use xlink:href="#DejaVuSans-35" x="63.623"/></g></g><g id="ytick_5"><use xlink:href="#mda90077f9d" id="line2d_11" x="82.62" y="130.896" style="stroke:#000;stroke-width:.8"/><g id="text_11" transform="matrix(.1 0 0 -.1 56.532 134.695)"><use xlink:href="#DejaVuSans-31"/><use xlink:href="#DejaVuSans-30" x="63.623"/><use xlink:href="#DejaVuSans-30" x="127.246"/></g></g><g id="ytick_6"><use xlink:href="#mda90077f9d" id="line2d_12" x="82.62" y="105.948" style="stroke:#000;stroke-width:.8"/><g id="text_12" transform="matrix(.1 0 0 -.1 56.532 109.747)"><use xlink:href="#DejaVuSans-31"/><use xlink:href="#DejaVuSans-32" x="63.623"/><use xlink:href="#DejaVuSans-35" x="127.246"/></g></g><g id="ytick_7"><use xlink:href="#mda90077f9d" id="line2d_13" x="82.62" y="81" style="stroke:#000;stroke-width:.8"/><g id="text_13" transform="matrix(.1 0 0 -.1 56.532 84.8)"><use xlink:href="#DejaVuSans-31"/><use xlink:href="#DejaVuSans-35" x="63.623"/><use xlink:href="#DejaVuSans-30" x="127.246"/></g></g><g id="ytick_8"><use xlink:href="#mda90077f9d" id="line2d_14" x="82.62" y="56.052" style="stroke:#000;stroke-width:.8"/><g id="text_14" transform="matrix(.1 0 0 -.1 56.532 59.851)"><use xlink:href="#DejaVuSans-31"/><use xlink:href="#DejaVuSans-37" x="63.623"/><use xlink:href="#DejaVuSans-35" x="127.246"/></g></g><g id="ytick_9"><use xlink:href="#mda90077f9d" id="line2d_15" x="82.62" y="31.104" style="stroke:#000;stroke-width:.8"/><g id="text_15" transform="matrix(.1 0 0 -.1 56.532 34.903)"><use xlink:href="#DejaVuSans-32"/><use xlink:href="#DejaVuSans-30" x="63.623"/><use xlink:href="#DejaVuSans-30" x="127.246"/></g></g></g><path id="patch_452" d="M82.62 230.688V31.104" style="fill:none;stroke:#000;stroke-width:.8;stroke-linejoin:miter;stroke-linecap:square"/><path id="patch_453" d="M581.58 230.688V31.104" style="fill:none;stroke:#000;stroke-width:.8;stroke-linejoin:miter;stroke-linecap:square"/><path id="patch_454" d="M82.62 230.688h498.96" style="fill:none;stroke:#000;stroke-width:.8;stroke-linejoin:miter;stroke-linecap:square"/><path id="patch_455" d="M82.62 31.104h498.96" style="fill:none;stroke:#000;stroke-width:.8;stroke-linejoin:miter;stroke-linecap:square"/><g id="text_16" transform="matrix(.12 0 0 -.12 148.705 25.104)"><defs><path id="DejaVuSans-53" d="M3425 4513v-616q-359 172-678 256-319 85-616 85-515 0-795-200t-280-569q0-310 186-468 186-157 705-254l381-78q706-135 1042-474t336-907q0-679-455-1029Q2797-91 1919-91q-331 0-705 75-373 75-773 222v650q384-215 753-325 369-109 725-109 540 0 834 212 294 213 294 607 0 343-211 537t-692 291l-385 75q-706 140-1022 440-315 300-315 835 0 619 436 975t1201 356q329 0 669-60 341-59 697-177z" transform="scale(.01563)"/><path id="DejaVuSans-68" d="M3513 2113V0h-575v2094q0 497-194 743-194 247-581 247-466 0-735-297-269-296-269-809V0H581v4863h578V2956q207 316 486 472 280 156 646 156 603 0 912-373 310-373 310-1098z" transform="scale(.01563)"/><path id="DejaVuSans-65" d="M3597 1894v-281H953q38-594 358-905t892-311q331 0 642 81t618 244V178Q3153 47 2828-22t-659-69q-838 0-1327 487-489 488-489 1320 0 859 464 1363 464 505 1252 505 706 0 1117-455 411-454 411-1235zm-575 169q-6 471-264 752-258 282-683 282-481 0-770-272t-333-766l2050 4z" transform="scale(.01563)"/><path id="DejaVuSans-72" d="M2631 2963q-97 56-211 82-114 27-251 27-488 0-749-317t-261-911V0H581v3500h578v-544q182 319 472 473 291 155 707 155 59 0 131-8 72-7 159-23l3-590z" transform="scale(.01563)"/><path id="DejaVuSans-77" d="M269 3500h575l719-2731 715 2731h678l719-2731 716 2731h575L4050 0h-678l-753 2869L1863 0h-679L269 3500z" transform="scale(.01563)"/><path id="DejaVuSans-6f" d="M1959 3097q-462 0-731-361t-269-989q0-628 267-989 268-361 733-361 460 0 728 362 269 363 269 988 0 622-269 986-268 364-728 364zm0 487q750 0 1178-488 429-487 429-1349 0-859-429-1349Q2709-91 1959-91q-753 0-1180 489-426 490-426 1349 0 862 426 1349 427 488 1180 488z" transform="scale(.01563)"/><path id="DejaVuSans-64" d="M2906 2969v1894h575V0h-575v525q-181-312-458-464-276-152-664-152-634 0-1033 506-398 507-398 1332t398 1331q399 506 1033 506 388 0 664-152 277-151 458-463zM947 1747q0-634 261-995t717-361q456 0 718 361 263 361 263 995t-263 995q-262 361-718 361t-717-361q-261-361-261-995z" transform="scale(.01563)"/><path id="DejaVuSans-46" d="M628 4666h2681v-532H1259V2759h1850v-531H1259V0H628v4666z" transform="scale(.01563)"/><path id="DejaVuSans-73" d="M2834 3397v-544q-243 125-506 187-262 63-544 63-428 0-642-131t-214-394q0-200 153-314t616-217l197-44q612-131 870-370t258-667q0-488-386-773Q2250-91 1575-91q-281 0-586 55T347 128v594q319-166 628-249 309-82 613-82 406 0 624 139 219 139 219 392 0 234-158 359-157 125-692 241l-200 47q-534 112-772 345-237 233-237 639 0 494 350 762 350 269 994 269 318 0 599-47 282-46 519-140z" transform="scale(.01563)"/><path id="DejaVuSans-74" d="M1172 4494v-994h1184v-447H1172V1153q0-428 117-550t477-122h590V0h-590q-666 0-919 248-253 249-253 905v1900H172v447h422v994h578z" transform="scale(.01563)"/><path id="DejaVuSans-2c" d="M750 794h659V256L897-744H494L750 256v538z" transform="scale(.01563)"/><path id="DejaVuSans-62" d="M3116 1747q0 634-261 995t-717 361q-457 0-718-361t-261-995q0-634 261-995t718-361q456 0 717 361t261 995zM1159 2969q182 312 458 463 277 152 661 152 638 0 1036-506 399-506 399-1331T3314 415Q2916-91 2278-91q-384 0-661 152-276 152-458 464V0H581v4863h578V2969z" transform="scale(.01563)"/><path id="DejaVuSans-3d" d="M678 2906h4006v-525H678v525zm0-1275h4006v-531H678v531z" transform="scale(.01563)"/><path id="DejaVuSans-2e" d="M684 794h660V0H684v794z" transform="scale(.01563)"/><path id="DejaVuSans-36" d="M2113 2584q-425 0-674-291-248-290-248-796 0-503 248-796 249-292 674-292t673 292q248 293 248 796 0 506-248 796-248 291-673 291zm1253 1979v-575q-238 112-480 171-242 60-480 60-625 0-955-422-329-422-376-1275 184 272 462 417 279 145 613 145 703 0 1111-427 408-426 408-1160 0-719-425-1154Q2819-91 2113-91q-810 0-1238 620-428 621-428 1799 0 1106 525 1764t1409 658q238 0 480-47t505-140z" transform="scale(.01563)"/><path id="DejaVuSans-38" d="M2034 2216q-450 0-708-241-257-241-257-662 0-422 257-663 258-241 708-241t709 242q260 243 260 662 0 421-258 662-257 241-711 241zm-631 268q-406 100-633 378-226 279-226 679 0 559 398 884 399 325 1092 325 697 0 1094-325t397-884q0-400-227-679-226-278-629-378 456-106 710-416 255-309 255-755 0-679-414-1042Q2806-91 2034-91q-771 0-1186 362-414 363-414 1042 0 446 256 755 257 310 713 416zm-231 997q0-362 226-565 227-203 636-203 407 0 636 203 230 203 230 565 0 363-230 566-229 203-636 203-409 0-636-203-226-203-226-566z" transform="scale(.01563)"/><path id="DejaVuSans-61" d="M2194 1759q-697 0-966-159t-269-544q0-306 202-486 202-179 548-179 479 0 768 339t289 901v128h-572zm1147 238V0h-575v531q-197-318-491-470T1556-91q-537 0-855 302-317 302-317 808 0 590 395 890 396 300 1180 300h807v57q0 397-261 614t-733 217q-300 0-585-72-284-72-546-216v532q315 122 612 182 297 61 578 61 760 0 1135-394 375-393 375-1193z" transform="scale(.01563)"/><path id="DejaVuSans-39" d="M703 97v575q238-113 481-172 244-59 479-59 625 0 954 420 330 420 377 1277-181-269-460-413-278-144-615-144-700 0-1108 423-408 424-408 1159 0 718 425 1152 425 435 1131 435 810 0 1236-621 427-620 427-1801 0-1103-524-1761Q2575-91 1691-91q-238 0-482 47Q966 3 703 97zm1256 1978q425 0 673 290 249 291 249 798 0 503-249 795-248 292-673 292t-673-292q-248-292-248-795 0-507 248-798 248-290 673-290z" transform="scale(.01563)"/></defs><use xlink:href="#DejaVuSans-53"/><use xlink:href="#DejaVuSans-68" x="63.477"/><use xlink:href="#DejaVuSans-65" x="126.855"/><use xlink:href="#DejaVuSans-72" x="188.379"/><use xlink:href="#DejaVuSans-77" x="229.492"/><use xlink:href="#DejaVuSans-6f" x="311.279"/><use xlink:href="#DejaVuSans-6f" x="372.461"/><use xlink:href="#DejaVuSans-64" x="433.643"/><use xlink:href="#DejaVuSans-46" x="497.119"/><use xlink:href="#DejaVuSans-6f" x="551.014"/><use xlink:href="#DejaVuSans-72" x="612.195"/><use xlink:href="#DejaVuSans-65" x="651.059"/><use xlink:href="#DejaVuSans-73" x="712.582"/><use xlink:href="#DejaVuSans-74" x="764.682"/><use xlink:href="#DejaVuSans-2c" x="803.891"/><use xlink:href="#DejaVuSans-20" x="835.678"/><use xlink:href="#DejaVuSans-62" x="867.465"/><use xlink:href="#DejaVuSans-3d" x="930.941"/><use xlink:href="#DejaVuSans-30" x="1014.73"/><use xlink:href="#DejaVuSans-2e" x="1078.354"/><use xlink:href="#DejaVuSans-36" x="1110.141"/><use xlink:href="#DejaVuSans-38" x="1173.764"/><use xlink:href="#DejaVuSans-32" x="1237.387"/><use xlink:href="#DejaVuSans-30" x="1301.01"/><use xlink:href="#DejaVuSans-32" x="1364.633"/><use xlink:href="#DejaVuSans-37" x="1428.256"/><use xlink:href="#DejaVuSans-38" x="1491.879"/><use xlink:href="#DejaVuSans-2c" x="1555.502"/><use xlink:href="#DejaVuSans-20" x="1587.289"/><use xlink:href="#DejaVuSans-61" x="1619.076"/><use xlink:href="#DejaVuSans-3d" x="1680.355"/><use xlink:href="#DejaVuSans-30" x="1764.145"/><use xlink:href="#DejaVuSans-2e" x="1827.768"/><use xlink:href="#DejaVuSans-38" x="1859.555"/><use xlink:href="#DejaVuSans-35" x="1923.178"/><use xlink:href="#DejaVuSans-37" x="1986.801"/><use xlink:href="#DejaVuSans-31" x="2050.424"/><use xlink:href="#DejaVuSans-35" x="2114.047"/><use xlink:href="#DejaVuSans-32" x="2177.67"/><use xlink:href="#DejaVuSans-31" x="2241.293"/><use xlink:href="#DejaVuSans-2c" x="2304.916"/><use xlink:href="#DejaVuSans-20" x="2336.703"/><use xlink:href="#DejaVuSans-64" x="2368.49"/><use xlink:href="#DejaVuSans-3d" x="2431.967"/><use xlink:href="#DejaVuSans-30" x="2515.756"/><use xlink:href="#DejaVuSans-2e" x="2579.379"/><use xlink:href="#DejaVuSans-37" x="2611.166"/><use xlink:href="#DejaVuSans-39" x="2674.789"/><use xlink:href="#DejaVuSans-35" x="2738.412"/><use xlink:href="#DejaVuSans-36" x="2802.035"/><use xlink:href="#DejaVuSans-39" x="2865.658"/><use xlink:href="#DejaVuSans-30" x="2929.281"/><use xlink:href="#DejaVuSans-35" x="2992.904"/></g></g></g><defs><clipPath id="p22e46fee52"><path d="M82.62 31.104h498.96v199.584H82.62z"/></clipPath></defs></svg>