<svg xmlns="http://www.w3.org/2000/svg" xmlns:xlink="http://www.w3.org/1999/xlink" width="1710.72" height="1710.72" viewBox="0 0 1283.04 1283.04"><defs><style>*{stroke-linejoin:round;stroke-linecap:butt}</style></defs><g id="figure_1"><path id="patch_1" d="M0 1283.04h1283.04V0H0z" style="fill:#fff"/><g id="axes_1"><path id="patch_2" d="M163.588 1141.906h987.94V153.965h-987.94z" style="fill:#fff"/><path id="patch_3" d="M1051.736 353.549a99.797 99.797 0 0 0 70.564-29.229 99.797 99.797 0 0 0 29.228-70.563 99.797 99.797 0 0 0-29.228-70.564 99.797 99.797 0 0 0-70.564-29.228 99.797 99.797 0 0 0-70.563 29.228 99.797 99.797 0 0 0-29.229 70.564 99.797 99.797 0 0 0 29.229 70.563 99.797 99.797 0 0 0 70.563 29.229z" clip-path="url(#p00007101ab)" style="fill:#5e4fa2"/><path id="patch_4" d="M852.152 353.549a99.797 99.797 0 0 0 70.564-29.229 99.797 99.797 0 0 0 29.228-70.563 99.797 99.797 0 0 0-29.228-70.564 99.797 99.797 0 0 0-70.564-29.228 99.797 99.797 0 0 0-70.563 29.228 99.797 99.797 0 0 0-29.229 70.564 99.797 99.797 0 0 0 29.229 70.563 99.797 99.797 0 0 0 70.563 29.229z" clip-path="url(#p00007101ab)" style="fill:#5e4fa2"/><path id="patch_5" d="M262.382 351.553c26.2 0 51.331-10.41 69.858-28.936a98.799 98.799 0 0 0 28.936-69.858c0-26.2-10.41-51.332-28.936-69.858a98.799 98.799 0 0 0-69.858-28.936 98.799 98.799 0 0 0-69.858 28.936 98.799 98.799 0 0 0-28.936 69.858c0 26.2 10.41 51.331 28.936 69.858a98.799 98.799 0 0 0 69.858 28.936z" clip-path="url(#p00007101ab)" style="fill:#5b53a4"/><path id="patch_6" d="M1053.732 1141.906a97.8 97.8 0 0 0 69.153-28.644 97.8 97.8 0 0 0 28.643-69.153 97.8 97.8 0 0 0-28.643-69.152 97.8 97.8 0 0 0-69.153-28.644 97.8 97.8 0 0 0-69.152 28.644 97.8 97.8 0 0 0-28.644 69.152 97.8 97.8 0 0 0 28.644 69.153 97.8 97.8 0 0 0 69.152 28.644z" clip-path="url(#p00007101ab)" style="fill:#555aa7"/><path id="patch_7" d="M260.386 1141.906a96.803 96.803 0 0 0 68.447-28.352 96.803 96.803 0 0 0 28.351-68.447 96.803 96.803 0 0 0-28.351-68.446 96.803 96.803 0 0 0-68.447-28.352 96.803 96.803 0 0 0-68.447 28.352 96.803 96.803 0 0 0-28.351 68.446 96.803 96.803 0 0 0 28.351 68.447 96.803 96.803 0 0 0 68.447 28.352z" clip-path="url(#p00007101ab)" style="fill:#525fa9"/><path id="patch_8" d="M656.6 345.565a95.805 95.805 0 0 0 67.742-28.059 95.805 95.805 0 0 0 28.06-67.74 95.805 95.805 0 0 0-28.06-67.742 95.805 95.805 0 0 0-67.741-28.06 95.805 95.805 0 0 0-67.741 28.06 95.805 95.805 0 0 0-28.06 67.741 95.805 95.805 0 0 0 28.06 67.741 95.805 95.805 0 0 0 67.74 28.06z" clip-path="url(#p00007101ab)" style="fill:#4d65ad"/><path id="patch_9" d="M455.937 343.57a94.807 94.807 0 0 0 67.035-27.767 94.807 94.807 0 0 0 27.767-67.036 94.807 94.807 0 0 0-27.767-67.035 94.807 94.807 0 0 0-67.035-27.767 94.807 94.807 0 0 0-67.035 27.767 94.807 94.807 0 0 0-27.767 67.035 94.807 94.807 0 0 0 27.767 67.036 94.807 94.807 0 0 0 67.035 27.767z" clip-path="url(#p00007101ab)" style="fill:#496aaf"/><path id="patch_10" d="M1057.724 946.355a93.809 93.809 0 0 0 66.33-27.475 93.809 93.809 0 0 0 27.474-66.33 93.809 93.809 0 0 0-27.474-66.33 93.809 93.809 0 0 0-66.33-27.474 93.809 93.809 0 0 0-66.33 27.475 93.809 93.809 0 0 0-27.475 66.33 93.809 93.809 0 0 0 27.475 66.33 93.809 93.809 0 0 0 66.33 27.474z" clip-path="url(#p00007101ab)" style="fill:#4471b2"/><path id="patch_11" d="M256.394 537.073a92.81 92.81 0 0 0 65.624-27.183 92.81 92.81 0 0 0 27.183-65.624 92.81 92.81 0 0 0-27.183-65.624 92.81 92.81 0 0 0-65.624-27.183 92.81 92.81 0 0 0-65.624 27.183 92.81 92.81 0 0 0-27.182 65.624 92.81 92.81 0 0 0 27.182 65.624 92.81 92.81 0 0 0 65.624 27.183z" clip-path="url(#p00007101ab)" style="fill:#3f77b5"/><path id="patch_12" d="M1059.72 758.757a91.813 91.813 0 0 0 64.918-26.89 91.813 91.813 0 0 0 26.89-64.919 91.813 91.813 0 0 0-26.89-64.919 91.813 91.813 0 0 0-64.918-26.89 91.813 91.813 0 0 0-64.919 26.89 91.813 91.813 0 0 0-26.89 64.919 91.813 91.813 0 0 0 26.89 64.919 91.813 91.813 0 0 0 64.919 26.89z" clip-path="url(#p00007101ab)" style="fill:#3b7cb7"/><path id="patch_13" d="M1060.718 534.959a90.815 90.815 0 0 0 90.81-90.811 90.815 90.815 0 0 0-90.81-90.81 90.815 90.815 0 0 0-90.811 90.81 90.815 90.815 0 0 0 90.81 90.81z" clip-path="url(#p00007101ab)" style="fill:#3682ba"/><path id="patch_14" d="M749.296 402.85a45.906 45.906 0 0 0 45.905-45.904 45.906 45.906 0 0 0-45.905-45.904 45.906 45.906 0 0 0-45.904 45.904 45.906 45.906 0 0 0 45.904 45.904z" clip-path="url(#p00007101ab)" style="fill:#fff1a8"/><path id="patch_15" d="M364.214 399.056a44.908 44.908 0 0 0 44.906-44.907 44.908 44.908 0 0 0-44.906-44.906 44.908 44.908 0 0 0-44.907 44.906 44.908 44.908 0 0 0 44.907 44.907z" clip-path="url(#p00007101ab)" style="fill:#feeda1"/><path id="patch_16" d="M951.944 401.064a43.91 43.91 0 0 0 43.909-43.908 43.91 43.91 0 0 0-43.909-43.909 43.91 43.91 0 0 0-43.908 43.909 43.91 43.91 0 0 0 43.908 43.908z" clip-path="url(#p00007101ab)" style="fill:#feeb9d"/><path id="patch_17" d="M555.128 205.857a25.947 25.947 0 0 0 0-51.892 25.947 25.947 0 0 0 0 51.892z" clip-path="url(#p00007101ab)" style="fill:#f98e52"/><path id="patch_18" d="M951.944 203.86a24.95 24.95 0 0 0 0-49.895 24.95 24.95 0 0 0 0 49.896z" clip-path="url(#p00007101ab)" style="fill:#f88950"/><path id="patch_19" d="M359.667 201.865a23.951 23.951 0 1 0 0-47.902 23.951 23.951 0 0 0 0 47.902z" clip-path="url(#p00007101ab)" style="fill:#f7814c"/><path id="patch_20" d="M856.154 1141.906a99.797 99.797 0 0 0 70.564-29.229 99.797 99.797 0 0 0 29.228-70.563 99.797 99.797 0 0 0-29.228-70.564 99.797 99.797 0 0 0-70.564-29.228 99.797 99.797 0 0 0-70.563 29.228 99.797 99.797 0 0 0-29.229 70.564 99.797 99.797 0 0 0 29.229 70.563 99.797 99.797 0 0 0 70.563 29.229z" clip-path="url(#p00007101ab)" style="fill:#5e4fa2"/><path id="patch_21" d="M632.902 541.705c26.2 0 51.331-10.41 69.858-28.936a98.799 98.799 0 0 0 28.936-69.858c0-26.2-10.41-51.331-28.936-69.858a98.799 98.799 0 0 0-69.858-28.936 98.799 98.799 0 0 0-69.858 28.936 98.799 98.799 0 0 0-28.936 69.858c0 26.2 10.41 51.331 28.936 69.858a98.799 98.799 0 0 0 69.858 28.936z" clip-path="url(#p00007101ab)" style="fill:#5b53a4"/><path id="patch_22" d="M658.576 1141.906a97.8 97.8 0 0 0 69.152-28.644 97.8 97.8 0 0 0 28.644-69.153 97.8 97.8 0 0 0-28.644-69.152 97.8 97.8 0 0 0-69.152-28.644 97.8 97.8 0 0 0-69.152 28.644 97.8 97.8 0 0 0-28.644 69.152 97.8 97.8 0 0 0 28.644 69.153 97.8 97.8 0 0 0 69.152 28.644z" clip-path="url(#p00007101ab)" style="fill:#555aa7"/><path id="patch_23" d="M260.386 948.31a96.803 96.803 0 0 0 68.447-28.352 96.803 96.803 0 0 0 28.351-68.447 96.803 96.803 0 0 0-28.351-68.447 96.803 96.803 0 0 0-68.447-28.351 96.803 96.803 0 0 0-68.447 28.351 96.803 96.803 0 0 0-28.351 68.447 96.803 96.803 0 0 0 28.351 68.447 96.803 96.803 0 0 0 68.447 28.351z" clip-path="url(#p00007101ab)" style="fill:#525fa9"/><path id="patch_24" d="M464.99 1141.906a95.805 95.805 0 0 0 67.74-28.06 95.805 95.805 0 0 0 28.06-67.74 95.805 95.805 0 0 0-28.06-67.742 95.805 95.805 0 0 0-67.74-28.059 95.805 95.805 0 0 0-67.741 28.06 95.805 95.805 0 0 0-28.06 67.74 95.805 95.805 0 0 0 28.06 67.741 95.805 95.805 0 0 0 67.74 28.06z" clip-path="url(#p00007101ab)" style="fill:#4d65ad"/><path id="patch_25" d="M258.39 754.723a94.807 94.807 0 0 0 67.035-27.767 94.807 94.807 0 0 0 27.767-67.035 94.807 94.807 0 0 0-27.767-67.036 94.807 94.807 0 0 0-67.035-27.767 94.807 94.807 0 0 0-67.035 27.767 94.807 94.807 0 0 0-27.767 67.036 94.807 94.807 0 0 0 27.767 67.035 94.807 94.807 0 0 0 67.035 27.767z" clip-path="url(#p00007101ab)" style="fill:#496aaf"/><path id="patch_26" d="M1128.576 782.701a22.953 22.953 0 1 0 0-45.906 22.953 22.953 0 0 0 0 45.906z" clip-path="url(#p00007101ab)" style="fill:#f67a49"/><path id="patch_27" d="M185.542 781.267a21.955 21.955 0 1 0-.001-43.91 21.955 21.955 0 0 0 0 43.91z" clip-path="url(#p00007101ab)" style="fill:#f57547"/><path id="patch_28" d="M1130.572 962.181a20.957 20.957 0 1 0 0-41.914 20.957 20.957 0 0 0 0 41.914z" clip-path="url(#p00007101ab)" style="fill:#f46d43"/><path id="patch_29" d="M183.546 361.527a19.96 19.96 0 1 0 0-39.92 19.96 19.96 0 0 0 0 39.92z" clip-path="url(#p00007101ab)" style="fill:#f26944"/><path id="patch_30" d="M1132.568 359.714a18.961 18.961 0 1 0 0-37.923 18.961 18.961 0 0 0 0 37.923z" clip-path="url(#p00007101ab)" style="fill:#ee6445"/><path id="patch_31" d="M940.83 1141.906a17.963 17.963 0 1 0 0-35.927 17.963 17.963 0 0 0 0 35.927z" clip-path="url(#p00007101ab)" style="fill:#ea5e47"/><path id="patch_32" d="M828.088 579.291a99.797 99.797 0 0 0 70.564-29.228 99.797 99.797 0 0 0 29.228-70.564 99.797 99.797 0 0 0-29.228-70.564 99.797 99.797 0 0 0-70.564-29.228 99.797 99.797 0 0 0-70.563 29.228 99.797 99.797 0 0 0-29.229 70.564 99.797 99.797 0 0 0 29.229 70.564 99.797 99.797 0 0 0 70.563 29.228z" clip-path="url(#p00007101ab)" style="fill:#5e4fa2"/><path id="patch_33" d="M1134.564 187.894a16.965 16.965 0 1 0 0-33.93 16.965 16.965 0 0 0 0 33.93z" clip-path="url(#p00007101ab)" style="fill:#e85b48"/><path id="patch_34" d="M179.554 1141.906a15.967 15.967 0 1 0 0-31.935 15.967 15.967 0 0 0 0 31.935z" clip-path="url(#p00007101ab)" style="fill:#e45549"/><path id="patch_35" d="M1136.56 1141.906a14.97 14.97 0 1 0-.001-29.94 14.97 14.97 0 0 0 0 29.94z" clip-path="url(#p00007101ab)" style="fill:#e2514a"/><path id="patch_36" d="M557.992 973.83a99.797 99.797 0 0 0 70.564-29.228 99.797 99.797 0 0 0 29.228-70.563 99.797 99.797 0 0 0-29.228-70.564 99.797 99.797 0 0 0-70.564-29.228 99.797 99.797 0 0 0-70.563 29.228A99.797 99.797 0 0 0 458.2 874.04a99.797 99.797 0 0 0 29.229 70.563 99.797 99.797 0 0 0 70.563 29.229z" clip-path="url(#p00007101ab)" style="fill:#5e4fa2"/><path id="patch_37" d="M194.523 582.546a30.937 30.937 0 0 0 21.875-52.81 30.937 30.937 0 0 0-52.81 21.875 30.937 30.937 0 0 0 30.935 30.935z" clip-path="url(#p00007101ab)" style="fill:#fdaf62"/><path id="patch_38" d="M1121.59 592.033a29.939 29.939 0 0 0 21.17-51.107 29.939 29.939 0 0 0-51.107 21.17 29.939 29.939 0 0 0 29.938 29.937z" clip-path="url(#p00007101ab)" style="fill:#fca85e"/><path id="patch_39" d="M565.166 363.556a28.941 28.941 0 0 0 20.463-49.403 28.941 28.941 0 0 0-49.403 20.463 28.941 28.941 0 0 0 28.94 28.94z" clip-path="url(#p00007101ab)" style="fill:#fba35c"/><path id="patch_40" d="M977.493 972.063a27.943 27.943 0 0 0 19.758-47.7 27.943 27.943 0 0 0-47.7 19.758 27.943 27.943 0 0 0 27.942 27.942z" clip-path="url(#p00007101ab)" style="fill:#fa9b58"/><path id="patch_41" d="M363.378 1141.906a26.945 26.945 0 0 0 19.052-45.996 26.945 26.945 0 0 0-45.996 19.052 26.945 26.945 0 0 0 26.944 26.944z" clip-path="url(#p00007101ab)" style="fill:#fa9656"/><path id="patch_42" d="M555.61 306.754a13.972 13.972 0 1 0 0-27.943 13.972 13.972 0 0 0 0 27.943z" clip-path="url(#p00007101ab)" style="fill:#de4c4b"/><path id="patch_43" d="M1138.555 385.093a12.974 12.974 0 1 0 0-25.947 12.974 12.974 0 0 0 0 25.947z" clip-path="url(#p00007101ab)" style="fill:#dc484c"/><path id="patch_44" d="M697.72 730.413a99.797 99.797 0 0 0 70.563-29.228 99.797 99.797 0 0 0 29.229-70.564 99.797 99.797 0 0 0-29.229-70.564 99.797 99.797 0 0 0-70.563-29.228 99.797 99.797 0 0 0-70.564 29.228 99.797 99.797 0 0 0-29.228 70.564 99.797 99.797 0 0 0 29.228 70.564 99.797 99.797 0 0 0 70.564 29.228z" clip-path="url(#p00007101ab)" style="fill:#5e4fa2"/><path id="patch_45" d="M891.14 854.68c26.2 0 51.331-10.409 69.858-28.935a98.799 98.799 0 0 0 28.936-69.858c0-26.2-10.41-51.332-28.936-69.858a98.799 98.799 0 0 0-69.858-28.936 98.799 98.799 0 0 0-69.858 28.936 98.799 98.799 0 0 0-28.937 69.858 98.799 98.799 0 0 0 98.794 98.794z" clip-path="url(#p00007101ab)" style="fill:#5b53a4"/><path id="patch_46" d="M504.064 689.195a97.8 97.8 0 0 0 69.152-28.644 97.8 97.8 0 0 0 28.644-69.153 97.8 97.8 0 0 0-28.644-69.152 97.8 97.8 0 0 0-69.152-28.644 97.8 97.8 0 0 0-69.152 28.644 97.8 97.8 0 0 0-28.644 69.152 97.8 97.8 0 0 0 28.644 69.153 97.8 97.8 0 0 0 69.152 28.644z" clip-path="url(#p00007101ab)" style="fill:#555aa7"/><path id="patch_47" d="M726.792 960.82a69.858 69.858 0 0 0 69.855-69.855 69.858 69.858 0 0 0-69.855-69.854 69.858 69.858 0 0 0-69.854 69.854 69.858 69.858 0 0 0 69.854 69.854z" clip-path="url(#p00007101ab)" style="fill:#acdda4"/><path id="patch_48" d="M461.983 481.17a68.86 68.86 0 0 0 68.857-68.856 68.86 68.86 0 0 0-68.857-68.856 68.86 68.86 0 0 0-68.856 68.856 68.86 68.86 0 0 0 68.856 68.857z" clip-path="url(#p00007101ab)" style="fill:#b3e0a2"/><path id="patch_49" d="M758.378 1141.906a23.951 23.951 0 1 0 0-47.903 23.951 23.951 0 0 0 0 47.903z" clip-path="url(#p00007101ab)" style="fill:#f7814c"/><path id="patch_50" d="M1139.553 611.939a11.976 11.976 0 1 0 0-23.952 11.976 11.976 0 0 0 0 23.952z" clip-path="url(#p00007101ab)" style="fill:#d8434e"/><path id="patch_51" d="M918.847 175.919a10.978 10.978 0 1 0 0-21.955 10.978 10.978 0 0 0 0 21.955z" clip-path="url(#p00007101ab)" style="fill:#d43d4f"/><path id="patch_52" d="M370.656 444.654a22.953 22.953 0 1 0-.001-45.907 22.953 22.953 0 0 0 0 45.907z" clip-path="url(#p00007101ab)" style="fill:#f67a49"/><path id="patch_53" d="M887.404 392.242a21.955 21.955 0 1 0 0-43.91 21.955 21.955 0 0 0 0 43.91z" clip-path="url(#p00007101ab)" style="fill:#f57547"/><path id="patch_54" d="M328.748 173.923a9.98 9.98 0 1 0 0-19.96 9.98 9.98 0 0 0 0 19.96z" clip-path="url(#p00007101ab)" style="fill:#d0384e"/><path id="patch_55" d="M1142.547 323.636a8.982 8.982 0 1 0 0-17.964 8.982 8.982 0 0 0 0 17.964z" clip-path="url(#p00007101ab)" style="fill:#c9314c"/><path id="patch_56" d="M755.5 997.196a19.96 19.96 0 1 0 0-39.919 19.96 19.96 0 0 0 0 39.919z" clip-path="url(#p00007101ab)" style="fill:#f26944"/><path id="patch_57" d="M517.61 363.323a18.961 18.961 0 1 0 0-37.923 18.961 18.961 0 0 0 0 37.923z" clip-path="url(#p00007101ab)" style="fill:#ee6445"/><path id="patch_58" d="M521.207 494.879a17.963 17.963 0 1 0 0-35.927 17.963 17.963 0 0 0 0 35.927z" clip-path="url(#p00007101ab)" style="fill:#ea5e47"/><path id="patch_59" d="M202.135 1141.906a7.984 7.984 0 1 0 0-15.968 7.984 7.984 0 0 0 0 15.968z" clip-path="url(#p00007101ab)" style="fill:#c52c4b"/><path id="patch_60" d="M577.915 764.89a47.902 47.902 0 0 0 47.9-47.9 47.902 47.902 0 0 0-47.9-47.9 47.902 47.902 0 0 0-47.9 47.9 47.902 47.902 0 0 0 47.9 47.9z" clip-path="url(#p00007101ab)" style="fill:#fff7b2"/><path id="patch_61" d="M834.763 654.971a37.923 37.923 0 0 0 37.92-37.92 37.923 37.923 0 0 0-64.735-26.815 37.923 37.923 0 0 0 0 53.628 37.923 37.923 0 0 0 26.815 11.107z" clip-path="url(#p00007101ab)" style="fill:#fed27f"/><path id="patch_62" d="M381.228 517.559a36.925 36.925 0 0 0 26.108-63.032 36.925 36.925 0 0 0-63.031 26.109 36.925 36.925 0 0 0 36.923 36.923z" clip-path="url(#p00007101ab)" style="fill:#fece7c"/><path id="patch_63" d="M937.617 665.364a35.927 35.927 0 0 0 25.403-61.328 35.927 35.927 0 0 0-61.328 25.403 35.927 35.927 0 0 0 35.925 35.925z" clip-path="url(#p00007101ab)" style="fill:#fec877"/><path id="patch_64" d="M811.78 380.852a16.965 16.965 0 1 0 0-33.931 16.965 16.965 0 0 0 0 33.93z" clip-path="url(#p00007101ab)" style="fill:#e85b48"/><path id="patch_65" d="M1144.543 398.145a6.986 6.986 0 1 0 0-13.971 6.986 6.986 0 0 0 0 13.971z" clip-path="url(#p00007101ab)" style="fill:#be254a"/><path id="patch_66" d="M560.79 1141.906a23.951 23.951 0 1 0 0-47.903 23.951 23.951 0 0 0 0 47.903z" clip-path="url(#p00007101ab)" style="fill:#f7814c"/><path id="patch_67" d="M179.554 185.898a15.967 15.967 0 1 0 0-31.935 15.967 15.967 0 0 0 0 31.935z" clip-path="url(#p00007101ab)" style="fill:#e45549"/><path id="patch_68" d="M1136.56 534.726a14.97 14.97 0 1 0-.001-29.94 14.97 14.97 0 0 0 0 29.94z" clip-path="url(#p00007101ab)" style="fill:#e2514a"/><path id="patch_69" d="M901.04 165.94a5.988 5.988 0 1 0 0-11.976 5.988 5.988 0 0 0 0 11.976z" clip-path="url(#p00007101ab)" style="fill:#b81e48"/><path id="patch_70" d="M214.757 1141.906a4.99 4.99 0 1 0 0-9.98 4.99 4.99 0 0 0 0 9.98z" clip-path="url(#p00007101ab)" style="fill:#b41947"/><path id="patch_71" d="M405.734 962.358a55.886 55.886 0 0 0 55.883-55.883 55.886 55.886 0 0 0-55.883-55.884 55.886 55.886 0 0 0-55.884 55.884 55.886 55.886 0 0 0 55.884 55.883z" clip-path="url(#p00007101ab)" style="fill:#f1f9a9"/><path id="patch_72" d="M810.302 687.364a18.961 18.961 0 1 0-.001-37.923 18.961 18.961 0 0 0 0 37.923z" clip-path="url(#p00007101ab)" style="fill:#ee6445"/><path id="patch_73" d="M434.306 512.566a17.963 17.963 0 1 0 0-35.927 17.963 17.963 0 0 0 0 35.927z" clip-path="url(#p00007101ab)" style="fill:#ea5e47"/><path id="patch_74" d="M1139.553 984.883a11.976 11.976 0 1 0 0-23.951 11.976 11.976 0 0 0 0 23.951z" clip-path="url(#p00007101ab)" style="fill:#d8434e"/><path id="patch_75" d="M640.873 749.568a16.965 16.965 0 1 0-.001-33.93 16.965 16.965 0 0 0 0 33.93z" clip-path="url(#p00007101ab)" style="fill:#e85b48"/><path id="patch_76" d="M985.042 175.919a10.978 10.978 0 1 0 0-21.955 10.978 10.978 0 0 0 0 21.955z" clip-path="url(#p00007101ab)" style="fill:#d43d4f"/><path id="patch_77" d="M1147.537 590.128a3.992 3.992 0 1 0 0-7.984 3.992 3.992 0 0 0 0 7.984z" clip-path="url(#p00007101ab)" style="fill:#ad1246"/><path id="patch_78" d="M756.435 199.87a22.953 22.953 0 1 0 0-45.907 22.953 22.953 0 0 0 0 45.906z" clip-path="url(#p00007101ab)" style="fill:#f67a49"/><path id="patch_79" d="M625.333 790.24a21.955 21.955 0 1 0-.001-43.91 21.955 21.955 0 0 0 0 43.91z" clip-path="url(#p00007101ab)" style="fill:#f57547"/><path id="patch_80" d="M974.701 1141.906a15.967 15.967 0 1 0 0-31.935 15.967 15.967 0 0 0 0 31.935z" clip-path="url(#p00007101ab)" style="fill:#e45549"/><path id="patch_81" d="M390.587 173.923a9.98 9.98 0 1 0 0-19.96 9.98 9.98 0 0 0 0 19.96z" clip-path="url(#p00007101ab)" style="fill:#d0384e"/><path id="patch_82" d="M680.014 796.48a32.933 32.933 0 0 0 23.286-56.217 32.933 32.933 0 0 0-56.218 23.286 32.933 32.933 0 0 0 32.932 32.931z" clip-path="url(#p00007101ab)" style="fill:#fdb96a"/><path id="patch_83" d="M184.544 962.546a20.957 20.957 0 1 0 0-41.915 20.957 20.957 0 0 0 0 41.915z" clip-path="url(#p00007101ab)" style="fill:#f46d43"/><path id="patch_84" d="M414.213 535.664a14.97 14.97 0 1 0 0-29.94 14.97 14.97 0 0 0 0 29.94z" clip-path="url(#p00007101ab)" style="fill:#e2514a"/><path id="patch_85" d="M1142.547 919.583a8.982 8.982 0 1 0 0-17.964 8.982 8.982 0 0 0 0 17.964z" clip-path="url(#p00007101ab)" style="fill:#c9314c"/><path id="patch_86" d="M440.09 858.256a24.95 24.95 0 0 0 0-49.896 24.95 24.95 0 0 0 0 49.896z" clip-path="url(#p00007101ab)" style="fill:#f88950"/><path id="patch_87" d="M1072.085 575.825a19.96 19.96 0 1 0 0-39.918 19.96 19.96 0 0 0 0 39.918z" clip-path="url(#p00007101ab)" style="fill:#f26944"/><path id="patch_88" d="M781.9 969.896a13.972 13.972 0 1 0 0-27.943 13.972 13.972 0 0 0 0 27.943z" clip-path="url(#p00007101ab)" style="fill:#de4c4b"/><path id="patch_89" d="M969.229 159.952a2.994 2.994 0 1 0 0-5.987 2.994 2.994 0 0 0 0 5.987z" clip-path="url(#p00007101ab)" style="fill:#a90d45"/><path id="patch_90" d="M332.568 972.26a23.951 23.951 0 1 0-.001-47.903 23.951 23.951 0 0 0 .001 47.902z" clip-path="url(#p00007101ab)" style="fill:#f7814c"/><path id="patch_91" d="M806.632 953.14a18.961 18.961 0 1 0-.001-37.922 18.961 18.961 0 0 0 0 37.922z" clip-path="url(#p00007101ab)" style="fill:#ee6445"/><path id="patch_92" d="M176.56 386.723a12.974 12.974 0 1 0 0-25.947 12.974 12.974 0 0 0 0 25.947z" clip-path="url(#p00007101ab)" style="fill:#dc484c"/><path id="patch_93" d="M171.571 1111.342a7.984 7.984 0 1 0 0-15.968 7.984 7.984 0 0 0 0 15.968z" clip-path="url(#p00007101ab)" style="fill:#c52c4b"/><path id="patch_94" d="M885.844 657.214a16.965 16.965 0 1 0 0-33.931 16.965 16.965 0 0 0 0 33.93z" clip-path="url(#p00007101ab)" style="fill:#e85b48"/><path id="patch_95" d="M392.045 820.488a67.862 67.862 0 0 0 67.859-67.859 67.862 67.862 0 0 0-67.859-67.859 67.862 67.862 0 0 0-67.858 67.859 67.862 67.862 0 0 0 67.858 67.859z" clip-path="url(#p00007101ab)" style="fill:#b8e2a1"/><path id="patch_96" d="M175.563 985.247a11.976 11.976 0 1 0 0-23.95 11.976 11.976 0 0 0 0 23.95z" clip-path="url(#p00007101ab)" style="fill:#d8434e"/><path id="patch_97" d="M1144.543 998.186a6.986 6.986 0 1 0 0-13.972 6.986 6.986 0 0 0 0 13.972z" clip-path="url(#p00007101ab)" style="fill:#be254a"/><path id="patch_98" d="M376.078 585.23a33.93 33.93 0 0 0 23.992-57.92 33.93 33.93 0 0 0-57.921 23.99 33.93 33.93 0 0 0 33.93 33.93z" clip-path="url(#p00007101ab)" style="fill:#fdbf6f"/><path id="patch_99" d="M936.309 906.371a29.939 29.939 0 0 0 21.169-51.106 29.939 29.939 0 0 0-51.107 21.169 29.939 29.939 0 0 0 29.938 29.937z" clip-path="url(#p00007101ab)" style="fill:#fca85e"/><path id="patch_100" d="M956.692 1000.703a15.967 15.967 0 1 0 0-31.935 15.967 15.967 0 0 0 0 31.935z" clip-path="url(#p00007101ab)" style="fill:#e45549"/><path id="patch_101" d="M588.881 175.919a10.978 10.978 0 1 0 0-21.955 10.978 10.978 0 0 0 0 21.955z" clip-path="url(#p00007101ab)" style="fill:#d43d4f"/><path id="patch_102" d="M1149.533 1141.906a1.996 1.996 0 1 0 0-3.992 1.996 1.996 0 0 0 0 3.992z" clip-path="url(#p00007101ab)" style="fill:#a20643"/><path id="patch_103" d="M1001.256 165.94a5.988 5.988 0 1 0 0-11.976 5.988 5.988 0 0 0 0 11.976z" clip-path="url(#p00007101ab)" style="fill:#b81e48"/><path id="patch_104" d="M1003.9 770.772a13.972 13.972 0 1 0 0-27.943 13.972 13.972 0 0 0 0 27.943z" clip-path="url(#p00007101ab)" style="fill:#de4c4b"/><path id="patch_105" d="M793.04 1141.906a9.98 9.98 0 1 0 0-19.96 9.98 9.98 0 0 0 0 19.96z" clip-path="url(#p00007101ab)" style="fill:#d0384e"/><path id="patch_106" d="M172.569 923.132a8.982 8.982 0 1 0 0-17.963 8.982 8.982 0 0 0 0 17.963z" clip-path="url(#p00007101ab)" style="fill:#c9314c"/><path id="patch_107" d="M865.955 938.246a42.913 42.913 0 0 0 42.91-42.91 42.913 42.913 0 0 0-42.91-42.911 42.913 42.913 0 0 0-42.91 42.91 42.913 42.913 0 0 0 42.91 42.911z" clip-path="url(#p00007101ab)" style="fill:#fee797"/><path id="patch_108" d="M495.37 758.764a34.929 34.929 0 0 0 24.698-59.625 34.929 34.929 0 0 0-59.624 24.698 34.929 34.929 0 0 0 34.927 34.927z" clip-path="url(#p00007101ab)" style="fill:#fdc372"/><path id="patch_109" d="M1146.539 900.809a4.99 4.99 0 1 0 0-9.98 4.99 4.99 0 0 0 0 9.98z" clip-path="url(#p00007101ab)" style="fill:#b41947"/><path id="patch_110" d="M175.563 604.508a11.976 11.976 0 1 0 0-23.95 11.976 11.976 0 0 0 0 23.95z" clip-path="url(#p00007101ab)" style="fill:#d8434e"/><path id="patch_111" d="M961.924 155.96a.998.998 0 1 0 0-1.995.998.998 0 0 0 0 1.996z" clip-path="url(#p00007101ab)" style="fill:#9e0142"/><path id="patch_112" d="M400.253 850.804a14.97 14.97 0 1 0 0-29.94 14.97 14.97 0 0 0 0 29.94z" clip-path="url(#p00007101ab)" style="fill:#e2514a"/><path id="patch_113" d="M202.135 169.932a7.984 7.984 0 1 0 0-15.968 7.984 7.984 0 0 0 0 15.968z" clip-path="url(#p00007101ab)" style="fill:#c52c4b"/><path id="patch_114" d="M851.586 381.49a13.972 13.972 0 1 0 0-27.944 13.972 13.972 0 0 0 0 27.943z" clip-path="url(#p00007101ab)" style="fill:#de4c4b"/><path id="patch_115" d="M521.376 175.919a10.978 10.978 0 1 0 0-21.955 10.978 10.978 0 0 0 0 21.955z" clip-path="url(#p00007101ab)" style="fill:#d43d4f"/><path id="patch_116" d="M1147.537 1005.753a3.992 3.992 0 1 0 0-7.984 3.992 3.992 0 0 0 0 7.984z" clip-path="url(#p00007101ab)" style="fill:#ad1246"/><path id="patch_117" d="M654.784 944.867a12.974 12.974 0 1 0 0-25.947 12.974 12.974 0 0 0 0 25.947z" clip-path="url(#p00007101ab)" style="fill:#dc484c"/><path id="patch_118" d="M1141.55 801.338a9.98 9.98 0 1 0-.001-19.959 9.98 9.98 0 0 0 0 19.96z" clip-path="url(#p00007101ab)" style="fill:#d0384e"/><path id="patch_119" d="M170.573 998.55a6.986 6.986 0 1 0 0-13.972 6.986 6.986 0 0 0 0 13.972z" clip-path="url(#p00007101ab)" style="fill:#be254a"/><path id="patch_120" d="M663.97 850.506a11.976 11.976 0 1 0-.001-23.951 11.976 11.976 0 0 0 0 23.951z" clip-path="url(#p00007101ab)" style="fill:#d8434e"/><path id="patch_121" d="M172.569 323.772a8.982 8.982 0 1 0 0-17.963 8.982 8.982 0 0 0 0 17.963z" clip-path="url(#p00007101ab)" style="fill:#c9314c"/><path id="patch_122" d="M1145.54 622.886a5.988 5.988 0 1 0 0-11.975 5.988 5.988 0 0 0 0 11.975z" clip-path="url(#p00007101ab)" style="fill:#b81e48"/><path id="patch_123" d="M934.66 159.952a2.994 2.994 0 1 0 0-5.987 2.994 2.994 0 0 0 0 5.987z" clip-path="url(#p00007101ab)" style="fill:#a90d45"/><path id="patch_124" d="M813.522 877.207a24.95 24.95 0 0 0 0-49.896 24.95 24.95 0 0 0 0 49.896z" clip-path="url(#p00007101ab)" style="fill:#f88950"/><path id="patch_125" d="M370.475 997.823a21.955 21.955 0 1 0 0-43.91 21.955 21.955 0 0 0 0 43.91z" clip-path="url(#p00007101ab)" style="fill:#f57547"/><path id="patch_126" d="M369.282 845.2a13.972 13.972 0 1 0 0-27.944 13.972 13.972 0 0 0 0 27.943z" clip-path="url(#p00007101ab)" style="fill:#de4c4b"/><path id="patch_127" d="M724.105 1141.906a10.978 10.978 0 1 0 0-21.956 10.978 10.978 0 0 0 0 21.956z" clip-path="url(#p00007101ab)" style="fill:#d43d4f"/><path id="patch_128" d="M655.635 827.828a15.967 15.967 0 1 0 0-31.935 15.967 15.967 0 0 0 0 31.935z" clip-path="url(#p00007101ab)" style="fill:#e45549"/><path id="patch_129" d="M171.571 200.495a7.984 7.984 0 1 0 0-15.967 7.984 7.984 0 0 0 0 15.967z" clip-path="url(#p00007101ab)" style="fill:#c52c4b"/><path id="patch_130" d="M924.785 957.062a25.947 25.947 0 0 0 0-51.892 25.947 25.947 0 0 0 0 51.892z" clip-path="url(#p00007101ab)" style="fill:#f98e52"/><path id="patch_131" d="M310.887 767.02a12.974 12.974 0 1 0 0-25.948 12.974 12.974 0 0 0 0 25.947z" clip-path="url(#p00007101ab)" style="fill:#dc484c"/><path id="patch_132" d="M890.313 612.559a24.95 24.95 0 0 0 0-49.896 24.95 24.95 0 0 0 0 49.896z" clip-path="url(#p00007101ab)" style="fill:#f88950"/><path id="patch_133" d="M1029.177 579.278a22.953 22.953 0 1 0-.001-45.906 22.953 22.953 0 0 0 0 45.906z" clip-path="url(#p00007101ab)" style="fill:#f67a49"/><path id="patch_134" d="M560.055 1004.22a14.97 14.97 0 1 0 0-29.94 14.97 14.97 0 0 0 0 29.94z" clip-path="url(#p00007101ab)" style="fill:#e2514a"/><path id="patch_135" d="M789.038 173.923a9.98 9.98 0 1 0 0-19.96 9.98 9.98 0 0 0 0 19.96z" clip-path="url(#p00007101ab)" style="fill:#d0384e"/><path id="patch_136" d="M1146.539 810.461a4.99 4.99 0 1 0 0-9.98 4.99 4.99 0 0 0 0 9.98z" clip-path="url(#p00007101ab)" style="fill:#b41947"/><path id="patch_137" d="M466.576 950.317a11.976 11.976 0 1 0 0-23.952 11.976 11.976 0 0 0 0 23.952z" clip-path="url(#p00007101ab)" style="fill:#d8434e"/><path id="patch_138" d="M1144.543 506.291a6.986 6.986 0 1 0 0-13.971 6.986 6.986 0 0 0 0 13.971z" clip-path="url(#p00007101ab)" style="fill:#be254a"/><path id="patch_139" d="M721.545 533.352a13.972 13.972 0 1 0 0-27.943 13.972 13.972 0 0 0 0 27.943z" clip-path="url(#p00007101ab)" style="fill:#de4c4b"/><path id="patch_140" d="M944.852 593.297a38.92 38.92 0 0 0 38.92-38.919 38.92 38.92 0 0 0-38.92-38.919 38.92 38.92 0 0 0-38.919 38.92 38.92 38.92 0 0 0 38.92 38.918z" clip-path="url(#p00007101ab)" style="fill:#fed884"/><path id="patch_141" d="M1113.006 1141.906a8.982 8.982 0 1 0 0-17.964 8.982 8.982 0 0 0 0 17.964z" clip-path="url(#p00007101ab)" style="fill:#c9314c"/><path id="patch_142" d="M1149.533 157.956a1.996 1.996 0 1 0 0-3.991 1.996 1.996 0 0 0 0 3.991z" clip-path="url(#p00007101ab)" style="fill:#a20643"/><path id="patch_143" d="M400.133 1141.906a10.978 10.978 0 1 0 0-21.956 10.978 10.978 0 0 0 0 21.956z" clip-path="url(#p00007101ab)" style="fill:#d43d4f"/><path id="patch_144" d="M977.903 613.306a14.97 14.97 0 1 0 0-29.939 14.97 14.97 0 0 0 0 29.94z" clip-path="url(#p00007101ab)" style="fill:#e2514a"/><path id="patch_145" d="M955.544 1108.355a12.974 12.974 0 1 0 0-25.947 12.974 12.974 0 0 0 0 25.947z" clip-path="url(#p00007101ab)" style="fill:#dc484c"/><path id="patch_146" d="M575.482 161.948a3.992 3.992 0 1 0 0-7.984 3.992 3.992 0 0 0 0 7.984z" clip-path="url(#p00007101ab)" style="fill:#ad1246"/><path id="patch_147" d="M417.09 1141.906a5.988 5.988 0 1 0 0-11.976 5.988 5.988 0 0 0 0 11.976z" clip-path="url(#p00007101ab)" style="fill:#b81e48"/><path id="patch_148" d="M596.096 1141.906a9.98 9.98 0 1 0 0-19.96 9.98 9.98 0 0 0 0 19.96z" clip-path="url(#p00007101ab)" style="fill:#d0384e"/><path id="patch_149" d="M912.605 1141.906a7.984 7.984 0 1 0 0-15.968 7.984 7.984 0 0 0 0 15.968z" clip-path="url(#p00007101ab)" style="fill:#c52c4b"/><path id="patch_150" d="M1000.351 593.37a13.972 13.972 0 1 0 0-27.942 13.972 13.972 0 0 0 0 27.943z" clip-path="url(#p00007101ab)" style="fill:#de4c4b"/><path id="patch_151" d="M175.563 525.091a11.976 11.976 0 1 0 0-23.95 11.976 11.976 0 0 0 0 23.95z" clip-path="url(#p00007101ab)" style="fill:#d8434e"/><path id="patch_152" d="M724.69 175.919a10.978 10.978 0 1 0 0-21.955 10.978 10.978 0 0 0 0 21.955z" clip-path="url(#p00007101ab)" style="fill:#d43d4f"/><path id="patch_153" d="M1142.547 1112.364a8.982 8.982 0 1 0 0-17.963 8.982 8.982 0 0 0 0 17.963z" clip-path="url(#p00007101ab)" style="fill:#c9314c"/><path id="patch_154" d="M170.573 399.775a6.986 6.986 0 1 0 0-13.972 6.986 6.986 0 0 0 0 13.972z" clip-path="url(#p00007101ab)" style="fill:#be254a"/><path id="patch_155" d="M610.21 1141.906a4.99 4.99 0 1 0-.001-9.98 4.99 4.99 0 0 0 0 9.98z" clip-path="url(#p00007101ab)" style="fill:#b41947"/><path id="patch_156" d="M791.82 714.007a15.967 15.967 0 1 0-.001-31.935 15.967 15.967 0 0 0 0 31.935z" clip-path="url(#p00007101ab)" style="fill:#e45549"/><path id="patch_157" d="M910.632 411.664a13.972 13.972 0 1 0 0-27.943 13.972 13.972 0 0 0 0 27.943z" clip-path="url(#p00007101ab)" style="fill:#de4c4b"/><path id="patch_158" d="M1148.535 358.815a2.994 2.994 0 1 0 0-5.987 2.994 2.994 0 0 0 0 5.987z" clip-path="url(#p00007101ab)" style="fill:#a90d45"/><path id="patch_159" d="M526.829 1141.906a9.98 9.98 0 1 0 0-19.96 9.98 9.98 0 0 0 0 19.96z" clip-path="url(#p00007101ab)" style="fill:#d0384e"/><path id="patch_160" d="M602.408 1141.906a.998.998 0 1 0 0-1.996.998.998 0 0 0 0 1.996z" clip-path="url(#p00007101ab)" style="fill:#9e0142"/><path id="patch_161" d="M997.281 1141.906a7.984 7.984 0 1 0 0-15.968 7.984 7.984 0 0 0 0 15.968z" clip-path="url(#p00007101ab)" style="fill:#c52c4b"/><path id="patch_162" d="M936.861 439.175a19.96 19.96 0 1 0 0-39.92 19.96 19.96 0 0 0 0 39.92z" clip-path="url(#p00007101ab)" style="fill:#f26944"/><path id="patch_163" d="M708.475 165.94a5.988 5.988 0 1 0 0-11.976 5.988 5.988 0 0 0 0 11.976z" clip-path="url(#p00007101ab)" style="fill:#b81e48"/><path id="patch_164" d="M174.565 735.416a10.978 10.978 0 1 0 0-21.955 10.978 10.978 0 0 0 0 21.955z" clip-path="url(#p00007101ab)" style="fill:#d43d4f"/><path id="patch_165" d="M613.616 567.985a13.972 13.972 0 1 0 0-27.943 13.972 13.972 0 0 0 0 27.943z" clip-path="url(#p00007101ab)" style="fill:#de4c4b"/><path id="patch_166" d="M959.067 681.194a8.982 8.982 0 1 0 0-17.963 8.982 8.982 0 0 0 0 17.963z" clip-path="url(#p00007101ab)" style="fill:#c9314c"/><path id="patch_167" d="M583.474 1141.906a3.992 3.992 0 1 0 0-7.984 3.992 3.992 0 0 0 0 7.984z" clip-path="url(#p00007101ab)" style="fill:#ad1246"/><path id="patch_168" d="M363.757 1021.102a11.976 11.976 0 1 0 0-23.952 11.976 11.976 0 0 0 0 23.952z" clip-path="url(#p00007101ab)" style="fill:#d8434e"/><path id="patch_169" d="M756.347 1011.153a6.986 6.986 0 1 0 0-13.971 6.986 6.986 0 0 0 0 13.971z" clip-path="url(#p00007101ab)" style="fill:#be254a"/><path id="patch_170" d="M173.567 799.33a9.98 9.98 0 1 0 0-19.96 9.98 9.98 0 0 0 0 19.96z" clip-path="url(#p00007101ab)" style="fill:#d0384e"/><path id="patch_171" d="M1143.545 202.188a7.984 7.984 0 1 0 0-15.967 7.984 7.984 0 0 0 0 15.967z" clip-path="url(#p00007101ab)" style="fill:#c52c4b"/><path id="patch_172" d="M168.577 808.453a4.99 4.99 0 1 0 0-9.98 4.99 4.99 0 0 0 0 9.98z" clip-path="url(#p00007101ab)" style="fill:#b41947"/><path id="patch_173" d="M165.583 1141.906a1.996 1.996 0 1 0 0-3.992 1.996 1.996 0 0 0 0 3.992z" clip-path="url(#p00007101ab)" style="fill:#a20643"/><path id="patch_174" d="M328.983 1141.906a10.978 10.978 0 1 0 0-21.956 10.978 10.978 0 0 0 0 21.956z" clip-path="url(#p00007101ab)" style="fill:#d43d4f"/><path id="patch_175" d="M681.562 834.255a11.976 11.976 0 1 0 0-23.952 11.976 11.976 0 0 0 0 23.952z" clip-path="url(#p00007101ab)" style="fill:#d8434e"/><path id="patch_176" d="M955.443 851.359a8.982 8.982 0 1 0 0-17.964 8.982 8.982 0 0 0 0 17.964z" clip-path="url(#p00007101ab)" style="fill:#c9314c"/><path id="patch_177" d="M530.929 776.216a15.967 15.967 0 1 0-.001-31.935 15.967 15.967 0 0 0 0 31.935z" clip-path="url(#p00007101ab)" style="fill:#e45549"/><path id="patch_178" d="M706.973 1141.906a5.988 5.988 0 1 0 0-11.976 5.988 5.988 0 0 0 0 11.976z" clip-path="url(#p00007101ab)" style="fill:#b81e48"/><path id="patch_179" d="M1141.55 737.464a9.98 9.98 0 1 0-.001-19.96 9.98 9.98 0 0 0 0 19.96z" clip-path="url(#p00007101ab)" style="fill:#d0384e"/><path id="patch_180" d="M1148.535 328.679a2.994 2.994 0 1 0 0-5.988 2.994 2.994 0 0 0 0 5.988z" clip-path="url(#p00007101ab)" style="fill:#a90d45"/><path id="patch_181" d="M692.099 361.446a10.978 10.978 0 1 0 0-21.955 10.978 10.978 0 0 0 0 21.955z" clip-path="url(#p00007101ab)" style="fill:#d43d4f"/><path id="patch_182" d="M451.785 870.008a6.986 6.986 0 1 0 0-13.971 6.986 6.986 0 0 0 0 13.971z" clip-path="url(#p00007101ab)" style="fill:#be254a"/><path id="patch_183" d="M454.344 709.688a15.967 15.967 0 1 0 0-31.935 15.967 15.967 0 0 0 0 31.935z" clip-path="url(#p00007101ab)" style="fill:#e45549"/><path id="patch_184" d="M966.283 917.704a11.976 11.976 0 1 0 0-23.952 11.976 11.976 0 0 0 0 23.952z" clip-path="url(#p00007101ab)" style="fill:#d8434e"/><path id="patch_185" d="M1111.288 169.932a7.984 7.984 0 1 0 0-15.968 7.984 7.984 0 0 0 0 15.968z" clip-path="url(#p00007101ab)" style="fill:#c52c4b"/><path id="patch_186" d="M539.452 1141.906a3.992 3.992 0 1 0 0-7.984 3.992 3.992 0 0 0 0 7.984z" clip-path="url(#p00007101ab)" style="fill:#ad1246"/><path id="patch_187" d="M1098.199 956.013a8.982 8.982 0 1 0 0-17.964 8.982 8.982 0 0 0 0 17.964z" clip-path="url(#p00007101ab)" style="fill:#c9314c"/><path id="patch_188" d="M462.034 501.13a9.98 9.98 0 1 0 0-19.96 9.98 9.98 0 0 0 0 19.96z" clip-path="url(#p00007101ab)" style="fill:#d0384e"/><path id="patch_189" d="M512.716 1141.906a4.99 4.99 0 1 0 0-9.98 4.99 4.99 0 0 0 0 9.98z" clip-path="url(#p00007101ab)" style="fill:#b41947"/><path id="patch_190" d="M1104.495 362.132a10.978 10.978 0 1 0 0-21.956 10.978 10.978 0 0 0 0 21.956z" clip-path="url(#p00007101ab)" style="fill:#d43d4f"/><path id="patch_191" d="M169.575 502.169a5.988 5.988 0 1 0 0-11.976 5.988 5.988 0 0 0 0 11.976z" clip-path="url(#p00007101ab)" style="fill:#b81e48"/><path id="patch_192" d="M783.038 837.977a23.951 23.951 0 1 0 0-47.903 23.951 23.951 0 0 0 0 47.903z" clip-path="url(#p00007101ab)" style="fill:#f7814c"/><path id="patch_193" d="M950.117 515.684a22.953 22.953 0 1 0 0-45.907 22.953 22.953 0 0 0 0 45.907z" clip-path="url(#p00007101ab)" style="fill:#f67a49"/><path id="patch_194" d="M811.423 901.098a11.976 11.976 0 1 0 0-23.952 11.976 11.976 0 0 0 0 23.952z" clip-path="url(#p00007101ab)" style="fill:#d8434e"/><path id="patch_195" d="M938.9 471.575a12.974 12.974 0 1 0 0-25.947 12.974 12.974 0 0 0 0 25.947z" clip-path="url(#p00007101ab)" style="fill:#dc484c"/><path id="patch_196" d="M677.14 810.827a6.986 6.986 0 1 0 0-13.971 6.986 6.986 0 0 0 0 13.971z" clip-path="url(#p00007101ab)" style="fill:#be254a"/><path id="patch_197" d="M589.785 1141.906a.998.998 0 1 0 0-1.996.998.998 0 0 0 0 1.996z" clip-path="url(#p00007101ab)" style="fill:#9e0142"/><path id="patch_198" d="M951.443 219.824a7.984 7.984 0 1 0 0-15.968 7.984 7.984 0 0 0 0 15.968z" clip-path="url(#p00007101ab)" style="fill:#c52c4b"/><path id="patch_199" d="M165.583 157.956a1.996 1.996 0 1 0 0-3.991 1.996 1.996 0 0 0 0 3.991z" clip-path="url(#p00007101ab)" style="fill:#a20643"/><path id="patch_200" d="M738.458 423.763a10.978 10.978 0 1 0 0-21.956 10.978 10.978 0 0 0 0 21.956z" clip-path="url(#p00007101ab)" style="fill:#d43d4f"/><path id="patch_201" d="M342.732 159.952a2.994 2.994 0 1 0 0-5.987 2.994 2.994 0 0 0 0 5.987z" clip-path="url(#p00007101ab)" style="fill:#a90d45"/><path id="patch_202" d="M427.865 691.838a15.967 15.967 0 1 0 0-31.935 15.967 15.967 0 0 0 0 31.935z" clip-path="url(#p00007101ab)" style="fill:#e45549"/><path id="patch_203" d="M981.14 529.508a14.97 14.97 0 1 0 0-29.939 14.97 14.97 0 0 0 0 29.94z" clip-path="url(#p00007101ab)" style="fill:#e2514a"/><path id="patch_204" d="M534.775 161.948a3.992 3.992 0 1 0 0-7.984 3.992 3.992 0 0 0 0 7.984z" clip-path="url(#p00007101ab)" style="fill:#ad1246"/><path id="patch_205" d="M1098.666 163.944a4.99 4.99 0 1 0 0-9.98 4.99 4.99 0 0 0 0 9.98z" clip-path="url(#p00007101ab)" style="fill:#b41947"/><path id="patch_206" d="M386.84 682.194a32.933 32.933 0 0 0 23.286-56.217 32.933 32.933 0 0 0-56.217 23.286 32.933 32.933 0 0 0 32.931 32.931z" clip-path="url(#p00007101ab)" style="fill:#fdb96a"/><path id="patch_207" d="M408.287 165.94a5.988 5.988 0 1 0 0-11.976 5.988 5.988 0 0 0 0 11.976z" clip-path="url(#p00007101ab)" style="fill:#b81e48"/><path id="patch_208" d="M753.452 797.473a38.92 38.92 0 0 0 38.92-38.919 38.92 38.92 0 0 0-38.92-38.919 38.92 38.92 0 0 0-38.918 38.92 38.92 38.92 0 0 0 38.918 38.918z" clip-path="url(#p00007101ab)" style="fill:#fed884"/><path id="patch_209" d="M553.155 772.96a6.986 6.986 0 1 0 0-13.972 6.986 6.986 0 0 0 0 13.972z" clip-path="url(#p00007101ab)" style="fill:#be254a"/><path id="patch_210" d="M214.794 958.045a9.98 9.98 0 1 0 0-19.96 9.98 9.98 0 0 0 0 19.96z" clip-path="url(#p00007101ab)" style="fill:#d0384e"/><path id="patch_211" d="M420.64 355.345a8.982 8.982 0 1 0 0-17.963 8.982 8.982 0 0 0 0 17.963z" clip-path="url(#p00007101ab)" style="fill:#c9314c"/><path id="patch_212" d="M605.038 347.817a7.984 7.984 0 1 0 0-15.968 7.984 7.984 0 0 0 0 15.968z" clip-path="url(#p00007101ab)" style="fill:#c52c4b"/><path id="patch_213" d="M594.553 780.366a8.982 8.982 0 1 0 0-17.964 8.982 8.982 0 0 0 0 17.964z" clip-path="url(#p00007101ab)" style="fill:#c9314c"/><path id="patch_214" d="M360.156 217.828a7.984 7.984 0 1 0 0-15.968 7.984 7.984 0 0 0 0 15.968z" clip-path="url(#p00007101ab)" style="fill:#c52c4b"/><path id="patch_215" d="M1092.939 545.791a6.986 6.986 0 1 0 0-13.971 6.986 6.986 0 0 0 0 13.971z" clip-path="url(#p00007101ab)" style="fill:#be254a"/><path id="patch_216" d="M503.587 165.94a5.988 5.988 0 1 0 0-11.976 5.988 5.988 0 0 0 0 11.976z" clip-path="url(#p00007101ab)" style="fill:#b81e48"/><path id="patch_217" d="M811.526 1141.906a4.99 4.99 0 1 0 0-9.98 4.99 4.99 0 0 0 0 9.98z" clip-path="url(#p00007101ab)" style="fill:#b41947"/><path id="patch_218" d="M1011.034 161.948a3.992 3.992 0 1 0 0-7.984 3.992 3.992 0 0 0 0 7.984z" clip-path="url(#p00007101ab)" style="fill:#ad1246"/><path id="patch_219" d="M376.603 159.952a2.994 2.994 0 1 0 0-5.987 2.994 2.994 0 0 0 0 5.987z" clip-path="url(#p00007101ab)" style="fill:#a90d45"/><path id="patch_220" d="M165.583 1116.645a1.996 1.996 0 1 0 0-3.992 1.996 1.996 0 0 0 0 3.992z" clip-path="url(#p00007101ab)" style="fill:#a20643"/><path id="patch_221" d="M951.944 312.81a10.978 10.978 0 1 0 0-21.955 10.978 10.978 0 0 0 0 21.955z" clip-path="url(#p00007101ab)" style="fill:#d43d4f"/><path id="patch_222" d="M555.409 225.814a9.98 9.98 0 1 0 0-19.96 9.98 9.98 0 0 0 0 19.96z" clip-path="url(#p00007101ab)" style="fill:#d0384e"/><path id="patch_223" d="M941.965 155.96a.998.998 0 1 0 0-1.995.998.998 0 0 0 0 1.996z" clip-path="url(#p00007101ab)" style="fill:#9e0142"/><path id="patch_224" d="M216.937 764.048a8.982 8.982 0 1 0 0-17.964 8.982 8.982 0 0 0 0 17.964z" clip-path="url(#p00007101ab)" style="fill:#c9314c"/><path id="patch_225" d="M479.539 495.105a7.984 7.984 0 1 0 0-15.967 7.984 7.984 0 0 0 0 15.967z" clip-path="url(#p00007101ab)" style="fill:#c52c4b"/><path id="patch_226" d="M700.955 530.878a6.986 6.986 0 1 0 0-13.971 6.986 6.986 0 0 0 0 13.971z" clip-path="url(#p00007101ab)" style="fill:#be254a"/><path id="patch_227" d="M746.34 822.93a12.974 12.974 0 1 0 0-25.948 12.974 12.974 0 0 0 0 25.947z" clip-path="url(#p00007101ab)" style="fill:#dc484c"/><path id="patch_228" d="M169.575 714.212a5.988 5.988 0 1 0 0-11.975 5.988 5.988 0 0 0 0 11.975z" clip-path="url(#p00007101ab)" style="fill:#b81e48"/><path id="patch_229" d="M936.978 977.346a10.978 10.978 0 1 0 0-21.955 10.978 10.978 0 0 0 0 21.955z" clip-path="url(#p00007101ab)" style="fill:#d43d4f"/><path id="patch_230" d="M390.667 616.481a15.967 15.967 0 1 0 0-31.934 15.967 15.967 0 0 0 0 31.934z" clip-path="url(#p00007101ab)" style="fill:#e45549"/><path id="patch_231" d="M807.524 163.944a4.99 4.99 0 1 0 0-9.98 4.99 4.99 0 0 0 0 9.98z" clip-path="url(#p00007101ab)" style="fill:#b41947"/><path id="patch_232" d="M366.137 862.945a8.982 8.982 0 1 0 0-17.963 8.982 8.982 0 0 0 0 17.963z" clip-path="url(#p00007101ab)" style="fill:#c9314c"/><path id="patch_233" d="M896.071 1141.906a3.992 3.992 0 1 0 0-7.984 3.992 3.992 0 0 0 0 7.984z" clip-path="url(#p00007101ab)" style="fill:#ad1246"/><path id="patch_234" d="M1015.874 953.32a7.984 7.984 0 1 0 0-15.967 7.984 7.984 0 0 0 0 15.967z" clip-path="url(#p00007101ab)" style="fill:#c52c4b"/><path id="patch_235" d="M722.988 505.338a6.986 6.986 0 1 0 0-13.972 6.986 6.986 0 0 0 0 13.972z" clip-path="url(#p00007101ab)" style="fill:#be254a"/><path id="patch_236" d="M1148.535 963.927a2.994 2.994 0 1 0 0-5.988 2.994 2.994 0 0 0 0 5.988z" clip-path="url(#p00007101ab)" style="fill:#a90d45"/><path id="patch_237" d="M212.443 359.37a9.98 9.98 0 1 0 0-19.959 9.98 9.98 0 0 0 0 19.96z" clip-path="url(#p00007101ab)" style="fill:#d0384e"/><path id="patch_238" d="M169.575 618.258a5.988 5.988 0 1 0 0-11.975 5.988 5.988 0 0 0 0 11.975z" clip-path="url(#p00007101ab)" style="fill:#b81e48"/><path id="patch_239" d="M359.76 624.515a15.967 15.967 0 1 0 0-31.935 15.967 15.967 0 0 0 0 31.935z" clip-path="url(#p00007101ab)" style="fill:#e45549"/><path id="patch_240" d="M753.158 217.663a8.982 8.982 0 1 0 0-17.963 8.982 8.982 0 0 0 0 17.963z" clip-path="url(#p00007101ab)" style="fill:#c9314c"/><path id="patch_241" d="M237.279 567.226a11.976 11.976 0 1 0 0-23.951 11.976 11.976 0 0 0 0 23.951z" clip-path="url(#p00007101ab)" style="fill:#d8434e"/><path id="patch_242" d="M190.844 1141.906a1.996 1.996 0 1 0 0-3.992 1.996 1.996 0 0 0 0 3.992z" clip-path="url(#p00007101ab)" style="fill:#a20643"/><path id="patch_243" d="M864.154 660.559a7.984 7.984 0 1 0 0-15.968 7.984 7.984 0 0 0 0 15.968z" clip-path="url(#p00007101ab)" style="fill:#c52c4b"/><path id="patch_244" d="M168.577 900.454a4.99 4.99 0 1 0 0-9.98 4.99 4.99 0 0 0 0 9.98z" clip-path="url(#p00007101ab)" style="fill:#b41947"/><path id="patch_245" d="M556.213 278.821a6.986 6.986 0 1 0 0-13.971 6.986 6.986 0 0 0 0 13.971z" clip-path="url(#p00007101ab)" style="fill:#be254a"/><path id="patch_246" d="M167.58 407.342a3.992 3.992 0 1 0 0-7.984 3.992 3.992 0 0 0 0 7.984z" clip-path="url(#p00007101ab)" style="fill:#ad1246"/><path id="patch_247" d="M359.578 691.966a8.982 8.982 0 1 0 0-17.963 8.982 8.982 0 0 0 0 17.963z" clip-path="url(#p00007101ab)" style="fill:#c9314c"/><path id="patch_248" d="M362.358 309.062a10.978 10.978 0 1 0 0-21.955 10.978 10.978 0 0 0 0 21.955z" clip-path="url(#p00007101ab)" style="fill:#d43d4f"/><path id="patch_249" d="M608.7 165.94a5.988 5.988 0 1 0 0-11.976 5.988 5.988 0 0 0 0 11.976z" clip-path="url(#p00007101ab)" style="fill:#b81e48"/><path id="patch_250" d="M1150.53 350.451a.998.998 0 1 0 0-1.996.998.998 0 0 0 0 1.996z" clip-path="url(#p00007101ab)" style="fill:#9e0142"/><path id="patch_251" d="M561.116 1093.213a7.984 7.984 0 1 0 0-15.967 7.984 7.984 0 0 0 0 15.967z" clip-path="url(#p00007101ab)" style="fill:#c52c4b"/><path id="patch_252" d="M797.53 594.91a9.98 9.98 0 1 0 0-19.959 9.98 9.98 0 0 0 0 19.96z" clip-path="url(#p00007101ab)" style="fill:#d0384e"/><path id="patch_253" d="M715.377 821.107a18.961 18.961 0 1 0-.001-37.923 18.961 18.961 0 0 0 0 37.923z" clip-path="url(#p00007101ab)" style="fill:#ee6445"/><path id="patch_254" d="M166.581 781.413a2.994 2.994 0 1 0 0-5.988 2.994 2.994 0 0 0 0 5.988z" clip-path="url(#p00007101ab)" style="fill:#a90d45"/><path id="patch_255" d="M1099.617 1141.906a4.99 4.99 0 1 0 0-9.98 4.99 4.99 0 0 0 0 9.98z" clip-path="url(#p00007101ab)" style="fill:#b41947"/><path id="patch_256" d="M541.882 388.982a15.967 15.967 0 1 0 0-31.935 15.967 15.967 0 0 0 0 31.935z" clip-path="url(#p00007101ab)" style="fill:#e45549"/><path id="patch_257" d="M1115.423 532.676a6.986 6.986 0 1 0 0-13.971 6.986 6.986 0 0 0 0 13.971z" clip-path="url(#p00007101ab)" style="fill:#be254a"/><path id="patch_258" d="M635.4 807.032a7.984 7.984 0 1 0 0-15.968 7.984 7.984 0 0 0 0 15.968z" clip-path="url(#p00007101ab)" style="fill:#c52c4b"/><path id="patch_259" d="M311.025 165.94a5.988 5.988 0 1 0 0-11.976 5.988 5.988 0 0 0 0 11.976z" clip-path="url(#p00007101ab)" style="fill:#b81e48"/><path id="patch_260" d="M780.417 1141.906a3.992 3.992 0 1 0 0-7.984 3.992 3.992 0 0 0 0 7.984z" clip-path="url(#p00007101ab)" style="fill:#ad1246"/><path id="patch_261" d="M165.583 775.526a1.996 1.996 0 1 0 0-3.992 1.996 1.996 0 0 0 0 3.992z" clip-path="url(#p00007101ab)" style="fill:#a20643"/><path id="patch_262" d="M832.29 945.023a6.986 6.986 0 1 0-.001-13.972 6.986 6.986 0 0 0 0 13.972z" clip-path="url(#p00007101ab)" style="fill:#be254a"/><path id="patch_263" d="M261.14 565.154a11.976 11.976 0 1 0-.001-23.952 11.976 11.976 0 0 0 0 23.952z" clip-path="url(#p00007101ab)" style="fill:#d8434e"/><path id="patch_264" d="M1146.539 542.64a4.99 4.99 0 1 0 0-9.979 4.99 4.99 0 0 0 0 9.98z" clip-path="url(#p00007101ab)" style="fill:#b41947"/><path id="patch_265" d="M502.822 788.142a14.97 14.97 0 1 0 0-29.939 14.97 14.97 0 0 0 0 29.939z" clip-path="url(#p00007101ab)" style="fill:#e2514a"/><path id="patch_266" d="M364.148 1088.026a9.98 9.98 0 1 0 0-19.96 9.98 9.98 0 0 0 0 19.96z" clip-path="url(#p00007101ab)" style="fill:#d0384e"/><path id="patch_267" d="M1091.887 1141.906a2.994 2.994 0 1 0 0-5.988 2.994 2.994 0 0 0 0 5.988z" clip-path="url(#p00007101ab)" style="fill:#a90d45"/><path id="patch_268" d="M751.186 310.292a10.978 10.978 0 1 0 0-21.956 10.978 10.978 0 0 0 0 21.956z" clip-path="url(#p00007101ab)" style="fill:#d43d4f"/><path id="patch_269" d="M308.535 1141.906a5.988 5.988 0 1 0 0-11.976 5.988 5.988 0 0 0 0 11.976z" clip-path="url(#p00007101ab)" style="fill:#b81e48"/><path id="patch_270" d="M770.683 720.275a8.982 8.982 0 1 0 0-17.964 8.982 8.982 0 0 0 0 17.964z" clip-path="url(#p00007101ab)" style="fill:#c9314c"/><path id="patch_271" d="M541.121 314.91a6.986 6.986 0 1 0 0-13.972 6.986 6.986 0 0 0 0 13.972z" clip-path="url(#p00007101ab)" style="fill:#be254a"/><path id="patch_272" d="M167.58 530.936a3.992 3.992 0 1 0 0-7.984 3.992 3.992 0 0 0 0 7.984z" clip-path="url(#p00007101ab)" style="fill:#ad1246"/><path id="patch_273" d="M164.586 782.874a.998.998 0 1 0 0-1.996.998.998 0 0 0 0 1.996z" clip-path="url(#p00007101ab)" style="fill:#9e0142"/><path id="patch_274" d="M995.632 553.56a13.972 13.972 0 1 0 0-27.943 13.972 13.972 0 0 0 0 27.943z" clip-path="url(#p00007101ab)" style="fill:#de4c4b"/><path id="patch_275" d="M590.307 668.66a10.978 10.978 0 1 0 0-21.955 10.978 10.978 0 0 0 0 21.955z" clip-path="url(#p00007101ab)" style="fill:#d43d4f"/><path id="patch_276" d="M1146.539 492.488a4.99 4.99 0 1 0 0-9.98 4.99 4.99 0 0 0 0 9.98z" clip-path="url(#p00007101ab)" style="fill:#b41947"/><path id="patch_277" d="M730.73 975.5a5.988 5.988 0 1 0 0-11.976 5.988 5.988 0 0 0 0 11.976z" clip-path="url(#p00007101ab)" style="fill:#b81e48"/><path id="patch_278" d="M975.68 157.956a1.996 1.996 0 1 0 0-3.991 1.996 1.996 0 0 0 0 3.991z" clip-path="url(#p00007101ab)" style="fill:#a20643"/><path id="patch_279" d="M1148.535 783.421a2.994 2.994 0 1 0 0-5.988 2.994 2.994 0 0 0 0 5.988z" clip-path="url(#p00007101ab)" style="fill:#a90d45"/><path id="patch_280" d="M474.351 781.957a13.972 13.972 0 1 0 0-27.943 13.972 13.972 0 0 0 0 27.943z" clip-path="url(#p00007101ab)" style="fill:#de4c4b"/><path id="patch_281" d="M957.766 1141.906a3.992 3.992 0 1 0 0-7.984 3.992 3.992 0 0 0 0 7.984z" clip-path="url(#p00007101ab)" style="fill:#ad1246"/><path id="patch_282" d="M168.577 302.153a4.99 4.99 0 1 0 0-9.98 4.99 4.99 0 0 0 0 9.98z" clip-path="url(#p00007101ab)" style="fill:#b41947"/><path id="patch_283" d="M347.125 527.654a11.976 11.976 0 1 0 0-23.951 11.976 11.976 0 0 0 0 23.951z" clip-path="url(#p00007101ab)" style="fill:#d8434e"/><path id="patch_284" d="M994.024 781.721a5.988 5.988 0 1 0 0-11.975 5.988 5.988 0 0 0 0 11.975z" clip-path="url(#p00007101ab)" style="fill:#b81e48"/><path id="patch_285" d="M340.813 504.786a6.986 6.986 0 1 0 0-13.972 6.986 6.986 0 0 0 0 13.972z" clip-path="url(#p00007101ab)" style="fill:#be254a"/><path id="patch_286" d="M1150.53 333.052a.998.998 0 1 0 0-1.996.998.998 0 0 0 0 1.996z" clip-path="url(#p00007101ab)" style="fill:#9e0142"/><path id="patch_287" d="M1149.533 984.681a1.996 1.996 0 1 0 0-3.991 1.996 1.996 0 0 0 0 3.991z" clip-path="url(#p00007101ab)" style="fill:#a20643"/><path id="patch_288" d="M923.895 1141.906a3.992 3.992 0 1 0 0-7.984 3.992 3.992 0 0 0 0 7.984z" clip-path="url(#p00007101ab)" style="fill:#ad1246"/><path id="patch_289" d="M166.581 960.425a2.994 2.994 0 1 0 0-5.988 2.994 2.994 0 0 0 0 5.988z" clip-path="url(#p00007101ab)" style="fill:#a90d45"/><path id="patch_290" d="M965.144 419.381a9.98 9.98 0 1 0 0-19.96 9.98 9.98 0 0 0 0 19.96z" clip-path="url(#p00007101ab)" style="fill:#d0384e"/><path id="patch_291" d="M785.064 731.037a8.982 8.982 0 1 0 0-17.963 8.982 8.982 0 0 0 0 17.963z" clip-path="url(#p00007101ab)" style="fill:#c9314c"/><path id="patch_292" d="M531.52 327.392a7.984 7.984 0 1 0 0-15.968 7.984 7.984 0 0 0 0 15.968z" clip-path="url(#p00007101ab)" style="fill:#c52c4b"/><path id="patch_293" d="M382.119 855.195a6.986 6.986 0 1 0 0-13.972 6.986 6.986 0 0 0 0 13.972z" clip-path="url(#p00007101ab)" style="fill:#be254a"/><path id="patch_294" d="M928.892 518.391a5.988 5.988 0 1 0 0-11.975 5.988 5.988 0 0 0 0 11.975z" clip-path="url(#p00007101ab)" style="fill:#b81e48"/><path id="patch_295" d="M217.977 163.944a4.99 4.99 0 1 0 0-9.98 4.99 4.99 0 0 0 0 9.98z" clip-path="url(#p00007101ab)" style="fill:#b41947"/><path id="patch_296" d="M1006.787 365.973a10.978 10.978 0 1 0 0-21.955 10.978 10.978 0 0 0 0 21.955z" clip-path="url(#p00007101ab)" style="fill:#d43d4f"/><path id="patch_297" d="M538.253 402.664a6.986 6.986 0 1 0 0-13.972 6.986 6.986 0 0 0 0 13.972z" clip-path="url(#p00007101ab)" style="fill:#be254a"/><path id="patch_298" d="M397.729 975.694a5.988 5.988 0 1 0 0-11.975 5.988 5.988 0 0 0 0 11.975z" clip-path="url(#p00007101ab)" style="fill:#b81e48"/><path id="patch_299" d="M168.577 213.344a4.99 4.99 0 1 0 0-9.98 4.99 4.99 0 0 0 0 9.98z" clip-path="url(#p00007101ab)" style="fill:#b41947"/><path id="patch_300" d="M322.846 558.885a20.957 20.957 0 1 0 0-41.915 20.957 20.957 0 0 0 0 41.915z" clip-path="url(#p00007101ab)" style="fill:#f46d43"/><path id="patch_301" d="M285.956 568.703a12.974 12.974 0 1 0 0-25.947 12.974 12.974 0 0 0 0 25.947z" clip-path="url(#p00007101ab)" style="fill:#dc484c"/><path id="patch_302" d="M333.727 580.985a11.976 11.976 0 1 0 0-23.95 11.976 11.976 0 0 0 0 23.95z" clip-path="url(#p00007101ab)" style="fill:#d8434e"/><path id="patch_303" d="M1147.537 926.568a3.992 3.992 0 1 0 0-7.983 3.992 3.992 0 0 0 0 7.983z" clip-path="url(#p00007101ab)" style="fill:#ad1246"/><path id="patch_304" d="M166.581 928.742a2.994 2.994 0 1 0 0-5.988 2.994 2.994 0 0 0 0 5.988z" clip-path="url(#p00007101ab)" style="fill:#a90d45"/><path id="patch_305" d="M348.335 593.018a8.982 8.982 0 1 0 0-17.963 8.982 8.982 0 0 0 0 17.963z" clip-path="url(#p00007101ab)" style="fill:#c9314c"/><path id="patch_306" d="M1149.533 533.336a1.996 1.996 0 1 0 0-3.992 1.996 1.996 0 0 0 0 3.992z" clip-path="url(#p00007101ab)" style="fill:#a20643"/><path id="patch_307" d="M363.796 1035.072a6.986 6.986 0 1 0 0-13.971 6.986 6.986 0 0 0 0 13.971z" clip-path="url(#p00007101ab)" style="fill:#be254a"/><path id="patch_308" d="M956.354 1014.2a5.988 5.988 0 1 0 0-11.975 5.988 5.988 0 0 0 0 11.975z" clip-path="url(#p00007101ab)" style="fill:#b81e48"/><path id="patch_309" d="M171.571 1141.906a.998.998 0 1 0 0-1.996.998.998 0 0 0 0 1.996z" clip-path="url(#p00007101ab)" style="fill:#9e0142"/><path id="patch_310" d="M960.5 471.514a8.982 8.982 0 1 0 0-17.963 8.982 8.982 0 0 0 0 17.963z" clip-path="url(#p00007101ab)" style="fill:#c9314c"/><path id="patch_311" d="M1146.539 211.817a4.99 4.99 0 1 0 0-9.98 4.99 4.99 0 0 0 0 9.98z" clip-path="url(#p00007101ab)" style="fill:#b41947"/><path id="patch_312" d="M647.95 797.16a7.984 7.984 0 1 0 0-15.967 7.984 7.984 0 0 0 0 15.968z" clip-path="url(#p00007101ab)" style="fill:#c52c4b"/><path id="patch_313" d="M167.58 741.67a3.992 3.992 0 1 0 0-7.984 3.992 3.992 0 0 0 0 7.984z" clip-path="url(#p00007101ab)" style="fill:#ad1246"/><path id="patch_314" d="M466.857 818.02a16.965 16.965 0 1 0 0-33.93 16.965 16.965 0 0 0 0 33.93z" clip-path="url(#p00007101ab)" style="fill:#e85b48"/><path id="patch_315" d="M902.568 868.423a6.986 6.986 0 1 0 0-13.972 6.986 6.986 0 0 0 0 13.972z" clip-path="url(#p00007101ab)" style="fill:#be254a"/><path id="patch_316" d="M896.767 626.05a5.988 5.988 0 1 0 0-11.975 5.988 5.988 0 0 0 0 11.975z" clip-path="url(#p00007101ab)" style="fill:#b81e48"/><path id="patch_317" d="M317.002 1141.906a2.994 2.994 0 1 0 0-5.988 2.994 2.994 0 0 0 0 5.988z" clip-path="url(#p00007101ab)" style="fill:#a90d45"/><path id="patch_318" d="M307.485 577.202a10.978 10.978 0 1 0 0-21.956 10.978 10.978 0 0 0 0 21.956z" clip-path="url(#p00007101ab)" style="fill:#d43d4f"/><path id="patch_319" d="M168.577 1095.725a4.99 4.99 0 1 0 0-9.98 4.99 4.99 0 0 0 0 9.98z" clip-path="url(#p00007101ab)" style="fill:#b41947"/><path id="patch_320" d="M956.591 453.959a9.98 9.98 0 1 0 0-19.96 9.98 9.98 0 0 0 0 19.96z" clip-path="url(#p00007101ab)" style="fill:#d0384e"/><path id="patch_321" d="M1149.533 545.958a1.996 1.996 0 1 0 0-3.991 1.996 1.996 0 0 0 0 3.991z" clip-path="url(#p00007101ab)" style="fill:#a20643"/><path id="patch_322" d="M775.579 161.948a3.992 3.992 0 1 0 0-7.984 3.992 3.992 0 0 0 0 7.984z" clip-path="url(#p00007101ab)" style="fill:#ad1246"/><path id="patch_323" d="M490.92 349.278a5.988 5.988 0 1 0 0-11.975 5.988 5.988 0 0 0 0 11.975z" clip-path="url(#p00007101ab)" style="fill:#b81e48"/><path id="patch_324" d="M962.88 433.2a6.986 6.986 0 1 0 0-13.971 6.986 6.986 0 0 0 0 13.971z" clip-path="url(#p00007101ab)" style="fill:#be254a"/><path id="patch_325" d="M1146.539 1093.279a4.99 4.99 0 1 0 0-9.98 4.99 4.99 0 0 0 0 9.98z" clip-path="url(#p00007101ab)" style="fill:#b41947"/><path id="patch_326" d="M300.067 1141.906a2.994 2.994 0 1 0 0-5.988 2.994 2.994 0 0 0 0 5.988z" clip-path="url(#p00007101ab)" style="fill:#a90d45"/><path id="patch_327" d="M164.586 1134.92a.998.998 0 1 0 0-1.996.998.998 0 0 0 0 1.996z" clip-path="url(#p00007101ab)" style="fill:#9e0142"/><path id="patch_328" d="M756.696 1091.613a7.984 7.984 0 1 0 0-15.968 7.984 7.984 0 0 0 0 15.968z" clip-path="url(#p00007101ab)" style="fill:#c52c4b"/><path id="patch_329" d="M860.262 586.255a5.988 5.988 0 1 0 0-11.976 5.988 5.988 0 0 0 0 11.976z" clip-path="url(#p00007101ab)" style="fill:#b81e48"/><path id="patch_330" d="M386.894 1141.906a3.992 3.992 0 1 0 0-7.984 3.992 3.992 0 0 0 0 7.984z" clip-path="url(#p00007101ab)" style="fill:#ad1246"/><path id="patch_331" d="M165.583 534.585a1.996 1.996 0 1 0 0-3.992 1.996 1.996 0 0 0 0 3.992z" clip-path="url(#p00007101ab)" style="fill:#a20643"/><path id="patch_332" d="M1146.539 718.362a4.99 4.99 0 1 0 0-9.98 4.99 4.99 0 0 0 0 9.98z" clip-path="url(#p00007101ab)" style="fill:#b41947"/><path id="patch_333" d="M816.755 916.339a7.984 7.984 0 1 0 0-15.968 7.984 7.984 0 0 0 0 15.968z" clip-path="url(#p00007101ab)" style="fill:#c52c4b"/><g id="matplotlib.axis_1"><g id="xtick_1"><g id="line2d_1"><defs><path id="m8144181d03" d="M0 0v3.5" style="stroke:#000;stroke-width:.8"/></defs><use xlink:href="#m8144181d03" x="163.588" y="1141.906" style="stroke:#000;stroke-width:.8"/></g><g id="text_1" transform="matrix(.1 0 0 -.1 160.406 1156.504)"><defs><path id="DejaVuSans-30" d="M2034 4250q-487 0-733-480-245-479-245-1442 0-959 245-1439 246-480 733-480 491 0 736 480 246 480 246 1439 0 963-246 1442-245 480-736 480zm0 500q785 0 1199-621 414-620 414-1801 0-1178-414-1799Q2819-91 2034-91q-784 0-1198 620-414 621-414 1799 0 1181 414 1801 414 621 1198 621z" transform="scale(.01563)"/></defs><use xlink:href="#DejaVuSans-30"/></g></g><g id="xtick_2"><use xlink:href="#m8144181d03" id="line2d_2" x="363.172" y="1141.906" style="stroke:#000;stroke-width:.8"/><g id="text_2" transform="matrix(.1 0 0 -.1 353.628 1156.504)"><defs><path id="DejaVuSans-32" d="M1228 531h2203V0H469v531q359 372 979 998 621 627 780 809 303 340 423 576 121 236 121 464 0 372-261 606-261 235-680 235-297 0-627-103-329-103-704-313v638q381 153 712 231 332 78 607 78 725 0 1156-363 431-362 431-968 0-288-108-546-107-257-392-607-78-91-497-524-418-433-1181-1211z" transform="scale(.01563)"/></defs><use xlink:href="#DejaVuSans-32"/><use xlink:href="#DejaVuSans-30" x="63.623"/><use xlink:href="#DejaVuSans-30" x="127.246"/></g></g><g id="xtick_3"><use xlink:href="#m8144181d03" id="line2d_3" x="562.756" y="1141.906" style="stroke:#000;stroke-width:.8"/><g id="text_3" transform="matrix(.1 0 0 -.1 553.212 1156.504)"><defs><path id="DejaVuSans-34" d="M2419 4116 825 1625h1594v2491zm-166 550h794V1625h666v-525h-666V0h-628v1100H313v609l1940 2957z" transform="scale(.01563)"/></defs><use xlink:href="#DejaVuSans-34"/><use xlink:href="#DejaVuSans-30" x="63.623"/><use xlink:href="#DejaVuSans-30" x="127.246"/></g></g><g id="xtick_4"><use xlink:href="#m8144181d03" id="line2d_4" x="762.34" y="1141.906" style="stroke:#000;stroke-width:.8"/><g id="text_4" transform="matrix(.1 0 0 -.1 752.796 1156.504)"><defs><path id="DejaVuSans-36" d="M2113 2584q-425 0-674-291-248-290-248-796 0-503 248-796 249-292 674-292t673 292q248 293 248 796 0 506-248 796-248 291-673 291zm1253 1979v-575q-238 112-480 171-242 60-480 60-625 0-955-422-329-422-376-1275 184 272 462 417 279 145 613 145 703 0 1111-427 408-426 408-1160 0-719-425-1154Q2819-91 2113-91q-810 0-1238 620-428 621-428 1799 0 1106 525 1764t1409 658q238 0 480-47t505-140z" transform="scale(.01563)"/></defs><use xlink:href="#DejaVuSans-36"/><use xlink:href="#DejaVuSans-30" x="63.623"/><use xlink:href="#DejaVuSans-30" x="127.246"/></g></g><g id="xtick_5"><use xlink:href="#m8144181d03" id="line2d_5" x="961.924" y="1141.906" style="stroke:#000;stroke-width:.8"/><g id="text_5" transform="matrix(.1 0 0 -.1 952.38 1156.504)"><defs><path id="DejaVuSans-38" d="M2034 2216q-450 0-708-241-257-241-257-662 0-422 257-663 258-241 708-241t709 242q260 243 260 662 0 421-258 662-257 241-711 241zm-631 268q-406 100-633 378-226 279-226 679 0 559 398 884 399 325 1092 325 697 0 1094-325t397-884q0-400-227-679-226-278-629-378 456-106 710-416 255-309 255-755 0-679-414-1042Q2806-91 2034-91q-771 0-1186 362-414 363-414 1042 0 446 256 755 257 310 713 416zm-231 997q0-362 226-565 227-203 636-203 407 0 636 203 230 203 230 565 0 363-230 566-229 203-636 203-409 0-636-203-226-203-226-566z" transform="scale(.01563)"/></defs><use xlink:href="#DejaVuSans-38"/><use xlink:href="#DejaVuSans-30" x="63.623"/><use xlink:href="#DejaVuSans-30" x="127.246"/></g></g></g><g id="matplotlib.axis_2"><g id="ytick_1"><g id="line2d_6"><defs><path id="m0762558a0d" d="M0 0h-3.5" style="stroke:#000;stroke-width:.8"/></defs><use xlink:href="#m0762558a0d" x="163.588" y="1141.906" style="stroke:#000;stroke-width:.8"/></g><use xlink:href="#DejaVuSans-30" id="text_6" transform="matrix(.1 0 0 -.1 150.225 1145.705)"/></g><g id="ytick_2"><use xlink:href="#m0762558a0d" id="line2d_7" x="163.588" y="942.322" style="stroke:#000;stroke-width:.8"/><g id="text_7" transform="matrix(.1 0 0 -.1 137.5 946.12)"><use xlink:href="#DejaVuSans-32"/><use xlink:href="#DejaVuSans-30" x="63.623"/><use xlink:href="#DejaVuSans-30" x="127.246"/></g></g><g id="ytick_3"><use xlink:href="#m0762558a0d" id="line2d_8" x="163.588" y="742.738" style="stroke:#000;stroke-width:.8"/><g id="text_8" transform="matrix(.1 0 0 -.1 137.5 746.537)"><use xlink:href="#DejaVuSans-34"/><use xlink:href="#DejaVuSans-30" x="63.623"/><use xlink:href="#DejaVuSans-30" x="127.246"/></g></g><g id="ytick_4"><use xlink:href="#m0762558a0d" id="line2d_9" x="163.588" y="543.154" style="stroke:#000;stroke-width:.8"/><g id="text_9" transform="matrix(.1 0 0 -.1 137.5 546.953)"><use xlink:href="#DejaVuSans-36"/><use xlink:href="#DejaVuSans-30" x="63.623"/><use xlink:href="#DejaVuSans-30" x="127.246"/></g></g><g id="ytick_5"><use xlink:href="#m0762558a0d" id="line2d_10" x="163.588" y="343.57" style="stroke:#000;stroke-width:.8"/><g id="text_10" transform="matrix(.1 0 0 -.1 137.5 347.369)"><use xlink:href="#DejaVuSans-38"/><use xlink:href="#DejaVuSans-30" x="63.623"/><use xlink:href="#DejaVuSans-30" x="127.246"/></g></g></g><path id="patch_334" d="M163.588 1141.906V153.965" style="fill:none;stroke:#000;stroke-width:.8;stroke-linejoin:miter;stroke-linecap:square"/><path id="patch_335" d="M1151.528 1141.906V153.965" style="fill:none;stroke:#000;stroke-width:.8;stroke-linejoin:miter;stroke-linecap:square"/><path id="patch_336" d="M163.588 1141.906h987.94" style="fill:none;stroke:#000;stroke-width:.8;stroke-linejoin:miter;stroke-linecap:square"/><path id="patch_337" d="M163.588 153.965h987.94" style="fill:none;stroke:#000;stroke-width:.8;stroke-linejoin:miter;stroke-linecap:square"/><g id="text_11" transform="matrix(.12 0 0 -.12 475.37 147.965)"><defs><path id="DejaVuSans-54" d="M-19 4666h3947v-532H2272V0h-634v4134H-19v532z" transform="scale(.01563)"/><path id="DejaVuSans-65" d="M3597 1894v-281H953q38-594 358-905t892-311q331 0 642 81t618 244V178Q3153 47 2828-22t-659-69q-838 0-1327 487-489 488-489 1320 0 859 464 1363 464 505 1252 505 706 0 1117-455 411-454 411-1235zm-575 169q-6 471-264 752-258 282-683 282-481 0-770-272t-333-766l2050 4z" transform="scale(.01563)"/><path id="DejaVuSans-61" d="M2194 1759q-697 0-966-159t-269-544q0-306 202-486 202-179 548-179 479 0 768 339t289 901v128h-572zm1147 238V0h-575v531q-197-318-491-470T1556-91q-537 0-855 302-317 302-317 808 0 590 395 890 396 300 1180 300h807v57q0 397-261 614t-733 217q-300 0-585-72-284-72-546-216v532q315 122 612 182 297 61 578 61 760 0 1135-394 375-393 375-1193z" transform="scale(.01563)"/><path id="DejaVuSans-6d" d="M3328 2828q216 388 516 572t706 184q547 0 844-383 297-382 297-1088V0h-578v2094q0 503-179 746-178 244-543 244-447 0-707-297-259-296-259-809V0h-578v2094q0 506-178 748t-550 242q-441 0-701-298-259-298-259-808V0H581v3500h578v-544q197 322 472 475t653 153q382 0 649-194 267-193 395-562z" transform="scale(.01563)"/><path id="DejaVuSans-4b" d="M628 4666h631V2694l2094 1972h813L1850 2491 4331 0h-831L1259 2247V0H628v4666z" transform="scale(.01563)"/><path id="DejaVuSans-6f" d="M1959 3097q-462 0-731-361t-269-989q0-628 267-989 268-361 733-361 460 0 728 362 269 363 269 988 0 622-269 986-268 364-728 364zm0 487q750 0 1178-488 429-487 429-1349 0-859-429-1349Q2709-91 1959-91q-753 0-1180 489-426 490-426 1349 0 862 426 1349 427 488 1180 488z" transform="scale(.01563)"/><path id="DejaVuSans-6c" d="M603 4863h575V0H603v4863z" transform="scale(.01563)"/><path id="DejaVuSans-6e" d="M3513 2113V0h-575v2094q0 497-194 743-194 247-581 247-466 0-735-297-269-296-269-809V0H581v3500h578v-544q207 316 486 472 280 156 646 156 603 0 912-373 310-373 310-1098z" transform="scale(.01563)"/><path id="DejaVuSans-57" d="M213 4666h637l981-3944 978 3944h710l981-3944 978 3944h641L4947 0h-794l-984 4050L2175 0h-794L213 4666z" transform="scale(.01563)"/><path id="DejaVuSans-64" d="M2906 2969v1894h575V0h-575v525q-181-312-458-464-276-152-664-152-634 0-1033 506-398 507-398 1332t398 1331q399 506 1033 506 388 0 664-152 277-151 458-463zM947 1747q0-634 261-995t717-361q456 0 718 361 263 361 263 995t-263 995q-262 361-718 361t-717-361q-261-361-261-995z" transform="scale(.01563)"/><path id="DejaVuSans-2c" d="M750 794h659V256L897-744H494L750 256v538z" transform="scale(.01563)"/><path id="DejaVuSans-62" d="M3116 1747q0 634-261 995t-717 361q-457 0-718-361t-261-995q0-634 261-995t718-361q456 0 717 361t261 995zM1159 2969q182 312 458 463 277 152 661 152 638 0 1036-506 399-506 399-1331T3314 415Q2916-91 2278-91q-384 0-661 152-276 152-458 464V0H581v4863h578V2969z" transform="scale(.01563)"/><path id="DejaVuSans-3d" d="M678 2906h4006v-525H678v525zm0-1275h4006v-531H678v531z" transform="scale(.01563)"/><path id="DejaVuSans-2e" d="M684 794h660V0H684v794z" transform="scale(.01563)"/><path id="DejaVuSans-39" d="M703 97v575q238-113 481-172 244-59 479-59 625 0 954 420 330 420 377 1277-181-269-460-413-278-144-615-144-700 0-1108 423-408 424-408 1159 0 718 425 1152 425 435 1131 435 810 0 1236-621 427-620 427-1801 0-1103-524-1761Q2575-91 1691-91q-238 0-482 47Q966 3 703 97zm1256 1978q425 0 673 290 249 291 249 798 0 503-249 795-248 292-673 292t-673-292q-248-292-248-795 0-507 248-798 248-290 673-290z" transform="scale(.01563)"/><path id="DejaVuSans-35" d="M691 4666h2478v-532H1269V2991q137 47 274 70 138 23 276 23 781 0 1237-428 457-428 457-1159 0-753-469-1171Q2575-91 1722-91q-294 0-599 50Q819 9 494 109v635q281-153 581-228t634-75q541 0 856 284 316 284 316 772 0 487-316 771-315 285-856 285-253 0-505-56-251-56-513-175v2344z" transform="scale(.01563)"/><path id="DejaVuSans-37" d="M525 4666h3000v-269L1831 0h-659l1594 4134H525v532z" transform="scale(.01563)"/><path id="DejaVuSans-33" d="M2597 2516q453-97 707-404 255-306 255-756 0-690-475-1069Q2609-91 1734-91q-293 0-604 58T488 141v609q262-153 574-231 313-78 654-78 593 0 904 234t311 681q0 413-289 645-289 233-804 233h-544v519h569q465 0 712 186t247 536q0 359-255 551-254 193-729 193-260 0-557-57-297-56-653-174v562q360 100 674 150t592 50q719 0 1137-327 419-326 419-882 0-388-222-655t-631-370z" transform="scale(.01563)"/></defs><use xlink:href="#DejaVuSans-54"/><use xlink:href="#DejaVuSans-65" x="44.084"/><use xlink:href="#DejaVuSans-61" x="105.607"/><use xlink:href="#DejaVuSans-6d" x="166.887"/><use xlink:href="#DejaVuSans-4b" x="264.299"/><use xlink:href="#DejaVuSans-6f" x="324.875"/><use xlink:href="#DejaVuSans-65" x="386.057"/><use xlink:href="#DejaVuSans-6c" x="447.58"/><use xlink:href="#DejaVuSans-6e" x="475.363"/><use xlink:href="#DejaVuSans-57" x="538.742"/><use xlink:href="#DejaVuSans-61" x="631.244"/><use xlink:href="#DejaVuSans-6c" x="692.523"/><use xlink:href="#DejaVuSans-64" x="720.307"/><use xlink:href="#DejaVuSans-2c" x="783.783"/><use xlink:href="#DejaVuSans-20" x="815.57"/><use xlink:href="#DejaVuSans-62" x="847.357"/><use xlink:href="#DejaVuSans-3d" x="910.834"/><use xlink:href="#DejaVuSans-30" x="994.623"/><use xlink:href="#DejaVuSans-2e" x="1058.246"/><use xlink:href="#DejaVuSans-38" x="1090.033"/><use xlink:href="#DejaVuSans-39" x="1153.656"/><use xlink:href="#DejaVuSans-35" x="1217.279"/><use xlink:href="#DejaVuSans-30" x="1280.902"/><use xlink:href="#DejaVuSans-37" x="1344.525"/><use xlink:href="#DejaVuSans-36" x="1408.148"/><use xlink:href="#DejaVuSans-35" x="1471.771"/><use xlink:href="#DejaVuSans-2c" x="1535.395"/><use xlink:href="#DejaVuSans-20" x="1567.182"/><use xlink:href="#DejaVuSans-61" x="1598.969"/><use xlink:href="#DejaVuSans-3d" x="1660.248"/><use xlink:href="#DejaVuSans-30" x="1744.037"/><use xlink:href="#DejaVuSans-2e" x="1807.66"/><use xlink:href="#DejaVuSans-39" x="1839.447"/><use xlink:href="#DejaVuSans-33" x="1903.07"/><use xlink:href="#DejaVuSans-32" x="1966.693"/><use xlink:href="#DejaVuSans-33" x="2030.316"/><use xlink:href="#DejaVuSans-32" x="2093.939"/><use xlink:href="#DejaVuSans-33" x="2157.563"/><use xlink:href="#DejaVuSans-32" x="2221.186"/><use xlink:href="#DejaVuSans-2c" x="2284.809"/><use xlink:href="#DejaVuSans-20" x="2316.596"/><use xlink:href="#DejaVuSans-64" x="2348.383"/><use xlink:href="#DejaVuSans-3d" x="2411.859"/><use xlink:href="#DejaVuSans-30" x="2495.648"/><use xlink:href="#DejaVuSans-2e" x="2559.271"/><use xlink:href="#DejaVuSans-39" x="2591.059"/><use xlink:href="#DejaVuSans-36" x="2654.682"/><use xlink:href="#DejaVuSans-30" x="2718.305"/><use xlink:href="#DejaVuSans-30" x="2781.928"/><use xlink:href="#DejaVuSans-34" x="2845.551"/><use xlink:href="#DejaVuSans-39" x="2909.174"/><use xlink:href="#DejaVuSans-37" x="2972.797"/></g></g></g><defs><clipPath id="p00007101ab"><path d="M163.588 153.965h987.941v987.941H163.588z"/></clipPath></defs></svg>