<svg xmlns="http://www.w3.org/2000/svg" xmlns:xlink="http://www.w3.org/1999/xlink" width="1728" height="1728" viewBox="0 0 1296 1296"><defs><style>*{stroke-linejoin:round;stroke-linecap:butt}</style></defs><g id="figure_1"><path id="patch_1" d="M0 1296h1296V0H0z" style="fill:#fff"/><g id="axes_1"><path id="patch_2" d="M165.24 1153.44h997.92V155.52H165.24z" style="fill:#fff"/><path id="patch_3" d="M1063.368 355.104a99.797 99.797 0 0 0 70.564-29.228 99.797 99.797 0 0 0 29.228-70.564 99.797 99.797 0 0 0-29.228-70.564 99.797 99.797 0 0 0-70.564-29.228 99.797 99.797 0 0 0-70.564 29.228 99.797 99.797 0 0 0-29.228 70.564 99.797 99.797 0 0 0 29.228 70.564 99.797 99.797 0 0 0 70.564 29.228z" clip-path="url(#pdf0950ea2f)" style="fill:#5e4fa2"/><path id="patch_4" d="M863.784 355.104a99.797 99.797 0 0 0 70.564-29.228 99.797 99.797 0 0 0 29.228-70.564 99.797 99.797 0 0 0-29.228-70.564 99.797 99.797 0 0 0-70.564-29.228 99.797 99.797 0 0 0-70.564 29.228 99.797 99.797 0 0 0-29.228 70.564 99.797 99.797 0 0 0 29.228 70.564 99.797 99.797 0 0 0 70.564 29.228z" clip-path="url(#pdf0950ea2f)" style="fill:#5e4fa2"/><path id="patch_5" d="M263.036 351.112a97.8 97.8 0 0 0 69.152-28.644 97.8 97.8 0 0 0 28.644-69.152 97.8 97.8 0 0 0-28.644-69.152 97.8 97.8 0 0 0-69.152-28.644 97.8 97.8 0 0 0-69.152 28.644 97.8 97.8 0 0 0-28.644 69.152 97.8 97.8 0 0 0 28.644 69.152 97.8 97.8 0 0 0 69.152 28.644z" clip-path="url(#pdf0950ea2f)" style="fill:#555aa7"/><path id="patch_6" d="M1067.36 1153.44a95.805 95.805 0 0 0 67.74-28.06 95.805 95.805 0 0 0 28.06-67.74 95.805 95.805 0 0 0-28.06-67.741 95.805 95.805 0 0 0-67.74-28.06 95.805 95.805 0 0 0-67.741 28.06 95.805 95.805 0 0 0-28.06 67.74 95.805 95.805 0 0 0 28.06 67.742 95.805 95.805 0 0 0 67.74 28.059z" clip-path="url(#pdf0950ea2f)" style="fill:#4d65ad"/><path id="patch_7" d="M259.044 1153.44a93.809 93.809 0 0 0 66.33-27.475 93.809 93.809 0 0 0 27.475-66.33 93.809 93.809 0 0 0-27.475-66.33 93.809 93.809 0 0 0-66.33-27.474 93.809 93.809 0 0 0-66.33 27.475 93.809 93.809 0 0 0-27.474 66.33 93.809 93.809 0 0 0 27.475 66.33 93.809 93.809 0 0 0 66.33 27.474z" clip-path="url(#pdf0950ea2f)" style="fill:#4471b2"/><path id="patch_8" d="M1071.351 538.555a91.813 91.813 0 0 0 64.919-26.89 91.813 91.813 0 0 0 26.89-64.919 91.813 91.813 0 0 0-26.89-64.918 91.813 91.813 0 0 0-64.919-26.89 91.813 91.813 0 0 0-64.918 26.89 91.813 91.813 0 0 0-26.89 64.918 91.813 91.813 0 0 0 26.89 64.919 91.813 91.813 0 0 0 64.918 26.89z" clip-path="url(#pdf0950ea2f)" style="fill:#3b7cb7"/><path id="patch_9" d="M450.475 335.146a89.817 89.817 0 0 0 89.813-89.813 89.817 89.817 0 0 0-89.813-89.813 89.817 89.817 0 0 0-89.813 89.813 89.817 89.817 0 0 0 89.813 89.813z" clip-path="url(#pdf0950ea2f)" style="fill:#3389bd"/><path id="patch_10" d="M628.094 331.154a87.821 87.821 0 0 0 87.817-87.817 87.821 87.821 0 0 0-87.817-87.817 87.821 87.821 0 0 0-87.817 87.817 87.821 87.821 0 0 0 87.817 87.817z" clip-path="url(#pdf0950ea2f)" style="fill:#3d95b8"/><path id="patch_11" d="M886.013 1153.44a85.825 85.825 0 0 0 85.82-85.821 85.825 85.825 0 0 0-85.82-85.821 85.825 85.825 0 0 0-85.822 85.82 85.825 85.825 0 0 0 85.822 85.822z" clip-path="url(#pdf0950ea2f)" style="fill:#47a0b3"/><path id="patch_12" d="M436.394 1153.44a83.83 83.83 0 0 0 83.825-83.825 83.83 83.83 0 0 0-83.825-83.826 83.83 83.83 0 0 0-83.826 83.826 83.83 83.83 0 0 0 83.826 83.825z" clip-path="url(#pdf0950ea2f)" style="fill:#52abae"/><path id="patch_13" d="M1081.33 701.927a81.833 81.833 0 0 0 81.83-81.83 81.833 81.833 0 0 0-81.83-81.83 81.833 81.833 0 0 0-81.829 81.83 81.833 81.833 0 0 0 81.83 81.83z" clip-path="url(#pdf0950ea2f)" style="fill:#5eb9a9"/><path id="patch_14" d="M245.074 509.869a79.837 79.837 0 0 0 79.833-79.834 79.837 79.837 0 0 0-79.833-79.833 79.837 79.837 0 0 0-79.834 79.833 79.837 79.837 0 0 0 79.834 79.834z" clip-path="url(#pdf0950ea2f)" style="fill:#69c3a5"/><path id="patch_15" d="M722.549 1153.44a77.841 77.841 0 0 0 77.837-77.838 77.841 77.841 0 0 0-77.837-77.838 77.841 77.841 0 0 0-77.838 77.838 77.841 77.841 0 0 0 77.838 77.838z" clip-path="url(#pdf0950ea2f)" style="fill:#76c8a5"/><path id="patch_16" d="M241.082 966.785a75.845 75.845 0 0 0 75.842-75.842 75.845 75.845 0 0 0-75.842-75.842 75.845 75.845 0 0 0-75.842 75.842 75.845 75.845 0 0 0 75.842 75.842z" clip-path="url(#pdf0950ea2f)" style="fill:#84cea5"/><path id="patch_17" d="M239.086 657.444a73.85 73.85 0 0 0 73.846-73.846 73.85 73.85 0 0 0-73.846-73.846 73.85 73.85 0 0 0-73.846 73.846 73.85 73.85 0 0 0 73.846 73.846z" clip-path="url(#pdf0950ea2f)" style="fill:#91d3a4"/><path id="patch_18" d="M583.755 1153.44a61.874 61.874 0 0 0 61.871-61.871 61.874 61.874 0 0 0-61.87-61.871 61.874 61.874 0 0 0-61.872 61.871 61.874 61.874 0 0 0 61.871 61.871z" clip-path="url(#pdf0950ea2f)" style="fill:#dff299"/><path id="patch_19" d="M225.115 776.463a59.878 59.878 0 0 0 59.875-59.875 59.878 59.878 0 0 0-59.875-59.875 59.878 59.878 0 0 0-59.875 59.875 59.878 59.878 0 0 0 59.875 59.875z" clip-path="url(#pdf0950ea2f)" style="fill:#e8f69b"/><path id="patch_20" d="M362.496 1006.584a57.882 57.882 0 0 0 57.88-57.88 57.882 57.882 0 0 0-57.88-57.88 57.882 57.882 0 0 0-57.88 57.88 57.882 57.882 0 0 0 57.88 57.88z" clip-path="url(#pdf0950ea2f)" style="fill:#edf8a3"/><path id="patch_21" d="M332.573 729.426a55.886 55.886 0 0 0 55.884-55.883 55.886 55.886 0 0 0-55.884-55.884 55.886 55.886 0 0 0-55.883 55.884 55.886 55.886 0 0 0 55.883 55.883z" clip-path="url(#pdf0950ea2f)" style="fill:#f2faaa"/><path id="patch_22" d="M367.885 416.816a53.89 53.89 0 0 0 53.887-53.888 53.89 53.89 0 0 0-53.887-53.888 53.89 53.89 0 0 0-53.888 53.888 53.89 53.89 0 0 0 53.888 53.888z" clip-path="url(#pdf0950ea2f)" style="fill:#f8fcb4"/><path id="patch_23" d="M1141.206 370.88a21.955 21.955 0 1 0-.001-43.911 21.955 21.955 0 0 0 0 43.91z" clip-path="url(#pdf0950ea2f)" style="fill:#f47044"/><path id="patch_24" d="M185.198 988.713a19.96 19.96 0 1 0 0-39.918 19.96 19.96 0 0 0 0 39.918z" clip-path="url(#pdf0950ea2f)" style="fill:#ef6645"/><path id="patch_25" d="M514 1153.44a17.963 17.963 0 1 0 0-35.927 17.963 17.963 0 0 0 0 35.927z" clip-path="url(#pdf0950ea2f)" style="fill:#e85b48"/><path id="patch_26" d="M1147.193 187.453a15.967 15.967 0 1 0 0-31.934 15.967 15.967 0 0 0 0 31.934z" clip-path="url(#pdf0950ea2f)" style="fill:#e2514a"/><path id="patch_27" d="M1063.368 961.88a99.797 99.797 0 0 0 70.564-29.228 99.797 99.797 0 0 0 29.228-70.564 99.797 99.797 0 0 0-29.228-70.564 99.797 99.797 0 0 0-70.564-29.228 99.797 99.797 0 0 0-70.564 29.228 99.797 99.797 0 0 0-29.228 70.564 99.797 99.797 0 0 0 29.228 70.564 99.797 99.797 0 0 0 70.564 29.228z" clip-path="url(#pdf0950ea2f)" style="fill:#5e4fa2"/><path id="patch_28" d="M914.562 651.159a97.8 97.8 0 0 0 69.152-28.644 97.8 97.8 0 0 0 28.644-69.153 97.8 97.8 0 0 0-28.644-69.152 97.8 97.8 0 0 0-69.152-28.644 97.8 97.8 0 0 0-69.153 28.644 97.8 97.8 0 0 0-28.643 69.152 97.8 97.8 0 0 0 28.643 69.153 97.8 97.8 0 0 0 69.153 28.644z" clip-path="url(#pdf0950ea2f)" style="fill:#555aa7"/><path id="patch_29" d="M510.063 1001.591a95.805 95.805 0 0 0 67.74-28.059 95.805 95.805 0 0 0 28.06-67.741 95.805 95.805 0 0 0-28.06-67.741 95.805 95.805 0 0 0-67.74-28.06 95.805 95.805 0 0 0-67.741 28.06 95.805 95.805 0 0 0-28.06 67.74 95.805 95.805 0 0 0 28.06 67.742 95.805 95.805 0 0 0 67.74 28.06z" clip-path="url(#pdf0950ea2f)" style="fill:#4d65ad"/><path id="patch_30" d="M543.129 497.664a93.809 93.809 0 0 0 66.33-27.475 93.809 93.809 0 0 0 27.474-66.33 93.809 93.809 0 0 0-27.474-66.33 93.809 93.809 0 0 0-66.33-27.474 93.809 93.809 0 0 0-66.33 27.474 93.809 93.809 0 0 0-27.474 66.33 93.809 93.809 0 0 0 27.474 66.33 93.809 93.809 0 0 0 66.33 27.475z" clip-path="url(#pdf0950ea2f)" style="fill:#4471b2"/><path id="patch_31" d="M728.385 484.166a91.813 91.813 0 0 0 64.919-26.89 91.813 91.813 0 0 0 26.89-64.92 91.813 91.813 0 0 0-26.89-64.918 91.813 91.813 0 0 0-64.919-26.89 91.813 91.813 0 0 0-64.918 26.89 91.813 91.813 0 0 0-26.89 64.919 91.813 91.813 0 0 0 26.89 64.918 91.813 91.813 0 0 0 64.918 26.89z" clip-path="url(#pdf0950ea2f)" style="fill:#3b7cb7"/><path id="patch_32" d="M788.566 1011.31a89.817 89.817 0 0 0 89.813-89.813 89.817 89.817 0 0 0-89.813-89.813 89.817 89.817 0 0 0-89.812 89.813 89.817 89.817 0 0 0 89.812 89.813z" clip-path="url(#pdf0950ea2f)" style="fill:#3389bd"/><path id="patch_33" d="M633.817 358.935a13.972 13.972 0 1 0 0-27.943 13.972 13.972 0 0 0 0 27.943z" clip-path="url(#pdf0950ea2f)" style="fill:#dc484c"/><path id="patch_34" d="M1029.677 553.77a11.976 11.976 0 1 0 0-23.95 11.976 11.976 0 0 0 0 23.95z" clip-path="url(#pdf0950ea2f)" style="fill:#d63f4f"/><path id="patch_35" d="M1153.18 328.405a9.98 9.98 0 1 0 0-19.96 9.98 9.98 0 0 0 0 19.96z" clip-path="url(#pdf0950ea2f)" style="fill:#c9314c"/><path id="patch_36" d="M648.282 666.201a99.797 99.797 0 0 0 70.563-29.228 99.797 99.797 0 0 0 29.229-70.564 99.797 99.797 0 0 0-29.229-70.563 99.797 99.797 0 0 0-70.563-29.229 99.797 99.797 0 0 0-70.564 29.229 99.797 99.797 0 0 0-29.228 70.563 99.797 99.797 0 0 0 29.228 70.564 99.797 99.797 0 0 0 70.564 29.228z" clip-path="url(#pdf0950ea2f)" style="fill:#5e4fa2"/><path id="patch_37" d="M450.765 669.523a97.8 97.8 0 0 0 69.152-28.644 97.8 97.8 0 0 0 28.644-69.152 97.8 97.8 0 0 0-28.644-69.152 97.8 97.8 0 0 0-69.152-28.644 97.8 97.8 0 0 0-69.152 28.644 97.8 97.8 0 0 0-28.644 69.152 97.8 97.8 0 0 0 28.644 69.152 97.8 97.8 0 0 0 69.152 28.644z" clip-path="url(#pdf0950ea2f)" style="fill:#555aa7"/><path id="patch_38" d="M629.02 1039.465a47.902 47.902 0 0 0 47.9-47.9 47.902 47.902 0 0 0-47.9-47.9 47.902 47.902 0 0 0-47.9 47.9 47.902 47.902 0 0 0 47.9 47.9z" clip-path="url(#pdf0950ea2f)" style="fill:#fff6b0"/><path id="patch_39" d="M193.182 826.335a27.943 27.943 0 0 0 19.758-47.7 27.943 27.943 0 0 0-47.7 19.758 27.943 27.943 0 0 0 27.942 27.942z" clip-path="url(#pdf0950ea2f)" style="fill:#fa9656"/><path id="patch_40" d="M737.377 300.892a25.947 25.947 0 0 0 0-51.892 25.947 25.947 0 0 0 0 51.892z" clip-path="url(#pdf0950ea2f)" style="fill:#f88950"/><path id="patch_41" d="M1119.819 171.487a7.984 7.984 0 1 0 0-15.968 7.984 7.984 0 0 0 0 15.968z" clip-path="url(#pdf0950ea2f)" style="fill:#be254a"/><path id="patch_42" d="M1017.634 534.456a5.988 5.988 0 1 0 0-11.976 5.988 5.988 0 0 0 0 11.976z" clip-path="url(#pdf0950ea2f)" style="fill:#b41947"/><path id="patch_43" d="M1139.21 985.79a23.951 23.951 0 1 0-.001-47.903 23.951 23.951 0 0 0 0 47.902z" clip-path="url(#pdf0950ea2f)" style="fill:#f67c4a"/><path id="patch_44" d="M349.806 1153.44a21.955 21.955 0 1 0-.001-43.91 21.955 21.955 0 0 0 0 43.91z" clip-path="url(#pdf0950ea2f)" style="fill:#f47044"/><path id="patch_45" d="M1143.202 552.317a19.96 19.96 0 1 0-.001-39.919 19.96 19.96 0 0 0 0 39.919z" clip-path="url(#pdf0950ea2f)" style="fill:#ef6645"/><path id="patch_46" d="M1103.285 163.503a3.992 3.992 0 1 0 0-7.983 3.992 3.992 0 0 0 0 7.983z" clip-path="url(#pdf0950ea2f)" style="fill:#a90d45"/><path id="patch_47" d="M183.203 528.72a17.963 17.963 0 1 0-.001-35.927 17.963 17.963 0 0 0 0 35.927z" clip-path="url(#pdf0950ea2f)" style="fill:#e85b48"/><path id="patch_48" d="M181.207 1153.44a15.967 15.967 0 1 0 0-31.935 15.967 15.967 0 0 0 0 31.935z" clip-path="url(#pdf0950ea2f)" style="fill:#e2514a"/><path id="patch_49" d="M1161.164 159.512a1.996 1.996 0 1 0 0-3.992 1.996 1.996 0 0 0 0 3.992z" clip-path="url(#pdf0950ea2f)" style="fill:#9e0142"/><path id="patch_50" d="M641.605 466.813a13.972 13.972 0 1 0 0-27.943 13.972 13.972 0 0 0 0 27.943z" clip-path="url(#pdf0950ea2f)" style="fill:#dc484c"/><path id="patch_51" d="M975.638 1153.44a21.955 21.955 0 1 0-.001-43.91 21.955 21.955 0 0 0 0 43.91z" clip-path="url(#pdf0950ea2f)" style="fill:#f47044"/><path id="patch_52" d="M300.187 368.585a11.976 11.976 0 1 0 0-23.952 11.976 11.976 0 0 0 0 23.952z" clip-path="url(#pdf0950ea2f)" style="fill:#d63f4f"/><path id="patch_53" d="M1153.18 388.507a9.98 9.98 0 1 0 0-19.959 9.98 9.98 0 0 0 0 19.96z" clip-path="url(#pdf0950ea2f)" style="fill:#c9314c"/><path id="patch_54" d="M1155.177 206.844a7.984 7.984 0 1 0 0-15.967 7.984 7.984 0 0 0 0 15.967z" clip-path="url(#pdf0950ea2f)" style="fill:#be254a"/><path id="patch_55" d="M368.816 890.984a67.862 67.862 0 0 0 67.859-67.859 67.862 67.862 0 0 0-67.859-67.858 67.862 67.862 0 0 0-67.859 67.858 67.862 67.862 0 0 0 67.859 67.859z" clip-path="url(#pdf0950ea2f)" style="fill:#bae3a1"/><path id="patch_56" d="M181.207 187.453a15.967 15.967 0 1 0 0-31.934 15.967 15.967 0 0 0 0 31.934z" clip-path="url(#pdf0950ea2f)" style="fill:#e2514a"/><path id="patch_57" d="M1157.172 399.976a5.988 5.988 0 1 0 0-11.976 5.988 5.988 0 0 0 0 11.976z" clip-path="url(#pdf0950ea2f)" style="fill:#b41947"/><path id="patch_58" d="M965.592 203.42a23.951 23.951 0 1 0 0-47.902 23.951 23.951 0 0 0 0 47.902z" clip-path="url(#pdf0950ea2f)" style="fill:#f67c4a"/><path id="patch_59" d="M187.194 368.26a21.955 21.955 0 1 0 0-43.911 21.955 21.955 0 0 0 0 43.91z" clip-path="url(#pdf0950ea2f)" style="fill:#f47044"/><path id="patch_60" d="M540.992 310.076a13.972 13.972 0 1 0 0-27.943 13.972 13.972 0 0 0 0 27.943z" clip-path="url(#pdf0950ea2f)" style="fill:#dc484c"/><path id="patch_61" d="M963.576 402.62a43.91 43.91 0 0 0 43.908-43.909 43.91 43.91 0 0 0-43.908-43.908 43.91 43.91 0 0 0-43.908 43.908 43.91 43.91 0 0 0 43.908 43.909z" clip-path="url(#pdf0950ea2f)" style="fill:#fee999"/><path id="patch_62" d="M327.015 552.524a37.923 37.923 0 0 0 37.921-37.92 37.923 37.923 0 0 0-64.735-26.815 37.923 37.923 0 0 0 0 53.628 37.923 37.923 0 0 0 26.814 11.107z" clip-path="url(#pdf0950ea2f)" style="fill:#fed07e"/><path id="patch_63" d="M740.43 227.37a35.927 35.927 0 0 0 25.402-61.328 35.927 35.927 0 0 0-61.328 25.403 35.927 35.927 0 0 0 35.926 35.925z" clip-path="url(#pdf0950ea2f)" style="fill:#fdc574"/><path id="patch_64" d="M1133.222 749.025a29.939 29.939 0 0 0 21.17-51.106 29.939 29.939 0 0 0-51.107 21.169 29.939 29.939 0 0 0 29.937 29.937z" clip-path="url(#pdf0950ea2f)" style="fill:#fca55d"/><path id="patch_65" d="M952.343 461.377a27.943 27.943 0 0 0 19.758-47.7 27.943 27.943 0 0 0-47.7 19.758 27.943 27.943 0 0 0 27.942 27.942z" clip-path="url(#pdf0950ea2f)" style="fill:#fa9656"/><path id="patch_66" d="M803.24 1153.44a19.96 19.96 0 1 0-.001-39.919 19.96 19.96 0 0 0 0 39.919z" clip-path="url(#pdf0950ea2f)" style="fill:#ef6645"/><path id="patch_67" d="M692.95 179.47a11.976 11.976 0 1 0 0-23.951 11.976 11.976 0 0 0 0 23.951z" clip-path="url(#pdf0950ea2f)" style="fill:#d63f4f"/><path id="patch_68" d="M1159.168 219.387a3.992 3.992 0 1 0 0-7.984 3.992 3.992 0 0 0 0 7.984z" clip-path="url(#pdf0950ea2f)" style="fill:#a90d45"/><path id="patch_69" d="M960.824 792.499a73.85 73.85 0 0 0 73.847-73.846 73.85 73.85 0 0 0-73.847-73.846 73.85 73.85 0 0 0-73.846 73.846 73.85 73.85 0 0 0 73.846 73.846z" clip-path="url(#pdf0950ea2f)" style="fill:#91d3a4"/><path id="patch_70" d="M481.536 812.435a71.854 71.854 0 0 0 71.85-71.85 71.854 71.854 0 0 0-71.85-71.85 71.854 71.854 0 0 0-71.85 71.85 71.854 71.854 0 0 0 71.85 71.85z" clip-path="url(#pdf0950ea2f)" style="fill:#a2d9a4"/><path id="patch_71" d="M898.876 982.54a25.947 25.947 0 0 0 0-51.891 25.947 25.947 0 0 0 0 51.891z" clip-path="url(#pdf0950ea2f)" style="fill:#f88950"/><path id="patch_72" d="M443.66 370.855a17.963 17.963 0 1 0-.002-35.927 17.963 17.963 0 0 0 .001 35.927z" clip-path="url(#pdf0950ea2f)" style="fill:#e85b48"/><path id="patch_73" d="M1000.254 175.478a9.98 9.98 0 1 0 0-19.959 9.98 9.98 0 0 0 0 19.96z" clip-path="url(#pdf0950ea2f)" style="fill:#c9314c"/><path id="patch_74" d="M167.236 1153.44a1.996 1.996 0 1 0 0-3.992 1.996 1.996 0 0 0 0 3.992z" clip-path="url(#pdf0950ea2f)" style="fill:#9e0142"/><path id="patch_75" d="M650.669 869.619a99.797 99.797 0 0 0 70.563-29.229 99.797 99.797 0 0 0 29.229-70.563 99.797 99.797 0 0 0-29.229-70.564 99.797 99.797 0 0 0-70.563-29.228 99.797 99.797 0 0 0-70.564 29.228 99.797 99.797 0 0 0-29.228 70.564 99.797 99.797 0 0 0 29.228 70.563 99.797 99.797 0 0 0 70.564 29.229z" clip-path="url(#pdf0950ea2f)" style="fill:#5e4fa2"/><path id="patch_76" d="M918.41 933.435a43.91 43.91 0 0 0 43.908-43.908 43.91 43.91 0 0 0-43.908-43.909 43.91 43.91 0 0 0-43.909 43.909 43.91 43.91 0 0 0 43.909 43.908z" clip-path="url(#pdf0950ea2f)" style="fill:#fee999"/><path id="patch_77" d="M962.72 996.242a37.923 37.923 0 0 0 37.92-37.92 37.923 37.923 0 0 0-37.92-37.922 37.923 37.923 0 0 0-37.921 37.921 37.923 37.923 0 0 0 37.92 37.921z" clip-path="url(#pdf0950ea2f)" style="fill:#fed07e"/><path id="patch_78" d="M354.938 482.506a31.935 31.935 0 0 0 22.58-54.514 31.935 31.935 0 0 0-54.514 22.58 31.935 31.935 0 0 0 31.934 31.934z" clip-path="url(#pdf0950ea2f)" style="fill:#fdb163"/><path id="patch_79" d="M1074.683 761.604a29.939 29.939 0 0 0 21.17-51.107 29.939 29.939 0 0 0-51.107 21.17 29.939 29.939 0 0 0 29.937 29.937z" clip-path="url(#pdf0950ea2f)" style="fill:#fca55d"/><path id="patch_80" d="M386.04 756.897a23.951 23.951 0 1 0 0-47.903 23.951 23.951 0 0 0 0 47.903z" clip-path="url(#pdf0950ea2f)" style="fill:#f67c4a"/><path id="patch_81" d="M1147.193 1153.44a15.967 15.967 0 1 0 0-31.935 15.967 15.967 0 0 0 0 31.935z" clip-path="url(#pdf0950ea2f)" style="fill:#e2514a"/><path id="patch_82" d="M1155.177 515.096a7.984 7.984 0 1 0 0-15.967 7.984 7.984 0 0 0 0 15.967z" clip-path="url(#pdf0950ea2f)" style="fill:#be254a"/><path id="patch_83" d="M1143.202 792.79a19.96 19.96 0 1 0-.001-39.919 19.96 19.96 0 0 0 0 39.919z" clip-path="url(#pdf0950ea2f)" style="fill:#ef6645"/><path id="patch_84" d="M676.016 167.495a5.988 5.988 0 1 0 0-11.976 5.988 5.988 0 0 0 0 11.976z" clip-path="url(#pdf0950ea2f)" style="fill:#b41947"/><path id="patch_85" d="M797.476 1038.057a11.976 11.976 0 1 0 0-23.951 11.976 11.976 0 0 0 0 23.951z" clip-path="url(#pdf0950ea2f)" style="fill:#d63f4f"/><path id="patch_86" d="M540.277 199.428a21.955 21.955 0 1 0-.001-43.91 21.955 21.955 0 0 0 0 43.91z" clip-path="url(#pdf0950ea2f)" style="fill:#f47044"/><path id="patch_87" d="M181.207 670.716a15.967 15.967 0 1 0 0-31.935 15.967 15.967 0 0 0 0 31.935z" clip-path="url(#pdf0950ea2f)" style="fill:#e2514a"/><path id="patch_88" d="M1005.24 1153.44a9.98 9.98 0 1 0 0-19.96 9.98 9.98 0 0 0 0 19.96z" clip-path="url(#pdf0950ea2f)" style="fill:#c9314c"/><path id="patch_89" d="M1023.451 163.503a3.992 3.992 0 1 0 0-7.983 3.992 3.992 0 0 0 0 7.983z" clip-path="url(#pdf0950ea2f)" style="fill:#a90d45"/><path id="patch_90" d="M777.994 1153.44a7.984 7.984 0 1 0 0-15.967 7.984 7.984 0 0 0 0 15.967z" clip-path="url(#pdf0950ea2f)" style="fill:#be254a"/><path id="patch_91" d="M988.62 646.362a11.976 11.976 0 1 0 0-23.951 11.976 11.976 0 0 0 0 23.951z" clip-path="url(#pdf0950ea2f)" style="fill:#d63f4f"/><path id="patch_92" d="M167.236 159.512a1.996 1.996 0 1 0 0-3.992 1.996 1.996 0 0 0 0 3.992z" clip-path="url(#pdf0950ea2f)" style="fill:#9e0142"/><path id="patch_93" d="M815.308 767.243a73.85 73.85 0 0 0 73.846-73.846 73.85 73.85 0 0 0-73.846-73.846 73.85 73.85 0 0 0-73.846 73.846 73.85 73.85 0 0 0 73.846 73.846z" clip-path="url(#pdf0950ea2f)" style="fill:#91d3a4"/><path id="patch_94" d="M871.087 853.75a49.898 49.898 0 0 0 49.896-49.896 49.898 49.898 0 0 0-49.896-49.896 49.898 49.898 0 0 0-49.896 49.896 49.898 49.898 0 0 0 49.896 49.896z" clip-path="url(#pdf0950ea2f)" style="fill:#fffcba"/><path id="patch_95" d="M646.616 1153.44a15.967 15.967 0 1 0 0-31.935 15.967 15.967 0 0 0 0 31.935z" clip-path="url(#pdf0950ea2f)" style="fill:#e2514a"/><path id="patch_96" d="M1157.172 756.956a5.988 5.988 0 1 0 0-11.976 5.988 5.988 0 0 0 0 11.976z" clip-path="url(#pdf0950ea2f)" style="fill:#b41947"/><path id="patch_97" d="M787.501 831.453a33.93 33.93 0 0 0 23.992-57.921 33.93 33.93 0 0 0-57.921 23.991 33.93 33.93 0 0 0 33.93 33.93z" clip-path="url(#pdf0950ea2f)" style="fill:#fdbb6c"/><path id="patch_98" d="M175.22 1008.423a9.98 9.98 0 1 0-.001-19.959 9.98 9.98 0 0 0 0 19.96z" clip-path="url(#pdf0950ea2f)" style="fill:#c9314c"/><path id="patch_99" d="M882.513 449.712a47.902 47.902 0 0 0 47.9-47.9 47.902 47.902 0 0 0-47.9-47.9 47.902 47.902 0 0 0-47.9 47.9 47.902 47.902 0 0 0 47.9 47.9z" clip-path="url(#pdf0950ea2f)" style="fill:#fff6b0"/><path id="patch_100" d="M777.95 554.319a39.919 39.919 0 0 0 39.916-39.917 39.919 39.919 0 0 0-39.916-39.917 39.919 39.919 0 0 0-39.917 39.917 39.919 39.919 0 0 0 39.917 39.917z" clip-path="url(#pdf0950ea2f)" style="fill:#feda86"/><path id="patch_101" d="M641.787 941.178a35.927 35.927 0 0 0 25.403-61.328 35.927 35.927 0 0 0-61.328 25.403 35.927 35.927 0 0 0 35.925 35.925z" clip-path="url(#pdf0950ea2f)" style="fill:#fdc574"/><path id="patch_102" d="M1155.177 1122.876a7.984 7.984 0 1 0 0-15.967 7.984 7.984 0 0 0 0 15.967z" clip-path="url(#pdf0950ea2f)" style="fill:#be254a"/><path id="patch_103" d="M1159.168 299.22a3.992 3.992 0 1 0 0-7.983 3.992 3.992 0 0 0 0 7.983z" clip-path="url(#pdf0950ea2f)" style="fill:#a90d45"/><path id="patch_104" d="M934.673 175.478a9.98 9.98 0 1 0 0-19.959 9.98 9.98 0 0 0 0 19.96z" clip-path="url(#pdf0950ea2f)" style="fill:#c9314c"/><path id="patch_105" d="M711.097 167.495a5.988 5.988 0 1 0 0-11.976 5.988 5.988 0 0 0 0 11.976z" clip-path="url(#pdf0950ea2f)" style="fill:#b41947"/><path id="patch_106" d="M1161.164 1153.44a1.996 1.996 0 1 0 0-3.992 1.996 1.996 0 0 0 0 3.992z" clip-path="url(#pdf0950ea2f)" style="fill:#9e0142"/><path id="patch_107" d="M488.132 1153.44a7.984 7.984 0 1 0 0-15.967 7.984 7.984 0 0 0 0 15.967z" clip-path="url(#pdf0950ea2f)" style="fill:#be254a"/><path id="patch_108" d="M944.086 838.956a23.951 23.951 0 1 0 0-47.903 23.951 23.951 0 0 0 0 47.903z" clip-path="url(#pdf0950ea2f)" style="fill:#f67c4a"/><path id="patch_109" d="M789.107 183.462a13.972 13.972 0 1 0-.001-27.943 13.972 13.972 0 0 0 0 27.943z" clip-path="url(#pdf0950ea2f)" style="fill:#dc484c"/><path id="patch_110" d="M1159.168 309.795a3.992 3.992 0 1 0 0-7.984 3.992 3.992 0 0 0 0 7.984z" clip-path="url(#pdf0950ea2f)" style="fill:#a90d45"/><path id="patch_111" d="M696.12 1001.403a19.96 19.96 0 1 0-.002-39.918 19.96 19.96 0 0 0 .001 39.918z" clip-path="url(#pdf0950ea2f)" style="fill:#ef6645"/><path id="patch_112" d="M434.876 401.632a15.967 15.967 0 1 0 0-31.935 15.967 15.967 0 0 0 0 31.935z" clip-path="url(#pdf0950ea2f)" style="fill:#e2514a"/><path id="patch_113" d="M946.035 1153.44a9.98 9.98 0 1 0 0-19.96 9.98 9.98 0 0 0 0 19.96z" clip-path="url(#pdf0950ea2f)" style="fill:#c9314c"/><path id="patch_114" d="M627.061 1153.44a5.988 5.988 0 1 0 0-11.976 5.988 5.988 0 0 0 0 11.976z" clip-path="url(#pdf0950ea2f)" style="fill:#b41947"/><path id="patch_115" d="M302.96 771.631a23.951 23.951 0 1 0 0-47.902 23.951 23.951 0 0 0 0 47.902z" clip-path="url(#pdf0950ea2f)" style="fill:#f67c4a"/><path id="patch_116" d="M678.362 965.901a17.963 17.963 0 1 0 0-35.927 17.963 17.963 0 0 0 0 35.927z" clip-path="url(#pdf0950ea2f)" style="fill:#e85b48"/><path id="patch_117" d="M894.926 673.338a11.976 11.976 0 1 0 0-23.951 11.976 11.976 0 0 0 0 23.951z" clip-path="url(#pdf0950ea2f)" style="fill:#d63f4f"/><path id="patch_118" d="M173.223 542.69a7.984 7.984 0 1 0 0-15.967 7.984 7.984 0 0 0 0 15.967z" clip-path="url(#pdf0950ea2f)" style="fill:#be254a"/><path id="patch_119" d="M1161.164 285.533a1.996 1.996 0 1 0 0-3.992 1.996 1.996 0 0 0 0 3.992z" clip-path="url(#pdf0950ea2f)" style="fill:#9e0142"/><path id="patch_120" d="M780.213 622.143a33.93 33.93 0 0 0 23.992-57.921 33.93 33.93 0 0 0-57.921 23.991 33.93 33.93 0 0 0 33.93 33.93z" clip-path="url(#pdf0950ea2f)" style="fill:#fdbb6c"/><path id="patch_121" d="M273.111 818.07a27.943 27.943 0 0 0 19.758-47.7 27.943 27.943 0 0 0-47.7 19.758 27.943 27.943 0 0 0 27.942 27.942z" clip-path="url(#pdf0950ea2f)" style="fill:#fa9656"/><path id="patch_122" d="M361.666 199.428a21.955 21.955 0 1 0 0-43.91 21.955 21.955 0 0 0 0 43.91z" clip-path="url(#pdf0950ea2f)" style="fill:#f47044"/><path id="patch_123" d="M686.976 895.71a15.967 15.967 0 1 0 0-31.934 15.967 15.967 0 0 0 0 31.935z" clip-path="url(#pdf0950ea2f)" style="fill:#e2514a"/><path id="patch_124" d="M549.65 624.57a9.98 9.98 0 1 0 0-19.96 9.98 9.98 0 0 0 0 19.96z" clip-path="url(#pdf0950ea2f)" style="fill:#c9314c"/><path id="patch_125" d="M617.283 1153.44a3.992 3.992 0 1 0 0-7.984 3.992 3.992 0 0 0 0 7.984z" clip-path="url(#pdf0950ea2f)" style="fill:#a90d45"/><path id="patch_126" d="M748.06 646.906a17.963 17.963 0 1 0-.001-35.927 17.963 17.963 0 0 0 0 35.927z" clip-path="url(#pdf0950ea2f)" style="fill:#e85b48"/><path id="patch_127" d="M1015.574 975.096a11.976 11.976 0 1 0 0-23.951 11.976 11.976 0 0 0 0 23.95z" clip-path="url(#pdf0950ea2f)" style="fill:#d63f4f"/><path id="patch_128" d="M823.953 492.459a27.943 27.943 0 0 0 19.757-47.7 27.943 27.943 0 0 0-47.7 19.758 27.943 27.943 0 0 0 27.943 27.942z" clip-path="url(#pdf0950ea2f)" style="fill:#fa9656"/><path id="patch_129" d="M530.71 1043.675a21.955 21.955 0 1 0-.001-43.91 21.955 21.955 0 0 0 0 43.91z" clip-path="url(#pdf0950ea2f)" style="fill:#f47044"/><path id="patch_130" d="M331.824 617.663a19.96 19.96 0 1 0 0-39.919 19.96 19.96 0 0 0 0 39.919z" clip-path="url(#pdf0950ea2f)" style="fill:#ef6645"/><path id="patch_131" d="M1112.093 773.259a13.972 13.972 0 1 0 0-27.943 13.972 13.972 0 0 0 0 27.943z" clip-path="url(#pdf0950ea2f)" style="fill:#dc484c"/><path id="patch_132" d="M769.762 167.495a5.988 5.988 0 1 0 0-11.976 5.988 5.988 0 0 0 0 11.976z" clip-path="url(#pdf0950ea2f)" style="fill:#b41947"/><path id="patch_133" d="M1124.613 1153.44a7.984 7.984 0 1 0 0-15.967 7.984 7.984 0 0 0 0 15.967z" clip-path="url(#pdf0950ea2f)" style="fill:#be254a"/><path id="patch_134" d="M1153.18 940.9a9.98 9.98 0 1 0 0-19.96 9.98 9.98 0 0 0 0 19.96z" clip-path="url(#pdf0950ea2f)" style="fill:#c9314c"/><path id="patch_135" d="M1035.143 159.512a1.996 1.996 0 1 0 0-3.992 1.996 1.996 0 0 0 0 3.992z" clip-path="url(#pdf0950ea2f)" style="fill:#9e0142"/><path id="patch_136" d="M546.922 528.726a13.972 13.972 0 1 0-.001-27.943 13.972 13.972 0 0 0 0 27.943z" clip-path="url(#pdf0950ea2f)" style="fill:#dc484c"/><path id="patch_137" d="M544.105 815.508a11.976 11.976 0 1 0 0-23.95 11.976 11.976 0 0 0 0 23.95z" clip-path="url(#pdf0950ea2f)" style="fill:#d63f4f"/><path id="patch_138" d="M560.406 707.388a27.943 27.943 0 0 0 19.758-47.7 27.943 27.943 0 0 0-47.7 19.759 27.943 27.943 0 0 0 27.942 27.941z" clip-path="url(#pdf0950ea2f)" style="fill:#fa9656"/><path id="patch_139" d="M1131.227 163.503a3.992 3.992 0 1 0 0-7.983 3.992 3.992 0 0 0 0 7.983z" clip-path="url(#pdf0950ea2f)" style="fill:#a90d45"/><path id="patch_140" d="M807.399 167.495a5.988 5.988 0 1 0 0-11.976 5.988 5.988 0 0 0 0 11.976z" clip-path="url(#pdf0950ea2f)" style="fill:#b41947"/><path id="patch_141" d="M175.22 325.775a9.98 9.98 0 1 0-.001-19.96 9.98 9.98 0 0 0 0 19.96z" clip-path="url(#pdf0950ea2f)" style="fill:#c9314c"/><path id="patch_142" d="M173.223 1122.876a7.984 7.984 0 1 0 0-15.967 7.984 7.984 0 0 0 0 15.967z" clip-path="url(#pdf0950ea2f)" style="fill:#be254a"/><path id="patch_143" d="M231.757 800.105a11.976 11.976 0 1 0 0-23.95 11.976 11.976 0 0 0 0 23.95z" clip-path="url(#pdf0950ea2f)" style="fill:#d63f4f"/><path id="patch_144" d="M404.083 713.079a17.963 17.963 0 1 0 0-35.927 17.963 17.963 0 0 0 0 35.927z" clip-path="url(#pdf0950ea2f)" style="fill:#e85b48"/><path id="patch_145" d="M564.05 1019.62a15.967 15.967 0 1 0 0-31.934 15.967 15.967 0 0 0 0 31.935z" clip-path="url(#pdf0950ea2f)" style="fill:#e2514a"/><path id="patch_146" d="M832.926 378.78a13.972 13.972 0 1 0 0-27.942 13.972 13.972 0 0 0 0 27.943z" clip-path="url(#pdf0950ea2f)" style="fill:#dc484c"/><path id="patch_147" d="M1159.168 407.757a3.992 3.992 0 1 0 0-7.983 3.992 3.992 0 0 0 0 7.983z" clip-path="url(#pdf0950ea2f)" style="fill:#a90d45"/><path id="patch_148" d="M1161.164 229.082a1.996 1.996 0 1 0 0-3.991 1.996 1.996 0 0 0 0 3.991z" clip-path="url(#pdf0950ea2f)" style="fill:#9e0142"/><path id="patch_149" d="M175.22 845.9a9.98 9.98 0 1 0-.001-19.959 9.98 9.98 0 0 0 0 19.96z" clip-path="url(#pdf0950ea2f)" style="fill:#c9314c"/><path id="patch_150" d="M384.656 1153.44a7.984 7.984 0 1 0 0-15.967 7.984 7.984 0 0 0 0 15.967z" clip-path="url(#pdf0950ea2f)" style="fill:#be254a"/><path id="patch_151" d="M1157.172 921.448a5.988 5.988 0 1 0 0-11.976 5.988 5.988 0 0 0 0 11.976z" clip-path="url(#pdf0950ea2f)" style="fill:#b41947"/><path id="patch_152" d="M724.617 683.205a21.955 21.955 0 1 0 0-43.91 21.955 21.955 0 0 0 0 43.91z" clip-path="url(#pdf0950ea2f)" style="fill:#f47044"/><path id="patch_153" d="M1153.18 1005.78a9.98 9.98 0 1 0 0-19.96 9.98 9.98 0 0 0 0 19.96z" clip-path="url(#pdf0950ea2f)" style="fill:#c9314c"/><path id="patch_154" d="M833.662 1153.44a7.984 7.984 0 1 0 0-15.967 7.984 7.984 0 0 0 0 15.967z" clip-path="url(#pdf0950ea2f)" style="fill:#be254a"/><path id="patch_155" d="M171.228 684.707a5.988 5.988 0 1 0 0-11.976 5.988 5.988 0 0 0 0 11.976z" clip-path="url(#pdf0950ea2f)" style="fill:#b41947"/><path id="patch_156" d="M985.147 163.503a3.992 3.992 0 1 0 0-7.983 3.992 3.992 0 0 0 0 7.983z" clip-path="url(#pdf0950ea2f)" style="fill:#a90d45"/><path id="patch_157" d="M1091.593 159.512a1.996 1.996 0 1 0 0-3.992 1.996 1.996 0 0 0 0 3.992z" clip-path="url(#pdf0950ea2f)" style="fill:#9e0142"/><path id="patch_158" d="M1153.18 570.563a9.98 9.98 0 1 0 0-19.96 9.98 9.98 0 0 0 0 19.96z" clip-path="url(#pdf0950ea2f)" style="fill:#c9314c"/><path id="patch_159" d="M1155.177 806.06a7.984 7.984 0 1 0 0-15.967 7.984 7.984 0 0 0 0 15.967z" clip-path="url(#pdf0950ea2f)" style="fill:#be254a"/><path id="patch_160" d="M912.672 167.495a5.988 5.988 0 1 0 0-11.976 5.988 5.988 0 0 0 0 11.976z" clip-path="url(#pdf0950ea2f)" style="fill:#b41947"/><path id="patch_161" d="M1015.468 163.503a3.992 3.992 0 1 0 0-7.983 3.992 3.992 0 0 0 0 7.983z" clip-path="url(#pdf0950ea2f)" style="fill:#a90d45"/><path id="patch_162" d="M1161.164 517.092a1.996 1.996 0 1 0 0-3.992 1.996 1.996 0 0 0 0 3.992z" clip-path="url(#pdf0950ea2f)" style="fill:#9e0142"/><path id="patch_163" d="M325.516 175.478a9.98 9.98 0 1 0 0-19.959 9.98 9.98 0 0 0 0 19.96z" clip-path="url(#pdf0950ea2f)" style="fill:#c9314c"/><path id="patch_164" d="M173.223 768.298a7.984 7.984 0 1 0 0-15.968 7.984 7.984 0 0 0 0 15.968z" clip-path="url(#pdf0950ea2f)" style="fill:#be254a"/><path id="patch_165" d="M349.639 757.545a13.972 13.972 0 1 0 0-27.943 13.972 13.972 0 0 0 0 27.943z" clip-path="url(#pdf0950ea2f)" style="fill:#dc484c"/><path id="patch_166" d="M1157.172 817.892a5.988 5.988 0 1 0 0-11.975 5.988 5.988 0 0 0 0 11.975z" clip-path="url(#pdf0950ea2f)" style="fill:#b41947"/><path id="patch_167" d="M421.626 477.194a33.93 33.93 0 0 0 23.991-57.92 33.93 33.93 0 0 0-57.92 23.991 33.93 33.93 0 0 0 33.929 33.93z" clip-path="url(#pdf0950ea2f)" style="fill:#fdbb6c"/><path id="patch_168" d="M323.274 578.912a11.976 11.976 0 1 0 0-23.951 11.976 11.976 0 0 0 0 23.95z" clip-path="url(#pdf0950ea2f)" style="fill:#d63f4f"/><g id="matplotlib.axis_1"><g id="xtick_1"><g id="line2d_1"><defs><path id="meba591e8d8" d="M0 0v3.5" style="stroke:#000;stroke-width:.8"/></defs><use xlink:href="#meba591e8d8" x="165.24" y="1153.44" style="stroke:#000;stroke-width:.8"/></g><g id="text_1" transform="matrix(.1 0 0 -.1 162.059 1168.038)"><defs><path id="DejaVuSans-30" d="M2034 4250q-487 0-733-480-245-479-245-1442 0-959 245-1439 246-480 733-480 491 0 736 480 246 480 246 1439 0 963-246 1442-245 480-736 480zm0 500q785 0 1199-621 414-620 414-1801 0-1178-414-1799Q2819-91 2034-91q-784 0-1198 620-414 621-414 1799 0 1181 414 1801 414 621 1198 621z" transform="scale(.01563)"/></defs><use xlink:href="#DejaVuSans-30"/></g></g><g id="xtick_2"><use xlink:href="#meba591e8d8" id="line2d_2" x="364.824" y="1153.44" style="stroke:#000;stroke-width:.8"/><g id="text_2" transform="matrix(.1 0 0 -.1 355.28 1168.038)"><defs><path id="DejaVuSans-32" d="M1228 531h2203V0H469v531q359 372 979 998 621 627 780 809 303 340 423 576 121 236 121 464 0 372-261 606-261 235-680 235-297 0-627-103-329-103-704-313v638q381 153 712 231 332 78 607 78 725 0 1156-363 431-362 431-968 0-288-108-546-107-257-392-607-78-91-497-524-418-433-1181-1211z" transform="scale(.01563)"/></defs><use xlink:href="#DejaVuSans-32"/><use xlink:href="#DejaVuSans-30" x="63.623"/><use xlink:href="#DejaVuSans-30" x="127.246"/></g></g><g id="xtick_3"><use xlink:href="#meba591e8d8" id="line2d_3" x="564.408" y="1153.44" style="stroke:#000;stroke-width:.8"/><g id="text_3" transform="matrix(.1 0 0 -.1 554.864 1168.038)"><defs><path id="DejaVuSans-34" d="M2419 4116 825 1625h1594v2491zm-166 550h794V1625h666v-525h-666V0h-628v1100H313v609l1940 2957z" transform="scale(.01563)"/></defs><use xlink:href="#DejaVuSans-34"/><use xlink:href="#DejaVuSans-30" x="63.623"/><use xlink:href="#DejaVuSans-30" x="127.246"/></g></g><g id="xtick_4"><use xlink:href="#meba591e8d8" id="line2d_4" x="763.992" y="1153.44" style="stroke:#000;stroke-width:.8"/><g id="text_4" transform="matrix(.1 0 0 -.1 754.448 1168.038)"><defs><path id="DejaVuSans-36" d="M2113 2584q-425 0-674-291-248-290-248-796 0-503 248-796 249-292 674-292t673 292q248 293 248 796 0 506-248 796-248 291-673 291zm1253 1979v-575q-238 112-480 171-242 60-480 60-625 0-955-422-329-422-376-1275 184 272 462 417 279 145 613 145 703 0 1111-427 408-426 408-1160 0-719-425-1154Q2819-91 2113-91q-810 0-1238 620-428 621-428 1799 0 1106 525 1764t1409 658q238 0 480-47t505-140z" transform="scale(.01563)"/></defs><use xlink:href="#DejaVuSans-36"/><use xlink:href="#DejaVuSans-30" x="63.623"/><use xlink:href="#DejaVuSans-30" x="127.246"/></g></g><g id="xtick_5"><use xlink:href="#meba591e8d8" id="line2d_5" x="963.576" y="1153.44" style="stroke:#000;stroke-width:.8"/><g id="text_5" transform="matrix(.1 0 0 -.1 954.032 1168.038)"><defs><path id="DejaVuSans-38" d="M2034 2216q-450 0-708-241-257-241-257-662 0-422 257-663 258-241 708-241t709 242q260 243 260 662 0 421-258 662-257 241-711 241zm-631 268q-406 100-633 378-226 279-226 679 0 559 398 884 399 325 1092 325 697 0 1094-325t397-884q0-400-227-679-226-278-629-378 456-106 710-416 255-309 255-755 0-679-414-1042Q2806-91 2034-91q-771 0-1186 362-414 363-414 1042 0 446 256 755 257 310 713 416zm-231 997q0-362 226-565 227-203 636-203 407 0 636 203 230 203 230 565 0 363-230 566-229 203-636 203-409 0-636-203-226-203-226-566z" transform="scale(.01563)"/></defs><use xlink:href="#DejaVuSans-38"/><use xlink:href="#DejaVuSans-30" x="63.623"/><use xlink:href="#DejaVuSans-30" x="127.246"/></g></g><g id="xtick_6"><use xlink:href="#meba591e8d8" id="line2d_6" x="1163.16" y="1153.44" style="stroke:#000;stroke-width:.8"/><g id="text_6" transform="matrix(.1 0 0 -.1 1150.435 1168.038)"><defs><path id="DejaVuSans-31" d="M794 531h1031v3560L703 3866v575l1116 225h631V531h1031V0H794v531z" transform="scale(.01563)"/></defs><use xlink:href="#DejaVuSans-31"/><use xlink:href="#DejaVuSans-30" x="63.623"/><use xlink:href="#DejaVuSans-30" x="127.246"/><use xlink:href="#DejaVuSans-30" x="190.869"/></g></g></g><g id="matplotlib.axis_2"><g id="ytick_1"><g id="line2d_7"><defs><path id="mc8c83f8913" d="M0 0h-3.5" style="stroke:#000;stroke-width:.8"/></defs><use xlink:href="#mc8c83f8913" x="165.24" y="1153.44" style="stroke:#000;stroke-width:.8"/></g><use xlink:href="#DejaVuSans-30" id="text_7" transform="matrix(.1 0 0 -.1 151.877 1157.24)"/></g><g id="ytick_2"><use xlink:href="#mc8c83f8913" id="line2d_8" x="165.24" y="953.856" style="stroke:#000;stroke-width:.8"/><g id="text_8" transform="matrix(.1 0 0 -.1 139.153 957.655)"><use xlink:href="#DejaVuSans-32"/><use xlink:href="#DejaVuSans-30" x="63.623"/><use xlink:href="#DejaVuSans-30" x="127.246"/></g></g><g id="ytick_3"><use xlink:href="#mc8c83f8913" id="line2d_9" x="165.24" y="754.272" style="stroke:#000;stroke-width:.8"/><g id="text_9" transform="matrix(.1 0 0 -.1 139.153 758.071)"><use xlink:href="#DejaVuSans-34"/><use xlink:href="#DejaVuSans-30" x="63.623"/><use xlink:href="#DejaVuSans-30" x="127.246"/></g></g><g id="ytick_4"><use xlink:href="#mc8c83f8913" id="line2d_10" x="165.24" y="554.688" style="stroke:#000;stroke-width:.8"/><g id="text_10" transform="matrix(.1 0 0 -.1 139.153 558.487)"><use xlink:href="#DejaVuSans-36"/><use xlink:href="#DejaVuSans-30" x="63.623"/><use xlink:href="#DejaVuSans-30" x="127.246"/></g></g><g id="ytick_5"><use xlink:href="#mc8c83f8913" id="line2d_11" x="165.24" y="355.104" style="stroke:#000;stroke-width:.8"/><g id="text_11" transform="matrix(.1 0 0 -.1 139.153 358.903)"><use xlink:href="#DejaVuSans-38"/><use xlink:href="#DejaVuSans-30" x="63.623"/><use xlink:href="#DejaVuSans-30" x="127.246"/></g></g><g id="ytick_6"><use xlink:href="#mc8c83f8913" id="line2d_12" x="165.24" y="155.52" style="stroke:#000;stroke-width:.8"/><g id="text_12" transform="matrix(.1 0 0 -.1 132.79 159.32)"><use xlink:href="#DejaVuSans-31"/><use xlink:href="#DejaVuSans-30" x="63.623"/><use xlink:href="#DejaVuSans-30" x="127.246"/><use xlink:href="#DejaVuSans-30" x="190.869"/></g></g></g><path id="patch_169" d="M165.24 1153.44V155.52" style="fill:none;stroke:#000;stroke-width:.8;stroke-linejoin:miter;stroke-linecap:square"/><path id="patch_170" d="M1163.16 1153.44V155.52" style="fill:none;stroke:#000;stroke-width:.8;stroke-linejoin:miter;stroke-linecap:square"/><path id="patch_171" d="M165.24 1153.44h997.92" style="fill:none;stroke:#000;stroke-width:.8;stroke-linejoin:miter;stroke-linecap:square"/><path id="patch_172" d="M165.24 155.52h997.92" style="fill:none;stroke:#000;stroke-width:.8;stroke-linejoin:miter;stroke-linecap:square"/><g id="text_13" transform="matrix(.12 0 0 -.12 438.434 149.52)"><defs><path id="DejaVuSans-4c" d="M628 4666h631V531h2272V0H628v4666z" transform="scale(.01563)"/><path id="DejaVuSans-69" d="M603 3500h575V0H603v3500zm0 1363h575v-729H603v729z" transform="scale(.01563)"/><path id="DejaVuSans-6e" d="M3513 2113V0h-575v2094q0 497-194 743-194 247-581 247-466 0-735-297-269-296-269-809V0H581v3500h578v-544q207 316 486 472 280 156 646 156 603 0 912-373 310-373 310-1098z" transform="scale(.01563)"/><path id="DejaVuSans-65" d="M3597 1894v-281H953q38-594 358-905t892-311q331 0 642 81t618 244V178Q3153 47 2828-22t-659-69q-838 0-1327 487-489 488-489 1320 0 859 464 1363 464 505 1252 505 706 0 1117-455 411-454 411-1235zm-575 169q-6 471-264 752-258 282-683 282-481 0-770-272t-333-766l2050 4z" transform="scale(.01563)"/><path id="DejaVuSans-61" d="M2194 1759q-697 0-966-159t-269-544q0-306 202-486 202-179 548-179 479 0 768 339t289 901v128h-572zm1147 238V0h-575v531q-197-318-491-470T1556-91q-537 0-855 302-317 302-317 808 0 590 395 890 396 300 1180 300h807v57q0 397-261 614t-733 217q-300 0-585-72-284-72-546-216v532q315 122 612 182 297 61 578 61 760 0 1135-394 375-393 375-1193z" transform="scale(.01563)"/><path id="DejaVuSans-72" d="M2631 2963q-97 56-211 82-114 27-251 27-488 0-749-317t-261-911V0H581v3500h578v-544q182 319 472 473 291 155 707 155 59 0 131-8 72-7 159-23l3-590z" transform="scale(.01563)"/><path id="DejaVuSans-52" d="M2841 2188q203-69 395-294t386-619L4263 0h-679l-596 1197q-232 469-449 622t-592 153h-688V0H628v4666h1425q800 0 1194-335 394-334 394-1009 0-441-205-732-205-290-595-402zM1259 4147V2491h794q456 0 689 211t233 620q0 409-233 617t-689 208h-794z" transform="scale(.01563)"/><path id="DejaVuSans-64" d="M2906 2969v1894h575V0h-575v525q-181-312-458-464-276-152-664-152-634 0-1033 506-398 507-398 1332t398 1331q399 506 1033 506 388 0 664-152 277-151 458-463zM947 1747q0-634 261-995t717-361q456 0 718 361 263 361 263 995t-263 995q-262 361-718 361t-717-361q-261-361-261-995z" transform="scale(.01563)"/><path id="DejaVuSans-75" d="M544 1381v2119h575V1403q0-497 193-746 194-248 582-248 465 0 735 297 271 297 271 810v1984h575V0h-575v538q-209-319-486-474-276-155-642-155-603 0-916 375-312 375-312 1097zm1447 2203z" transform="scale(.01563)"/><path id="DejaVuSans-73" d="M2834 3397v-544q-243 125-506 187-262 63-544 63-428 0-642-131t-214-394q0-200 153-314t616-217l197-44q612-131 870-370t258-667q0-488-386-773Q2250-91 1575-91q-281 0-586 55T347 128v594q319-166 628-249 309-82 613-82 406 0 624 139 219 139 219 392 0 234-158 359-157 125-692 241l-200 47q-534 112-772 345-237 233-237 639 0 494 350 762 350 269 994 269 318 0 599-47 282-46 519-140z" transform="scale(.01563)"/><path id="DejaVuSans-56" d="M1831 0 50 4666h659L2188 738l1481 3928h656L2547 0h-716z" transform="scale(.01563)"/><path id="DejaVuSans-74" d="M1172 4494v-994h1184v-447H1172V1153q0-428 117-550t477-122h590V0h-590q-666 0-919 248-253 249-253 905v1900H172v447h422v994h578z" transform="scale(.01563)"/><path id="DejaVuSans-6f" d="M1959 3097q-462 0-731-361t-269-989q0-628 267-989 268-361 733-361 460 0 728 362 269 363 269 988 0 622-269 986-268 364-728 364zm0 487q750 0 1178-488 429-487 429-1349 0-859-429-1349Q2709-91 1959-91q-753 0-1180 489-426 490-426 1349 0 862 426 1349 427 488 1180 488z" transform="scale(.01563)"/><path id="DejaVuSans-46" d="M628 4666h2681v-532H1259V2759h1850v-531H1259V0H628v4666z" transform="scale(.01563)"/><path id="DejaVuSans-5f" d="M3263-1063v-446H-63v446h3326z" transform="scale(.01563)"/><path id="DejaVuSans-2c" d="M750 794h659V256L897-744H494L750 256v538z" transform="scale(.01563)"/><path id="DejaVuSans-62" d="M3116 1747q0 634-261 995t-717 361q-457 0-718-361t-261-995q0-634 261-995t718-361q456 0 717 361t261 995zM1159 2969q182 312 458 463 277 152 661 152 638 0 1036-506 399-506 399-1331T3314 415Q2916-91 2278-91q-384 0-661 152-276 152-458 464V0H581v4863h578V2969z" transform="scale(.01563)"/><path id="DejaVuSans-3d" d="M678 2906h4006v-525H678v525zm0-1275h4006v-531H678v531z" transform="scale(.01563)"/><path id="DejaVuSans-2e" d="M684 794h660V0H684v794z" transform="scale(.01563)"/><path id="DejaVuSans-37" d="M525 4666h3000v-269L1831 0h-659l1594 4134H525v532z" transform="scale(.01563)"/><path id="DejaVuSans-39" d="M703 97v575q238-113 481-172 244-59 479-59 625 0 954 420 330 420 377 1277-181-269-460-413-278-144-615-144-700 0-1108 423-408 424-408 1159 0 718 425 1152 425 435 1131 435 810 0 1236-621 427-620 427-1801 0-1103-524-1761Q2575-91 1691-91q-238 0-482 47Q966 3 703 97zm1256 1978q425 0 673 290 249 291 249 798 0 503-249 795-248 292-673 292t-673-292q-248-292-248-795 0-507 248-798 248-290 673-290z" transform="scale(.01563)"/><path id="DejaVuSans-33" d="M2597 2516q453-97 707-404 255-306 255-756 0-690-475-1069Q2609-91 1734-91q-293 0-604 58T488 141v609q262-153 574-231 313-78 654-78 593 0 904 234t311 681q0 413-289 645-289 233-804 233h-544v519h569q465 0 712 186t247 536q0 359-255 551-254 193-729 193-260 0-557-57-297-56-653-174v562q360 100 674 150t592 50q719 0 1137-327 419-326 419-882 0-388-222-655t-631-370z" transform="scale(.01563)"/><path id="DejaVuSans-35" d="M691 4666h2478v-532H1269V2991q137 47 274 70 138 23 276 23 781 0 1237-428 457-428 457-1159 0-753-469-1171Q2575-91 1722-91q-294 0-599 50Q819 9 494 109v635q281-153 581-228t634-75q541 0 856 284 316 284 316 772 0 487-316 771-315 285-856 285-253 0-505-56-251-56-513-175v2344z" transform="scale(.01563)"/></defs><use xlink:href="#DejaVuSans-4c"/><use xlink:href="#DejaVuSans-69" x="55.713"/><use xlink:href="#DejaVuSans-6e" x="83.496"/><use xlink:href="#DejaVuSans-65" x="146.875"/><use xlink:href="#DejaVuSans-61" x="208.398"/><use xlink:href="#DejaVuSans-72" x="269.678"/><use xlink:href="#DejaVuSans-52" x="310.791"/><use xlink:href="#DejaVuSans-61" x="378.023"/><use xlink:href="#DejaVuSans-64" x="439.303"/><use xlink:href="#DejaVuSans-69" x="502.779"/><use xlink:href="#DejaVuSans-75" x="530.563"/><use xlink:href="#DejaVuSans-73" x="593.941"/><use xlink:href="#DejaVuSans-56" x="646.041"/><use xlink:href="#DejaVuSans-61" x="706.699"/><use xlink:href="#DejaVuSans-72" x="767.979"/><use xlink:href="#DejaVuSans-69" x="809.092"/><use xlink:href="#DejaVuSans-61" x="836.875"/><use xlink:href="#DejaVuSans-74" x="898.154"/><use xlink:href="#DejaVuSans-69" x="937.363"/><use xlink:href="#DejaVuSans-6f" x="965.146"/><use xlink:href="#DejaVuSans-6e" x="1026.328"/><use xlink:href="#DejaVuSans-46" x="1089.707"/><use xlink:href="#DejaVuSans-6f" x="1143.602"/><use xlink:href="#DejaVuSans-72" x="1204.783"/><use xlink:href="#DejaVuSans-65" x="1243.646"/><use xlink:href="#DejaVuSans-73" x="1305.17"/><use xlink:href="#DejaVuSans-74" x="1357.27"/><use xlink:href="#DejaVuSans-5f" x="1396.479"/><use xlink:href="#DejaVuSans-32" x="1446.479"/><use xlink:href="#DejaVuSans-2c" x="1510.102"/><use xlink:href="#DejaVuSans-20" x="1541.889"/><use xlink:href="#DejaVuSans-62" x="1573.676"/><use xlink:href="#DejaVuSans-3d" x="1637.152"/><use xlink:href="#DejaVuSans-30" x="1720.941"/><use xlink:href="#DejaVuSans-2e" x="1784.564"/><use xlink:href="#DejaVuSans-38" x="1816.352"/><use xlink:href="#DejaVuSans-36" x="1879.975"/><use xlink:href="#DejaVuSans-32" x="1943.598"/><use xlink:href="#DejaVuSans-30" x="2007.221"/><use xlink:href="#DejaVuSans-32" x="2070.844"/><use xlink:href="#DejaVuSans-37" x="2134.467"/><use xlink:href="#DejaVuSans-36" x="2198.09"/><use xlink:href="#DejaVuSans-2c" x="2261.713"/><use xlink:href="#DejaVuSans-20" x="2293.5"/><use xlink:href="#DejaVuSans-61" x="2325.287"/><use xlink:href="#DejaVuSans-3d" x="2386.566"/><use xlink:href="#DejaVuSans-30" x="2470.355"/><use xlink:href="#DejaVuSans-2e" x="2533.979"/><use xlink:href="#DejaVuSans-39" x="2565.766"/><use xlink:href="#DejaVuSans-30" x="2629.389"/><use xlink:href="#DejaVuSans-32" x="2693.012"/><use xlink:href="#DejaVuSans-33" x="2756.635"/><use xlink:href="#DejaVuSans-30" x="2820.258"/><use xlink:href="#DejaVuSans-33" x="2883.881"/><use xlink:href="#DejaVuSans-31" x="2947.504"/><use xlink:href="#DejaVuSans-2c" x="3011.127"/><use xlink:href="#DejaVuSans-20" x="3042.914"/><use xlink:href="#DejaVuSans-64" x="3074.701"/><use xlink:href="#DejaVuSans-3d" x="3138.178"/><use xlink:href="#DejaVuSans-30" x="3221.967"/><use xlink:href="#DejaVuSans-2e" x="3285.59"/><use xlink:href="#DejaVuSans-39" x="3317.377"/><use xlink:href="#DejaVuSans-35" x="3381"/><use xlink:href="#DejaVuSans-35" x="3444.623"/><use xlink:href="#DejaVuSans-33" x="3508.246"/><use xlink:href="#DejaVuSans-36" x="3571.869"/><use xlink:href="#DejaVuSans-33" x="3635.492"/><use xlink:href="#DejaVuSans-36" x="3699.115"/></g></g></g><defs><clipPath id="pdf0950ea2f"><path d="M165.24 155.52h997.92v997.92H165.24z"/></clipPath></defs></svg>