<svg xmlns="http://www.w3.org/2000/svg" xmlns:xlink="http://www.w3.org/1999/xlink" width="864" height="345.6" viewBox="0 0 648 259.2"><defs><style>*{stroke-linejoin:round;stroke-linecap:butt}</style></defs><g id="figure_1"><path id="patch_1" d="M0 259.2h648V0H0z" style="fill:#fff"/><g id="axes_1"><path id="patch_2" d="M82.62 230.688h498.96V31.104H82.62z" style="fill:#fff"/><path id="patch_3" d="M569.605 55.054a11.976 11.976 0 1 0 0-23.951 11.976 11.976 0 0 0 0 23.951z" clip-path="url(#pa01be0ae72)" style="fill:#9e0142"/><path id="patch_4" d="M545.655 55.054a11.976 11.976 0 1 0 0-23.951 11.976 11.976 0 0 0 0 23.951z" clip-path="url(#pa01be0ae72)" style="fill:#9e0142"/><path id="patch_5" d="M572.599 72.802a8.982 8.982 0 1 0 0-17.964 8.982 8.982 0 0 0 0 17.964z" clip-path="url(#pa01be0ae72)" style="fill:#86cfa5"/><path id="patch_6" d="M558.996 63.561a5.988 5.988 0 1 0 0-11.975 5.988 5.988 0 0 0 0 11.975z" clip-path="url(#pa01be0ae72)" style="fill:#f98e52"/><path id="patch_7" d="M94.595 55.054a11.976 11.976 0 1 0 0-23.951 11.976 11.976 0 0 0 0 23.951z" clip-path="url(#pa01be0ae72)" style="fill:#9e0142"/><path id="patch_8" d="M572.599 230.688a8.982 8.982 0 1 0 0-17.963 8.982 8.982 0 0 0 0 17.963z" clip-path="url(#pa01be0ae72)" style="fill:#86cfa5"/><path id="patch_9" d="M86.612 230.688a3.992 3.992 0 1 0 0-7.984 3.992 3.992 0 0 0 0 7.984z" clip-path="url(#pa01be0ae72)" style="fill:#ffffbe"/><path id="patch_10" d="M557.63 37.092a2.994 2.994 0 1 0 0-5.988 2.994 2.994 0 0 0 0 5.988z" clip-path="url(#pa01be0ae72)" style="fill:#5e4fa2"/><path id="patch_11" d="M118.545 55.054a11.976 11.976 0 1 0 0-23.951 11.976 11.976 0 0 0 0 23.951z" clip-path="url(#pa01be0ae72)" style="fill:#9e0142"/><path id="patch_12" d="M554.636 230.688a8.982 8.982 0 1 0 0-17.963 8.982 8.982 0 0 0 0 17.963z" clip-path="url(#pa01be0ae72)" style="fill:#86cfa5"/><path id="patch_13" d="M88.608 66.002a5.988 5.988 0 1 0 0-11.976 5.988 5.988 0 0 0 0 11.976z" clip-path="url(#pa01be0ae72)" style="fill:#f98e52"/><path id="patch_14" d="M100.44 230.688a11.976 11.976 0 1 0-.001-23.951 11.976 11.976 0 0 0 0 23.951z" clip-path="url(#pa01be0ae72)" style="fill:#9e0142"/><path id="patch_15" d="M577.588 79.787a3.992 3.992 0 1 0 0-7.984 3.992 3.992 0 0 0 0 7.984z" clip-path="url(#pa01be0ae72)" style="fill:#ffffbe"/><path id="patch_16" d="M94.595 88.925a11.976 11.976 0 1 0 0-23.952 11.976 11.976 0 0 0 0 23.952z" clip-path="url(#pa01be0ae72)" style="fill:#9e0142"/><path id="patch_17" d="M121.18 230.688a8.982 8.982 0 1 0 0-17.963 8.982 8.982 0 0 0 0 17.963z" clip-path="url(#pa01be0ae72)" style="fill:#86cfa5"/><path id="patch_18" d="M100.583 66.002a5.988 5.988 0 1 0 0-11.976 5.988 5.988 0 0 0 0 11.976z" clip-path="url(#pa01be0ae72)" style="fill:#f98e52"/><path id="patch_19" d="M106.57 37.092a2.994 2.994 0 1 0 0-5.988 2.994 2.994 0 0 0 0 5.988z" clip-path="url(#pa01be0ae72)" style="fill:#5e4fa2"/><path id="patch_20" d="M569.605 101.598a11.976 11.976 0 1 0 0-23.951 11.976 11.976 0 0 0 0 23.951z" clip-path="url(#pa01be0ae72)" style="fill:#9e0142"/><path id="patch_21" d="M556.808 81.363a8.982 8.982 0 1 0 0-17.963 8.982 8.982 0 0 0 0 17.963z" clip-path="url(#pa01be0ae72)" style="fill:#86cfa5"/><path id="patch_22" d="M135.847 230.688a5.988 5.988 0 1 0 0-11.976 5.988 5.988 0 0 0 0 11.976z" clip-path="url(#pa01be0ae72)" style="fill:#f98e52"/><path id="patch_23" d="M549.805 65.453a3.992 3.992 0 1 0 0-7.984 3.992 3.992 0 0 0 0 7.984z" clip-path="url(#pa01be0ae72)" style="fill:#ffffbe"/><path id="patch_24" d="M94.595 112.875a11.976 11.976 0 1 0 0-23.952 11.976 11.976 0 0 0 0 23.952z" clip-path="url(#pa01be0ae72)" style="fill:#9e0142"/><path id="patch_25" d="M539.184 77.892a8.982 8.982 0 1 0 0-17.964 8.982 8.982 0 0 0 0 17.964z" clip-path="url(#pa01be0ae72)" style="fill:#86cfa5"/><path id="patch_26" d="M94.595 136.825a11.976 11.976 0 1 0 0-23.951 11.976 11.976 0 0 0 0 23.95z" clip-path="url(#pa01be0ae72)" style="fill:#9e0142"/><path id="patch_27" d="M150.513 230.688a8.982 8.982 0 1 0 0-17.963 8.982 8.982 0 0 0 0 17.963z" clip-path="url(#pa01be0ae72)" style="fill:#86cfa5"/><path id="patch_28" d="M88.608 147.773a5.988 5.988 0 1 0 0-11.976 5.988 5.988 0 0 0 0 11.976z" clip-path="url(#pa01be0ae72)" style="fill:#f98e52"/><path id="patch_29" d="M85.614 115.868a2.994 2.994 0 1 0 0-5.987 2.994 2.994 0 0 0 0 5.987z" clip-path="url(#pa01be0ae72)" style="fill:#5e4fa2"/><path id="patch_30" d="M171.255 230.688a11.976 11.976 0 1 0 0-23.951 11.976 11.976 0 0 0 0 23.951z" clip-path="url(#pa01be0ae72)" style="fill:#9e0142"/><path id="patch_31" d="M577.588 107.442a3.992 3.992 0 1 0 0-7.983 3.992 3.992 0 0 0 0 7.983z" clip-path="url(#pa01be0ae72)" style="fill:#ffffbe"/><path id="patch_32" d="M569.605 212.94a11.976 11.976 0 1 0 0-23.95 11.976 11.976 0 0 0 0 23.95z" clip-path="url(#pa01be0ae72)" style="fill:#9e0142"/><path id="patch_33" d="M191.996 230.688a8.982 8.982 0 1 0 0-17.963 8.982 8.982 0 0 0 0 17.963z" clip-path="url(#pa01be0ae72)" style="fill:#86cfa5"/><path id="patch_34" d="M575.592 190.018a5.988 5.988 0 1 0 0-11.976 5.988 5.988 0 0 0 0 11.976z" clip-path="url(#pa01be0ae72)" style="fill:#f98e52"/><path id="patch_35" d="M212.738 230.688a11.976 11.976 0 1 0-.001-23.951 11.976 11.976 0 0 0 0 23.951z" clip-path="url(#pa01be0ae72)" style="fill:#9e0142"/><path id="patch_36" d="M536.674 230.688a8.982 8.982 0 1 0 0-17.963 8.982 8.982 0 0 0 0 17.963z" clip-path="url(#pa01be0ae72)" style="fill:#86cfa5"/><path id="patch_37" d="M577.588 178.244a3.992 3.992 0 1 0 0-7.984 3.992 3.992 0 0 0 0 7.984z" clip-path="url(#pa01be0ae72)" style="fill:#ffffbe"/><path id="patch_38" d="M85.614 91.918a2.994 2.994 0 1 0 0-5.987 2.994 2.994 0 0 0 0 5.987z" clip-path="url(#pa01be0ae72)" style="fill:#5e4fa2"/><path id="patch_39" d="M236.688 230.688a11.976 11.976 0 1 0 0-23.951 11.976 11.976 0 0 0 0 23.951z" clip-path="url(#pa01be0ae72)" style="fill:#9e0142"/><path id="patch_40" d="M572.599 124.407a8.982 8.982 0 1 0 0-17.963 8.982 8.982 0 0 0 0 17.963z" clip-path="url(#pa01be0ae72)" style="fill:#86cfa5"/><path id="patch_41" d="M575.592 170.462a5.988 5.988 0 1 0 0-11.975 5.988 5.988 0 0 0 0 11.975z" clip-path="url(#pa01be0ae72)" style="fill:#f98e52"/><path id="patch_42" d="M569.605 148.142a11.976 11.976 0 1 0 0-23.951 11.976 11.976 0 0 0 0 23.951z" clip-path="url(#pa01be0ae72)" style="fill:#9e0142"/><path id="patch_43" d="M257.429 230.688a8.982 8.982 0 1 0 0-17.963 8.982 8.982 0 0 0 0 17.963z" clip-path="url(#pa01be0ae72)" style="fill:#86cfa5"/><path id="patch_44" d="M567.643 181.062a5.988 5.988 0 1 0 0-11.976 5.988 5.988 0 0 0 0 11.976z" clip-path="url(#pa01be0ae72)" style="fill:#f98e52"/><path id="patch_45" d="M577.588 153.986a3.992 3.992 0 1 0 0-7.983 3.992 3.992 0 0 0 0 7.983z" clip-path="url(#pa01be0ae72)" style="fill:#ffffbe"/><path id="patch_46" d="M224.713 230.688a2.994 2.994 0 1 0 0-5.988 2.994 2.994 0 0 0 0 5.988z" clip-path="url(#pa01be0ae72)" style="fill:#5e4fa2"/><path id="patch_47" d="M142.495 55.054a11.976 11.976 0 1 0 0-23.951 11.976 11.976 0 0 0 0 23.951z" clip-path="url(#pa01be0ae72)" style="fill:#9e0142"/><path id="patch_48" d="M94.595 170.695a11.976 11.976 0 1 0 0-23.95 11.976 11.976 0 0 0 0 23.95z" clip-path="url(#pa01be0ae72)" style="fill:#9e0142"/><path id="patch_49" d="M555.436 129.708a8.982 8.982 0 1 0 0-17.964 8.982 8.982 0 0 0 0 17.964z" clip-path="url(#pa01be0ae72)" style="fill:#86cfa5"/><path id="patch_50" d="M100.583 147.773a5.988 5.988 0 1 0 0-11.976 5.988 5.988 0 0 0 0 11.976z" clip-path="url(#pa01be0ae72)" style="fill:#f98e52"/><path id="patch_51" d="M166.445 55.054a11.976 11.976 0 1 0 0-23.951 11.976 11.976 0 0 0 0 23.951z" clip-path="url(#pa01be0ae72)" style="fill:#9e0142"/><path id="patch_52" d="M275.392 230.688a8.982 8.982 0 1 0 0-17.963 8.982 8.982 0 0 0 0 17.963z" clip-path="url(#pa01be0ae72)" style="fill:#86cfa5"/><path id="patch_53" d="M565.719 189.47a3.992 3.992 0 1 0 0-7.983 3.992 3.992 0 0 0 0 7.983z" clip-path="url(#pa01be0ae72)" style="fill:#ffffbe"/><path id="patch_54" d="M154.47 37.092a2.994 2.994 0 1 0 0-5.988 2.994 2.994 0 0 0 0 5.988z" clip-path="url(#pa01be0ae72)" style="fill:#5e4fa2"/><path id="patch_55" d="M94.595 194.645a11.976 11.976 0 1 0 0-23.95 11.976 11.976 0 0 0 0 23.95z" clip-path="url(#pa01be0ae72)" style="fill:#9e0142"/><path id="patch_56" d="M111.793 179.677a8.982 8.982 0 1 0 0-17.964 8.982 8.982 0 0 0 0 17.964z" clip-path="url(#pa01be0ae72)" style="fill:#86cfa5"/><path id="patch_57" d="M568.49 160.083a5.988 5.988 0 1 0 0-11.976 5.988 5.988 0 0 0 0 11.976z" clip-path="url(#pa01be0ae72)" style="fill:#f98e52"/><path id="patch_58" d="M296.133 230.688a11.976 11.976 0 1 0 0-23.951 11.976 11.976 0 0 0 0 23.951z" clip-path="url(#pa01be0ae72)" style="fill:#9e0142"/><path id="patch_59" d="M561.255 113.123a3.992 3.992 0 1 0 0-7.983 3.992 3.992 0 0 0 0 7.983z" clip-path="url(#pa01be0ae72)" style="fill:#ffffbe"/><path id="patch_60" d="M521.705 55.054a11.976 11.976 0 1 0 0-23.951 11.976 11.976 0 0 0 0 23.951z" clip-path="url(#pa01be0ae72)" style="fill:#9e0142"/><path id="patch_61" d="M518.711 230.688a8.982 8.982 0 1 0 0-17.963 8.982 8.982 0 0 0 0 17.963z" clip-path="url(#pa01be0ae72)" style="fill:#86cfa5"/><path id="patch_62" d="M88.608 205.593a5.988 5.988 0 1 0 0-11.975 5.988 5.988 0 0 0 0 11.975z" clip-path="url(#pa01be0ae72)" style="fill:#f98e52"/><path id="patch_63" d="M85.614 173.69a2.994 2.994 0 1 0 0-5.989 2.994 2.994 0 0 0 0 5.988z" clip-path="url(#pa01be0ae72)" style="fill:#5e4fa2"/><path id="patch_64" d="M497.755 55.054a11.976 11.976 0 1 0 0-23.951 11.976 11.976 0 0 0 0 23.951z" clip-path="url(#pa01be0ae72)" style="fill:#9e0142"/><path id="patch_65" d="M187.187 49.067a8.982 8.982 0 1 0 0-17.964 8.982 8.982 0 0 0 0 17.964z" clip-path="url(#pa01be0ae72)" style="fill:#86cfa5"/><path id="patch_66" d="M100.583 205.593a5.988 5.988 0 1 0 0-11.975 5.988 5.988 0 0 0 0 11.975z" clip-path="url(#pa01be0ae72)" style="fill:#f98e52"/><path id="patch_67" d="M533.68 57.632a3.992 3.992 0 1 0 0-7.984 3.992 3.992 0 0 0 0 7.984z" clip-path="url(#pa01be0ae72)" style="fill:#ffffbe"/><path id="patch_68" d="M497.97 230.688a11.976 11.976 0 1 0 0-23.951 11.976 11.976 0 0 0 0 23.951z" clip-path="url(#pa01be0ae72)" style="fill:#9e0142"/><path id="patch_69" d="M115.88 213.525a8.982 8.982 0 1 0 0-17.963 8.982 8.982 0 0 0 0 17.963z" clip-path="url(#pa01be0ae72)" style="fill:#86cfa5"/><path id="patch_70" d="M473.805 55.054a11.976 11.976 0 1 0 0-23.951 11.976 11.976 0 0 0 0 23.951z" clip-path="url(#pa01be0ae72)" style="fill:#9e0142"/><path id="patch_71" d="M133.393 217.516a8.982 8.982 0 1 0 0-17.963 8.982 8.982 0 0 0 0 17.963z" clip-path="url(#pa01be0ae72)" style="fill:#86cfa5"/><path id="patch_72" d="M526.364 66.414a5.988 5.988 0 1 0 0-11.975 5.988 5.988 0 0 0 0 11.975z" clip-path="url(#pa01be0ae72)" style="fill:#f98e52"/><path id="patch_73" d="M485.78 37.092a2.994 2.994 0 1 0 0-5.988 2.994 2.994 0 0 0 0 5.988z" clip-path="url(#pa01be0ae72)" style="fill:#5e4fa2"/><path id="patch_74" d="M474.02 230.688a11.976 11.976 0 1 0 0-23.951 11.976 11.976 0 0 0 0 23.951z" clip-path="url(#pa01be0ae72)" style="fill:#9e0142"/><path id="patch_75" d="M107.351 196.265a3.992 3.992 0 1 0 0-7.984 3.992 3.992 0 0 0 0 7.984z" clip-path="url(#pa01be0ae72)" style="fill:#ffffbe"/><path id="patch_76" d="M450.07 230.688a11.976 11.976 0 1 0-.001-23.951 11.976 11.976 0 0 0 0 23.951z" clip-path="url(#pa01be0ae72)" style="fill:#9e0142"/><path id="patch_77" d="M509.73 69.258a8.982 8.982 0 1 0 0-17.963 8.982 8.982 0 0 0 0 17.963z" clip-path="url(#pa01be0ae72)" style="fill:#86cfa5"/><path id="patch_78" d="M313.068 230.688a5.988 5.988 0 1 0 0-11.976 5.988 5.988 0 0 0 0 11.976z" clip-path="url(#pa01be0ae72)" style="fill:#f98e52"/><path id="patch_79" d="M509.73 37.092a2.994 2.994 0 1 0 0-5.988 2.994 2.994 0 0 0 0 5.988z" clip-path="url(#pa01be0ae72)" style="fill:#5e4fa2"/><path id="patch_80" d="M426.12 230.688a11.976 11.976 0 1 0-.001-23.951 11.976 11.976 0 0 0 0 23.951z" clip-path="url(#pa01be0ae72)" style="fill:#9e0142"/><path id="patch_81" d="M205.15 49.067a8.982 8.982 0 1 0-.001-17.964 8.982 8.982 0 0 0 0 17.964z" clip-path="url(#pa01be0ae72)" style="fill:#86cfa5"/><path id="patch_82" d="M86.612 213.375a3.992 3.992 0 1 0 0-7.984 3.992 3.992 0 0 0 0 7.984z" clip-path="url(#pa01be0ae72)" style="fill:#ffffbe"/><path id="patch_83" d="M449.855 55.054a11.976 11.976 0 1 0 0-23.951 11.976 11.976 0 0 0 0 23.951z" clip-path="url(#pa01be0ae72)" style="fill:#9e0142"/><path id="patch_84" d="M327.735 230.688a8.982 8.982 0 1 0 0-17.963 8.982 8.982 0 0 0 0 17.963z" clip-path="url(#pa01be0ae72)" style="fill:#86cfa5"/><path id="patch_85" d="M315.566 218.976a5.988 5.988 0 1 0 0-11.975 5.988 5.988 0 0 0 0 11.975z" clip-path="url(#pa01be0ae72)" style="fill:#f98e52"/><path id="patch_86" d="M425.904 55.054a11.976 11.976 0 1 0 0-23.951 11.976 11.976 0 0 0 0 23.951z" clip-path="url(#pa01be0ae72)" style="fill:#9e0142"/><path id="patch_87" d="M405.378 230.688a8.982 8.982 0 1 0 0-17.963 8.982 8.982 0 0 0 0 17.963z" clip-path="url(#pa01be0ae72)" style="fill:#86cfa5"/><path id="patch_88" d="M408.97 43.079a5.988 5.988 0 1 0-.001-11.976 5.988 5.988 0 0 0 0 11.976z" clip-path="url(#pa01be0ae72)" style="fill:#f98e52"/><path id="patch_89" d="M110.406 188.889a3.992 3.992 0 1 0 0-7.984 3.992 3.992 0 0 0 0 7.984z" clip-path="url(#pa01be0ae72)" style="fill:#ffffbe"/><path id="patch_90" d="M438.094 230.688a2.994 2.994 0 1 0 0-5.988 2.994 2.994 0 0 0 0 5.988z" clip-path="url(#pa01be0ae72)" style="fill:#5e4fa2"/><path id="patch_91" d="M348.476 230.688a11.976 11.976 0 1 0 0-23.951 11.976 11.976 0 0 0 0 23.951z" clip-path="url(#pa01be0ae72)" style="fill:#9e0142"/><path id="patch_92" d="M225.89 55.054a11.976 11.976 0 1 0 0-23.951 11.976 11.976 0 0 0 0 23.951z" clip-path="url(#pa01be0ae72)" style="fill:#9e0142"/><path id="patch_93" d="M554.038 159.178a8.982 8.982 0 1 0 0-17.963 8.982 8.982 0 0 0 0 17.963z" clip-path="url(#pa01be0ae72)" style="fill:#86cfa5"/><path id="patch_94" d="M551.658 141.406a5.988 5.988 0 1 0 0-11.975 5.988 5.988 0 0 0 0 11.975z" clip-path="url(#pa01be0ae72)" style="fill:#f98e52"/><path id="patch_95" d="M384.637 230.688a11.976 11.976 0 1 0 0-23.951 11.976 11.976 0 0 0 0 23.951z" clip-path="url(#pa01be0ae72)" style="fill:#9e0142"/><path id="patch_96" d="M246.632 49.067a8.982 8.982 0 1 0 0-17.964 8.982 8.982 0 0 0 0 17.964z" clip-path="url(#pa01be0ae72)" style="fill:#86cfa5"/><path id="patch_97" d="M115.266 195.222a3.992 3.992 0 1 0 0-7.984 3.992 3.992 0 0 0 0 7.984z" clip-path="url(#pa01be0ae72)" style="fill:#ffffbe"/><path id="patch_98" d="M462.045 230.688a2.994 2.994 0 1 0 0-5.988 2.994 2.994 0 0 0 0 5.988z" clip-path="url(#pa01be0ae72)" style="fill:#5e4fa2"/><path id="patch_99" d="M392.034 55.054a11.976 11.976 0 1 0 0-23.951 11.976 11.976 0 0 0 0 23.951z" clip-path="url(#pa01be0ae72)" style="fill:#9e0142"/><path id="patch_100" d="M111.793 97.906a8.982 8.982 0 1 0 0-17.964 8.982 8.982 0 0 0 0 17.964z" clip-path="url(#pa01be0ae72)" style="fill:#86cfa5"/><path id="patch_101" d="M365.411 230.688a5.988 5.988 0 1 0 0-11.976 5.988 5.988 0 0 0 0 11.976z" clip-path="url(#pa01be0ae72)" style="fill:#f98e52"/><path id="patch_102" d="M267.373 55.054a11.976 11.976 0 1 0 0-23.951 11.976 11.976 0 0 0 0 23.951z" clip-path="url(#pa01be0ae72)" style="fill:#9e0142"/><path id="patch_103" d="M118.32 187.846a3.992 3.992 0 1 0 0-7.984 3.992 3.992 0 0 0 0 7.984z" clip-path="url(#pa01be0ae72)" style="fill:#ffffbe"/><path id="patch_104" d="M368.084 55.054a11.976 11.976 0 1 0 0-23.951 11.976 11.976 0 0 0 0 23.951z" clip-path="url(#pa01be0ae72)" style="fill:#9e0142"/><path id="patch_105" d="M462.045 210.496a8.982 8.982 0 1 0 0-17.963 8.982 8.982 0 0 0 0 17.963z" clip-path="url(#pa01be0ae72)" style="fill:#86cfa5"/><path id="patch_106" d="M125.244 197.029a5.988 5.988 0 1 0 0-11.976 5.988 5.988 0 0 0 0 11.976z" clip-path="url(#pa01be0ae72)" style="fill:#f98e52"/><path id="patch_107" d="M437.88 37.092a2.994 2.994 0 1 0 0-5.988 2.994 2.994 0 0 0 0 5.988z" clip-path="url(#pa01be0ae72)" style="fill:#5e4fa2"/><path id="patch_108" d="M344.134 55.054a11.976 11.976 0 1 0 0-23.951 11.976 11.976 0 0 0 0 23.951z" clip-path="url(#pa01be0ae72)" style="fill:#9e0142"/><path id="patch_109" d="M129.052 185.546a8.982 8.982 0 1 0 0-17.963 8.982 8.982 0 0 0 0 17.963z" clip-path="url(#pa01be0ae72)" style="fill:#86cfa5"/><path id="patch_110" d="M365.411 218.713a5.988 5.988 0 1 0 0-11.976 5.988 5.988 0 0 0 0 11.976z" clip-path="url(#pa01be0ae72)" style="fill:#f98e52"/><path id="patch_111" d="M561.26 164.965a3.992 3.992 0 1 0 0-7.984 3.992 3.992 0 0 0 0 7.984z" clip-path="url(#pa01be0ae72)" style="fill:#ffffbe"/><path id="patch_112" d="M320.184 55.054a11.976 11.976 0 1 0 0-23.951 11.976 11.976 0 0 0 0 23.951z" clip-path="url(#pa01be0ae72)" style="fill:#9e0142"/><path id="patch_113" d="M140.207 199.625a8.982 8.982 0 1 0 0-17.963 8.982 8.982 0 0 0 0 17.963z" clip-path="url(#pa01be0ae72)" style="fill:#86cfa5"/><path id="patch_114" d="M485.995 230.688a2.994 2.994 0 1 0 0-5.988 2.994 2.994 0 0 0 0 5.988z" clip-path="url(#pa01be0ae72)" style="fill:#5e4fa2"/><path id="patch_115" d="M291.323 55.054a11.976 11.976 0 1 0 0-23.951 11.976 11.976 0 0 0 0 23.951z" clip-path="url(#pa01be0ae72)" style="fill:#9e0142"/><path id="patch_116" d="M155.814 213.525a8.982 8.982 0 1 0 0-17.963 8.982 8.982 0 0 0 0 17.963z" clip-path="url(#pa01be0ae72)" style="fill:#86cfa5"/><path id="patch_117" d="M408.97 55.054a5.988 5.988 0 1 0-.001-11.976 5.988 5.988 0 0 0 0 11.976z" clip-path="url(#pa01be0ae72)" style="fill:#f98e52"/><path id="patch_118" d="M485.995 209.947a11.976 11.976 0 1 0 0-23.952 11.976 11.976 0 0 0 0 23.952z" clip-path="url(#pa01be0ae72)" style="fill:#9e0142"/><path id="patch_119" d="M305.151 39.087a3.992 3.992 0 1 0 0-7.983 3.992 3.992 0 0 0 0 7.983z" clip-path="url(#pa01be0ae72)" style="fill:#ffffbe"/><path id="patch_120" d="M544.337 101.198a11.976 11.976 0 1 0 0-23.95 11.976 11.976 0 0 0 0 23.95z" clip-path="url(#pa01be0ae72)" style="fill:#9e0142"/><path id="patch_121" d="M241.331 66.23a8.982 8.982 0 1 0 0-17.964 8.982 8.982 0 0 0 0 17.963z" clip-path="url(#pa01be0ae72)" style="fill:#86cfa5"/><path id="patch_122" d="M551.707 112.217a5.988 5.988 0 1 0 0-11.975 5.988 5.988 0 0 0 0 11.975z" clip-path="url(#pa01be0ae72)" style="fill:#f98e52"/><path id="patch_123" d="M85.614 219.29a2.994 2.994 0 1 0 0-5.987 2.994 2.994 0 0 0 0 5.988z" clip-path="url(#pa01be0ae72)" style="fill:#5e4fa2"/><path id="patch_124" d="M437.88 75.795a11.976 11.976 0 1 0 0-23.95 11.976 11.976 0 0 0 0 23.95z" clip-path="url(#pa01be0ae72)" style="fill:#9e0142"/><path id="patch_125" d="M416.998 71.03a8.982 8.982 0 1 0 0-17.963 8.982 8.982 0 0 0 0 17.963z" clip-path="url(#pa01be0ae72)" style="fill:#86cfa5"/><path id="patch_126" d="M252.926 55.42a3.992 3.992 0 1 0 0-7.983 3.992 3.992 0 0 0 0 7.984z" clip-path="url(#pa01be0ae72)" style="fill:#ffffbe"/><path id="patch_127" d="M461.83 75.795a11.976 11.976 0 1 0 0-23.95 11.976 11.976 0 0 0 0 23.95z" clip-path="url(#pa01be0ae72)" style="fill:#9e0142"/><path id="patch_128" d="M258.26 72.236a8.982 8.982 0 1 0 0-17.963 8.982 8.982 0 0 0 0 17.963z" clip-path="url(#pa01be0ae72)" style="fill:#86cfa5"/><path id="patch_129" d="M401.442 64.368a5.988 5.988 0 1 0 0-11.976 5.988 5.988 0 0 0 0 11.976z" clip-path="url(#pa01be0ae72)" style="fill:#f98e52"/><path id="patch_130" d="M535.557 126.069a11.976 11.976 0 1 0 0-23.952 11.976 11.976 0 0 0 0 23.952z" clip-path="url(#pa01be0ae72)" style="fill:#9e0142"/><path id="patch_131" d="M513.41 213.525a8.982 8.982 0 1 0 0-17.963 8.982 8.982 0 0 0 0 17.963z" clip-path="url(#pa01be0ae72)" style="fill:#86cfa5"/><path id="patch_132" d="M527.502 215.58a5.988 5.988 0 1 0 0-11.977 5.988 5.988 0 0 0 0 11.976z" clip-path="url(#pa01be0ae72)" style="fill:#f98e52"/><path id="patch_133" d="M544.331 131.425a3.992 3.992 0 1 0 0-7.984 3.992 3.992 0 0 0 0 7.984z" clip-path="url(#pa01be0ae72)" style="fill:#ffffbe"/><path id="patch_134" d="M356.109 37.092a2.994 2.994 0 1 0 0-5.988 2.994 2.994 0 0 0 0 5.988z" clip-path="url(#pa01be0ae72)" style="fill:#5e4fa2"/><path id="patch_135" d="M187.608 213.19a11.976 11.976 0 1 0 0-23.951 11.976 11.976 0 0 0 0 23.951z" clip-path="url(#pa01be0ae72)" style="fill:#9e0142"/><path id="patch_136" d="M115.336 124.85a11.976 11.976 0 1 0 0-23.951 11.976 11.976 0 0 0 0 23.95z" clip-path="url(#pa01be0ae72)" style="fill:#9e0142"/><path id="patch_137" d="M113.565 142.737a8.982 8.982 0 1 0 0-17.963 8.982 8.982 0 0 0 0 17.963z" clip-path="url(#pa01be0ae72)" style="fill:#86cfa5"/><path id="patch_138" d="M109.896 155.3a5.988 5.988 0 1 0 0-11.976 5.988 5.988 0 0 0 0 11.975z" clip-path="url(#pa01be0ae72)" style="fill:#f98e52"/><path id="patch_139" d="M171.715 206.745a3.992 3.992 0 1 0 0-7.984 3.992 3.992 0 0 0 0 7.984z" clip-path="url(#pa01be0ae72)" style="fill:#ffffbe"/><path id="patch_140" d="M133.764 140.148a11.976 11.976 0 1 0 0-23.951 11.976 11.976 0 0 0 0 23.951z" clip-path="url(#pa01be0ae72)" style="fill:#9e0142"/><path id="patch_141" d="M125.308 156.33a8.982 8.982 0 1 0 0-17.964 8.982 8.982 0 0 0 0 17.963z" clip-path="url(#pa01be0ae72)" style="fill:#86cfa5"/><path id="patch_142" d="M279.348 37.092a2.994 2.994 0 1 0 0-5.988 2.994 2.994 0 0 0 0 5.988z" clip-path="url(#pa01be0ae72)" style="fill:#5e4fa2"/><path id="patch_143" d="M449.855 96.537a11.976 11.976 0 1 0 0-23.951 11.976 11.976 0 0 0 0 23.95z" clip-path="url(#pa01be0ae72)" style="fill:#9e0142"/><path id="patch_144" d="M410.679 213.525a8.982 8.982 0 1 0 0-17.963 8.982 8.982 0 0 0 0 17.963z" clip-path="url(#pa01be0ae72)" style="fill:#86cfa5"/><path id="patch_145" d="M380.059 62.455a5.988 5.988 0 1 0 0-11.976 5.988 5.988 0 0 0 0 11.976z" clip-path="url(#pa01be0ae72)" style="fill:#f98e52"/><path id="patch_146" d="M521.92 92.766a11.976 11.976 0 1 0 0-23.952 11.976 11.976 0 0 0 0 23.952z" clip-path="url(#pa01be0ae72)" style="fill:#9e0142"/><path id="patch_147" d="M399.084 214.355a3.992 3.992 0 1 0 0-7.984 3.992 3.992 0 0 0 0 7.984z" clip-path="url(#pa01be0ae72)" style="fill:#ffffbe"/><path id="patch_148" d="M534.853 153.739a11.976 11.976 0 1 0 0-23.951 11.976 11.976 0 0 0 0 23.95z" clip-path="url(#pa01be0ae72)" style="fill:#9e0142"/><path id="patch_149" d="M393.75 207.518a8.982 8.982 0 1 0 0-17.963 8.982 8.982 0 0 0 0 17.963z" clip-path="url(#pa01be0ae72)" style="fill:#86cfa5"/><path id="patch_150" d="M528.414 103.526a5.988 5.988 0 1 0 0-11.976 5.988 5.988 0 0 0 0 11.976z" clip-path="url(#pa01be0ae72)" style="fill:#f98e52"/><path id="patch_151" d="M461.83 37.092a2.994 2.994 0 1 0 0-5.988 2.994 2.994 0 0 0 0 5.988z" clip-path="url(#pa01be0ae72)" style="fill:#5e4fa2"/><path id="patch_152" d="M279.348 75.795a11.976 11.976 0 1 0 0-23.95 11.976 11.976 0 0 0 0 23.95z" clip-path="url(#pa01be0ae72)" style="fill:#9e0142"/><path id="patch_153" d="M540.46 170.938a8.982 8.982 0 1 0 0-17.964 8.982 8.982 0 0 0 0 17.964z" clip-path="url(#pa01be0ae72)" style="fill:#86cfa5"/><path id="patch_154" d="M368.983 67.007a5.988 5.988 0 1 0 0-11.976 5.988 5.988 0 0 0 0 11.976z" clip-path="url(#pa01be0ae72)" style="fill:#f98e52"/><path id="patch_155" d="M553.583 167.154a3.992 3.992 0 1 0 0-7.984 3.992 3.992 0 0 0 0 7.984z" clip-path="url(#pa01be0ae72)" style="fill:#ffffbe"/><path id="patch_156" d="M422.581 94.223a11.976 11.976 0 1 0 0-23.952 11.976 11.976 0 0 0 0 23.952z" clip-path="url(#pa01be0ae72)" style="fill:#9e0142"/><path id="patch_157" d="M403.406 82.773a8.982 8.982 0 1 0 0-17.963 8.982 8.982 0 0 0 0 17.963z" clip-path="url(#pa01be0ae72)" style="fill:#86cfa5"/><path id="patch_158" d="M380.059 37.092a2.994 2.994 0 1 0 0-5.988 2.994 2.994 0 0 0 0 5.988z" clip-path="url(#pa01be0ae72)" style="fill:#5e4fa2"/><path id="patch_159" d="M429.325 206.953a11.976 11.976 0 1 0 0-23.95 11.976 11.976 0 0 0 0 23.95z" clip-path="url(#pa01be0ae72)" style="fill:#9e0142"/><path id="patch_160" d="M410.12 195.572a8.982 8.982 0 1 0 0-17.964 8.982 8.982 0 0 0 0 17.964z" clip-path="url(#pa01be0ae72)" style="fill:#86cfa5"/><path id="patch_161" d="M447.085 206.988a5.988 5.988 0 1 0 0-11.976 5.988 5.988 0 0 0 0 11.976z" clip-path="url(#pa01be0ae72)" style="fill:#f98e52"/><path id="patch_162" d="M559.317 172.708a3.992 3.992 0 1 0 0-7.983 3.992 3.992 0 0 0 0 7.983z" clip-path="url(#pa01be0ae72)" style="fill:#ffffbe"/><path id="patch_163" d="M451.28 195.51a11.976 11.976 0 1 0 0-23.952 11.976 11.976 0 0 0 0 23.952z" clip-path="url(#pa01be0ae72)" style="fill:#9e0142"/><path id="patch_164" d="M402.128 106.685a11.976 11.976 0 1 0 0-23.952 11.976 11.976 0 0 0 0 23.952z" clip-path="url(#pa01be0ae72)" style="fill:#9e0142"/><path id="patch_165" d="M513.658 109.03a8.982 8.982 0 1 0 0-17.963 8.982 8.982 0 0 0 0 17.964z" clip-path="url(#pa01be0ae72)" style="fill:#86cfa5"/><path id="patch_166" d="M357.507 63.585a5.988 5.988 0 1 0 0-11.976 5.988 5.988 0 0 0 0 11.976z" clip-path="url(#pa01be0ae72)" style="fill:#f98e52"/><path id="patch_167" d="M130.52 37.092a2.994 2.994 0 1 0 0-5.988 2.994 2.994 0 0 0 0 5.988z" clip-path="url(#pa01be0ae72)" style="fill:#5e4fa2"/><path id="patch_168" d="M357.579 208.535a11.976 11.976 0 1 0 0-23.95 11.976 11.976 0 0 0 0 23.95z" clip-path="url(#pa01be0ae72)" style="fill:#9e0142"/><path id="patch_169" d="M485.78 69.258a8.982 8.982 0 1 0 0-17.963 8.982 8.982 0 0 0 0 17.963z" clip-path="url(#pa01be0ae72)" style="fill:#86cfa5"/><path id="patch_170" d="M468.657 194.073a5.988 5.988 0 1 0 0-11.975 5.988 5.988 0 0 0 0 11.975z" clip-path="url(#pa01be0ae72)" style="fill:#f98e52"/><path id="patch_171" d="M389.742 62.872a3.992 3.992 0 1 0 0-7.984 3.992 3.992 0 0 0 0 7.984z" clip-path="url(#pa01be0ae72)" style="fill:#ffffbe"/><path id="patch_172" d="M130.52 75.795a11.976 11.976 0 1 0 0-23.95 11.976 11.976 0 0 0 0 23.95z" clip-path="url(#pa01be0ae72)" style="fill:#9e0142"/><path id="patch_173" d="M384.52 79.737a8.982 8.982 0 1 0 0-17.963 8.982 8.982 0 0 0 0 17.963z" clip-path="url(#pa01be0ae72)" style="fill:#86cfa5"/><path id="patch_174" d="M168.203 199.152a11.976 11.976 0 1 0 0-23.95 11.976 11.976 0 0 0 0 23.95z" clip-path="url(#pa01be0ae72)" style="fill:#9e0142"/><path id="patch_175" d="M553.024 197.131a8.982 8.982 0 1 0 0-17.963 8.982 8.982 0 0 0 0 17.963z" clip-path="url(#pa01be0ae72)" style="fill:#86cfa5"/><path id="patch_176" d="M112.938 66.132a5.988 5.988 0 1 0 0-11.976 5.988 5.988 0 0 0 0 11.976z" clip-path="url(#pa01be0ae72)" style="fill:#f98e52"/><path id="patch_177" d="M393.035 85.577a3.992 3.992 0 1 0 0-7.984 3.992 3.992 0 0 0 0 7.984z" clip-path="url(#pa01be0ae72)" style="fill:#ffffbe"/><path id="patch_178" d="M332.159 37.092a2.994 2.994 0 1 0 0-5.988 2.994 2.994 0 0 0 0 5.988z" clip-path="url(#pa01be0ae72)" style="fill:#5e4fa2"/><path id="patch_179" d="M471.25 182.287a11.976 11.976 0 1 0-.001-23.952 11.976 11.976 0 0 0 0 23.952z" clip-path="url(#pa01be0ae72)" style="fill:#9e0142"/><path id="patch_180" d="M190.063 189.366a11.976 11.976 0 1 0 0-23.951 11.976 11.976 0 0 0 0 23.951z" clip-path="url(#pa01be0ae72)" style="fill:#9e0142"/><path id="patch_181" d="M382.095 97.54a8.982 8.982 0 1 0 0-17.964 8.982 8.982 0 0 0 0 17.964z" clip-path="url(#pa01be0ae72)" style="fill:#86cfa5"/><path id="patch_182" d="M373.831 210.198a5.988 5.988 0 1 0 0-11.976 5.988 5.988 0 0 0 0 11.976z" clip-path="url(#pa01be0ae72)" style="fill:#f98e52"/><path id="patch_183" d="M551.64 174.897a3.992 3.992 0 1 0 0-7.984 3.992 3.992 0 0 0 0 7.984z" clip-path="url(#pa01be0ae72)" style="fill:#ffffbe"/><path id="patch_184" d="M449.813 171.604a11.976 11.976 0 1 0 0-23.95 11.976 11.976 0 0 0 0 23.95z" clip-path="url(#pa01be0ae72)" style="fill:#9e0142"/><path id="patch_185" d="M377.369 198.647a8.982 8.982 0 1 0 0-17.964 8.982 8.982 0 0 0 0 17.964z" clip-path="url(#pa01be0ae72)" style="fill:#86cfa5"/><path id="patch_186" d="M533.68 37.092a2.994 2.994 0 1 0 0-5.988 2.994 2.994 0 0 0 0 5.988z" clip-path="url(#pa01be0ae72)" style="fill:#5e4fa2"/><path id="patch_187" d="M170.658 175.328a11.976 11.976 0 1 0 0-23.95 11.976 11.976 0 0 0 0 23.95z" clip-path="url(#pa01be0ae72)" style="fill:#9e0142"/><path id="patch_188" d="M545.655 215.132a8.982 8.982 0 1 0 0-17.963 8.982 8.982 0 0 0 0 17.963z" clip-path="url(#pa01be0ae72)" style="fill:#86cfa5"/><path id="patch_189" d="M114.534 78a5.988 5.988 0 1 0 0-11.976 5.988 5.988 0 0 0 0 11.976z" clip-path="url(#pa01be0ae72)" style="fill:#f98e52"/><path id="patch_190" d="M224.713 209.947a11.976 11.976 0 1 0 0-23.952 11.976 11.976 0 0 0 0 23.952z" clip-path="url(#pa01be0ae72)" style="fill:#9e0142"/><path id="patch_191" d="M152.323 182.484a8.982 8.982 0 1 0 0-17.963 8.982 8.982 0 0 0 0 17.963z" clip-path="url(#pa01be0ae72)" style="fill:#86cfa5"/><path id="patch_192" d="M207.13 207.636a5.988 5.988 0 1 0 0-11.976 5.988 5.988 0 0 0 0 11.976z" clip-path="url(#pa01be0ae72)" style="fill:#f98e52"/><path id="patch_193" d="M122.704 81.735a3.992 3.992 0 1 0 0-7.984 3.992 3.992 0 0 0 0 7.984z" clip-path="url(#pa01be0ae72)" style="fill:#ffffbe"/><path id="patch_194" d="M436.622 211.041a2.994 2.994 0 1 0 0-5.987 2.994 2.994 0 0 0 0 5.987z" clip-path="url(#pa01be0ae72)" style="fill:#5e4fa2"/><path id="patch_195" d="M266.41 214.748a11.976 11.976 0 1 0 0-23.952 11.976 11.976 0 0 0 0 23.952z" clip-path="url(#pa01be0ae72)" style="fill:#9e0142"/><path id="patch_196" d="M358.406 87.512a11.976 11.976 0 1 0 0-23.95 11.976 11.976 0 0 0 0 23.95z" clip-path="url(#pa01be0ae72)" style="fill:#9e0142"/><path id="patch_197" d="M245.594 208.725a8.982 8.982 0 1 0 0-17.964 8.982 8.982 0 0 0 0 17.964z" clip-path="url(#pa01be0ae72)" style="fill:#86cfa5"/><path id="patch_198" d="M346.43 68.136a5.988 5.988 0 1 0 0-11.975 5.988 5.988 0 0 0 0 11.975z" clip-path="url(#pa01be0ae72)" style="fill:#f98e52"/><path id="patch_199" d="M282.305 214.721a3.992 3.992 0 1 0 0-7.983 3.992 3.992 0 0 0 0 7.983z" clip-path="url(#pa01be0ae72)" style="fill:#ffffbe"/><path id="patch_200" d="M135.54 99.214a11.976 11.976 0 1 0 0-23.952 11.976 11.976 0 0 0 0 23.952z" clip-path="url(#pa01be0ae72)" style="fill:#9e0142"/><path id="patch_201" d="M288.355 208.235a8.982 8.982 0 1 0 0-17.964 8.982 8.982 0 0 0 0 17.964z" clip-path="url(#pa01be0ae72)" style="fill:#86cfa5"/><path id="patch_202" d="M105.96 55.815a2.994 2.994 0 1 0 0-5.988 2.994 2.994 0 0 0 0 5.988z" clip-path="url(#pa01be0ae72)" style="fill:#5e4fa2"/><path id="patch_203" d="M473.805 96.537a11.976 11.976 0 1 0 0-23.951 11.976 11.976 0 0 0 0 23.95z" clip-path="url(#pa01be0ae72)" style="fill:#9e0142"/><path id="patch_204" d="M306.282 209.36a8.982 8.982 0 1 0 0-17.964 8.982 8.982 0 0 0 0 17.964z" clip-path="url(#pa01be0ae72)" style="fill:#86cfa5"/><path id="patch_205" d="M133.102 116.21a5.988 5.988 0 1 0 0-11.975 5.988 5.988 0 0 0 0 11.975z" clip-path="url(#pa01be0ae72)" style="fill:#f98e52"/><path id="patch_206" d="M127.193 106.173a3.992 3.992 0 1 0 0-7.984 3.992 3.992 0 0 0 0 7.984z" clip-path="url(#pa01be0ae72)" style="fill:#ffffbe"/><path id="patch_207" d="M303.298 75.795a11.976 11.976 0 1 0 0-23.95 11.976 11.976 0 0 0 0 23.95z" clip-path="url(#pa01be0ae72)" style="fill:#9e0142"/><path id="patch_208" d="M498.462 97.593a11.976 11.976 0 1 0 0-23.95 11.976 11.976 0 0 0 0 23.95z" clip-path="url(#pa01be0ae72)" style="fill:#9e0142"/><path id="patch_209" d="M433.381 181.617a8.982 8.982 0 1 0 0-17.964 8.982 8.982 0 0 0 0 17.964z" clip-path="url(#pa01be0ae72)" style="fill:#86cfa5"/><path id="patch_210" d="M208.727 195.767a5.988 5.988 0 1 0 0-11.975 5.988 5.988 0 0 0 0 11.975z" clip-path="url(#pa01be0ae72)" style="fill:#f98e52"/><path id="patch_211" d="M559.784 105.297a2.994 2.994 0 1 0 0-5.988 2.994 2.994 0 0 0 0 5.988z" clip-path="url(#pa01be0ae72)" style="fill:#5e4fa2"/><path id="patch_212" d="M334.455 87.512a11.976 11.976 0 1 0 0-23.95 11.976 11.976 0 0 0 0 23.95z" clip-path="url(#pa01be0ae72)" style="fill:#9e0142"/><path id="patch_213" d="M149.846 80.906a8.982 8.982 0 1 0 0-17.963 8.982 8.982 0 0 0 0 17.963z" clip-path="url(#pa01be0ae72)" style="fill:#86cfa5"/><path id="patch_214" d="M332.159 62.455a5.988 5.988 0 1 0 0-11.976 5.988 5.988 0 0 0 0 11.976z" clip-path="url(#pa01be0ae72)" style="fill:#f98e52"/><path id="patch_215" d="M421.781 184.897a3.992 3.992 0 1 0 0-7.983 3.992 3.992 0 0 0 0 7.983z" clip-path="url(#pa01be0ae72)" style="fill:#ffffbe"/><path id="patch_216" d="M240.011 191.52a11.976 11.976 0 1 0 0-23.952 11.976 11.976 0 0 0 0 23.951z" clip-path="url(#pa01be0ae72)" style="fill:#9e0142"/><path id="patch_217" d="M219.13 186.754a8.982 8.982 0 1 0 0-17.964 8.982 8.982 0 0 0 0 17.964z" clip-path="url(#pa01be0ae72)" style="fill:#86cfa5"/><path id="patch_218" d="M364.036 185.472a11.976 11.976 0 1 0 0-23.951 11.976 11.976 0 0 0 0 23.951z" clip-path="url(#pa01be0ae72)" style="fill:#9e0142"/><path id="patch_219" d="M415.619 178.471a8.982 8.982 0 1 0 0-17.963 8.982 8.982 0 0 0 0 17.963z" clip-path="url(#pa01be0ae72)" style="fill:#86cfa5"/><path id="patch_220" d="M321.082 67.007a5.988 5.988 0 1 0 0-11.976 5.988 5.988 0 0 0 0 11.976z" clip-path="url(#pa01be0ae72)" style="fill:#f98e52"/><path id="patch_221" d="M252.873 192.997a3.992 3.992 0 1 0 0-7.984 3.992 3.992 0 0 0 0 7.984z" clip-path="url(#pa01be0ae72)" style="fill:#ffffbe"/><path id="patch_222" d="M557.05 178.318a2.994 2.994 0 1 0 0-5.988 2.994 2.994 0 0 0 0 5.988z" clip-path="url(#pa01be0ae72)" style="fill:#5e4fa2"/><path id="patch_223" d="M469.782 158.381a11.976 11.976 0 1 0 0-23.95 11.976 11.976 0 0 0 0 23.95z" clip-path="url(#pa01be0ae72)" style="fill:#9e0142"/><path id="patch_224" d="M340.834 191.412a11.976 11.976 0 1 0 0-23.952 11.976 11.976 0 0 0 0 23.952z" clip-path="url(#pa01be0ae72)" style="fill:#9e0142"/><path id="patch_225" d="M336.91 209.003a8.982 8.982 0 1 0 0-17.963 8.982 8.982 0 0 0 0 17.963z" clip-path="url(#pa01be0ae72)" style="fill:#86cfa5"/><path id="patch_226" d="M154.47 62.455a5.988 5.988 0 1 0 0-11.976 5.988 5.988 0 0 0 0 11.976z" clip-path="url(#pa01be0ae72)" style="fill:#f98e52"/><path id="patch_227" d="M324.749 213.074a3.992 3.992 0 1 0 0-7.984 3.992 3.992 0 0 0 0 7.984z" clip-path="url(#pa01be0ae72)" style="fill:#ffffbe"/><path id="patch_228" d="M476.767 187.22a2.994 2.994 0 1 0 0-5.988 2.994 2.994 0 0 0 0 5.988z" clip-path="url(#pa01be0ae72)" style="fill:#5e4fa2"/><path id="patch_229" d="M346.43 108.254a11.976 11.976 0 1 0 0-23.951 11.976 11.976 0 0 0 0 23.95z" clip-path="url(#pa01be0ae72)" style="fill:#9e0142"/><path id="patch_230" d="M429.345 164.113a8.982 8.982 0 1 0 0-17.963 8.982 8.982 0 0 0 0 17.963z" clip-path="url(#pa01be0ae72)" style="fill:#86cfa5"/><path id="patch_231" d="M228.036 170.778a11.976 11.976 0 1 0 0-23.951 11.976 11.976 0 0 0 0 23.951z" clip-path="url(#pa01be0ae72)" style="fill:#9e0142"/><path id="patch_232" d="M207.71 172.888a8.982 8.982 0 1 0 0-17.963 8.982 8.982 0 0 0 0 17.963z" clip-path="url(#pa01be0ae72)" style="fill:#86cfa5"/><path id="patch_233" d="M364.013 98.59a5.988 5.988 0 1 0 0-11.976 5.988 5.988 0 0 0 0 11.976z" clip-path="url(#pa01be0ae72)" style="fill:#f98e52"/><path id="patch_234" d="M291.323 96.537a11.976 11.976 0 1 0 0-23.951 11.976 11.976 0 0 0 0 23.95z" clip-path="url(#pa01be0ae72)" style="fill:#9e0142"/><path id="patch_235" d="M312.205 91.771a8.982 8.982 0 1 0 0-17.963 8.982 8.982 0 0 0 0 17.963z" clip-path="url(#pa01be0ae72)" style="fill:#86cfa5"/><path id="patch_236" d="M328.848 98.59a5.988 5.988 0 1 0 0-11.976 5.988 5.988 0 0 0 0 11.976z" clip-path="url(#pa01be0ae72)" style="fill:#f98e52"/><path id="patch_237" d="M483.016 185.096a3.992 3.992 0 1 0 0-7.983 3.992 3.992 0 0 0 0 7.983z" clip-path="url(#pa01be0ae72)" style="fill:#ffffbe"/><path id="patch_238" d="M120.97 102a2.994 2.994 0 1 0 0-5.987 2.994 2.994 0 0 0 0 5.987z" clip-path="url(#pa01be0ae72)" style="fill:#5e4fa2"/><path id="patch_239" d="M519.576 172.184a11.976 11.976 0 1 0 0-23.951 11.976 11.976 0 0 0 0 23.95z" clip-path="url(#pa01be0ae72)" style="fill:#9e0142"/><path id="patch_240" d="M387.907 183.527a11.976 11.976 0 1 0 0-23.951 11.976 11.976 0 0 0 0 23.951z" clip-path="url(#pa01be0ae72)" style="fill:#9e0142"/><path id="patch_241" d="M190.44 165.42a8.982 8.982 0 1 0 0-17.964 8.982 8.982 0 0 0 0 17.963z" clip-path="url(#pa01be0ae72)" style="fill:#86cfa5"/><path id="patch_242" d="M273.741 86.873a5.988 5.988 0 1 0 0-11.976 5.988 5.988 0 0 0 0 11.976z" clip-path="url(#pa01be0ae72)" style="fill:#f98e52"/><path id="patch_243" d="M318.946 207.591a3.992 3.992 0 1 0 0-7.984 3.992 3.992 0 0 0 0 7.984z" clip-path="url(#pa01be0ae72)" style="fill:#ffffbe"/><path id="patch_244" d="M491.218 169.063a11.976 11.976 0 1 0 0-23.95 11.976 11.976 0 0 0 0 23.95z" clip-path="url(#pa01be0ae72)" style="fill:#9e0142"/><path id="patch_245" d="M167.398 72.995a8.982 8.982 0 1 0 0-17.963 8.982 8.982 0 0 0 0 17.963z" clip-path="url(#pa01be0ae72)" style="fill:#86cfa5"/><path id="patch_246" d="M249.545 214.042a2.994 2.994 0 1 0 0-5.988 2.994 2.994 0 0 0 0 5.988z" clip-path="url(#pa01be0ae72)" style="fill:#5e4fa2"/><path id="patch_247" d="M151.015 123.535a11.976 11.976 0 1 0 0-23.951 11.976 11.976 0 0 0 0 23.95z" clip-path="url(#pa01be0ae72)" style="fill:#9e0142"/><path id="patch_248" d="M156.45 97.61a8.982 8.982 0 1 0 0-17.963 8.982 8.982 0 0 0 0 17.963z" clip-path="url(#pa01be0ae72)" style="fill:#86cfa5"/><path id="patch_249" d="M180.94 59.676a5.988 5.988 0 1 0 0-11.976 5.988 5.988 0 0 0 0 11.976z" clip-path="url(#pa01be0ae72)" style="fill:#f98e52"/><path id="patch_250" d="M317.57 74.97a3.992 3.992 0 1 0 0-7.983 3.992 3.992 0 0 0 0 7.983z" clip-path="url(#pa01be0ae72)" style="fill:#ffffbe"/><path id="patch_251" d="M251.986 170.778a11.976 11.976 0 1 0 0-23.951 11.976 11.976 0 0 0 0 23.951z" clip-path="url(#pa01be0ae72)" style="fill:#9e0142"/><path id="patch_252" d="M530.055 203.786a11.976 11.976 0 1 0 0-23.95 11.976 11.976 0 0 0 0 23.95z" clip-path="url(#pa01be0ae72)" style="fill:#9e0142"/><path id="patch_253" d="M260.892 186.754a8.982 8.982 0 1 0 0-17.964 8.982 8.982 0 0 0 0 17.964z" clip-path="url(#pa01be0ae72)" style="fill:#86cfa5"/><path id="patch_254" d="M531.314 179.794a5.988 5.988 0 1 0 0-11.976 5.988 5.988 0 0 0 0 11.976z" clip-path="url(#pa01be0ae72)" style="fill:#f98e52"/><path id="patch_255" d="M487.065 176.497a3.992 3.992 0 1 0 0-7.984 3.992 3.992 0 0 0 0 7.984z" clip-path="url(#pa01be0ae72)" style="fill:#ffffbe"/><path id="patch_256" d="M138.634 106.14a2.994 2.994 0 1 0 0-5.987 2.994 2.994 0 0 0 0 5.988z" clip-path="url(#pa01be0ae72)" style="fill:#5e4fa2"/><path id="patch_257" d="M275.594 174.813a11.976 11.976 0 1 0 0-23.95 11.976 11.976 0 0 0 0 23.95z" clip-path="url(#pa01be0ae72)" style="fill:#9e0142"/><path id="patch_258" d="M195.748 64.858a8.982 8.982 0 1 0 0-17.964 8.982 8.982 0 0 0 0 17.964z" clip-path="url(#pa01be0ae72)" style="fill:#86cfa5"/><path id="patch_259" d="M184.074 71.233a5.988 5.988 0 1 0 0-11.975 5.988 5.988 0 0 0 0 11.975z" clip-path="url(#pa01be0ae72)" style="fill:#f98e52"/><path id="patch_260" d="M365.713 122.46a11.976 11.976 0 1 0 0-23.952 11.976 11.976 0 0 0 0 23.951z" clip-path="url(#pa01be0ae72)" style="fill:#9e0142"/><path id="patch_261" d="M277.859 192.653a8.982 8.982 0 1 0 0-17.963 8.982 8.982 0 0 0 0 17.963z" clip-path="url(#pa01be0ae72)" style="fill:#86cfa5"/><path id="patch_262" d="M197.892 88.698a11.976 11.976 0 1 0 0-23.952 11.976 11.976 0 0 0 0 23.952z" clip-path="url(#pa01be0ae72)" style="fill:#9e0142"/><path id="patch_263" d="M212.68 70.855a8.982 8.982 0 1 0 0-17.964 8.982 8.982 0 0 0 0 17.964z" clip-path="url(#pa01be0ae72)" style="fill:#86cfa5"/><path id="patch_264" d="M386.173 108.948a5.988 5.988 0 1 0 0-11.975 5.988 5.988 0 0 0 0 11.975z" clip-path="url(#pa01be0ae72)" style="fill:#f98e52"/><path id="patch_265" d="M403.958 179.166a3.992 3.992 0 1 0 0-7.984 3.992 3.992 0 0 0 0 7.984z" clip-path="url(#pa01be0ae72)" style="fill:#ffffbe"/><path id="patch_266" d="M107.102 69.964a2.994 2.994 0 1 0 0-5.988 2.994 2.994 0 0 0 0 5.988z" clip-path="url(#pa01be0ae72)" style="fill:#5e4fa2"/><path id="patch_267" d="M177.091 152.259a11.976 11.976 0 1 0 0-23.952 11.976 11.976 0 0 0 0 23.952z" clip-path="url(#pa01be0ae72)" style="fill:#9e0142"/><path id="patch_268" d="M461.83 117.278a11.976 11.976 0 1 0 0-23.951 11.976 11.976 0 0 0 0 23.951z" clip-path="url(#pa01be0ae72)" style="fill:#9e0142"/><path id="patch_269" d="M482.71 112.513a8.982 8.982 0 1 0 0-17.964 8.982 8.982 0 0 0 0 17.964z" clip-path="url(#pa01be0ae72)" style="fill:#86cfa5"/><path id="patch_270" d="M499.109 109.557a5.988 5.988 0 1 0 0-11.976 5.988 5.988 0 0 0 0 11.976z" clip-path="url(#pa01be0ae72)" style="fill:#f98e52"/><path id="patch_271" d="M206.194 180.783a3.992 3.992 0 1 0 0-7.984 3.992 3.992 0 0 0 0 7.984z" clip-path="url(#pa01be0ae72)" style="fill:#ffffbe"/><path id="patch_272" d="M109.558 161.28a2.994 2.994 0 1 0 0-5.987 2.994 2.994 0 0 0 0 5.987z" clip-path="url(#pa01be0ae72)" style="fill:#5e4fa2"/><path id="patch_273" d="M506.74 131.806a11.976 11.976 0 1 0-.001-23.951 11.976 11.976 0 0 0 0 23.95z" clip-path="url(#pa01be0ae72)" style="fill:#9e0142"/><path id="patch_274" d="M476.412 129.335a8.982 8.982 0 1 0 0-17.964 8.982 8.982 0 0 0 0 17.964z" clip-path="url(#pa01be0ae72)" style="fill:#86cfa5"/><path id="patch_275" d="M437.88 117.278a11.976 11.976 0 1 0 0-23.951 11.976 11.976 0 0 0 0 23.951z" clip-path="url(#pa01be0ae72)" style="fill:#9e0142"/><path id="patch_276" d="M459.4 135.1a8.982 8.982 0 1 0 0-17.964 8.982 8.982 0 0 0 0 17.963z" clip-path="url(#pa01be0ae72)" style="fill:#86cfa5"/><path id="patch_277" d="M419.321 105.9a5.988 5.988 0 1 0 0-11.976 5.988 5.988 0 0 0 0 11.975z" clip-path="url(#pa01be0ae72)" style="fill:#f98e52"/><path id="patch_278" d="M493.097 115.526a3.992 3.992 0 1 0 0-7.984 3.992 3.992 0 0 0 0 7.984z" clip-path="url(#pa01be0ae72)" style="fill:#ffffbe"/><path id="patch_279" d="M153.895 158.222a11.976 11.976 0 1 0 0-23.951 11.976 11.976 0 0 0 0 23.95z" clip-path="url(#pa01be0ae72)" style="fill:#9e0142"/><path id="patch_280" d="M488.17 145.336a8.982 8.982 0 1 0 0-17.963 8.982 8.982 0 0 0 0 17.963z" clip-path="url(#pa01be0ae72)" style="fill:#86cfa5"/><path id="patch_281" d="M179.931 82.469a5.988 5.988 0 1 0 0-11.976 5.988 5.988 0 0 0 0 11.976z" clip-path="url(#pa01be0ae72)" style="fill:#f98e52"/><path id="patch_282" d="M436.089 93.436a2.994 2.994 0 1 0 0-5.988 2.994 2.994 0 0 0 0 5.988z" clip-path="url(#pa01be0ae72)" style="fill:#5e4fa2"/><path id="patch_283" d="M267.285 152.35a11.976 11.976 0 1 0 0-23.95 11.976 11.976 0 0 0 0 23.95z" clip-path="url(#pa01be0ae72)" style="fill:#9e0142"/><path id="patch_284" d="M343.77 132.056a11.976 11.976 0 1 0-.001-23.952 11.976 11.976 0 0 0 0 23.952z" clip-path="url(#pa01be0ae72)" style="fill:#9e0142"/><path id="patch_285" d="M505.347 150.592a8.982 8.982 0 1 0 0-17.963 8.982 8.982 0 0 0 0 17.963z" clip-path="url(#pa01be0ae72)" style="fill:#86cfa5"/><path id="patch_286" d="M331.794 112.68a5.988 5.988 0 1 0 0-11.976 5.988 5.988 0 0 0 0 11.976z" clip-path="url(#pa01be0ae72)" style="fill:#f98e52"/><path id="patch_287" d="M149.715 131.465a3.992 3.992 0 1 0 0-7.983 3.992 3.992 0 0 0 0 7.983z" clip-path="url(#pa01be0ae72)" style="fill:#ffffbe"/><path id="patch_288" d="M181.687 106.333a11.976 11.976 0 1 0 0-23.951 11.976 11.976 0 0 0 0 23.951z" clip-path="url(#pa01be0ae72)" style="fill:#9e0142"/><path id="patch_289" d="M298.293 193.272a8.982 8.982 0 1 0 0-17.964 8.982 8.982 0 0 0 0 17.964z" clip-path="url(#pa01be0ae72)" style="fill:#86cfa5"/><path id="patch_290" d="M403.714 171.187a2.994 2.994 0 1 0 0-5.988 2.994 2.994 0 0 0 0 5.988z" clip-path="url(#pa01be0ae72)" style="fill:#5e4fa2"/><path id="patch_291" d="M319.82 132.056a11.976 11.976 0 1 0-.001-23.952 11.976 11.976 0 0 0 0 23.952z" clip-path="url(#pa01be0ae72)" style="fill:#9e0142"/><path id="patch_292" d="M403.513 165.201a8.982 8.982 0 1 0 0-17.963 8.982 8.982 0 0 0 0 17.963z" clip-path="url(#pa01be0ae72)" style="fill:#86cfa5"/><path id="patch_293" d="M320.718 108.128a5.988 5.988 0 1 0 0-11.976 5.988 5.988 0 0 0 0 11.976z" clip-path="url(#pa01be0ae72)" style="fill:#f98e52"/><path id="patch_294" d="M449.855 119.856a3.992 3.992 0 1 0 0-7.984 3.992 3.992 0 0 0 0 7.984z" clip-path="url(#pa01be0ae72)" style="fill:#ffffbe"/><path id="patch_295" d="M221.476 92.87a11.976 11.976 0 1 0 0-23.952 11.976 11.976 0 0 0 0 23.951z" clip-path="url(#pa01be0ae72)" style="fill:#9e0142"/><path id="patch_296" d="M507.243 196.49a11.976 11.976 0 1 0 0-23.95 11.976 11.976 0 0 0 0 23.95z" clip-path="url(#pa01be0ae72)" style="fill:#9e0142"/><path id="patch_297" d="M305.92 113.378a8.982 8.982 0 1 0 0-17.963 8.982 8.982 0 0 0 0 17.963z" clip-path="url(#pa01be0ae72)" style="fill:#86cfa5"/><path id="patch_298" d="M452.406 147.842a5.988 5.988 0 1 0 0-11.975 5.988 5.988 0 0 0 0 11.975z" clip-path="url(#pa01be0ae72)" style="fill:#f98e52"/><path id="patch_299" d="M490.786 123.168a3.992 3.992 0 1 0 0-7.984 3.992 3.992 0 0 0 0 7.984z" clip-path="url(#pa01be0ae72)" style="fill:#ffffbe"/><path id="patch_300" d="M502.883 201.83a2.994 2.994 0 1 0 0-5.988 2.994 2.994 0 0 0 0 5.987z" clip-path="url(#pa01be0ae72)" style="fill:#5e4fa2"/><path id="patch_301" d="M206.072 111.208a11.976 11.976 0 1 0 0-23.951 11.976 11.976 0 0 0 0 23.95z" clip-path="url(#pa01be0ae72)" style="fill:#9e0142"/><path id="patch_302" d="M316.22 194.396a8.982 8.982 0 1 0 0-17.963 8.982 8.982 0 0 0 0 17.963z" clip-path="url(#pa01be0ae72)" style="fill:#86cfa5"/><path id="patch_303" d="M227.5 69.96a5.988 5.988 0 1 0 0-11.976 5.988 5.988 0 0 0 0 11.976z" clip-path="url(#pa01be0ae72)" style="fill:#f98e52"/><path id="patch_304" d="M331.794 152.797a11.976 11.976 0 1 0 0-23.951 11.976 11.976 0 0 0 0 23.95z" clip-path="url(#pa01be0ae72)" style="fill:#9e0142"/><path id="patch_305" d="M348.17 168.787a8.982 8.982 0 1 0 0-17.963 8.982 8.982 0 0 0 0 17.963z" clip-path="url(#pa01be0ae72)" style="fill:#86cfa5"/><path id="patch_306" d="M476.646 136.097a2.994 2.994 0 1 0 0-5.987 2.994 2.994 0 0 0 0 5.987z" clip-path="url(#pa01be0ae72)" style="fill:#5e4fa2"/><path id="patch_307" d="M229.656 115.38a11.976 11.976 0 1 0 0-23.952 11.976 11.976 0 0 0 0 23.951z" clip-path="url(#pa01be0ae72)" style="fill:#9e0142"/><path id="patch_308" d="M352.676 148.031a8.982 8.982 0 1 0 0-17.963 8.982 8.982 0 0 0 0 17.963z" clip-path="url(#pa01be0ae72)" style="fill:#86cfa5"/><path id="patch_309" d="M236.798 77.507a5.988 5.988 0 1 0 0-11.976 5.988 5.988 0 0 0 0 11.976z" clip-path="url(#pa01be0ae72)" style="fill:#f98e52"/><path id="patch_310" d="M521.866 182.096a3.992 3.992 0 1 0 0-7.984 3.992 3.992 0 0 0 0 7.984z" clip-path="url(#pa01be0ae72)" style="fill:#ffffbe"/><path id="patch_311" d="M412.24 128.395a11.976 11.976 0 1 0 0-23.951 11.976 11.976 0 0 0 0 23.951z" clip-path="url(#pa01be0ae72)" style="fill:#9e0142"/><path id="patch_312" d="M308.442 177.93a11.976 11.976 0 1 0 0-23.95 11.976 11.976 0 0 0 0 23.95z" clip-path="url(#pa01be0ae72)" style="fill:#9e0142"/><path id="patch_313" d="M241.9 94.573a8.982 8.982 0 1 0-.001-17.963 8.982 8.982 0 0 0 0 17.963z" clip-path="url(#pa01be0ae72)" style="fill:#86cfa5"/><path id="patch_314" d="M442.539 128.639a5.988 5.988 0 1 0 0-11.976 5.988 5.988 0 0 0 0 11.976z" clip-path="url(#pa01be0ae72)" style="fill:#f98e52"/><path id="patch_315" d="M286.769 178.234a3.992 3.992 0 1 0 0-7.983 3.992 3.992 0 0 0 0 7.983z" clip-path="url(#pa01be0ae72)" style="fill:#ffffbe"/><path id="patch_316" d="M505.77 156.573a2.994 2.994 0 1 0 0-5.988 2.994 2.994 0 0 0 0 5.988z" clip-path="url(#pa01be0ae72)" style="fill:#5e4fa2"/><path id="patch_317" d="M200.96 150.289a11.976 11.976 0 1 0 0-23.952 11.976 11.976 0 0 0 0 23.952z" clip-path="url(#pa01be0ae72)" style="fill:#9e0142"/><path id="patch_318" d="M214.868 127.235a8.982 8.982 0 1 0 0-17.964 8.982 8.982 0 0 0 0 17.964z" clip-path="url(#pa01be0ae72)" style="fill:#86cfa5"/><path id="patch_319" d="M290.892 156.386a11.976 11.976 0 1 0 0-23.951 11.976 11.976 0 0 0 0 23.951z" clip-path="url(#pa01be0ae72)" style="fill:#9e0142"/><path id="patch_320" d="M364.602 161.53a8.982 8.982 0 1 0 0-17.964 8.982 8.982 0 0 0 0 17.964z" clip-path="url(#pa01be0ae72)" style="fill:#86cfa5"/><path id="patch_321" d="M430.6 127.712a5.988 5.988 0 1 0 0-11.976 5.988 5.988 0 0 0 0 11.976z" clip-path="url(#pa01be0ae72)" style="fill:#f98e52"/><path id="patch_322" d="M246.58 77.485a3.992 3.992 0 1 0 0-7.984 3.992 3.992 0 0 0 0 7.984z" clip-path="url(#pa01be0ae72)" style="fill:#ffffbe"/><path id="patch_323" d="M187.32 130.602a11.976 11.976 0 1 0 0-23.95 11.976 11.976 0 0 0 0 23.95z" clip-path="url(#pa01be0ae72)" style="fill:#9e0142"/><path id="patch_324" d="M435.507 144.847a8.982 8.982 0 1 0 0-17.963 8.982 8.982 0 0 0 0 17.963z" clip-path="url(#pa01be0ae72)" style="fill:#86cfa5"/><path id="patch_325" d="M314.212 143.133a5.988 5.988 0 1 0 0-11.976 5.988 5.988 0 0 0 0 11.976z" clip-path="url(#pa01be0ae72)" style="fill:#f98e52"/><path id="patch_326" d="M372.08 72.443a2.994 2.994 0 1 0 0-5.988 2.994 2.994 0 0 0 0 5.988z" clip-path="url(#pa01be0ae72)" style="fill:#5e4fa2"/><path id="patch_327" d="M233.925 138.946a11.976 11.976 0 1 0 0-23.951 11.976 11.976 0 0 0 0 23.95z" clip-path="url(#pa01be0ae72)" style="fill:#9e0142"/><path id="patch_328" d="M252.2 123.465a11.976 11.976 0 1 0 0-23.951 11.976 11.976 0 0 0 0 23.951z" clip-path="url(#pa01be0ae72)" style="fill:#9e0142"/><path id="patch_329" d="M298.88 129.903a8.982 8.982 0 1 0 0-17.963 8.982 8.982 0 0 0 0 17.963z" clip-path="url(#pa01be0ae72)" style="fill:#86cfa5"/><path id="patch_330" d="M333.55 169.005a5.988 5.988 0 1 0 0-11.976 5.988 5.988 0 0 0 0 11.976z" clip-path="url(#pa01be0ae72)" style="fill:#f98e52"/><path id="patch_331" d="M218.408 134.726a3.992 3.992 0 1 0 0-7.984 3.992 3.992 0 0 0 0 7.984z" clip-path="url(#pa01be0ae72)" style="fill:#ffffbe"/><path id="patch_332" d="M273.67 104.835a8.982 8.982 0 1 0 0-17.963 8.982 8.982 0 0 0 0 17.963z" clip-path="url(#pa01be0ae72)" style="fill:#86cfa5"/><path id="patch_333" d="M373.372 78.29a2.994 2.994 0 1 0 0-5.988 2.994 2.994 0 0 0 0 5.987z" clip-path="url(#pa01be0ae72)" style="fill:#5e4fa2"/><path id="patch_334" d="M315.808 155.001a5.988 5.988 0 1 0 0-11.975 5.988 5.988 0 0 0 0 11.975z" clip-path="url(#pa01be0ae72)" style="fill:#f98e52"/><path id="patch_335" d="M328.783 193.902a3.992 3.992 0 1 0 0-7.983 3.992 3.992 0 0 0 0 7.983z" clip-path="url(#pa01be0ae72)" style="fill:#ffffbe"/><path id="patch_336" d="M251.717 135.433a5.988 5.988 0 1 0 0-11.975 5.988 5.988 0 0 0 0 11.975z" clip-path="url(#pa01be0ae72)" style="fill:#f98e52"/><path id="patch_337" d="M308.675 133.068a2.994 2.994 0 1 0 0-5.988 2.994 2.994 0 0 0 0 5.988z" clip-path="url(#pa01be0ae72)" style="fill:#5e4fa2"/><path id="patch_338" d="M266.81 77.698a3.992 3.992 0 1 0 0-7.984 3.992 3.992 0 0 0 0 7.984z" clip-path="url(#pa01be0ae72)" style="fill:#ffffbe"/><path id="patch_339" d="M246.207 146.066a5.988 5.988 0 1 0 0-11.976 5.988 5.988 0 0 0 0 11.976z" clip-path="url(#pa01be0ae72)" style="fill:#f98e52"/><path id="patch_340" d="M372.27 84.175a2.994 2.994 0 1 0 0-5.988 2.994 2.994 0 0 0 0 5.988z" clip-path="url(#pa01be0ae72)" style="fill:#5e4fa2"/><path id="patch_341" d="M395.048 117.205a5.988 5.988 0 1 0 0-11.975 5.988 5.988 0 0 0 0 11.975z" clip-path="url(#pa01be0ae72)" style="fill:#f98e52"/><path id="patch_342" d="M307.098 148.135a3.992 3.992 0 1 0 0-7.983 3.992 3.992 0 0 0 0 7.983z" clip-path="url(#pa01be0ae72)" style="fill:#ffffbe"/><path id="patch_343" d="M391.788 140.857a11.976 11.976 0 1 0 0-23.951 11.976 11.976 0 0 0 0 23.951z" clip-path="url(#pa01be0ae72)" style="fill:#9e0142"/><path id="patch_344" d="M159.692 133.275a5.988 5.988 0 1 0 0-11.976 5.988 5.988 0 0 0 0 11.976z" clip-path="url(#pa01be0ae72)" style="fill:#f98e52"/><path id="patch_345" d="M385.523 118.187a3.992 3.992 0 1 0 0-7.983 3.992 3.992 0 0 0 0 7.983z" clip-path="url(#pa01be0ae72)" style="fill:#ffffbe"/><path id="patch_346" d="M314.308 98.844a2.994 2.994 0 1 0 0-5.988 2.994 2.994 0 0 0 0 5.988z" clip-path="url(#pa01be0ae72)" style="fill:#5e4fa2"/><path id="patch_347" d="M323.978 158.736a3.992 3.992 0 1 0 0-7.983 3.992 3.992 0 0 0 0 7.983z" clip-path="url(#pa01be0ae72)" style="fill:#ffffbe"/><path id="patch_348" d="M167.65 124.326a5.988 5.988 0 1 0 0-11.976 5.988 5.988 0 0 0 0 11.976z" clip-path="url(#pa01be0ae72)" style="fill:#f98e52"/><path id="patch_349" d="M415.417 160.51a2.994 2.994 0 1 0 0-5.987 2.994 2.994 0 0 0 0 5.987z" clip-path="url(#pa01be0ae72)" style="fill:#5e4fa2"/><path id="patch_350" d="M542.929 182.708a5.988 5.988 0 1 0 0-11.976 5.988 5.988 0 0 0 0 11.976z" clip-path="url(#pa01be0ae72)" style="fill:#f98e52"/><path id="patch_351" d="M358.973 128.95a3.992 3.992 0 1 0 0-7.983 3.992 3.992 0 0 0 0 7.983z" clip-path="url(#pa01be0ae72)" style="fill:#ffffbe"/><path id="patch_352" d="M370.514 139.865a8.982 8.982 0 1 0 0-17.964 8.982 8.982 0 0 0 0 17.964z" clip-path="url(#pa01be0ae72)" style="fill:#86cfa5"/><path id="patch_353" d="M168.674 130.255a2.994 2.994 0 1 0 0-5.988 2.994 2.994 0 0 0 0 5.988z" clip-path="url(#pa01be0ae72)" style="fill:#5e4fa2"/><path id="patch_354" d="M281.344 135.184a5.988 5.988 0 1 0 0-11.976 5.988 5.988 0 0 0 0 11.976z" clip-path="url(#pa01be0ae72)" style="fill:#f98e52"/><path id="patch_355" d="M260.664 129.02a3.992 3.992 0 1 0 0-7.984 3.992 3.992 0 0 0 0 7.984z" clip-path="url(#pa01be0ae72)" style="fill:#ffffbe"/><path id="patch_356" d="M410.963 146.319a8.982 8.982 0 1 0 0-17.964 8.982 8.982 0 0 0 0 17.964z" clip-path="url(#pa01be0ae72)" style="fill:#86cfa5"/><path id="patch_357" d="M168.213 112.364a5.988 5.988 0 1 0 0-11.976 5.988 5.988 0 0 0 0 11.976z" clip-path="url(#pa01be0ae72)" style="fill:#f98e52"/><path id="patch_358" d="M201.593 211.713a2.994 2.994 0 1 0 0-5.988 2.994 2.994 0 0 0 0 5.988z" clip-path="url(#pa01be0ae72)" style="fill:#5e4fa2"/><path id="patch_359" d="M378.201 124.425a3.992 3.992 0 1 0 0-7.984 3.992 3.992 0 0 0 0 7.984z" clip-path="url(#pa01be0ae72)" style="fill:#ffffbe"/><path id="patch_360" d="M268.554 124.905a5.988 5.988 0 1 0 0-11.975 5.988 5.988 0 0 0 0 11.975z" clip-path="url(#pa01be0ae72)" style="fill:#f98e52"/><path id="patch_361" d="M421.334 133.536a3.992 3.992 0 1 0 0-7.984 3.992 3.992 0 0 0 0 7.984z" clip-path="url(#pa01be0ae72)" style="fill:#ffffbe"/><path id="patch_362" d="M161.28 103.66a2.994 2.994 0 1 0 0-5.988 2.994 2.994 0 0 0 0 5.988z" clip-path="url(#pa01be0ae72)" style="fill:#5e4fa2"/><path id="patch_363" d="M255.144 84.604a5.988 5.988 0 1 0 0-11.975 5.988 5.988 0 0 0 0 11.975z" clip-path="url(#pa01be0ae72)" style="fill:#f98e52"/><path id="patch_364" d="M291.383 113.953a5.988 5.988 0 1 0 0-11.975 5.988 5.988 0 0 0 0 11.975z" clip-path="url(#pa01be0ae72)" style="fill:#f98e52"/><path id="patch_365" d="M399.282 146.973a3.992 3.992 0 1 0 0-7.984 3.992 3.992 0 0 0 0 7.984z" clip-path="url(#pa01be0ae72)" style="fill:#ffffbe"/><path id="patch_366" d="M344.861 151.118a2.994 2.994 0 1 0 0-5.988 2.994 2.994 0 0 0 0 5.988z" clip-path="url(#pa01be0ae72)" style="fill:#5e4fa2"/><path id="patch_367" d="M171.603 85.97a3.992 3.992 0 1 0 0-7.983 3.992 3.992 0 0 0 0 7.984z" clip-path="url(#pa01be0ae72)" style="fill:#ffffbe"/><path id="patch_368" d="M256.02 96.547a5.988 5.988 0 1 0 0-11.975 5.988 5.988 0 0 0 0 11.975z" clip-path="url(#pa01be0ae72)" style="fill:#f98e52"/><path id="patch_369" d="M145.578 60.72a2.994 2.994 0 1 0 0-5.987 2.994 2.994 0 0 0 0 5.988z" clip-path="url(#pa01be0ae72)" style="fill:#5e4fa2"/><path id="patch_370" d="M495.048 176.58a3.992 3.992 0 1 0 0-7.983 3.992 3.992 0 0 0 0 7.984z" clip-path="url(#pa01be0ae72)" style="fill:#ffffbe"/><path id="patch_371" d="M390.046 152.747a5.988 5.988 0 1 0 0-11.975 5.988 5.988 0 0 0 0 11.975z" clip-path="url(#pa01be0ae72)" style="fill:#f98e52"/><path id="patch_372" d="M518.745 113.884a2.994 2.994 0 1 0 0-5.988 2.994 2.994 0 0 0 0 5.988z" clip-path="url(#pa01be0ae72)" style="fill:#5e4fa2"/><path id="patch_373" d="M221.718 146.136a5.988 5.988 0 1 0 0-11.976 5.988 5.988 0 0 0 0 11.976z" clip-path="url(#pa01be0ae72)" style="fill:#f98e52"/><path id="patch_374" d="M267.964 112.948a3.992 3.992 0 1 0 0-7.984 3.992 3.992 0 0 0 0 7.984z" clip-path="url(#pa01be0ae72)" style="fill:#ffffbe"/><path id="patch_375" d="M197.77 193.217a2.994 2.994 0 1 0 0-5.988 2.994 2.994 0 0 0 0 5.988z" clip-path="url(#pa01be0ae72)" style="fill:#5e4fa2"/><path id="patch_376" d="M381.713 145.26a3.992 3.992 0 1 0 0-7.983 3.992 3.992 0 0 0 0 7.983z" clip-path="url(#pa01be0ae72)" style="fill:#ffffbe"/><path id="patch_377" d="M231.358 146.721a3.992 3.992 0 1 0 0-7.983 3.992 3.992 0 0 0 0 7.983z" clip-path="url(#pa01be0ae72)" style="fill:#ffffbe"/><path id="patch_378" d="M470.883 134.472a2.994 2.994 0 1 0 0-5.988 2.994 2.994 0 0 0 0 5.988z" clip-path="url(#pa01be0ae72)" style="fill:#5e4fa2"/><path id="patch_379" d="M277.693 117.166a5.988 5.988 0 1 0 0-11.975 5.988 5.988 0 0 0 0 11.975z" clip-path="url(#pa01be0ae72)" style="fill:#f98e52"/><path id="patch_380" d="M380.353 153.127a3.992 3.992 0 1 0 0-7.984 3.992 3.992 0 0 0 0 7.984z" clip-path="url(#pa01be0ae72)" style="fill:#ffffbe"/><path id="patch_381" d="M422.897 139.346a2.994 2.994 0 1 0 0-5.987 2.994 2.994 0 0 0 0 5.987z" clip-path="url(#pa01be0ae72)" style="fill:#5e4fa2"/><path id="patch_382" d="M324.402 200.576a3.992 3.992 0 1 0 0-7.984 3.992 3.992 0 0 0 0 7.984z" clip-path="url(#pa01be0ae72)" style="fill:#ffffbe"/><path id="patch_383" d="M305.235 140.405a2.994 2.994 0 1 0 0-5.988 2.994 2.994 0 0 0 0 5.988z" clip-path="url(#pa01be0ae72)" style="fill:#5e4fa2"/><path id="patch_384" d="M422.471 147.317a3.992 3.992 0 1 0 0-7.984 3.992 3.992 0 0 0 0 7.984z" clip-path="url(#pa01be0ae72)" style="fill:#ffffbe"/><path id="patch_385" d="M394.44 67.043a2.994 2.994 0 1 0 0-5.988 2.994 2.994 0 0 0 0 5.988z" clip-path="url(#pa01be0ae72)" style="fill:#5e4fa2"/><path id="patch_386" d="M374.248 165.215a3.992 3.992 0 1 0 0-7.984 3.992 3.992 0 0 0 0 7.984z" clip-path="url(#pa01be0ae72)" style="fill:#ffffbe"/><path id="patch_387" d="M439.498 151.776a2.994 2.994 0 1 0 0-5.988 2.994 2.994 0 0 0 0 5.988z" clip-path="url(#pa01be0ae72)" style="fill:#5e4fa2"/><path id="patch_388" d="M415.174 154.527a3.992 3.992 0 1 0 0-7.984 3.992 3.992 0 0 0 0 7.984z" clip-path="url(#pa01be0ae72)" style="fill:#ffffbe"/><path id="patch_389" d="M240.011 152.234a3.992 3.992 0 1 0 0-7.984 3.992 3.992 0 0 0 0 7.984z" clip-path="url(#pa01be0ae72)" style="fill:#ffffbe"/><path id="patch_390" d="M243.96 101.987a2.994 2.994 0 1 0 0-5.988 2.994 2.994 0 0 0 0 5.988z" clip-path="url(#pa01be0ae72)" style="fill:#5e4fa2"/><path id="patch_391" d="M322.27 177.93a3.992 3.992 0 1 0 0-7.983 3.992 3.992 0 0 0 0 7.984z" clip-path="url(#pa01be0ae72)" style="fill:#ffffbe"/><path id="patch_392" d="M249.517 99.757a2.994 2.994 0 1 0 0-5.988 2.994 2.994 0 0 0 0 5.988z" clip-path="url(#pa01be0ae72)" style="fill:#5e4fa2"/><path id="patch_393" d="M286.604 120.718a3.992 3.992 0 1 0 0-7.984 3.992 3.992 0 0 0 0 7.984z" clip-path="url(#pa01be0ae72)" style="fill:#ffffbe"/><path id="patch_394" d="M305.089 51.953a2.994 2.994 0 1 0 0-5.988 2.994 2.994 0 0 0 0 5.988z" clip-path="url(#pa01be0ae72)" style="fill:#5e4fa2"/><path id="patch_395" d="M519.081 148.241a3.992 3.992 0 1 0 0-7.983 3.992 3.992 0 0 0 0 7.983z" clip-path="url(#pa01be0ae72)" style="fill:#ffffbe"/><path id="patch_396" d="M518.521 140.274a5.988 5.988 0 1 0 0-11.976 5.988 5.988 0 0 0 0 11.976z" clip-path="url(#pa01be0ae72)" style="fill:#f98e52"/><path id="patch_397" d="M201.982 156.241a2.994 2.994 0 1 0 0-5.988 2.994 2.994 0 0 0 0 5.988z" clip-path="url(#pa01be0ae72)" style="fill:#5e4fa2"/><path id="patch_398" d="M291.369 164.362a3.992 3.992 0 1 0 0-7.983 3.992 3.992 0 0 0 0 7.983z" clip-path="url(#pa01be0ae72)" style="fill:#ffffbe"/><path id="patch_399" d="M207.753 154.646a2.994 2.994 0 1 0 0-5.988 2.994 2.994 0 0 0 0 5.988z" clip-path="url(#pa01be0ae72)" style="fill:#5e4fa2"/><path id="patch_400" d="M526.43 132.192a3.992 3.992 0 1 0 0-7.984 3.992 3.992 0 0 0 0 7.984z" clip-path="url(#pa01be0ae72)" style="fill:#ffffbe"/><path id="patch_401" d="M213.683 151.952a3.992 3.992 0 1 0 0-7.984 3.992 3.992 0 0 0 0 7.984z" clip-path="url(#pa01be0ae72)" style="fill:#ffffbe"/><path id="patch_402" d="M289.912 170.196a2.994 2.994 0 1 0 0-5.988 2.994 2.994 0 0 0 0 5.988z" clip-path="url(#pa01be0ae72)" style="fill:#5e4fa2"/><path id="patch_403" d="M137.74 147.629a3.992 3.992 0 1 0-.001-7.984 3.992 3.992 0 0 0 0 7.984z" clip-path="url(#pa01be0ae72)" style="fill:#ffffbe"/><path id="patch_404" d="M145.596 213.782a2.994 2.994 0 1 0 0-5.988 2.994 2.994 0 0 0 0 5.988z" clip-path="url(#pa01be0ae72)" style="fill:#5e4fa2"/><path id="patch_405" d="M385.197 159.473a3.992 3.992 0 1 0 0-7.983 3.992 3.992 0 0 0 0 7.983z" clip-path="url(#pa01be0ae72)" style="fill:#ffffbe"/><path id="patch_406" d="M371.92 99.856a2.994 2.994 0 1 0 0-5.987 2.994 2.994 0 0 0 0 5.987z" clip-path="url(#pa01be0ae72)" style="fill:#5e4fa2"/><path id="patch_407" d="M137.558 155.61a3.992 3.992 0 1 0 0-7.984 3.992 3.992 0 0 0 0 7.984z" clip-path="url(#pa01be0ae72)" style="fill:#ffffbe"/><path id="patch_408" d="M376.761 103.379a2.994 2.994 0 1 0 0-5.988 2.994 2.994 0 0 0 0 5.988z" clip-path="url(#pa01be0ae72)" style="fill:#5e4fa2"/><path id="patch_409" d="M132.726 166.337a5.988 5.988 0 1 0 0-11.975 5.988 5.988 0 0 0 0 11.975z" clip-path="url(#pa01be0ae72)" style="fill:#f98e52"/><path id="patch_410" d="M116.4 160.872a3.992 3.992 0 1 0 0-7.983 3.992 3.992 0 0 0 0 7.983z" clip-path="url(#pa01be0ae72)" style="fill:#ffffbe"/><path id="patch_411" d="M304.39 94.858a2.994 2.994 0 1 0 0-5.988 2.994 2.994 0 0 0 0 5.988z" clip-path="url(#pa01be0ae72)" style="fill:#5e4fa2"/><path id="patch_412" d="M142.414 161.947a3.992 3.992 0 1 0 0-7.984 3.992 3.992 0 0 0 0 7.984z" clip-path="url(#pa01be0ae72)" style="fill:#ffffbe"/><path id="patch_413" d="M566.835 107.923a2.994 2.994 0 1 0 0-5.988 2.994 2.994 0 0 0 0 5.988z" clip-path="url(#pa01be0ae72)" style="fill:#5e4fa2"/><path id="patch_414" d="M141.07 169.816a3.992 3.992 0 1 0-.001-7.983 3.992 3.992 0 0 0 0 7.983z" clip-path="url(#pa01be0ae72)" style="fill:#ffffbe"/><path id="patch_415" d="M263.544 87.996a3.992 3.992 0 1 0 0-7.984 3.992 3.992 0 0 0 0 7.984z" clip-path="url(#pa01be0ae72)" style="fill:#ffffbe"/><path id="patch_416" d="M123.815 162.223a2.994 2.994 0 1 0 0-5.988 2.994 2.994 0 0 0 0 5.988z" clip-path="url(#pa01be0ae72)" style="fill:#5e4fa2"/><path id="patch_417" d="M502.073 172.79a3.992 3.992 0 1 0 0-7.984 3.992 3.992 0 0 0 0 7.983z" clip-path="url(#pa01be0ae72)" style="fill:#ffffbe"/><path id="patch_418" d="M277.45 123.15a2.994 2.994 0 1 0 0-5.987 2.994 2.994 0 0 0 0 5.987z" clip-path="url(#pa01be0ae72)" style="fill:#5e4fa2"/><path id="patch_419" d="M490.984 183.452a3.992 3.992 0 1 0 0-7.983 3.992 3.992 0 0 0 0 7.983z" clip-path="url(#pa01be0ae72)" style="fill:#ffffbe"/><path id="patch_420" d="M203.671 117.002a2.994 2.994 0 1 0 0-5.988 2.994 2.994 0 0 0 0 5.988z" clip-path="url(#pa01be0ae72)" style="fill:#5e4fa2"/><path id="patch_421" d="M161.854 80.827a3.992 3.992 0 1 0 0-7.984 3.992 3.992 0 0 0 0 7.984z" clip-path="url(#pa01be0ae72)" style="fill:#ffffbe"/><path id="patch_422" d="M203.015 122.953a2.994 2.994 0 1 0 0-5.988 2.994 2.994 0 0 0 0 5.988z" clip-path="url(#pa01be0ae72)" style="fill:#5e4fa2"/><path id="patch_423" d="M295.103 175.742a2.994 2.994 0 1 0 0-5.988 2.994 2.994 0 0 0 0 5.988z" clip-path="url(#pa01be0ae72)" style="fill:#5e4fa2"/><path id="patch_424" d="M294.903 102.697a2.994 2.994 0 1 0 0-5.988 2.994 2.994 0 0 0 0 5.988z" clip-path="url(#pa01be0ae72)" style="fill:#5e4fa2"/><path id="patch_425" d="M140.838 181.68a2.994 2.994 0 1 0 0-5.988 2.994 2.994 0 0 0 0 5.987z" clip-path="url(#pa01be0ae72)" style="fill:#5e4fa2"/><path id="patch_426" d="M335.003 215.184a2.994 2.994 0 1 0 0-5.988 2.994 2.994 0 0 0 0 5.988z" clip-path="url(#pa01be0ae72)" style="fill:#5e4fa2"/><path id="patch_427" d="M323.371 170.035a2.994 2.994 0 1 0 0-5.988 2.994 2.994 0 0 0 0 5.988z" clip-path="url(#pa01be0ae72)" style="fill:#5e4fa2"/><path id="patch_428" d="M212.418 52.596a2.994 2.994 0 1 0 0-5.988 2.994 2.994 0 0 0 0 5.988z" clip-path="url(#pa01be0ae72)" style="fill:#5e4fa2"/><path id="patch_429" d="M155.748 165.022a2.994 2.994 0 1 0 0-5.988 2.994 2.994 0 0 0 0 5.988z" clip-path="url(#pa01be0ae72)" style="fill:#5e4fa2"/><path id="patch_430" d="M565.849 169.234a2.994 2.994 0 1 0 0-5.987 2.994 2.994 0 0 0 0 5.987z" clip-path="url(#pa01be0ae72)" style="fill:#5e4fa2"/><path id="patch_431" d="M149.764 164.798a2.994 2.994 0 1 0 0-5.988 2.994 2.994 0 0 0 0 5.988z" clip-path="url(#pa01be0ae72)" style="fill:#5e4fa2"/><path id="patch_432" d="M557.005 212.962a2.994 2.994 0 1 0 0-5.988 2.994 2.994 0 0 0 0 5.988z" clip-path="url(#pa01be0ae72)" style="fill:#5e4fa2"/><path id="patch_433" d="M153.336 188.429a2.994 2.994 0 1 0 0-5.988 2.994 2.994 0 0 0 0 5.988z" clip-path="url(#pa01be0ae72)" style="fill:#5e4fa2"/><path id="patch_434" d="M328.309 173.422a2.994 2.994 0 1 0 0-5.988 2.994 2.994 0 0 0 0 5.988z" clip-path="url(#pa01be0ae72)" style="fill:#5e4fa2"/><path id="patch_435" d="M153.843 194.395a2.994 2.994 0 1 0 0-5.988 2.994 2.994 0 0 0 0 5.988z" clip-path="url(#pa01be0ae72)" style="fill:#5e4fa2"/><path id="patch_436" d="M375.384 147.22a2.994 2.994 0 1 0 0-5.988 2.994 2.994 0 0 0 0 5.988z" clip-path="url(#pa01be0ae72)" style="fill:#5e4fa2"/><path id="patch_437" d="M125.091 168.073a2.994 2.994 0 1 0 0-5.988 2.994 2.994 0 0 0 0 5.988z" clip-path="url(#pa01be0ae72)" style="fill:#5e4fa2"/><path id="patch_438" d="M497.964 61.04a2.994 2.994 0 1 0 0-5.988 2.994 2.994 0 0 0 0 5.988z" clip-path="url(#pa01be0ae72)" style="fill:#5e4fa2"/><path id="patch_439" d="M475.595 72.694a2.994 2.994 0 1 0 0-5.988 2.994 2.994 0 0 0 0 5.988z" clip-path="url(#pa01be0ae72)" style="fill:#5e4fa2"/><path id="patch_440" d="M498.355 67.015a2.994 2.994 0 1 0 0-5.988 2.994 2.994 0 0 0 0 5.988z" clip-path="url(#pa01be0ae72)" style="fill:#5e4fa2"/><path id="patch_441" d="M481.276 74.585a2.994 2.994 0 1 0 0-5.988 2.994 2.994 0 0 0 0 5.988z" clip-path="url(#pa01be0ae72)" style="fill:#5e4fa2"/><path id="patch_442" d="M501.59 72.054a2.994 2.994 0 1 0 0-5.988 2.994 2.994 0 0 0 0 5.988z" clip-path="url(#pa01be0ae72)" style="fill:#5e4fa2"/><path id="patch_443" d="M494.661 73.942a3.992 3.992 0 1 0 0-7.984 3.992 3.992 0 0 0 0 7.984z" clip-path="url(#pa01be0ae72)" style="fill:#ffffbe"/><path id="patch_444" d="M166.41 100.572a2.994 2.994 0 1 0 0-5.988 2.994 2.994 0 0 0 0 5.988z" clip-path="url(#pa01be0ae72)" style="fill:#5e4fa2"/><path id="patch_445" d="M506.86 74.897a2.994 2.994 0 1 0-.001-5.988 2.994 2.994 0 0 0 0 5.988z" clip-path="url(#pa01be0ae72)" style="fill:#5e4fa2"/><path id="patch_446" d="M485.762 78.55a2.994 2.994 0 1 0 0-5.987 2.994 2.994 0 0 0 0 5.988z" clip-path="url(#pa01be0ae72)" style="fill:#5e4fa2"/><path id="patch_447" d="M446.35 133.777a2.994 2.994 0 1 0 0-5.988 2.994 2.994 0 0 0 0 5.988z" clip-path="url(#pa01be0ae72)" style="fill:#5e4fa2"/><path id="patch_448" d="M337.272 157.837a2.994 2.994 0 1 0 0-5.988 2.994 2.994 0 0 0 0 5.988z" clip-path="url(#pa01be0ae72)" style="fill:#5e4fa2"/><path id="patch_449" d="M539.867 59.877a2.994 2.994 0 1 0 0-5.988 2.994 2.994 0 0 0 0 5.988z" clip-path="url(#pa01be0ae72)" style="fill:#5e4fa2"/><path id="patch_450" d="M388.914 189.48a2.994 2.994 0 1 0 0-5.987 2.994 2.994 0 0 0 0 5.988z" clip-path="url(#pa01be0ae72)" style="fill:#5e4fa2"/><path id="patch_451" d="M395.818 189.413a3.992 3.992 0 1 0 0-7.984 3.992 3.992 0 0 0 0 7.984z" clip-path="url(#pa01be0ae72)" style="fill:#ffffbe"/><path id="patch_452" d="M290.322 132.447a2.994 2.994 0 1 0 0-5.988 2.994 2.994 0 0 0 0 5.988z" clip-path="url(#pa01be0ae72)" style="fill:#5e4fa2"/><path id="patch_453" d="M147.36 99.418a2.994 2.994 0 1 0 0-5.988 2.994 2.994 0 0 0 0 5.988z" clip-path="url(#pa01be0ae72)" style="fill:#5e4fa2"/><path id="patch_454" d="M319.686 96.212a2.994 2.994 0 1 0 0-5.987 2.994 2.994 0 0 0 0 5.987z" clip-path="url(#pa01be0ae72)" style="fill:#5e4fa2"/><path id="patch_455" d="M285.391 101.299a2.994 2.994 0 1 0 0-5.988 2.994 2.994 0 0 0 0 5.988z" clip-path="url(#pa01be0ae72)" style="fill:#5e4fa2"/><path id="patch_456" d="M282.74 106.667a2.994 2.994 0 1 0 0-5.988 2.994 2.994 0 0 0 0 5.988z" clip-path="url(#pa01be0ae72)" style="fill:#5e4fa2"/><g id="matplotlib.axis_1"><g id="xtick_1"><g id="line2d_1"><defs><path id="m0fbbd8f831" d="M0 0v3.5" style="stroke:#000;stroke-width:.8"/></defs><use xlink:href="#m0fbbd8f831" x="82.62" y="230.688" style="stroke:#000;stroke-width:.8"/></g><g id="text_1" transform="matrix(.1 0 0 -.1 79.439 245.286)"><defs><path id="DejaVuSans-30" d="M2034 4250q-487 0-733-480-245-479-245-1442 0-959 245-1439 246-480 733-480 491 0 736 480 246 480 246 1439 0 963-246 1442-245 480-736 480zm0 500q785 0 1199-621 414-620 414-1801 0-1178-414-1799Q2819-91 2034-91q-784 0-1198 620-414 621-414 1799 0 1181 414 1801 414 621 1198 621z" transform="scale(.01563)"/></defs><use xlink:href="#DejaVuSans-30"/></g></g><g id="xtick_2"><use xlink:href="#m0fbbd8f831" id="line2d_2" x="182.412" y="230.688" style="stroke:#000;stroke-width:.8"/><g id="text_2" transform="matrix(.1 0 0 -.1 172.868 245.286)"><defs><path id="DejaVuSans-31" d="M794 531h1031v3560L703 3866v575l1116 225h631V531h1031V0H794v531z" transform="scale(.01563)"/></defs><use xlink:href="#DejaVuSans-31"/><use xlink:href="#DejaVuSans-30" x="63.623"/><use xlink:href="#DejaVuSans-30" x="127.246"/></g></g><g id="xtick_3"><use xlink:href="#m0fbbd8f831" id="line2d_3" x="282.204" y="230.688" style="stroke:#000;stroke-width:.8"/><g id="text_3" transform="matrix(.1 0 0 -.1 272.66 245.286)"><defs><path id="DejaVuSans-32" d="M1228 531h2203V0H469v531q359 372 979 998 621 627 780 809 303 340 423 576 121 236 121 464 0 372-261 606-261 235-680 235-297 0-627-103-329-103-704-313v638q381 153 712 231 332 78 607 78 725 0 1156-363 431-362 431-968 0-288-108-546-107-257-392-607-78-91-497-524-418-433-1181-1211z" transform="scale(.01563)"/></defs><use xlink:href="#DejaVuSans-32"/><use xlink:href="#DejaVuSans-30" x="63.623"/><use xlink:href="#DejaVuSans-30" x="127.246"/></g></g><g id="xtick_4"><use xlink:href="#m0fbbd8f831" id="line2d_4" x="381.996" y="230.688" style="stroke:#000;stroke-width:.8"/><g id="text_4" transform="matrix(.1 0 0 -.1 372.452 245.286)"><defs><path id="DejaVuSans-33" d="M2597 2516q453-97 707-404 255-306 255-756 0-690-475-1069Q2609-91 1734-91q-293 0-604 58T488 141v609q262-153 574-231 313-78 654-78 593 0 904 234t311 681q0 413-289 645-289 233-804 233h-544v519h569q465 0 712 186t247 536q0 359-255 551-254 193-729 193-260 0-557-57-297-56-653-174v562q360 100 674 150t592 50q719 0 1137-327 419-326 419-882 0-388-222-655t-631-370z" transform="scale(.01563)"/></defs><use xlink:href="#DejaVuSans-33"/><use xlink:href="#DejaVuSans-30" x="63.623"/><use xlink:href="#DejaVuSans-30" x="127.246"/></g></g><g id="xtick_5"><use xlink:href="#m0fbbd8f831" id="line2d_5" x="481.788" y="230.688" style="stroke:#000;stroke-width:.8"/><g id="text_5" transform="matrix(.1 0 0 -.1 472.244 245.286)"><defs><path id="DejaVuSans-34" d="M2419 4116 825 1625h1594v2491zm-166 550h794V1625h666v-525h-666V0h-628v1100H313v609l1940 2957z" transform="scale(.01563)"/></defs><use xlink:href="#DejaVuSans-34"/><use xlink:href="#DejaVuSans-30" x="63.623"/><use xlink:href="#DejaVuSans-30" x="127.246"/></g></g><g id="xtick_6"><use xlink:href="#m0fbbd8f831" id="line2d_6" x="581.58" y="230.688" style="stroke:#000;stroke-width:.8"/><g id="text_6" transform="matrix(.1 0 0 -.1 572.036 245.286)"><defs><path id="DejaVuSans-35" d="M691 4666h2478v-532H1269V2991q137 47 274 70 138 23 276 23 781 0 1237-428 457-428 457-1159 0-753-469-1171Q2575-91 1722-91q-294 0-599 50Q819 9 494 109v635q281-153 581-228t634-75q541 0 856 284 316 284 316 772 0 487-316 771-315 285-856 285-253 0-505-56-251-56-513-175v2344z" transform="scale(.01563)"/></defs><use xlink:href="#DejaVuSans-35"/><use xlink:href="#DejaVuSans-30" x="63.623"/><use xlink:href="#DejaVuSans-30" x="127.246"/></g></g></g><g id="matplotlib.axis_2"><g id="ytick_1"><g id="line2d_7"><defs><path id="mc4648bd179" d="M0 0h-3.5" style="stroke:#000;stroke-width:.8"/></defs><use xlink:href="#mc4648bd179" x="82.62" y="230.688" style="stroke:#000;stroke-width:.8"/></g><use xlink:href="#DejaVuSans-30" id="text_7" transform="matrix(.1 0 0 -.1 69.257 234.487)"/></g><g id="ytick_2"><use xlink:href="#mc4648bd179" id="line2d_8" x="82.62" y="205.74" style="stroke:#000;stroke-width:.8"/><g id="text_8" transform="matrix(.1 0 0 -.1 62.895 209.54)"><use xlink:href="#DejaVuSans-32"/><use xlink:href="#DejaVuSans-35" x="63.623"/></g></g><g id="ytick_3"><use xlink:href="#mc4648bd179" id="line2d_9" x="82.62" y="180.792" style="stroke:#000;stroke-width:.8"/><g id="text_9" transform="matrix(.1 0 0 -.1 62.895 184.591)"><use xlink:href="#DejaVuSans-35"/><use xlink:href="#DejaVuSans-30" x="63.623"/></g></g><g id="ytick_4"><use xlink:href="#mc4648bd179" id="line2d_10" x="82.62" y="155.844" style="stroke:#000;stroke-width:.8"/><g id="text_10" transform="matrix(.1 0 0 -.1 62.895 159.643)"><defs><path id="DejaVuSans-37" d="M525 4666h3000v-269L1831 0h-659l1594 4134H525v532z" transform="scale(.01563)"/></defs><use xlink:href="#DejaVuSans-37"/><use xlink:href="#DejaVuSans-35" x="63.623"/></g></g><g id="ytick_5"><use xlink:href="#mc4648bd179" id="line2d_11" x="82.62" y="130.896" style="stroke:#000;stroke-width:.8"/><g id="text_11" transform="matrix(.1 0 0 -.1 56.532 134.695)"><use xlink:href="#DejaVuSans-31"/><use xlink:href="#DejaVuSans-30" x="63.623"/><use xlink:href="#DejaVuSans-30" x="127.246"/></g></g><g id="ytick_6"><use xlink:href="#mc4648bd179" id="line2d_12" x="82.62" y="105.948" style="stroke:#000;stroke-width:.8"/><g id="text_12" transform="matrix(.1 0 0 -.1 56.532 109.747)"><use xlink:href="#DejaVuSans-31"/><use xlink:href="#DejaVuSans-32" x="63.623"/><use xlink:href="#DejaVuSans-35" x="127.246"/></g></g><g id="ytick_7"><use xlink:href="#mc4648bd179" id="line2d_13" x="82.62" y="81" style="stroke:#000;stroke-width:.8"/><g id="text_13" transform="matrix(.1 0 0 -.1 56.532 84.8)"><use xlink:href="#DejaVuSans-31"/><use xlink:href="#DejaVuSans-35" x="63.623"/><use xlink:href="#DejaVuSans-30" x="127.246"/></g></g><g id="ytick_8"><use xlink:href="#mc4648bd179" id="line2d_14" x="82.62" y="56.052" style="stroke:#000;stroke-width:.8"/><g id="text_14" transform="matrix(.1 0 0 -.1 56.532 59.851)"><use xlink:href="#DejaVuSans-31"/><use xlink:href="#DejaVuSans-37" x="63.623"/><use xlink:href="#DejaVuSans-35" x="127.246"/></g></g><g id="ytick_9"><use xlink:href="#mc4648bd179" id="line2d_15" x="82.62" y="31.104" style="stroke:#000;stroke-width:.8"/><g id="text_15" transform="matrix(.1 0 0 -.1 56.532 34.903)"><use xlink:href="#DejaVuSans-32"/><use xlink:href="#DejaVuSans-30" x="63.623"/><use xlink:href="#DejaVuSans-30" x="127.246"/></g></g></g><path id="patch_457" d="M82.62 230.688V31.104" style="fill:none;stroke:#000;stroke-width:.8;stroke-linejoin:miter;stroke-linecap:square"/><path id="patch_458" d="M581.58 230.688V31.104" style="fill:none;stroke:#000;stroke-width:.8;stroke-linejoin:miter;stroke-linecap:square"/><path id="patch_459" d="M82.62 230.688h498.96" style="fill:none;stroke:#000;stroke-width:.8;stroke-linejoin:miter;stroke-linecap:square"/><path id="patch_460" d="M82.62 31.104h498.96" style="fill:none;stroke:#000;stroke-width:.8;stroke-linejoin:miter;stroke-linecap:square"/><g id="text_16" transform="matrix(.12 0 0 -.12 148.705 25.104)"><defs><path id="DejaVuSans-53" d="M3425 4513v-616q-359 172-678 256-319 85-616 85-515 0-795-200t-280-569q0-310 186-468 186-157 705-254l381-78q706-135 1042-474t336-907q0-679-455-1029Q2797-91 1919-91q-331 0-705 75-373 75-773 222v650q384-215 753-325 369-109 725-109 540 0 834 212 294 213 294 607 0 343-211 537t-692 291l-385 75q-706 140-1022 440-315 300-315 835 0 619 436 975t1201 356q329 0 669-60 341-59 697-177z" transform="scale(.01563)"/><path id="DejaVuSans-68" d="M3513 2113V0h-575v2094q0 497-194 743-194 247-581 247-466 0-735-297-269-296-269-809V0H581v4863h578V2956q207 316 486 472 280 156 646 156 603 0 912-373 310-373 310-1098z" transform="scale(.01563)"/><path id="DejaVuSans-65" d="M3597 1894v-281H953q38-594 358-905t892-311q331 0 642 81t618 244V178Q3153 47 2828-22t-659-69q-838 0-1327 487-489 488-489 1320 0 859 464 1363 464 505 1252 505 706 0 1117-455 411-454 411-1235zm-575 169q-6 471-264 752-258 282-683 282-481 0-770-272t-333-766l2050 4z" transform="scale(.01563)"/><path id="DejaVuSans-72" d="M2631 2963q-97 56-211 82-114 27-251 27-488 0-749-317t-261-911V0H581v3500h578v-544q182 319 472 473 291 155 707 155 59 0 131-8 72-7 159-23l3-590z" transform="scale(.01563)"/><path id="DejaVuSans-77" d="M269 3500h575l719-2731 715 2731h678l719-2731 716 2731h575L4050 0h-678l-753 2869L1863 0h-679L269 3500z" transform="scale(.01563)"/><path id="DejaVuSans-6f" d="M1959 3097q-462 0-731-361t-269-989q0-628 267-989 268-361 733-361 460 0 728 362 269 363 269 988 0 622-269 986-268 364-728 364zm0 487q750 0 1178-488 429-487 429-1349 0-859-429-1349Q2709-91 1959-91q-753 0-1180 489-426 490-426 1349 0 862 426 1349 427 488 1180 488z" transform="scale(.01563)"/><path id="DejaVuSans-64" d="M2906 2969v1894h575V0h-575v525q-181-312-458-464-276-152-664-152-634 0-1033 506-398 507-398 1332t398 1331q399 506 1033 506 388 0 664-152 277-151 458-463zM947 1747q0-634 261-995t717-361q456 0 718 361 263 361 263 995t-263 995q-262 361-718 361t-717-361q-261-361-261-995z" transform="scale(.01563)"/><path id="DejaVuSans-46" d="M628 4666h2681v-532H1259V2759h1850v-531H1259V0H628v4666z" transform="scale(.01563)"/><path id="DejaVuSans-73" d="M2834 3397v-544q-243 125-506 187-262 63-544 63-428 0-642-131t-214-394q0-200 153-314t616-217l197-44q612-131 870-370t258-667q0-488-386-773Q2250-91 1575-91q-281 0-586 55T347 128v594q319-166 628-249 309-82 613-82 406 0 624 139 219 139 219 392 0 234-158 359-157 125-692 241l-200 47q-534 112-772 345-237 233-237 639 0 494 350 762 350 269 994 269 318 0 599-47 282-46 519-140z" transform="scale(.01563)"/><path id="DejaVuSans-74" d="M1172 4494v-994h1184v-447H1172V1153q0-428 117-550t477-122h590V0h-590q-666 0-919 248-253 249-253 905v1900H172v447h422v994h578z" transform="scale(.01563)"/><path id="DejaVuSans-2c" d="M750 794h659V256L897-744H494L750 256v538z" transform="scale(.01563)"/><path id="DejaVuSans-62" d="M3116 1747q0 634-261 995t-717 361q-457 0-718-361t-261-995q0-634 261-995t718-361q456 0 717 361t261 995zM1159 2969q182 312 458 463 277 152 661 152 638 0 1036-506 399-506 399-1331T3314 415Q2916-91 2278-91q-384 0-661 152-276 152-458 464V0H581v4863h578V2969z" transform="scale(.01563)"/><path id="DejaVuSans-3d" d="M678 2906h4006v-525H678v525zm0-1275h4006v-531H678v531z" transform="scale(.01563)"/><path id="DejaVuSans-2e" d="M684 794h660V0H684v794z" transform="scale(.01563)"/><path id="DejaVuSans-36" d="M2113 2584q-425 0-674-291-248-290-248-796 0-503 248-796 249-292 674-292t673 292q248 293 248 796 0 506-248 796-248 291-673 291zm1253 1979v-575q-238 112-480 171-242 60-480 60-625 0-955-422-329-422-376-1275 184 272 462 417 279 145 613 145 703 0 1111-427 408-426 408-1160 0-719-425-1154Q2819-91 2113-91q-810 0-1238 620-428 621-428 1799 0 1106 525 1764t1409 658q238 0 480-47t505-140z" transform="scale(.01563)"/><path id="DejaVuSans-38" d="M2034 2216q-450 0-708-241-257-241-257-662 0-422 257-663 258-241 708-241t709 242q260 243 260 662 0 421-258 662-257 241-711 241zm-631 268q-406 100-633 378-226 279-226 679 0 559 398 884 399 325 1092 325 697 0 1094-325t397-884q0-400-227-679-226-278-629-378 456-106 710-416 255-309 255-755 0-679-414-1042Q2806-91 2034-91q-771 0-1186 362-414 363-414 1042 0 446 256 755 257 310 713 416zm-231 997q0-362 226-565 227-203 636-203 407 0 636 203 230 203 230 565 0 363-230 566-229 203-636 203-409 0-636-203-226-203-226-566z" transform="scale(.01563)"/><path id="DejaVuSans-61" d="M2194 1759q-697 0-966-159t-269-544q0-306 202-486 202-179 548-179 479 0 768 339t289 901v128h-572zm1147 238V0h-575v531q-197-318-491-470T1556-91q-537 0-855 302-317 302-317 808 0 590 395 890 396 300 1180 300h807v57q0 397-261 614t-733 217q-300 0-585-72-284-72-546-216v532q315 122 612 182 297 61 578 61 760 0 1135-394 375-393 375-1193z" transform="scale(.01563)"/><path id="DejaVuSans-39" d="M703 97v575q238-113 481-172 244-59 479-59 625 0 954 420 330 420 377 1277-181-269-460-413-278-144-615-144-700 0-1108 423-408 424-408 1159 0 718 425 1152 425 435 1131 435 810 0 1236-621 427-620 427-1801 0-1103-524-1761Q2575-91 1691-91q-238 0-482 47Q966 3 703 97zm1256 1978q425 0 673 290 249 291 249 798 0 503-249 795-248 292-673 292t-673-292q-248-292-248-795 0-507 248-798 248-290 673-290z" transform="scale(.01563)"/></defs><use xlink:href="#DejaVuSans-53"/><use xlink:href="#DejaVuSans-68" x="63.477"/><use xlink:href="#DejaVuSans-65" x="126.855"/><use xlink:href="#DejaVuSans-72" x="188.379"/><use xlink:href="#DejaVuSans-77" x="229.492"/><use xlink:href="#DejaVuSans-6f" x="311.279"/><use xlink:href="#DejaVuSans-6f" x="372.461"/><use xlink:href="#DejaVuSans-64" x="433.643"/><use xlink:href="#DejaVuSans-46" x="497.119"/><use xlink:href="#DejaVuSans-6f" x="551.014"/><use xlink:href="#DejaVuSans-72" x="612.195"/><use xlink:href="#DejaVuSans-65" x="651.059"/><use xlink:href="#DejaVuSans-73" x="712.582"/><use xlink:href="#DejaVuSans-74" x="764.682"/><use xlink:href="#DejaVuSans-2c" x="803.891"/><use xlink:href="#DejaVuSans-20" x="835.678"/><use xlink:href="#DejaVuSans-62" x="867.465"/><use xlink:href="#DejaVuSans-3d" x="930.941"/><use xlink:href="#DejaVuSans-30" x="1014.73"/><use xlink:href="#DejaVuSans-2e" x="1078.354"/><use xlink:href="#DejaVuSans-36" x="1110.141"/><use xlink:href="#DejaVuSans-38" x="1173.764"/><use xlink:href="#DejaVuSans-31" x="1237.387"/><use xlink:href="#DejaVuSans-34" x="1301.01"/><use xlink:href="#DejaVuSans-36" x="1364.633"/><use xlink:href="#DejaVuSans-31" x="1428.256"/><use xlink:href="#DejaVuSans-34" x="1491.879"/><use xlink:href="#DejaVuSans-2c" x="1555.502"/><use xlink:href="#DejaVuSans-20" x="1587.289"/><use xlink:href="#DejaVuSans-61" x="1619.076"/><use xlink:href="#DejaVuSans-3d" x="1680.355"/><use xlink:href="#DejaVuSans-30" x="1764.145"/><use xlink:href="#DejaVuSans-2e" x="1827.768"/><use xlink:href="#DejaVuSans-38" x="1859.555"/><use xlink:href="#DejaVuSans-35" x="1923.178"/><use xlink:href="#DejaVuSans-34" x="1986.801"/><use xlink:href="#DejaVuSans-38" x="2050.424"/><use xlink:href="#DejaVuSans-32" x="2114.047"/><use xlink:href="#DejaVuSans-37" x="2177.67"/><use xlink:href="#DejaVuSans-34" x="2241.293"/><use xlink:href="#DejaVuSans-2c" x="2304.916"/><use xlink:href="#DejaVuSans-20" x="2336.703"/><use xlink:href="#DejaVuSans-64" x="2368.49"/><use xlink:href="#DejaVuSans-3d" x="2431.967"/><use xlink:href="#DejaVuSans-30" x="2515.756"/><use xlink:href="#DejaVuSans-2e" x="2579.379"/><use xlink:href="#DejaVuSans-37" x="2611.166"/><use xlink:href="#DejaVuSans-39" x="2674.789"/><use xlink:href="#DejaVuSans-37" x="2738.412"/><use xlink:href="#DejaVuSans-31" x="2802.035"/><use xlink:href="#DejaVuSans-39" x="2865.658"/><use xlink:href="#DejaVuSans-31" x="2929.281"/><use xlink:href="#DejaVuSans-39" x="2992.904"/></g></g></g><defs><clipPath id="pa01be0ae72"><path d="M82.62 31.104h498.96v199.584H82.62z"/></clipPath></defs></svg>