<?xml version="1.0" encoding="utf-8" standalone="no"?>
<!DOCTYPE svg PUBLIC "-//W3C//DTD SVG 1.1//EN"
  "http://www.w3.org/Graphics/SVG/1.1/DTD/svg11.dtd">
<svg xmlns:xlink="http://www.w3.org/1999/xlink" width="777.6pt" height="388.8pt" viewBox="0 0 777.6 388.8" xmlns="http://www.w3.org/2000/svg" version="1.1">
 <metadata>
  <rdf:RDF xmlns:dc="http://purl.org/dc/elements/1.1/" xmlns:cc="http://creativecommons.org/ns#" xmlns:rdf="http://www.w3.org/1999/02/22-rdf-syntax-ns#">
   <cc:Work>
    <dc:type rdf:resource="http://purl.org/dc/dcmitype/StillImage"/>
    <dc:date>2023-03-02T18:20:08.353959</dc:date>
    <dc:format>image/svg+xml</dc:format>
    <dc:creator>
     <cc:Agent>
      <dc:title>Matplotlib v3.6.2, https://matplotlib.org/</dc:title>
     </cc:Agent>
    </dc:creator>
   </cc:Work>
  </rdf:RDF>
 </metadata>
 <defs>
  <style type="text/css">*{stroke-linejoin: round; stroke-linecap: butt}</style>
 </defs>
 <g id="figure_1">
  <g id="patch_1">
   <path d="M 0 388.8 
L 777.6 388.8 
L 777.6 0 
L 0 0 
z
" style="fill: #ffffff"/>
  </g>
  <g id="axes_1">
   <g id="patch_2">
    <path d="M 99.144 346.032 
L 697.896 346.032 
L 697.896 46.656 
L 99.144 46.656 
z
" style="fill: #ffffff"/>
   </g>
   <g id="patch_3">
    <path d="M 648 146.448 
C 661.232574 146.448 673.924957 141.190643 683.2818 131.8338 
C 692.638643 122.476957 697.896 109.784574 697.896 96.552 
C 697.896 83.319426 692.638643 70.627043 683.2818 61.2702 
C 673.924957 51.913357 661.232574 46.656 648 46.656 
C 634.767426 46.656 622.075043 51.913357 612.7182 61.2702 
C 603.361357 70.627043 598.104 83.319426 598.104 96.552 
C 598.104 109.784574 603.361357 122.476957 612.7182 131.8338 
C 622.075043 141.190643 634.767426 146.448 648 146.448 
z
" clip-path="url(#p26f25907cd)" style="fill: #9e0142"/>
   </g>
   <g id="patch_4">
    <path d="M 548.208 146.448 
C 561.440574 146.448 574.132957 141.190643 583.4898 131.8338 
C 592.846643 122.476957 598.104 109.784574 598.104 96.552 
C 598.104 83.319426 592.846643 70.627043 583.4898 61.2702 
C 574.132957 51.913357 561.440574 46.656 548.208 46.656 
C 534.975426 46.656 522.283043 51.913357 512.9262 61.2702 
C 503.569357 70.627043 498.312 83.319426 498.312 96.552 
C 498.312 109.784574 503.569357 122.476957 512.9262 131.8338 
C 522.283043 141.190643 534.975426 146.448 548.208 146.448 
z
" clip-path="url(#p26f25907cd)" style="fill: #9e0142"/>
   </g>
   <g id="patch_5">
    <path d="M 147.04416 142.45632 
C 159.747431 142.45632 171.932119 137.409257 180.914688 128.426688 
C 189.897257 119.444119 194.94432 107.259431 194.94432 94.55616 
C 194.94432 81.852889 189.897257 69.668201 180.914688 60.685632 
C 171.932119 51.703063 159.747431 46.656 147.04416 46.656 
C 134.340889 46.656 122.156201 51.703063 113.173632 60.685632 
C 104.191063 69.668201 99.144 81.852889 99.144 94.55616 
C 99.144 107.259431 104.191063 119.444119 113.173632 128.426688 
C 122.156201 137.409257 134.340889 142.45632 147.04416 142.45632 
z
" clip-path="url(#p26f25907cd)" style="fill: #b41947"/>
   </g>
   <g id="patch_6">
    <path d="M 651.99168 346.032 
C 664.165648 346.032 675.842641 341.195231 684.450936 332.586936 
C 693.059231 323.978641 697.896 312.301648 697.896 300.12768 
C 697.896 287.953712 693.059231 276.276719 684.450936 267.668424 
C 675.842641 259.060129 664.165648 254.22336 651.99168 254.22336 
C 639.817712 254.22336 628.140719 259.060129 619.532424 267.668424 
C 610.924129 276.276719 606.08736 287.953712 606.08736 300.12768 
C 606.08736 312.301648 610.924129 323.978641 619.532424 332.586936 
C 628.140719 341.195231 639.817712 346.032 651.99168 346.032 
z
" clip-path="url(#p26f25907cd)" style="fill: #cb334d"/>
   </g>
   <g id="patch_7">
    <path d="M 143.05248 346.032 
C 154.697145 346.032 165.866442 341.405526 174.100464 333.171504 
C 182.334486 324.937482 186.96096 313.768185 186.96096 302.12352 
C 186.96096 290.478855 182.334486 279.309558 174.100464 271.075536 
C 165.866442 262.841514 154.697145 258.21504 143.05248 258.21504 
C 131.407815 258.21504 120.238518 262.841514 112.004496 271.075536 
C 103.770474 279.309558 99.144 290.478855 99.144 302.12352 
C 99.144 313.768185 103.770474 324.937482 112.004496 333.171504 
C 120.238518 341.405526 131.407815 346.032 143.05248 346.032 
z
" clip-path="url(#p26f25907cd)" style="fill: #dd4a4c"/>
   </g>
   <g id="patch_8">
    <path d="M 236.657154 130.48128 
C 247.772516 130.48128 258.434118 126.0651 266.293866 118.205352 
C 274.153614 110.345604 278.569794 99.684002 278.569794 88.56864 
C 278.569794 77.453278 274.153614 66.791676 266.293866 58.931928 
C 258.434118 51.07218 247.772516 46.656 236.657154 46.656 
C 225.541792 46.656 214.88019 51.07218 207.020442 58.931928 
C 199.160694 66.791676 194.744514 77.453278 194.744514 88.56864 
C 194.744514 99.684002 199.160694 110.345604 207.020442 118.205352 
C 214.88019 126.0651 225.541792 130.48128 236.657154 130.48128 
z
" clip-path="url(#p26f25907cd)" style="fill: #e95c47"/>
   </g>
   <g id="patch_9">
    <path d="M 566.379682 346.032 
C 576.965741 346.032 587.119648 341.826114 594.605122 334.34064 
C 602.090596 326.855166 606.296482 316.701259 606.296482 306.1152 
C 606.296482 295.529141 602.090596 285.375234 594.605122 277.88976 
C 587.119648 270.404286 576.965741 266.1984 566.379682 266.1984 
C 555.793623 266.1984 545.639716 270.404286 538.154242 277.88976 
C 530.668768 285.375234 526.462882 295.529141 526.462882 306.1152 
C 526.462882 316.701259 530.668768 326.855166 538.154242 334.34064 
C 545.639716 341.826114 555.793623 346.032 566.379682 346.032 
z
" clip-path="url(#p26f25907cd)" style="fill: #f57245"/>
   </g>
   <g id="patch_10">
    <path d="M 224.66257 346.032 
C 234.719327 346.032 244.365538 342.036408 251.476738 334.925208 
C 258.587939 327.814007 262.58353 318.167796 262.58353 308.11104 
C 262.58353 298.054284 258.587939 288.408073 251.476738 281.296872 
C 244.365538 274.185672 234.719327 270.19008 224.66257 270.19008 
C 214.605814 270.19008 204.959603 274.185672 197.848402 281.296872 
C 190.737202 288.408073 186.74161 298.054284 186.74161 308.11104 
C 186.74161 318.167796 190.737202 327.814007 197.848402 334.925208 
C 204.959603 342.036408 214.605814 346.032 224.66257 346.032 
z
" clip-path="url(#p26f25907cd)" style="fill: #f98e52"/>
   </g>
   <g id="patch_11">
    <path d="M 135.06912 213.446791 
C 144.596573 213.446791 153.735089 209.661494 160.472016 202.924567 
C 167.208943 196.18764 170.99424 187.049124 170.99424 177.521671 
C 170.99424 167.994218 167.208943 158.855702 160.472016 152.118775 
C 153.735089 145.381848 144.596573 141.596551 135.06912 141.596551 
C 125.541667 141.596551 116.403151 145.381848 109.666224 152.118775 
C 102.929297 158.855702 99.144 167.994218 99.144 177.521671 
C 99.144 187.049124 102.929297 196.18764 109.666224 202.924567 
C 116.403151 209.661494 125.541667 213.446791 135.06912 213.446791 
z
" clip-path="url(#p26f25907cd)" style="fill: #fca85e"/>
   </g>
   <g id="patch_12">
    <path d="M 663.96672 255.126598 
C 672.96487 255.126598 681.595691 251.551595 687.958344 245.188942 
C 694.320997 238.826289 697.896 230.195468 697.896 221.197318 
C 697.896 212.199167 694.320997 203.568347 687.958344 197.205694 
C 681.595691 190.843041 672.96487 187.268038 663.96672 187.268038 
C 654.96857 187.268038 646.337749 190.843041 639.975096 197.205694 
C 633.612443 203.568347 630.03744 212.199167 630.03744 221.197318 
C 630.03744 230.195468 633.612443 238.826289 639.975096 245.188942 
C 646.337749 251.551595 654.96857 255.126598 663.96672 255.126598 
z
" clip-path="url(#p26f25907cd)" style="fill: #fdbf6f"/>
   </g>
   <g id="patch_13">
    <path d="M 199.10823 187.010144 
C 207.577078 187.010144 215.700203 183.645436 221.688582 177.657056 
C 227.676962 171.668677 231.04167 163.545552 231.04167 155.076704 
C 231.04167 146.607857 227.676962 138.484732 221.688582 132.496352 
C 215.700203 126.507973 207.577078 123.143264 199.10823 123.143264 
C 190.639383 123.143264 182.516258 126.507973 176.527878 132.496352 
C 170.539499 138.484732 167.17479 146.607857 167.17479 155.076704 
C 167.17479 163.545552 170.539499 171.668677 176.527878 177.657056 
C 182.516258 183.645436 190.639383 187.010144 199.10823 187.010144 
z
" clip-path="url(#p26f25907cd)" style="fill: #fed481"/>
   </g>
   <g id="patch_14">
    <path d="M 613.16258 266.430458 
C 618.984913 266.430458 624.569562 264.117221 628.686572 260.00021 
C 632.803583 255.883199 635.11682 250.298551 635.11682 244.476218 
C 635.11682 238.653886 632.803583 233.069237 628.686572 228.952226 
C 624.569562 224.835215 618.984913 222.521978 613.16258 222.521978 
C 607.340248 222.521978 601.755599 224.835215 597.638588 228.952226 
C 593.521578 233.069237 591.20834 238.653886 591.20834 244.476218 
C 591.20834 250.298551 593.521578 255.883199 597.638588 260.00021 
C 601.755599 264.117221 607.340248 266.430458 613.16258 266.430458 
z
" clip-path="url(#p26f25907cd)" style="fill: #eaf79e"/>
   </g>
   <g id="patch_15">
    <path d="M 599.112104 70.60608 
C 602.287922 70.60608 605.334094 69.344314 607.579736 67.098672 
C 609.825378 64.85303 611.087144 61.806858 611.087144 58.63104 
C 611.087144 55.455222 609.825378 52.40905 607.579736 50.163408 
C 605.334094 47.917766 602.287922 46.656 599.112104 46.656 
C 595.936286 46.656 592.890114 47.917766 590.644472 50.163408 
C 588.39883 52.40905 587.137064 55.455222 587.137064 58.63104 
C 587.137064 61.806858 588.39883 64.85303 590.644472 67.098672 
C 592.890114 69.344314 595.936286 70.60608 599.112104 70.60608 
z
" clip-path="url(#p26f25907cd)" style="fill: #6bc4a5"/>
   </g>
   <g id="patch_16">
    <path d="M 328.118032 146.448 
C 341.350606 146.448 354.04299 141.190643 363.399832 131.8338 
C 372.756675 122.476957 378.014032 109.784574 378.014032 96.552 
C 378.014032 83.319426 372.756675 70.627043 363.399832 61.2702 
C 354.04299 51.913357 341.350606 46.656 328.118032 46.656 
C 314.885459 46.656 302.193075 51.913357 292.836233 61.2702 
C 283.47939 70.627043 278.222032 83.319426 278.222032 96.552 
C 278.222032 109.784574 283.47939 122.476957 292.836233 131.8338 
C 302.193075 141.190643 314.885459 146.448 328.118032 146.448 
z
" clip-path="url(#p26f25907cd)" style="fill: #9e0142"/>
   </g>
   <g id="patch_17">
    <path d="M 450.432208 142.45632 
C 463.135479 142.45632 475.320167 137.409257 484.302736 128.426688 
C 493.285305 119.444119 498.332368 107.259431 498.332368 94.55616 
C 498.332368 81.852889 493.285305 69.668201 484.302736 60.685632 
C 475.320167 51.703063 463.135479 46.656 450.432208 46.656 
C 437.728937 46.656 425.544249 51.703063 416.56168 60.685632 
C 407.579111 69.668201 402.532048 81.852889 402.532048 94.55616 
C 402.532048 107.259431 407.579111 119.444119 416.56168 128.426688 
C 425.544249 137.409257 437.728937 142.45632 450.432208 142.45632 
z
" clip-path="url(#p26f25907cd)" style="fill: #b41947"/>
   </g>
   <g id="patch_18">
    <path d="M 598.104 202.303002 
C 607.631453 202.303002 616.769969 198.517705 623.506896 191.780778 
C 630.243823 185.043851 634.02912 175.905335 634.02912 166.377882 
C 634.02912 156.850429 630.243823 147.711913 623.506896 140.974986 
C 616.769969 134.238059 607.631453 130.452762 598.104 130.452762 
C 588.576547 130.452762 579.438031 134.238059 572.701104 140.974986 
C 565.964177 147.711913 562.17888 156.850429 562.17888 166.377882 
C 562.17888 175.905335 565.964177 185.043851 572.701104 191.780778 
C 579.438031 198.517705 588.576547 202.303002 598.104 202.303002 
z
" clip-path="url(#p26f25907cd)" style="fill: #fca85e"/>
   </g>
   <g id="patch_19">
    <path d="M 496.266035 196.274211 
C 505.264185 196.274211 513.895006 192.699209 520.257659 186.336555 
C 526.620312 179.973902 530.195315 171.343082 530.195315 162.344931 
C 530.195315 153.346781 526.620312 144.715961 520.257659 138.353308 
C 513.895006 131.990654 505.264185 128.415651 496.266035 128.415651 
C 487.267885 128.415651 478.637064 131.990654 472.274411 138.353308 
C 465.911758 144.715961 462.336755 153.346781 462.336755 162.344931 
C 462.336755 171.343082 465.911758 179.973902 472.274411 186.336555 
C 478.637064 192.699209 487.267885 196.274211 496.266035 196.274211 
z
" clip-path="url(#p26f25907cd)" style="fill: #fdbf6f"/>
   </g>
   <g id="patch_20">
    <path d="M 270.199259 186.290914 
C 278.668106 186.290914 286.791231 182.926206 292.779611 176.937826 
C 298.76799 170.949447 302.132699 162.826322 302.132699 154.357474 
C 302.132699 145.888627 298.76799 137.765502 292.779611 131.777122 
C 286.791231 125.788743 278.668106 122.424034 270.199259 122.424034 
C 261.730411 122.424034 253.607286 125.788743 247.618907 131.777122 
C 241.630527 137.765502 238.265819 145.888627 238.265819 154.357474 
C 238.265819 162.826322 241.630527 170.949447 247.618907 176.937826 
C 253.607286 182.926206 261.730411 186.290914 270.199259 186.290914 
z
" clip-path="url(#p26f25907cd)" style="fill: #fed481"/>
   </g>
   <g id="patch_21">
    <path d="M 497.241756 346.032 
C 505.1813 346.032 512.79673 342.877586 518.410836 337.26348 
C 524.024942 331.649374 527.179356 324.033944 527.179356 316.0944 
C 527.179356 308.154856 524.024942 300.539426 518.410836 294.92532 
C 512.79673 289.311214 505.1813 286.1568 497.241756 286.1568 
C 489.302212 286.1568 481.686782 289.311214 476.072676 294.92532 
C 470.45857 300.539426 467.304156 308.154856 467.304156 316.0944 
C 467.304156 324.033944 470.45857 331.649374 476.072676 337.26348 
C 481.686782 342.877586 489.302212 346.032 497.241756 346.032 
z
" clip-path="url(#p26f25907cd)" style="fill: #fee593"/>
   </g>
   <g id="patch_22">
    <path d="M 675.94176 184.700764 
C 681.764093 184.700764 687.348741 182.387527 691.465752 178.270516 
C 695.582763 174.153505 697.896 168.568857 697.896 162.746524 
C 697.896 156.924192 695.582763 151.339543 691.465752 147.222532 
C 687.348741 143.105521 681.764093 140.792284 675.94176 140.792284 
C 670.119427 140.792284 664.534779 143.105521 660.417768 147.222532 
C 656.300757 151.339543 653.98752 156.924192 653.98752 162.746524 
C 653.98752 168.568857 656.300757 174.153505 660.417768 178.270516 
C 664.534779 182.387527 670.119427 184.700764 675.94176 184.700764 
z
" clip-path="url(#p26f25907cd)" style="fill: #eaf79e"/>
   </g>
   <g id="patch_23">
    <path d="M 448.35386 346.032 
C 453.64689 346.032 458.723843 343.929057 462.46658 340.18632 
C 466.209317 336.443583 468.31226 331.36663 468.31226 326.0736 
C 468.31226 320.78057 466.209317 315.703617 462.46658 311.96088 
C 458.723843 308.218143 453.64689 306.1152 448.35386 306.1152 
C 443.06083 306.1152 437.983877 308.218143 434.24114 311.96088 
C 430.498403 315.703617 428.39546 320.78057 428.39546 326.0736 
C 428.39546 331.36663 430.498403 336.443583 434.24114 340.18632 
C 437.983877 343.929057 443.06083 346.032 448.35386 346.032 
z
" clip-path="url(#p26f25907cd)" style="fill: #d6ee9b"/>
   </g>
   <g id="patch_24">
    <path d="M 184.917573 346.032 
C 187.564088 346.032 190.102564 344.980529 191.973933 343.10916 
C 193.845302 341.237791 194.896773 338.699315 194.896773 336.0528 
C 194.896773 333.406285 193.845302 330.867809 191.973933 328.99644 
C 190.102564 327.125071 187.564088 326.0736 184.917573 326.0736 
C 182.271058 326.0736 179.732582 327.125071 177.861213 328.99644 
C 175.989844 330.867809 174.938373 333.406285 174.938373 336.0528 
C 174.938373 338.699315 175.989844 341.237791 177.861213 343.10916 
C 179.732582 344.980529 182.271058 346.032 184.917573 346.032 
z
" clip-path="url(#p26f25907cd)" style="fill: #54aead"/>
   </g>
   <g id="patch_25">
    <path d="M 340.922501 245.41511 
C 354.155075 245.41511 366.847458 240.157753 376.204301 230.80091 
C 385.561144 221.444067 390.818501 208.751684 390.818501 195.51911 
C 390.818501 182.286536 385.561144 169.594153 376.204301 160.23731 
C 366.847458 150.880467 354.155075 145.62311 340.922501 145.62311 
C 327.689927 145.62311 314.997544 150.880467 305.640701 160.23731 
C 296.283858 169.594153 291.026501 182.286536 291.026501 195.51911 
C 291.026501 208.751684 296.283858 221.444067 305.640701 230.80091 
C 314.997544 240.157753 327.689927 245.41511 340.922501 245.41511 
z
" clip-path="url(#p26f25907cd)" style="fill: #9e0142"/>
   </g>
   <g id="patch_26">
    <path d="M 510.074894 287.250426 
C 522.248862 287.250426 533.925854 282.413658 542.53415 273.805362 
C 551.142445 265.197067 555.979214 253.520074 555.979214 241.346106 
C 555.979214 229.172138 551.142445 217.495146 542.53415 208.88685 
C 533.925854 200.278555 522.248862 195.441786 510.074894 195.441786 
C 497.900926 195.441786 486.223933 200.278555 477.615638 208.88685 
C 469.007343 217.495146 464.170574 229.172138 464.170574 241.346106 
C 464.170574 253.520074 469.007343 265.197067 477.615638 273.805362 
C 486.223933 282.413658 497.900926 287.250426 510.074894 287.250426 
z
" clip-path="url(#p26f25907cd)" style="fill: #cb334d"/>
   </g>
   <g id="patch_27">
    <path d="M 194.540563 274.689433 
C 206.185228 274.689433 217.354526 270.062958 225.588547 261.828937 
C 233.822569 253.594915 238.449043 242.425618 238.449043 230.780953 
C 238.449043 219.136288 233.822569 207.96699 225.588547 199.732969 
C 217.354526 191.498947 206.185228 186.872473 194.540563 186.872473 
C 182.895898 186.872473 171.726601 191.498947 163.492579 199.732969 
C 155.258558 207.96699 150.632083 219.136288 150.632083 230.780953 
C 150.632083 242.425618 155.258558 253.594915 163.492579 261.828937 
C 171.726601 270.062958 182.895898 274.689433 194.540563 274.689433 
z
" clip-path="url(#p26f25907cd)" style="fill: #dd4a4c"/>
   </g>
   <g id="patch_28">
    <path d="M 401.123665 346.032 
C 408.533907 346.032 415.641641 343.08788 420.881473 337.848048 
C 426.121305 332.608216 429.065425 325.500481 429.065425 318.09024 
C 429.065425 310.679999 426.121305 303.572264 420.881473 298.332432 
C 415.641641 293.0926 408.533907 290.14848 401.123665 290.14848 
C 393.713424 290.14848 386.605689 293.0926 381.365857 298.332432 
C 376.126025 303.572264 373.181905 310.679999 373.181905 318.09024 
C 373.181905 325.500481 376.126025 332.608216 381.365857 337.848048 
C 386.605689 343.08788 393.713424 346.032 401.123665 346.032 
z
" clip-path="url(#p26f25907cd)" style="fill: #fff2aa"/>
   </g>
   <g id="patch_29">
    <path d="M 391.16543 164.652664 
C 398.046369 164.652664 404.646408 161.918839 409.511966 157.05328 
C 414.377524 152.187722 417.11135 145.587683 417.11135 138.706744 
C 417.11135 131.825806 414.377524 125.225767 409.511966 120.360208 
C 404.646408 115.49465 398.046369 112.760824 391.16543 112.760824 
C 384.284492 112.760824 377.684452 115.49465 372.818894 120.360208 
C 367.953336 125.225767 365.21951 131.825806 365.21951 138.706744 
C 365.21951 145.587683 367.953336 152.187722 372.818894 157.05328 
C 377.684452 161.918839 384.284492 164.652664 391.16543 164.652664 
z
" clip-path="url(#p26f25907cd)" style="fill: #ffffbe"/>
   </g>
   <g id="patch_30">
    <path d="M 123.09408 261.216477 
C 129.445715 261.216477 135.538059 258.692945 140.029344 254.201661 
C 144.520628 249.710376 147.04416 243.618032 147.04416 237.266397 
C 147.04416 230.914761 144.520628 224.822417 140.029344 220.331133 
C 135.538059 215.839848 129.445715 213.316317 123.09408 213.316317 
C 116.742445 213.316317 110.650101 215.839848 106.158816 220.331133 
C 101.667532 224.822417 99.144 230.914761 99.144 237.266397 
C 99.144 243.618032 101.667532 249.710376 106.158816 254.201661 
C 110.650101 258.692945 116.742445 261.216477 123.09408 261.216477 
z
" clip-path="url(#p26f25907cd)" style="fill: #f5fbaf"/>
   </g>
   <g id="patch_31">
    <path d="M 391.766733 82.58112 
C 396.530459 82.58112 401.099717 80.688471 404.468181 77.320008 
C 407.836644 73.951545 409.729293 69.382287 409.729293 64.61856 
C 409.729293 59.854833 407.836644 55.285575 404.468181 51.917112 
C 401.099717 48.548649 396.530459 46.656 391.766733 46.656 
C 387.003006 46.656 382.433748 48.548649 379.065285 51.917112 
C 375.696821 55.285575 373.804173 59.854833 373.804173 64.61856 
C 373.804173 69.382287 375.696821 73.951545 379.065285 77.320008 
C 382.433748 80.688471 387.003006 82.58112 391.766733 82.58112 
z
" clip-path="url(#p26f25907cd)" style="fill: #bfe5a0"/>
   </g>
   <g id="patch_32">
    <path d="M 546.365702 178.355669 
C 550.600126 178.355669 554.661688 176.673314 557.655878 173.679125 
C 560.650068 170.684935 562.332422 166.623372 562.332422 162.388949 
C 562.332422 158.154525 560.650068 154.092962 557.655878 151.098773 
C 554.661688 148.104583 550.600126 146.422229 546.365702 146.422229 
C 542.131278 146.422229 538.069716 148.104583 535.075526 151.098773 
C 532.081336 154.092962 530.398982 158.154525 530.398982 162.388949 
C 530.398982 166.623372 532.081336 170.684935 535.075526 173.679125 
C 538.069716 176.673314 542.131278 178.355669 546.365702 178.355669 
z
" clip-path="url(#p26f25907cd)" style="fill: #a4daa4"/>
   </g>
   <g id="patch_33">
    <path d="M 689.91264 62.62272 
C 692.029852 62.62272 694.060633 61.781543 695.557728 60.284448 
C 697.054823 58.787353 697.896 56.756572 697.896 54.63936 
C 697.896 52.522148 697.054823 50.491367 695.557728 48.994272 
C 694.060633 47.497177 692.029852 46.656 689.91264 46.656 
C 687.795428 46.656 685.764647 47.497177 684.267552 48.994272 
C 682.770457 50.491367 681.92928 52.522148 681.92928 54.63936 
C 681.92928 56.756572 682.770457 58.787353 684.267552 60.284448 
C 685.764647 61.781543 687.795428 62.62272 689.91264 62.62272 
z
" clip-path="url(#p26f25907cd)" style="fill: #3d95b8"/>
   </g>
   <g id="patch_34">
    <path d="M 311.659219 346.032 
C 324.891793 346.032 337.584176 340.774643 346.941019 331.4178 
C 356.297862 322.060957 361.555219 309.368574 361.555219 296.136 
C 361.555219 282.903426 356.297862 270.211043 346.941019 260.8542 
C 337.584176 251.497357 324.891793 246.24 311.659219 246.24 
C 298.426645 246.24 285.734262 251.497357 276.377419 260.8542 
C 267.020576 270.211043 261.763219 282.903426 261.763219 296.136 
C 261.763219 309.368574 267.020576 322.060957 276.377419 331.4178 
C 285.734262 340.774643 298.426645 346.032 311.659219 346.032 
z
" clip-path="url(#p26f25907cd)" style="fill: #9e0142"/>
   </g>
   <g id="patch_35">
    <path d="M 455.824029 306.786284 
C 461.646361 306.786284 467.23101 304.473046 471.348021 300.356036 
C 475.465032 296.239025 477.778269 290.654376 477.778269 284.832044 
C 477.778269 279.009711 475.465032 273.425062 471.348021 269.308052 
C 467.23101 265.191041 461.646361 262.877804 455.824029 262.877804 
C 450.001696 262.877804 444.417048 265.191041 440.300037 269.308052 
C 436.183026 273.425062 433.869789 279.009711 433.869789 284.832044 
C 433.869789 290.654376 436.183026 296.239025 440.300037 300.356036 
C 444.417048 304.473046 450.001696 306.786284 455.824029 306.786284 
z
" clip-path="url(#p26f25907cd)" style="fill: #eaf79e"/>
   </g>
   <g id="patch_36">
    <path d="M 232.232665 200.827742 
C 235.937786 200.827742 239.491653 199.355682 242.111569 196.735766 
C 244.731485 194.11585 246.203545 190.561982 246.203545 186.856862 
C 246.203545 183.151741 244.731485 179.597874 242.111569 176.977958 
C 239.491653 174.358042 235.937786 172.885982 232.232665 172.885982 
C 228.527544 172.885982 224.973677 174.358042 222.353761 176.977958 
C 219.733845 179.597874 218.261785 183.151741 218.261785 186.856862 
C 218.261785 190.561982 219.733845 194.11585 222.353761 196.735766 
C 224.973677 199.355682 228.527544 200.827742 232.232665 200.827742 
z
" clip-path="url(#p26f25907cd)" style="fill: #86cfa5"/>
   </g>
   <g id="patch_37">
    <path d="M 691.90848 346.032 
C 693.496389 346.032 695.019475 345.401117 696.142296 344.278296 
C 697.265117 343.155475 697.896 341.632389 697.896 340.04448 
C 697.896 338.456571 697.265117 336.933485 696.142296 335.810664 
C 695.019475 334.687843 693.496389 334.05696 691.90848 334.05696 
C 690.320571 334.05696 688.797485 334.687843 687.674664 335.810664 
C 686.551843 336.933485 685.92096 338.456571 685.92096 340.04448 
C 685.92096 341.632389 686.551843 343.155475 687.674664 344.278296 
C 688.797485 345.401117 690.320571 346.032 691.90848 346.032 
z
" clip-path="url(#p26f25907cd)" style="fill: #3a7eb8"/>
   </g>
   <g id="patch_38">
    <path d="M 428.593458 228.378271 
C 438.650214 228.378271 448.296425 224.382679 455.407626 217.271479 
C 462.518826 210.160278 466.514418 200.514067 466.514418 190.457311 
C 466.514418 180.400555 462.518826 170.754343 455.407626 163.643143 
C 448.296425 156.531942 438.650214 152.536351 428.593458 152.536351 
C 418.536702 152.536351 408.89049 156.531942 401.77929 163.643143 
C 394.668089 170.754343 390.672498 180.400555 390.672498 190.457311 
C 390.672498 200.514067 394.668089 210.160278 401.77929 217.271479 
C 408.89049 224.382679 418.536702 228.378271 428.593458 228.378271 
z
" clip-path="url(#p26f25907cd)" style="fill: #f98e52"/>
   </g>
   <g id="patch_39">
    <path d="M 399.024569 289.870465 
C 408.02272 289.870465 416.65354 286.295462 423.016193 279.932809 
C 429.378846 273.570156 432.953849 264.939336 432.953849 255.941185 
C 432.953849 246.943035 429.378846 238.312214 423.016193 231.949561 
C 416.65354 225.586908 408.02272 222.011905 399.024569 222.011905 
C 390.026419 222.011905 381.395599 225.586908 375.032945 231.949561 
C 368.670292 238.312214 365.095289 246.943035 365.095289 255.941185 
C 365.095289 264.939336 368.670292 273.570156 375.032945 279.932809 
C 381.395599 286.295462 390.026419 289.870465 399.024569 289.870465 
z
" clip-path="url(#p26f25907cd)" style="fill: #fdbf6f"/>
   </g>
   <g id="patch_40">
    <path d="M 499.320104 70.60608 
C 502.495922 70.60608 505.542094 69.344314 507.787736 67.098672 
C 510.033378 64.85303 511.295144 61.806858 511.295144 58.63104 
C 511.295144 55.455222 510.033378 52.40905 507.787736 50.163408 
C 505.542094 47.917766 502.495922 46.656 499.320104 46.656 
C 496.144286 46.656 493.098114 47.917766 490.852472 50.163408 
C 488.60683 52.40905 487.345064 55.455222 487.345064 58.63104 
C 487.345064 61.806858 488.60683 64.85303 490.852472 67.098672 
C 493.098114 69.344314 496.144286 70.60608 499.320104 70.60608 
z
" clip-path="url(#p26f25907cd)" style="fill: #6bc4a5"/>
   </g>
   <g id="patch_41">
    <path d="M 109.1232 148.262024 
C 111.769715 148.262024 114.308191 147.210552 116.17956 145.339184 
C 118.050929 143.467815 119.1024 140.929338 119.1024 138.282824 
C 119.1024 135.636309 118.050929 133.097832 116.17956 131.226464 
C 114.308191 129.355095 111.769715 128.303624 109.1232 128.303624 
C 106.476685 128.303624 103.938209 129.355095 102.06684 131.226464 
C 100.195471 133.097832 99.144 135.636309 99.144 138.282824 
C 99.144 140.929338 100.195471 143.467815 102.06684 145.339184 
C 103.938209 147.210552 106.476685 148.262024 109.1232 148.262024 
z
" clip-path="url(#p26f25907cd)" style="fill: #54aead"/>
   </g>
   <g id="patch_42">
    <path d="M 679.064571 346.032 
C 680.123177 346.032 681.138568 345.611411 681.887115 344.862864 
C 682.635662 344.114317 683.056251 343.098926 683.056251 342.04032 
C 683.056251 340.981714 682.635662 339.966323 681.887115 339.217776 
C 681.138568 338.469229 680.123177 338.04864 679.064571 338.04864 
C 678.005965 338.04864 676.990574 338.469229 676.242027 339.217776 
C 675.49348 339.966323 675.072891 340.981714 675.072891 342.04032 
C 675.072891 343.098926 675.49348 344.114317 676.242027 344.862864 
C 676.990574 345.611411 678.005965 346.032 679.064571 346.032 
z
" clip-path="url(#p26f25907cd)" style="fill: #4d65ad"/>
   </g>
   <g id="patch_43">
    <path d="M 253.267778 277.752819 
C 258.560808 277.752819 263.637761 275.649876 267.380498 271.907139 
C 271.123236 268.164402 273.226178 263.087448 273.226178 257.794419 
C 273.226178 252.501389 271.123236 247.424436 267.380498 243.681699 
C 263.637761 239.938962 258.560808 237.836019 253.267778 237.836019 
C 247.974749 237.836019 242.897796 239.938962 239.155058 243.681699 
C 235.412321 247.424436 233.309378 252.501389 233.309378 257.794419 
C 233.309378 263.087448 235.412321 268.164402 239.155058 271.907139 
C 242.897796 275.649876 247.974749 277.752819 253.267778 277.752819 
z
" clip-path="url(#p26f25907cd)" style="fill: #d6ee9b"/>
   </g>
   <g id="patch_44">
    <path d="M 107.12736 62.62272 
C 109.244572 62.62272 111.275353 61.781543 112.772448 60.284448 
C 114.269543 58.787353 115.11072 56.756572 115.11072 54.63936 
C 115.11072 52.522148 114.269543 50.491367 112.772448 48.994272 
C 111.275353 47.497177 109.244572 46.656 107.12736 46.656 
C 105.010148 46.656 102.979367 47.497177 101.482272 48.994272 
C 99.985177 50.491367 99.144 52.522148 99.144 54.63936 
C 99.144 56.756572 99.985177 58.787353 101.482272 60.284448 
C 102.979367 61.781543 105.010148 62.62272 107.12736 62.62272 
z
" clip-path="url(#p26f25907cd)" style="fill: #3d95b8"/>
   </g>
   <g id="patch_45">
    <path d="M 553.826664 209.405285 
C 558.061087 209.405285 562.12265 207.72293 565.11684 204.728741 
C 568.111029 201.734551 569.793384 197.672988 569.793384 193.438565 
C 569.793384 189.204141 568.111029 185.142578 565.11684 182.148389 
C 562.12265 179.154199 558.061087 177.471845 553.826664 177.471845 
C 549.59224 177.471845 545.530677 179.154199 542.536488 182.148389 
C 539.542298 185.142578 537.859944 189.204141 537.859944 193.438565 
C 537.859944 197.672988 539.542298 201.734551 542.536488 204.728741 
C 545.530677 207.72293 549.59224 209.405285 553.826664 209.405285 
z
" clip-path="url(#p26f25907cd)" style="fill: #a4daa4"/>
   </g>
   <g id="patch_46">
    <path d="M 364.539314 346.032 
C 367.715132 346.032 370.761304 344.770234 373.006946 342.524592 
C 375.252588 340.27895 376.514354 337.232778 376.514354 334.05696 
C 376.514354 330.881142 375.252588 327.83497 373.006946 325.589328 
C 370.761304 323.343686 367.715132 322.08192 364.539314 322.08192 
C 361.363496 322.08192 358.317324 323.343686 356.071682 325.589328 
C 353.82604 327.83497 352.564274 330.881142 352.564274 334.05696 
C 352.564274 337.232778 353.82604 340.27895 356.071682 342.524592 
C 358.317324 344.770234 361.363496 346.032 364.539314 346.032 
z
" clip-path="url(#p26f25907cd)" style="fill: #6bc4a5"/>
   </g>
   <g id="patch_47">
    <path d="M 609.185681 346.032 
C 611.832196 346.032 614.370672 344.980529 616.242041 343.10916 
C 618.113409 341.237791 619.164881 338.699315 619.164881 336.0528 
C 619.164881 333.406285 618.113409 330.867809 616.242041 328.99644 
C 614.370672 327.125071 611.832196 326.0736 609.185681 326.0736 
C 606.539166 326.0736 604.000689 327.125071 602.129321 328.99644 
C 600.257952 330.867809 599.206481 333.406285 599.206481 336.0528 
C 599.206481 338.699315 600.257952 341.237791 602.129321 343.10916 
C 604.000689 344.980529 606.539166 346.032 609.185681 346.032 
z
" clip-path="url(#p26f25907cd)" style="fill: #54aead"/>
   </g>
   <g id="patch_48">
    <path d="M 105.13152 346.032 
C 106.719429 346.032 108.242515 345.401117 109.365336 344.278296 
C 110.488157 343.155475 111.11904 341.632389 111.11904 340.04448 
C 111.11904 338.456571 110.488157 336.933485 109.365336 335.810664 
C 108.242515 334.687843 106.719429 334.05696 105.13152 334.05696 
C 103.543611 334.05696 102.020525 334.687843 100.897704 335.810664 
C 99.774883 336.933485 99.144 338.456571 99.144 340.04448 
C 99.144 341.632389 99.774883 343.155475 100.897704 344.278296 
C 102.020525 345.401117 103.543611 346.032 105.13152 346.032 
z
" clip-path="url(#p26f25907cd)" style="fill: #3a7eb8"/>
   </g>
   <g id="patch_49">
    <path d="M 684.994687 346.032 
C 685.52399 346.032 686.031686 345.821706 686.405959 345.447432 
C 686.780233 345.073158 686.990527 344.565463 686.990527 344.03616 
C 686.990527 343.506857 686.780233 342.999162 686.405959 342.624888 
C 686.031686 342.250614 685.52399 342.04032 684.994687 342.04032 
C 684.465384 342.04032 683.957689 342.250614 683.583415 342.624888 
C 683.209142 342.999162 682.998847 343.506857 682.998847 344.03616 
C 682.998847 344.565463 683.209142 345.073158 683.583415 345.447432 
C 683.957689 345.821706 684.465384 346.032 684.994687 346.032 
z
" clip-path="url(#p26f25907cd)" style="fill: #5e4fa2"/>
   </g>
   <g id="patch_50">
    <path d="M 619.189727 223.061596 
C 622.365545 223.061596 625.411717 221.79983 627.657359 219.554188 
C 629.903001 217.308546 631.164767 214.262374 631.164767 211.086556 
C 631.164767 207.910738 629.903001 204.864566 627.657359 202.618924 
C 625.411717 200.373282 622.365545 199.111516 619.189727 199.111516 
C 616.013909 199.111516 612.967737 200.373282 610.722095 202.618924 
C 608.476453 204.864566 607.214687 207.910738 607.214687 211.086556 
C 607.214687 214.262374 608.476453 217.308546 610.722095 219.554188 
C 612.967737 221.79983 616.013909 223.061596 619.189727 223.061596 
z
" clip-path="url(#p26f25907cd)" style="fill: #6bc4a5"/>
   </g>
   <g id="patch_51">
    <path d="M 689.91264 269.82419 
C 692.029852 269.82419 694.060633 268.983013 695.557728 267.485918 
C 697.054823 265.988824 697.896 263.958042 697.896 261.84083 
C 697.896 259.723619 697.054823 257.692837 695.557728 256.195742 
C 694.060633 254.698648 692.029852 253.85747 689.91264 253.85747 
C 687.795428 253.85747 685.764647 254.698648 684.267552 256.195742 
C 682.770457 257.692837 681.92928 259.723619 681.92928 261.84083 
C 681.92928 263.958042 682.770457 265.988824 684.267552 267.485918 
C 685.764647 268.983013 687.795428 269.82419 689.91264 269.82419 
z
" clip-path="url(#p26f25907cd)" style="fill: #3d95b8"/>
   </g>
   <g id="patch_52">
    <path d="M 116.57467 346.032 
C 117.633276 346.032 118.648667 345.611411 119.397214 344.862864 
C 120.145762 344.114317 120.56635 343.098926 120.56635 342.04032 
C 120.56635 340.981714 120.145762 339.966323 119.397214 339.217776 
C 118.648667 338.469229 117.633276 338.04864 116.57467 338.04864 
C 115.516064 338.04864 114.500674 338.469229 113.752126 339.217776 
C 113.003579 339.966323 112.58299 340.981714 112.58299 342.04032 
C 112.58299 343.098926 113.003579 344.114317 113.752126 344.862864 
C 114.500674 345.611411 115.516064 346.032 116.57467 346.032 
z
" clip-path="url(#p26f25907cd)" style="fill: #4d65ad"/>
   </g>
   <g id="patch_53">
    <path d="M 190.770824 66.6144 
C 193.417338 66.6144 195.955815 65.562929 197.827184 63.69156 
C 199.698552 61.820191 200.750024 59.281715 200.750024 56.6352 
C 200.750024 53.988685 199.698552 51.450209 197.827184 49.57884 
C 195.955815 47.707471 193.417338 46.656 190.770824 46.656 
C 188.124309 46.656 185.585832 47.707471 183.714464 49.57884 
C 181.843095 51.450209 180.791624 53.988685 180.791624 56.6352 
C 180.791624 59.281715 181.843095 61.820191 183.714464 63.69156 
C 185.585832 65.562929 188.124309 66.6144 190.770824 66.6144 
z
" clip-path="url(#p26f25907cd)" style="fill: #54aead"/>
   </g>
   <g id="patch_54">
    <path d="M 266.925172 238.090077 
C 273.806111 238.090077 280.40615 235.356251 285.271708 230.490693 
C 290.137267 225.625135 292.871092 219.025095 292.871092 212.144157 
C 292.871092 205.263219 290.137267 198.663179 285.271708 193.797621 
C 280.40615 188.932063 273.806111 186.198237 266.925172 186.198237 
C 260.044234 186.198237 253.444195 188.932063 248.578636 193.797621 
C 243.713078 198.663179 240.979252 205.263219 240.979252 212.144157 
C 240.979252 219.025095 243.713078 225.625135 248.578636 230.490693 
C 253.444195 235.356251 260.044234 238.090077 266.925172 238.090077 
z
" clip-path="url(#p26f25907cd)" style="fill: #ffffbe"/>
   </g>
   <g id="patch_55">
    <path d="M 579.129209 238.899816 
C 584.422239 238.899816 589.499192 236.796873 593.241929 233.054136 
C 596.984666 229.311399 599.087609 224.234446 599.087609 218.941416 
C 599.087609 213.648387 596.984666 208.571433 593.241929 204.828696 
C 589.499192 201.085959 584.422239 198.983016 579.129209 198.983016 
C 573.836179 198.983016 568.759226 201.085959 565.016489 204.828696 
C 561.273752 208.571433 559.170809 213.648387 559.170809 218.941416 
C 559.170809 224.234446 561.273752 229.311399 565.016489 233.054136 
C 568.759226 236.796873 573.836179 238.899816 579.129209 238.899816 
z
" clip-path="url(#p26f25907cd)" style="fill: #d6ee9b"/>
   </g>
   <g id="patch_56">
    <path d="M 389.842458 112.783909 
C 393.018275 112.783909 396.064447 111.522143 398.31009 109.276501 
C 400.555732 107.030859 401.817498 103.984687 401.817498 100.808869 
C 401.817498 97.633051 400.555732 94.586879 398.31009 92.341237 
C 396.064447 90.095595 393.018275 88.833829 389.842458 88.833829 
C 386.66664 88.833829 383.620468 90.095595 381.374826 92.341237 
C 379.129183 94.586879 377.867418 97.633051 377.867418 100.808869 
C 377.867418 103.984687 379.129183 107.030859 381.374826 109.276501 
C 383.620468 111.522143 386.66664 112.783909 389.842458 112.783909 
z
" clip-path="url(#p26f25907cd)" style="fill: #6bc4a5"/>
   </g>
   <g id="patch_57">
    <path d="M 105.13152 275.682478 
C 106.719429 275.682478 108.242515 275.051596 109.365336 273.928774 
C 110.488157 272.805953 111.11904 271.282867 111.11904 269.694958 
C 111.11904 268.10705 110.488157 266.583964 109.365336 265.461142 
C 108.242515 264.338321 106.719429 263.707438 105.13152 263.707438 
C 103.543611 263.707438 102.020525 264.338321 100.897704 265.461142 
C 99.774883 266.583964 99.144 268.10705 99.144 269.694958 
C 99.144 271.282867 99.774883 272.805953 100.897704 273.928774 
C 102.020525 275.051596 103.543611 275.682478 105.13152 275.682478 
z
" clip-path="url(#p26f25907cd)" style="fill: #3a7eb8"/>
   </g>
   <g id="patch_58">
    <path d="M 528.161176 346.032 
C 530.278388 346.032 532.30917 345.190823 533.806264 343.693728 
C 535.303359 342.196633 536.144536 340.165852 536.144536 338.04864 
C 536.144536 335.931428 535.303359 333.900647 533.806264 332.403552 
C 532.30917 330.906457 530.278388 330.06528 528.161176 330.06528 
C 526.043965 330.06528 524.013183 330.906457 522.516088 332.403552 
C 521.018994 333.900647 520.177816 335.931428 520.177816 338.04864 
C 520.177816 340.165852 521.018994 342.196633 522.516088 343.693728 
C 524.013183 345.190823 526.043965 346.032 528.161176 346.032 
z
" clip-path="url(#p26f25907cd)" style="fill: #3d95b8"/>
   </g>
   <g id="patch_59">
    <path d="M 283.489693 66.6144 
C 286.136208 66.6144 288.674685 65.562929 290.546053 63.69156 
C 292.417422 61.820191 293.468893 59.281715 293.468893 56.6352 
C 293.468893 53.988685 292.417422 51.450209 290.546053 49.57884 
C 288.674685 47.707471 286.136208 46.656 283.489693 46.656 
C 280.843179 46.656 278.304702 47.707471 276.433333 49.57884 
C 274.561965 51.450209 273.510493 53.988685 273.510493 56.6352 
C 273.510493 59.281715 274.561965 61.820191 276.433333 63.69156 
C 278.304702 65.562929 280.843179 66.6144 283.489693 66.6144 
z
" clip-path="url(#p26f25907cd)" style="fill: #54aead"/>
   </g>
   <g id="patch_60">
    <path d="M 263.568654 346.032 
C 266.215169 346.032 268.753646 344.980529 270.625014 343.10916 
C 272.496383 341.237791 273.547854 338.699315 273.547854 336.0528 
C 273.547854 333.406285 272.496383 330.867809 270.625014 328.99644 
C 268.753646 327.125071 266.215169 326.0736 263.568654 326.0736 
C 260.92214 326.0736 258.383663 327.125071 256.512294 328.99644 
C 254.640926 330.867809 253.589454 333.406285 253.589454 336.0528 
C 253.589454 338.699315 254.640926 341.237791 256.512294 343.10916 
C 258.383663 344.980529 260.92214 346.032 263.568654 346.032 
z
" clip-path="url(#p26f25907cd)" style="fill: #54aead"/>
   </g>
   <g id="patch_61">
    <path d="M 603.73902 284.120148 
C 605.856232 284.120148 607.887013 283.278971 609.384108 281.781876 
C 610.881203 280.284782 611.72238 278.254 611.72238 276.136788 
C 611.72238 274.019577 610.881203 271.988795 609.384108 270.4917 
C 607.887013 268.994606 605.856232 268.153428 603.73902 268.153428 
C 601.621808 268.153428 599.591027 268.994606 598.093932 270.4917 
C 596.596837 271.988795 595.75566 274.019577 595.75566 276.136788 
C 595.75566 278.254 596.596837 280.284782 598.093932 281.781876 
C 599.591027 283.278971 601.621808 284.120148 603.73902 284.120148 
z
" clip-path="url(#p26f25907cd)" style="fill: #3d95b8"/>
   </g>
   <g id="patch_62">
    <path d="M 691.90848 137.108483 
C 693.496389 137.108483 695.019475 136.4776 696.142296 135.354779 
C 697.265117 134.231958 697.896 132.708872 697.896 131.120963 
C 697.896 129.533054 697.265117 128.009968 696.142296 126.887147 
C 695.019475 125.764326 693.496389 125.133443 691.90848 125.133443 
C 690.320571 125.133443 688.797485 125.764326 687.674664 126.887147 
C 686.551843 128.009968 685.92096 129.533054 685.92096 131.120963 
C 685.92096 132.708872 686.551843 134.231958 687.674664 135.354779 
C 688.797485 136.4776 690.320571 137.108483 691.90848 137.108483 
z
" clip-path="url(#p26f25907cd)" style="fill: #3a7eb8"/>
   </g>
   <g id="patch_63">
    <path d="M 169.53029 346.032 
C 170.588896 346.032 171.604286 345.611411 172.352834 344.862864 
C 173.101381 344.114317 173.52197 343.098926 173.52197 342.04032 
C 173.52197 340.981714 173.101381 339.966323 172.352834 339.217776 
C 171.604286 338.469229 170.588896 338.04864 169.53029 338.04864 
C 168.471684 338.04864 167.456293 338.469229 166.707746 339.217776 
C 165.959198 339.966323 165.53861 340.981714 165.53861 342.04032 
C 165.53861 343.098926 165.959198 344.114317 166.707746 344.862864 
C 167.456293 345.611411 168.471684 346.032 169.53029 346.032 
z
" clip-path="url(#p26f25907cd)" style="fill: #4d65ad"/>
   </g>
   <g id="patch_64">
    <path d="M 512.701466 346.032 
C 513.230769 346.032 513.738465 345.821706 514.112738 345.447432 
C 514.487012 345.073158 514.697306 344.565463 514.697306 344.03616 
C 514.697306 343.506857 514.487012 342.999162 514.112738 342.624888 
C 513.738465 342.250614 513.230769 342.04032 512.701466 342.04032 
C 512.172163 342.04032 511.664468 342.250614 511.290194 342.624888 
C 510.915921 342.999162 510.705626 343.506857 510.705626 344.03616 
C 510.705626 344.565463 510.915921 345.073158 511.290194 345.447432 
C 511.664468 345.821706 512.172163 346.032 512.701466 346.032 
z
" clip-path="url(#p26f25907cd)" style="fill: #5e4fa2"/>
   </g>
   <g id="patch_65">
    <path d="M 470.217192 346.032 
C 471.805101 346.032 473.328187 345.401117 474.451008 344.278296 
C 475.573829 343.155475 476.204712 341.632389 476.204712 340.04448 
C 476.204712 338.456571 475.573829 336.933485 474.451008 335.810664 
C 473.328187 334.687843 471.805101 334.05696 470.217192 334.05696 
C 468.629283 334.05696 467.106197 334.687843 465.983376 335.810664 
C 464.860555 336.933485 464.229672 338.456571 464.229672 340.04448 
C 464.229672 341.632389 464.860555 343.155475 465.983376 344.278296 
C 467.106197 345.401117 468.629283 346.032 470.217192 346.032 
z
" clip-path="url(#p26f25907cd)" style="fill: #3a7eb8"/>
   </g>
   <g id="patch_66">
    <path d="M 693.90432 331.192251 
C 694.962926 331.192251 695.978317 330.771662 696.726864 330.023115 
C 697.475411 329.274568 697.896 328.259177 697.896 327.200571 
C 697.896 326.141965 697.475411 325.126574 696.726864 324.378027 
C 695.978317 323.62948 694.962926 323.208891 693.90432 323.208891 
C 692.845714 323.208891 691.830323 323.62948 691.081776 324.378027 
C 690.333229 325.126574 689.91264 326.141965 689.91264 327.200571 
C 689.91264 328.259177 690.333229 329.274568 691.081776 330.023115 
C 691.830323 330.771662 692.845714 331.192251 693.90432 331.192251 
z
" clip-path="url(#p26f25907cd)" style="fill: #4d65ad"/>
   </g>
   <g id="patch_67">
    <path d="M 644.658811 166.313104 
C 647.305326 166.313104 649.843803 165.261632 651.715171 163.390264 
C 653.58654 161.518895 654.638011 158.980419 654.638011 156.333904 
C 654.638011 153.687389 653.58654 151.148912 651.715171 149.277544 
C 649.843803 147.406175 647.305326 146.354704 644.658811 146.354704 
C 642.012296 146.354704 639.47382 147.406175 637.602451 149.277544 
C 635.731083 151.148912 634.679611 153.687389 634.679611 156.333904 
C 634.679611 158.980419 635.731083 161.518895 637.602451 163.390264 
C 639.47382 165.261632 642.012296 166.313104 644.658811 166.313104 
z
" clip-path="url(#p26f25907cd)" style="fill: #54aead"/>
   </g>
   <g id="patch_68">
    <path d="M 568.941731 266.25934 
C 572.646851 266.25934 576.200719 264.78728 578.820635 262.167364 
C 581.440551 259.547448 582.912611 255.99358 582.912611 252.28846 
C 582.912611 248.583339 581.440551 245.029472 578.820635 242.409556 
C 576.200719 239.78964 572.646851 238.31758 568.941731 238.31758 
C 565.23661 238.31758 561.682743 239.78964 559.062827 242.409556 
C 556.442911 245.029472 554.970851 248.583339 554.970851 252.28846 
C 554.970851 255.99358 556.442911 259.547448 559.062827 262.167364 
C 561.682743 264.78728 565.23661 266.25934 568.941731 266.25934 
z
" clip-path="url(#p26f25907cd)" style="fill: #86cfa5"/>
   </g>
   <g id="patch_69">
    <path d="M 456.168418 158.127861 
C 458.28563 158.127861 460.316411 157.286684 461.813506 155.789589 
C 463.310601 154.292495 464.151778 152.261713 464.151778 150.144501 
C 464.151778 148.02729 463.310601 145.996508 461.813506 144.499413 
C 460.316411 143.002319 458.28563 142.161141 456.168418 142.161141 
C 454.051206 142.161141 452.020425 143.002319 450.52333 144.499413 
C 449.026235 145.996508 448.185058 148.02729 448.185058 150.144501 
C 448.185058 152.261713 449.026235 154.292495 450.52333 155.789589 
C 452.020425 157.286684 454.051206 158.127861 456.168418 158.127861 
z
" clip-path="url(#p26f25907cd)" style="fill: #3d95b8"/>
   </g>
   <g id="patch_70">
    <path d="M 671.135105 346.032 
C 671.664408 346.032 672.172103 345.821706 672.546377 345.447432 
C 672.92065 345.073158 673.130945 344.565463 673.130945 344.03616 
C 673.130945 343.506857 672.92065 342.999162 672.546377 342.624888 
C 672.172103 342.250614 671.664408 342.04032 671.135105 342.04032 
C 670.605802 342.04032 670.098106 342.250614 669.723833 342.624888 
C 669.349559 342.999162 669.139265 343.506857 669.139265 344.03616 
C 669.139265 344.565463 669.349559 345.073158 669.723833 345.447432 
C 670.098106 345.821706 670.605802 346.032 671.135105 346.032 
z
" clip-path="url(#p26f25907cd)" style="fill: #5e4fa2"/>
   </g>
   <g id="patch_71">
    <path d="M 416.56168 58.63104 
C 418.149589 58.63104 419.672675 58.000157 420.795496 56.877336 
C 421.918317 55.754515 422.5492 54.231429 422.5492 52.64352 
C 422.5492 51.055611 421.918317 49.532525 420.795496 48.409704 
C 419.672675 47.286883 418.149589 46.656 416.56168 46.656 
C 414.973771 46.656 413.450685 47.286883 412.327864 48.409704 
C 411.205043 49.532525 410.57416 51.055611 410.57416 52.64352 
C 410.57416 54.231429 411.205043 55.754515 412.327864 56.877336 
C 413.450685 58.000157 414.973771 58.63104 416.56168 58.63104 
z
" clip-path="url(#p26f25907cd)" style="fill: #3a7eb8"/>
   </g>
   <g id="patch_72">
    <path d="M 174.69933 54.63936 
C 175.757936 54.63936 176.773327 54.218771 177.521874 53.470224 
C 178.270422 52.721677 178.69101 51.706286 178.69101 50.64768 
C 178.69101 49.589074 178.270422 48.573683 177.521874 47.825136 
C 176.773327 47.076589 175.757936 46.656 174.69933 46.656 
C 173.640724 46.656 172.625334 47.076589 171.876786 47.825136 
C 171.128239 48.573683 170.70765 49.589074 170.70765 50.64768 
C 170.70765 51.706286 171.128239 52.721677 171.876786 53.470224 
C 172.625334 54.218771 173.640724 54.63936 174.69933 54.63936 
z
" clip-path="url(#p26f25907cd)" style="fill: #4d65ad"/>
   </g>
   <g id="patch_73">
    <path d="M 371.025355 58.63104 
C 372.613264 58.63104 374.13635 58.000157 375.259171 56.877336 
C 376.381992 55.754515 377.012875 54.231429 377.012875 52.64352 
C 377.012875 51.055611 376.381992 49.532525 375.259171 48.409704 
C 374.13635 47.286883 372.613264 46.656 371.025355 46.656 
C 369.437446 46.656 367.91436 47.286883 366.791539 48.409704 
C 365.668718 49.532525 365.037835 51.055611 365.037835 52.64352 
C 365.037835 54.231429 365.668718 55.754515 366.791539 56.877336 
C 367.91436 58.000157 369.437446 58.63104 371.025355 58.63104 
z
" clip-path="url(#p26f25907cd)" style="fill: #3a7eb8"/>
   </g>
   <g id="patch_74">
    <path d="M 587.917227 271.313522 
C 590.034439 271.313522 592.06522 270.472345 593.562315 268.97525 
C 595.05941 267.478155 595.900587 265.447374 595.900587 263.330162 
C 595.900587 261.21295 595.05941 259.182169 593.562315 257.685074 
C 592.06522 256.187979 590.034439 255.346802 587.917227 255.346802 
C 585.800015 255.346802 583.769234 256.187979 582.272139 257.685074 
C 580.775044 259.182169 579.933867 261.21295 579.933867 263.330162 
C 579.933867 265.447374 580.775044 267.478155 582.272139 268.97525 
C 583.769234 270.472345 585.800015 271.313522 587.917227 271.313522 
z
" clip-path="url(#p26f25907cd)" style="fill: #3d95b8"/>
   </g>
   <g id="patch_75">
    <path d="M 645.766885 190.235203 
C 648.942703 190.235203 651.988875 188.973437 654.234517 186.727795 
C 656.48016 184.482152 657.741925 181.43598 657.741925 178.260163 
C 657.741925 175.084345 656.48016 172.038173 654.234517 169.792531 
C 651.988875 167.546888 648.942703 166.285123 645.766885 166.285123 
C 642.591068 166.285123 639.544896 167.546888 637.299253 169.792531 
C 635.053611 172.038173 633.791845 175.084345 633.791845 178.260163 
C 633.791845 181.43598 635.053611 184.482152 637.299253 186.727795 
C 639.544896 188.973437 642.591068 190.235203 645.766885 190.235203 
z
" clip-path="url(#p26f25907cd)" style="fill: #6bc4a5"/>
   </g>
   <g id="patch_76">
    <path d="M 355.174695 263.652541 
C 357.82121 263.652541 360.359686 262.601069 362.231055 260.729701 
C 364.102423 258.858332 365.153895 256.319855 365.153895 253.673341 
C 365.153895 251.026826 364.102423 248.488349 362.231055 246.616981 
C 360.359686 244.745612 357.82121 243.694141 355.174695 243.694141 
C 352.52818 243.694141 349.989703 244.745612 348.118335 246.616981 
C 346.246966 248.488349 345.195495 251.026826 345.195495 253.673341 
C 345.195495 256.319855 346.246966 258.858332 348.118335 260.729701 
C 349.989703 262.601069 352.52818 263.652541 355.174695 263.652541 
z
" clip-path="url(#p26f25907cd)" style="fill: #54aead"/>
   </g>
   <g id="patch_77">
    <path d="M 103.13568 332.59301 
C 104.194286 332.59301 105.209677 332.172421 105.958224 331.423874 
C 106.706771 330.675326 107.12736 329.659936 107.12736 328.60133 
C 107.12736 327.542724 106.706771 326.527333 105.958224 325.778786 
C 105.209677 325.030238 104.194286 324.60965 103.13568 324.60965 
C 102.077074 324.60965 101.061683 325.030238 100.313136 325.778786 
C 99.564589 326.527333 99.144 327.542724 99.144 328.60133 
C 99.144 329.659936 99.564589 330.675326 100.313136 331.423874 
C 101.061683 332.172421 102.077074 332.59301 103.13568 332.59301 
z
" clip-path="url(#p26f25907cd)" style="fill: #4d65ad"/>
   </g>
   <g id="patch_78">
    <path d="M 166.599318 50.64768 
C 167.128621 50.64768 167.636317 50.437386 168.01059 50.063112 
C 168.384864 49.688838 168.595158 49.181143 168.595158 48.65184 
C 168.595158 48.122537 168.384864 47.614842 168.01059 47.240568 
C 167.636317 46.866294 167.128621 46.656 166.599318 46.656 
C 166.070015 46.656 165.56232 46.866294 165.188046 47.240568 
C 164.813773 47.614842 164.603478 48.122537 164.603478 48.65184 
C 164.603478 49.181143 164.813773 49.688838 165.188046 50.063112 
C 165.56232 50.437386 166.070015 50.64768 166.599318 50.64768 
z
" clip-path="url(#p26f25907cd)" style="fill: #5e4fa2"/>
   </g>
   <g id="patch_79">
    <path d="M 105.13152 219.303837 
C 106.719429 219.303837 108.242515 218.672954 109.365336 217.550133 
C 110.488157 216.427312 111.11904 214.904226 111.11904 213.316317 
C 111.11904 211.728408 110.488157 210.205322 109.365336 209.082501 
C 108.242515 207.95968 106.719429 207.328797 105.13152 207.328797 
C 103.543611 207.328797 102.020525 207.95968 100.897704 209.082501 
C 99.774883 210.205322 99.144 211.728408 99.144 213.316317 
C 99.144 214.904226 99.774883 216.427312 100.897704 217.550133 
C 102.020525 218.672954 103.543611 219.303837 105.13152 219.303837 
z
" clip-path="url(#p26f25907cd)" style="fill: #3a7eb8"/>
   </g>
   <g id="patch_80">
    <path d="M 346.228182 346.032 
C 347.816091 346.032 349.339177 345.401117 350.461998 344.278296 
C 351.584819 343.155475 352.215702 341.632389 352.215702 340.04448 
C 352.215702 338.456571 351.584819 336.933485 350.461998 335.810664 
C 349.339177 334.687843 347.816091 334.05696 346.228182 334.05696 
C 344.640273 334.05696 343.117187 334.687843 341.994366 335.810664 
C 340.871545 336.933485 340.240662 338.456571 340.240662 340.04448 
C 340.240662 341.632389 340.871545 343.155475 341.994366 344.278296 
C 343.117187 345.401117 344.640273 346.032 346.228182 346.032 
z
" clip-path="url(#p26f25907cd)" style="fill: #3a7eb8"/>
   </g>
   <g id="patch_81">
    <path d="M 624.918789 346.032 
C 625.977395 346.032 626.992786 345.611411 627.741333 344.862864 
C 628.48988 344.114317 628.910469 343.098926 628.910469 342.04032 
C 628.910469 340.981714 628.48988 339.966323 627.741333 339.217776 
C 626.992786 338.469229 625.977395 338.04864 624.918789 338.04864 
C 623.860183 338.04864 622.844792 338.469229 622.096245 339.217776 
C 621.347698 339.966323 620.927109 340.981714 620.927109 342.04032 
C 620.927109 343.098926 621.347698 344.114317 622.096245 344.862864 
C 622.844792 345.611411 623.860183 346.032 624.918789 346.032 
z
" clip-path="url(#p26f25907cd)" style="fill: #4d65ad"/>
   </g>
   <g id="patch_82">
    <path d="M 101.13984 285.396721 
C 101.669143 285.396721 102.176838 285.186427 102.551112 284.812153 
C 102.925386 284.43788 103.13568 283.930184 103.13568 283.400881 
C 103.13568 282.871578 102.925386 282.363883 102.551112 281.989609 
C 102.176838 281.615336 101.669143 281.405041 101.13984 281.405041 
C 100.610537 281.405041 100.102842 281.615336 99.728568 281.989609 
C 99.354294 282.363883 99.144 282.871578 99.144 283.400881 
C 99.144 283.930184 99.354294 284.43788 99.728568 284.812153 
C 100.102842 285.186427 100.610537 285.396721 101.13984 285.396721 
z
" clip-path="url(#p26f25907cd)" style="fill: #5e4fa2"/>
   </g>
   <g id="patch_83">
    <path d="M 691.90848 191.6645 
C 693.496389 191.6645 695.019475 191.033617 696.142296 189.910796 
C 697.265117 188.787975 697.896 187.264889 697.896 185.67698 
C 697.896 184.089071 697.265117 182.565985 696.142296 181.443164 
C 695.019475 180.320343 693.496389 179.68946 691.90848 179.68946 
C 690.320571 179.68946 688.797485 180.320343 687.674664 181.443164 
C 686.551843 182.565985 685.92096 184.089071 685.92096 185.67698 
C 685.92096 187.264889 686.551843 188.787975 687.674664 189.910796 
C 688.797485 191.033617 690.320571 191.6645 691.90848 191.6645 
z
" clip-path="url(#p26f25907cd)" style="fill: #3a7eb8"/>
   </g>
   <g id="patch_84">
    <path d="M 119.38899 54.63936 
C 120.447596 54.63936 121.462986 54.218771 122.211534 53.470224 
C 122.960081 52.721677 123.38067 51.706286 123.38067 50.64768 
C 123.38067 49.589074 122.960081 48.573683 122.211534 47.825136 
C 121.462986 47.076589 120.447596 46.656 119.38899 46.656 
C 118.330384 46.656 117.314993 47.076589 116.566446 47.825136 
C 115.817898 48.573683 115.39731 49.589074 115.39731 50.64768 
C 115.39731 51.706286 115.817898 52.721677 116.566446 53.470224 
C 117.314993 54.218771 118.330384 54.63936 119.38899 54.63936 
z
" clip-path="url(#p26f25907cd)" style="fill: #4d65ad"/>
   </g>
   <g id="patch_85">
    <path d="M 446.697301 257.17965 
C 450.931724 257.17965 454.993287 255.497296 457.987477 252.503106 
C 460.981666 249.508917 462.664021 245.447354 462.664021 241.21293 
C 462.664021 236.978507 460.981666 232.916944 457.987477 229.922754 
C 454.993287 226.928565 450.931724 225.24621 446.697301 225.24621 
C 442.462877 225.24621 438.401315 226.928565 435.407125 229.922754 
C 432.412935 232.916944 430.730581 236.978507 430.730581 241.21293 
C 430.730581 245.447354 432.412935 249.508917 435.407125 252.503106 
C 438.401315 255.497296 442.462877 257.17965 446.697301 257.17965 
z
" clip-path="url(#p26f25907cd)" style="fill: #a4daa4"/>
   </g>
   <g id="patch_86">
    <path d="M 295.252132 244.21855 
C 297.898647 244.21855 300.437124 243.167079 302.308492 241.29571 
C 304.179861 239.424342 305.231332 236.885865 305.231332 234.23935 
C 305.231332 231.592836 304.179861 229.054359 302.308492 227.18299 
C 300.437124 225.311622 297.898647 224.26015 295.252132 224.26015 
C 292.605618 224.26015 290.067141 225.311622 288.195772 227.18299 
C 286.324404 229.054359 285.272932 231.592836 285.272932 234.23935 
C 285.272932 236.885865 286.324404 239.424342 288.195772 241.29571 
C 290.067141 243.167079 292.605618 244.21855 295.252132 244.21855 
z
" clip-path="url(#p26f25907cd)" style="fill: #54aead"/>
   </g>
   <g id="matplotlib.axis_1">
    <g id="xtick_1">
     <g id="line2d_1">
      <defs>
       <path id="m0ea4f0a110" d="M 0 0 
L 0 3.5 
" style="stroke: #000000; stroke-width: 0.8"/>
      </defs>
      <g>
       <use xlink:href="#m0ea4f0a110" x="99.144" y="346.032" style="stroke: #000000; stroke-width: 0.8"/>
      </g>
     </g>
     <g id="text_1">
      <!-- 0 -->
      <g transform="translate(95.96275 360.630438) scale(0.1 -0.1)">
       <defs>
        <path id="DejaVuSans-30" d="M 2034 4250 
Q 1547 4250 1301 3770 
Q 1056 3291 1056 2328 
Q 1056 1369 1301 889 
Q 1547 409 2034 409 
Q 2525 409 2770 889 
Q 3016 1369 3016 2328 
Q 3016 3291 2770 3770 
Q 2525 4250 2034 4250 
z
M 2034 4750 
Q 2819 4750 3233 4129 
Q 3647 3509 3647 2328 
Q 3647 1150 3233 529 
Q 2819 -91 2034 -91 
Q 1250 -91 836 529 
Q 422 1150 422 2328 
Q 422 3509 836 4129 
Q 1250 4750 2034 4750 
z
" transform="scale(0.015625)"/>
       </defs>
       <use xlink:href="#DejaVuSans-30"/>
      </g>
     </g>
    </g>
    <g id="xtick_2">
     <g id="line2d_2">
      <g>
       <use xlink:href="#m0ea4f0a110" x="198.936" y="346.032" style="stroke: #000000; stroke-width: 0.8"/>
      </g>
     </g>
     <g id="text_2">
      <!-- 100 -->
      <g transform="translate(189.39225 360.630438) scale(0.1 -0.1)">
       <defs>
        <path id="DejaVuSans-31" d="M 794 531 
L 1825 531 
L 1825 4091 
L 703 3866 
L 703 4441 
L 1819 4666 
L 2450 4666 
L 2450 531 
L 3481 531 
L 3481 0 
L 794 0 
L 794 531 
z
" transform="scale(0.015625)"/>
       </defs>
       <use xlink:href="#DejaVuSans-31"/>
       <use xlink:href="#DejaVuSans-30" x="63.623047"/>
       <use xlink:href="#DejaVuSans-30" x="127.246094"/>
      </g>
     </g>
    </g>
    <g id="xtick_3">
     <g id="line2d_3">
      <g>
       <use xlink:href="#m0ea4f0a110" x="298.728" y="346.032" style="stroke: #000000; stroke-width: 0.8"/>
      </g>
     </g>
     <g id="text_3">
      <!-- 200 -->
      <g transform="translate(289.18425 360.630438) scale(0.1 -0.1)">
       <defs>
        <path id="DejaVuSans-32" d="M 1228 531 
L 3431 531 
L 3431 0 
L 469 0 
L 469 531 
Q 828 903 1448 1529 
Q 2069 2156 2228 2338 
Q 2531 2678 2651 2914 
Q 2772 3150 2772 3378 
Q 2772 3750 2511 3984 
Q 2250 4219 1831 4219 
Q 1534 4219 1204 4116 
Q 875 4013 500 3803 
L 500 4441 
Q 881 4594 1212 4672 
Q 1544 4750 1819 4750 
Q 2544 4750 2975 4387 
Q 3406 4025 3406 3419 
Q 3406 3131 3298 2873 
Q 3191 2616 2906 2266 
Q 2828 2175 2409 1742 
Q 1991 1309 1228 531 
z
" transform="scale(0.015625)"/>
       </defs>
       <use xlink:href="#DejaVuSans-32"/>
       <use xlink:href="#DejaVuSans-30" x="63.623047"/>
       <use xlink:href="#DejaVuSans-30" x="127.246094"/>
      </g>
     </g>
    </g>
    <g id="xtick_4">
     <g id="line2d_4">
      <g>
       <use xlink:href="#m0ea4f0a110" x="398.52" y="346.032" style="stroke: #000000; stroke-width: 0.8"/>
      </g>
     </g>
     <g id="text_4">
      <!-- 300 -->
      <g transform="translate(388.97625 360.630438) scale(0.1 -0.1)">
       <defs>
        <path id="DejaVuSans-33" d="M 2597 2516 
Q 3050 2419 3304 2112 
Q 3559 1806 3559 1356 
Q 3559 666 3084 287 
Q 2609 -91 1734 -91 
Q 1441 -91 1130 -33 
Q 819 25 488 141 
L 488 750 
Q 750 597 1062 519 
Q 1375 441 1716 441 
Q 2309 441 2620 675 
Q 2931 909 2931 1356 
Q 2931 1769 2642 2001 
Q 2353 2234 1838 2234 
L 1294 2234 
L 1294 2753 
L 1863 2753 
Q 2328 2753 2575 2939 
Q 2822 3125 2822 3475 
Q 2822 3834 2567 4026 
Q 2313 4219 1838 4219 
Q 1578 4219 1281 4162 
Q 984 4106 628 3988 
L 628 4550 
Q 988 4650 1302 4700 
Q 1616 4750 1894 4750 
Q 2613 4750 3031 4423 
Q 3450 4097 3450 3541 
Q 3450 3153 3228 2886 
Q 3006 2619 2597 2516 
z
" transform="scale(0.015625)"/>
       </defs>
       <use xlink:href="#DejaVuSans-33"/>
       <use xlink:href="#DejaVuSans-30" x="63.623047"/>
       <use xlink:href="#DejaVuSans-30" x="127.246094"/>
      </g>
     </g>
    </g>
    <g id="xtick_5">
     <g id="line2d_5">
      <g>
       <use xlink:href="#m0ea4f0a110" x="498.312" y="346.032" style="stroke: #000000; stroke-width: 0.8"/>
      </g>
     </g>
     <g id="text_5">
      <!-- 400 -->
      <g transform="translate(488.76825 360.630438) scale(0.1 -0.1)">
       <defs>
        <path id="DejaVuSans-34" d="M 2419 4116 
L 825 1625 
L 2419 1625 
L 2419 4116 
z
M 2253 4666 
L 3047 4666 
L 3047 1625 
L 3713 1625 
L 3713 1100 
L 3047 1100 
L 3047 0 
L 2419 0 
L 2419 1100 
L 313 1100 
L 313 1709 
L 2253 4666 
z
" transform="scale(0.015625)"/>
       </defs>
       <use xlink:href="#DejaVuSans-34"/>
       <use xlink:href="#DejaVuSans-30" x="63.623047"/>
       <use xlink:href="#DejaVuSans-30" x="127.246094"/>
      </g>
     </g>
    </g>
    <g id="xtick_6">
     <g id="line2d_6">
      <g>
       <use xlink:href="#m0ea4f0a110" x="598.104" y="346.032" style="stroke: #000000; stroke-width: 0.8"/>
      </g>
     </g>
     <g id="text_6">
      <!-- 500 -->
      <g transform="translate(588.56025 360.630438) scale(0.1 -0.1)">
       <defs>
        <path id="DejaVuSans-35" d="M 691 4666 
L 3169 4666 
L 3169 4134 
L 1269 4134 
L 1269 2991 
Q 1406 3038 1543 3061 
Q 1681 3084 1819 3084 
Q 2600 3084 3056 2656 
Q 3513 2228 3513 1497 
Q 3513 744 3044 326 
Q 2575 -91 1722 -91 
Q 1428 -91 1123 -41 
Q 819 9 494 109 
L 494 744 
Q 775 591 1075 516 
Q 1375 441 1709 441 
Q 2250 441 2565 725 
Q 2881 1009 2881 1497 
Q 2881 1984 2565 2268 
Q 2250 2553 1709 2553 
Q 1456 2553 1204 2497 
Q 953 2441 691 2322 
L 691 4666 
z
" transform="scale(0.015625)"/>
       </defs>
       <use xlink:href="#DejaVuSans-35"/>
       <use xlink:href="#DejaVuSans-30" x="63.623047"/>
       <use xlink:href="#DejaVuSans-30" x="127.246094"/>
      </g>
     </g>
    </g>
    <g id="xtick_7">
     <g id="line2d_7">
      <g>
       <use xlink:href="#m0ea4f0a110" x="697.896" y="346.032" style="stroke: #000000; stroke-width: 0.8"/>
      </g>
     </g>
     <g id="text_7">
      <!-- 600 -->
      <g transform="translate(688.35225 360.630438) scale(0.1 -0.1)">
       <defs>
        <path id="DejaVuSans-36" d="M 2113 2584 
Q 1688 2584 1439 2293 
Q 1191 2003 1191 1497 
Q 1191 994 1439 701 
Q 1688 409 2113 409 
Q 2538 409 2786 701 
Q 3034 994 3034 1497 
Q 3034 2003 2786 2293 
Q 2538 2584 2113 2584 
z
M 3366 4563 
L 3366 3988 
Q 3128 4100 2886 4159 
Q 2644 4219 2406 4219 
Q 1781 4219 1451 3797 
Q 1122 3375 1075 2522 
Q 1259 2794 1537 2939 
Q 1816 3084 2150 3084 
Q 2853 3084 3261 2657 
Q 3669 2231 3669 1497 
Q 3669 778 3244 343 
Q 2819 -91 2113 -91 
Q 1303 -91 875 529 
Q 447 1150 447 2328 
Q 447 3434 972 4092 
Q 1497 4750 2381 4750 
Q 2619 4750 2861 4703 
Q 3103 4656 3366 4563 
z
" transform="scale(0.015625)"/>
       </defs>
       <use xlink:href="#DejaVuSans-36"/>
       <use xlink:href="#DejaVuSans-30" x="63.623047"/>
       <use xlink:href="#DejaVuSans-30" x="127.246094"/>
      </g>
     </g>
    </g>
   </g>
   <g id="matplotlib.axis_2">
    <g id="ytick_1">
     <g id="line2d_8">
      <defs>
       <path id="m9f22645502" d="M 0 0 
L -3.5 0 
" style="stroke: #000000; stroke-width: 0.8"/>
      </defs>
      <g>
       <use xlink:href="#m9f22645502" x="99.144" y="346.032" style="stroke: #000000; stroke-width: 0.8"/>
      </g>
     </g>
     <g id="text_8">
      <!-- 0 -->
      <g transform="translate(85.7815 349.831219) scale(0.1 -0.1)">
       <use xlink:href="#DejaVuSans-30"/>
      </g>
     </g>
    </g>
    <g id="ytick_2">
     <g id="line2d_9">
      <g>
       <use xlink:href="#m9f22645502" x="99.144" y="296.136" style="stroke: #000000; stroke-width: 0.8"/>
      </g>
     </g>
     <g id="text_9">
      <!-- 50 -->
      <g transform="translate(79.419 299.935219) scale(0.1 -0.1)">
       <use xlink:href="#DejaVuSans-35"/>
       <use xlink:href="#DejaVuSans-30" x="63.623047"/>
      </g>
     </g>
    </g>
    <g id="ytick_3">
     <g id="line2d_10">
      <g>
       <use xlink:href="#m9f22645502" x="99.144" y="246.24" style="stroke: #000000; stroke-width: 0.8"/>
      </g>
     </g>
     <g id="text_10">
      <!-- 100 -->
      <g transform="translate(73.0565 250.039219) scale(0.1 -0.1)">
       <use xlink:href="#DejaVuSans-31"/>
       <use xlink:href="#DejaVuSans-30" x="63.623047"/>
       <use xlink:href="#DejaVuSans-30" x="127.246094"/>
      </g>
     </g>
    </g>
    <g id="ytick_4">
     <g id="line2d_11">
      <g>
       <use xlink:href="#m9f22645502" x="99.144" y="196.344" style="stroke: #000000; stroke-width: 0.8"/>
      </g>
     </g>
     <g id="text_11">
      <!-- 150 -->
      <g transform="translate(73.0565 200.143219) scale(0.1 -0.1)">
       <use xlink:href="#DejaVuSans-31"/>
       <use xlink:href="#DejaVuSans-35" x="63.623047"/>
       <use xlink:href="#DejaVuSans-30" x="127.246094"/>
      </g>
     </g>
    </g>
    <g id="ytick_5">
     <g id="line2d_12">
      <g>
       <use xlink:href="#m9f22645502" x="99.144" y="146.448" style="stroke: #000000; stroke-width: 0.8"/>
      </g>
     </g>
     <g id="text_12">
      <!-- 200 -->
      <g transform="translate(73.0565 150.247219) scale(0.1 -0.1)">
       <use xlink:href="#DejaVuSans-32"/>
       <use xlink:href="#DejaVuSans-30" x="63.623047"/>
       <use xlink:href="#DejaVuSans-30" x="127.246094"/>
      </g>
     </g>
    </g>
    <g id="ytick_6">
     <g id="line2d_13">
      <g>
       <use xlink:href="#m9f22645502" x="99.144" y="96.552" style="stroke: #000000; stroke-width: 0.8"/>
      </g>
     </g>
     <g id="text_13">
      <!-- 250 -->
      <g transform="translate(73.0565 100.351219) scale(0.1 -0.1)">
       <use xlink:href="#DejaVuSans-32"/>
       <use xlink:href="#DejaVuSans-35" x="63.623047"/>
       <use xlink:href="#DejaVuSans-30" x="127.246094"/>
      </g>
     </g>
    </g>
    <g id="ytick_7">
     <g id="line2d_14">
      <g>
       <use xlink:href="#m9f22645502" x="99.144" y="46.656" style="stroke: #000000; stroke-width: 0.8"/>
      </g>
     </g>
     <g id="text_14">
      <!-- 300 -->
      <g transform="translate(73.0565 50.455219) scale(0.1 -0.1)">
       <use xlink:href="#DejaVuSans-33"/>
       <use xlink:href="#DejaVuSans-30" x="63.623047"/>
       <use xlink:href="#DejaVuSans-30" x="127.246094"/>
      </g>
     </g>
    </g>
   </g>
   <g id="patch_87">
    <path d="M 99.144 346.032 
L 99.144 46.656 
" style="fill: none; stroke: #000000; stroke-width: 0.8; stroke-linejoin: miter; stroke-linecap: square"/>
   </g>
   <g id="patch_88">
    <path d="M 697.896 346.032 
L 697.896 46.656 
" style="fill: none; stroke: #000000; stroke-width: 0.8; stroke-linejoin: miter; stroke-linecap: square"/>
   </g>
   <g id="patch_89">
    <path d="M 99.144 346.032 
L 697.896 346.032 
" style="fill: none; stroke: #000000; stroke-width: 0.8; stroke-linejoin: miter; stroke-linecap: square"/>
   </g>
   <g id="patch_90">
    <path d="M 99.144 46.656 
L 697.896 46.656 
" style="fill: none; stroke: #000000; stroke-width: 0.8; stroke-linejoin: miter; stroke-linecap: square"/>
   </g>
   <g id="text_15">
    <!-- PalmenWald, b=0.8171685, a=0.8733628, d=0.9356576 -->
    <g transform="translate(226.626562 40.656) scale(0.12 -0.12)">
     <defs>
      <path id="DejaVuSans-50" d="M 1259 4147 
L 1259 2394 
L 2053 2394 
Q 2494 2394 2734 2622 
Q 2975 2850 2975 3272 
Q 2975 3691 2734 3919 
Q 2494 4147 2053 4147 
L 1259 4147 
z
M 628 4666 
L 2053 4666 
Q 2838 4666 3239 4311 
Q 3641 3956 3641 3272 
Q 3641 2581 3239 2228 
Q 2838 1875 2053 1875 
L 1259 1875 
L 1259 0 
L 628 0 
L 628 4666 
z
" transform="scale(0.015625)"/>
      <path id="DejaVuSans-61" d="M 2194 1759 
Q 1497 1759 1228 1600 
Q 959 1441 959 1056 
Q 959 750 1161 570 
Q 1363 391 1709 391 
Q 2188 391 2477 730 
Q 2766 1069 2766 1631 
L 2766 1759 
L 2194 1759 
z
M 3341 1997 
L 3341 0 
L 2766 0 
L 2766 531 
Q 2569 213 2275 61 
Q 1981 -91 1556 -91 
Q 1019 -91 701 211 
Q 384 513 384 1019 
Q 384 1609 779 1909 
Q 1175 2209 1959 2209 
L 2766 2209 
L 2766 2266 
Q 2766 2663 2505 2880 
Q 2244 3097 1772 3097 
Q 1472 3097 1187 3025 
Q 903 2953 641 2809 
L 641 3341 
Q 956 3463 1253 3523 
Q 1550 3584 1831 3584 
Q 2591 3584 2966 3190 
Q 3341 2797 3341 1997 
z
" transform="scale(0.015625)"/>
      <path id="DejaVuSans-6c" d="M 603 4863 
L 1178 4863 
L 1178 0 
L 603 0 
L 603 4863 
z
" transform="scale(0.015625)"/>
      <path id="DejaVuSans-6d" d="M 3328 2828 
Q 3544 3216 3844 3400 
Q 4144 3584 4550 3584 
Q 5097 3584 5394 3201 
Q 5691 2819 5691 2113 
L 5691 0 
L 5113 0 
L 5113 2094 
Q 5113 2597 4934 2840 
Q 4756 3084 4391 3084 
Q 3944 3084 3684 2787 
Q 3425 2491 3425 1978 
L 3425 0 
L 2847 0 
L 2847 2094 
Q 2847 2600 2669 2842 
Q 2491 3084 2119 3084 
Q 1678 3084 1418 2786 
Q 1159 2488 1159 1978 
L 1159 0 
L 581 0 
L 581 3500 
L 1159 3500 
L 1159 2956 
Q 1356 3278 1631 3431 
Q 1906 3584 2284 3584 
Q 2666 3584 2933 3390 
Q 3200 3197 3328 2828 
z
" transform="scale(0.015625)"/>
      <path id="DejaVuSans-65" d="M 3597 1894 
L 3597 1613 
L 953 1613 
Q 991 1019 1311 708 
Q 1631 397 2203 397 
Q 2534 397 2845 478 
Q 3156 559 3463 722 
L 3463 178 
Q 3153 47 2828 -22 
Q 2503 -91 2169 -91 
Q 1331 -91 842 396 
Q 353 884 353 1716 
Q 353 2575 817 3079 
Q 1281 3584 2069 3584 
Q 2775 3584 3186 3129 
Q 3597 2675 3597 1894 
z
M 3022 2063 
Q 3016 2534 2758 2815 
Q 2500 3097 2075 3097 
Q 1594 3097 1305 2825 
Q 1016 2553 972 2059 
L 3022 2063 
z
" transform="scale(0.015625)"/>
      <path id="DejaVuSans-6e" d="M 3513 2113 
L 3513 0 
L 2938 0 
L 2938 2094 
Q 2938 2591 2744 2837 
Q 2550 3084 2163 3084 
Q 1697 3084 1428 2787 
Q 1159 2491 1159 1978 
L 1159 0 
L 581 0 
L 581 3500 
L 1159 3500 
L 1159 2956 
Q 1366 3272 1645 3428 
Q 1925 3584 2291 3584 
Q 2894 3584 3203 3211 
Q 3513 2838 3513 2113 
z
" transform="scale(0.015625)"/>
      <path id="DejaVuSans-57" d="M 213 4666 
L 850 4666 
L 1831 722 
L 2809 4666 
L 3519 4666 
L 4500 722 
L 5478 4666 
L 6119 4666 
L 4947 0 
L 4153 0 
L 3169 4050 
L 2175 0 
L 1381 0 
L 213 4666 
z
" transform="scale(0.015625)"/>
      <path id="DejaVuSans-64" d="M 2906 2969 
L 2906 4863 
L 3481 4863 
L 3481 0 
L 2906 0 
L 2906 525 
Q 2725 213 2448 61 
Q 2172 -91 1784 -91 
Q 1150 -91 751 415 
Q 353 922 353 1747 
Q 353 2572 751 3078 
Q 1150 3584 1784 3584 
Q 2172 3584 2448 3432 
Q 2725 3281 2906 2969 
z
M 947 1747 
Q 947 1113 1208 752 
Q 1469 391 1925 391 
Q 2381 391 2643 752 
Q 2906 1113 2906 1747 
Q 2906 2381 2643 2742 
Q 2381 3103 1925 3103 
Q 1469 3103 1208 2742 
Q 947 2381 947 1747 
z
" transform="scale(0.015625)"/>
      <path id="DejaVuSans-2c" d="M 750 794 
L 1409 794 
L 1409 256 
L 897 -744 
L 494 -744 
L 750 256 
L 750 794 
z
" transform="scale(0.015625)"/>
      <path id="DejaVuSans-20" transform="scale(0.015625)"/>
      <path id="DejaVuSans-62" d="M 3116 1747 
Q 3116 2381 2855 2742 
Q 2594 3103 2138 3103 
Q 1681 3103 1420 2742 
Q 1159 2381 1159 1747 
Q 1159 1113 1420 752 
Q 1681 391 2138 391 
Q 2594 391 2855 752 
Q 3116 1113 3116 1747 
z
M 1159 2969 
Q 1341 3281 1617 3432 
Q 1894 3584 2278 3584 
Q 2916 3584 3314 3078 
Q 3713 2572 3713 1747 
Q 3713 922 3314 415 
Q 2916 -91 2278 -91 
Q 1894 -91 1617 61 
Q 1341 213 1159 525 
L 1159 0 
L 581 0 
L 581 4863 
L 1159 4863 
L 1159 2969 
z
" transform="scale(0.015625)"/>
      <path id="DejaVuSans-3d" d="M 678 2906 
L 4684 2906 
L 4684 2381 
L 678 2381 
L 678 2906 
z
M 678 1631 
L 4684 1631 
L 4684 1100 
L 678 1100 
L 678 1631 
z
" transform="scale(0.015625)"/>
      <path id="DejaVuSans-2e" d="M 684 794 
L 1344 794 
L 1344 0 
L 684 0 
L 684 794 
z
" transform="scale(0.015625)"/>
      <path id="DejaVuSans-38" d="M 2034 2216 
Q 1584 2216 1326 1975 
Q 1069 1734 1069 1313 
Q 1069 891 1326 650 
Q 1584 409 2034 409 
Q 2484 409 2743 651 
Q 3003 894 3003 1313 
Q 3003 1734 2745 1975 
Q 2488 2216 2034 2216 
z
M 1403 2484 
Q 997 2584 770 2862 
Q 544 3141 544 3541 
Q 544 4100 942 4425 
Q 1341 4750 2034 4750 
Q 2731 4750 3128 4425 
Q 3525 4100 3525 3541 
Q 3525 3141 3298 2862 
Q 3072 2584 2669 2484 
Q 3125 2378 3379 2068 
Q 3634 1759 3634 1313 
Q 3634 634 3220 271 
Q 2806 -91 2034 -91 
Q 1263 -91 848 271 
Q 434 634 434 1313 
Q 434 1759 690 2068 
Q 947 2378 1403 2484 
z
M 1172 3481 
Q 1172 3119 1398 2916 
Q 1625 2713 2034 2713 
Q 2441 2713 2670 2916 
Q 2900 3119 2900 3481 
Q 2900 3844 2670 4047 
Q 2441 4250 2034 4250 
Q 1625 4250 1398 4047 
Q 1172 3844 1172 3481 
z
" transform="scale(0.015625)"/>
      <path id="DejaVuSans-37" d="M 525 4666 
L 3525 4666 
L 3525 4397 
L 1831 0 
L 1172 0 
L 2766 4134 
L 525 4134 
L 525 4666 
z
" transform="scale(0.015625)"/>
      <path id="DejaVuSans-39" d="M 703 97 
L 703 672 
Q 941 559 1184 500 
Q 1428 441 1663 441 
Q 2288 441 2617 861 
Q 2947 1281 2994 2138 
Q 2813 1869 2534 1725 
Q 2256 1581 1919 1581 
Q 1219 1581 811 2004 
Q 403 2428 403 3163 
Q 403 3881 828 4315 
Q 1253 4750 1959 4750 
Q 2769 4750 3195 4129 
Q 3622 3509 3622 2328 
Q 3622 1225 3098 567 
Q 2575 -91 1691 -91 
Q 1453 -91 1209 -44 
Q 966 3 703 97 
z
M 1959 2075 
Q 2384 2075 2632 2365 
Q 2881 2656 2881 3163 
Q 2881 3666 2632 3958 
Q 2384 4250 1959 4250 
Q 1534 4250 1286 3958 
Q 1038 3666 1038 3163 
Q 1038 2656 1286 2365 
Q 1534 2075 1959 2075 
z
" transform="scale(0.015625)"/>
     </defs>
     <use xlink:href="#DejaVuSans-50"/>
     <use xlink:href="#DejaVuSans-61" x="55.802734"/>
     <use xlink:href="#DejaVuSans-6c" x="117.082031"/>
     <use xlink:href="#DejaVuSans-6d" x="144.865234"/>
     <use xlink:href="#DejaVuSans-65" x="242.277344"/>
     <use xlink:href="#DejaVuSans-6e" x="303.800781"/>
     <use xlink:href="#DejaVuSans-57" x="367.179688"/>
     <use xlink:href="#DejaVuSans-61" x="459.681641"/>
     <use xlink:href="#DejaVuSans-6c" x="520.960938"/>
     <use xlink:href="#DejaVuSans-64" x="548.744141"/>
     <use xlink:href="#DejaVuSans-2c" x="612.220703"/>
     <use xlink:href="#DejaVuSans-20" x="644.007812"/>
     <use xlink:href="#DejaVuSans-62" x="675.794922"/>
     <use xlink:href="#DejaVuSans-3d" x="739.271484"/>
     <use xlink:href="#DejaVuSans-30" x="823.060547"/>
     <use xlink:href="#DejaVuSans-2e" x="886.683594"/>
     <use xlink:href="#DejaVuSans-38" x="918.470703"/>
     <use xlink:href="#DejaVuSans-31" x="982.09375"/>
     <use xlink:href="#DejaVuSans-37" x="1045.716797"/>
     <use xlink:href="#DejaVuSans-31" x="1109.339844"/>
     <use xlink:href="#DejaVuSans-36" x="1172.962891"/>
     <use xlink:href="#DejaVuSans-38" x="1236.585938"/>
     <use xlink:href="#DejaVuSans-35" x="1300.208984"/>
     <use xlink:href="#DejaVuSans-2c" x="1363.832031"/>
     <use xlink:href="#DejaVuSans-20" x="1395.619141"/>
     <use xlink:href="#DejaVuSans-61" x="1427.40625"/>
     <use xlink:href="#DejaVuSans-3d" x="1488.685547"/>
     <use xlink:href="#DejaVuSans-30" x="1572.474609"/>
     <use xlink:href="#DejaVuSans-2e" x="1636.097656"/>
     <use xlink:href="#DejaVuSans-38" x="1667.884766"/>
     <use xlink:href="#DejaVuSans-37" x="1731.507812"/>
     <use xlink:href="#DejaVuSans-33" x="1795.130859"/>
     <use xlink:href="#DejaVuSans-33" x="1858.753906"/>
     <use xlink:href="#DejaVuSans-36" x="1922.376953"/>
     <use xlink:href="#DejaVuSans-32" x="1986"/>
     <use xlink:href="#DejaVuSans-38" x="2049.623047"/>
     <use xlink:href="#DejaVuSans-2c" x="2113.246094"/>
     <use xlink:href="#DejaVuSans-20" x="2145.033203"/>
     <use xlink:href="#DejaVuSans-64" x="2176.820312"/>
     <use xlink:href="#DejaVuSans-3d" x="2240.296875"/>
     <use xlink:href="#DejaVuSans-30" x="2324.085938"/>
     <use xlink:href="#DejaVuSans-2e" x="2387.708984"/>
     <use xlink:href="#DejaVuSans-39" x="2419.496094"/>
     <use xlink:href="#DejaVuSans-33" x="2483.119141"/>
     <use xlink:href="#DejaVuSans-35" x="2546.742188"/>
     <use xlink:href="#DejaVuSans-36" x="2610.365234"/>
     <use xlink:href="#DejaVuSans-35" x="2673.988281"/>
     <use xlink:href="#DejaVuSans-37" x="2737.611328"/>
     <use xlink:href="#DejaVuSans-36" x="2801.234375"/>
    </g>
   </g>
  </g>
 </g>
 <defs>
  <clipPath id="p26f25907cd">
   <rect x="99.144" y="46.656" width="598.752" height="299.376"/>
  </clipPath>
 </defs>
</svg>
