<svg xmlns="http://www.w3.org/2000/svg" xmlns:xlink="http://www.w3.org/1999/xlink" width="1728" height="1728" viewBox="0 0 1296 1296"><defs><style>*{stroke-linejoin:round;stroke-linecap:butt}</style></defs><g id="figure_1"><path id="patch_1" d="M0 1296h1296V0H0z" style="fill:#fff"/><g id="axes_1"><path id="patch_2" d="M165.24 1153.44h997.92V155.52H165.24z" style="fill:#fff"/><path id="patch_3" d="M1063.368 355.104a99.797 99.797 0 0 0 70.564-29.228 99.797 99.797 0 0 0 29.228-70.564 99.797 99.797 0 0 0-29.228-70.564 99.797 99.797 0 0 0-70.564-29.228 99.797 99.797 0 0 0-70.564 29.228 99.797 99.797 0 0 0-29.228 70.564 99.797 99.797 0 0 0 29.228 70.564 99.797 99.797 0 0 0 70.564 29.228z" clip-path="url(#p54c008131e)" style="fill:#5e4fa2"/><path id="patch_4" d="M863.784 355.104a99.797 99.797 0 0 0 70.564-29.228 99.797 99.797 0 0 0 29.228-70.564 99.797 99.797 0 0 0-29.228-70.564 99.797 99.797 0 0 0-70.564-29.228 99.797 99.797 0 0 0-70.564 29.228 99.797 99.797 0 0 0-29.228 70.564 99.797 99.797 0 0 0 29.228 70.564 99.797 99.797 0 0 0 70.564 29.228z" clip-path="url(#p54c008131e)" style="fill:#5e4fa2"/><path id="patch_5" d="M264.034 353.108c26.2 0 51.331-10.41 69.858-28.936a98.799 98.799 0 0 0 28.936-69.858c0-26.2-10.41-51.331-28.936-69.858a98.799 98.799 0 0 0-69.858-28.936 98.799 98.799 0 0 0-69.858 28.936 98.799 98.799 0 0 0-28.936 69.858c0 26.2 10.41 51.331 28.936 69.858a98.799 98.799 0 0 0 69.858 28.936z" clip-path="url(#p54c008131e)" style="fill:#5b53a4"/><path id="patch_6" d="M1065.364 1153.44a97.8 97.8 0 0 0 69.152-28.644 97.8 97.8 0 0 0 28.644-69.152 97.8 97.8 0 0 0-28.644-69.152 97.8 97.8 0 0 0-69.152-28.644 97.8 97.8 0 0 0-69.152 28.644 97.8 97.8 0 0 0-28.644 69.152 97.8 97.8 0 0 0 28.644 69.152 97.8 97.8 0 0 0 69.152 28.644z" clip-path="url(#p54c008131e)" style="fill:#555aa7"/><path id="patch_7" d="M262.038 1153.44a96.803 96.803 0 0 0 68.447-28.352 96.803 96.803 0 0 0 28.351-68.446 96.803 96.803 0 0 0-28.351-68.447 96.803 96.803 0 0 0-68.447-28.351 96.803 96.803 0 0 0-68.446 28.351 96.803 96.803 0 0 0-28.352 68.447 96.803 96.803 0 0 0 28.352 68.446 96.803 96.803 0 0 0 68.446 28.352z" clip-path="url(#p54c008131e)" style="fill:#525fa9"/><path id="patch_8" d="M668.232 347.12a95.805 95.805 0 0 0 67.741-28.059 95.805 95.805 0 0 0 28.06-67.74 95.805 95.805 0 0 0-28.06-67.742 95.805 95.805 0 0 0-67.74-28.059 95.805 95.805 0 0 0-67.742 28.06 95.805 95.805 0 0 0-28.059 67.74 95.805 95.805 0 0 0 28.06 67.741 95.805 95.805 0 0 0 67.74 28.06z" clip-path="url(#p54c008131e)" style="fill:#4d65ad"/><path id="patch_9" d="M457.59 345.125a94.807 94.807 0 0 0 67.035-27.767 94.807 94.807 0 0 0 27.767-67.036 94.807 94.807 0 0 0-27.767-67.035 94.807 94.807 0 0 0-67.036-27.767 94.807 94.807 0 0 0-67.035 27.767 94.807 94.807 0 0 0-27.767 67.035 94.807 94.807 0 0 0 27.767 67.036 94.807 94.807 0 0 0 67.035 27.767z" clip-path="url(#p54c008131e)" style="fill:#496aaf"/><path id="patch_10" d="M1069.356 957.89a93.809 93.809 0 0 0 66.33-27.475 93.809 93.809 0 0 0 27.474-66.33 93.809 93.809 0 0 0-27.475-66.33 93.809 93.809 0 0 0-66.33-27.475 93.809 93.809 0 0 0-66.33 27.475 93.809 93.809 0 0 0-27.474 66.33 93.809 93.809 0 0 0 27.475 66.33 93.809 93.809 0 0 0 66.33 27.474z" clip-path="url(#p54c008131e)" style="fill:#4471b2"/><path id="patch_11" d="M258.047 538.628a92.81 92.81 0 0 0 65.624-27.183 92.81 92.81 0 0 0 27.182-65.624 92.81 92.81 0 0 0-27.182-65.624 92.81 92.81 0 0 0-65.624-27.182 92.81 92.81 0 0 0-65.625 27.182 92.81 92.81 0 0 0-27.182 65.624 92.81 92.81 0 0 0 27.182 65.624 92.81 92.81 0 0 0 65.625 27.183z" clip-path="url(#p54c008131e)" style="fill:#3f77b5"/><path id="patch_12" d="M257.049 959.91a91.813 91.813 0 0 0 64.918-26.89 91.813 91.813 0 0 0 26.89-64.92 91.813 91.813 0 0 0-26.89-64.918 91.813 91.813 0 0 0-64.918-26.89 91.813 91.813 0 0 0-64.919 26.89 91.813 91.813 0 0 0-26.89 64.919 91.813 91.813 0 0 0 26.89 64.918 91.813 91.813 0 0 0 64.919 26.89z" clip-path="url(#p54c008131e)" style="fill:#3b7cb7"/><path id="patch_13" d="M256.05 720.238a90.815 90.815 0 0 0 90.811-90.81 90.815 90.815 0 0 0-90.81-90.811 90.815 90.815 0 0 0-90.811 90.81 90.815 90.815 0 0 0 90.81 90.811z" clip-path="url(#p54c008131e)" style="fill:#3682ba"/><path id="patch_14" d="M1073.347 770.324a89.817 89.817 0 0 0 89.813-89.813 89.817 89.817 0 0 0-89.813-89.813 89.817 89.817 0 0 0-89.813 89.813 89.817 89.817 0 0 0 89.813 89.813z" clip-path="url(#p54c008131e)" style="fill:#3387bc"/><path id="patch_15" d="M447.48 1153.44a88.819 88.819 0 0 0 88.814-88.815 88.819 88.819 0 0 0-88.814-88.815 88.819 88.819 0 0 0-88.815 88.815 88.819 88.819 0 0 0 88.815 88.815z" clip-path="url(#p54c008131e)" style="fill:#378ebb"/><path id="patch_16" d="M1075.343 590.71a87.821 87.821 0 0 0 87.817-87.818 87.821 87.821 0 0 0-87.817-87.817 87.821 87.821 0 0 0-87.817 87.817 87.821 87.821 0 0 0 87.817 87.817z" clip-path="url(#p54c008131e)" style="fill:#3d95b8"/><path id="patch_17" d="M623.102 1153.44a86.823 86.823 0 0 0 86.82-86.819 86.823 86.823 0 0 0-86.82-86.82 86.823 86.823 0 0 0-86.819 86.82 86.823 86.823 0 0 0 86.82 86.819z" clip-path="url(#p54c008131e)" style="fill:#4199b6"/><path id="patch_18" d="M882.137 1153.44a85.825 85.825 0 0 0 85.822-85.821 85.825 85.825 0 0 0-85.822-85.821 85.825 85.825 0 0 0-85.82 85.82 85.825 85.825 0 0 0 85.82 85.822z" clip-path="url(#p54c008131e)" style="fill:#47a0b3"/><path id="patch_19" d="M963.576 460.124a68.86 68.86 0 0 0 68.856-68.857 68.86 68.86 0 0 0-68.856-68.856 68.86 68.86 0 0 0-68.856 68.856 68.86 68.86 0 0 0 68.856 68.857z" clip-path="url(#p54c008131e)" style="fill:#b3e0a2"/><path id="patch_20" d="M195.178 763.647a29.939 29.939 0 0 0 21.169-51.107 29.939 29.939 0 0 0-51.107 21.169 29.939 29.939 0 0 0 29.938 29.938z" clip-path="url(#p54c008131e)" style="fill:#fca85e"/><path id="patch_21" d="M562.347 213.4a28.941 28.941 0 0 0 20.464-49.404 28.941 28.941 0 0 0-49.403 20.464 28.941 28.941 0 0 0 28.94 28.94z" clip-path="url(#p54c008131e)" style="fill:#fba35c"/><path id="patch_22" d="M251.244 776.024a27.943 27.943 0 0 0 19.758-47.7 27.943 27.943 0 0 0-47.7 19.759 27.943 27.943 0 0 0 27.942 27.941z" clip-path="url(#p54c008131e)" style="fill:#fa9b58"/><path id="patch_23" d="M1058.924 408.914a26.945 26.945 0 0 0 19.052-45.996 26.945 26.945 0 0 0-45.996 19.052 26.945 26.945 0 0 0 26.944 26.944z" clip-path="url(#p54c008131e)" style="fill:#fa9656"/><path id="patch_24" d="M303.758 761.939a25.947 25.947 0 0 0 0-51.892 25.947 25.947 0 0 0 0 51.892z" clip-path="url(#p54c008131e)" style="fill:#f98e52"/><path id="patch_25" d="M963.576 205.416a24.95 24.95 0 0 0 0-49.896 24.95 24.95 0 0 0 0 49.896z" clip-path="url(#p54c008131e)" style="fill:#f88950"/><path id="patch_26" d="M362.29 203.42a23.951 23.951 0 1 0-.002-47.902 23.951 23.951 0 0 0 .001 47.902z" clip-path="url(#p54c008131e)" style="fill:#f7814c"/><path id="patch_27" d="M188.192 376.467a22.953 22.953 0 1 0 0-45.906 22.953 22.953 0 0 0 0 45.906z" clip-path="url(#p54c008131e)" style="fill:#f67a49"/><path id="patch_28" d="M903.349 864.27a99.797 99.797 0 0 0 70.564-29.228 99.797 99.797 0 0 0 29.228-70.563 99.797 99.797 0 0 0-29.228-70.564 99.797 99.797 0 0 0-70.564-29.228 99.797 99.797 0 0 0-70.564 29.228 99.797 99.797 0 0 0-29.228 70.564 99.797 99.797 0 0 0 29.228 70.563 99.797 99.797 0 0 0 70.564 29.229z" clip-path="url(#p54c008131e)" style="fill:#5e4fa2"/><path id="patch_29" d="M361 587.164a46.904 46.904 0 0 0 46.902-46.902A46.904 46.904 0 0 0 361 493.36a46.904 46.904 0 0 0-46.902 46.902A46.904 46.904 0 0 0 361 587.164z" clip-path="url(#p54c008131e)" style="fill:#fff3ac"/><path id="patch_30" d="M365.915 402.97a45.906 45.906 0 0 0 45.904-45.904 45.906 45.906 0 0 0-45.904-45.904 45.906 45.906 0 0 0-45.904 45.904 45.906 45.906 0 0 0 45.904 45.904z" clip-path="url(#p54c008131e)" style="fill:#fff1a8"/><path id="patch_31" d="M972.692 1153.44a21.955 21.955 0 1 0-.001-43.91 21.955 21.955 0 0 0 0 43.91z" clip-path="url(#p54c008131e)" style="fill:#f57547"/><path id="patch_32" d="M537.793 1153.44a20.957 20.957 0 1 0 0-41.915 20.957 20.957 0 0 0 0 41.915z" clip-path="url(#p54c008131e)" style="fill:#f46d43"/><path id="patch_33" d="M185.198 551.856a19.96 19.96 0 1 0 0-39.92 19.96 19.96 0 0 0 0 39.92z" clip-path="url(#p54c008131e)" style="fill:#f26944"/><path id="patch_34" d="M184.2 800.32a18.961 18.961 0 1 0 0-37.923 18.961 18.961 0 0 0 0 37.923z" clip-path="url(#p54c008131e)" style="fill:#ee6445"/><path id="patch_35" d="M1145.197 799.95a17.963 17.963 0 1 0 0-35.926 17.963 17.963 0 0 0 0 35.927z" clip-path="url(#p54c008131e)" style="fill:#ea5e47"/><path id="patch_36" d="M483.428 542.986a99.797 99.797 0 0 0 70.564-29.229 99.797 99.797 0 0 0 29.228-70.563 99.797 99.797 0 0 0-29.228-70.564 99.797 99.797 0 0 0-70.564-29.228 99.797 99.797 0 0 0-70.563 29.228 99.797 99.797 0 0 0-29.229 70.564 99.797 99.797 0 0 0 29.229 70.563 99.797 99.797 0 0 0 70.563 29.229z" clip-path="url(#p54c008131e)" style="fill:#5e4fa2"/><path id="patch_37" d="M539.282 999.806c26.2 0 51.332-10.41 69.858-28.936a98.799 98.799 0 0 0 28.936-69.858c0-26.2-10.41-51.332-28.936-69.858a98.799 98.799 0 0 0-69.858-28.936 98.799 98.799 0 0 0-69.858 28.936 98.799 98.799 0 0 0-28.936 69.858c0 26.2 10.41 51.331 28.936 69.858a98.799 98.799 0 0 0 69.858 28.936z" clip-path="url(#p54c008131e)" style="fill:#5b53a4"/><path id="patch_38" d="M805.525 541.912a97.8 97.8 0 0 0 69.152-28.644 97.8 97.8 0 0 0 28.644-69.152 97.8 97.8 0 0 0-28.644-69.152 97.8 97.8 0 0 0-69.152-28.644 97.8 97.8 0 0 0-69.152 28.644 97.8 97.8 0 0 0-28.644 69.152 97.8 97.8 0 0 0 28.644 69.152 97.8 97.8 0 0 0 69.152 28.644z" clip-path="url(#p54c008131e)" style="fill:#555aa7"/><path id="patch_39" d="M1146.195 189.45a16.965 16.965 0 1 0 0-33.932 16.965 16.965 0 0 0 0 33.931z" clip-path="url(#p54c008131e)" style="fill:#e85b48"/><path id="patch_40" d="M1147.193 1153.44a15.967 15.967 0 1 0 0-31.935 15.967 15.967 0 0 0 0 31.935z" clip-path="url(#p54c008131e)" style="fill:#e45549"/><path id="patch_41" d="M180.209 185.458a14.97 14.97 0 1 0 0-29.94 14.97 14.97 0 0 0 0 29.94z" clip-path="url(#p54c008131e)" style="fill:#e2514a"/><path id="patch_42" d="M443.982 761.022a99.797 99.797 0 0 0 70.563-29.228 99.797 99.797 0 0 0 29.229-70.564 99.797 99.797 0 0 0-29.229-70.563 99.797 99.797 0 0 0-70.563-29.229 99.797 99.797 0 0 0-70.564 29.229 99.797 99.797 0 0 0-29.228 70.563 99.797 99.797 0 0 0 29.228 70.564 99.797 99.797 0 0 0 70.564 29.228z" clip-path="url(#p54c008131e)" style="fill:#5e4fa2"/><path id="patch_43" d="M933.37 666.083a77.841 77.841 0 0 0 77.837-77.838 77.841 77.841 0 0 0-77.837-77.838 77.841 77.841 0 0 0-77.838 77.838 77.841 77.841 0 0 0 77.838 77.838z" clip-path="url(#p54c008131e)" style="fill:#74c7a5"/><path id="patch_44" d="M536.791 1027.72a13.972 13.972 0 1 0 0-27.943 13.972 13.972 0 0 0 0 27.943z" clip-path="url(#p54c008131e)" style="fill:#de4c4b"/><path id="patch_45" d="M1150.187 764.43a12.974 12.974 0 1 0 0-25.947 12.974 12.974 0 0 0 0 25.948z" clip-path="url(#p54c008131e)" style="fill:#dc484c"/><path id="patch_46" d="M524.977 179.47a11.976 11.976 0 1 0 0-23.951 11.976 11.976 0 0 0 0 23.951z" clip-path="url(#p54c008131e)" style="fill:#d8434e"/><path id="patch_47" d="M737.066 1018.643a99.797 99.797 0 0 0 70.563-29.229 99.797 99.797 0 0 0 29.229-70.563 99.797 99.797 0 0 0-29.229-70.564 99.797 99.797 0 0 0-70.563-29.228 99.797 99.797 0 0 0-70.564 29.228 99.797 99.797 0 0 0-29.228 70.564 99.797 99.797 0 0 0 29.228 70.563 99.797 99.797 0 0 0 70.564 29.229z" clip-path="url(#p54c008131e)" style="fill:#5e4fa2"/><path id="patch_48" d="M652.58 837.927c26.2 0 51.331-10.41 69.858-28.936a98.799 98.799 0 0 0 28.936-69.858c0-26.2-10.41-51.332-28.936-69.858a98.799 98.799 0 0 0-69.858-28.936 98.799 98.799 0 0 0-69.858 28.936 98.799 98.799 0 0 0-28.936 69.858c0 26.2 10.41 51.331 28.936 69.858a98.799 98.799 0 0 0 69.858 28.936z" clip-path="url(#p54c008131e)" style="fill:#5b53a4"/><path id="patch_49" d="M389.042 988.229a54.888 54.888 0 0 0 54.886-54.886 54.888 54.888 0 0 0-54.886-54.885 54.888 54.888 0 0 0-54.885 54.885 54.888 54.888 0 0 0 54.885 54.886z" clip-path="url(#p54c008131e)" style="fill:#f4faad"/><path id="patch_50" d="M766.008 203.42a23.951 23.951 0 1 0 0-47.902 23.951 23.951 0 0 0 0 47.902z" clip-path="url(#p54c008131e)" style="fill:#f7814c"/><path id="patch_51" d="M357.18 1153.44a22.953 22.953 0 1 0 0-45.906 22.953 22.953 0 0 0 0 45.906z" clip-path="url(#p54c008131e)" style="fill:#f67a49"/><path id="patch_52" d="M996.673 177.474a10.978 10.978 0 1 0 0-21.955 10.978 10.978 0 0 0 0 21.955z" clip-path="url(#p54c008131e)" style="fill:#d43d4f"/><path id="patch_53" d="M396.073 175.478a9.98 9.98 0 1 0 0-19.959 9.98 9.98 0 0 0 0 19.96z" clip-path="url(#p54c008131e)" style="fill:#d0384e"/><path id="patch_54" d="M762.155 344.3a21.955 21.955 0 1 0-.001-43.91 21.955 21.955 0 0 0 0 43.91z" clip-path="url(#p54c008131e)" style="fill:#f57547"/><path id="patch_55" d="M729.795 371.484a20.957 20.957 0 1 0 0-41.914 20.957 20.957 0 0 0 0 41.914z" clip-path="url(#p54c008131e)" style="fill:#f46d43"/><path id="patch_56" d="M367.31 493.658a19.96 19.96 0 1 0 0-39.918 19.96 19.96 0 0 0 0 39.918z" clip-path="url(#p54c008131e)" style="fill:#f26944"/><path id="patch_57" d="M567.254 1153.44a8.982 8.982 0 1 0 0-17.963 8.982 8.982 0 0 0 0 17.963z" clip-path="url(#p54c008131e)" style="fill:#c9314c"/><path id="patch_58" d="M1124.613 1153.44a7.984 7.984 0 1 0 0-15.967 7.984 7.984 0 0 0 0 15.967z" clip-path="url(#p54c008131e)" style="fill:#c52c4b"/><path id="patch_59" d="M753.906 1153.44a47.902 47.902 0 0 0 47.9-47.9 47.902 47.902 0 0 0-47.9-47.9 47.902 47.902 0 0 0-47.9 47.9 47.902 47.902 0 0 0 47.9 47.9z" clip-path="url(#p54c008131e)" style="fill:#fff7b2"/><path id="patch_60" d="M561.66 367.997a36.925 36.925 0 0 0 26.109-63.031 36.925 36.925 0 0 0-63.032 26.108 36.925 36.925 0 0 0 36.923 36.923z" clip-path="url(#p54c008131e)" style="fill:#fece7c"/><path id="patch_61" d="M181.207 1153.44a15.967 15.967 0 1 0 0-31.935 15.967 15.967 0 0 0 0 31.935z" clip-path="url(#p54c008131e)" style="fill:#e45549"/><path id="patch_62" d="M1156.175 739.404a6.986 6.986 0 1 0 0-13.972 6.986 6.986 0 0 0 0 13.972z" clip-path="url(#p54c008131e)" style="fill:#be254a"/><path id="patch_63" d="M807.46 1153.44a14.97 14.97 0 1 0 0-29.939 14.97 14.97 0 0 0 0 29.939z" clip-path="url(#p54c008131e)" style="fill:#e2514a"/><path id="patch_64" d="M505.24 167.495a5.988 5.988 0 1 0 0-11.976 5.988 5.988 0 0 0 0 11.976z" clip-path="url(#p54c008131e)" style="fill:#b81e48"/><path id="patch_65" d="M632.712 978.124a13.972 13.972 0 1 0 0-27.943 13.972 13.972 0 0 0 0 27.943z" clip-path="url(#p54c008131e)" style="fill:#de4c4b"/><path id="patch_66" d="M962.707 322.416a12.974 12.974 0 1 0 0-25.948 12.974 12.974 0 0 0 0 25.948z" clip-path="url(#p54c008131e)" style="fill:#dc484c"/><path id="patch_67" d="M957.7 1004.44a49.898 49.898 0 0 0 49.895-49.897 49.898 49.898 0 0 0-49.896-49.896 49.898 49.898 0 0 0-49.896 49.896 49.898 49.898 0 0 0 49.896 49.896z" clip-path="url(#p54c008131e)" style="fill:#fffdbc"/><path id="patch_68" d="M523.319 803.181a33.93 33.93 0 0 0 23.992-57.92 33.93 33.93 0 0 0-57.921 23.99 33.93 33.93 0 0 0 33.929 33.93z" clip-path="url(#p54c008131e)" style="fill:#fdbf6f"/><path id="patch_69" d="M925.904 508.376a27.943 27.943 0 0 0 19.757-47.7 27.943 27.943 0 0 0-47.7 19.758 27.943 27.943 0 0 0 27.943 27.942z" clip-path="url(#p54c008131e)" style="fill:#fa9b58"/><path id="patch_70" d="M600.491 179.47a11.976 11.976 0 1 0 0-23.951 11.976 11.976 0 0 0 0 23.951z" clip-path="url(#p54c008131e)" style="fill:#d8434e"/><path id="patch_71" d="M170.23 763.143a4.99 4.99 0 1 0 0-9.98 4.99 4.99 0 0 0 0 9.98z" clip-path="url(#p54c008131e)" style="fill:#b41947"/><path id="patch_72" d="M930.479 177.474a10.978 10.978 0 1 0 0-21.955 10.978 10.978 0 0 0 0 21.955z" clip-path="url(#p54c008131e)" style="fill:#d43d4f"/><path id="patch_73" d="M538.804 163.503a3.992 3.992 0 1 0 0-7.983 3.992 3.992 0 0 0 0 7.983z" clip-path="url(#p54c008131e)" style="fill:#ad1246"/><path id="patch_74" d="M334.91 719.855a16.965 16.965 0 1 0 0-33.931 16.965 16.965 0 0 0 0 33.93z" clip-path="url(#p54c008131e)" style="fill:#e85b48"/><path id="patch_75" d="M800.67 175.478a9.98 9.98 0 1 0 0-19.959 9.98 9.98 0 0 0 0 19.96z" clip-path="url(#p54c008131e)" style="fill:#d0384e"/><path id="patch_76" d="M698.595 1153.44a15.967 15.967 0 1 0 0-31.935 15.967 15.967 0 0 0 0 31.935z" clip-path="url(#p54c008131e)" style="fill:#e45549"/><path id="patch_77" d="M1142.204 609.647a20.957 20.957 0 1 0-.001-41.915 20.957 20.957 0 0 0 0 41.915z" clip-path="url(#p54c008131e)" style="fill:#f46d43"/><path id="patch_78" d="M350.668 756.24a19.96 19.96 0 1 0-.001-39.919 19.96 19.96 0 0 0 0 39.92z" clip-path="url(#p54c008131e)" style="fill:#f26944"/><path id="patch_79" d="M643.412 867.494a14.97 14.97 0 1 0 0-29.939 14.97 14.97 0 0 0 0 29.94z" clip-path="url(#p54c008131e)" style="fill:#e2514a"/><path id="patch_80" d="M174.221 203.72a8.982 8.982 0 1 0 0-17.963 8.982 8.982 0 0 0 0 17.963z" clip-path="url(#p54c008131e)" style="fill:#c9314c"/><path id="patch_81" d="M1160.166 766.915a2.994 2.994 0 1 0 0-5.987 2.994 2.994 0 0 0 0 5.987z" clip-path="url(#p54c008131e)" style="fill:#a90d45"/><path id="patch_82" d="M973.594 519.688a13.972 13.972 0 1 0 0-27.943 13.972 13.972 0 0 0 0 27.943z" clip-path="url(#p54c008131e)" style="fill:#de4c4b"/><path id="patch_83" d="M1155.177 1119.51a7.984 7.984 0 1 0 0-15.967 7.984 7.984 0 0 0 0 15.968z" clip-path="url(#p54c008131e)" style="fill:#c52c4b"/><path id="patch_84" d="M1024.158 603.232a12.974 12.974 0 1 0 0-25.947 12.974 12.974 0 0 0 0 25.947z" clip-path="url(#p54c008131e)" style="fill:#dc484c"/><path id="patch_85" d="M728.644 1062.26a21.955 21.955 0 1 0 0-43.91 21.955 21.955 0 0 0 0 43.91z" clip-path="url(#p54c008131e)" style="fill:#f57547"/><path id="patch_86" d="M363.386 1017.421a16.965 16.965 0 1 0 0-33.93 16.965 16.965 0 0 0 0 33.93z" clip-path="url(#p54c008131e)" style="fill:#e85b48"/><path id="patch_87" d="M177.215 574.792a11.976 11.976 0 1 0 0-23.952 11.976 11.976 0 0 0 0 23.952z" clip-path="url(#p54c008131e)" style="fill:#d8434e"/><path id="patch_88" d="M764.057 300.455a6.986 6.986 0 1 0 0-13.972 6.986 6.986 0 0 0 0 13.972z" clip-path="url(#p54c008131e)" style="fill:#be254a"/><path id="patch_89" d="M1161.164 159.512a1.996 1.996 0 1 0 0-3.992 1.996 1.996 0 0 0 0 3.992z" clip-path="url(#p54c008131e)" style="fill:#a20643"/><path id="patch_90" d="M733.58 177.474a10.978 10.978 0 1 0 0-21.955 10.978 10.978 0 0 0 0 21.955z" clip-path="url(#p54c008131e)" style="fill:#d43d4f"/><path id="patch_91" d="M682.1 420.24a36.925 36.925 0 0 0 26.108-63.031 36.925 36.925 0 0 0-63.031 26.108A36.925 36.925 0 0 0 682.1 420.24z" clip-path="url(#p54c008131e)" style="fill:#fece7c"/><path id="patch_92" d="M607.337 423.749a35.927 35.927 0 0 0 25.403-61.328 35.927 35.927 0 0 0-61.328 25.403 35.927 35.927 0 0 0 35.925 35.925z" clip-path="url(#p54c008131e)" style="fill:#fec877"/><path id="patch_93" d="M772.187 823.827a31.935 31.935 0 0 0 22.58-54.514 31.935 31.935 0 0 0-54.513 22.58 31.935 31.935 0 0 0 31.933 31.934z" clip-path="url(#p54c008131e)" style="fill:#fdb567"/><path id="patch_94" d="M779.138 760.365a27.943 27.943 0 0 0 19.758-47.7 27.943 27.943 0 0 0-47.7 19.758 27.943 27.943 0 0 0 27.942 27.942z" clip-path="url(#p54c008131e)" style="fill:#fa9b58"/><path id="patch_95" d="M1140.208 983.84a22.953 22.953 0 1 0-.001-45.906 22.953 22.953 0 0 0 0 45.907z" clip-path="url(#p54c008131e)" style="fill:#f67a49"/><path id="patch_96" d="M184.2 989.92a18.961 18.961 0 1 0 0-37.922 18.961 18.961 0 0 0 0 37.922z" clip-path="url(#p54c008131e)" style="fill:#ee6445"/><path id="patch_97" d="M1153.18 627.592a9.98 9.98 0 1 0 0-19.96 9.98 9.98 0 0 0 0 19.96z" clip-path="url(#p54c008131e)" style="fill:#d0384e"/><path id="patch_98" d="M718.15 1153.44a5.988 5.988 0 1 0 0-11.976 5.988 5.988 0 0 0 0 11.976z" clip-path="url(#p54c008131e)" style="fill:#b81e48"/><path id="patch_99" d="M1154.179 568.042a8.982 8.982 0 1 0 0-17.964 8.982 8.982 0 0 0 0 17.964z" clip-path="url(#p54c008131e)" style="fill:#c9314c"/><path id="patch_100" d="M645.159 550.258a66.864 66.864 0 0 0 66.86-66.86 66.864 66.864 0 0 0-66.86-66.86 66.864 66.864 0 0 0-66.86 66.86 66.864 66.864 0 0 0 66.86 66.86z" clip-path="url(#p54c008131e)" style="fill:#bfe5a0"/><path id="patch_101" d="M1158.17 550.661a4.99 4.99 0 1 0 0-9.98 4.99 4.99 0 0 0 0 9.98z" clip-path="url(#p54c008131e)" style="fill:#b41947"/><path id="patch_102" d="M1162.162 165.254a.998.998 0 1 0 0-1.996.998.998 0 0 0 0 1.996z" clip-path="url(#p54c008131e)" style="fill:#9e0142"/><path id="patch_103" d="M177.215 707.816a11.976 11.976 0 1 0 0-23.952 11.976 11.976 0 0 0 0 23.952z" clip-path="url(#p54c008131e)" style="fill:#d8434e"/><path id="patch_104" d="M565.149 620.69a50.896 50.896 0 0 0 50.894-50.895 50.896 50.896 0 0 0-50.894-50.893 50.896 50.896 0 0 0-50.894 50.893 50.896 50.896 0 0 0 50.894 50.894z" clip-path="url(#p54c008131e)" style="fill:#fefebd"/><path id="patch_105" d="M1155.177 203.743a7.984 7.984 0 1 0 0-15.967 7.984 7.984 0 0 0 0 15.967z" clip-path="url(#p54c008131e)" style="fill:#c52c4b"/><path id="patch_106" d="M951.667 904.89a24.95 24.95 0 0 0 0-49.895 24.95 24.95 0 0 0 0 49.896z" clip-path="url(#p54c008131e)" style="fill:#f88950"/><path id="patch_107" d="M367.802 438.867a17.963 17.963 0 1 0 0-35.926 17.963 17.963 0 0 0 0 35.926z" clip-path="url(#p54c008131e)" style="fill:#ea5e47"/><path id="patch_108" d="M1152.183 940.12a10.978 10.978 0 1 0 0-21.955 10.978 10.978 0 0 0 0 21.955z" clip-path="url(#p54c008131e)" style="fill:#d43d4f"/><path id="patch_109" d="M788.047 163.503a3.992 3.992 0 1 0 0-7.983 3.992 3.992 0 0 0 0 7.983z" clip-path="url(#p54c008131e)" style="fill:#ad1246"/><path id="patch_110" d="M776.615 1061.323a23.951 23.951 0 1 0 0-47.902 23.951 23.951 0 0 0 0 47.902z" clip-path="url(#p54c008131e)" style="fill:#f7814c"/><path id="patch_111" d="M1017.066 781.68a13.972 13.972 0 1 0 0-27.943 13.972 13.972 0 0 0 0 27.943z" clip-path="url(#p54c008131e)" style="fill:#de4c4b"/><path id="patch_112" d="M331.37 175.478a9.98 9.98 0 1 0 0-19.959 9.98 9.98 0 0 0 0 19.96z" clip-path="url(#p54c008131e)" style="fill:#d0384e"/><path id="patch_113" d="M952.638 512.625a6.986 6.986 0 1 0 0-13.972 6.986 6.986 0 0 0 0 13.972z" clip-path="url(#p54c008131e)" style="fill:#be254a"/><path id="patch_114" d="M402.655 879.261a60.876 60.876 0 0 0 60.873-60.873 60.876 60.876 0 0 0-60.873-60.873 60.876 60.876 0 0 0-60.873 60.873 60.876 60.876 0 0 0 60.873 60.873z" clip-path="url(#p54c008131e)" style="fill:#e1f399"/><path id="patch_115" d="M178.213 952.566a12.974 12.974 0 1 0 0-25.947 12.974 12.974 0 0 0 0 25.947z" clip-path="url(#p54c008131e)" style="fill:#dc484c"/><path id="patch_116" d="M656.134 635.53a42.913 42.913 0 0 0 42.911-42.911 42.913 42.913 0 0 0-42.91-42.91 42.913 42.913 0 0 0-42.911 42.91 42.913 42.913 0 0 0 42.91 42.91z" clip-path="url(#p54c008131e)" style="fill:#fee797"/><path id="patch_117" d="M1126.237 425.93a36.925 36.925 0 0 0 26.108-63.032 36.925 36.925 0 0 0-63.031 26.109 36.925 36.925 0 0 0 36.923 36.923z" clip-path="url(#p54c008131e)" style="fill:#fece7c"/><path id="patch_118" d="M895.676 932.083a33.93 33.93 0 0 0 23.992-57.921 33.93 33.93 0 0 0-57.92 23.991 33.93 33.93 0 0 0 33.928 33.93z" clip-path="url(#p54c008131e)" style="fill:#fdbf6f"/><path id="patch_119" d="M968.462 489.919a14.97 14.97 0 1 0 0-29.94 14.97 14.97 0 0 0 0 29.94z" clip-path="url(#p54c008131e)" style="fill:#e2514a"/><path id="patch_120" d="M342.05 992.88a11.976 11.976 0 1 0 0-23.951 11.976 11.976 0 0 0 0 23.95z" clip-path="url(#p54c008131e)" style="fill:#d8434e"/><path id="patch_121" d="M204.459 173.483a8.982 8.982 0 1 0 0-17.964 8.982 8.982 0 0 0 0 17.964z" clip-path="url(#p54c008131e)" style="fill:#c9314c"/><path id="patch_122" d="M617.427 167.495a5.988 5.988 0 1 0 0-11.976 5.988 5.988 0 0 0 0 11.976z" clip-path="url(#p54c008131e)" style="fill:#b81e48"/><path id="patch_123" d="M168.234 553.835a2.994 2.994 0 1 0 0-5.988 2.994 2.994 0 0 0 0 5.988z" clip-path="url(#p54c008131e)" style="fill:#a90d45"/><path id="patch_124" d="M212.421 971.944a10.978 10.978 0 1 0 0-21.955 10.978 10.978 0 0 0 0 21.955z" clip-path="url(#p54c008131e)" style="fill:#d43d4f"/><path id="patch_125" d="M1155.177 817.337a7.984 7.984 0 1 0 0-15.967 7.984 7.984 0 0 0 0 15.967z" clip-path="url(#p54c008131e)" style="fill:#c52c4b"/><path id="patch_126" d="M499.364 573.817a15.967 15.967 0 1 0 0-31.935 15.967 15.967 0 0 0 0 31.935z" clip-path="url(#p54c008131e)" style="fill:#e45549"/><path id="patch_127" d="M1150.187 445.752a12.974 12.974 0 1 0 0-25.947 12.974 12.974 0 0 0 0 25.947z" clip-path="url(#p54c008131e)" style="fill:#dc484c"/><path id="patch_128" d="M326.912 1153.44a9.98 9.98 0 1 0 0-19.96 9.98 9.98 0 0 0 0 19.96z" clip-path="url(#p54c008131e)" style="fill:#d0384e"/><path id="patch_129" d="M1109.544 1153.44a4.99 4.99 0 1 0 0-9.98 4.99 4.99 0 0 0 0 9.98z" clip-path="url(#p54c008131e)" style="fill:#b41947"/><path id="patch_130" d="M561.409 237.339a11.976 11.976 0 1 0 0-23.952 11.976 11.976 0 0 0 0 23.952z" clip-path="url(#p54c008131e)" style="fill:#d8434e"/><path id="patch_131" d="M172.225 925.735a6.986 6.986 0 1 0 0-13.971 6.986 6.986 0 0 0 0 13.971z" clip-path="url(#p54c008131e)" style="fill:#be254a"/><path id="patch_132" d="M167.236 1153.44a1.996 1.996 0 1 0 0-3.992 1.996 1.996 0 0 0 0 3.992z" clip-path="url(#p54c008131e)" style="fill:#a20643"/><path id="patch_133" d="M722.878 586.588a35.927 35.927 0 0 0 25.403-61.328 35.927 35.927 0 0 0-61.328 25.403 35.927 35.927 0 0 0 35.925 35.925z" clip-path="url(#p54c008131e)" style="fill:#fec877"/><path id="patch_134" d="M540.75 738.607a13.972 13.972 0 1 0 0-27.943 13.972 13.972 0 0 0 0 27.943z" clip-path="url(#p54c008131e)" style="fill:#de4c4b"/><path id="patch_135" d="M1147.193 356.413a15.967 15.967 0 1 0 0-31.935 15.967 15.967 0 0 0 0 31.935z" clip-path="url(#p54c008131e)" style="fill:#e45549"/><path id="patch_136" d="M174.221 514.101a8.982 8.982 0 1 0 0-17.963 8.982 8.982 0 0 0 0 17.963z" clip-path="url(#p54c008131e)" style="fill:#c9314c"/><path id="patch_137" d="M176.217 331.154a10.978 10.978 0 1 0 0-21.955 10.978 10.978 0 0 0 0 21.955z" clip-path="url(#p54c008131e)" style="fill:#d43d4f"/><path id="patch_138" d="M583.843 163.503a3.992 3.992 0 1 0 0-7.983 3.992 3.992 0 0 0 0 7.983z" clip-path="url(#p54c008131e)" style="fill:#ad1246"/><path id="patch_139" d="M311.452 1153.44a5.988 5.988 0 1 0 0-11.976 5.988 5.988 0 0 0 0 11.976z" clip-path="url(#p54c008131e)" style="fill:#b81e48"/><path id="patch_140" d="M1153.18 1001.136a9.98 9.98 0 1 0 0-19.959 9.98 9.98 0 0 0 0 19.96z" clip-path="url(#p54c008131e)" style="fill:#d0384e"/><path id="patch_141" d="M206.44 1153.44a7.984 7.984 0 1 0 0-15.967 7.984 7.984 0 0 0 0 15.967z" clip-path="url(#p54c008131e)" style="fill:#c52c4b"/><path id="patch_142" d="M353.294 608.603a10.978 10.978 0 1 0 0-21.955 10.978 10.978 0 0 0 0 21.955z" clip-path="url(#p54c008131e)" style="fill:#d43d4f"/><path id="patch_143" d="M174.221 1006.653a8.982 8.982 0 1 0 0-17.964 8.982 8.982 0 0 0 0 17.964z" clip-path="url(#p54c008131e)" style="fill:#c9314c"/><path id="patch_144" d="M1156.175 460.342a6.986 6.986 0 1 0 0-13.971 6.986 6.986 0 0 0 0 13.971z" clip-path="url(#p54c008131e)" style="fill:#be254a"/><path id="patch_145" d="M1158.17 363.287a4.99 4.99 0 1 0 0-9.98 4.99 4.99 0 0 0 0 9.98z" clip-path="url(#p54c008131e)" style="fill:#b41947"/><path id="patch_146" d="M1160.166 575.843a2.994 2.994 0 1 0 0-5.988 2.994 2.994 0 0 0 0 5.988z" clip-path="url(#p54c008131e)" style="fill:#a90d45"/><path id="patch_147" d="M1158.342 157.516a.998.998 0 1 0 0-1.996.998.998 0 0 0 0 1.996z" clip-path="url(#p54c008131e)" style="fill:#9e0142"/><path id="patch_148" d="M175.22 393.763a9.98 9.98 0 1 0-.001-19.96 9.98 9.98 0 0 0 0 19.96z" clip-path="url(#p54c008131e)" style="fill:#d0384e"/><path id="patch_149" d="M173.223 1120.223a7.984 7.984 0 1 0 0-15.968 7.984 7.984 0 0 0 0 15.968z" clip-path="url(#p54c008131e)" style="fill:#c52c4b"/><path id="patch_150" d="M804.438 840.917a14.97 14.97 0 1 0 0-29.94 14.97 14.97 0 0 0 0 29.94z" clip-path="url(#p54c008131e)" style="fill:#e2514a"/><path id="patch_151" d="M717.365 167.495a5.988 5.988 0 1 0 0-11.976 5.988 5.988 0 0 0 0 11.976z" clip-path="url(#p54c008131e)" style="fill:#b81e48"/><path id="patch_152" d="M214.706 784.891a12.974 12.974 0 1 0 0-25.947 12.974 12.974 0 0 0 0 25.947z" clip-path="url(#p54c008131e)" style="fill:#dc484c"/><path id="patch_153" d="M884.853 976.948a22.953 22.953 0 1 0 0-45.907 22.953 22.953 0 0 0 0 45.907z" clip-path="url(#p54c008131e)" style="fill:#f67a49"/><path id="patch_154" d="M481.284 817.642a17.963 17.963 0 1 0 0-35.927 17.963 17.963 0 0 0 0 35.927z" clip-path="url(#p54c008131e)" style="fill:#ea5e47"/><path id="patch_155" d="M308.046 365.853a10.978 10.978 0 1 0 0-21.955 10.978 10.978 0 0 0 0 21.955z" clip-path="url(#p54c008131e)" style="fill:#d43d4f"/><path id="patch_156" d="M217.73 1153.44a3.992 3.992 0 1 0 0-7.984 3.992 3.992 0 0 0 0 7.984z" clip-path="url(#p54c008131e)" style="fill:#ad1246"/><path id="patch_157" d="M174.221 819.652a8.982 8.982 0 1 0 0-17.964 8.982 8.982 0 0 0 0 17.964z" clip-path="url(#p54c008131e)" style="fill:#c9314c"/><path id="patch_158" d="M477.42 781.967a11.976 11.976 0 1 0 0-23.951 11.976 11.976 0 0 0 0 23.95z" clip-path="url(#p54c008131e)" style="fill:#d8434e"/><path id="patch_159" d="M1031.319 364.152a6.986 6.986 0 1 0 0-13.972 6.986 6.986 0 0 0 0 13.972z" clip-path="url(#p54c008131e)" style="fill:#be254a"/><path id="patch_160" d="M167.236 159.512a1.996 1.996 0 1 0 0-3.992 1.996 1.996 0 0 0 0 3.992z" clip-path="url(#p54c008131e)" style="fill:#a20643"/><path id="patch_161" d="M731.27 663.954a38.92 38.92 0 0 0 38.918-38.919 38.92 38.92 0 0 0-38.919-38.919 38.92 38.92 0 0 0-38.919 38.919 38.92 38.92 0 0 0 38.92 38.919z" clip-path="url(#p54c008131e)" style="fill:#fed884"/><path id="patch_162" d="M789.38 613.792a35.927 35.927 0 0 0 25.402-61.328 35.927 35.927 0 0 0-61.328 25.403 35.927 35.927 0 0 0 35.925 35.925z" clip-path="url(#p54c008131e)" style="fill:#fec877"/><path id="patch_163" d="M943.088 1153.44a9.98 9.98 0 1 0 0-19.96 9.98 9.98 0 0 0 0 19.96z" clip-path="url(#p54c008131e)" style="fill:#d0384e"/><path id="patch_164" d="M806.84 695.634a41.915 41.915 0 0 0 41.912-41.913 41.915 41.915 0 0 0-41.913-41.913 41.915 41.915 0 0 0-41.912 41.913 41.915 41.915 0 0 0 41.912 41.913z" clip-path="url(#p54c008131e)" style="fill:#fee593"/><path id="patch_165" d="M885.334 380.276a12.974 12.974 0 1 0 0-25.947 12.974 12.974 0 0 0 0 25.947z" clip-path="url(#p54c008131e)" style="fill:#dc484c"/><path id="patch_166" d="M414.091 165.5a4.99 4.99 0 1 0 0-9.98 4.99 4.99 0 0 0 0 9.98z" clip-path="url(#p54c008131e)" style="fill:#b41947"/><path id="patch_167" d="M378.214 761.339a10.978 10.978 0 1 0 0-21.956 10.978 10.978 0 0 0 0 21.956z" clip-path="url(#p54c008131e)" style="fill:#d43d4f"/><path id="patch_168" d="M829.787 1153.44a7.984 7.984 0 1 0 0-15.967 7.984 7.984 0 0 0 0 15.967z" clip-path="url(#p54c008131e)" style="fill:#c52c4b"/><path id="patch_169" d="M895.77 518.587a11.976 11.976 0 1 0-.001-23.952 11.976 11.976 0 0 0 0 23.952z" clip-path="url(#p54c008131e)" style="fill:#d8434e"/><path id="patch_170" d="M1154.179 325.477a8.982 8.982 0 1 0 0-17.963 8.982 8.982 0 0 0 0 17.963z" clip-path="url(#p54c008131e)" style="fill:#c9314c"/><path id="patch_171" d="M1157.172 917.47a5.988 5.988 0 1 0 0-11.975 5.988 5.988 0 0 0 0 11.976z" clip-path="url(#p54c008131e)" style="fill:#b81e48"/><path id="patch_172" d="M729.956 1153.44a2.994 2.994 0 1 0 0-5.988 2.994 2.994 0 0 0 0 5.988z" clip-path="url(#p54c008131e)" style="fill:#a90d45"/><path id="patch_173" d="M566.173 382.69a6.986 6.986 0 1 0 0-13.971 6.986 6.986 0 0 0 0 13.971z" clip-path="url(#p54c008131e)" style="fill:#be254a"/><path id="patch_174" d="M1018.501 968.46a10.978 10.978 0 1 0 0-21.955 10.978 10.978 0 0 0 0 21.955z" clip-path="url(#p54c008131e)" style="fill:#d43d4f"/><path id="patch_175" d="M169.232 715.837a3.992 3.992 0 1 0 0-7.983 3.992 3.992 0 0 0 0 7.983z" clip-path="url(#p54c008131e)" style="fill:#ad1246"/><path id="patch_176" d="M801.84 1023.768a11.976 11.976 0 1 0 0-23.95 11.976 11.976 0 0 0 0 23.95z" clip-path="url(#p54c008131e)" style="fill:#d8434e"/><path id="patch_177" d="M1122.92 171.487a7.984 7.984 0 1 0 0-15.968 7.984 7.984 0 0 0 0 15.968z" clip-path="url(#p54c008131e)" style="fill:#c52c4b"/><path id="patch_178" d="M559.151 801.842a8.982 8.982 0 1 0 0-17.964 8.982 8.982 0 0 0 0 17.964z" clip-path="url(#p54c008131e)" style="fill:#c9314c"/><path id="patch_179" d="M1110.297 165.5a4.99 4.99 0 1 0 0-9.98 4.99 4.99 0 0 0 0 9.98z" clip-path="url(#p54c008131e)" style="fill:#b41947"/><path id="patch_180" d="M1154.424 157.516a.998.998 0 1 0 0-1.996.998.998 0 0 0 0 1.996z" clip-path="url(#p54c008131e)" style="fill:#9e0142"/><path id="patch_181" d="M387.938 1153.44a9.98 9.98 0 1 0 0-19.96 9.98 9.98 0 0 0 0 19.96z" clip-path="url(#p54c008131e)" style="fill:#d0384e"/><path id="patch_182" d="M914.264 167.495a5.988 5.988 0 1 0 0-11.976 5.988 5.988 0 0 0 0 11.976z" clip-path="url(#p54c008131e)" style="fill:#b81e48"/><path id="patch_183" d="M363.743 311.203a10.978 10.978 0 1 0 0-21.955 10.978 10.978 0 0 0 0 21.955z" clip-path="url(#p54c008131e)" style="fill:#d43d4f"/><path id="patch_184" d="M196.308 954.998a6.986 6.986 0 1 0 0-13.972 6.986 6.986 0 0 0 0 13.972z" clip-path="url(#p54c008131e)" style="fill:#be254a"/><path id="patch_185" d="M1161.164 1153.44a1.996 1.996 0 1 0 0-3.992 1.996 1.996 0 0 0 0 3.992z" clip-path="url(#p54c008131e)" style="fill:#a20643"/><path id="patch_186" d="M675.756 1153.44a7.984 7.984 0 1 0 0-15.967 7.984 7.984 0 0 0 0 15.967z" clip-path="url(#p54c008131e)" style="fill:#c52c4b"/><path id="patch_187" d="M215.451 547.25a8.982 8.982 0 1 0 0-17.964 8.982 8.982 0 0 0 0 17.963z" clip-path="url(#p54c008131e)" style="fill:#c9314c"/><path id="patch_188" d="M377.006 1153.44a2.994 2.994 0 1 0 0-5.988 2.994 2.994 0 0 0 0 5.988z" clip-path="url(#p54c008131e)" style="fill:#a90d45"/><path id="patch_189" d="M1002.295 1153.44a9.98 9.98 0 1 0 0-19.96 9.98 9.98 0 0 0 0 19.96z" clip-path="url(#p54c008131e)" style="fill:#d0384e"/><path id="patch_190" d="M284.852 778.686a10.978 10.978 0 1 0 0-21.956 10.978 10.978 0 0 0 0 21.956z" clip-path="url(#p54c008131e)" style="fill:#d43d4f"/><path id="patch_191" d="M548.946 711.994a11.976 11.976 0 1 0 0-23.952 11.976 11.976 0 0 0 0 23.952z" clip-path="url(#p54c008131e)" style="fill:#d8434e"/><path id="patch_192" d="M664.466 1153.44a3.992 3.992 0 1 0 0-7.984 3.992 3.992 0 0 0 0 7.984z" clip-path="url(#p54c008131e)" style="fill:#ad1246"/><path id="patch_193" d="M170.23 213.117a4.99 4.99 0 1 0 0-9.98 4.99 4.99 0 0 0 0 9.98z" clip-path="url(#p54c008131e)" style="fill:#b41947"/><path id="patch_194" d="M1157.172 1012.604a5.988 5.988 0 1 0 0-11.975 5.988 5.988 0 0 0 0 11.975z" clip-path="url(#p54c008131e)" style="fill:#b81e48"/><path id="patch_195" d="M765.014 549.53a6.986 6.986 0 1 0 0-13.971 6.986 6.986 0 0 0 0 13.971z" clip-path="url(#p54c008131e)" style="fill:#be254a"/><path id="patch_196" d="M765.361 219.38a7.984 7.984 0 1 0 0-15.967 7.984 7.984 0 0 0 0 15.967z" clip-path="url(#p54c008131e)" style="fill:#c52c4b"/><path id="patch_197" d="M508.87 1153.44a9.98 9.98 0 1 0 0-19.96 9.98 9.98 0 0 0 0 19.96z" clip-path="url(#p54c008131e)" style="fill:#d0384e"/><path id="patch_198" d="M591.388 438.894a8.982 8.982 0 1 0 0-17.964 8.982 8.982 0 0 0 0 17.964z" clip-path="url(#p54c008131e)" style="fill:#c9314c"/><path id="patch_199" d="M790.505 347.022a9.98 9.98 0 1 0 0-19.96 9.98 9.98 0 0 0 0 19.96z" clip-path="url(#p54c008131e)" style="fill:#d0384e"/><path id="patch_200" d="M1088.24 370.185a8.982 8.982 0 1 0-.001-17.963 8.982 8.982 0 0 0 0 17.963z" clip-path="url(#p54c008131e)" style="fill:#c9314c"/><path id="patch_201" d="M461.855 790.467a7.984 7.984 0 1 0 0-15.968 7.984 7.984 0 0 0 0 15.968z" clip-path="url(#p54c008131e)" style="fill:#c52c4b"/><path id="patch_202" d="M706.851 1028.25a6.986 6.986 0 1 0 0-13.972 6.986 6.986 0 0 0 0 13.972z" clip-path="url(#p54c008131e)" style="fill:#be254a"/><path id="patch_203" d="M315.91 167.495a5.988 5.988 0 1 0 0-11.976 5.988 5.988 0 0 0 0 11.976z" clip-path="url(#p54c008131e)" style="fill:#b81e48"/><path id="patch_204" d="M1158.17 421.678a4.99 4.99 0 1 0 0-9.98 4.99 4.99 0 0 0 0 9.98z" clip-path="url(#p54c008131e)" style="fill:#b41947"/><path id="patch_205" d="M306.133 163.503a3.992 3.992 0 1 0 0-7.983 3.992 3.992 0 0 0 0 7.983z" clip-path="url(#p54c008131e)" style="fill:#ad1246"/><path id="patch_206" d="M1160.166 1024.416a2.994 2.994 0 1 0 0-5.988 2.994 2.994 0 0 0 0 5.988z" clip-path="url(#p54c008131e)" style="fill:#a90d45"/><path id="patch_207" d="M1161.164 772.009a1.996 1.996 0 1 0 0-3.992 1.996 1.996 0 0 0 0 3.992z" clip-path="url(#p54c008131e)" style="fill:#a20643"/><path id="patch_208" d="M1162.162 1146.455a.998.998 0 1 0 0-1.996.998.998 0 0 0 0 1.996z" clip-path="url(#p54c008131e)" style="fill:#9e0142"/><path id="patch_209" d="M322.242 976.77a16.965 16.965 0 1 0 0-33.93 16.965 16.965 0 0 0 0 33.93z" clip-path="url(#p54c008131e)" style="fill:#e85b48"/><path id="patch_210" d="M423.474 563.27a15.967 15.967 0 1 0-.001-31.936 15.967 15.967 0 0 0 0 31.935z" clip-path="url(#p54c008131e)" style="fill:#e45549"/><path id="patch_211" d="M558.687 689.866a14.97 14.97 0 1 0 0-29.94 14.97 14.97 0 0 0 0 29.94z" clip-path="url(#p54c008131e)" style="fill:#e2514a"/><path id="patch_212" d="M308.51 789.597a13.972 13.972 0 1 0 0-27.943 13.972 13.972 0 0 0 0 27.943z" clip-path="url(#p54c008131e)" style="fill:#de4c4b"/><path id="patch_213" d="M970.763 687.056a12.974 12.974 0 1 0 0-25.947 12.974 12.974 0 0 0 0 25.947z" clip-path="url(#p54c008131e)" style="fill:#dc484c"/><path id="patch_214" d="M606.874 628.798a11.976 11.976 0 1 0 0-23.952 11.976 11.976 0 0 0 0 23.952z" clip-path="url(#p54c008131e)" style="fill:#d8434e"/><path id="patch_215" d="M1117.596 782.046a10.978 10.978 0 1 0 0-21.956 10.978 10.978 0 0 0 0 21.956z" clip-path="url(#p54c008131e)" style="fill:#d43d4f"/><path id="patch_216" d="M735.54 819.07a8.982 8.982 0 1 0 0-17.964 8.982 8.982 0 0 0 0 17.963z" clip-path="url(#p54c008131e)" style="fill:#c9314c"/><path id="patch_217" d="M1112.847 599.03a7.984 7.984 0 1 0 0-15.968 7.984 7.984 0 0 0 0 15.968z" clip-path="url(#p54c008131e)" style="fill:#c52c4b"/><path id="patch_218" d="M1132.424 767.543a6.986 6.986 0 1 0 0-13.971 6.986 6.986 0 0 0 0 13.971z" clip-path="url(#p54c008131e)" style="fill:#be254a"/><path id="patch_219" d="M562.184 294.154a13.972 13.972 0 1 0 0-27.943 13.972 13.972 0 0 0 0 27.943z" clip-path="url(#p54c008131e)" style="fill:#de4c4b"/><path id="patch_220" d="M927.629 1153.44a5.988 5.988 0 1 0 0-11.976 5.988 5.988 0 0 0 0 11.976z" clip-path="url(#p54c008131e)" style="fill:#b81e48"/><path id="patch_221" d="M580.643 1153.44a4.99 4.99 0 1 0 0-9.98 4.99 4.99 0 0 0 0 9.98z" clip-path="url(#p54c008131e)" style="fill:#b41947"/><path id="patch_222" d="M432.034 892.842a9.98 9.98 0 1 0 0-19.96 9.98 9.98 0 0 0 0 19.96z" clip-path="url(#p54c008131e)" style="fill:#d0384e"/><path id="patch_223" d="M707.588 163.503a3.992 3.992 0 1 0 0-7.983 3.992 3.992 0 0 0 0 7.983z" clip-path="url(#p54c008131e)" style="fill:#ad1246"/><path id="patch_224" d="M454.112 976.035a8.982 8.982 0 1 0 0-17.963 8.982 8.982 0 0 0 0 17.963z" clip-path="url(#p54c008131e)" style="fill:#c9314c"/><path id="patch_225" d="M858.4 942.207a13.972 13.972 0 1 0 0-27.944 13.972 13.972 0 0 0 0 27.944z" clip-path="url(#p54c008131e)" style="fill:#de4c4b"/><path id="patch_226" d="M985.208 161.508a2.994 2.994 0 1 0 0-5.988 2.994 2.994 0 0 0 0 5.988z" clip-path="url(#p54c008131e)" style="fill:#a90d45"/><path id="patch_227" d="M375.68 453.61a7.984 7.984 0 1 0 0-15.968 7.984 7.984 0 0 0 0 15.967z" clip-path="url(#p54c008131e)" style="fill:#c52c4b"/><path id="patch_228" d="M837.434 620.215a17.963 17.963 0 1 0 0-35.927 17.963 17.963 0 0 0 0 35.927z" clip-path="url(#p54c008131e)" style="fill:#ea5e47"/><path id="patch_229" d="M584.277 651.867a16.965 16.965 0 1 0 0-33.93 16.965 16.965 0 0 0 0 33.93z" clip-path="url(#p54c008131e)" style="fill:#e85b48"/><path id="patch_230" d="M330.885 774.465a11.976 11.976 0 1 0 0-23.951 11.976 11.976 0 0 0 0 23.95z" clip-path="url(#p54c008131e)" style="fill:#d8434e"/><path id="patch_231" d="M680.023 555.481a6.986 6.986 0 1 0 0-13.971 6.986 6.986 0 0 0 0 13.971z" clip-path="url(#p54c008131e)" style="fill:#be254a"/><path id="patch_232" d="M643.35 366.135a10.978 10.978 0 1 0 0-21.955 10.978 10.978 0 0 0 0 21.955z" clip-path="url(#p54c008131e)" style="fill:#d43d4f"/><path id="patch_233" d="M1161.164 920.393a1.996 1.996 0 1 0 0-3.992 1.996 1.996 0 0 0 0 3.992z" clip-path="url(#p54c008131e)" style="fill:#a20643"/><path id="patch_234" d="M1012.888 167.495a5.988 5.988 0 1 0 0-11.976 5.988 5.988 0 0 0 0 11.976z" clip-path="url(#p54c008131e)" style="fill:#b81e48"/><path id="patch_235" d="M562.327 257.278a9.98 9.98 0 1 0 0-19.96 9.98 9.98 0 0 0 0 19.96z" clip-path="url(#p54c008131e)" style="fill:#d0384e"/><path id="patch_236" d="M823.476 859.373a12.974 12.974 0 1 0 0-25.947 12.974 12.974 0 0 0 0 25.947z" clip-path="url(#p54c008131e)" style="fill:#dc484c"/><path id="patch_237" d="M717.53 515.057a8.982 8.982 0 1 0 0-17.963 8.982 8.982 0 0 0 0 17.963z" clip-path="url(#p54c008131e)" style="fill:#c9314c"/><path id="patch_238" d="M170.23 1017.678a4.99 4.99 0 1 0 0-9.98 4.99 4.99 0 0 0 0 9.98z" clip-path="url(#p54c008131e)" style="fill:#b41947"/><path id="patch_239" d="M555.491 643.893a11.976 11.976 0 1 0 0-23.951 11.976 11.976 0 0 0 0 23.951z" clip-path="url(#p54c008131e)" style="fill:#d8434e"/><path id="patch_240" d="M740.078 1153.44a.998.998 0 1 0 0-1.996.998.998 0 0 0 0 1.996z" clip-path="url(#p54c008131e)" style="fill:#9e0142"/><path id="patch_241" d="M968.343 859.53a7.984 7.984 0 1 0 0-15.968 7.984 7.984 0 0 0 0 15.967z" clip-path="url(#p54c008131e)" style="fill:#c52c4b"/><path id="patch_242" d="M169.232 910.38a3.992 3.992 0 1 0 0-7.984 3.992 3.992 0 0 0 0 7.983z" clip-path="url(#p54c008131e)" style="fill:#ad1246"/><path id="patch_243" d="M386.386 499.714a6.986 6.986 0 1 0 0-13.971 6.986 6.986 0 0 0 0 13.971z" clip-path="url(#p54c008131e)" style="fill:#be254a"/><path id="patch_244" d="M621.84 642.863a9.98 9.98 0 1 0 0-19.96 9.98 9.98 0 0 0 0 19.96z" clip-path="url(#p54c008131e)" style="fill:#d0384e"/><path id="patch_245" d="M1038.695 420.64a8.982 8.982 0 1 0 0-17.964 8.982 8.982 0 0 0 0 17.964z" clip-path="url(#p54c008131e)" style="fill:#c9314c"/><path id="patch_246" d="M1157.172 640.12a5.988 5.988 0 1 0 0-11.976 5.988 5.988 0 0 0 0 11.975z" clip-path="url(#p54c008131e)" style="fill:#b81e48"/><path id="patch_247" d="M1160.166 1124.299a2.994 2.994 0 1 0 0-5.988 2.994 2.994 0 0 0 0 5.988z" clip-path="url(#p54c008131e)" style="fill:#a90d45"/><path id="patch_248" d="M423.073 361.29a10.978 10.978 0 1 0 0-21.956 10.978 10.978 0 0 0 0 21.955z" clip-path="url(#p54c008131e)" style="fill:#d43d4f"/><path id="patch_249" d="M626.552 354.35a7.984 7.984 0 1 0 0-15.968 7.984 7.984 0 0 0 0 15.968z" clip-path="url(#p54c008131e)" style="fill:#c52c4b"/><path id="patch_250" d="M360.306 885.17a9.98 9.98 0 1 0 0-19.959 9.98 9.98 0 0 0 0 19.96z" clip-path="url(#p54c008131e)" style="fill:#d0384e"/><path id="patch_251" d="M1158.17 213.372a4.99 4.99 0 1 0 0-9.98 4.99 4.99 0 0 0 0 9.98z" clip-path="url(#p54c008131e)" style="fill:#b41947"/><path id="patch_252" d="M752.622 693.643a16.965 16.965 0 1 0 0-33.931 16.965 16.965 0 0 0 0 33.93z" clip-path="url(#p54c008131e)" style="fill:#e85b48"/><path id="patch_253" d="M987.111 470.35a6.986 6.986 0 1 0 0-13.97 6.986 6.986 0 0 0 0 13.97z" clip-path="url(#p54c008131e)" style="fill:#be254a"/><path id="patch_254" d="M333.406 802.284a13.972 13.972 0 1 0 0-27.943 13.972 13.972 0 0 0 0 27.943z" clip-path="url(#p54c008131e)" style="fill:#de4c4b"/><path id="patch_255" d="M563.988 660.056a8.982 8.982 0 1 0 0-17.963 8.982 8.982 0 0 0 0 17.963z" clip-path="url(#p54c008131e)" style="fill:#c9314c"/><path id="patch_256" d="M405 159.512a1.996 1.996 0 1 0 0-3.992 1.996 1.996 0 0 0 0 3.992z" clip-path="url(#p54c008131e)" style="fill:#a20643"/><path id="patch_257" d="M817.799 1006.274a10.978 10.978 0 1 0 0-21.955 10.978 10.978 0 0 0 0 21.955z" clip-path="url(#p54c008131e)" style="fill:#d43d4f"/><path id="patch_258" d="M1159.168 469.439a3.992 3.992 0 1 0 0-7.984 3.992 3.992 0 0 0 0 7.984z" clip-path="url(#p54c008131e)" style="fill:#ad1246"/><path id="patch_259" d="M911.32 455.586a7.984 7.984 0 1 0 0-15.968 7.984 7.984 0 0 0 0 15.968z" clip-path="url(#p54c008131e)" style="fill:#c52c4b"/><path id="patch_260" d="M788.526 1153.44a5.988 5.988 0 1 0 0-11.976 5.988 5.988 0 0 0 0 11.976z" clip-path="url(#p54c008131e)" style="fill:#b81e48"/><path id="patch_261" d="M535.962 1108.333a6.986 6.986 0 1 0 0-13.972 6.986 6.986 0 0 0 0 13.972z" clip-path="url(#p54c008131e)" style="fill:#be254a"/><path id="patch_262" d="M170.23 402.886a4.99 4.99 0 1 0 0-9.98 4.99 4.99 0 0 0 0 9.98z" clip-path="url(#p54c008131e)" style="fill:#b41947"/><path id="patch_263" d="M988.906 1153.44a2.994 2.994 0 1 0 0-5.988 2.994 2.994 0 0 0 0 5.988z" clip-path="url(#p54c008131e)" style="fill:#a90d45"/><path id="patch_264" d="M1162.162 922.218a.998.998 0 1 0 0-1.996.998.998 0 0 0 0 1.996z" clip-path="url(#p54c008131e)" style="fill:#9e0142"/><path id="patch_265" d="M836.554 992.817a13.972 13.972 0 1 0 0-27.943 13.972 13.972 0 0 0 0 27.943z" clip-path="url(#p54c008131e)" style="fill:#de4c4b"/><path id="patch_266" d="M304.178 547.653a9.98 9.98 0 1 0 0-19.96 9.98 9.98 0 0 0 0 19.96z" clip-path="url(#p54c008131e)" style="fill:#d0384e"/><path id="patch_267" d="M578.088 670.615a7.984 7.984 0 1 0 0-15.967 7.984 7.984 0 0 0 0 15.967z" clip-path="url(#p54c008131e)" style="fill:#c52c4b"/><path id="patch_268" d="M171.228 682.051a5.988 5.988 0 1 0 0-11.975 5.988 5.988 0 0 0 0 11.975z" clip-path="url(#p54c008131e)" style="fill:#b81e48"/><path id="patch_269" d="M964.453 1026.018a10.978 10.978 0 1 0 0-21.956 10.978 10.978 0 0 0 0 21.956z" clip-path="url(#p54c008131e)" style="fill:#d43d4f"/><path id="patch_270" d="M1159.168 722.371a3.992 3.992 0 1 0 0-7.984 3.992 3.992 0 0 0 0 7.984z" clip-path="url(#p54c008131e)" style="fill:#ad1246"/><path id="patch_271" d="M296.41 965.7a6.986 6.986 0 1 0 0-13.971 6.986 6.986 0 0 0 0 13.972z" clip-path="url(#p54c008131e)" style="fill:#be254a"/><path id="patch_272" d="M1161.164 444.952a1.996 1.996 0 1 0 0-3.992 1.996 1.996 0 0 0 0 3.992z" clip-path="url(#p54c008131e)" style="fill:#a20643"/><path id="patch_273" d="M963.074 221.379a7.984 7.984 0 1 0 0-15.968 7.984 7.984 0 0 0 0 15.968z" clip-path="url(#p54c008131e)" style="fill:#c52c4b"/><path id="patch_274" d="M402.05 1153.44a4.99 4.99 0 1 0 0-9.98 4.99 4.99 0 0 0 0 9.98z" clip-path="url(#p54c008131e)" style="fill:#b41947"/><path id="patch_275" d="M171.228 309.95a5.988 5.988 0 1 0 0-11.976 5.988 5.988 0 0 0 0 11.976z" clip-path="url(#p54c008131e)" style="fill:#b81e48"/><path id="patch_276" d="M1160.166 1018.078a2.994 2.994 0 1 0 0-5.988 2.994 2.994 0 0 0 0 5.988z" clip-path="url(#p54c008131e)" style="fill:#a90d45"/><path id="patch_277" d="M840.41 584.42a15.967 15.967 0 1 0 0-31.934 15.967 15.967 0 0 0 0 31.935z" clip-path="url(#p54c008131e)" style="fill:#e45549"/><path id="patch_278" d="M848.932 966.434a12.974 12.974 0 1 0 0-25.947 12.974 12.974 0 0 0 0 25.947z" clip-path="url(#p54c008131e)" style="fill:#dc484c"/><path id="patch_279" d="M823.955 559.439a6.986 6.986 0 1 0 0-13.972 6.986 6.986 0 0 0 0 13.972z" clip-path="url(#p54c008131e)" style="fill:#be254a"/><path id="patch_280" d="M472.782 564.427a10.978 10.978 0 1 0 0-21.955 10.978 10.978 0 0 0 0 21.955z" clip-path="url(#p54c008131e)" style="fill:#d43d4f"/><path id="patch_281" d="M1159.168 829.376a3.992 3.992 0 1 0 0-7.984 3.992 3.992 0 0 0 0 7.984z" clip-path="url(#p54c008131e)" style="fill:#ad1246"/><path id="patch_282" d="M622.083 562.778a7.984 7.984 0 1 0 0-15.968 7.984 7.984 0 0 0 0 15.968z" clip-path="url(#p54c008131e)" style="fill:#c52c4b"/><path id="patch_283" d="M219.63 165.5a4.99 4.99 0 1 0 0-9.98 4.99 4.99 0 0 0 0 9.98z" clip-path="url(#p54c008131e)" style="fill:#b41947"/><path id="patch_284" d="M572.258 517.663a9.98 9.98 0 1 0 0-19.959 9.98 9.98 0 0 0 0 19.96z" clip-path="url(#p54c008131e)" style="fill:#d0384e"/><path id="patch_285" d="M171.228 588.779a5.988 5.988 0 1 0 0-11.976 5.988 5.988 0 0 0 0 11.976z" clip-path="url(#p54c008131e)" style="fill:#b81e48"/><path id="patch_286" d="M1162.162 1148.45a.998.998 0 1 0 0-1.996.998.998 0 0 0 0 1.996z" clip-path="url(#p54c008131e)" style="fill:#9e0142"/><path id="patch_287" d="M357.47 1104.415a6.986 6.986 0 1 0 0-13.971 6.986 6.986 0 0 0 0 13.971z" clip-path="url(#p54c008131e)" style="fill:#be254a"/><path id="patch_288" d="M359.714 453.541a7.984 7.984 0 1 0 0-15.967 7.984 7.984 0 0 0 0 15.967z" clip-path="url(#p54c008131e)" style="fill:#c52c4b"/><path id="patch_289" d="M167.236 1008.372a1.996 1.996 0 1 0 0-3.991 1.996 1.996 0 0 0 0 3.991z" clip-path="url(#p54c008131e)" style="fill:#a20643"/><path id="patch_290" d="M168.234 670.59a2.994 2.994 0 1 0 0-5.988 2.994 2.994 0 0 0 0 5.988z" clip-path="url(#p54c008131e)" style="fill:#a90d45"/><path id="patch_291" d="M852.47 637.956a10.978 10.978 0 1 0 0-21.955 10.978 10.978 0 0 0 0 21.955z" clip-path="url(#p54c008131e)" style="fill:#d43d4f"/><path id="patch_292" d="M849.023 915.95a12.974 12.974 0 1 0 0-25.948 12.974 12.974 0 0 0 0 25.947z" clip-path="url(#p54c008131e)" style="fill:#dc484c"/><path id="patch_293" d="M169.232 1104.94a3.992 3.992 0 1 0 0-7.983 3.992 3.992 0 0 0 0 7.984z" clip-path="url(#p54c008131e)" style="fill:#ad1246"/><path id="patch_294" d="M170.23 830.284a4.99 4.99 0 1 0 0-9.98 4.99 4.99 0 0 0 0 9.98z" clip-path="url(#p54c008131e)" style="fill:#b41947"/><path id="patch_295" d="M360.46 1032.996a5.988 5.988 0 1 0 0-11.976 5.988 5.988 0 0 0 0 11.976z" clip-path="url(#p54c008131e)" style="fill:#b81e48"/><path id="patch_296" d="M413.177 533.775a6.986 6.986 0 1 0 0-13.971 6.986 6.986 0 0 0 0 13.971z" clip-path="url(#p54c008131e)" style="fill:#be254a"/><path id="patch_297" d="M221.061 360.046a7.984 7.984 0 1 0 0-15.968 7.984 7.984 0 0 0 0 15.968z" clip-path="url(#p54c008131e)" style="fill:#c52c4b"/><path id="patch_298" d="M1085.369 415.601a7.984 7.984 0 1 0 0-15.967 7.984 7.984 0 0 0 0 15.967z" clip-path="url(#p54c008131e)" style="fill:#c52c4b"/><path id="patch_299" d="M644.337 416.542a6.986 6.986 0 1 0 0-13.972 6.986 6.986 0 0 0 0 13.972z" clip-path="url(#p54c008131e)" style="fill:#be254a"/><path id="patch_300" d="M1036.973 775.125a5.988 5.988 0 1 0 0-11.976 5.988 5.988 0 0 0 0 11.976z" clip-path="url(#p54c008131e)" style="fill:#b81e48"/><path id="patch_301" d="M814.783 165.5a4.99 4.99 0 1 0 0-9.98 4.99 4.99 0 0 0 0 9.98z" clip-path="url(#p54c008131e)" style="fill:#b41947"/><path id="patch_302" d="M1159.168 1104.229a3.992 3.992 0 1 0 0-7.984 3.992 3.992 0 0 0 0 7.984z" clip-path="url(#p54c008131e)" style="fill:#ad1246"/><path id="patch_303" d="M168.234 803.294a2.994 2.994 0 1 0 0-5.988 2.994 2.994 0 0 0 0 5.988z" clip-path="url(#p54c008131e)" style="fill:#a90d45"/><path id="patch_304" d="M779.836 159.512a1.996 1.996 0 1 0 0-3.992 1.996 1.996 0 0 0 0 3.992z" clip-path="url(#p54c008131e)" style="fill:#a20643"/><path id="patch_305" d="M380.463 1153.44a.998.998 0 1 0 0-1.996.998.998 0 0 0 0 1.996z" clip-path="url(#p54c008131e)" style="fill:#9e0142"/><path id="patch_306" d="M515.245 347.795a9.98 9.98 0 1 0 0-19.96 9.98 9.98 0 0 0 0 19.96z" clip-path="url(#p54c008131e)" style="fill:#d0384e"/><path id="patch_307" d="M754.717 713.711a8.982 8.982 0 1 0 0-17.963 8.982 8.982 0 0 0 0 17.963z" clip-path="url(#p54c008131e)" style="fill:#c9314c"/><path id="patch_308" d="M974.19 907.136a5.988 5.988 0 1 0 0-11.976 5.988 5.988 0 0 0 0 11.976z" clip-path="url(#p54c008131e)" style="fill:#b81e48"/><path id="patch_309" d="M494.758 1153.44a4.99 4.99 0 1 0 0-9.98 4.99 4.99 0 0 0 0 9.98z" clip-path="url(#p54c008131e)" style="fill:#b41947"/><path id="patch_310" d="M301.352 1153.44a3.992 3.992 0 1 0 0-7.984 3.992 3.992 0 0 0 0 7.984z" clip-path="url(#p54c008131e)" style="fill:#ad1246"/><path id="patch_311" d="M1160.166 607.526a2.994 2.994 0 1 0 0-5.988 2.994 2.994 0 0 0 0 5.988z" clip-path="url(#p54c008131e)" style="fill:#a90d45"/><path id="patch_312" d="M905.056 983.074a6.986 6.986 0 1 0 0-13.972 6.986 6.986 0 0 0 0 13.972z" clip-path="url(#p54c008131e)" style="fill:#be254a"/><path id="patch_313" d="M715.897 1071.158a5.988 5.988 0 1 0 0-11.976 5.988 5.988 0 0 0 0 11.976z" clip-path="url(#p54c008131e)" style="fill:#b81e48"/><path id="patch_314" d="M1161.164 1028.307a1.996 1.996 0 1 0 0-3.992 1.996 1.996 0 0 0 0 3.992z" clip-path="url(#p54c008131e)" style="fill:#a20643"/><path id="patch_315" d="M862.584 663.756a13.972 13.972 0 1 0 0-27.943 13.972 13.972 0 0 0 0 27.943z" clip-path="url(#p54c008131e)" style="fill:#de4c4b"/><path id="patch_316" d="M609.922 349.556a9.98 9.98 0 1 0 0-19.96 9.98 9.98 0 0 0 0 19.96z" clip-path="url(#p54c008131e)" style="fill:#d0384e"/><path id="patch_317" d="M1021.184 1153.44a4.99 4.99 0 1 0 0-9.98 4.99 4.99 0 0 0 0 9.98z" clip-path="url(#p54c008131e)" style="fill:#b41947"/><path id="patch_318" d="M880.172 527.047a7.984 7.984 0 1 0 0-15.967 7.984 7.984 0 0 0 0 15.967z" clip-path="url(#p54c008131e)" style="fill:#c52c4b"/><path id="patch_319" d="M166.238 805.681a.998.998 0 1 0 0-1.996.998.998 0 0 0 0 1.996z" clip-path="url(#p54c008131e)" style="fill:#9e0142"/><path id="patch_320" d="M836.281 552.862a6.986 6.986 0 1 0 0-13.972 6.986 6.986 0 0 0 0 13.972z" clip-path="url(#p54c008131e)" style="fill:#be254a"/><path id="patch_321" d="M169.232 298.177a3.992 3.992 0 1 0 0-7.984 3.992 3.992 0 0 0 0 7.984z" clip-path="url(#p54c008131e)" style="fill:#ad1246"/><path id="patch_322" d="M773.608 703.556a9.98 9.98 0 1 0 0-19.96 9.98 9.98 0 0 0 0 19.96z" clip-path="url(#p54c008131e)" style="fill:#d0384e"/><path id="patch_323" d="M684.637 644.963a8.982 8.982 0 1 0 0-17.963 8.982 8.982 0 0 0 0 17.963z" clip-path="url(#p54c008131e)" style="fill:#c9314c"/><path id="patch_324" d="M339.592 684.31a5.988 5.988 0 1 0 0-11.975 5.988 5.988 0 0 0 0 11.975z" clip-path="url(#p54c008131e)" style="fill:#b81e48"/><path id="patch_325" d="M1160.166 947.304a2.994 2.994 0 1 0 0-5.988 2.994 2.994 0 0 0 0 5.988z" clip-path="url(#p54c008131e)" style="fill:#a90d45"/><path id="patch_326" d="M970.117 1109.642a7.984 7.984 0 1 0 0-15.967 7.984 7.984 0 0 0 0 15.967z" clip-path="url(#p54c008131e)" style="fill:#c52c4b"/><path id="patch_327" d="M170.23 496.721a4.99 4.99 0 1 0 0-9.98 4.99 4.99 0 0 0 0 9.98z" clip-path="url(#p54c008131e)" style="fill:#b41947"/><path id="patch_328" d="M850.25 890.027a18.961 18.961 0 1 0-.002-37.923 18.961 18.961 0 0 0 .001 37.923z" clip-path="url(#p54c008131e)" style="fill:#ee6445"/><path id="patch_329" d="M725.064 1153.44a1.996 1.996 0 1 0 0-3.992 1.996 1.996 0 0 0 0 3.992z" clip-path="url(#p54c008131e)" style="fill:#a20643"/><path id="patch_330" d="M705.036 594.575a5.988 5.988 0 1 0 0-11.975 5.988 5.988 0 0 0 0 11.975z" clip-path="url(#p54c008131e)" style="fill:#b81e48"/><path id="patch_331" d="M627.204 163.503a3.992 3.992 0 1 0 0-7.983 3.992 3.992 0 0 0 0 7.983z" clip-path="url(#p54c008131e)" style="fill:#ad1246"/><path id="patch_332" d="M1158.17 308.097a4.99 4.99 0 1 0 0-9.98 4.99 4.99 0 0 0 0 9.98z" clip-path="url(#p54c008131e)" style="fill:#b41947"/><path id="patch_333" d="M229.638 161.508a2.994 2.994 0 1 0 0-5.988 2.994 2.994 0 0 0 0 5.988z" clip-path="url(#p54c008131e)" style="fill:#a90d45"/><path id="patch_334" d="M982.053 1153.44a.998.998 0 1 0 0-1.996.998.998 0 0 0 0 1.996z" clip-path="url(#p54c008131e)" style="fill:#9e0142"/><path id="patch_335" d="M1109.307 967.407a7.984 7.984 0 1 0 0-15.967 7.984 7.984 0 0 0 0 15.967z" clip-path="url(#p54c008131e)" style="fill:#c52c4b"/><path id="patch_336" d="M437.364 976.351a5.988 5.988 0 1 0 0-11.975 5.988 5.988 0 0 0 0 11.975z" clip-path="url(#p54c008131e)" style="fill:#b81e48"/><path id="patch_337" d="M823.708 163.503a3.992 3.992 0 1 0 0-7.983 3.992 3.992 0 0 0 0 7.983z" clip-path="url(#p54c008131e)" style="fill:#ad1246"/><path id="patch_338" d="M853.41 675.612a6.986 6.986 0 1 0 0-13.971 6.986 6.986 0 0 0 0 13.971z" clip-path="url(#p54c008131e)" style="fill:#be254a"/><path id="patch_339" d="M449.065 561.556a9.98 9.98 0 1 0 0-19.96 9.98 9.98 0 0 0 0 19.96z" clip-path="url(#p54c008131e)" style="fill:#d0384e"/><path id="patch_340" d="M1161.164 629.214a1.996 1.996 0 1 0 0-3.992 1.996 1.996 0 0 0 0 3.992z" clip-path="url(#p54c008131e)" style="fill:#a20643"/><path id="patch_341" d="M362.145 220.158a7.984 7.984 0 1 0 0-15.967 7.984 7.984 0 0 0 0 15.967z" clip-path="url(#p54c008131e)" style="fill:#c52c4b"/><path id="patch_342" d="M1014.83 578.247a4.99 4.99 0 1 0 0-9.98 4.99 4.99 0 0 0 0 9.98z" clip-path="url(#p54c008131e)" style="fill:#b41947"/><path id="patch_343" d="M168.234 1097.03a2.994 2.994 0 1 0 0-5.989 2.994 2.994 0 0 0 0 5.988z" clip-path="url(#p54c008131e)" style="fill:#a90d45"/><path id="patch_344" d="M458.578 774.863a6.986 6.986 0 1 0 0-13.972 6.986 6.986 0 0 0 0 13.972z" clip-path="url(#p54c008131e)" style="fill:#be254a"/><path id="patch_345" d="M381.845 163.503a3.992 3.992 0 1 0 0-7.983 3.992 3.992 0 0 0 0 7.983z" clip-path="url(#p54c008131e)" style="fill:#ad1246"/><path id="patch_346" d="M867.902 539.76a8.982 8.982 0 1 0 0-17.963 8.982 8.982 0 0 0 0 17.964z" clip-path="url(#p54c008131e)" style="fill:#c9314c"/><path id="patch_347" d="M228.383 965.568a4.99 4.99 0 1 0 0-9.98 4.99 4.99 0 0 0 0 9.98z" clip-path="url(#p54c008131e)" style="fill:#b41947"/><path id="patch_348" d="M641.549 879.386a5.988 5.988 0 1 0 0-11.975 5.988 5.988 0 0 0 0 11.975z" clip-path="url(#p54c008131e)" style="fill:#b81e48"/><path id="patch_349" d="M1162.162 1106.88a.998.998 0 1 0 0-1.996.998.998 0 0 0 0 1.996z" clip-path="url(#p54c008131e)" style="fill:#9e0142"/><path id="patch_350" d="M795.44 1153.44a1.996 1.996 0 1 0 0-3.992 1.996 1.996 0 0 0 0 3.992z" clip-path="url(#p54c008131e)" style="fill:#a20643"/><path id="patch_351" d="M1160.166 650.71a2.994 2.994 0 1 0 0-5.988 2.994 2.994 0 0 0 0 5.988z" clip-path="url(#p54c008131e)" style="fill:#a90d45"/><path id="patch_352" d="M841.077 1153.44a3.992 3.992 0 1 0 0-7.984 3.992 3.992 0 0 0 0 7.984z" clip-path="url(#p54c008131e)" style="fill:#ad1246"/><path id="patch_353" d="M227.684 725.921a4.99 4.99 0 1 0 0-9.98 4.99 4.99 0 0 0 0 9.98z" clip-path="url(#p54c008131e)" style="fill:#b41947"/><path id="patch_354" d="M795.62 768.067a5.988 5.988 0 1 0 0-11.975 5.988 5.988 0 0 0 0 11.975z" clip-path="url(#p54c008131e)" style="fill:#b81e48"/><path id="patch_355" d="M362.826 769.423a7.984 7.984 0 1 0 0-15.967 7.984 7.984 0 0 0 0 15.967z" clip-path="url(#p54c008131e)" style="fill:#c52c4b"/><path id="patch_356" d="M1124.723 352.11a6.986 6.986 0 1 0 0-13.971 6.986 6.986 0 0 0 0 13.971z" clip-path="url(#p54c008131e)" style="fill:#be254a"/><path id="patch_357" d="M852.492 548.99a8.982 8.982 0 1 0 0-17.963 8.982 8.982 0 0 0 0 17.964z" clip-path="url(#p54c008131e)" style="fill:#c9314c"/><path id="patch_358" d="M788.91 704.126a5.988 5.988 0 1 0 0-11.975 5.988 5.988 0 0 0 0 11.975z" clip-path="url(#p54c008131e)" style="fill:#b81e48"/><path id="patch_359" d="M749.073 589.888a4.99 4.99 0 1 0 0-9.98 4.99 4.99 0 0 0 0 9.98z" clip-path="url(#p54c008131e)" style="fill:#b41947"/><path id="patch_360" d="M169.232 337.407a3.992 3.992 0 1 0 0-7.983 3.992 3.992 0 0 0 0 7.983z" clip-path="url(#p54c008131e)" style="fill:#ad1246"/><path id="patch_361" d="M914.195 1153.44a2.994 2.994 0 1 0 0-5.988 2.994 2.994 0 0 0 0 5.988z" clip-path="url(#p54c008131e)" style="fill:#a90d45"/><path id="patch_362" d="M289.837 1153.44a1.996 1.996 0 1 0 0-3.992 1.996 1.996 0 0 0 0 3.992z" clip-path="url(#p54c008131e)" style="fill:#a20643"/><path id="patch_363" d="M166.238 394.431a.998.998 0 1 0 0-1.996.998.998 0 0 0 0 1.996z" clip-path="url(#p54c008131e)" style="fill:#9e0142"/><path id="patch_364" d="M662.483 849.827a5.988 5.988 0 1 0 0-11.976 5.988 5.988 0 0 0 0 11.976z" clip-path="url(#p54c008131e)" style="fill:#b81e48"/><path id="patch_365" d="M983.5 494.54a4.99 4.99 0 1 0 0-9.98 4.99 4.99 0 0 0 0 9.98z" clip-path="url(#p54c008131e)" style="fill:#b41947"/><path id="patch_366" d="M169.232 411.318a3.992 3.992 0 1 0 0-7.983 3.992 3.992 0 0 0 0 7.983z" clip-path="url(#p54c008131e)" style="fill:#ad1246"/><path id="patch_367" d="M859.122 981.888a8.982 8.982 0 1 0 0-17.963 8.982 8.982 0 0 0 0 17.963z" clip-path="url(#p54c008131e)" style="fill:#c9314c"/><g id="matplotlib.axis_1"><g id="xtick_1"><g id="line2d_1"><defs><path id="m3a019dd21e" d="M0 0v3.5" style="stroke:#000;stroke-width:.8"/></defs><use xlink:href="#m3a019dd21e" x="165.24" y="1153.44" style="stroke:#000;stroke-width:.8"/></g><g id="text_1" transform="matrix(.1 0 0 -.1 162.059 1168.038)"><defs><path id="DejaVuSans-30" d="M2034 4250q-487 0-733-480-245-479-245-1442 0-959 245-1439 246-480 733-480 491 0 736 480 246 480 246 1439 0 963-246 1442-245 480-736 480zm0 500q785 0 1199-621 414-620 414-1801 0-1178-414-1799Q2819-91 2034-91q-784 0-1198 620-414 621-414 1799 0 1181 414 1801 414 621 1198 621z" transform="scale(.01563)"/></defs><use xlink:href="#DejaVuSans-30"/></g></g><g id="xtick_2"><use xlink:href="#m3a019dd21e" id="line2d_2" x="364.824" y="1153.44" style="stroke:#000;stroke-width:.8"/><g id="text_2" transform="matrix(.1 0 0 -.1 355.28 1168.038)"><defs><path id="DejaVuSans-32" d="M1228 531h2203V0H469v531q359 372 979 998 621 627 780 809 303 340 423 576 121 236 121 464 0 372-261 606-261 235-680 235-297 0-627-103-329-103-704-313v638q381 153 712 231 332 78 607 78 725 0 1156-363 431-362 431-968 0-288-108-546-107-257-392-607-78-91-497-524-418-433-1181-1211z" transform="scale(.01563)"/></defs><use xlink:href="#DejaVuSans-32"/><use xlink:href="#DejaVuSans-30" x="63.623"/><use xlink:href="#DejaVuSans-30" x="127.246"/></g></g><g id="xtick_3"><use xlink:href="#m3a019dd21e" id="line2d_3" x="564.408" y="1153.44" style="stroke:#000;stroke-width:.8"/><g id="text_3" transform="matrix(.1 0 0 -.1 554.864 1168.038)"><defs><path id="DejaVuSans-34" d="M2419 4116 825 1625h1594v2491zm-166 550h794V1625h666v-525h-666V0h-628v1100H313v609l1940 2957z" transform="scale(.01563)"/></defs><use xlink:href="#DejaVuSans-34"/><use xlink:href="#DejaVuSans-30" x="63.623"/><use xlink:href="#DejaVuSans-30" x="127.246"/></g></g><g id="xtick_4"><use xlink:href="#m3a019dd21e" id="line2d_4" x="763.992" y="1153.44" style="stroke:#000;stroke-width:.8"/><g id="text_4" transform="matrix(.1 0 0 -.1 754.448 1168.038)"><defs><path id="DejaVuSans-36" d="M2113 2584q-425 0-674-291-248-290-248-796 0-503 248-796 249-292 674-292t673 292q248 293 248 796 0 506-248 796-248 291-673 291zm1253 1979v-575q-238 112-480 171-242 60-480 60-625 0-955-422-329-422-376-1275 184 272 462 417 279 145 613 145 703 0 1111-427 408-426 408-1160 0-719-425-1154Q2819-91 2113-91q-810 0-1238 620-428 621-428 1799 0 1106 525 1764t1409 658q238 0 480-47t505-140z" transform="scale(.01563)"/></defs><use xlink:href="#DejaVuSans-36"/><use xlink:href="#DejaVuSans-30" x="63.623"/><use xlink:href="#DejaVuSans-30" x="127.246"/></g></g><g id="xtick_5"><use xlink:href="#m3a019dd21e" id="line2d_5" x="963.576" y="1153.44" style="stroke:#000;stroke-width:.8"/><g id="text_5" transform="matrix(.1 0 0 -.1 954.032 1168.038)"><defs><path id="DejaVuSans-38" d="M2034 2216q-450 0-708-241-257-241-257-662 0-422 257-663 258-241 708-241t709 242q260 243 260 662 0 421-258 662-257 241-711 241zm-631 268q-406 100-633 378-226 279-226 679 0 559 398 884 399 325 1092 325 697 0 1094-325t397-884q0-400-227-679-226-278-629-378 456-106 710-416 255-309 255-755 0-679-414-1042Q2806-91 2034-91q-771 0-1186 362-414 363-414 1042 0 446 256 755 257 310 713 416zm-231 997q0-362 226-565 227-203 636-203 407 0 636 203 230 203 230 565 0 363-230 566-229 203-636 203-409 0-636-203-226-203-226-566z" transform="scale(.01563)"/></defs><use xlink:href="#DejaVuSans-38"/><use xlink:href="#DejaVuSans-30" x="63.623"/><use xlink:href="#DejaVuSans-30" x="127.246"/></g></g><g id="xtick_6"><use xlink:href="#m3a019dd21e" id="line2d_6" x="1163.16" y="1153.44" style="stroke:#000;stroke-width:.8"/><g id="text_6" transform="matrix(.1 0 0 -.1 1150.435 1168.038)"><defs><path id="DejaVuSans-31" d="M794 531h1031v3560L703 3866v575l1116 225h631V531h1031V0H794v531z" transform="scale(.01563)"/></defs><use xlink:href="#DejaVuSans-31"/><use xlink:href="#DejaVuSans-30" x="63.623"/><use xlink:href="#DejaVuSans-30" x="127.246"/><use xlink:href="#DejaVuSans-30" x="190.869"/></g></g></g><g id="matplotlib.axis_2"><g id="ytick_1"><g id="line2d_7"><defs><path id="mfb58d32078" d="M0 0h-3.5" style="stroke:#000;stroke-width:.8"/></defs><use xlink:href="#mfb58d32078" x="165.24" y="1153.44" style="stroke:#000;stroke-width:.8"/></g><use xlink:href="#DejaVuSans-30" id="text_7" transform="matrix(.1 0 0 -.1 151.877 1157.24)"/></g><g id="ytick_2"><use xlink:href="#mfb58d32078" id="line2d_8" x="165.24" y="953.856" style="stroke:#000;stroke-width:.8"/><g id="text_8" transform="matrix(.1 0 0 -.1 139.153 957.655)"><use xlink:href="#DejaVuSans-32"/><use xlink:href="#DejaVuSans-30" x="63.623"/><use xlink:href="#DejaVuSans-30" x="127.246"/></g></g><g id="ytick_3"><use xlink:href="#mfb58d32078" id="line2d_9" x="165.24" y="754.272" style="stroke:#000;stroke-width:.8"/><g id="text_9" transform="matrix(.1 0 0 -.1 139.153 758.071)"><use xlink:href="#DejaVuSans-34"/><use xlink:href="#DejaVuSans-30" x="63.623"/><use xlink:href="#DejaVuSans-30" x="127.246"/></g></g><g id="ytick_4"><use xlink:href="#mfb58d32078" id="line2d_10" x="165.24" y="554.688" style="stroke:#000;stroke-width:.8"/><g id="text_10" transform="matrix(.1 0 0 -.1 139.153 558.487)"><use xlink:href="#DejaVuSans-36"/><use xlink:href="#DejaVuSans-30" x="63.623"/><use xlink:href="#DejaVuSans-30" x="127.246"/></g></g><g id="ytick_5"><use xlink:href="#mfb58d32078" id="line2d_11" x="165.24" y="355.104" style="stroke:#000;stroke-width:.8"/><g id="text_11" transform="matrix(.1 0 0 -.1 139.153 358.903)"><use xlink:href="#DejaVuSans-38"/><use xlink:href="#DejaVuSans-30" x="63.623"/><use xlink:href="#DejaVuSans-30" x="127.246"/></g></g><g id="ytick_6"><use xlink:href="#mfb58d32078" id="line2d_12" x="165.24" y="155.52" style="stroke:#000;stroke-width:.8"/><g id="text_12" transform="matrix(.1 0 0 -.1 132.79 159.32)"><use xlink:href="#DejaVuSans-31"/><use xlink:href="#DejaVuSans-30" x="63.623"/><use xlink:href="#DejaVuSans-30" x="127.246"/><use xlink:href="#DejaVuSans-30" x="190.869"/></g></g></g><path id="patch_368" d="M165.24 1153.44V155.52" style="fill:none;stroke:#000;stroke-width:.8;stroke-linejoin:miter;stroke-linecap:square"/><path id="patch_369" d="M1163.16 1153.44V155.52" style="fill:none;stroke:#000;stroke-width:.8;stroke-linejoin:miter;stroke-linecap:square"/><path id="patch_370" d="M165.24 1153.44h997.92" style="fill:none;stroke:#000;stroke-width:.8;stroke-linejoin:miter;stroke-linecap:square"/><path id="patch_371" d="M165.24 155.52h997.92" style="fill:none;stroke:#000;stroke-width:.8;stroke-linejoin:miter;stroke-linecap:square"/><g id="text_13" transform="matrix(.12 0 0 -.12 445.252 149.52)"><defs><path id="DejaVuSans-4c" d="M628 4666h631V531h2272V0H628v4666z" transform="scale(.01563)"/><path id="DejaVuSans-69" d="M603 3500h575V0H603v3500zm0 1363h575v-729H603v729z" transform="scale(.01563)"/><path id="DejaVuSans-6e" d="M3513 2113V0h-575v2094q0 497-194 743-194 247-581 247-466 0-735-297-269-296-269-809V0H581v3500h578v-544q207 316 486 472 280 156 646 156 603 0 912-373 310-373 310-1098z" transform="scale(.01563)"/><path id="DejaVuSans-65" d="M3597 1894v-281H953q38-594 358-905t892-311q331 0 642 81t618 244V178Q3153 47 2828-22t-659-69q-838 0-1327 487-489 488-489 1320 0 859 464 1363 464 505 1252 505 706 0 1117-455 411-454 411-1235zm-575 169q-6 471-264 752-258 282-683 282-481 0-770-272t-333-766l2050 4z" transform="scale(.01563)"/><path id="DejaVuSans-61" d="M2194 1759q-697 0-966-159t-269-544q0-306 202-486 202-179 548-179 479 0 768 339t289 901v128h-572zm1147 238V0h-575v531q-197-318-491-470T1556-91q-537 0-855 302-317 302-317 808 0 590 395 890 396 300 1180 300h807v57q0 397-261 614t-733 217q-300 0-585-72-284-72-546-216v532q315 122 612 182 297 61 578 61 760 0 1135-394 375-393 375-1193z" transform="scale(.01563)"/><path id="DejaVuSans-72" d="M2631 2963q-97 56-211 82-114 27-251 27-488 0-749-317t-261-911V0H581v3500h578v-544q182 319 472 473 291 155 707 155 59 0 131-8 72-7 159-23l3-590z" transform="scale(.01563)"/><path id="DejaVuSans-52" d="M2841 2188q203-69 395-294t386-619L4263 0h-679l-596 1197q-232 469-449 622t-592 153h-688V0H628v4666h1425q800 0 1194-335 394-334 394-1009 0-441-205-732-205-290-595-402zM1259 4147V2491h794q456 0 689 211t233 620q0 409-233 617t-689 208h-794z" transform="scale(.01563)"/><path id="DejaVuSans-64" d="M2906 2969v1894h575V0h-575v525q-181-312-458-464-276-152-664-152-634 0-1033 506-398 507-398 1332t398 1331q399 506 1033 506 388 0 664-152 277-151 458-463zM947 1747q0-634 261-995t717-361q456 0 718 361 263 361 263 995t-263 995q-262 361-718 361t-717-361q-261-361-261-995z" transform="scale(.01563)"/><path id="DejaVuSans-75" d="M544 1381v2119h575V1403q0-497 193-746 194-248 582-248 465 0 735 297 271 297 271 810v1984h575V0h-575v538q-209-319-486-474-276-155-642-155-603 0-916 375-312 375-312 1097zm1447 2203z" transform="scale(.01563)"/><path id="DejaVuSans-73" d="M2834 3397v-544q-243 125-506 187-262 63-544 63-428 0-642-131t-214-394q0-200 153-314t616-217l197-44q612-131 870-370t258-667q0-488-386-773Q2250-91 1575-91q-281 0-586 55T347 128v594q319-166 628-249 309-82 613-82 406 0 624 139 219 139 219 392 0 234-158 359-157 125-692 241l-200 47q-534 112-772 345-237 233-237 639 0 494 350 762 350 269 994 269 318 0 599-47 282-46 519-140z" transform="scale(.01563)"/><path id="DejaVuSans-56" d="M1831 0 50 4666h659L2188 738l1481 3928h656L2547 0h-716z" transform="scale(.01563)"/><path id="DejaVuSans-74" d="M1172 4494v-994h1184v-447H1172V1153q0-428 117-550t477-122h590V0h-590q-666 0-919 248-253 249-253 905v1900H172v447h422v994h578z" transform="scale(.01563)"/><path id="DejaVuSans-6f" d="M1959 3097q-462 0-731-361t-269-989q0-628 267-989 268-361 733-361 460 0 728 362 269 363 269 988 0 622-269 986-268 364-728 364zm0 487q750 0 1178-488 429-487 429-1349 0-859-429-1349Q2709-91 1959-91q-753 0-1180 489-426 490-426 1349 0 862 426 1349 427 488 1180 488z" transform="scale(.01563)"/><path id="DejaVuSans-46" d="M628 4666h2681v-532H1259V2759h1850v-531H1259V0H628v4666z" transform="scale(.01563)"/><path id="DejaVuSans-2c" d="M750 794h659V256L897-744H494L750 256v538z" transform="scale(.01563)"/><path id="DejaVuSans-62" d="M3116 1747q0 634-261 995t-717 361q-457 0-718-361t-261-995q0-634 261-995t718-361q456 0 717 361t261 995zM1159 2969q182 312 458 463 277 152 661 152 638 0 1036-506 399-506 399-1331T3314 415Q2916-91 2278-91q-384 0-661 152-276 152-458 464V0H581v4863h578V2969z" transform="scale(.01563)"/><path id="DejaVuSans-3d" d="M678 2906h4006v-525H678v525zm0-1275h4006v-531H678v531z" transform="scale(.01563)"/><path id="DejaVuSans-2e" d="M684 794h660V0H684v794z" transform="scale(.01563)"/><path id="DejaVuSans-39" d="M703 97v575q238-113 481-172 244-59 479-59 625 0 954 420 330 420 377 1277-181-269-460-413-278-144-615-144-700 0-1108 423-408 424-408 1159 0 718 425 1152 425 435 1131 435 810 0 1236-621 427-620 427-1801 0-1103-524-1761Q2575-91 1691-91q-238 0-482 47Q966 3 703 97zm1256 1978q425 0 673 290 249 291 249 798 0 503-249 795-248 292-673 292t-673-292q-248-292-248-795 0-507 248-798 248-290 673-290z" transform="scale(.01563)"/><path id="DejaVuSans-33" d="M2597 2516q453-97 707-404 255-306 255-756 0-690-475-1069Q2609-91 1734-91q-293 0-604 58T488 141v609q262-153 574-231 313-78 654-78 593 0 904 234t311 681q0 413-289 645-289 233-804 233h-544v519h569q465 0 712 186t247 536q0 359-255 551-254 193-729 193-260 0-557-57-297-56-653-174v562q360 100 674 150t592 50q719 0 1137-327 419-326 419-882 0-388-222-655t-631-370z" transform="scale(.01563)"/><path id="DejaVuSans-37" d="M525 4666h3000v-269L1831 0h-659l1594 4134H525v532z" transform="scale(.01563)"/><path id="DejaVuSans-35" d="M691 4666h2478v-532H1269V2991q137 47 274 70 138 23 276 23 781 0 1237-428 457-428 457-1159 0-753-469-1171Q2575-91 1722-91q-294 0-599 50Q819 9 494 109v635q281-153 581-228t634-75q541 0 856 284 316 284 316 772 0 487-316 771-315 285-856 285-253 0-505-56-251-56-513-175v2344z" transform="scale(.01563)"/></defs><use xlink:href="#DejaVuSans-4c"/><use xlink:href="#DejaVuSans-69" x="55.713"/><use xlink:href="#DejaVuSans-6e" x="83.496"/><use xlink:href="#DejaVuSans-65" x="146.875"/><use xlink:href="#DejaVuSans-61" x="208.398"/><use xlink:href="#DejaVuSans-72" x="269.678"/><use xlink:href="#DejaVuSans-52" x="310.791"/><use xlink:href="#DejaVuSans-61" x="378.023"/><use xlink:href="#DejaVuSans-64" x="439.303"/><use xlink:href="#DejaVuSans-69" x="502.779"/><use xlink:href="#DejaVuSans-75" x="530.563"/><use xlink:href="#DejaVuSans-73" x="593.941"/><use xlink:href="#DejaVuSans-56" x="646.041"/><use xlink:href="#DejaVuSans-61" x="706.699"/><use xlink:href="#DejaVuSans-72" x="767.979"/><use xlink:href="#DejaVuSans-69" x="809.092"/><use xlink:href="#DejaVuSans-61" x="836.875"/><use xlink:href="#DejaVuSans-74" x="898.154"/><use xlink:href="#DejaVuSans-69" x="937.363"/><use xlink:href="#DejaVuSans-6f" x="965.146"/><use xlink:href="#DejaVuSans-6e" x="1026.328"/><use xlink:href="#DejaVuSans-46" x="1089.707"/><use xlink:href="#DejaVuSans-6f" x="1143.602"/><use xlink:href="#DejaVuSans-72" x="1204.783"/><use xlink:href="#DejaVuSans-65" x="1243.646"/><use xlink:href="#DejaVuSans-73" x="1305.17"/><use xlink:href="#DejaVuSans-74" x="1357.27"/><use xlink:href="#DejaVuSans-2c" x="1396.479"/><use xlink:href="#DejaVuSans-20" x="1428.266"/><use xlink:href="#DejaVuSans-62" x="1460.053"/><use xlink:href="#DejaVuSans-3d" x="1523.529"/><use xlink:href="#DejaVuSans-30" x="1607.318"/><use xlink:href="#DejaVuSans-2e" x="1670.941"/><use xlink:href="#DejaVuSans-38" x="1702.729"/><use xlink:href="#DejaVuSans-39" x="1766.352"/><use xlink:href="#DejaVuSans-36" x="1829.975"/><use xlink:href="#DejaVuSans-33" x="1893.598"/><use xlink:href="#DejaVuSans-34" x="1957.221"/><use xlink:href="#DejaVuSans-31" x="2020.844"/><use xlink:href="#DejaVuSans-33" x="2084.467"/><use xlink:href="#DejaVuSans-2c" x="2148.09"/><use xlink:href="#DejaVuSans-20" x="2179.877"/><use xlink:href="#DejaVuSans-61" x="2211.664"/><use xlink:href="#DejaVuSans-3d" x="2272.943"/><use xlink:href="#DejaVuSans-30" x="2356.732"/><use xlink:href="#DejaVuSans-2e" x="2420.355"/><use xlink:href="#DejaVuSans-39" x="2452.143"/><use xlink:href="#DejaVuSans-33" x="2515.766"/><use xlink:href="#DejaVuSans-38" x="2579.389"/><use xlink:href="#DejaVuSans-31" x="2643.012"/><use xlink:href="#DejaVuSans-34" x="2706.635"/><use xlink:href="#DejaVuSans-38" x="2770.258"/><use xlink:href="#DejaVuSans-37" x="2833.881"/><use xlink:href="#DejaVuSans-2c" x="2897.504"/><use xlink:href="#DejaVuSans-20" x="2929.291"/><use xlink:href="#DejaVuSans-64" x="2961.078"/><use xlink:href="#DejaVuSans-3d" x="3024.555"/><use xlink:href="#DejaVuSans-30" x="3108.344"/><use xlink:href="#DejaVuSans-2e" x="3171.967"/><use xlink:href="#DejaVuSans-39" x="3203.754"/><use xlink:href="#DejaVuSans-35" x="3267.377"/><use xlink:href="#DejaVuSans-35" x="3331"/><use xlink:href="#DejaVuSans-34" x="3394.623"/><use xlink:href="#DejaVuSans-33" x="3458.246"/><use xlink:href="#DejaVuSans-36" x="3521.869"/><use xlink:href="#DejaVuSans-33" x="3585.492"/></g></g></g><defs><clipPath id="p54c008131e"><path d="M165.24 155.52h997.92v997.92H165.24z"/></clipPath></defs></svg>