<svg xmlns="http://www.w3.org/2000/svg" xmlns:xlink="http://www.w3.org/1999/xlink" width="864" height="345.6" viewBox="0 0 648 259.2"><defs><style>*{stroke-linejoin:round;stroke-linecap:butt}</style></defs><g id="figure_1"><path id="patch_1" d="M0 259.2h648V0H0z" style="fill:#fff"/><g id="axes_1"><path id="patch_2" d="M82.62 230.688h498.96V31.104H82.62z" style="fill:#fff"/><path id="patch_3" d="M569.605 55.054a11.976 11.976 0 1 0 0-23.951 11.976 11.976 0 0 0 0 23.951z" clip-path="url(#p5df3dddd0d)" style="fill:#9e0142"/><path id="patch_4" d="M545.655 55.054a11.976 11.976 0 1 0 0-23.951 11.976 11.976 0 0 0 0 23.951z" clip-path="url(#p5df3dddd0d)" style="fill:#9e0142"/><path id="patch_5" d="M572.599 72.802a8.982 8.982 0 1 0 0-17.964 8.982 8.982 0 0 0 0 17.964z" clip-path="url(#p5df3dddd0d)" style="fill:#86cfa5"/><path id="patch_6" d="M558.996 63.561a5.988 5.988 0 1 0 0-11.975 5.988 5.988 0 0 0 0 11.975z" clip-path="url(#p5df3dddd0d)" style="fill:#f98e52"/><path id="patch_7" d="M94.595 55.054a11.976 11.976 0 1 0 0-23.951 11.976 11.976 0 0 0 0 23.951z" clip-path="url(#p5df3dddd0d)" style="fill:#9e0142"/><path id="patch_8" d="M572.599 230.688a8.982 8.982 0 1 0 0-17.963 8.982 8.982 0 0 0 0 17.963z" clip-path="url(#p5df3dddd0d)" style="fill:#86cfa5"/><path id="patch_9" d="M86.612 230.688a3.992 3.992 0 1 0 0-7.984 3.992 3.992 0 0 0 0 7.984z" clip-path="url(#p5df3dddd0d)" style="fill:#ffffbe"/><path id="patch_10" d="M557.63 37.092a2.994 2.994 0 1 0 0-5.988 2.994 2.994 0 0 0 0 5.988z" clip-path="url(#p5df3dddd0d)" style="fill:#5e4fa2"/><path id="patch_11" d="M551.857 230.688a11.976 11.976 0 1 0 0-23.951 11.976 11.976 0 0 0 0 23.951z" clip-path="url(#p5df3dddd0d)" style="fill:#9e0142"/><path id="patch_12" d="M115.336 49.067a8.982 8.982 0 1 0 0-17.964 8.982 8.982 0 0 0 0 17.964z" clip-path="url(#p5df3dddd0d)" style="fill:#86cfa5"/><path id="patch_13" d="M534.922 230.688a5.988 5.988 0 1 0 0-11.976 5.988 5.988 0 0 0 0 11.976z" clip-path="url(#p5df3dddd0d)" style="fill:#f98e52"/><path id="patch_14" d="M521.705 55.054a11.976 11.976 0 1 0 0-23.951 11.976 11.976 0 0 0 0 23.951z" clip-path="url(#p5df3dddd0d)" style="fill:#9e0142"/><path id="patch_15" d="M533.68 57.632a3.992 3.992 0 1 0 0-7.984 3.992 3.992 0 0 0 0 7.984z" clip-path="url(#p5df3dddd0d)" style="fill:#ffffbe"/><path id="patch_16" d="M569.605 96.537a11.976 11.976 0 1 0 0-23.951 11.976 11.976 0 0 0 0 23.95z" clip-path="url(#p5df3dddd0d)" style="fill:#9e0142"/><path id="patch_17" d="M98.587 230.688a8.982 8.982 0 1 0 0-17.963 8.982 8.982 0 0 0 0 17.963z" clip-path="url(#p5df3dddd0d)" style="fill:#86cfa5"/><path id="patch_18" d="M558.996 76.055a5.988 5.988 0 1 0 0-11.976 5.988 5.988 0 0 0 0 11.976z" clip-path="url(#p5df3dddd0d)" style="fill:#f98e52"/><path id="patch_19" d="M533.68 37.092a2.994 2.994 0 1 0 0-5.988 2.994 2.994 0 0 0 0 5.988z" clip-path="url(#p5df3dddd0d)" style="fill:#5e4fa2"/><path id="patch_20" d="M136.078 55.054a11.976 11.976 0 1 0 0-23.951 11.976 11.976 0 0 0 0 23.951z" clip-path="url(#p5df3dddd0d)" style="fill:#9e0142"/><path id="patch_21" d="M541.88 72.674a8.982 8.982 0 1 0 0-17.964 8.982 8.982 0 0 0 0 17.964z" clip-path="url(#p5df3dddd0d)" style="fill:#86cfa5"/><path id="patch_22" d="M527.126 67.153a5.988 5.988 0 1 0 0-11.976 5.988 5.988 0 0 0 0 11.976z" clip-path="url(#p5df3dddd0d)" style="fill:#f98e52"/><path id="patch_23" d="M525.144 230.688a3.992 3.992 0 1 0 0-7.984 3.992 3.992 0 0 0 0 7.984z" clip-path="url(#p5df3dddd0d)" style="fill:#ffffbe"/><path id="patch_24" d="M160.028 55.054a11.976 11.976 0 1 0 0-23.951 11.976 11.976 0 0 0 0 23.951z" clip-path="url(#p5df3dddd0d)" style="fill:#9e0142"/><path id="patch_25" d="M548.929 90.127a8.982 8.982 0 1 0 0-17.964 8.982 8.982 0 0 0 0 17.964z" clip-path="url(#p5df3dddd0d)" style="fill:#86cfa5"/><path id="patch_26" d="M497.755 55.054a11.976 11.976 0 1 0 0-23.951 11.976 11.976 0 0 0 0 23.951z" clip-path="url(#p5df3dddd0d)" style="fill:#9e0142"/><path id="patch_27" d="M509.73 69.258a8.982 8.982 0 1 0 0-17.963 8.982 8.982 0 0 0 0 17.963z" clip-path="url(#p5df3dddd0d)" style="fill:#86cfa5"/><path id="patch_28" d="M554.897 100.86a5.988 5.988 0 1 0 0-11.975 5.988 5.988 0 0 0 0 11.976z" clip-path="url(#p5df3dddd0d)" style="fill:#f98e52"/><path id="patch_29" d="M85.614 222.776a2.994 2.994 0 1 0 0-5.988 2.994 2.994 0 0 0 0 5.988z" clip-path="url(#p5df3dddd0d)" style="fill:#5e4fa2"/><path id="patch_30" d="M473.805 55.054a11.976 11.976 0 1 0 0-23.951 11.976 11.976 0 0 0 0 23.951z" clip-path="url(#p5df3dddd0d)" style="fill:#9e0142"/><path id="patch_31" d="M86.612 216.86a3.992 3.992 0 1 0 0-7.983 3.992 3.992 0 0 0 0 7.983z" clip-path="url(#p5df3dddd0d)" style="fill:#ffffbe"/><path id="patch_32" d="M183.978 55.054a11.976 11.976 0 1 0 0-23.951 11.976 11.976 0 0 0 0 23.951z" clip-path="url(#p5df3dddd0d)" style="fill:#9e0142"/><path id="patch_33" d="M513.17 230.688a8.982 8.982 0 1 0 0-17.963 8.982 8.982 0 0 0 0 17.963z" clip-path="url(#p5df3dddd0d)" style="fill:#86cfa5"/><path id="patch_34" d="M456.87 43.079a5.988 5.988 0 1 0 0-11.976 5.988 5.988 0 0 0 0 11.976z" clip-path="url(#p5df3dddd0d)" style="fill:#f98e52"/><path id="patch_35" d="M509.73 37.092a2.994 2.994 0 1 0 0-5.988 2.994 2.994 0 0 0 0 5.988z" clip-path="url(#p5df3dddd0d)" style="fill:#5e4fa2"/><path id="patch_36" d="M207.928 55.054a11.976 11.976 0 1 0 0-23.951 11.976 11.976 0 0 0 0 23.951z" clip-path="url(#p5df3dddd0d)" style="fill:#9e0142"/><path id="patch_37" d="M91.601 209.875a8.982 8.982 0 1 0 0-17.963 8.982 8.982 0 0 0 0 17.963z" clip-path="url(#p5df3dddd0d)" style="fill:#86cfa5"/><path id="patch_38" d="M525.799 222.731a3.992 3.992 0 1 0 0-7.983 3.992 3.992 0 0 0 0 7.983z" clip-path="url(#p5df3dddd0d)" style="fill:#ffffbe"/><path id="patch_39" d="M569.605 120.487a11.976 11.976 0 1 0 0-23.951 11.976 11.976 0 0 0 0 23.95z" clip-path="url(#p5df3dddd0d)" style="fill:#9e0142"/><path id="patch_40" d="M228.67 49.067a8.982 8.982 0 1 0 0-17.964 8.982 8.982 0 0 0 0 17.964z" clip-path="url(#p5df3dddd0d)" style="fill:#86cfa5"/><path id="patch_41" d="M534.922 218.713a5.988 5.988 0 1 0 0-11.976 5.988 5.988 0 0 0 0 11.976z" clip-path="url(#p5df3dddd0d)" style="fill:#f98e52"/><path id="patch_42" d="M439.934 55.054a11.976 11.976 0 1 0 0-23.951 11.976 11.976 0 0 0 0 23.951z" clip-path="url(#p5df3dddd0d)" style="fill:#9e0142"/><path id="patch_43" d="M572.599 138.235a8.982 8.982 0 1 0 0-17.964 8.982 8.982 0 0 0 0 17.964z" clip-path="url(#p5df3dddd0d)" style="fill:#86cfa5"/><path id="patch_44" d="M456.87 55.054a5.988 5.988 0 1 0 0-11.976 5.988 5.988 0 0 0 0 11.976z" clip-path="url(#p5df3dddd0d)" style="fill:#f98e52"/><path id="patch_45" d="M521.67 215.899a3.992 3.992 0 1 0 0-7.984 3.992 3.992 0 0 0 0 7.984z" clip-path="url(#p5df3dddd0d)" style="fill:#ffffbe"/><path id="patch_46" d="M148.053 37.092a2.994 2.994 0 1 0 0-5.988 2.994 2.994 0 0 0 0 5.988z" clip-path="url(#p5df3dddd0d)" style="fill:#5e4fa2"/><path id="patch_47" d="M94.595 192.127a11.976 11.976 0 1 0 0-23.95 11.976 11.976 0 0 0 0 23.95z" clip-path="url(#p5df3dddd0d)" style="fill:#9e0142"/><path id="patch_48" d="M249.41 55.054a11.976 11.976 0 1 0 0-23.951 11.976 11.976 0 0 0 0 23.951z" clip-path="url(#p5df3dddd0d)" style="fill:#9e0142"/><path id="patch_49" d="M419.193 49.067a8.982 8.982 0 1 0 0-17.964 8.982 8.982 0 0 0 0 17.964z" clip-path="url(#p5df3dddd0d)" style="fill:#86cfa5"/><path id="patch_50" d="M575.592 149.907a5.988 5.988 0 1 0 0-11.975 5.988 5.988 0 0 0 0 11.975z" clip-path="url(#p5df3dddd0d)" style="fill:#f98e52"/><path id="patch_51" d="M492.428 230.688a11.976 11.976 0 1 0 0-23.951 11.976 11.976 0 0 0 0 23.951z" clip-path="url(#p5df3dddd0d)" style="fill:#9e0142"/><path id="patch_52" d="M270.152 49.067a8.982 8.982 0 1 0 0-17.964 8.982 8.982 0 0 0 0 17.964z" clip-path="url(#p5df3dddd0d)" style="fill:#86cfa5"/><path id="patch_53" d="M86.612 170.316a3.992 3.992 0 1 0 0-7.983 3.992 3.992 0 0 0 0 7.983z" clip-path="url(#p5df3dddd0d)" style="fill:#ffffbe"/><path id="patch_54" d="M172.003 37.092a2.994 2.994 0 1 0 0-5.988 2.994 2.994 0 0 0 0 5.988z" clip-path="url(#p5df3dddd0d)" style="fill:#5e4fa2"/><path id="patch_55" d="M119.328 230.688a11.976 11.976 0 1 0 0-23.951 11.976 11.976 0 0 0 0 23.951z" clip-path="url(#p5df3dddd0d)" style="fill:#9e0142"/><path id="patch_56" d="M108.764 204.574a8.982 8.982 0 1 0 0-17.963 8.982 8.982 0 0 0 0 17.963z" clip-path="url(#p5df3dddd0d)" style="fill:#86cfa5"/><path id="patch_57" d="M404.526 43.079a5.988 5.988 0 1 0 0-11.976 5.988 5.988 0 0 0 0 11.976z" clip-path="url(#p5df3dddd0d)" style="fill:#f98e52"/><path id="patch_58" d="M468.478 230.688a11.976 11.976 0 1 0 0-23.951 11.976 11.976 0 0 0 0 23.951z" clip-path="url(#p5df3dddd0d)" style="fill:#9e0142"/><path id="patch_59" d="M105.5 214.721a3.992 3.992 0 1 0 0-7.983 3.992 3.992 0 0 0 0 7.983z" clip-path="url(#p5df3dddd0d)" style="fill:#ffffbe"/><path id="patch_60" d="M569.605 172.83a11.976 11.976 0 1 0 0-23.951 11.976 11.976 0 0 0 0 23.95z" clip-path="url(#p5df3dddd0d)" style="fill:#9e0142"/><path id="patch_61" d="M288.115 49.067a8.982 8.982 0 1 0 0-17.964 8.982 8.982 0 0 0 0 17.964z" clip-path="url(#p5df3dddd0d)" style="fill:#86cfa5"/><path id="patch_62" d="M563.617 149.907a5.988 5.988 0 1 0 0-11.975 5.988 5.988 0 0 0 0 11.975z" clip-path="url(#p5df3dddd0d)" style="fill:#f98e52"/><path id="patch_63" d="M485.78 37.092a2.994 2.994 0 1 0 0-5.988 2.994 2.994 0 0 0 0 5.988z" clip-path="url(#p5df3dddd0d)" style="fill:#5e4fa2"/><path id="patch_64" d="M94.595 164.472a11.976 11.976 0 1 0 0-23.951 11.976 11.976 0 0 0 0 23.951z" clip-path="url(#p5df3dddd0d)" style="fill:#9e0142"/><path id="patch_65" d="M140.07 230.688a8.982 8.982 0 1 0 0-17.963 8.982 8.982 0 0 0 0 17.963z" clip-path="url(#p5df3dddd0d)" style="fill:#86cfa5"/><path id="patch_66" d="M451.543 230.688a5.988 5.988 0 1 0 0-11.976 5.988 5.988 0 0 0 0 11.976z" clip-path="url(#p5df3dddd0d)" style="fill:#f98e52"/><path id="patch_67" d="M394.749 39.087a3.992 3.992 0 1 0 0-7.983 3.992 3.992 0 0 0 0 7.983z" clip-path="url(#p5df3dddd0d)" style="fill:#ffffbe"/><path id="patch_68" d="M94.595 140.522a11.976 11.976 0 1 0 0-23.951 11.976 11.976 0 0 0 0 23.951z" clip-path="url(#p5df3dddd0d)" style="fill:#9e0142"/><path id="patch_69" d="M572.599 190.578a8.982 8.982 0 1 0 0-17.964 8.982 8.982 0 0 0 0 17.964z" clip-path="url(#p5df3dddd0d)" style="fill:#86cfa5"/><path id="patch_70" d="M578.586 99.53a2.994 2.994 0 1 0 0-5.987 2.994 2.994 0 0 0 0 5.988z" clip-path="url(#p5df3dddd0d)" style="fill:#5e4fa2"/><path id="patch_71" d="M308.856 55.054a11.976 11.976 0 1 0 0-23.951 11.976 11.976 0 0 0 0 23.951z" clip-path="url(#p5df3dddd0d)" style="fill:#9e0142"/><path id="patch_72" d="M572.599 208.54a8.982 8.982 0 1 0 0-17.963 8.982 8.982 0 0 0 0 17.963z" clip-path="url(#p5df3dddd0d)" style="fill:#86cfa5"/><path id="patch_73" d="M154.736 230.688a5.988 5.988 0 1 0 0-11.976 5.988 5.988 0 0 0 0 11.976z" clip-path="url(#p5df3dddd0d)" style="fill:#f98e52"/><path id="patch_74" d="M565.685 214.721a3.992 3.992 0 1 0 0-7.983 3.992 3.992 0 0 0 0 7.983z" clip-path="url(#p5df3dddd0d)" style="fill:#ffffbe"/><path id="patch_75" d="M434.607 230.688a11.976 11.976 0 1 0 0-23.951 11.976 11.976 0 0 0 0 23.951z" clip-path="url(#p5df3dddd0d)" style="fill:#9e0142"/><path id="patch_76" d="M94.595 116.572a11.976 11.976 0 1 0 0-23.951 11.976 11.976 0 0 0 0 23.951z" clip-path="url(#p5df3dddd0d)" style="fill:#9e0142"/><path id="patch_77" d="M382.774 49.067a8.982 8.982 0 1 0 0-17.964 8.982 8.982 0 0 0 0 17.964z" clip-path="url(#p5df3dddd0d)" style="fill:#86cfa5"/><path id="patch_78" d="M451.543 218.713a5.988 5.988 0 1 0 0-11.976 5.988 5.988 0 0 0 0 11.976z" clip-path="url(#p5df3dddd0d)" style="fill:#f98e52"/><path id="patch_79" d="M195.953 37.092a2.994 2.994 0 1 0 0-5.988 2.994 2.994 0 0 0 0 5.988z" clip-path="url(#p5df3dddd0d)" style="fill:#5e4fa2"/><path id="patch_80" d="M332.806 55.054a11.976 11.976 0 1 0 0-23.951 11.976 11.976 0 0 0 0 23.951z" clip-path="url(#p5df3dddd0d)" style="fill:#9e0142"/><path id="patch_81" d="M91.601 92.837a8.982 8.982 0 1 0 0-17.964 8.982 8.982 0 0 0 0 17.964z" clip-path="url(#p5df3dddd0d)" style="fill:#86cfa5"/><path id="patch_82" d="M166.71 230.688a5.988 5.988 0 1 0 0-11.976 5.988 5.988 0 0 0 0 11.976z" clip-path="url(#p5df3dddd0d)" style="fill:#f98e52"/><path id="patch_83" d="M560.092 209.025a3.992 3.992 0 1 0 0-7.984 3.992 3.992 0 0 0 0 7.984z" clip-path="url(#p5df3dddd0d)" style="fill:#ffffbe"/><path id="patch_84" d="M356.756 55.054a11.976 11.976 0 1 0 0-23.951 11.976 11.976 0 0 0 0 23.951z" clip-path="url(#p5df3dddd0d)" style="fill:#9e0142"/><path id="patch_85" d="M91.601 74.874a8.982 8.982 0 1 0 0-17.963 8.982 8.982 0 0 0 0 17.963z" clip-path="url(#p5df3dddd0d)" style="fill:#86cfa5"/><path id="patch_86" d="M410.657 230.688a11.976 11.976 0 1 0 0-23.951 11.976 11.976 0 0 0 0 23.951z" clip-path="url(#p5df3dddd0d)" style="fill:#9e0142"/><path id="patch_87" d="M110.036 66.23a8.982 8.982 0 1 0 0-17.964 8.982 8.982 0 0 0 0 17.963z" clip-path="url(#p5df3dddd0d)" style="fill:#86cfa5"/><path id="patch_88" d="M103.576 80.862a5.988 5.988 0 1 0 0-11.976 5.988 5.988 0 0 0 0 11.976z" clip-path="url(#p5df3dddd0d)" style="fill:#f98e52"/><path id="patch_89" d="M396.414 46.895a3.992 3.992 0 1 0 0-7.984 3.992 3.992 0 0 0 0 7.984z" clip-path="url(#p5df3dddd0d)" style="fill:#ffffbe"/><path id="patch_90" d="M480.453 230.688a2.994 2.994 0 1 0 0-5.988 2.994 2.994 0 0 0 0 5.988z" clip-path="url(#p5df3dddd0d)" style="fill:#5e4fa2"/><path id="patch_91" d="M386.707 230.688a11.976 11.976 0 1 0 0-23.951 11.976 11.976 0 0 0 0 23.951z" clip-path="url(#p5df3dddd0d)" style="fill:#9e0142"/><path id="patch_92" d="M118.33 188.922a11.976 11.976 0 1 0 0-23.951 11.976 11.976 0 0 0 0 23.951z" clip-path="url(#p5df3dddd0d)" style="fill:#9e0142"/><path id="patch_93" d="M126.718 205.133a8.982 8.982 0 1 0 0-17.964 8.982 8.982 0 0 0 0 17.964z" clip-path="url(#p5df3dddd0d)" style="fill:#86cfa5"/><path id="patch_94" d="M494.77 66.78a5.988 5.988 0 1 0 0-11.976 5.988 5.988 0 0 0 0 11.975z" clip-path="url(#p5df3dddd0d)" style="fill:#f98e52"/><path id="patch_95" d="M370.584 39.087a3.992 3.992 0 1 0 0-7.983 3.992 3.992 0 0 0 0 7.983z" clip-path="url(#p5df3dddd0d)" style="fill:#ffffbe"/><path id="patch_96" d="M85.614 143.516a2.994 2.994 0 1 0 0-5.988 2.994 2.994 0 0 0 0 5.988z" clip-path="url(#p5df3dddd0d)" style="fill:#5e4fa2"/><path id="patch_97" d="M362.757 230.688a11.976 11.976 0 1 0 0-23.951 11.976 11.976 0 0 0 0 23.951z" clip-path="url(#p5df3dddd0d)" style="fill:#9e0142"/><path id="patch_98" d="M108.764 98.138a8.982 8.982 0 1 0 0-17.964 8.982 8.982 0 0 0 0 17.964z" clip-path="url(#p5df3dddd0d)" style="fill:#86cfa5"/><path id="patch_99" d="M183.646 230.688a11.976 11.976 0 1 0 0-23.951 11.976 11.976 0 0 0 0 23.951z" clip-path="url(#p5df3dddd0d)" style="fill:#9e0142"/><path id="patch_100" d="M405.759 60.99a8.982 8.982 0 1 0 0-17.963 8.982 8.982 0 0 0 0 17.964z" clip-path="url(#p5df3dddd0d)" style="fill:#86cfa5"/><path id="patch_101" d="M560.624 196.565a5.988 5.988 0 1 0 0-11.976 5.988 5.988 0 0 0 0 11.976z" clip-path="url(#p5df3dddd0d)" style="fill:#f98e52"/><path id="patch_102" d="M207.596 230.688a11.976 11.976 0 1 0 0-23.951 11.976 11.976 0 0 0 0 23.951z" clip-path="url(#p5df3dddd0d)" style="fill:#9e0142"/><path id="patch_103" d="M422.803 66.663a8.982 8.982 0 1 0 0-17.964 8.982 8.982 0 0 0 0 17.964z" clip-path="url(#p5df3dddd0d)" style="fill:#86cfa5"/><path id="patch_104" d="M551.07 206.755a5.988 5.988 0 1 0 0-11.975 5.988 5.988 0 0 0 0 11.975z" clip-path="url(#p5df3dddd0d)" style="fill:#f98e52"/><path id="patch_105" d="M133.156 214.721a3.992 3.992 0 1 0 0-7.983 3.992 3.992 0 0 0 0 7.983z" clip-path="url(#p5df3dddd0d)" style="fill:#ffffbe"/><path id="patch_106" d="M320.831 37.092a2.994 2.994 0 1 0 0-5.988 2.994 2.994 0 0 0 0 5.988z" clip-path="url(#p5df3dddd0d)" style="fill:#5e4fa2"/><path id="patch_107" d="M338.807 230.688a11.976 11.976 0 1 0 0-23.951 11.976 11.976 0 0 0 0 23.951z" clip-path="url(#p5df3dddd0d)" style="fill:#9e0142"/><path id="patch_108" d="M231.546 230.688a11.976 11.976 0 1 0 0-23.951 11.976 11.976 0 0 0 0 23.951z" clip-path="url(#p5df3dddd0d)" style="fill:#9e0142"/><path id="patch_109" d="M144.41 213.258a8.982 8.982 0 1 0 0-17.964 8.982 8.982 0 0 0 0 17.964z" clip-path="url(#p5df3dddd0d)" style="fill:#86cfa5"/><path id="patch_110" d="M160.723 220.317a5.988 5.988 0 1 0 0-11.975 5.988 5.988 0 0 0 0 11.975z" clip-path="url(#p5df3dddd0d)" style="fill:#f98e52"/><path id="patch_111" d="M486.84 58.725a3.992 3.992 0 1 0 0-7.984 3.992 3.992 0 0 0 0 7.984z" clip-path="url(#p5df3dddd0d)" style="fill:#ffffbe"/><path id="patch_112" d="M314.857 230.688a11.976 11.976 0 1 0 0-23.951 11.976 11.976 0 0 0 0 23.951z" clip-path="url(#p5df3dddd0d)" style="fill:#9e0142"/><path id="patch_113" d="M555.355 185.548a8.982 8.982 0 1 0 0-17.963 8.982 8.982 0 0 0 0 17.963z" clip-path="url(#p5df3dddd0d)" style="fill:#86cfa5"/><path id="patch_114" d="M422.632 230.688a2.994 2.994 0 1 0 0-5.988 2.994 2.994 0 0 0 0 5.988z" clip-path="url(#p5df3dddd0d)" style="fill:#5e4fa2"/><path id="patch_115" d="M255.496 230.688a11.976 11.976 0 1 0 0-23.951 11.976 11.976 0 0 0 0 23.951z" clip-path="url(#p5df3dddd0d)" style="fill:#9e0142"/><path id="patch_116" d="M294.116 230.688a8.982 8.982 0 1 0 0-17.963 8.982 8.982 0 0 0 0 17.963z" clip-path="url(#p5df3dddd0d)" style="fill:#86cfa5"/><path id="patch_117" d="M279.45 230.688a5.988 5.988 0 1 0 0-11.976 5.988 5.988 0 0 0 0 11.976z" clip-path="url(#p5df3dddd0d)" style="fill:#f98e52"/><path id="patch_118" d="M105.049 172.075a3.992 3.992 0 1 0 0-7.983 3.992 3.992 0 0 0 0 7.983z" clip-path="url(#p5df3dddd0d)" style="fill:#ffffbe"/><path id="patch_119" d="M527.696 91.094a11.976 11.976 0 1 0 0-23.951 11.976 11.976 0 0 0 0 23.951z" clip-path="url(#p5df3dddd0d)" style="fill:#9e0142"/><path id="patch_120" d="M233.058 72.552a11.976 11.976 0 1 0 0-23.951 11.976 11.976 0 0 0 0 23.951z" clip-path="url(#p5df3dddd0d)" style="fill:#9e0142"/><path id="patch_121" d="M540.047 105.74a8.982 8.982 0 1 0 0-17.964 8.982 8.982 0 0 0 0 17.964z" clip-path="url(#p5df3dddd0d)" style="fill:#86cfa5"/><path id="patch_122" d="M551.527 112.352a5.988 5.988 0 1 0 0-11.976 5.988 5.988 0 0 0 0 11.976z" clip-path="url(#p5df3dddd0d)" style="fill:#f98e52"/><path id="patch_123" d="M550.819 192.713a3.992 3.992 0 1 0 0-7.984 3.992 3.992 0 0 0 0 7.984z" clip-path="url(#p5df3dddd0d)" style="fill:#ffffbe"/><path id="patch_124" d="M85.614 58.516a2.994 2.994 0 1 0 0-5.988 2.994 2.994 0 0 0 0 5.988z" clip-path="url(#p5df3dddd0d)" style="fill:#5e4fa2"/><path id="patch_125" d="M172.003 75.795a11.976 11.976 0 1 0 0-23.95 11.976 11.976 0 0 0 0 23.95z" clip-path="url(#p5df3dddd0d)" style="fill:#9e0142"/><path id="patch_126" d="M480.453 210.496a8.982 8.982 0 1 0 0-17.963 8.982 8.982 0 0 0 0 17.963z" clip-path="url(#p5df3dddd0d)" style="fill:#86cfa5"/><path id="patch_127" d="M111.39 166.366a5.988 5.988 0 1 0 0-11.975 5.988 5.988 0 0 0 0 11.975z" clip-path="url(#p5df3dddd0d)" style="fill:#f98e52"/><path id="patch_128" d="M374.732 209.947a11.976 11.976 0 1 0 0-23.952 11.976 11.976 0 0 0 0 23.952z" clip-path="url(#p5df3dddd0d)" style="fill:#9e0142"/><path id="patch_129" d="M344.781 69.258a8.982 8.982 0 1 0 0-17.963 8.982 8.982 0 0 0 0 17.963z" clip-path="url(#p5df3dddd0d)" style="fill:#86cfa5"/><path id="patch_130" d="M85.614 119.566a2.994 2.994 0 1 0 0-5.988 2.994 2.994 0 0 0 0 5.988z" clip-path="url(#p5df3dddd0d)" style="fill:#5e4fa2"/><path id="patch_131" d="M195.621 209.947a11.976 11.976 0 1 0 0-23.952 11.976 11.976 0 0 0 0 23.952z" clip-path="url(#p5df3dddd0d)" style="fill:#9e0142"/><path id="patch_132" d="M409.369 78.587a8.982 8.982 0 1 0 0-17.964 8.982 8.982 0 0 0 0 17.964z" clip-path="url(#p5df3dddd0d)" style="fill:#86cfa5"/><path id="patch_133" d="M392.315 207.636a5.988 5.988 0 1 0 0-11.976 5.988 5.988 0 0 0 0 11.976z" clip-path="url(#p5df3dddd0d)" style="fill:#f98e52"/><path id="patch_134" d="M269.672 230.688a3.992 3.992 0 1 0 0-7.984 3.992 3.992 0 0 0 0 7.984z" clip-path="url(#p5df3dddd0d)" style="fill:#ffffbe"/><path id="patch_135" d="M256.388 77.965a11.976 11.976 0 1 0 0-23.95 11.976 11.976 0 0 0 0 23.95z" clip-path="url(#p5df3dddd0d)" style="fill:#9e0142"/><path id="patch_136" d="M148.053 75.795a11.976 11.976 0 1 0 0-23.95 11.976 11.976 0 0 0 0 23.95z" clip-path="url(#p5df3dddd0d)" style="fill:#9e0142"/><path id="patch_137" d="M279.133 64.623a8.982 8.982 0 1 0 0-17.964 8.982 8.982 0 0 0 0 17.964z" clip-path="url(#p5df3dddd0d)" style="fill:#86cfa5"/><path id="patch_138" d="M293.995 59.838a5.988 5.988 0 1 0 0-11.975 5.988 5.988 0 0 0 0 11.975z" clip-path="url(#p5df3dddd0d)" style="fill:#f98e52"/><path id="patch_139" d="M542.255 209.948a3.992 3.992 0 1 0 0-7.983 3.992 3.992 0 0 0 0 7.983z" clip-path="url(#p5df3dddd0d)" style="fill:#ffffbe"/><path id="patch_140" d="M326.832 230.688a2.994 2.994 0 1 0 0-5.988 2.994 2.994 0 0 0 0 5.988z" clip-path="url(#p5df3dddd0d)" style="fill:#5e4fa2"/><path id="patch_141" d="M128.628 167.3a11.976 11.976 0 1 0 0-23.952 11.976 11.976 0 0 0 0 23.951z" clip-path="url(#p5df3dddd0d)" style="fill:#9e0142"/><path id="patch_142" d="M111.793 149.503a8.982 8.982 0 1 0 0-17.963 8.982 8.982 0 0 0 0 17.963z" clip-path="url(#p5df3dddd0d)" style="fill:#86cfa5"/><path id="patch_143" d="M495.413 206.988a5.988 5.988 0 1 0 0-11.976 5.988 5.988 0 0 0 0 11.976z" clip-path="url(#p5df3dddd0d)" style="fill:#f98e52"/><path id="patch_144" d="M443.71 208.535a11.976 11.976 0 1 0 0-23.95 11.976 11.976 0 0 0 0 23.95z" clip-path="url(#p5df3dddd0d)" style="fill:#9e0142"/><path id="patch_145" d="M423.252 210.081a8.982 8.982 0 1 0 0-17.963 8.982 8.982 0 0 0 0 17.963z" clip-path="url(#p5df3dddd0d)" style="fill:#86cfa5"/><path id="patch_146" d="M121.63 55.42a3.992 3.992 0 1 0 0-7.983 3.992 3.992 0 0 0 0 7.984z" clip-path="url(#p5df3dddd0d)" style="fill:#ffffbe"/><path id="patch_147" d="M537.478 129.532a11.976 11.976 0 1 0 0-23.952 11.976 11.976 0 0 0 0 23.952z" clip-path="url(#p5df3dddd0d)" style="fill:#9e0142"/><path id="patch_148" d="M522.996 111.39a8.982 8.982 0 1 0 0-17.963 8.982 8.982 0 0 0 0 17.963z" clip-path="url(#p5df3dddd0d)" style="fill:#86cfa5"/><path id="patch_149" d="M558.996 128.994a5.988 5.988 0 1 0 0-11.976 5.988 5.988 0 0 0 0 11.976z" clip-path="url(#p5df3dddd0d)" style="fill:#f98e52"/><path id="patch_150" d="M219.571 230.688a2.994 2.994 0 1 0 0-5.988 2.994 2.994 0 0 0 0 5.988z" clip-path="url(#p5df3dddd0d)" style="fill:#5e4fa2"/><path id="patch_151" d="M498.966 90.233a11.976 11.976 0 1 0 0-23.952 11.976 11.976 0 0 0 0 23.952z" clip-path="url(#p5df3dddd0d)" style="fill:#9e0142"/><path id="patch_152" d="M365.065 77.517a11.976 11.976 0 1 0 0-23.952 11.976 11.976 0 0 0 0 23.952z" clip-path="url(#p5df3dddd0d)" style="fill:#9e0142"/><path id="patch_153" d="M481.209 76.11a8.982 8.982 0 1 0 0-17.963 8.982 8.982 0 0 0 0 17.963z" clip-path="url(#p5df3dddd0d)" style="fill:#86cfa5"/><path id="patch_154" d="M505.883 212.8a5.988 5.988 0 1 0 0-11.976 5.988 5.988 0 0 0 0 11.976z" clip-path="url(#p5df3dddd0d)" style="fill:#f98e52"/><path id="patch_155" d="M263.238 55.054a3.992 3.992 0 1 0 0-7.984 3.992 3.992 0 0 0 0 7.984z" clip-path="url(#p5df3dddd0d)" style="fill:#ffffbe"/><path id="patch_156" d="M346.881 93.103a11.976 11.976 0 1 0 0-23.951 11.976 11.976 0 0 0 0 23.95z" clip-path="url(#p5df3dddd0d)" style="fill:#9e0142"/><path id="patch_157" d="M126.964 72.236a8.982 8.982 0 1 0 0-17.963 8.982 8.982 0 0 0 0 17.963z" clip-path="url(#p5df3dddd0d)" style="fill:#86cfa5"/><path id="patch_158" d="M578.586 212.923a2.994 2.994 0 1 0 0-5.988 2.994 2.994 0 0 0 0 5.988z" clip-path="url(#p5df3dddd0d)" style="fill:#5e4fa2"/><path id="patch_159" d="M350.782 209.947a11.976 11.976 0 1 0 0-23.952 11.976 11.976 0 0 0 0 23.952z" clip-path="url(#p5df3dddd0d)" style="fill:#9e0142"/><path id="patch_160" d="M392.325 72.915a8.982 8.982 0 1 0 0-17.963 8.982 8.982 0 0 0 0 17.963z" clip-path="url(#p5df3dddd0d)" style="fill:#86cfa5"/><path id="patch_161" d="M465.493 206.988a5.988 5.988 0 1 0 0-11.976 5.988 5.988 0 0 0 0 11.976z" clip-path="url(#p5df3dddd0d)" style="fill:#f98e52"/><path id="patch_162" d="M560.154 136.91a3.992 3.992 0 1 0 0-7.984 3.992 3.992 0 0 0 0 7.984z" clip-path="url(#p5df3dddd0d)" style="fill:#ffffbe"/><path id="patch_163" d="M142.205 187.029a11.976 11.976 0 1 0 0-23.951 11.976 11.976 0 0 0 0 23.95z" clip-path="url(#p5df3dddd0d)" style="fill:#9e0142"/><path id="patch_164" d="M111.793 125.553a8.982 8.982 0 1 0 0-17.963 8.982 8.982 0 0 0 0 17.963z" clip-path="url(#p5df3dddd0d)" style="fill:#86cfa5"/><path id="patch_165" d="M550.315 137.243a5.988 5.988 0 1 0 0-11.976 5.988 5.988 0 0 0 0 11.976z" clip-path="url(#p5df3dddd0d)" style="fill:#f98e52"/><path id="patch_166" d="M344.781 37.092a2.994 2.994 0 1 0 0-5.988 2.994 2.994 0 0 0 0 5.988z" clip-path="url(#p5df3dddd0d)" style="fill:#5e4fa2"/><path id="patch_167" d="M535.656 195.693a11.976 11.976 0 1 0 0-23.951 11.976 11.976 0 0 0 0 23.95z" clip-path="url(#p5df3dddd0d)" style="fill:#9e0142"/><path id="patch_168" d="M115.37 73.065a3.992 3.992 0 1 0-.001-7.983 3.992 3.992 0 0 0 0 7.983z" clip-path="url(#p5df3dddd0d)" style="fill:#ffffbe"/><path id="patch_169" d="M476.932 99.619a11.976 11.976 0 1 0 0-23.951 11.976 11.976 0 0 0 0 23.951z" clip-path="url(#p5df3dddd0d)" style="fill:#9e0142"/><path id="patch_170" d="M291.552 77.6a8.982 8.982 0 1 0 0-17.963 8.982 8.982 0 0 0 0 17.963z" clip-path="url(#p5df3dddd0d)" style="fill:#86cfa5"/><path id="patch_171" d="M121.29 83.094a5.988 5.988 0 1 0 0-11.975 5.988 5.988 0 0 0 0 11.975z" clip-path="url(#p5df3dddd0d)" style="fill:#f98e52"/><path id="patch_172" d="M219.571 209.947a11.976 11.976 0 1 0 0-23.952 11.976 11.976 0 0 0 0 23.952z" clip-path="url(#p5df3dddd0d)" style="fill:#9e0142"/><path id="patch_173" d="M395.935 90.511a8.982 8.982 0 1 0 0-17.963 8.982 8.982 0 0 0 0 17.963z" clip-path="url(#p5df3dddd0d)" style="fill:#86cfa5"/><path id="patch_174" d="M370.816 54.638a3.992 3.992 0 1 0 0-7.984 3.992 3.992 0 0 0 0 7.984z" clip-path="url(#p5df3dddd0d)" style="fill:#ffffbe"/><path id="patch_175" d="M195.621 230.688a2.994 2.994 0 1 0 0-5.988 2.994 2.994 0 0 0 0 5.988z" clip-path="url(#p5df3dddd0d)" style="fill:#5e4fa2"/><path id="patch_176" d="M362.757 189.205a11.976 11.976 0 1 0 0-23.951 11.976 11.976 0 0 0 0 23.951z" clip-path="url(#p5df3dddd0d)" style="fill:#9e0142"/><path id="patch_177" d="M542.58 172.92a8.982 8.982 0 1 0 0-17.964 8.982 8.982 0 0 0 0 17.964z" clip-path="url(#p5df3dddd0d)" style="fill:#86cfa5"/><path id="patch_178" d="M276.691 76.397a5.988 5.988 0 1 0 0-11.976 5.988 5.988 0 0 0 0 11.976z" clip-path="url(#p5df3dddd0d)" style="fill:#f98e52"/><path id="patch_179" d="M298.504 213.19a11.976 11.976 0 1 0 0-23.951 11.976 11.976 0 0 0 0 23.951z" clip-path="url(#p5df3dddd0d)" style="fill:#9e0142"/><path id="patch_180" d="M469.689 195.51a11.976 11.976 0 1 0 0-23.952 11.976 11.976 0 0 0 0 23.952z" clip-path="url(#p5df3dddd0d)" style="fill:#9e0142"/><path id="patch_181" d="M490.424 195.555a8.982 8.982 0 1 0 0-17.963 8.982 8.982 0 0 0 0 17.963z" clip-path="url(#p5df3dddd0d)" style="fill:#86cfa5"/><path id="patch_182" d="M133.262 82.822a5.988 5.988 0 1 0 0-11.976 5.988 5.988 0 0 0 0 11.976z" clip-path="url(#p5df3dddd0d)" style="fill:#f98e52"/><path id="patch_183" d="M534.945 206.738a3.992 3.992 0 1 0 0-7.984 3.992 3.992 0 0 0 0 7.984z" clip-path="url(#p5df3dddd0d)" style="fill:#ffffbe"/><path id="patch_184" d="M374.732 230.688a2.994 2.994 0 1 0 0-5.988 2.994 2.994 0 0 0 0 5.988z" clip-path="url(#p5df3dddd0d)" style="fill:#5e4fa2"/><path id="patch_185" d="M496.078 114.008a11.976 11.976 0 1 0 0-23.951 11.976 11.976 0 0 0 0 23.95z" clip-path="url(#p5df3dddd0d)" style="fill:#9e0142"/><path id="patch_186" d="M127.588 99.667a8.982 8.982 0 1 0 0-17.963 8.982 8.982 0 0 0 0 17.963z" clip-path="url(#p5df3dddd0d)" style="fill:#86cfa5"/><path id="patch_187" d="M379.72 61.14a5.988 5.988 0 1 0 0-11.975 5.988 5.988 0 0 0 0 11.976z" clip-path="url(#p5df3dddd0d)" style="fill:#f98e52"/><path id="patch_188" d="M449.037 77.207a11.976 11.976 0 1 0 0-23.951 11.976 11.976 0 0 0 0 23.95z" clip-path="url(#p5df3dddd0d)" style="fill:#9e0142"/><path id="patch_189" d="M426.412 84.259a8.982 8.982 0 1 0 0-17.964 8.982 8.982 0 0 0 0 17.964z" clip-path="url(#p5df3dddd0d)" style="fill:#86cfa5"/><path id="patch_190" d="M527.621 209.914a3.992 3.992 0 1 0 0-7.983 3.992 3.992 0 0 0 0 7.983z" clip-path="url(#p5df3dddd0d)" style="fill:#ffffbe"/><path id="patch_191" d="M243.521 230.688a2.994 2.994 0 1 0 0-5.988 2.994 2.994 0 0 0 0 5.988z" clip-path="url(#p5df3dddd0d)" style="fill:#5e4fa2"/><path id="patch_192" d="M513.814 133.221a11.976 11.976 0 1 0 0-23.951 11.976 11.976 0 0 0 0 23.951z" clip-path="url(#p5df3dddd0d)" style="fill:#9e0142"/><path id="patch_193" d="M412.978 96.183a8.982 8.982 0 1 0 0-17.963 8.982 8.982 0 0 0 0 17.963z" clip-path="url(#p5df3dddd0d)" style="fill:#86cfa5"/><path id="patch_194" d="M467.244 78.506a5.988 5.988 0 1 0 0-11.976 5.988 5.988 0 0 0 0 11.976z" clip-path="url(#p5df3dddd0d)" style="fill:#f98e52"/><path id="patch_195" d="M195.953 75.795a11.976 11.976 0 1 0 0-23.95 11.976 11.976 0 0 0 0 23.95z" clip-path="url(#p5df3dddd0d)" style="fill:#9e0142"/><path id="patch_196" d="M462.782 61.098a3.992 3.992 0 1 0 0-7.984 3.992 3.992 0 0 0 0 7.984z" clip-path="url(#p5df3dddd0d)" style="fill:#ffffbe"/><path id="patch_197" d="M369.471 101.058a11.976 11.976 0 1 0 0-23.951 11.976 11.976 0 0 0 0 23.95z" clip-path="url(#p5df3dddd0d)" style="fill:#9e0142"/><path id="patch_198" d="M144.97 95.141a8.982 8.982 0 1 0 0-17.963 8.982 8.982 0 0 0 0 17.963z" clip-path="url(#p5df3dddd0d)" style="fill:#86cfa5"/><path id="patch_199" d="M213.535 66.132a5.988 5.988 0 1 0 0-11.976 5.988 5.988 0 0 0 0 11.976z" clip-path="url(#p5df3dddd0d)" style="fill:#f98e52"/><path id="patch_200" d="M398.682 230.688a2.994 2.994 0 1 0 0-5.988 2.994 2.994 0 0 0 0 5.988z" clip-path="url(#p5df3dddd0d)" style="fill:#5e4fa2"/><path id="patch_201" d="M152.503 165.406a11.976 11.976 0 1 0 0-23.951 11.976 11.976 0 0 0 0 23.95z" clip-path="url(#p5df3dddd0d)" style="fill:#9e0142"/><path id="patch_202" d="M341.876 187.983a8.982 8.982 0 1 0 0-17.963 8.982 8.982 0 0 0 0 17.963z" clip-path="url(#p5df3dddd0d)" style="fill:#86cfa5"/><path id="patch_203" d="M141.05 118.721a11.976 11.976 0 1 0 0-23.95 11.976 11.976 0 0 0 0 23.95z" clip-path="url(#p5df3dddd0d)" style="fill:#9e0142"/><path id="patch_204" d="M327.064 72.214a8.982 8.982 0 1 0 0-17.963 8.982 8.982 0 0 0 0 17.963z" clip-path="url(#p5df3dddd0d)" style="fill:#86cfa5"/><path id="patch_205" d="M505.682 200.827a5.988 5.988 0 1 0 0-11.976 5.988 5.988 0 0 0 0 11.976z" clip-path="url(#p5df3dddd0d)" style="fill:#f98e52"/><path id="patch_206" d="M392.828 54.962a3.992 3.992 0 1 0 0-7.984 3.992 3.992 0 0 0 0 7.984z" clip-path="url(#p5df3dddd0d)" style="fill:#ffffbe"/><path id="patch_207" d="M474.044 123.394a11.976 11.976 0 1 0-.001-23.95 11.976 11.976 0 0 0 0 23.95z" clip-path="url(#p5df3dddd0d)" style="fill:#9e0142"/><path id="patch_208" d="M491.8 131.53a8.982 8.982 0 1 0 0-17.964 8.982 8.982 0 0 0 0 17.963z" clip-path="url(#p5df3dddd0d)" style="fill:#86cfa5"/><path id="patch_209" d="M283.525 217.116a5.988 5.988 0 1 0 0-11.975 5.988 5.988 0 0 0 0 11.975z" clip-path="url(#p5df3dddd0d)" style="fill:#f98e52"/><path id="patch_210" d="M350.782 230.688a2.994 2.994 0 1 0 0-5.988 2.994 2.994 0 0 0 0 5.988z" clip-path="url(#p5df3dddd0d)" style="fill:#5e4fa2"/><path id="patch_211" d="M138.925 145.676a11.976 11.976 0 1 0 0-23.951 11.976 11.976 0 0 0 0 23.951z" clip-path="url(#p5df3dddd0d)" style="fill:#9e0142"/><path id="patch_212" d="M469.016 66.69a3.992 3.992 0 1 0 0-7.985 3.992 3.992 0 0 0 0 7.984z" clip-path="url(#p5df3dddd0d)" style="fill:#ffffbe"/><path id="patch_213" d="M426.092 192.312a11.976 11.976 0 1 0 0-23.951 11.976 11.976 0 0 0 0 23.951z" clip-path="url(#p5df3dddd0d)" style="fill:#9e0142"/><path id="patch_214" d="M446.55 184.779a8.982 8.982 0 1 0 0-17.964 8.982 8.982 0 0 0 0 17.964z" clip-path="url(#p5df3dddd0d)" style="fill:#86cfa5"/><path id="patch_215" d="M160.028 83.196a5.988 5.988 0 1 0 0-11.975 5.988 5.988 0 0 0 0 11.975z" clip-path="url(#p5df3dddd0d)" style="fill:#f98e52"/><path id="patch_216" d="M171.671 209.947a11.976 11.976 0 1 0 0-23.952 11.976 11.976 0 0 0 0 23.952z" clip-path="url(#p5df3dddd0d)" style="fill:#9e0142"/><path id="patch_217" d="M408.216 200.254a8.982 8.982 0 1 0 0-17.963 8.982 8.982 0 0 0 0 17.963z" clip-path="url(#p5df3dddd0d)" style="fill:#86cfa5"/><path id="patch_218" d="M110.354 106.023a3.992 3.992 0 1 0 0-7.984 3.992 3.992 0 0 0 0 7.984z" clip-path="url(#p5df3dddd0d)" style="fill:#ffffbe"/><path id="patch_219" d="M150.893 219.577a2.994 2.994 0 1 0 0-5.988 2.994 2.994 0 0 0 0 5.988z" clip-path="url(#p5df3dddd0d)" style="fill:#5e4fa2"/><path id="patch_220" d="M240.035 95.463a11.976 11.976 0 1 0 0-23.95 11.976 11.976 0 0 0 0 23.95z" clip-path="url(#p5df3dddd0d)" style="fill:#9e0142"/><path id="patch_221" d="M383.639 187.983a8.982 8.982 0 1 0 0-17.963 8.982 8.982 0 0 0 0 17.963z" clip-path="url(#p5df3dddd0d)" style="fill:#86cfa5"/><path id="patch_222" d="M554.304 157.434a5.988 5.988 0 1 0 0-11.976 5.988 5.988 0 0 0 0 11.976z" clip-path="url(#p5df3dddd0d)" style="fill:#f98e52"/><path id="patch_223" d="M243.521 209.947a11.976 11.976 0 1 0 0-23.952 11.976 11.976 0 0 0 0 23.952z" clip-path="url(#p5df3dddd0d)" style="fill:#9e0142"/><path id="patch_224" d="M172.955 93.736a8.982 8.982 0 1 0 0-17.963 8.982 8.982 0 0 0 0 17.963z" clip-path="url(#p5df3dddd0d)" style="fill:#86cfa5"/><path id="patch_225" d="M510.812 97.747a5.988 5.988 0 1 0 0-11.975 5.988 5.988 0 0 0 0 11.975z" clip-path="url(#p5df3dddd0d)" style="fill:#f98e52"/><path id="patch_226" d="M553.943 145.465a3.992 3.992 0 1 0 0-7.983 3.992 3.992 0 0 0 0 7.983z" clip-path="url(#p5df3dddd0d)" style="fill:#ffffbe"/><path id="patch_227" d="M130.974 187.952a2.994 2.994 0 1 0 0-5.988 2.994 2.994 0 0 0 0 5.988z" clip-path="url(#p5df3dddd0d)" style="fill:#5e4fa2"/><path id="patch_228" d="M263.365 100.877a11.976 11.976 0 1 0 0-23.952 11.976 11.976 0 0 0 0 23.952z" clip-path="url(#p5df3dddd0d)" style="fill:#9e0142"/><path id="patch_229" d="M183.646 189.205a11.976 11.976 0 1 0 0-23.951 11.976 11.976 0 0 0 0 23.951z" clip-path="url(#p5df3dddd0d)" style="fill:#9e0142"/><path id="patch_230" d="M162.88 180.618a8.982 8.982 0 1 0 0-17.963 8.982 8.982 0 0 0 0 17.963z" clip-path="url(#p5df3dddd0d)" style="fill:#86cfa5"/><path id="patch_231" d="M459.89 87.956a5.988 5.988 0 1 0-.001-11.975 5.988 5.988 0 0 0 0 11.975z" clip-path="url(#p5df3dddd0d)" style="fill:#f98e52"/><path id="patch_232" d="M486.08 178.048a11.976 11.976 0 1 0 0-23.952 11.976 11.976 0 0 0 0 23.952z" clip-path="url(#p5df3dddd0d)" style="fill:#9e0142"/><path id="patch_233" d="M458.096 105.81a8.982 8.982 0 1 0 0-17.962 8.982 8.982 0 0 0 0 17.963z" clip-path="url(#p5df3dddd0d)" style="fill:#86cfa5"/><path id="patch_234" d="M389.004 194.805a3.992 3.992 0 1 0 0-7.984 3.992 3.992 0 0 0 0 7.984z" clip-path="url(#p5df3dddd0d)" style="fill:#ffffbe"/><path id="patch_235" d="M540.905 202.096a2.994 2.994 0 1 0 0-5.987 2.994 2.994 0 0 0 0 5.987z" clip-path="url(#p5df3dddd0d)" style="fill:#5e4fa2"/><path id="patch_236" d="M321.834 207.777a11.976 11.976 0 1 0 0-23.951 11.976 11.976 0 0 0 0 23.95z" clip-path="url(#p5df3dddd0d)" style="fill:#9e0142"/><path id="patch_237" d="M173.168 165.893a8.982 8.982 0 1 0 0-17.963 8.982 8.982 0 0 0 0 17.963z" clip-path="url(#p5df3dddd0d)" style="fill:#86cfa5"/><path id="patch_238" d="M282.76 86.72a5.988 5.988 0 1 0 0-11.975 5.988 5.988 0 0 0 0 11.976z" clip-path="url(#p5df3dddd0d)" style="fill:#f98e52"/><path id="patch_239" d="M351.287 116.644a11.976 11.976 0 1 0 0-23.951 11.976 11.976 0 0 0 0 23.951z" clip-path="url(#p5df3dddd0d)" style="fill:#9e0142"/><path id="patch_240" d="M394.904 189.427a3.992 3.992 0 1 0 0-7.984 3.992 3.992 0 0 0 0 7.984z" clip-path="url(#p5df3dddd0d)" style="fill:#ffffbe"/><path id="patch_241" d="M231.546 189.205a11.976 11.976 0 1 0 0-23.951 11.976 11.976 0 0 0 0 23.951z" clip-path="url(#p5df3dddd0d)" style="fill:#9e0142"/><path id="patch_242" d="M400.865 182.894a8.982 8.982 0 1 0 0-17.964 8.982 8.982 0 0 0 0 17.964z" clip-path="url(#p5df3dddd0d)" style="fill:#86cfa5"/><path id="patch_243" d="M382.4 81.126a5.988 5.988 0 1 0 0-11.976 5.988 5.988 0 0 0 0 11.976z" clip-path="url(#p5df3dddd0d)" style="fill:#f98e52"/><path id="patch_244" d="M552.278 118.308a2.994 2.994 0 1 0 0-5.988 2.994 2.994 0 0 0 0 5.988z" clip-path="url(#p5df3dddd0d)" style="fill:#5e4fa2"/><path id="patch_245" d="M216.704 90.05a11.976 11.976 0 1 0 0-23.951 11.976 11.976 0 0 0 0 23.951z" clip-path="url(#p5df3dddd0d)" style="fill:#9e0142"/><path id="patch_246" d="M541.245 153.111a8.982 8.982 0 1 0 0-17.963 8.982 8.982 0 0 0 0 17.963z" clip-path="url(#p5df3dddd0d)" style="fill:#86cfa5"/><path id="patch_247" d="M516.151 206.639a5.988 5.988 0 1 0 0-11.976 5.988 5.988 0 0 0 0 11.976z" clip-path="url(#p5df3dddd0d)" style="fill:#f98e52"/><path id="patch_248" d="M301.558 64.353a3.992 3.992 0 1 0 0-7.984 3.992 3.992 0 0 0 0 7.984z" clip-path="url(#p5df3dddd0d)" style="fill:#ffffbe"/><path id="patch_249" d="M275.337 207.116a11.976 11.976 0 1 0 0-23.951 11.976 11.976 0 0 0 0 23.95z" clip-path="url(#p5df3dddd0d)" style="fill:#9e0142"/><path id="patch_250" d="M309.394 79.681a8.982 8.982 0 1 0 0-17.963 8.982 8.982 0 0 0 0 17.963z" clip-path="url(#p5df3dddd0d)" style="fill:#86cfa5"/><path id="patch_251" d="M435.195 170.16a11.976 11.976 0 1 0 0-23.952 11.976 11.976 0 0 0 0 23.951z" clip-path="url(#p5df3dddd0d)" style="fill:#9e0142"/><path id="patch_252" d="M298.671 94.092a8.982 8.982 0 1 0 0-17.963 8.982 8.982 0 0 0 0 17.963z" clip-path="url(#p5df3dddd0d)" style="fill:#86cfa5"/><path id="patch_253" d="M448.419 91.397a5.988 5.988 0 1 0 0-11.976 5.988 5.988 0 0 0 0 11.976z" clip-path="url(#p5df3dddd0d)" style="fill:#f98e52"/><path id="patch_254" d="M432.367 67.881a2.994 2.994 0 1 0 0-5.987 2.994 2.994 0 0 0 0 5.987z" clip-path="url(#p5df3dddd0d)" style="fill:#5e4fa2"/><path id="patch_255" d="M223.681 112.961a11.976 11.976 0 1 0 0-23.95 11.976 11.976 0 0 0 0 23.95z" clip-path="url(#p5df3dddd0d)" style="fill:#9e0142"/><path id="patch_256" d="M273.546 214.998a3.992 3.992 0 1 0 0-7.983 3.992 3.992 0 0 0 0 7.983z" clip-path="url(#p5df3dddd0d)" style="fill:#ffffbe"/><path id="patch_257" d="M373.877 124.6a11.976 11.976 0 1 0 0-23.952 11.976 11.976 0 0 0 0 23.951z" clip-path="url(#p5df3dddd0d)" style="fill:#9e0142"/><path id="patch_258" d="M159.473 105.74a8.982 8.982 0 1 0 0-17.964 8.982 8.982 0 0 0 0 17.964z" clip-path="url(#p5df3dddd0d)" style="fill:#86cfa5"/><path id="patch_259" d="M156.913 191.352a5.988 5.988 0 1 0 0-11.975 5.988 5.988 0 0 0 0 11.975z" clip-path="url(#p5df3dddd0d)" style="fill:#f98e52"/><path id="patch_260" d="M398.682 212.725a2.994 2.994 0 1 0 0-5.987 2.994 2.994 0 0 0 0 5.987z" clip-path="url(#p5df3dddd0d)" style="fill:#5e4fa2"/><path id="patch_261" d="M347.459 170.778a11.976 11.976 0 1 0 0-23.951 11.976 11.976 0 0 0 0 23.951z" clip-path="url(#p5df3dddd0d)" style="fill:#9e0142"/><path id="patch_262" d="M456.02 169.514a8.982 8.982 0 1 0 0-17.963 8.982 8.982 0 0 0 0 17.963z" clip-path="url(#p5df3dddd0d)" style="fill:#86cfa5"/><path id="patch_263" d="M403.337 208.515a3.992 3.992 0 1 0 0-7.984 3.992 3.992 0 0 0 0 7.984z" clip-path="url(#p5df3dddd0d)" style="fill:#ffffbe"/><path id="patch_264" d="M292.18 190.09a11.976 11.976 0 1 0 0-23.952 11.976 11.976 0 0 0 0 23.952z" clip-path="url(#p5df3dddd0d)" style="fill:#9e0142"/><path id="patch_265" d="M332.18 105.043a8.982 8.982 0 1 0 0-17.963 8.982 8.982 0 0 0 0 17.963z" clip-path="url(#p5df3dddd0d)" style="fill:#86cfa5"/><path id="patch_266" d="M123.174 110.977a5.988 5.988 0 1 0 0-11.976 5.988 5.988 0 0 0 0 11.976z" clip-path="url(#p5df3dddd0d)" style="fill:#f98e52"/><path id="patch_267" d="M371.066 166.743a11.976 11.976 0 1 0 0-23.951 11.976 11.976 0 0 0 0 23.95z" clip-path="url(#p5df3dddd0d)" style="fill:#9e0142"/><path id="patch_268" d="M316.513 96.173a8.982 8.982 0 1 0 0-17.963 8.982 8.982 0 0 0 0 17.963z" clip-path="url(#p5df3dddd0d)" style="fill:#86cfa5"/><path id="patch_269" d="M527.708 138.618a5.988 5.988 0 1 0 0-11.976 5.988 5.988 0 0 0 0 11.976z" clip-path="url(#p5df3dddd0d)" style="fill:#f98e52"/><path id="patch_270" d="M182.44 79.896a3.992 3.992 0 1 0 0-7.984 3.992 3.992 0 0 0 0 7.984z" clip-path="url(#p5df3dddd0d)" style="fill:#ffffbe"/><path id="patch_271" d="M221.4 52.596a2.994 2.994 0 1 0 0-5.988 2.994 2.994 0 0 0 0 5.988z" clip-path="url(#p5df3dddd0d)" style="fill:#5e4fa2"/><path id="patch_272" d="M207.596 189.205a11.976 11.976 0 1 0 0-23.951 11.976 11.976 0 0 0 0 23.951z" clip-path="url(#p5df3dddd0d)" style="fill:#9e0142"/><path id="patch_273" d="M437.314 111.503a11.976 11.976 0 1 0 0-23.952 11.976 11.976 0 0 0 0 23.952z" clip-path="url(#p5df3dddd0d)" style="fill:#9e0142"/><path id="patch_274" d="M452.55 122.896a8.982 8.982 0 1 0 0-17.963 8.982 8.982 0 0 0 0 17.963z" clip-path="url(#p5df3dddd0d)" style="fill:#86cfa5"/><path id="patch_275" d="M384.834 104.378a5.988 5.988 0 1 0 0-11.975 5.988 5.988 0 0 0 0 11.975z" clip-path="url(#p5df3dddd0d)" style="fill:#f98e52"/><path id="patch_276" d="M305.529 190.868a3.992 3.992 0 1 0 0-7.983 3.992 3.992 0 0 0 0 7.983z" clip-path="url(#p5df3dddd0d)" style="fill:#ffffbe"/><path id="patch_277" d="M508.145 187.363a11.976 11.976 0 1 0 0-23.951 11.976 11.976 0 0 0 0 23.951z" clip-path="url(#p5df3dddd0d)" style="fill:#9e0142"/><path id="patch_278" d="M313.06 185.295a8.982 8.982 0 1 0 0-17.964 8.982 8.982 0 0 0 0 17.964z" clip-path="url(#p5df3dddd0d)" style="fill:#86cfa5"/><path id="patch_279" d="M458.958 210.155a2.994 2.994 0 1 0 0-5.988 2.994 2.994 0 0 0 0 5.988z" clip-path="url(#p5df3dddd0d)" style="fill:#5e4fa2"/><path id="patch_280" d="M162.8 143.783a11.976 11.976 0 1 0 0-23.952 11.976 11.976 0 0 0 0 23.952z" clip-path="url(#p5df3dddd0d)" style="fill:#9e0142"/><path id="patch_281" d="M190.89 94.728a8.982 8.982 0 1 0 0-17.963 8.982 8.982 0 0 0 0 17.963z" clip-path="url(#p5df3dddd0d)" style="fill:#86cfa5"/><path id="patch_282" d="M331.924 173.808a5.988 5.988 0 1 0 0-11.975 5.988 5.988 0 0 0 0 11.975z" clip-path="url(#p5df3dddd0d)" style="fill:#f98e52"/><path id="patch_283" d="M397.762 122.836a11.976 11.976 0 1 0 0-23.95 11.976 11.976 0 0 0 0 23.95z" clip-path="url(#p5df3dddd0d)" style="fill:#9e0142"/><path id="patch_284" d="M450.189 152.525a8.982 8.982 0 1 0 0-17.964 8.982 8.982 0 0 0 0 17.964z" clip-path="url(#p5df3dddd0d)" style="fill:#86cfa5"/><path id="patch_285" d="M388.859 170.96a5.988 5.988 0 1 0 0-11.975 5.988 5.988 0 0 0 0 11.975z" clip-path="url(#p5df3dddd0d)" style="fill:#f98e52"/><path id="patch_286" d="M425.91 92.232a3.992 3.992 0 1 0 0-7.983 3.992 3.992 0 0 0 0 7.983z" clip-path="url(#p5df3dddd0d)" style="fill:#ffffbe"/><path id="patch_287" d="M109.562 131.75a2.994 2.994 0 1 0 0-5.987 2.994 2.994 0 0 0 0 5.987z" clip-path="url(#p5df3dddd0d)" style="fill:#5e4fa2"/><path id="patch_288" d="M304.127 169.331a11.976 11.976 0 1 0 0-23.95 11.976 11.976 0 0 0 0 23.95z" clip-path="url(#p5df3dddd0d)" style="fill:#9e0142"/><path id="patch_289" d="M180.878 116.131a11.976 11.976 0 1 0 0-23.951 11.976 11.976 0 0 0 0 23.951z" clip-path="url(#p5df3dddd0d)" style="fill:#9e0142"/><path id="patch_290" d="M201.47 109.245a8.982 8.982 0 1 0-.001-17.963 8.982 8.982 0 0 0 0 17.963z" clip-path="url(#p5df3dddd0d)" style="fill:#86cfa5"/><path id="patch_291" d="M528.03 173.442a5.988 5.988 0 1 0 0-11.976 5.988 5.988 0 0 0 0 11.976z" clip-path="url(#p5df3dddd0d)" style="fill:#f98e52"/><path id="patch_292" d="M150.028 126.218a3.992 3.992 0 1 0 0-7.984 3.992 3.992 0 0 0 0 7.984z" clip-path="url(#p5df3dddd0d)" style="fill:#ffffbe"/><path id="patch_293" d="M219.571 168.464a11.976 11.976 0 1 0 0-23.951 11.976 11.976 0 0 0 0 23.95z" clip-path="url(#p5df3dddd0d)" style="fill:#9e0142"/><path id="patch_294" d="M327.15 162.615a8.982 8.982 0 1 0 0-17.964 8.982 8.982 0 0 0 0 17.964z" clip-path="url(#p5df3dddd0d)" style="fill:#86cfa5"/><path id="patch_295" d="M379.968 67.125a2.994 2.994 0 1 0 0-5.988 2.994 2.994 0 0 0 0 5.988z" clip-path="url(#p5df3dddd0d)" style="fill:#5e4fa2"/><path id="patch_296" d="M330.736 128.944a11.976 11.976 0 1 0 0-23.951 11.976 11.976 0 0 0 0 23.95z" clip-path="url(#p5df3dddd0d)" style="fill:#9e0142"/><path id="patch_297" d="M338.614 148.786a8.982 8.982 0 1 0 0-17.963 8.982 8.982 0 0 0 0 17.963z" clip-path="url(#p5df3dddd0d)" style="fill:#86cfa5"/><path id="patch_298" d="M530.109 161.648a5.988 5.988 0 1 0 0-11.975 5.988 5.988 0 0 0 0 11.975z" clip-path="url(#p5df3dddd0d)" style="fill:#f98e52"/><path id="patch_299" d="M126.945 118.22a3.992 3.992 0 1 0 0-7.984 3.992 3.992 0 0 0 0 7.984z" clip-path="url(#p5df3dddd0d)" style="fill:#ffffbe"/><path id="patch_300" d="M243.521 168.464a11.976 11.976 0 1 0 0-23.951 11.976 11.976 0 0 0 0 23.95z" clip-path="url(#p5df3dddd0d)" style="fill:#9e0142"/><path id="patch_301" d="M197.976 132.902a11.976 11.976 0 1 0 0-23.951 11.976 11.976 0 0 0 0 23.95z" clip-path="url(#p5df3dddd0d)" style="fill:#9e0142"/><path id="patch_302" d="M320.906 145.773a8.982 8.982 0 1 0 0-17.964 8.982 8.982 0 0 0 0 17.964z" clip-path="url(#p5df3dddd0d)" style="fill:#86cfa5"/><path id="patch_303" d="M180.052 128.087a5.988 5.988 0 1 0 0-11.975 5.988 5.988 0 0 0 0 11.975z" clip-path="url(#p5df3dddd0d)" style="fill:#f98e52"/><path id="patch_304" d="M395.816 195.354a2.994 2.994 0 1 0 0-5.988 2.994 2.994 0 0 0 0 5.988z" clip-path="url(#p5df3dddd0d)" style="fill:#5e4fa2"/><path id="patch_305" d="M247.012 118.375a11.976 11.976 0 1 0 0-23.952 11.976 11.976 0 0 0 0 23.952z" clip-path="url(#p5df3dddd0d)" style="fill:#9e0142"/><path id="patch_306" d="M183.997 145.52a8.982 8.982 0 1 0 0-17.963 8.982 8.982 0 0 0 0 17.964z" clip-path="url(#p5df3dddd0d)" style="fill:#86cfa5"/><path id="patch_307" d="M518.856 165.745a5.988 5.988 0 1 0 0-11.975 5.988 5.988 0 0 0 0 11.975z" clip-path="url(#p5df3dddd0d)" style="fill:#f98e52"/><path id="patch_308" d="M148.034 193.91a3.992 3.992 0 1 0 0-7.983 3.992 3.992 0 0 0 0 7.983z" clip-path="url(#p5df3dddd0d)" style="fill:#ffffbe"/><path id="patch_309" d="M305.398 116.933a11.976 11.976 0 1 0 0-23.951 11.976 11.976 0 0 0 0 23.951z" clip-path="url(#p5df3dddd0d)" style="fill:#9e0142"/><path id="patch_310" d="M285.772 106.593a8.982 8.982 0 1 0 0-17.964 8.982 8.982 0 0 0 0 17.964z" clip-path="url(#p5df3dddd0d)" style="fill:#86cfa5"/><path id="patch_311" d="M255.496 189.205a11.976 11.976 0 1 0 0-23.951 11.976 11.976 0 0 0 0 23.951z" clip-path="url(#p5df3dddd0d)" style="fill:#9e0142"/><path id="patch_312" d="M516.097 151.059a8.982 8.982 0 1 0 0-17.964 8.982 8.982 0 0 0 0 17.964z" clip-path="url(#p5df3dddd0d)" style="fill:#86cfa5"/><path id="patch_313" d="M502.716 141.358a5.988 5.988 0 1 0 0-11.976 5.988 5.988 0 0 0 0 11.976z" clip-path="url(#p5df3dddd0d)" style="fill:#f98e52"/><path id="patch_314" d="M438.603 87.605a3.992 3.992 0 1 0 0-7.984 3.992 3.992 0 0 0 0 7.984z" clip-path="url(#p5df3dddd0d)" style="fill:#ffffbe"/><path id="patch_315" d="M117.494 206.783a2.994 2.994 0 1 0 0-5.988 2.994 2.994 0 0 0 0 5.988z" clip-path="url(#p5df3dddd0d)" style="fill:#5e4fa2"/><path id="patch_316" d="M402.25 164.977a11.976 11.976 0 1 0 0-23.951 11.976 11.976 0 0 0 0 23.951z" clip-path="url(#p5df3dddd0d)" style="fill:#9e0142"/><path id="patch_317" d="M267.471 168.464a11.976 11.976 0 1 0 0-23.951 11.976 11.976 0 0 0 0 23.95z" clip-path="url(#p5df3dddd0d)" style="fill:#9e0142"/><path id="patch_318" d="M500.023 159.076a8.982 8.982 0 1 0 0-17.963 8.982 8.982 0 0 0 0 17.963z" clip-path="url(#p5df3dddd0d)" style="fill:#86cfa5"/><path id="patch_319" d="M273.079 179.541a5.988 5.988 0 1 0 0-11.975 5.988 5.988 0 0 0 0 11.975z" clip-path="url(#p5df3dddd0d)" style="fill:#f98e52"/><path id="patch_320" d="M140.109 194.874a3.992 3.992 0 1 0 0-7.984 3.992 3.992 0 0 0 0 7.984z" clip-path="url(#p5df3dddd0d)" style="fill:#ffffbe"/><path id="patch_321" d="M320.831 55.054a2.994 2.994 0 1 0 0-5.988 2.994 2.994 0 0 0 0 5.988z" clip-path="url(#p5df3dddd0d)" style="fill:#5e4fa2"/><path id="patch_322" d="M285.691 130.543a11.976 11.976 0 1 0 0-23.952 11.976 11.976 0 0 0 0 23.952z" clip-path="url(#p5df3dddd0d)" style="fill:#9e0142"/><path id="patch_323" d="M305.317 134.895a8.982 8.982 0 1 0 0-17.963 8.982 8.982 0 0 0 0 17.963z" clip-path="url(#p5df3dddd0d)" style="fill:#86cfa5"/><path id="patch_324" d="M255.496 147.722a11.976 11.976 0 1 0 0-23.95 11.976 11.976 0 0 0 0 23.95z" clip-path="url(#p5df3dddd0d)" style="fill:#9e0142"/><path id="patch_325" d="M276.378 146.5a8.982 8.982 0 1 0 0-17.963 8.982 8.982 0 0 0 0 17.963z" clip-path="url(#p5df3dddd0d)" style="fill:#86cfa5"/><path id="patch_326" d="M413.946 172.623a5.988 5.988 0 1 0 0-11.975 5.988 5.988 0 0 0 0 11.975z" clip-path="url(#p5df3dddd0d)" style="fill:#f98e52"/><path id="patch_327" d="M514.791 194.757a3.992 3.992 0 1 0 0-7.984 3.992 3.992 0 0 0 0 7.984z" clip-path="url(#p5df3dddd0d)" style="fill:#ffffbe"/><path id="patch_328" d="M231.546 147.722a11.976 11.976 0 1 0 0-23.95 11.976 11.976 0 0 0 0 23.95z" clip-path="url(#p5df3dddd0d)" style="fill:#9e0142"/><path id="patch_329" d="M201.223 150.611a8.982 8.982 0 1 0 0-17.963 8.982 8.982 0 0 0 0 17.963z" clip-path="url(#p5df3dddd0d)" style="fill:#86cfa5"/><path id="patch_330" d="M264.97 112.78a5.988 5.988 0 1 0 0-11.976 5.988 5.988 0 0 0 0 11.976z" clip-path="url(#p5df3dddd0d)" style="fill:#f98e52"/><path id="patch_331" d="M434.66 62.35a2.994 2.994 0 1 0 0-5.987 2.994 2.994 0 0 0 0 5.987z" clip-path="url(#p5df3dddd0d)" style="fill:#5e4fa2"/><path id="patch_332" d="M387.346 144.403a11.976 11.976 0 1 0 0-23.951 11.976 11.976 0 0 0 0 23.951z" clip-path="url(#p5df3dddd0d)" style="fill:#9e0142"/><path id="patch_333" d="M411.231 142.64a11.976 11.976 0 1 0 0-23.951 11.976 11.976 0 0 0 0 23.951z" clip-path="url(#p5df3dddd0d)" style="fill:#9e0142"/><path id="patch_334" d="M418.717 120.073a8.982 8.982 0 1 0 0-17.964 8.982 8.982 0 0 0 0 17.964z" clip-path="url(#p5df3dddd0d)" style="fill:#86cfa5"/><path id="patch_335" d="M491.058 144.095a5.988 5.988 0 1 0 0-11.975 5.988 5.988 0 0 0 0 11.975z" clip-path="url(#p5df3dddd0d)" style="fill:#f98e52"/><path id="patch_336" d="M280.01 170.366a3.992 3.992 0 1 0 0-7.984 3.992 3.992 0 0 0 0 7.984z" clip-path="url(#p5df3dddd0d)" style="fill:#ffffbe"/><path id="patch_337" d="M434.478 136.878a11.976 11.976 0 1 0 0-23.951 11.976 11.976 0 0 0 0 23.951z" clip-path="url(#p5df3dddd0d)" style="fill:#9e0142"/><path id="patch_338" d="M366.391 141.18a8.982 8.982 0 1 0 0-17.964 8.982 8.982 0 0 0 0 17.963z" clip-path="url(#p5df3dddd0d)" style="fill:#86cfa5"/><path id="patch_339" d="M529.002 202.069a2.994 2.994 0 1 0 0-5.988 2.994 2.994 0 0 0 0 5.988z" clip-path="url(#p5df3dddd0d)" style="fill:#5e4fa2"/><path id="patch_340" d="M471.013 157.867a11.976 11.976 0 1 0 0-23.951 11.976 11.976 0 0 0 0 23.951z" clip-path="url(#p5df3dddd0d)" style="fill:#9e0142"/><path id="patch_341" d="M426.076 146.767a5.988 5.988 0 1 0 0-11.976 5.988 5.988 0 0 0 0 11.976z" clip-path="url(#p5df3dddd0d)" style="fill:#f98e52"/><path id="patch_342" d="M268.832 130.958a3.992 3.992 0 1 0 0-7.983 3.992 3.992 0 0 0 0 7.983z" clip-path="url(#p5df3dddd0d)" style="fill:#ffffbe"/><path id="patch_343" d="M189.216 156.556a5.988 5.988 0 1 0 0-11.975 5.988 5.988 0 0 0 0 11.975z" clip-path="url(#p5df3dddd0d)" style="fill:#f98e52"/><path id="patch_344" d="M321.548 79.228a3.992 3.992 0 1 0 0-7.984 3.992 3.992 0 0 0 0 7.984z" clip-path="url(#p5df3dddd0d)" style="fill:#ffffbe"/><path id="patch_345" d="M554.642 163.415a2.994 2.994 0 1 0 0-5.988 2.994 2.994 0 0 0 0 5.988z" clip-path="url(#p5df3dddd0d)" style="fill:#5e4fa2"/><path id="patch_346" d="M260.732 123.98a5.988 5.988 0 1 0 0-11.976 5.988 5.988 0 0 0 0 11.976z" clip-path="url(#p5df3dddd0d)" style="fill:#f98e52"/><path id="patch_347" d="M513.135 86.078a2.994 2.994 0 1 0 0-5.988 2.994 2.994 0 0 0 0 5.988z" clip-path="url(#p5df3dddd0d)" style="fill:#5e4fa2"/><path id="patch_348" d="M158.321 117.67a5.988 5.988 0 1 0 0-11.975 5.988 5.988 0 0 0 0 11.975z" clip-path="url(#p5df3dddd0d)" style="fill:#f98e52"/><path id="patch_349" d="M329.007 181.356a3.992 3.992 0 1 0 0-7.984 3.992 3.992 0 0 0 0 7.984z" clip-path="url(#p5df3dddd0d)" style="fill:#ffffbe"/><path id="patch_350" d="M285.374 163.947a5.988 5.988 0 1 0 0-11.976 5.988 5.988 0 0 0 0 11.976z" clip-path="url(#p5df3dddd0d)" style="fill:#f98e52"/><path id="patch_351" d="M470.185 171.567a3.992 3.992 0 1 0 0-7.984 3.992 3.992 0 0 0 0 7.984z" clip-path="url(#p5df3dddd0d)" style="fill:#ffffbe"/><path id="patch_352" d="M271.775 223.029a2.994 2.994 0 1 0 0-5.988 2.994 2.994 0 0 0 0 5.988z" clip-path="url(#p5df3dddd0d)" style="fill:#5e4fa2"/><path id="patch_353" d="M417.613 161.346a3.992 3.992 0 1 0 0-7.983 3.992 3.992 0 0 0 0 7.983z" clip-path="url(#p5df3dddd0d)" style="fill:#ffffbe"/><path id="patch_354" d="M293.3 140.826a5.988 5.988 0 1 0 0-11.975 5.988 5.988 0 0 0 0 11.975z" clip-path="url(#p5df3dddd0d)" style="fill:#f98e52"/><path id="patch_355" d="M169.88 215.827a2.994 2.994 0 1 0 0-5.988 2.994 2.994 0 0 0 0 5.988z" clip-path="url(#p5df3dddd0d)" style="fill:#5e4fa2"/><path id="patch_356" d="M331.041 87.13a3.992 3.992 0 1 0 0-7.983 3.992 3.992 0 0 0 0 7.984z" clip-path="url(#p5df3dddd0d)" style="fill:#ffffbe"/><path id="patch_357" d="M478.24 134.872a5.988 5.988 0 1 0 0-11.975 5.988 5.988 0 0 0 0 11.975z" clip-path="url(#p5df3dddd0d)" style="fill:#f98e52"/><path id="patch_358" d="M116.34 101.424a2.994 2.994 0 1 0 0-5.988 2.994 2.994 0 0 0 0 5.988z" clip-path="url(#p5df3dddd0d)" style="fill:#5e4fa2"/><path id="patch_359" d="M201.989 166.153a5.988 5.988 0 1 0 0-11.976 5.988 5.988 0 0 0 0 11.976z" clip-path="url(#p5df3dddd0d)" style="fill:#f98e52"/><path id="patch_360" d="M154.214 198.964a3.992 3.992 0 1 0 0-7.984 3.992 3.992 0 0 0 0 7.984z" clip-path="url(#p5df3dddd0d)" style="fill:#ffffbe"/><path id="patch_361" d="M212.383 137.642a5.988 5.988 0 1 0 0-11.976 5.988 5.988 0 0 0 0 11.976z" clip-path="url(#p5df3dddd0d)" style="fill:#f98e52"/><path id="patch_362" d="M453.695 188.402a2.994 2.994 0 1 0 0-5.988 2.994 2.994 0 0 0 0 5.988z" clip-path="url(#p5df3dddd0d)" style="fill:#5e4fa2"/><path id="patch_363" d="M417.8 153.365a3.992 3.992 0 1 0 0-7.984 3.992 3.992 0 0 0 0 7.984z" clip-path="url(#p5df3dddd0d)" style="fill:#ffffbe"/><path id="patch_364" d="M353.44 147.853a5.988 5.988 0 1 0 0-11.976 5.988 5.988 0 0 0 0 11.976z" clip-path="url(#p5df3dddd0d)" style="fill:#f98e52"/><path id="patch_365" d="M318.409 168.486a3.992 3.992 0 1 0 0-7.983 3.992 3.992 0 0 0 0 7.983z" clip-path="url(#p5df3dddd0d)" style="fill:#ffffbe"/><path id="patch_366" d="M384.436 92.412a2.994 2.994 0 1 0 0-5.988 2.994 2.994 0 0 0 0 5.988z" clip-path="url(#p5df3dddd0d)" style="fill:#5e4fa2"/><path id="patch_367" d="M459.672 137.95a5.988 5.988 0 1 0 0-11.976 5.988 5.988 0 0 0 0 11.976z" clip-path="url(#p5df3dddd0d)" style="fill:#f98e52"/><path id="patch_368" d="M522.475 196.923a3.992 3.992 0 1 0 0-7.983 3.992 3.992 0 0 0 0 7.983z" clip-path="url(#p5df3dddd0d)" style="fill:#ffffbe"/><path id="patch_369" d="M115.537 132.141a2.994 2.994 0 1 0 0-5.988 2.994 2.994 0 0 0 0 5.988z" clip-path="url(#p5df3dddd0d)" style="fill:#5e4fa2"/><path id="patch_370" d="M215.925 126.202a5.988 5.988 0 1 0 0-11.975 5.988 5.988 0 0 0 0 11.975z" clip-path="url(#p5df3dddd0d)" style="fill:#f98e52"/><path id="patch_371" d="M321.747 107.765a3.992 3.992 0 1 0 0-7.984 3.992 3.992 0 0 0 0 7.984z" clip-path="url(#p5df3dddd0d)" style="fill:#ffffbe"/><path id="patch_372" d="M411.4 205.81a2.994 2.994 0 1 0 0-5.987 2.994 2.994 0 0 0 0 5.988z" clip-path="url(#p5df3dddd0d)" style="fill:#5e4fa2"/><path id="patch_373" d="M350.207 136.323a5.988 5.988 0 1 0 0-11.976 5.988 5.988 0 0 0 0 11.976z" clip-path="url(#p5df3dddd0d)" style="fill:#f98e52"/><path id="patch_374" d="M436.055 144.784a3.992 3.992 0 1 0 0-7.984 3.992 3.992 0 0 0 0 7.984z" clip-path="url(#p5df3dddd0d)" style="fill:#ffffbe"/><path id="patch_375" d="M380.245 170.511a2.994 2.994 0 1 0 0-5.987 2.994 2.994 0 0 0 0 5.987z" clip-path="url(#p5df3dddd0d)" style="fill:#5e4fa2"/><path id="patch_376" d="M121.792 136.249a3.992 3.992 0 1 0 0-7.984 3.992 3.992 0 0 0 0 7.984z" clip-path="url(#p5df3dddd0d)" style="fill:#ffffbe"/><path id="patch_377" d="M316.353 59.029a2.994 2.994 0 1 0 0-5.988 2.994 2.994 0 0 0 0 5.988z" clip-path="url(#p5df3dddd0d)" style="fill:#5e4fa2"/><path id="patch_378" d="M209.806 114.195a3.992 3.992 0 1 0 0-7.984 3.992 3.992 0 0 0 0 7.984z" clip-path="url(#p5df3dddd0d)" style="fill:#ffffbe"/><path id="patch_379" d="M468.57 130.41a3.992 3.992 0 1 0 0-7.984 3.992 3.992 0 0 0 0 7.984z" clip-path="url(#p5df3dddd0d)" style="fill:#ffffbe"/><path id="patch_380" d="M528.063 144.598a2.994 2.994 0 1 0 0-5.988 2.994 2.994 0 0 0 0 5.988z" clip-path="url(#p5df3dddd0d)" style="fill:#5e4fa2"/><path id="patch_381" d="M346.435 123.873a3.992 3.992 0 1 0 0-7.984 3.992 3.992 0 0 0 0 7.984z" clip-path="url(#p5df3dddd0d)" style="fill:#ffffbe"/><path id="patch_382" d="M268.468 77.823a2.994 2.994 0 1 0 0-5.987 2.994 2.994 0 0 0 0 5.987z" clip-path="url(#p5df3dddd0d)" style="fill:#5e4fa2"/><path id="patch_383" d="M171.45 121.034a3.992 3.992 0 1 0 0-7.984 3.992 3.992 0 0 0 0 7.984z" clip-path="url(#p5df3dddd0d)" style="fill:#ffffbe"/><path id="patch_384" d="M422.568 97.368a2.994 2.994 0 1 0 0-5.987 2.994 2.994 0 0 0 0 5.987z" clip-path="url(#p5df3dddd0d)" style="fill:#5e4fa2"/><path id="patch_385" d="M243.521 129.178a3.992 3.992 0 1 0 0-7.984 3.992 3.992 0 0 0 0 7.984z" clip-path="url(#p5df3dddd0d)" style="fill:#ffffbe"/><path id="patch_386" d="M514.988 212.864a2.994 2.994 0 1 0 0-5.987 2.994 2.994 0 0 0 0 5.987z" clip-path="url(#p5df3dddd0d)" style="fill:#5e4fa2"/><path id="patch_387" d="M273.345 105.357a3.992 3.992 0 1 0 0-7.984 3.992 3.992 0 0 0 0 7.984z" clip-path="url(#p5df3dddd0d)" style="fill:#ffffbe"/><path id="patch_388" d="M166.125 150.22a2.994 2.994 0 1 0 0-5.987 2.994 2.994 0 0 0 0 5.987z" clip-path="url(#p5df3dddd0d)" style="fill:#5e4fa2"/><path id="patch_389" d="M449.79 134.568a3.992 3.992 0 1 0 0-7.984 3.992 3.992 0 0 0 0 7.984z" clip-path="url(#p5df3dddd0d)" style="fill:#ffffbe"/><path id="patch_390" d="M510.99 103.733a2.994 2.994 0 1 0 0-5.988 2.994 2.994 0 0 0 0 5.988z" clip-path="url(#p5df3dddd0d)" style="fill:#5e4fa2"/><path id="patch_391" d="M487.34 151.36a3.992 3.992 0 1 0 0-7.983 3.992 3.992 0 0 0 0 7.983z" clip-path="url(#p5df3dddd0d)" style="fill:#ffffbe"/><path id="patch_392" d="M236.912 124.7a3.992 3.992 0 1 0 0-7.983 3.992 3.992 0 0 0 0 7.984z" clip-path="url(#p5df3dddd0d)" style="fill:#ffffbe"/><path id="patch_393" d="M512.527 74.914a2.994 2.994 0 1 0 0-5.987 2.994 2.994 0 0 0 0 5.987z" clip-path="url(#p5df3dddd0d)" style="fill:#5e4fa2"/><path id="patch_394" d="M203.746 91.484a3.992 3.992 0 1 0 0-7.984 3.992 3.992 0 0 0 0 7.984z" clip-path="url(#p5df3dddd0d)" style="fill:#ffffbe"/><path id="patch_395" d="M337.925 193.3a2.994 2.994 0 1 0 0-5.988 2.994 2.994 0 0 0 0 5.988z" clip-path="url(#p5df3dddd0d)" style="fill:#5e4fa2"/><path id="patch_396" d="M359.074 122.6a3.992 3.992 0 1 0 0-7.984 3.992 3.992 0 0 0 0 7.984z" clip-path="url(#p5df3dddd0d)" style="fill:#ffffbe"/><path id="patch_397" d="M267.342 210.79a2.994 2.994 0 1 0 0-5.988 2.994 2.994 0 0 0 0 5.988z" clip-path="url(#p5df3dddd0d)" style="fill:#5e4fa2"/><path id="patch_398" d="M228.96 123.983a3.992 3.992 0 1 0 0-7.984 3.992 3.992 0 0 0 0 7.984z" clip-path="url(#p5df3dddd0d)" style="fill:#ffffbe"/><path id="patch_399" d="M281.012 153.102a2.994 2.994 0 1 0 0-5.988 2.994 2.994 0 0 0 0 5.988z" clip-path="url(#p5df3dddd0d)" style="fill:#5e4fa2"/><path id="patch_400" d="M410.415 105.115a3.992 3.992 0 1 0 0-7.984 3.992 3.992 0 0 0 0 7.984z" clip-path="url(#p5df3dddd0d)" style="fill:#ffffbe"/><path id="patch_401" d="M332.048 79.211a3.992 3.992 0 1 0 0-7.984 3.992 3.992 0 0 0 0 7.984z" clip-path="url(#p5df3dddd0d)" style="fill:#ffffbe"/><path id="patch_402" d="M196.452 170.23a2.994 2.994 0 1 0 0-5.987 2.994 2.994 0 0 0 0 5.987z" clip-path="url(#p5df3dddd0d)" style="fill:#5e4fa2"/><path id="patch_403" d="M261.778 207.564a3.992 3.992 0 1 0 0-7.983 3.992 3.992 0 0 0 0 7.983z" clip-path="url(#p5df3dddd0d)" style="fill:#ffffbe"/><path id="patch_404" d="M165.65 186.28a2.994 2.994 0 1 0 0-5.987 2.994 2.994 0 0 0 0 5.988z" clip-path="url(#p5df3dddd0d)" style="fill:#5e4fa2"/><path id="patch_405" d="M289.3 152.634a5.988 5.988 0 1 0 0-11.976 5.988 5.988 0 0 0 0 11.976z" clip-path="url(#p5df3dddd0d)" style="fill:#f98e52"/><path id="patch_406" d="M192.136 165.736a3.992 3.992 0 1 0 0-7.984 3.992 3.992 0 0 0 0 7.984z" clip-path="url(#p5df3dddd0d)" style="fill:#ffffbe"/><path id="patch_407" d="M459.397 197.398a2.994 2.994 0 1 0 0-5.988 2.994 2.994 0 0 0 0 5.988z" clip-path="url(#p5df3dddd0d)" style="fill:#5e4fa2"/><path id="patch_408" d="M302.548 142.58a3.992 3.992 0 1 0 0-7.984 3.992 3.992 0 0 0 0 7.984z" clip-path="url(#p5df3dddd0d)" style="fill:#ffffbe"/><path id="patch_409" d="M458.016 175.334a2.994 2.994 0 1 0 0-5.987 2.994 2.994 0 0 0 0 5.987z" clip-path="url(#p5df3dddd0d)" style="fill:#5e4fa2"/><path id="patch_410" d="M259.39 199.946a3.992 3.992 0 1 0 0-7.983 3.992 3.992 0 0 0 0 7.983z" clip-path="url(#p5df3dddd0d)" style="fill:#ffffbe"/><path id="patch_411" d="M323.052 172.707a2.994 2.994 0 1 0 0-5.987 2.994 2.994 0 0 0 0 5.987z" clip-path="url(#p5df3dddd0d)" style="fill:#5e4fa2"/><path id="patch_412" d="M394.313 99.263a3.992 3.992 0 1 0 0-7.983 3.992 3.992 0 0 0 0 7.983z" clip-path="url(#p5df3dddd0d)" style="fill:#ffffbe"/><path id="patch_413" d="M520.189 189.325a2.994 2.994 0 1 0 0-5.988 2.994 2.994 0 0 0 0 5.988z" clip-path="url(#p5df3dddd0d)" style="fill:#5e4fa2"/><path id="patch_414" d="M213.154 143.596a2.994 2.994 0 1 0 0-5.987 2.994 2.994 0 0 0 0 5.987z" clip-path="url(#p5df3dddd0d)" style="fill:#5e4fa2"/><path id="patch_415" d="M402.292 99.542a3.992 3.992 0 1 0 0-7.983 3.992 3.992 0 0 0 0 7.983z" clip-path="url(#p5df3dddd0d)" style="fill:#ffffbe"/><path id="patch_416" d="M387.602 159.074a2.994 2.994 0 1 0 0-5.988 2.994 2.994 0 0 0 0 5.988z" clip-path="url(#p5df3dddd0d)" style="fill:#5e4fa2"/><path id="patch_417" d="M132.207 121.817a2.994 2.994 0 1 0 0-5.988 2.994 2.994 0 0 0 0 5.988z" clip-path="url(#p5df3dddd0d)" style="fill:#5e4fa2"/><path id="patch_418" d="M386.757 153.138a3.992 3.992 0 1 0 0-7.984 3.992 3.992 0 0 0 0 7.984z" clip-path="url(#p5df3dddd0d)" style="fill:#ffffbe"/><path id="patch_419" d="M120.243 128.44a2.994 2.994 0 1 0 0-5.988 2.994 2.994 0 0 0 0 5.987z" clip-path="url(#p5df3dddd0d)" style="fill:#5e4fa2"/><path id="patch_420" d="M310.676 60.93a2.994 2.994 0 1 0 0-5.987 2.994 2.994 0 0 0 0 5.988z" clip-path="url(#p5df3dddd0d)" style="fill:#5e4fa2"/><path id="patch_421" d="M536.689 135.498a2.994 2.994 0 1 0 0-5.987 2.994 2.994 0 0 0 0 5.987z" clip-path="url(#p5df3dddd0d)" style="fill:#5e4fa2"/><path id="patch_422" d="M165.9 109.857a2.994 2.994 0 1 0 0-5.988 2.994 2.994 0 0 0 0 5.988z" clip-path="url(#p5df3dddd0d)" style="fill:#5e4fa2"/><path id="patch_423" d="M269.112 117.755a2.994 2.994 0 1 0 0-5.988 2.994 2.994 0 0 0 0 5.988z" clip-path="url(#p5df3dddd0d)" style="fill:#5e4fa2"/><path id="patch_424" d="M171.694 148.022a2.994 2.994 0 1 0 0-5.988 2.994 2.994 0 0 0 0 5.988z" clip-path="url(#p5df3dddd0d)" style="fill:#5e4fa2"/><path id="patch_425" d="M463.296 124.832a2.994 2.994 0 1 0 0-5.988 2.994 2.994 0 0 0 0 5.988z" clip-path="url(#p5df3dddd0d)" style="fill:#5e4fa2"/><path id="patch_426" d="M510.304 109.681a2.994 2.994 0 1 0 0-5.988 2.994 2.994 0 0 0 0 5.988z" clip-path="url(#p5df3dddd0d)" style="fill:#5e4fa2"/><path id="patch_427" d="M511.596 156.168a2.994 2.994 0 1 0 0-5.988 2.994 2.994 0 0 0 0 5.988z" clip-path="url(#p5df3dddd0d)" style="fill:#5e4fa2"/><path id="patch_428" d="M201.79 83.78a2.994 2.994 0 1 0 0-5.988 2.994 2.994 0 0 0 0 5.988z" clip-path="url(#p5df3dddd0d)" style="fill:#5e4fa2"/><path id="patch_429" d="M341.488 131.173a2.994 2.994 0 1 0 0-5.987 2.994 2.994 0 0 0 0 5.987z" clip-path="url(#p5df3dddd0d)" style="fill:#5e4fa2"/><path id="patch_430" d="M233.451 117.635a2.994 2.994 0 1 0 0-5.988 2.994 2.994 0 0 0 0 5.988z" clip-path="url(#p5df3dddd0d)" style="fill:#5e4fa2"/><path id="patch_431" d="M337.3 72.62a2.994 2.994 0 1 0 0-5.987 2.994 2.994 0 0 0 0 5.988z" clip-path="url(#p5df3dddd0d)" style="fill:#5e4fa2"/><path id="patch_432" d="M313.731 120.387a2.994 2.994 0 1 0 0-5.988 2.994 2.994 0 0 0 0 5.988z" clip-path="url(#p5df3dddd0d)" style="fill:#5e4fa2"/><path id="patch_433" d="M463.483 172.892a2.994 2.994 0 1 0 0-5.988 2.994 2.994 0 0 0 0 5.988z" clip-path="url(#p5df3dddd0d)" style="fill:#5e4fa2"/><path id="patch_434" d="M523.387 178.136a2.994 2.994 0 1 0 0-5.988 2.994 2.994 0 0 0 0 5.988z" clip-path="url(#p5df3dddd0d)" style="fill:#5e4fa2"/><path id="patch_435" d="M417.896 101.114a2.994 2.994 0 1 0 0-5.988 2.994 2.994 0 0 0 0 5.988z" clip-path="url(#p5df3dddd0d)" style="fill:#5e4fa2"/><path id="patch_436" d="M126.715 124.204a2.994 2.994 0 1 0 0-5.988 2.994 2.994 0 0 0 0 5.988z" clip-path="url(#p5df3dddd0d)" style="fill:#5e4fa2"/><path id="patch_437" d="M273.818 111.328a2.994 2.994 0 1 0 0-5.987 2.994 2.994 0 0 0 0 5.987z" clip-path="url(#p5df3dddd0d)" style="fill:#5e4fa2"/><path id="patch_438" d="M508.658 161.385a2.994 2.994 0 1 0 0-5.987 2.994 2.994 0 0 0 0 5.987z" clip-path="url(#p5df3dddd0d)" style="fill:#5e4fa2"/><path id="patch_439" d="M209.53 94.402a2.994 2.994 0 1 0 0-5.988 2.994 2.994 0 0 0 0 5.988z" clip-path="url(#p5df3dddd0d)" style="fill:#5e4fa2"/><path id="patch_440" d="M316.601 150.96a2.994 2.994 0 1 0 0-5.988 2.994 2.994 0 0 0 0 5.988z" clip-path="url(#p5df3dddd0d)" style="fill:#5e4fa2"/><path id="patch_441" d="M249.708 124.937a2.994 2.994 0 1 0 0-5.988 2.994 2.994 0 0 0 0 5.988z" clip-path="url(#p5df3dddd0d)" style="fill:#5e4fa2"/><path id="patch_442" d="M316.805 125.525a2.994 2.994 0 1 0 0-5.988 2.994 2.994 0 0 0 0 5.988z" clip-path="url(#p5df3dddd0d)" style="fill:#5e4fa2"/><path id="patch_443" d="M472.054 163.839a2.994 2.994 0 1 0 0-5.988 2.994 2.994 0 0 0 0 5.988z" clip-path="url(#p5df3dddd0d)" style="fill:#5e4fa2"/><path id="patch_444" d="M125.668 143.645a2.994 2.994 0 1 0 0-5.988 2.994 2.994 0 0 0 0 5.988z" clip-path="url(#p5df3dddd0d)" style="fill:#5e4fa2"/><path id="patch_445" d="M500.606 165.45a2.994 2.994 0 1 0 0-5.988 2.994 2.994 0 0 0 0 5.988z" clip-path="url(#p5df3dddd0d)" style="fill:#5e4fa2"/><g id="matplotlib.axis_1"><g id="xtick_1"><g id="line2d_1"><defs><path id="mdc1aff6605" d="M0 0v3.5" style="stroke:#000;stroke-width:.8"/></defs><use xlink:href="#mdc1aff6605" x="82.62" y="230.688" style="stroke:#000;stroke-width:.8"/></g><g id="text_1" transform="matrix(.1 0 0 -.1 79.439 245.286)"><defs><path id="DejaVuSans-30" d="M2034 4250q-487 0-733-480-245-479-245-1442 0-959 245-1439 246-480 733-480 491 0 736 480 246 480 246 1439 0 963-246 1442-245 480-736 480zm0 500q785 0 1199-621 414-620 414-1801 0-1178-414-1799Q2819-91 2034-91q-784 0-1198 620-414 621-414 1799 0 1181 414 1801 414 621 1198 621z" transform="scale(.01563)"/></defs><use xlink:href="#DejaVuSans-30"/></g></g><g id="xtick_2"><use xlink:href="#mdc1aff6605" id="line2d_2" x="182.412" y="230.688" style="stroke:#000;stroke-width:.8"/><g id="text_2" transform="matrix(.1 0 0 -.1 172.868 245.286)"><defs><path id="DejaVuSans-31" d="M794 531h1031v3560L703 3866v575l1116 225h631V531h1031V0H794v531z" transform="scale(.01563)"/></defs><use xlink:href="#DejaVuSans-31"/><use xlink:href="#DejaVuSans-30" x="63.623"/><use xlink:href="#DejaVuSans-30" x="127.246"/></g></g><g id="xtick_3"><use xlink:href="#mdc1aff6605" id="line2d_3" x="282.204" y="230.688" style="stroke:#000;stroke-width:.8"/><g id="text_3" transform="matrix(.1 0 0 -.1 272.66 245.286)"><defs><path id="DejaVuSans-32" d="M1228 531h2203V0H469v531q359 372 979 998 621 627 780 809 303 340 423 576 121 236 121 464 0 372-261 606-261 235-680 235-297 0-627-103-329-103-704-313v638q381 153 712 231 332 78 607 78 725 0 1156-363 431-362 431-968 0-288-108-546-107-257-392-607-78-91-497-524-418-433-1181-1211z" transform="scale(.01563)"/></defs><use xlink:href="#DejaVuSans-32"/><use xlink:href="#DejaVuSans-30" x="63.623"/><use xlink:href="#DejaVuSans-30" x="127.246"/></g></g><g id="xtick_4"><use xlink:href="#mdc1aff6605" id="line2d_4" x="381.996" y="230.688" style="stroke:#000;stroke-width:.8"/><g id="text_4" transform="matrix(.1 0 0 -.1 372.452 245.286)"><defs><path id="DejaVuSans-33" d="M2597 2516q453-97 707-404 255-306 255-756 0-690-475-1069Q2609-91 1734-91q-293 0-604 58T488 141v609q262-153 574-231 313-78 654-78 593 0 904 234t311 681q0 413-289 645-289 233-804 233h-544v519h569q465 0 712 186t247 536q0 359-255 551-254 193-729 193-260 0-557-57-297-56-653-174v562q360 100 674 150t592 50q719 0 1137-327 419-326 419-882 0-388-222-655t-631-370z" transform="scale(.01563)"/></defs><use xlink:href="#DejaVuSans-33"/><use xlink:href="#DejaVuSans-30" x="63.623"/><use xlink:href="#DejaVuSans-30" x="127.246"/></g></g><g id="xtick_5"><use xlink:href="#mdc1aff6605" id="line2d_5" x="481.788" y="230.688" style="stroke:#000;stroke-width:.8"/><g id="text_5" transform="matrix(.1 0 0 -.1 472.244 245.286)"><defs><path id="DejaVuSans-34" d="M2419 4116 825 1625h1594v2491zm-166 550h794V1625h666v-525h-666V0h-628v1100H313v609l1940 2957z" transform="scale(.01563)"/></defs><use xlink:href="#DejaVuSans-34"/><use xlink:href="#DejaVuSans-30" x="63.623"/><use xlink:href="#DejaVuSans-30" x="127.246"/></g></g><g id="xtick_6"><use xlink:href="#mdc1aff6605" id="line2d_6" x="581.58" y="230.688" style="stroke:#000;stroke-width:.8"/><g id="text_6" transform="matrix(.1 0 0 -.1 572.036 245.286)"><defs><path id="DejaVuSans-35" d="M691 4666h2478v-532H1269V2991q137 47 274 70 138 23 276 23 781 0 1237-428 457-428 457-1159 0-753-469-1171Q2575-91 1722-91q-294 0-599 50Q819 9 494 109v635q281-153 581-228t634-75q541 0 856 284 316 284 316 772 0 487-316 771-315 285-856 285-253 0-505-56-251-56-513-175v2344z" transform="scale(.01563)"/></defs><use xlink:href="#DejaVuSans-35"/><use xlink:href="#DejaVuSans-30" x="63.623"/><use xlink:href="#DejaVuSans-30" x="127.246"/></g></g></g><g id="matplotlib.axis_2"><g id="ytick_1"><g id="line2d_7"><defs><path id="m476bf00db4" d="M0 0h-3.5" style="stroke:#000;stroke-width:.8"/></defs><use xlink:href="#m476bf00db4" x="82.62" y="230.688" style="stroke:#000;stroke-width:.8"/></g><use xlink:href="#DejaVuSans-30" id="text_7" transform="matrix(.1 0 0 -.1 69.257 234.487)"/></g><g id="ytick_2"><use xlink:href="#m476bf00db4" id="line2d_8" x="82.62" y="205.74" style="stroke:#000;stroke-width:.8"/><g id="text_8" transform="matrix(.1 0 0 -.1 62.895 209.54)"><use xlink:href="#DejaVuSans-32"/><use xlink:href="#DejaVuSans-35" x="63.623"/></g></g><g id="ytick_3"><use xlink:href="#m476bf00db4" id="line2d_9" x="82.62" y="180.792" style="stroke:#000;stroke-width:.8"/><g id="text_9" transform="matrix(.1 0 0 -.1 62.895 184.591)"><use xlink:href="#DejaVuSans-35"/><use xlink:href="#DejaVuSans-30" x="63.623"/></g></g><g id="ytick_4"><use xlink:href="#m476bf00db4" id="line2d_10" x="82.62" y="155.844" style="stroke:#000;stroke-width:.8"/><g id="text_10" transform="matrix(.1 0 0 -.1 62.895 159.643)"><defs><path id="DejaVuSans-37" d="M525 4666h3000v-269L1831 0h-659l1594 4134H525v532z" transform="scale(.01563)"/></defs><use xlink:href="#DejaVuSans-37"/><use xlink:href="#DejaVuSans-35" x="63.623"/></g></g><g id="ytick_5"><use xlink:href="#m476bf00db4" id="line2d_11" x="82.62" y="130.896" style="stroke:#000;stroke-width:.8"/><g id="text_11" transform="matrix(.1 0 0 -.1 56.532 134.695)"><use xlink:href="#DejaVuSans-31"/><use xlink:href="#DejaVuSans-30" x="63.623"/><use xlink:href="#DejaVuSans-30" x="127.246"/></g></g><g id="ytick_6"><use xlink:href="#m476bf00db4" id="line2d_12" x="82.62" y="105.948" style="stroke:#000;stroke-width:.8"/><g id="text_12" transform="matrix(.1 0 0 -.1 56.532 109.747)"><use xlink:href="#DejaVuSans-31"/><use xlink:href="#DejaVuSans-32" x="63.623"/><use xlink:href="#DejaVuSans-35" x="127.246"/></g></g><g id="ytick_7"><use xlink:href="#m476bf00db4" id="line2d_13" x="82.62" y="81" style="stroke:#000;stroke-width:.8"/><g id="text_13" transform="matrix(.1 0 0 -.1 56.532 84.8)"><use xlink:href="#DejaVuSans-31"/><use xlink:href="#DejaVuSans-35" x="63.623"/><use xlink:href="#DejaVuSans-30" x="127.246"/></g></g><g id="ytick_8"><use xlink:href="#m476bf00db4" id="line2d_14" x="82.62" y="56.052" style="stroke:#000;stroke-width:.8"/><g id="text_14" transform="matrix(.1 0 0 -.1 56.532 59.851)"><use xlink:href="#DejaVuSans-31"/><use xlink:href="#DejaVuSans-37" x="63.623"/><use xlink:href="#DejaVuSans-35" x="127.246"/></g></g><g id="ytick_9"><use xlink:href="#m476bf00db4" id="line2d_15" x="82.62" y="31.104" style="stroke:#000;stroke-width:.8"/><g id="text_15" transform="matrix(.1 0 0 -.1 56.532 34.903)"><use xlink:href="#DejaVuSans-32"/><use xlink:href="#DejaVuSans-30" x="63.623"/><use xlink:href="#DejaVuSans-30" x="127.246"/></g></g></g><path id="patch_446" d="M82.62 230.688V31.104" style="fill:none;stroke:#000;stroke-width:.8;stroke-linejoin:miter;stroke-linecap:square"/><path id="patch_447" d="M581.58 230.688V31.104" style="fill:none;stroke:#000;stroke-width:.8;stroke-linejoin:miter;stroke-linecap:square"/><path id="patch_448" d="M82.62 230.688h498.96" style="fill:none;stroke:#000;stroke-width:.8;stroke-linejoin:miter;stroke-linecap:square"/><path id="patch_449" d="M82.62 31.104h498.96" style="fill:none;stroke:#000;stroke-width:.8;stroke-linejoin:miter;stroke-linecap:square"/><g id="text_16" transform="matrix(.12 0 0 -.12 148.705 25.104)"><defs><path id="DejaVuSans-53" d="M3425 4513v-616q-359 172-678 256-319 85-616 85-515 0-795-200t-280-569q0-310 186-468 186-157 705-254l381-78q706-135 1042-474t336-907q0-679-455-1029Q2797-91 1919-91q-331 0-705 75-373 75-773 222v650q384-215 753-325 369-109 725-109 540 0 834 212 294 213 294 607 0 343-211 537t-692 291l-385 75q-706 140-1022 440-315 300-315 835 0 619 436 975t1201 356q329 0 669-60 341-59 697-177z" transform="scale(.01563)"/><path id="DejaVuSans-68" d="M3513 2113V0h-575v2094q0 497-194 743-194 247-581 247-466 0-735-297-269-296-269-809V0H581v4863h578V2956q207 316 486 472 280 156 646 156 603 0 912-373 310-373 310-1098z" transform="scale(.01563)"/><path id="DejaVuSans-65" d="M3597 1894v-281H953q38-594 358-905t892-311q331 0 642 81t618 244V178Q3153 47 2828-22t-659-69q-838 0-1327 487-489 488-489 1320 0 859 464 1363 464 505 1252 505 706 0 1117-455 411-454 411-1235zm-575 169q-6 471-264 752-258 282-683 282-481 0-770-272t-333-766l2050 4z" transform="scale(.01563)"/><path id="DejaVuSans-72" d="M2631 2963q-97 56-211 82-114 27-251 27-488 0-749-317t-261-911V0H581v3500h578v-544q182 319 472 473 291 155 707 155 59 0 131-8 72-7 159-23l3-590z" transform="scale(.01563)"/><path id="DejaVuSans-77" d="M269 3500h575l719-2731 715 2731h678l719-2731 716 2731h575L4050 0h-678l-753 2869L1863 0h-679L269 3500z" transform="scale(.01563)"/><path id="DejaVuSans-6f" d="M1959 3097q-462 0-731-361t-269-989q0-628 267-989 268-361 733-361 460 0 728 362 269 363 269 988 0 622-269 986-268 364-728 364zm0 487q750 0 1178-488 429-487 429-1349 0-859-429-1349Q2709-91 1959-91q-753 0-1180 489-426 490-426 1349 0 862 426 1349 427 488 1180 488z" transform="scale(.01563)"/><path id="DejaVuSans-64" d="M2906 2969v1894h575V0h-575v525q-181-312-458-464-276-152-664-152-634 0-1033 506-398 507-398 1332t398 1331q399 506 1033 506 388 0 664-152 277-151 458-463zM947 1747q0-634 261-995t717-361q456 0 718 361 263 361 263 995t-263 995q-262 361-718 361t-717-361q-261-361-261-995z" transform="scale(.01563)"/><path id="DejaVuSans-46" d="M628 4666h2681v-532H1259V2759h1850v-531H1259V0H628v4666z" transform="scale(.01563)"/><path id="DejaVuSans-73" d="M2834 3397v-544q-243 125-506 187-262 63-544 63-428 0-642-131t-214-394q0-200 153-314t616-217l197-44q612-131 870-370t258-667q0-488-386-773Q2250-91 1575-91q-281 0-586 55T347 128v594q319-166 628-249 309-82 613-82 406 0 624 139 219 139 219 392 0 234-158 359-157 125-692 241l-200 47q-534 112-772 345-237 233-237 639 0 494 350 762 350 269 994 269 318 0 599-47 282-46 519-140z" transform="scale(.01563)"/><path id="DejaVuSans-74" d="M1172 4494v-994h1184v-447H1172V1153q0-428 117-550t477-122h590V0h-590q-666 0-919 248-253 249-253 905v1900H172v447h422v994h578z" transform="scale(.01563)"/><path id="DejaVuSans-2c" d="M750 794h659V256L897-744H494L750 256v538z" transform="scale(.01563)"/><path id="DejaVuSans-62" d="M3116 1747q0 634-261 995t-717 361q-457 0-718-361t-261-995q0-634 261-995t718-361q456 0 717 361t261 995zM1159 2969q182 312 458 463 277 152 661 152 638 0 1036-506 399-506 399-1331T3314 415Q2916-91 2278-91q-384 0-661 152-276 152-458 464V0H581v4863h578V2969z" transform="scale(.01563)"/><path id="DejaVuSans-3d" d="M678 2906h4006v-525H678v525zm0-1275h4006v-531H678v531z" transform="scale(.01563)"/><path id="DejaVuSans-2e" d="M684 794h660V0H684v794z" transform="scale(.01563)"/><path id="DejaVuSans-36" d="M2113 2584q-425 0-674-291-248-290-248-796 0-503 248-796 249-292 674-292t673 292q248 293 248 796 0 506-248 796-248 291-673 291zm1253 1979v-575q-238 112-480 171-242 60-480 60-625 0-955-422-329-422-376-1275 184 272 462 417 279 145 613 145 703 0 1111-427 408-426 408-1160 0-719-425-1154Q2819-91 2113-91q-810 0-1238 620-428 621-428 1799 0 1106 525 1764t1409 658q238 0 480-47t505-140z" transform="scale(.01563)"/><path id="DejaVuSans-38" d="M2034 2216q-450 0-708-241-257-241-257-662 0-422 257-663 258-241 708-241t709 242q260 243 260 662 0 421-258 662-257 241-711 241zm-631 268q-406 100-633 378-226 279-226 679 0 559 398 884 399 325 1092 325 697 0 1094-325t397-884q0-400-227-679-226-278-629-378 456-106 710-416 255-309 255-755 0-679-414-1042Q2806-91 2034-91q-771 0-1186 362-414 363-414 1042 0 446 256 755 257 310 713 416zm-231 997q0-362 226-565 227-203 636-203 407 0 636 203 230 203 230 565 0 363-230 566-229 203-636 203-409 0-636-203-226-203-226-566z" transform="scale(.01563)"/><path id="DejaVuSans-61" d="M2194 1759q-697 0-966-159t-269-544q0-306 202-486 202-179 548-179 479 0 768 339t289 901v128h-572zm1147 238V0h-575v531q-197-318-491-470T1556-91q-537 0-855 302-317 302-317 808 0 590 395 890 396 300 1180 300h807v57q0 397-261 614t-733 217q-300 0-585-72-284-72-546-216v532q315 122 612 182 297 61 578 61 760 0 1135-394 375-393 375-1193z" transform="scale(.01563)"/><path id="DejaVuSans-39" d="M703 97v575q238-113 481-172 244-59 479-59 625 0 954 420 330 420 377 1277-181-269-460-413-278-144-615-144-700 0-1108 423-408 424-408 1159 0 718 425 1152 425 435 1131 435 810 0 1236-621 427-620 427-1801 0-1103-524-1761Q2575-91 1691-91q-238 0-482 47Q966 3 703 97zm1256 1978q425 0 673 290 249 291 249 798 0 503-249 795-248 292-673 292t-673-292q-248-292-248-795 0-507 248-798 248-290 673-290z" transform="scale(.01563)"/></defs><use xlink:href="#DejaVuSans-53"/><use xlink:href="#DejaVuSans-68" x="63.477"/><use xlink:href="#DejaVuSans-65" x="126.855"/><use xlink:href="#DejaVuSans-72" x="188.379"/><use xlink:href="#DejaVuSans-77" x="229.492"/><use xlink:href="#DejaVuSans-6f" x="311.279"/><use xlink:href="#DejaVuSans-6f" x="372.461"/><use xlink:href="#DejaVuSans-64" x="433.643"/><use xlink:href="#DejaVuSans-46" x="497.119"/><use xlink:href="#DejaVuSans-6f" x="551.014"/><use xlink:href="#DejaVuSans-72" x="612.195"/><use xlink:href="#DejaVuSans-65" x="651.059"/><use xlink:href="#DejaVuSans-73" x="712.582"/><use xlink:href="#DejaVuSans-74" x="764.682"/><use xlink:href="#DejaVuSans-2c" x="803.891"/><use xlink:href="#DejaVuSans-20" x="835.678"/><use xlink:href="#DejaVuSans-62" x="867.465"/><use xlink:href="#DejaVuSans-3d" x="930.941"/><use xlink:href="#DejaVuSans-30" x="1014.73"/><use xlink:href="#DejaVuSans-2e" x="1078.354"/><use xlink:href="#DejaVuSans-36" x="1110.141"/><use xlink:href="#DejaVuSans-38" x="1173.764"/><use xlink:href="#DejaVuSans-30" x="1237.387"/><use xlink:href="#DejaVuSans-35" x="1301.01"/><use xlink:href="#DejaVuSans-31" x="1364.633"/><use xlink:href="#DejaVuSans-33" x="1428.256"/><use xlink:href="#DejaVuSans-38" x="1491.879"/><use xlink:href="#DejaVuSans-2c" x="1555.502"/><use xlink:href="#DejaVuSans-20" x="1587.289"/><use xlink:href="#DejaVuSans-61" x="1619.076"/><use xlink:href="#DejaVuSans-3d" x="1680.355"/><use xlink:href="#DejaVuSans-30" x="1764.145"/><use xlink:href="#DejaVuSans-2e" x="1827.768"/><use xlink:href="#DejaVuSans-38" x="1859.555"/><use xlink:href="#DejaVuSans-35" x="1923.178"/><use xlink:href="#DejaVuSans-34" x="1986.801"/><use xlink:href="#DejaVuSans-35" x="2050.424"/><use xlink:href="#DejaVuSans-31" x="2114.047"/><use xlink:href="#DejaVuSans-33" x="2177.67"/><use xlink:href="#DejaVuSans-32" x="2241.293"/><use xlink:href="#DejaVuSans-2c" x="2304.916"/><use xlink:href="#DejaVuSans-20" x="2336.703"/><use xlink:href="#DejaVuSans-64" x="2368.49"/><use xlink:href="#DejaVuSans-3d" x="2431.967"/><use xlink:href="#DejaVuSans-30" x="2515.756"/><use xlink:href="#DejaVuSans-2e" x="2579.379"/><use xlink:href="#DejaVuSans-37" x="2611.166"/><use xlink:href="#DejaVuSans-39" x="2674.789"/><use xlink:href="#DejaVuSans-36" x="2738.412"/><use xlink:href="#DejaVuSans-33" x="2802.035"/><use xlink:href="#DejaVuSans-37" x="2865.658"/><use xlink:href="#DejaVuSans-36" x="2929.281"/><use xlink:href="#DejaVuSans-30" x="2992.904"/></g></g></g><defs><clipPath id="p5df3dddd0d"><path d="M82.62 31.104h498.96v199.584H82.62z"/></clipPath></defs></svg>