<svg xmlns="http://www.w3.org/2000/svg" xmlns:xlink="http://www.w3.org/1999/xlink" width="1728" height="1728" viewBox="0 0 1296 1296"><defs><style>*{stroke-linejoin:round;stroke-linecap:butt}</style></defs><g id="figure_1"><path id="patch_1" d="M0 1296h1296V0H0z" style="fill:#fff"/><g id="axes_1"><path id="patch_2" d="M165.24 1153.44h997.92V155.52H165.24z" style="fill:#fff"/><path id="patch_3" d="M1063.368 355.104a99.797 99.797 0 0 0 70.564-29.228 99.797 99.797 0 0 0 29.228-70.564 99.797 99.797 0 0 0-29.228-70.564 99.797 99.797 0 0 0-70.564-29.228 99.797 99.797 0 0 0-70.564 29.228 99.797 99.797 0 0 0-29.228 70.564 99.797 99.797 0 0 0 29.228 70.564 99.797 99.797 0 0 0 70.564 29.228z" clip-path="url(#p6211ff7080)" style="fill:#9e0142"/><path id="patch_4" d="M863.784 355.104a99.797 99.797 0 0 0 70.564-29.228 99.797 99.797 0 0 0 29.228-70.564 99.797 99.797 0 0 0-29.228-70.564 99.797 99.797 0 0 0-70.564-29.228 99.797 99.797 0 0 0-70.564 29.228 99.797 99.797 0 0 0-29.228 70.564 99.797 99.797 0 0 0 29.228 70.564 99.797 99.797 0 0 0 70.564 29.228z" clip-path="url(#p6211ff7080)" style="fill:#9e0142"/><path id="patch_5" d="M215.136 255.312a49.898 49.898 0 0 0 49.896-49.896 49.898 49.898 0 0 0-49.896-49.896 49.898 49.898 0 0 0-49.896 49.896 49.898 49.898 0 0 0 49.896 49.896z" clip-path="url(#p6211ff7080)" style="fill:#f98e52"/><path id="patch_6" d="M1063.368 1153.44a99.797 99.797 0 0 0 70.564-29.228 99.797 99.797 0 0 0 29.228-70.564 99.797 99.797 0 0 0-29.228-70.564 99.797 99.797 0 0 0-70.564-29.228 99.797 99.797 0 0 0-70.564 29.228 99.797 99.797 0 0 0-29.228 70.564 99.797 99.797 0 0 0 29.228 70.564 99.797 99.797 0 0 0 70.564 29.228z" clip-path="url(#p6211ff7080)" style="fill:#9e0142"/><path id="patch_7" d="M963.576 205.416a24.95 24.95 0 0 0 0-49.896 24.95 24.95 0 0 0 0 49.896z" clip-path="url(#p6211ff7080)" style="fill:#ffffbe"/><path id="patch_8" d="M265.032 1153.44a99.797 99.797 0 0 0 70.564-29.228 99.797 99.797 0 0 0 29.228-70.564 99.797 99.797 0 0 0-29.228-70.564 99.797 99.797 0 0 0-70.564-29.228 99.797 99.797 0 0 0-70.564 29.228 99.797 99.797 0 0 0-29.228 70.564 99.797 99.797 0 0 0 29.228 70.564 99.797 99.797 0 0 0 70.564 29.228z" clip-path="url(#p6211ff7080)" style="fill:#9e0142"/><path id="patch_9" d="M314.928 255.312a49.898 49.898 0 0 0 49.896-49.896 49.898 49.898 0 0 0-49.896-49.896 49.898 49.898 0 0 0-49.896 49.896 49.898 49.898 0 0 0 49.896 49.896z" clip-path="url(#p6211ff7080)" style="fill:#f98e52"/><path id="patch_10" d="M1063.368 554.688a99.797 99.797 0 0 0 70.564-29.228 99.797 99.797 0 0 0 29.228-70.564 99.797 99.797 0 0 0-29.228-70.564 99.797 99.797 0 0 0-70.564-29.228 99.797 99.797 0 0 0-70.564 29.228 99.797 99.797 0 0 0-29.228 70.564 99.797 99.797 0 0 0 29.228 70.564 99.797 99.797 0 0 0 70.564 29.228z" clip-path="url(#p6211ff7080)" style="fill:#9e0142"/><path id="patch_11" d="M1153.18 175.478a9.98 9.98 0 1 0 0-19.959 9.98 9.98 0 0 0 0 19.96z" clip-path="url(#p6211ff7080)" style="fill:#86cfa5"/><path id="patch_12" d="M170.23 165.5a4.99 4.99 0 1 0 0-9.98 4.99 4.99 0 0 0 0 9.98z" clip-path="url(#p6211ff7080)" style="fill:#5e4fa2"/><path id="patch_13" d="M464.616 1153.44a99.797 99.797 0 0 0 70.564-29.228 99.797 99.797 0 0 0 29.228-70.564 99.797 99.797 0 0 0-29.228-70.564 99.797 99.797 0 0 0-70.564-29.228 99.797 99.797 0 0 0-70.564 29.228 99.797 99.797 0 0 0-29.228 70.564 99.797 99.797 0 0 0 29.228 70.564 99.797 99.797 0 0 0 70.564 29.228z" clip-path="url(#p6211ff7080)" style="fill:#9e0142"/><path id="patch_14" d="M963.576 1153.44a24.95 24.95 0 0 0 0-49.896 24.95 24.95 0 0 0 0 49.896z" clip-path="url(#p6211ff7080)" style="fill:#ffffbe"/><path id="patch_15" d="M664.2 1153.44a99.797 99.797 0 0 0 70.564-29.228 99.797 99.797 0 0 0 29.228-70.564 99.797 99.797 0 0 0-29.228-70.564 99.797 99.797 0 0 0-70.564-29.228 99.797 99.797 0 0 0-70.564 29.228 99.797 99.797 0 0 0-29.228 70.564 99.797 99.797 0 0 0 29.228 70.564 99.797 99.797 0 0 0 70.564 29.228z" clip-path="url(#p6211ff7080)" style="fill:#9e0142"/><path id="patch_16" d="M722.657 255.312a49.898 49.898 0 0 0 49.896-49.896 49.898 49.898 0 0 0-49.896-49.896 49.898 49.898 0 0 0-49.896 49.896 49.898 49.898 0 0 0 49.896 49.896z" clip-path="url(#p6211ff7080)" style="fill:#f98e52"/><path id="patch_17" d="M265.032 953.856a99.797 99.797 0 0 0 70.564-29.228 99.797 99.797 0 0 0 29.228-70.564 99.797 99.797 0 0 0-29.228-70.564 99.797 99.797 0 0 0-70.564-29.228 99.797 99.797 0 0 0-70.564 29.228 99.797 99.797 0 0 0-29.228 70.564 99.797 99.797 0 0 0 29.228 70.564 99.797 99.797 0 0 0 70.564 29.228z" clip-path="url(#p6211ff7080)" style="fill:#9e0142"/><path id="patch_18" d="M1063.368 754.272a99.797 99.797 0 0 0 70.564-29.228 99.797 99.797 0 0 0 29.228-70.564 99.797 99.797 0 0 0-29.228-70.564 99.797 99.797 0 0 0-70.564-29.228 99.797 99.797 0 0 0-70.564 29.228 99.797 99.797 0 0 0-29.228 70.564 99.797 99.797 0 0 0 29.228 70.564 99.797 99.797 0 0 0 70.564 29.228z" clip-path="url(#p6211ff7080)" style="fill:#9e0142"/><path id="patch_19" d="M414.72 255.312a49.898 49.898 0 0 0 49.896-49.896 49.898 49.898 0 0 0-49.896-49.896 49.898 49.898 0 0 0-49.896 49.896 49.898 49.898 0 0 0 49.896 49.896z" clip-path="url(#p6211ff7080)" style="fill:#f98e52"/><path id="patch_20" d="M1138.212 380.052a24.95 24.95 0 0 0 0-49.896 24.95 24.95 0 0 0 0 49.896z" clip-path="url(#p6211ff7080)" style="fill:#ffffbe"/><path id="patch_21" d="M1153.18 1153.44a9.98 9.98 0 1 0 0-19.96 9.98 9.98 0 0 0 0 19.96z" clip-path="url(#p6211ff7080)" style="fill:#86cfa5"/><path id="patch_22" d="M265.032 754.272a99.797 99.797 0 0 0 70.564-29.228 99.797 99.797 0 0 0 29.228-70.564 99.797 99.797 0 0 0-29.228-70.564 99.797 99.797 0 0 0-70.564-29.228 99.797 99.797 0 0 0-70.564 29.228 99.797 99.797 0 0 0-29.228 70.564 99.797 99.797 0 0 0 29.228 70.564 99.797 99.797 0 0 0 70.564 29.228z" clip-path="url(#p6211ff7080)" style="fill:#9e0142"/><path id="patch_23" d="M183.579 165.5a4.99 4.99 0 1 0 0-9.98 4.99 4.99 0 0 0 0 9.98z" clip-path="url(#p6211ff7080)" style="fill:#5e4fa2"/><path id="patch_24" d="M863.784 1153.44a99.797 99.797 0 0 0 70.564-29.228 99.797 99.797 0 0 0 29.228-70.564 99.797 99.797 0 0 0-29.228-70.564 99.797 99.797 0 0 0-70.564-29.228 99.797 99.797 0 0 0-70.564 29.228 99.797 99.797 0 0 0-29.228 70.564 99.797 99.797 0 0 0 29.228 70.564 99.797 99.797 0 0 0 70.564 29.228z" clip-path="url(#p6211ff7080)" style="fill:#9e0142"/><path id="patch_25" d="M514.512 255.312a49.898 49.898 0 0 0 49.896-49.896 49.898 49.898 0 0 0-49.896-49.896 49.898 49.898 0 0 0-49.896 49.896 49.898 49.898 0 0 0 49.896 49.896z" clip-path="url(#p6211ff7080)" style="fill:#f98e52"/><path id="patch_26" d="M364.824 1153.44a24.95 24.95 0 0 0 0-49.896 24.95 24.95 0 0 0 0 49.896z" clip-path="url(#p6211ff7080)" style="fill:#ffffbe"/><path id="patch_27" d="M265.032 554.688a99.797 99.797 0 0 0 70.564-29.228 99.797 99.797 0 0 0 29.228-70.564 99.797 99.797 0 0 0-29.228-70.564 99.797 99.797 0 0 0-70.564-29.228 99.797 99.797 0 0 0-70.564 29.228 99.797 99.797 0 0 0-29.228 70.564 99.797 99.797 0 0 0 29.228 70.564 99.797 99.797 0 0 0 70.564 29.228z" clip-path="url(#p6211ff7080)" style="fill:#9e0142"/><path id="patch_28" d="M1063.368 953.856a99.797 99.797 0 0 0 70.564-29.228 99.797 99.797 0 0 0 29.228-70.564 99.797 99.797 0 0 0-29.228-70.564 99.797 99.797 0 0 0-70.564-29.228 99.797 99.797 0 0 0-70.564 29.228 99.797 99.797 0 0 0-29.228 70.564 99.797 99.797 0 0 0 29.228 70.564 99.797 99.797 0 0 0 70.564 29.228z" clip-path="url(#p6211ff7080)" style="fill:#9e0142"/><path id="patch_29" d="M215.136 363.665a49.898 49.898 0 0 0 49.896-49.896 49.898 49.898 0 0 0-49.896-49.896 49.898 49.898 0 0 0-49.896 49.896 49.898 49.898 0 0 0 49.896 49.896z" clip-path="url(#p6211ff7080)" style="fill:#f98e52"/><path id="patch_30" d="M175.22 1153.44a9.98 9.98 0 1 0-.001-19.96 9.98 9.98 0 0 0 0 19.96z" clip-path="url(#p6211ff7080)" style="fill:#86cfa5"/><path id="patch_31" d="M890.523 654.48a99.797 99.797 0 0 0 70.564-29.228 99.797 99.797 0 0 0 29.228-70.564 99.797 99.797 0 0 0-29.228-70.564 99.797 99.797 0 0 0-70.564-29.228 99.797 99.797 0 0 0-70.563 29.228 99.797 99.797 0 0 0-29.229 70.564 99.797 99.797 0 0 0 29.229 70.564 99.797 99.797 0 0 0 70.563 29.228z" clip-path="url(#p6211ff7080)" style="fill:#9e0142"/><path id="patch_32" d="M921.16 458.065a49.898 49.898 0 0 0 49.896-49.896 49.898 49.898 0 0 0-49.896-49.896 49.898 49.898 0 0 0-49.896 49.896 49.898 49.898 0 0 0 49.896 49.896z" clip-path="url(#p6211ff7080)" style="fill:#f98e52"/><path id="patch_33" d="M763.992 1153.44a24.95 24.95 0 0 0 0-49.896 24.95 24.95 0 0 0 0 49.896z" clip-path="url(#p6211ff7080)" style="fill:#ffffbe"/><path id="patch_34" d="M890.523 854.064a99.797 99.797 0 0 0 70.564-29.228 99.797 99.797 0 0 0 29.228-70.564 99.797 99.797 0 0 0-29.228-70.564 99.797 99.797 0 0 0-70.564-29.228 99.797 99.797 0 0 0-70.563 29.228 99.797 99.797 0 0 0-29.229 70.564 99.797 99.797 0 0 0 29.229 70.564 99.797 99.797 0 0 0 70.563 29.228z" clip-path="url(#p6211ff7080)" style="fill:#9e0142"/><path id="patch_35" d="M170.23 175.478a4.99 4.99 0 1 0 0-9.98 4.99 4.99 0 0 0 0 9.98z" clip-path="url(#p6211ff7080)" style="fill:#5e4fa2"/><path id="patch_36" d="M717.678 754.272a99.797 99.797 0 0 0 70.564-29.228 99.797 99.797 0 0 0 29.228-70.564 99.797 99.797 0 0 0-29.228-70.564 99.797 99.797 0 0 0-70.564-29.228 99.797 99.797 0 0 0-70.563 29.228 99.797 99.797 0 0 0-29.229 70.564 99.797 99.797 0 0 0 29.229 70.564 99.797 99.797 0 0 0 70.563 29.228z" clip-path="url(#p6211ff7080)" style="fill:#9e0142"/><path id="patch_37" d="M822.259 471.368a49.898 49.898 0 0 0 49.896-49.896 49.898 49.898 0 0 0-49.896-49.896 49.898 49.898 0 0 0-49.896 49.896 49.898 49.898 0 0 0 49.896 49.896z" clip-path="url(#p6211ff7080)" style="fill:#f98e52"/><path id="patch_38" d="M717.678 953.856a99.797 99.797 0 0 0 70.564-29.228 99.797 99.797 0 0 0 29.228-70.564 99.797 99.797 0 0 0-29.228-70.564 99.797 99.797 0 0 0-70.564-29.228 99.797 99.797 0 0 0-70.563 29.228 99.797 99.797 0 0 0-29.229 70.564 99.797 99.797 0 0 0 29.229 70.564 99.797 99.797 0 0 0 70.563 29.228z" clip-path="url(#p6211ff7080)" style="fill:#9e0142"/><path id="patch_39" d="M1138.212 978.804a24.95 24.95 0 0 0 0-49.896 24.95 24.95 0 0 0 0 49.896z" clip-path="url(#p6211ff7080)" style="fill:#ffffbe"/><path id="patch_40" d="M1133.222 175.478a9.98 9.98 0 1 0 0-19.959 9.98 9.98 0 0 0 0 19.96z" clip-path="url(#p6211ff7080)" style="fill:#86cfa5"/><path id="patch_41" d="M544.834 854.064a99.797 99.797 0 0 0 70.563-29.228 99.797 99.797 0 0 0 29.229-70.564 99.797 99.797 0 0 0-29.229-70.564 99.797 99.797 0 0 0-70.563-29.228 99.797 99.797 0 0 0-70.564 29.228 99.797 99.797 0 0 0-29.228 70.564 99.797 99.797 0 0 0 29.228 70.564 99.797 99.797 0 0 0 70.564 29.228z" clip-path="url(#p6211ff7080)" style="fill:#9e0142"/><path id="patch_42" d="M753.697 543.878a49.898 49.898 0 0 0 49.896-49.896 49.898 49.898 0 0 0-49.896-49.896 49.898 49.898 0 0 0-49.896 49.896 49.898 49.898 0 0 0 49.896 49.896z" clip-path="url(#p6211ff7080)" style="fill:#f98e52"/><path id="patch_43" d="M685.433 460.559a99.797 99.797 0 0 0 70.564-29.229 99.797 99.797 0 0 0 29.228-70.563 99.797 99.797 0 0 0-29.228-70.564 99.797 99.797 0 0 0-70.564-29.228 99.797 99.797 0 0 0-70.564 29.228 99.797 99.797 0 0 0-29.228 70.564 99.797 99.797 0 0 0 29.228 70.563 99.797 99.797 0 0 0 70.564 29.229z" clip-path="url(#p6211ff7080)" style="fill:#9e0142"/><path id="patch_44" d="M654.796 557.182a49.898 49.898 0 0 0 49.896-49.896 49.898 49.898 0 0 0-49.896-49.896 49.898 49.898 0 0 0-49.896 49.896 49.898 49.898 0 0 0 49.896 49.896z" clip-path="url(#p6211ff7080)" style="fill:#f98e52"/><path id="patch_45" d="M190.188 779.22a24.95 24.95 0 0 0 0-49.896 24.95 24.95 0 0 0 0 49.896z" clip-path="url(#p6211ff7080)" style="fill:#ffffbe"/><path id="patch_46" d="M512.588 560.35a99.797 99.797 0 0 0 70.564-29.228 99.797 99.797 0 0 0 29.228-70.563 99.797 99.797 0 0 0-29.228-70.564 99.797 99.797 0 0 0-70.564-29.228 99.797 99.797 0 0 0-70.563 29.228 99.797 99.797 0 0 0-29.229 70.564 99.797 99.797 0 0 0 29.229 70.563 99.797 99.797 0 0 0 70.563 29.229z" clip-path="url(#p6211ff7080)" style="fill:#9e0142"/><path id="patch_47" d="M1107.996 165.5a4.99 4.99 0 1 0 0-9.98 4.99 4.99 0 0 0 0 9.98z" clip-path="url(#p6211ff7080)" style="fill:#5e4fa2"/><path id="patch_48" d="M575.47 950.687a49.898 49.898 0 0 0 49.897-49.896 49.898 49.898 0 0 0-49.896-49.896 49.898 49.898 0 0 0-49.896 49.896 49.898 49.898 0 0 0 49.896 49.896z" clip-path="url(#p6211ff7080)" style="fill:#f98e52"/><path id="patch_49" d="M1153.18 195.437a9.98 9.98 0 1 0 0-19.96 9.98 9.98 0 0 0 0 19.96z" clip-path="url(#p6211ff7080)" style="fill:#86cfa5"/><path id="patch_50" d="M190.188 978.804a24.95 24.95 0 0 0 0-49.896 24.95 24.95 0 0 0 0 49.896z" clip-path="url(#p6211ff7080)" style="fill:#ffffbe"/><path id="patch_51" d="M614.304 255.312a49.898 49.898 0 0 0 49.896-49.896 49.898 49.898 0 0 0-49.896-49.896 49.898 49.898 0 0 0-49.896 49.896 49.898 49.898 0 0 0 49.896 49.896z" clip-path="url(#p6211ff7080)" style="fill:#f98e52"/><path id="patch_52" d="M314.928 363.665a49.898 49.898 0 0 0 49.896-49.896 49.898 49.898 0 0 0-49.896-49.896 49.898 49.898 0 0 0-49.896 49.896 49.898 49.898 0 0 0 49.896 49.896z" clip-path="url(#p6211ff7080)" style="fill:#f98e52"/><path id="patch_53" d="M1138.212 579.636a24.95 24.95 0 0 0 0-49.896 24.95 24.95 0 0 0 0 49.896z" clip-path="url(#p6211ff7080)" style="fill:#ffffbe"/><path id="patch_54" d="M1153.18 328.405a9.98 9.98 0 1 0 0-19.96 9.98 9.98 0 0 0 0 19.96z" clip-path="url(#p6211ff7080)" style="fill:#86cfa5"/><path id="patch_55" d="M1117.976 165.5a4.99 4.99 0 1 0 0-9.98 4.99 4.99 0 0 0 0 9.98z" clip-path="url(#p6211ff7080)" style="fill:#5e4fa2"/><path id="patch_56" d="M561.589 370.794a24.95 24.95 0 0 0 0-49.896 24.95 24.95 0 0 0 0 49.896z" clip-path="url(#p6211ff7080)" style="fill:#ffffbe"/><path id="patch_57" d="M476.57 937.384a49.898 49.898 0 0 0 49.895-49.896 49.898 49.898 0 0 0-49.896-49.896 49.898 49.898 0 0 0-49.896 49.896 49.898 49.898 0 0 0 49.896 49.896z" clip-path="url(#p6211ff7080)" style="fill:#f98e52"/><path id="patch_58" d="M1000.254 175.478a9.98 9.98 0 1 0 0-19.959 9.98 9.98 0 0 0 0 19.96z" clip-path="url(#p6211ff7080)" style="fill:#86cfa5"/><path id="patch_59" d="M190.188 579.636a24.95 24.95 0 0 0 0-49.896 24.95 24.95 0 0 0 0 49.896z" clip-path="url(#p6211ff7080)" style="fill:#ffffbe"/><path id="patch_60" d="M1158.17 215.673a4.99 4.99 0 1 0 0-9.98 4.99 4.99 0 0 0 0 9.98z" clip-path="url(#p6211ff7080)" style="fill:#5e4fa2"/><path id="patch_61" d="M376.603 604.584a49.898 49.898 0 0 0 49.896-49.896 49.898 49.898 0 0 0-49.896-49.896 49.898 49.898 0 0 0-49.896 49.896 49.898 49.898 0 0 0 49.896 49.896z" clip-path="url(#p6211ff7080)" style="fill:#f98e52"/><path id="patch_62" d="M859.886 950.687a49.898 49.898 0 0 0 49.896-49.896 49.898 49.898 0 0 0-49.896-49.896 49.898 49.898 0 0 0-49.896 49.896 49.898 49.898 0 0 0 49.896 49.896z" clip-path="url(#p6211ff7080)" style="fill:#f98e52"/><path id="patch_63" d="M564.408 1153.44a24.95 24.95 0 0 0 0-49.896 24.95 24.95 0 0 0 0 49.896z" clip-path="url(#p6211ff7080)" style="fill:#ffffbe"/><path id="patch_64" d="M678.028 175.478a9.98 9.98 0 1 0 0-19.959 9.98 9.98 0 0 0 0 19.96z" clip-path="url(#p6211ff7080)" style="fill:#86cfa5"/><path id="patch_65" d="M494.874 361.818a49.898 49.898 0 0 0 49.896-49.896 49.898 49.898 0 0 0-49.896-49.896 49.898 49.898 0 0 0-49.896 49.896 49.898 49.898 0 0 0 49.896 49.896z" clip-path="url(#p6211ff7080)" style="fill:#f98e52"/><path id="patch_66" d="M1138.212 779.22a24.95 24.95 0 0 0 0-49.896 24.95 24.95 0 0 0 0 49.896z" clip-path="url(#p6211ff7080)" style="fill:#ffffbe"/><path id="patch_67" d="M1158.17 304.93a4.99 4.99 0 1 0 0-9.98 4.99 4.99 0 0 0 0 9.98z" clip-path="url(#p6211ff7080)" style="fill:#5e4fa2"/><path id="patch_68" d="M376.603 804.168a49.898 49.898 0 0 0 49.896-49.896 49.898 49.898 0 0 0-49.896-49.896 49.898 49.898 0 0 0-49.896 49.896 49.898 49.898 0 0 0 49.896 49.896z" clip-path="url(#p6211ff7080)" style="fill:#f98e52"/><path id="patch_69" d="M175.22 368.376a9.98 9.98 0 1 0-.001-19.959 9.98 9.98 0 0 0 0 19.96z" clip-path="url(#p6211ff7080)" style="fill:#86cfa5"/><path id="patch_70" d="M980.089 386.975a24.95 24.95 0 0 0 0-49.896 24.95 24.95 0 0 0 0 49.896z" clip-path="url(#p6211ff7080)" style="fill:#ffffbe"/><path id="patch_71" d="M405.387 405.983a49.898 49.898 0 0 0 49.896-49.896 49.898 49.898 0 0 0-49.896-49.896 49.898 49.898 0 0 0-49.896 49.896 49.898 49.898 0 0 0 49.896 49.896z" clip-path="url(#p6211ff7080)" style="fill:#f98e52"/><path id="patch_72" d="M1018.74 165.5a4.99 4.99 0 1 0 0-9.98 4.99 4.99 0 0 0 0 9.98z" clip-path="url(#p6211ff7080)" style="fill:#5e4fa2"/><path id="patch_73" d="M732.435 1153.44a9.98 9.98 0 1 0 0-19.96 9.98 9.98 0 0 0 0 19.96z" clip-path="url(#p6211ff7080)" style="fill:#86cfa5"/><path id="patch_74" d="M575.47 657.649a49.898 49.898 0 0 0 49.897-49.896 49.898 49.898 0 0 0-49.896-49.896 49.898 49.898 0 0 0-49.896 49.896 49.898 49.898 0 0 0 49.896 49.896z" clip-path="url(#p6211ff7080)" style="fill:#f98e52"/><path id="patch_75" d="M476.57 670.952a49.898 49.898 0 0 0 49.895-49.896 49.898 49.898 0 0 0-49.896-49.896 49.898 49.898 0 0 0-49.896 49.896 49.898 49.898 0 0 0 49.896 49.896z" clip-path="url(#p6211ff7080)" style="fill:#f98e52"/><path id="patch_76" d="M763.992 1003.752a24.95 24.95 0 0 0 0-49.896 24.95 24.95 0 0 0 0 49.896z" clip-path="url(#p6211ff7080)" style="fill:#ffffbe"/><path id="patch_77" d="M1158.17 204.56a4.99 4.99 0 1 0 0-9.98 4.99 4.99 0 0 0 0 9.98z" clip-path="url(#p6211ff7080)" style="fill:#5e4fa2"/><path id="patch_78" d="M1153.18 732.694a9.98 9.98 0 1 0 0-19.96 9.98 9.98 0 0 0 0 19.96z" clip-path="url(#p6211ff7080)" style="fill:#86cfa5"/><path id="patch_79" d="M391.732 454.622a24.95 24.95 0 0 0 0-49.896 24.95 24.95 0 0 0 0 49.896z" clip-path="url(#p6211ff7080)" style="fill:#ffffbe"/><path id="patch_80" d="M270.3 175.478a9.98 9.98 0 1 0 0-19.959 9.98 9.98 0 0 0 0 19.96z" clip-path="url(#p6211ff7080)" style="fill:#86cfa5"/><path id="patch_81" d="M1158.17 337.78a4.99 4.99 0 1 0 0-9.98 4.99 4.99 0 0 0 0 9.98z" clip-path="url(#p6211ff7080)" style="fill:#5e4fa2"/><path id="patch_82" d="M988.524 978.804a24.95 24.95 0 0 0 0-49.896 24.95 24.95 0 0 0 0 49.896z" clip-path="url(#p6211ff7080)" style="fill:#ffffbe"/><path id="patch_83" d="M195.178 1153.44a9.98 9.98 0 1 0 0-19.96 9.98 9.98 0 0 0 0 19.96z" clip-path="url(#p6211ff7080)" style="fill:#86cfa5"/><path id="patch_84" d="M440.148 711.389a24.95 24.95 0 0 0 0-49.896 24.95 24.95 0 0 0 0 49.896z" clip-path="url(#p6211ff7080)" style="fill:#ffffbe"/><path id="patch_85" d="M985.89 165.5a4.99 4.99 0 1 0 0-9.98 4.99 4.99 0 0 0 0 9.98z" clip-path="url(#p6211ff7080)" style="fill:#5e4fa2"/><path id="patch_86" d="M175.22 533.11a9.98 9.98 0 1 0-.001-19.96 9.98 9.98 0 0 0 0 19.96z" clip-path="url(#p6211ff7080)" style="fill:#86cfa5"/><path id="patch_87" d="M663.916 165.5a4.99 4.99 0 1 0 0-9.98 4.99 4.99 0 0 0 0 9.98z" clip-path="url(#p6211ff7080)" style="fill:#5e4fa2"/><path id="patch_88" d="M387.098 705.116a24.95 24.95 0 0 0 0-49.896 24.95 24.95 0 0 0 0 49.896z" clip-path="url(#p6211ff7080)" style="fill:#ffffbe"/><path id="patch_89" d="M1153.18 601.345a9.98 9.98 0 1 0 0-19.96 9.98 9.98 0 0 0 0 19.96z" clip-path="url(#p6211ff7080)" style="fill:#86cfa5"/><path id="patch_90" d="M564.408 1003.752a24.95 24.95 0 0 0 0-49.896 24.95 24.95 0 0 0 0 49.896z" clip-path="url(#p6211ff7080)" style="fill:#ffffbe"/><path id="patch_91" d="M645.861 165.5a4.99 4.99 0 1 0 0-9.98 4.99 4.99 0 0 0 0 9.98z" clip-path="url(#p6211ff7080)" style="fill:#5e4fa2"/><path id="patch_92" d="M440.148 847.051a24.95 24.95 0 0 0 0-49.896 24.95 24.95 0 0 0 0 49.896z" clip-path="url(#p6211ff7080)" style="fill:#ffffbe"/><path id="patch_93" d="M459.348 175.478a9.98 9.98 0 1 0 0-19.959 9.98 9.98 0 0 0 0 19.96z" clip-path="url(#p6211ff7080)" style="fill:#86cfa5"/><path id="patch_94" d="M1153.18 927.157a9.98 9.98 0 1 0 0-19.96 9.98 9.98 0 0 0 0 19.96z" clip-path="url(#p6211ff7080)" style="fill:#86cfa5"/><path id="patch_95" d="M718.322 1153.44a4.99 4.99 0 1 0 0-9.98 4.99 4.99 0 0 0 0 9.98z" clip-path="url(#p6211ff7080)" style="fill:#5e4fa2"/><path id="patch_96" d="M175.22 732.694a9.98 9.98 0 1 0-.001-19.96 9.98 9.98 0 0 0 0 19.96z" clip-path="url(#p6211ff7080)" style="fill:#86cfa5"/><path id="patch_97" d="M1158.17 713.592a4.99 4.99 0 1 0 0-9.98 4.99 4.99 0 0 0 0 9.98z" clip-path="url(#p6211ff7080)" style="fill:#5e4fa2"/><path id="patch_98" d="M364.824 1003.752a24.95 24.95 0 0 0 0-49.896 24.95 24.95 0 0 0 0 49.896z" clip-path="url(#p6211ff7080)" style="fill:#ffffbe"/><path id="patch_99" d="M370.092 175.478a9.98 9.98 0 1 0 0-19.959 9.98 9.98 0 0 0 0 19.96z" clip-path="url(#p6211ff7080)" style="fill:#86cfa5"/><path id="patch_100" d="M387.098 653.74a24.95 24.95 0 0 0 0-49.896 24.95 24.95 0 0 0 0 49.896z" clip-path="url(#p6211ff7080)" style="fill:#ffffbe"/><path id="patch_101" d="M246.693 165.5a4.99 4.99 0 1 0 0-9.98 4.99 4.99 0 0 0 0 9.98z" clip-path="url(#p6211ff7080)" style="fill:#5e4fa2"/><path id="patch_102" d="M402.14 970.63a24.95 24.95 0 0 0 0-49.897 24.95 24.95 0 0 0 0 49.896z" clip-path="url(#p6211ff7080)" style="fill:#ffffbe"/><path id="patch_103" d="M175.22 800.93a9.98 9.98 0 1 0-.001-19.96 9.98 9.98 0 0 0 0 19.96z" clip-path="url(#p6211ff7080)" style="fill:#86cfa5"/><path id="patch_104" d="M209.29 1153.44a4.99 4.99 0 1 0 0-9.98 4.99 4.99 0 0 0 0 9.98z" clip-path="url(#p6211ff7080)" style="fill:#5e4fa2"/><path id="patch_105" d="M387.098 853.324a24.95 24.95 0 0 0 0-49.896 24.95 24.95 0 0 0 0 49.896z" clip-path="url(#p6211ff7080)" style="fill:#ffffbe"/><path id="patch_106" d="M425.442 308.928a24.95 24.95 0 0 0 0-49.896 24.95 24.95 0 0 0 0 49.896z" clip-path="url(#p6211ff7080)" style="fill:#ffffbe"/><path id="patch_107" d="M175.22 279.12a9.98 9.98 0 1 0-.001-19.96 9.98 9.98 0 0 0 0 19.96z" clip-path="url(#p6211ff7080)" style="fill:#86cfa5"/><path id="patch_108" d="M170.23 514.008a4.99 4.99 0 1 0 0-9.98 4.99 4.99 0 0 0 0 9.98z" clip-path="url(#p6211ff7080)" style="fill:#5e4fa2"/><path id="patch_109" d="M929.31 897.776a24.95 24.95 0 0 0 0-49.896 24.95 24.95 0 0 0 0 49.896z" clip-path="url(#p6211ff7080)" style="fill:#ffffbe"/><path id="patch_110" d="M175.22 927.157a9.98 9.98 0 1 0-.001-19.96 9.98 9.98 0 0 0 0 19.96z" clip-path="url(#p6211ff7080)" style="fill:#86cfa5"/><path id="patch_111" d="M389.296 504.459a24.95 24.95 0 0 0 0-49.896 24.95 24.95 0 0 0 0 49.896z" clip-path="url(#p6211ff7080)" style="fill:#ffffbe"/><path id="patch_112" d="M1158.17 582.243a4.99 4.99 0 1 0 0-9.98 4.99 4.99 0 0 0 0 9.98z" clip-path="url(#p6211ff7080)" style="fill:#5e4fa2"/><path id="patch_113" d="M175.22 601.345a9.98 9.98 0 1 0-.001-19.96 9.98 9.98 0 0 0 0 19.96z" clip-path="url(#p6211ff7080)" style="fill:#86cfa5"/><path id="patch_114" d="M595.965 1153.44a9.98 9.98 0 1 0 0-19.96 9.98 9.98 0 0 0 0 19.96z" clip-path="url(#p6211ff7080)" style="fill:#86cfa5"/><path id="patch_115" d="M473.461 165.5a4.99 4.99 0 1 0 0-9.98 4.99 4.99 0 0 0 0 9.98z" clip-path="url(#p6211ff7080)" style="fill:#5e4fa2"/><path id="patch_116" d="M396.381 1153.44a9.98 9.98 0 1 0 0-19.96 9.98 9.98 0 0 0 0 19.96z" clip-path="url(#p6211ff7080)" style="fill:#86cfa5"/><path id="patch_117" d="M1158.17 908.055a4.99 4.99 0 1 0 0-9.98 4.99 4.99 0 0 0 0 9.98z" clip-path="url(#p6211ff7080)" style="fill:#5e4fa2"/><path id="patch_118" d="M931.458 947.626a24.95 24.95 0 0 0 0-49.896 24.95 24.95 0 0 0 0 49.896z" clip-path="url(#p6211ff7080)" style="fill:#ffffbe"/><path id="patch_119" d="M1153.18 527.99a9.98 9.98 0 1 0 0-19.96 9.98 9.98 0 0 0 0 19.96z" clip-path="url(#p6211ff7080)" style="fill:#86cfa5"/><path id="patch_120" d="M1158.17 936.531a4.99 4.99 0 1 0 0-9.98 4.99 4.99 0 0 0 0 9.98z" clip-path="url(#p6211ff7080)" style="fill:#5e4fa2"/><path id="patch_121" d="M527.73 1153.44a9.98 9.98 0 1 0 0-19.96 9.98 9.98 0 0 0 0 19.96z" clip-path="url(#p6211ff7080)" style="fill:#86cfa5"/><path id="patch_122" d="M170.23 713.592a4.99 4.99 0 1 0 0-9.98 4.99 4.99 0 0 0 0 9.98z" clip-path="url(#p6211ff7080)" style="fill:#5e4fa2"/><path id="patch_123" d="M932.019 1153.44a9.98 9.98 0 1 0 0-19.96 9.98 9.98 0 0 0 0 19.96z" clip-path="url(#p6211ff7080)" style="fill:#86cfa5"/><path id="patch_124" d="M387.4 903.22a24.95 24.95 0 0 0 0-49.896 24.95 24.95 0 0 0 0 49.896z" clip-path="url(#p6211ff7080)" style="fill:#ffffbe"/><path id="patch_125" d="M1000.254 1153.44a9.98 9.98 0 1 0 0-19.96 9.98 9.98 0 0 0 0 19.96z" clip-path="url(#p6211ff7080)" style="fill:#86cfa5"/><path id="patch_126" d="M1158.17 614.841a4.99 4.99 0 1 0 0-9.98 4.99 4.99 0 0 0 0 9.98z" clip-path="url(#p6211ff7080)" style="fill:#5e4fa2"/><path id="patch_127" d="M932.019 175.478a9.98 9.98 0 1 0 0-19.959 9.98 9.98 0 0 0 0 19.96z" clip-path="url(#p6211ff7080)" style="fill:#86cfa5"/><path id="patch_128" d="M355.979 165.5a4.99 4.99 0 1 0 0-9.98 4.99 4.99 0 0 0 0 9.98z" clip-path="url(#p6211ff7080)" style="fill:#5e4fa2"/><path id="patch_129" d="M1153.18 795.808a9.98 9.98 0 1 0 0-19.96 9.98 9.98 0 0 0 0 19.96z" clip-path="url(#p6211ff7080)" style="fill:#86cfa5"/><path id="patch_130" d="M170.23 810.052a4.99 4.99 0 1 0 0-9.98 4.99 4.99 0 0 0 0 9.98z" clip-path="url(#p6211ff7080)" style="fill:#5e4fa2"/><path id="patch_131" d="M1153.18 1126.741a9.98 9.98 0 1 0 0-19.96 9.98 9.98 0 0 0 0 19.96z" clip-path="url(#p6211ff7080)" style="fill:#86cfa5"/><path id="patch_132" d="M568.085 321.322a24.95 24.95 0 0 0 0-49.896 24.95 24.95 0 0 0 0 49.896z" clip-path="url(#p6211ff7080)" style="fill:#ffffbe"/><path id="patch_133" d="M170.23 781.576a4.99 4.99 0 1 0 0-9.98 4.99 4.99 0 0 0 0 9.98z" clip-path="url(#p6211ff7080)" style="fill:#5e4fa2"/><g id="matplotlib.axis_1"><g id="xtick_1"><g id="line2d_1"><defs><path id="m23c14ce42b" d="M0 0v3.5" style="stroke:#000;stroke-width:.8"/></defs><use xlink:href="#m23c14ce42b" x="165.24" y="1153.44" style="stroke:#000;stroke-width:.8"/></g><g id="text_1" transform="matrix(.1 0 0 -.1 162.059 1168.038)"><defs><path id="DejaVuSans-30" d="M2034 4250q-487 0-733-480-245-479-245-1442 0-959 245-1439 246-480 733-480 491 0 736 480 246 480 246 1439 0 963-246 1442-245 480-736 480zm0 500q785 0 1199-621 414-620 414-1801 0-1178-414-1799Q2819-91 2034-91q-784 0-1198 620-414 621-414 1799 0 1181 414 1801 414 621 1198 621z" transform="scale(.01563)"/></defs><use xlink:href="#DejaVuSans-30"/></g></g><g id="xtick_2"><use xlink:href="#m23c14ce42b" id="line2d_2" x="364.824" y="1153.44" style="stroke:#000;stroke-width:.8"/><g id="text_2" transform="matrix(.1 0 0 -.1 355.28 1168.038)"><defs><path id="DejaVuSans-32" d="M1228 531h2203V0H469v531q359 372 979 998 621 627 780 809 303 340 423 576 121 236 121 464 0 372-261 606-261 235-680 235-297 0-627-103-329-103-704-313v638q381 153 712 231 332 78 607 78 725 0 1156-363 431-362 431-968 0-288-108-546-107-257-392-607-78-91-497-524-418-433-1181-1211z" transform="scale(.01563)"/></defs><use xlink:href="#DejaVuSans-32"/><use xlink:href="#DejaVuSans-30" x="63.623"/><use xlink:href="#DejaVuSans-30" x="127.246"/></g></g><g id="xtick_3"><use xlink:href="#m23c14ce42b" id="line2d_3" x="564.408" y="1153.44" style="stroke:#000;stroke-width:.8"/><g id="text_3" transform="matrix(.1 0 0 -.1 554.864 1168.038)"><defs><path id="DejaVuSans-34" d="M2419 4116 825 1625h1594v2491zm-166 550h794V1625h666v-525h-666V0h-628v1100H313v609l1940 2957z" transform="scale(.01563)"/></defs><use xlink:href="#DejaVuSans-34"/><use xlink:href="#DejaVuSans-30" x="63.623"/><use xlink:href="#DejaVuSans-30" x="127.246"/></g></g><g id="xtick_4"><use xlink:href="#m23c14ce42b" id="line2d_4" x="763.992" y="1153.44" style="stroke:#000;stroke-width:.8"/><g id="text_4" transform="matrix(.1 0 0 -.1 754.448 1168.038)"><defs><path id="DejaVuSans-36" d="M2113 2584q-425 0-674-291-248-290-248-796 0-503 248-796 249-292 674-292t673 292q248 293 248 796 0 506-248 796-248 291-673 291zm1253 1979v-575q-238 112-480 171-242 60-480 60-625 0-955-422-329-422-376-1275 184 272 462 417 279 145 613 145 703 0 1111-427 408-426 408-1160 0-719-425-1154Q2819-91 2113-91q-810 0-1238 620-428 621-428 1799 0 1106 525 1764t1409 658q238 0 480-47t505-140z" transform="scale(.01563)"/></defs><use xlink:href="#DejaVuSans-36"/><use xlink:href="#DejaVuSans-30" x="63.623"/><use xlink:href="#DejaVuSans-30" x="127.246"/></g></g><g id="xtick_5"><use xlink:href="#m23c14ce42b" id="line2d_5" x="963.576" y="1153.44" style="stroke:#000;stroke-width:.8"/><g id="text_5" transform="matrix(.1 0 0 -.1 954.032 1168.038)"><defs><path id="DejaVuSans-38" d="M2034 2216q-450 0-708-241-257-241-257-662 0-422 257-663 258-241 708-241t709 242q260 243 260 662 0 421-258 662-257 241-711 241zm-631 268q-406 100-633 378-226 279-226 679 0 559 398 884 399 325 1092 325 697 0 1094-325t397-884q0-400-227-679-226-278-629-378 456-106 710-416 255-309 255-755 0-679-414-1042Q2806-91 2034-91q-771 0-1186 362-414 363-414 1042 0 446 256 755 257 310 713 416zm-231 997q0-362 226-565 227-203 636-203 407 0 636 203 230 203 230 565 0 363-230 566-229 203-636 203-409 0-636-203-226-203-226-566z" transform="scale(.01563)"/></defs><use xlink:href="#DejaVuSans-38"/><use xlink:href="#DejaVuSans-30" x="63.623"/><use xlink:href="#DejaVuSans-30" x="127.246"/></g></g><g id="xtick_6"><use xlink:href="#m23c14ce42b" id="line2d_6" x="1163.16" y="1153.44" style="stroke:#000;stroke-width:.8"/><g id="text_6" transform="matrix(.1 0 0 -.1 1150.435 1168.038)"><defs><path id="DejaVuSans-31" d="M794 531h1031v3560L703 3866v575l1116 225h631V531h1031V0H794v531z" transform="scale(.01563)"/></defs><use xlink:href="#DejaVuSans-31"/><use xlink:href="#DejaVuSans-30" x="63.623"/><use xlink:href="#DejaVuSans-30" x="127.246"/><use xlink:href="#DejaVuSans-30" x="190.869"/></g></g></g><g id="matplotlib.axis_2"><g id="ytick_1"><g id="line2d_7"><defs><path id="med59a7bb0d" d="M0 0h-3.5" style="stroke:#000;stroke-width:.8"/></defs><use xlink:href="#med59a7bb0d" x="165.24" y="1153.44" style="stroke:#000;stroke-width:.8"/></g><use xlink:href="#DejaVuSans-30" id="text_7" transform="matrix(.1 0 0 -.1 151.877 1157.24)"/></g><g id="ytick_2"><use xlink:href="#med59a7bb0d" id="line2d_8" x="165.24" y="953.856" style="stroke:#000;stroke-width:.8"/><g id="text_8" transform="matrix(.1 0 0 -.1 139.153 957.655)"><use xlink:href="#DejaVuSans-32"/><use xlink:href="#DejaVuSans-30" x="63.623"/><use xlink:href="#DejaVuSans-30" x="127.246"/></g></g><g id="ytick_3"><use xlink:href="#med59a7bb0d" id="line2d_9" x="165.24" y="754.272" style="stroke:#000;stroke-width:.8"/><g id="text_9" transform="matrix(.1 0 0 -.1 139.153 758.071)"><use xlink:href="#DejaVuSans-34"/><use xlink:href="#DejaVuSans-30" x="63.623"/><use xlink:href="#DejaVuSans-30" x="127.246"/></g></g><g id="ytick_4"><use xlink:href="#med59a7bb0d" id="line2d_10" x="165.24" y="554.688" style="stroke:#000;stroke-width:.8"/><g id="text_10" transform="matrix(.1 0 0 -.1 139.153 558.487)"><use xlink:href="#DejaVuSans-36"/><use xlink:href="#DejaVuSans-30" x="63.623"/><use xlink:href="#DejaVuSans-30" x="127.246"/></g></g><g id="ytick_5"><use xlink:href="#med59a7bb0d" id="line2d_11" x="165.24" y="355.104" style="stroke:#000;stroke-width:.8"/><g id="text_11" transform="matrix(.1 0 0 -.1 139.153 358.903)"><use xlink:href="#DejaVuSans-38"/><use xlink:href="#DejaVuSans-30" x="63.623"/><use xlink:href="#DejaVuSans-30" x="127.246"/></g></g><g id="ytick_6"><use xlink:href="#med59a7bb0d" id="line2d_12" x="165.24" y="155.52" style="stroke:#000;stroke-width:.8"/><g id="text_12" transform="matrix(.1 0 0 -.1 132.79 159.32)"><use xlink:href="#DejaVuSans-31"/><use xlink:href="#DejaVuSans-30" x="63.623"/><use xlink:href="#DejaVuSans-30" x="127.246"/><use xlink:href="#DejaVuSans-30" x="190.869"/></g></g></g><path id="patch_134" d="M165.24 1153.44V155.52" style="fill:none;stroke:#000;stroke-width:.8;stroke-linejoin:miter;stroke-linecap:square"/><path id="patch_135" d="M1163.16 1153.44V155.52" style="fill:none;stroke:#000;stroke-width:.8;stroke-linejoin:miter;stroke-linecap:square"/><path id="patch_136" d="M165.24 1153.44h997.92" style="fill:none;stroke:#000;stroke-width:.8;stroke-linejoin:miter;stroke-linecap:square"/><path id="patch_137" d="M165.24 155.52h997.92" style="fill:none;stroke:#000;stroke-width:.8;stroke-linejoin:miter;stroke-linecap:square"/><g id="text_13" transform="matrix(.12 0 0 -.12 487.58 149.52)"><defs><path id="DejaVuSans-42" d="M1259 2228V519h1013q509 0 754 211 246 211 246 645 0 438-246 645-245 208-754 208H1259zm0 1919V2741h935q462 0 688 173 227 174 227 530 0 353-227 528-226 175-688 175h-935zm-631 519h1613q722 0 1112-300 391-300 391-853 0-429-200-682t-588-315q466-100 724-418 258-317 258-792 0-625-425-966Q3088 0 2303 0H628v4666z" transform="scale(.01563)"/><path id="DejaVuSans-61" d="M2194 1759q-697 0-966-159t-269-544q0-306 202-486 202-179 548-179 479 0 768 339t289 901v128h-572zm1147 238V0h-575v531q-197-318-491-470T1556-91q-537 0-855 302-317 302-317 808 0 590 395 890 396 300 1180 300h807v57q0 397-261 614t-733 217q-300 0-585-72-284-72-546-216v532q315 122 612 182 297 61 578 61 760 0 1135-394 375-393 375-1193z" transform="scale(.01563)"/><path id="DejaVuSans-64" d="M2906 2969v1894h575V0h-575v525q-181-312-458-464-276-152-664-152-634 0-1033 506-398 507-398 1332t398 1331q399 506 1033 506 388 0 664-152 277-151 458-463zM947 1747q0-634 261-995t717-361q456 0 718 361 263 361 263 995t-263 995q-262 361-718 361t-717-361q-261-361-261-995z" transform="scale(.01563)"/><path id="DejaVuSans-4d" d="M628 4666h941l1190-3175 1197 3175h941V0h-616v4097L3078 897h-634L1241 4097V0H628v4666z" transform="scale(.01563)"/><path id="DejaVuSans-57" d="M213 4666h637l981-3944 978 3944h710l981-3944 978 3944h641L4947 0h-794l-984 4050L2175 0h-794L213 4666z" transform="scale(.01563)"/><path id="DejaVuSans-6f" d="M1959 3097q-462 0-731-361t-269-989q0-628 267-989 268-361 733-361 460 0 728 362 269 363 269 988 0 622-269 986-268 364-728 364zm0 487q750 0 1178-488 429-487 429-1349 0-859-429-1349Q2709-91 1959-91q-753 0-1180 489-426 490-426 1349 0 862 426 1349 427 488 1180 488z" transform="scale(.01563)"/><path id="DejaVuSans-72" d="M2631 2963q-97 56-211 82-114 27-251 27-488 0-749-317t-261-911V0H581v3500h578v-544q182 319 472 473 291 155 707 155 59 0 131-8 72-7 159-23l3-590z" transform="scale(.01563)"/><path id="DejaVuSans-6c" d="M603 4863h575V0H603v4863z" transform="scale(.01563)"/><path id="DejaVuSans-2c" d="M750 794h659V256L897-744H494L750 256v538z" transform="scale(.01563)"/><path id="DejaVuSans-62" d="M3116 1747q0 634-261 995t-717 361q-457 0-718-361t-261-995q0-634 261-995t718-361q456 0 717 361t261 995zM1159 2969q182 312 458 463 277 152 661 152 638 0 1036-506 399-506 399-1331T3314 415Q2916-91 2278-91q-384 0-661 152-276 152-458 464V0H581v4863h578V2969z" transform="scale(.01563)"/><path id="DejaVuSans-3d" d="M678 2906h4006v-525H678v525zm0-1275h4006v-531H678v531z" transform="scale(.01563)"/><path id="DejaVuSans-2e" d="M684 794h660V0H684v794z" transform="scale(.01563)"/><path id="DejaVuSans-33" d="M2597 2516q453-97 707-404 255-306 255-756 0-690-475-1069Q2609-91 1734-91q-293 0-604 58T488 141v609q262-153 574-231 313-78 654-78 593 0 904 234t311 681q0 413-289 645-289 233-804 233h-544v519h569q465 0 712 186t247 536q0 359-255 551-254 193-729 193-260 0-557-57-297-56-653-174v562q360 100 674 150t592 50q719 0 1137-327 419-326 419-882 0-388-222-655t-631-370z" transform="scale(.01563)"/><path id="DejaVuSans-39" d="M703 97v575q238-113 481-172 244-59 479-59 625 0 954 420 330 420 377 1277-181-269-460-413-278-144-615-144-700 0-1108 423-408 424-408 1159 0 718 425 1152 425 435 1131 435 810 0 1236-621 427-620 427-1801 0-1103-524-1761Q2575-91 1691-91q-238 0-482 47Q966 3 703 97zm1256 1978q425 0 673 290 249 291 249 798 0 503-249 795-248 292-673 292t-673-292q-248-292-248-795 0-507 248-798 248-290 673-290z" transform="scale(.01563)"/><path id="DejaVuSans-37" d="M525 4666h3000v-269L1831 0h-659l1594 4134H525v532z" transform="scale(.01563)"/></defs><use xlink:href="#DejaVuSans-42"/><use xlink:href="#DejaVuSans-61" x="68.604"/><use xlink:href="#DejaVuSans-64" x="129.883"/><use xlink:href="#DejaVuSans-4d" x="193.359"/><use xlink:href="#DejaVuSans-61" x="279.639"/><use xlink:href="#DejaVuSans-64" x="340.918"/><use xlink:href="#DejaVuSans-57" x="404.395"/><use xlink:href="#DejaVuSans-6f" x="497.396"/><use xlink:href="#DejaVuSans-72" x="558.578"/><use xlink:href="#DejaVuSans-6c" x="599.691"/><use xlink:href="#DejaVuSans-64" x="627.475"/><use xlink:href="#DejaVuSans-2c" x="690.951"/><use xlink:href="#DejaVuSans-20" x="722.738"/><use xlink:href="#DejaVuSans-62" x="754.525"/><use xlink:href="#DejaVuSans-3d" x="818.002"/><use xlink:href="#DejaVuSans-30" x="901.791"/><use xlink:href="#DejaVuSans-2e" x="965.414"/><use xlink:href="#DejaVuSans-36" x="997.201"/><use xlink:href="#DejaVuSans-38" x="1060.824"/><use xlink:href="#DejaVuSans-36" x="1124.447"/><use xlink:href="#DejaVuSans-38" x="1188.07"/><use xlink:href="#DejaVuSans-33" x="1251.693"/><use xlink:href="#DejaVuSans-36" x="1315.316"/><use xlink:href="#DejaVuSans-33" x="1378.939"/><use xlink:href="#DejaVuSans-2c" x="1442.563"/><use xlink:href="#DejaVuSans-20" x="1474.35"/><use xlink:href="#DejaVuSans-61" x="1506.137"/><use xlink:href="#DejaVuSans-3d" x="1567.416"/><use xlink:href="#DejaVuSans-30" x="1651.205"/><use xlink:href="#DejaVuSans-2e" x="1714.828"/><use xlink:href="#DejaVuSans-38" x="1746.615"/><use xlink:href="#DejaVuSans-36" x="1810.238"/><use xlink:href="#DejaVuSans-36" x="1873.861"/><use xlink:href="#DejaVuSans-32" x="1937.484"/><use xlink:href="#DejaVuSans-39" x="2001.107"/><use xlink:href="#DejaVuSans-34" x="2064.73"/><use xlink:href="#DejaVuSans-32" x="2128.354"/><use xlink:href="#DejaVuSans-2c" x="2191.977"/><use xlink:href="#DejaVuSans-20" x="2223.764"/><use xlink:href="#DejaVuSans-64" x="2255.551"/><use xlink:href="#DejaVuSans-3d" x="2319.027"/><use xlink:href="#DejaVuSans-30" x="2402.816"/><use xlink:href="#DejaVuSans-2e" x="2466.439"/><use xlink:href="#DejaVuSans-37" x="2498.227"/><use xlink:href="#DejaVuSans-39" x="2561.85"/><use xlink:href="#DejaVuSans-32" x="2625.473"/><use xlink:href="#DejaVuSans-38" x="2689.096"/><use xlink:href="#DejaVuSans-34" x="2752.719"/><use xlink:href="#DejaVuSans-34" x="2816.342"/><use xlink:href="#DejaVuSans-32" x="2879.965"/></g></g></g><defs><clipPath id="p6211ff7080"><path d="M165.24 155.52h997.92v997.92H165.24z"/></clipPath></defs></svg>