<svg xmlns="http://www.w3.org/2000/svg" xmlns:xlink="http://www.w3.org/1999/xlink" width="1728" height="1728" viewBox="0 0 1296 1296"><defs><style>*{stroke-linejoin:round;stroke-linecap:butt}</style></defs><g id="figure_1"><path id="patch_1" d="M0 1296h1296V0H0z" style="fill:#fff"/><g id="axes_1"><path id="patch_2" d="M165.24 1153.44h997.92V155.52H165.24z" style="fill:#fff"/><path id="patch_3" d="M1063.368 355.104a99.797 99.797 0 0 0 70.564-29.228 99.797 99.797 0 0 0 29.228-70.564 99.797 99.797 0 0 0-29.228-70.564 99.797 99.797 0 0 0-70.564-29.228 99.797 99.797 0 0 0-70.564 29.228 99.797 99.797 0 0 0-29.228 70.564 99.797 99.797 0 0 0 29.228 70.564 99.797 99.797 0 0 0 70.564 29.228z" clip-path="url(#p10c1601b3d)" style="fill:#5e4fa2"/><path id="patch_4" d="M863.784 355.104a99.797 99.797 0 0 0 70.564-29.228 99.797 99.797 0 0 0 29.228-70.564 99.797 99.797 0 0 0-29.228-70.564 99.797 99.797 0 0 0-70.564-29.228 99.797 99.797 0 0 0-70.564 29.228 99.797 99.797 0 0 0-29.228 70.564 99.797 99.797 0 0 0 29.228 70.564 99.797 99.797 0 0 0 70.564 29.228z" clip-path="url(#p10c1601b3d)" style="fill:#5e4fa2"/><path id="patch_5" d="M264.034 353.108c26.2 0 51.331-10.41 69.858-28.936a98.799 98.799 0 0 0 28.936-69.858c0-26.2-10.41-51.331-28.936-69.858a98.799 98.799 0 0 0-69.858-28.936 98.799 98.799 0 0 0-69.858 28.936 98.799 98.799 0 0 0-28.936 69.858c0 26.2 10.41 51.331 28.936 69.858a98.799 98.799 0 0 0 69.858 28.936z" clip-path="url(#p10c1601b3d)" style="fill:#5b53a4"/><path id="patch_6" d="M1065.364 1153.44a97.8 97.8 0 0 0 69.152-28.644 97.8 97.8 0 0 0 28.644-69.152 97.8 97.8 0 0 0-28.644-69.152 97.8 97.8 0 0 0-69.152-28.644 97.8 97.8 0 0 0-69.152 28.644 97.8 97.8 0 0 0-28.644 69.152 97.8 97.8 0 0 0 28.644 69.152 97.8 97.8 0 0 0 69.152 28.644z" clip-path="url(#p10c1601b3d)" style="fill:#555aa7"/><path id="patch_7" d="M262.038 1153.44a96.803 96.803 0 0 0 68.447-28.352 96.803 96.803 0 0 0 28.351-68.446 96.803 96.803 0 0 0-28.351-68.447 96.803 96.803 0 0 0-68.447-28.351 96.803 96.803 0 0 0-68.446 28.351 96.803 96.803 0 0 0-28.352 68.447 96.803 96.803 0 0 0 28.352 68.446 96.803 96.803 0 0 0 68.446 28.352z" clip-path="url(#p10c1601b3d)" style="fill:#525fa9"/><path id="patch_8" d="M668.232 347.12a95.805 95.805 0 0 0 67.741-28.059 95.805 95.805 0 0 0 28.06-67.74 95.805 95.805 0 0 0-28.06-67.742 95.805 95.805 0 0 0-67.74-28.059 95.805 95.805 0 0 0-67.742 28.06 95.805 95.805 0 0 0-28.059 67.74 95.805 95.805 0 0 0 28.06 67.741 95.805 95.805 0 0 0 67.74 28.06z" clip-path="url(#p10c1601b3d)" style="fill:#4d65ad"/><path id="patch_9" d="M457.59 345.125a94.807 94.807 0 0 0 67.035-27.767 94.807 94.807 0 0 0 27.767-67.036 94.807 94.807 0 0 0-27.767-67.035 94.807 94.807 0 0 0-67.036-27.767 94.807 94.807 0 0 0-67.035 27.767 94.807 94.807 0 0 0-27.767 67.035 94.807 94.807 0 0 0 27.767 67.036 94.807 94.807 0 0 0 67.035 27.767z" clip-path="url(#p10c1601b3d)" style="fill:#496aaf"/><path id="patch_10" d="M1069.356 957.89a93.809 93.809 0 0 0 66.33-27.475 93.809 93.809 0 0 0 27.474-66.33 93.809 93.809 0 0 0-27.475-66.33 93.809 93.809 0 0 0-66.33-27.475 93.809 93.809 0 0 0-66.33 27.475 93.809 93.809 0 0 0-27.474 66.33 93.809 93.809 0 0 0 27.475 66.33 93.809 93.809 0 0 0 66.33 27.474z" clip-path="url(#p10c1601b3d)" style="fill:#4471b2"/><path id="patch_11" d="M1070.353 540.59a92.81 92.81 0 0 0 65.625-27.182 92.81 92.81 0 0 0 27.182-65.624 92.81 92.81 0 0 0-27.182-65.624 92.81 92.81 0 0 0-65.625-27.183 92.81 92.81 0 0 0-65.624 27.183 92.81 92.81 0 0 0-27.182 65.624 92.81 92.81 0 0 0 27.182 65.624 92.81 92.81 0 0 0 65.624 27.182z" clip-path="url(#p10c1601b3d)" style="fill:#3f77b5"/><path id="patch_12" d="M257.049 959.91a91.813 91.813 0 0 0 64.918-26.89 91.813 91.813 0 0 0 26.89-64.92 91.813 91.813 0 0 0-26.89-64.918 91.813 91.813 0 0 0-64.918-26.89 91.813 91.813 0 0 0-64.919 26.89 91.813 91.813 0 0 0-26.89 64.919 91.813 91.813 0 0 0 26.89 64.918 91.813 91.813 0 0 0 64.919 26.89z" clip-path="url(#p10c1601b3d)" style="fill:#3b7cb7"/><path id="patch_13" d="M1072.35 722.201a90.815 90.815 0 0 0 90.81-90.81 90.815 90.815 0 0 0-90.81-90.811 90.815 90.815 0 0 0-90.811 90.81 90.815 90.815 0 0 0 90.81 90.811z" clip-path="url(#p10c1601b3d)" style="fill:#3682ba"/><path id="patch_14" d="M877.925 1153.44a89.817 89.817 0 0 0 89.813-89.813 89.817 89.817 0 0 0-89.813-89.813 89.817 89.817 0 0 0-89.813 89.813 89.817 89.817 0 0 0 89.813 89.813z" clip-path="url(#p10c1601b3d)" style="fill:#3387bc"/><path id="patch_15" d="M447.48 1153.44a88.819 88.819 0 0 0 88.814-88.815 88.819 88.819 0 0 0-88.814-88.815 88.819 88.819 0 0 0-88.815 88.815 88.819 88.819 0 0 0 88.815 88.815z" clip-path="url(#p10c1601b3d)" style="fill:#378ebb"/><path id="patch_16" d="M253.057 528.419a87.821 87.821 0 0 0 87.817-87.817 87.821 87.821 0 0 0-87.817-87.817 87.821 87.821 0 0 0-87.817 87.817 87.821 87.821 0 0 0 87.817 87.817z" clip-path="url(#p10c1601b3d)" style="fill:#3d95b8"/><path id="patch_17" d="M701.318 1153.44a86.823 86.823 0 0 0 86.82-86.819 86.823 86.823 0 0 0-86.82-86.82 86.823 86.823 0 0 0-86.819 86.82 86.823 86.823 0 0 0 86.82 86.819z" clip-path="url(#p10c1601b3d)" style="fill:#4199b6"/><path id="patch_18" d="M251.061 776.393a85.825 85.825 0 0 0 85.821-85.82 85.825 85.825 0 0 0-85.82-85.822 85.825 85.825 0 0 0-85.822 85.821 85.825 85.825 0 0 0 85.821 85.821z" clip-path="url(#p10c1601b3d)" style="fill:#47a0b3"/><path id="patch_19" d="M759.135 492.225a84.827 84.827 0 0 0 84.823-84.823 84.827 84.827 0 0 0-84.823-84.823 84.827 84.827 0 0 0-84.823 84.823 84.827 84.827 0 0 0 84.823 84.823z" clip-path="url(#p10c1601b3d)" style="fill:#4ba4b1"/><path id="patch_20" d="M590.59 497.124a83.83 83.83 0 0 0 83.825-83.825 83.83 83.83 0 0 0-83.825-83.826 83.83 83.83 0 0 0-83.825 83.826 83.83 83.83 0 0 0 83.825 83.825z" clip-path="url(#p10c1601b3d)" style="fill:#52abae"/><path id="patch_21" d="M784.237 1001.447a82.831 82.831 0 0 0 82.827-82.827 82.831 82.831 0 0 0-82.827-82.828 82.831 82.831 0 0 0-82.827 82.828 82.831 82.831 0 0 0 82.827 82.827z" clip-path="url(#p10c1601b3d)" style="fill:#56b0ad"/><path id="patch_22" d="M365.25 1003.558a46.904 46.904 0 0 0 46.902-46.902 46.904 46.904 0 0 0-46.902-46.903 46.904 46.904 0 0 0-46.902 46.903 46.904 46.904 0 0 0 46.902 46.902z" clip-path="url(#p10c1601b3d)" style="fill:#fff3ac"/><path id="patch_23" d="M963.051 1000.642a45.906 45.906 0 0 0 45.905-45.904 45.906 45.906 0 0 0-45.905-45.904 45.906 45.906 0 0 0-45.904 45.904 45.906 45.906 0 0 0 45.904 45.904z" clip-path="url(#p10c1601b3d)" style="fill:#fff1a8"/><path id="patch_24" d="M573.786 1153.44a44.908 44.908 0 0 0 44.907-44.906 44.908 44.908 0 0 0-44.907-44.907 44.908 44.908 0 0 0-44.906 44.907 44.908 44.908 0 0 0 44.906 44.906z" clip-path="url(#p10c1601b3d)" style="fill:#feeda1"/><path id="patch_25" d="M562.347 213.4a28.941 28.941 0 0 0 20.464-49.404 28.941 28.941 0 0 0-49.403 20.464 28.941 28.941 0 0 0 28.94 28.94z" clip-path="url(#p10c1601b3d)" style="fill:#fba35c"/><path id="patch_26" d="M1135.218 789.634a27.943 27.943 0 0 0 19.758-47.7 27.943 27.943 0 0 0-47.7 19.758 27.943 27.943 0 0 0 27.942 27.942z" clip-path="url(#p10c1601b3d)" style="fill:#fa9b58"/><path id="patch_27" d="M890.138 974.455a26.945 26.945 0 0 0 19.052-45.996 26.945 26.945 0 0 0-45.996 19.052 26.945 26.945 0 0 0 26.944 26.944z" clip-path="url(#p10c1601b3d)" style="fill:#fa9656"/><path id="patch_28" d="M191.186 562.015a25.947 25.947 0 0 0 0-51.892 25.947 25.947 0 0 0 0 51.892z" clip-path="url(#p10c1601b3d)" style="fill:#f98e52"/><path id="patch_29" d="M963.576 205.416a24.95 24.95 0 0 0 0-49.896 24.95 24.95 0 0 0 0 49.896z" clip-path="url(#p10c1601b3d)" style="fill:#f88950"/><path id="patch_30" d="M764.033 203.42a23.951 23.951 0 1 0-.001-47.902 23.951 23.951 0 0 0 0 47.902z" clip-path="url(#p10c1601b3d)" style="fill:#f7814c"/><path id="patch_31" d="M601.887 1008.498a99.797 99.797 0 0 0 70.563-29.228 99.797 99.797 0 0 0 29.229-70.564 99.797 99.797 0 0 0-29.229-70.563 99.797 99.797 0 0 0-70.563-29.229 99.797 99.797 0 0 0-70.564 29.229 99.797 99.797 0 0 0-29.228 70.563 99.797 99.797 0 0 0 29.228 70.564 99.797 99.797 0 0 0 70.564 29.228z" clip-path="url(#p10c1601b3d)" style="fill:#5e4fa2"/><path id="patch_32" d="M188.192 372.504a22.953 22.953 0 1 0 0-45.907 22.953 22.953 0 0 0 0 45.907z" clip-path="url(#p10c1601b3d)" style="fill:#f67a49"/><path id="patch_33" d="M788.635 1153.44a21.955 21.955 0 1 0 0-43.91 21.955 21.955 0 0 0 0 43.91z" clip-path="url(#p10c1601b3d)" style="fill:#f57547"/><path id="patch_34" d="M186.196 796.346a20.957 20.957 0 1 0 0-41.915 20.957 20.957 0 0 0 0 41.915z" clip-path="url(#p10c1601b3d)" style="fill:#f46d43"/><path id="patch_35" d="M1143.202 553.818a19.96 19.96 0 1 0-.001-39.918 19.96 19.96 0 0 0 0 39.918z" clip-path="url(#p10c1601b3d)" style="fill:#f26944"/><path id="patch_36" d="M1144.2 734.618a18.961 18.961 0 1 0-.001-37.922 18.961 18.961 0 0 0 0 37.922z" clip-path="url(#p10c1601b3d)" style="fill:#ee6445"/><path id="patch_37" d="M420.038 867.17a99.797 99.797 0 0 0 70.564-29.23 99.797 99.797 0 0 0 29.228-70.563 99.797 99.797 0 0 0-29.228-70.563 99.797 99.797 0 0 0-70.564-29.229 99.797 99.797 0 0 0-70.564 29.229 99.797 99.797 0 0 0-29.228 70.563 99.797 99.797 0 0 0 29.228 70.564 99.797 99.797 0 0 0 70.564 29.228z" clip-path="url(#p10c1601b3d)" style="fill:#5e4fa2"/><path id="patch_38" d="M181.207 187.453a15.967 15.967 0 1 0 0-31.934 15.967 15.967 0 0 0 0 31.934z" clip-path="url(#p10c1601b3d)" style="fill:#e45549"/><path id="patch_39" d="M391.987 669.566a99.797 99.797 0 0 0 70.564-29.228 99.797 99.797 0 0 0 29.228-70.564 99.797 99.797 0 0 0-29.228-70.563 99.797 99.797 0 0 0-70.564-29.229 99.797 99.797 0 0 0-70.564 29.229 99.797 99.797 0 0 0-29.228 70.563 99.797 99.797 0 0 0 29.228 70.564 99.797 99.797 0 0 0 70.564 29.228z" clip-path="url(#p10c1601b3d)" style="fill:#5e4fa2"/><path id="patch_40" d="M915.727 920.01a59.878 59.878 0 0 0 59.875-59.875 59.878 59.878 0 0 0-59.875-59.875 59.878 59.878 0 0 0-59.876 59.875 59.878 59.878 0 0 0 59.876 59.875z" clip-path="url(#p10c1601b3d)" style="fill:#e7f59a"/><path id="patch_41" d="M194.18 619.84a28.941 28.941 0 0 0 20.463-49.404A28.941 28.941 0 0 0 165.24 590.9a28.941 28.941 0 0 0 28.94 28.94z" clip-path="url(#p10c1601b3d)" style="fill:#fba35c"/><path id="patch_42" d="M590.731 1063.894a27.943 27.943 0 0 0 19.758-47.7 27.943 27.943 0 0 0-47.7 19.758 27.943 27.943 0 0 0 27.942 27.942z" clip-path="url(#p10c1601b3d)" style="fill:#fa9b58"/><path id="patch_43" d="M550.645 1068.28a14.97 14.97 0 1 0 0-29.939 14.97 14.97 0 0 0 0 29.94z" clip-path="url(#p10c1601b3d)" style="fill:#e2514a"/><path id="patch_44" d="M761.846 322.616a13.972 13.972 0 1 0 0-27.943 13.972 13.972 0 0 0 0 27.943z" clip-path="url(#p10c1601b3d)" style="fill:#de4c4b"/><path id="patch_45" d="M1114.196 739.564a12.974 12.974 0 1 0 0-25.947 12.974 12.974 0 0 0 0 25.947z" clip-path="url(#p10c1601b3d)" style="fill:#dc484c"/><path id="patch_46" d="M903.221 643.29a99.797 99.797 0 0 0 70.564-29.229 99.797 99.797 0 0 0 29.228-70.564 99.797 99.797 0 0 0-29.228-70.563 99.797 99.797 0 0 0-70.564-29.229 99.797 99.797 0 0 0-70.563 29.229 99.797 99.797 0 0 0-29.229 70.563 99.797 99.797 0 0 0 29.229 70.564 99.797 99.797 0 0 0 70.563 29.228z" clip-path="url(#p10c1601b3d)" style="fill:#5e4fa2"/><path id="patch_47" d="M677.36 543.83a40.917 40.917 0 0 0 40.914-40.915A40.917 40.917 0 0 0 677.36 462a40.917 40.917 0 0 0-40.914 40.915 40.917 40.917 0 0 0 40.914 40.915z" clip-path="url(#p10c1601b3d)" style="fill:#fee18d"/><path id="patch_48" d="M970.827 399.894a39.919 39.919 0 0 0 39.917-39.917 39.919 39.919 0 0 0-39.917-39.917 39.919 39.919 0 0 0-39.917 39.917 39.919 39.919 0 0 0 39.917 39.917z" clip-path="url(#p10c1601b3d)" style="fill:#fedc88"/><path id="patch_49" d="M752.11 569.864a38.92 38.92 0 0 0 38.92-38.92 38.92 38.92 0 0 0-38.92-38.918 38.92 38.92 0 0 0-38.918 38.919 38.92 38.92 0 0 0 38.919 38.919z" clip-path="url(#p10c1601b3d)" style="fill:#fed884"/><path id="patch_50" d="M447.971 975.811a37.923 37.923 0 0 0 37.921-37.92 37.923 37.923 0 0 0-37.92-37.922 37.923 37.923 0 0 0-37.922 37.921 37.923 37.923 0 0 0 37.921 37.921z" clip-path="url(#p10c1601b3d)" style="fill:#fed27f"/><path id="patch_51" d="M1151.185 576.754a11.976 11.976 0 1 0 0-23.95 11.976 11.976 0 0 0 0 23.95z" clip-path="url(#p10c1601b3d)" style="fill:#d8434e"/><path id="patch_52" d="M929.979 177.474a10.978 10.978 0 1 0 0-21.955 10.978 10.978 0 0 0 0 21.955z" clip-path="url(#p10c1601b3d)" style="fill:#d43d4f"/><path id="patch_53" d="M671.013 743.27a99.797 99.797 0 0 0 70.564-29.228 99.797 99.797 0 0 0 29.228-70.563 99.797 99.797 0 0 0-29.228-70.564 99.797 99.797 0 0 0-70.564-29.228 99.797 99.797 0 0 0-70.563 29.228 99.797 99.797 0 0 0-29.229 70.564 99.797 99.797 0 0 0 29.229 70.563 99.797 99.797 0 0 0 70.563 29.229z" clip-path="url(#p10c1601b3d)" style="fill:#5e4fa2"/><path id="patch_54" d="M1140.208 979.838a22.953 22.953 0 1 0-.001-45.906 22.953 22.953 0 0 0 0 45.906z" clip-path="url(#p10c1601b3d)" style="fill:#f67a49"/><path id="patch_55" d="M1087.072 770.55a21.955 21.955 0 1 0-.001-43.911 21.955 21.955 0 0 0 0 43.91z" clip-path="url(#p10c1601b3d)" style="fill:#f57547"/><path id="patch_56" d="M546.166 1036.786a20.957 20.957 0 1 0-.001-41.915 20.957 20.957 0 0 0 0 41.915z" clip-path="url(#p10c1601b3d)" style="fill:#f46d43"/><path id="patch_57" d="M175.22 509.787a9.98 9.98 0 1 0-.001-19.959 9.98 9.98 0 0 0 0 19.96z" clip-path="url(#p10c1601b3d)" style="fill:#d0384e"/><path id="patch_58" d="M174.221 756.932a8.982 8.982 0 1 0 0-17.963 8.982 8.982 0 0 0 0 17.963z" clip-path="url(#p10c1601b3d)" style="fill:#c9314c"/><path id="patch_59" d="M366.06 410a48.9 48.9 0 0 0 48.898-48.898 48.9 48.9 0 0 0-48.898-48.898 48.9 48.9 0 0 0-48.898 48.898A48.9 48.9 0 0 0 366.06 410z" clip-path="url(#p10c1601b3d)" style="fill:#fffbb8"/><path id="patch_60" d="M711.654 857.793a47.902 47.902 0 0 0 47.9-47.9 47.902 47.902 0 0 0-47.9-47.9 47.902 47.902 0 0 0-47.9 47.9 47.902 47.902 0 0 0 47.9 47.9z" clip-path="url(#p10c1601b3d)" style="fill:#fff7b2"/><path id="patch_61" d="M951.755 453.042a27.943 27.943 0 0 0 19.758-47.7 27.943 27.943 0 0 0-47.7 19.758 27.943 27.943 0 0 0 27.942 27.942z" clip-path="url(#p10c1601b3d)" style="fill:#fa9b58"/><path id="patch_62" d="M240.688 581.638a26.945 26.945 0 0 0 19.052-45.996 26.945 26.945 0 0 0-45.996 19.052 26.945 26.945 0 0 0 26.944 26.944z" clip-path="url(#p10c1601b3d)" style="fill:#fa9656"/><path id="patch_63" d="M494.542 986.741a17.963 17.963 0 1 0 0-35.926 17.963 17.963 0 0 0 0 35.926z" clip-path="url(#p10c1601b3d)" style="fill:#ea5e47"/><path id="patch_64" d="M1146.195 189.45a16.965 16.965 0 1 0 0-33.932 16.965 16.965 0 0 0 0 33.931z" clip-path="url(#p10c1601b3d)" style="fill:#e85b48"/><path id="patch_65" d="M173.223 206.13a7.984 7.984 0 1 0 0-15.968 7.984 7.984 0 0 0 0 15.968z" clip-path="url(#p10c1601b3d)" style="fill:#c52c4b"/><path id="patch_66" d="M519.113 704.412a51.894 51.894 0 0 0 51.892-51.892 51.894 51.894 0 0 0-51.892-51.891 51.894 51.894 0 0 0-51.892 51.891 51.894 51.894 0 0 0 51.892 51.892z" clip-path="url(#p10c1601b3d)" style="fill:#fcfeba"/><path id="patch_67" d="M966.907 812.793a50.896 50.896 0 0 0 50.894-50.894 50.896 50.896 0 0 0-50.894-50.894 50.896 50.896 0 0 0-50.894 50.894 50.896 50.896 0 0 0 50.894 50.894z" clip-path="url(#p10c1601b3d)" style="fill:#fefebd"/><path id="patch_68" d="M401.876 919.63a25.947 25.947 0 0 0 0-51.892 25.947 25.947 0 0 0 0 51.892z" clip-path="url(#p10c1601b3d)" style="fill:#f98e52"/><path id="patch_69" d="M782.339 612.153a24.95 24.95 0 0 0 0-49.896 24.95 24.95 0 0 0 0 49.896z" clip-path="url(#p10c1601b3d)" style="fill:#f88950"/><path id="patch_70" d="M1139.21 377.442a23.951 23.951 0 1 0-.001-47.902 23.951 23.951 0 0 0 0 47.902z" clip-path="url(#p10c1601b3d)" style="fill:#f7814c"/><path id="patch_71" d="M1147.193 1153.44a15.967 15.967 0 1 0 0-31.935 15.967 15.967 0 0 0 0 31.935z" clip-path="url(#p10c1601b3d)" style="fill:#e45549"/><path id="patch_72" d="M787.968 1109.54a6.986 6.986 0 1 0 0-13.972 6.986 6.986 0 0 0 0 13.971z" clip-path="url(#p10c1601b3d)" style="fill:#be254a"/><path id="patch_73" d="M847.666 819.723a68.86 68.86 0 0 0 68.856-68.856 68.86 68.86 0 0 0-68.856-68.857 68.86 68.86 0 0 0-68.857 68.857 68.86 68.86 0 0 0 68.857 68.856z" clip-path="url(#p10c1601b3d)" style="fill:#b3e0a2"/><path id="patch_74" d="M904.7 420.01a31.935 31.935 0 0 0 22.58-54.515 31.935 31.935 0 0 0-54.514 22.58 31.935 31.935 0 0 0 31.933 31.934z" clip-path="url(#p10c1601b3d)" style="fill:#fdb567"/><path id="patch_75" d="M609.983 558.807a30.937 30.937 0 0 0 21.874-52.81 30.937 30.937 0 0 0-52.81 21.875 30.937 30.937 0 0 0 30.936 30.935z" clip-path="url(#p10c1601b3d)" style="fill:#fdaf62"/><path id="patch_76" d="M629.22 1153.44a14.97 14.97 0 1 0-.002-29.939 14.97 14.97 0 0 0 .001 29.939z" clip-path="url(#p10c1601b3d)" style="fill:#e2514a"/><path id="patch_77" d="M351.933 690.224a13.972 13.972 0 1 0 0-27.943 13.972 13.972 0 0 0 0 27.943z" clip-path="url(#p10c1601b3d)" style="fill:#de4c4b"/><path id="patch_78" d="M671.424 373.02a12.974 12.974 0 1 0 0-25.947 12.974 12.974 0 0 0 0 25.947z" clip-path="url(#p10c1601b3d)" style="fill:#dc484c"/><path id="patch_79" d="M606.581 1153.44a5.988 5.988 0 1 0 0-11.976 5.988 5.988 0 0 0 0 11.976z" clip-path="url(#p10c1601b3d)" style="fill:#b81e48"/><path id="patch_80" d="M524.977 179.47a11.976 11.976 0 1 0 0-23.951 11.976 11.976 0 0 0 0 23.951z" clip-path="url(#p10c1601b3d)" style="fill:#d8434e"/><path id="patch_81" d="M950.476 710.77a37.923 37.923 0 0 0 37.921-37.921 37.923 37.923 0 0 0-37.92-37.921 37.923 37.923 0 0 0-37.922 37.921 37.923 37.923 0 0 0 37.921 37.92z" clip-path="url(#p10c1601b3d)" style="fill:#fed27f"/><path id="patch_82" d="M633.98 812.734a36.925 36.925 0 0 0 26.108-63.031 36.925 36.925 0 0 0-63.032 26.108 36.925 36.925 0 0 0 36.923 36.923z" clip-path="url(#p10c1601b3d)" style="fill:#fece7c"/><path id="patch_83" d="M888.941 690.363a23.951 23.951 0 1 0-.001-47.903 23.951 23.951 0 0 0 .001 47.903z" clip-path="url(#p10c1601b3d)" style="fill:#f7814c"/><path id="patch_84" d="M855.923 390.766a17.963 17.963 0 1 0 0-35.926 17.963 17.963 0 0 0 0 35.926z" clip-path="url(#p10c1601b3d)" style="fill:#ea5e47"/><path id="patch_85" d="M996.673 177.474a10.978 10.978 0 1 0 0-21.955 10.978 10.978 0 0 0 0 21.955z" clip-path="url(#p10c1601b3d)" style="fill:#d43d4f"/><path id="patch_86" d="M1158.17 743.067a4.99 4.99 0 1 0 0-9.98 4.99 4.99 0 0 0 0 9.98z" clip-path="url(#p10c1601b3d)" style="fill:#b41947"/><path id="patch_87" d="M842.6 853.503a16.965 16.965 0 1 0-.001-33.93 16.965 16.965 0 0 0 0 33.93z" clip-path="url(#p10c1601b3d)" style="fill:#e85b48"/><path id="patch_88" d="M359.165 1153.44a21.955 21.955 0 1 0 0-43.91 21.955 21.955 0 0 0 0 43.91z" clip-path="url(#p10c1601b3d)" style="fill:#f57547"/><path id="patch_89" d="M780.328 835.866a20.957 20.957 0 1 0 0-41.915 20.957 20.957 0 0 0 0 41.915z" clip-path="url(#p10c1601b3d)" style="fill:#f46d43"/><path id="patch_90" d="M181.207 1153.44a15.967 15.967 0 1 0 0-31.935 15.967 15.967 0 0 0 0 31.935z" clip-path="url(#p10c1601b3d)" style="fill:#e45549"/><path id="patch_91" d="M1153.18 935.255a9.98 9.98 0 1 0 0-19.959 9.98 9.98 0 0 0 0 19.96z" clip-path="url(#p10c1601b3d)" style="fill:#d0384e"/><path id="patch_92" d="M169.232 218.589a3.992 3.992 0 1 0 0-7.984 3.992 3.992 0 0 0 0 7.984z" clip-path="url(#p10c1601b3d)" style="fill:#ad1246"/><path id="patch_93" d="M556.202 606.176a36.925 36.925 0 0 0 26.109-63.031 36.925 36.925 0 0 0-63.032 26.108 36.925 36.925 0 0 0 36.923 36.923z" clip-path="url(#p10c1601b3d)" style="fill:#fece7c"/><path id="patch_94" d="M521.933 1153.44a14.97 14.97 0 1 0 0-29.939 14.97 14.97 0 0 0 0 29.939z" clip-path="url(#p10c1601b3d)" style="fill:#e2514a"/><path id="patch_95" d="M821.122 1153.44a8.982 8.982 0 1 0 0-17.963 8.982 8.982 0 0 0 0 17.963z" clip-path="url(#p10c1601b3d)" style="fill:#c9314c"/><path id="patch_96" d="M206.44 1153.44a7.984 7.984 0 1 0 0-15.967 7.984 7.984 0 0 0 0 15.967z" clip-path="url(#p10c1601b3d)" style="fill:#c52c4b"/><path id="patch_97" d="M839.788 680.16a26.945 26.945 0 0 0 19.052-45.996 26.945 26.945 0 0 0-45.996 19.052 26.945 26.945 0 0 0 26.944 26.944z" clip-path="url(#p10c1601b3d)" style="fill:#fa9656"/><path id="patch_98" d="M168.234 762.542a2.994 2.994 0 1 0 0-5.988 2.994 2.994 0 0 0 0 5.988z" clip-path="url(#p10c1601b3d)" style="fill:#a90d45"/><path id="patch_99" d="M600.491 179.47a11.976 11.976 0 1 0 0-23.951 11.976 11.976 0 0 0 0 23.951z" clip-path="url(#p10c1601b3d)" style="fill:#d8434e"/><path id="patch_100" d="M176.217 640.163a10.978 10.978 0 1 0 0-21.955 10.978 10.978 0 0 0 0 21.955z" clip-path="url(#p10c1601b3d)" style="fill:#d43d4f"/><path id="patch_101" d="M649.67 1153.44a6.986 6.986 0 1 0 0-13.972 6.986 6.986 0 0 0 0 13.972z" clip-path="url(#p10c1601b3d)" style="fill:#be254a"/><path id="patch_102" d="M458.149 442.92a48.9 48.9 0 0 0 48.898-48.898 48.9 48.9 0 0 0-48.898-48.898 48.9 48.9 0 0 0-48.898 48.898 48.9 48.9 0 0 0 48.898 48.898z" clip-path="url(#p10c1601b3d)" style="fill:#fffbb8"/><path id="patch_103" d="M560.858 782.656a43.91 43.91 0 0 0 43.908-43.909 43.91 43.91 0 0 0-43.908-43.908 43.91 43.91 0 0 0-43.909 43.908 43.91 43.91 0 0 0 43.909 43.909z" clip-path="url(#p10c1601b3d)" style="fill:#feeb9d"/><path id="patch_104" d="M519.67 1005.032a14.97 14.97 0 1 0 0-29.939 14.97 14.97 0 0 0 0 29.939z" clip-path="url(#p10c1601b3d)" style="fill:#e2514a"/><path id="patch_105" d="M972.692 1153.44a21.955 21.955 0 1 0-.001-43.91 21.955 21.955 0 0 0 0 43.91z" clip-path="url(#p10c1601b3d)" style="fill:#f57547"/><path id="patch_106" d="M509.045 368.626a17.963 17.963 0 1 0-.001-35.927 17.963 17.963 0 0 0 0 35.927z" clip-path="url(#p10c1601b3d)" style="fill:#ea5e47"/><path id="patch_107" d="M305.617 788.102a13.972 13.972 0 1 0 0-27.943 13.972 13.972 0 0 0 0 27.943z" clip-path="url(#p10c1601b3d)" style="fill:#de4c4b"/><path id="patch_108" d="M1153.18 394.39a9.98 9.98 0 1 0 0-19.958 9.98 9.98 0 0 0 0 19.959z" clip-path="url(#p10c1601b3d)" style="fill:#d0384e"/><path id="patch_109" d="M912.672 167.495a5.988 5.988 0 1 0 0-11.976 5.988 5.988 0 0 0 0 11.976z" clip-path="url(#p10c1601b3d)" style="fill:#b81e48"/><path id="patch_110" d="M443.483 900.153a16.965 16.965 0 1 0-.001-33.93 16.965 16.965 0 0 0 0 33.93z" clip-path="url(#p10c1601b3d)" style="fill:#e85b48"/><path id="patch_111" d="M701.45 979.802a12.974 12.974 0 1 0 0-25.947 12.974 12.974 0 0 0 0 25.947z" clip-path="url(#p10c1601b3d)" style="fill:#dc484c"/><path id="patch_112" d="M167.236 159.512a1.996 1.996 0 1 0 0-3.992 1.996 1.996 0 0 0 0 3.992z" clip-path="url(#p10c1601b3d)" style="fill:#a20643"/><path id="patch_113" d="M760.551 1153.44a8.982 8.982 0 1 0 0-17.963 8.982 8.982 0 0 0 0 17.963z" clip-path="url(#p10c1601b3d)" style="fill:#c9314c"/><path id="patch_114" d="M455.878 673.454a11.976 11.976 0 1 0 0-23.95 11.976 11.976 0 0 0 0 23.95z" clip-path="url(#p10c1601b3d)" style="fill:#d8434e"/><path id="patch_115" d="M187.194 986.398a21.955 21.955 0 1 0 0-43.91 21.955 21.955 0 0 0 0 43.91z" clip-path="url(#p10c1601b3d)" style="fill:#f57547"/><path id="patch_116" d="M275.95 607.78a17.963 17.963 0 1 0 0-35.927 17.963 17.963 0 0 0 0 35.927z" clip-path="url(#p10c1601b3d)" style="fill:#ea5e47"/><path id="patch_117" d="M767.644 796.267a14.97 14.97 0 1 0 0-29.94 14.97 14.97 0 0 0 0 29.94z" clip-path="url(#p10c1601b3d)" style="fill:#e2514a"/><path id="patch_118" d="M170.23 739.552a4.99 4.99 0 1 0 0-9.98 4.99 4.99 0 0 0 0 9.98z" clip-path="url(#p10c1601b3d)" style="fill:#b41947"/><path id="patch_119" d="M747.85 772.274a20.957 20.957 0 1 0 0-41.915 20.957 20.957 0 0 0 0 41.915z" clip-path="url(#p10c1601b3d)" style="fill:#f46d43"/><path id="patch_120" d="M1152.183 1001.092a10.978 10.978 0 1 0 0-21.956 10.978 10.978 0 0 0 0 21.956z" clip-path="url(#p10c1601b3d)" style="fill:#d43d4f"/><path id="patch_121" d="M207.866 171.487a7.984 7.984 0 1 0 0-15.968 7.984 7.984 0 0 0 0 15.968z" clip-path="url(#p10c1601b3d)" style="fill:#c52c4b"/><path id="patch_122" d="M175.22 814.291a9.98 9.98 0 1 0-.001-19.96 9.98 9.98 0 0 0 0 19.96z" clip-path="url(#p10c1601b3d)" style="fill:#d0384e"/><path id="patch_123" d="M361.32 203.42a23.951 23.951 0 1 0-.001-47.902 23.951 23.951 0 0 0 0 47.902z" clip-path="url(#p10c1601b3d)" style="fill:#f7814c"/><path id="patch_124" d="M480.939 910.065a20.957 20.957 0 1 0-.001-41.915 20.957 20.957 0 0 0 0 41.915z" clip-path="url(#p10c1601b3d)" style="fill:#f46d43"/><path id="patch_125" d="M497.296 1153.44a6.986 6.986 0 1 0 0-13.972 6.986 6.986 0 0 0 0 13.972z" clip-path="url(#p10c1601b3d)" style="fill:#be254a"/><path id="patch_126" d="M1159.168 980.021a3.992 3.992 0 1 0 0-7.984 3.992 3.992 0 0 0 0 7.984z" clip-path="url(#p10c1601b3d)" style="fill:#ad1246"/><path id="patch_127" d="M505.437 602.042a14.97 14.97 0 1 0-.001-29.939 14.97 14.97 0 0 0 0 29.94z" clip-path="url(#p10c1601b3d)" style="fill:#e2514a"/><path id="patch_128" d="M390.862 467.92a30.937 30.937 0 0 0 21.875-52.81 30.937 30.937 0 0 0-52.81 21.875 30.937 30.937 0 0 0 30.935 30.936z" clip-path="url(#p10c1601b3d)" style="fill:#fdaf62"/><path id="patch_129" d="M234.968 606.084a11.976 11.976 0 1 0 0-23.951 11.976 11.976 0 0 0 0 23.951z" clip-path="url(#p10c1601b3d)" style="fill:#d8434e"/><path id="patch_130" d="M1154.179 698.54a8.982 8.982 0 1 0 0-17.963 8.982 8.982 0 0 0 0 17.963z" clip-path="url(#p10c1601b3d)" style="fill:#c9314c"/><path id="patch_131" d="M166.238 754.937a.998.998 0 1 0 0-1.996.998.998 0 0 0 0 1.996z" clip-path="url(#p10c1601b3d)" style="fill:#9e0142"/><path id="patch_132" d="M278.535 553.12a13.972 13.972 0 1 0-.001-27.942 13.972 13.972 0 0 0 0 27.943z" clip-path="url(#p10c1601b3d)" style="fill:#de4c4b"/><path id="patch_133" d="M327.232 1153.44a10.978 10.978 0 1 0 0-21.955 10.978 10.978 0 0 0 0 21.955z" clip-path="url(#p10c1601b3d)" style="fill:#d43d4f"/><path id="patch_134" d="M540.991 1153.44a5.988 5.988 0 1 0 0-11.976 5.988 5.988 0 0 0 0 11.976z" clip-path="url(#p10c1601b3d)" style="fill:#b81e48"/><path id="patch_135" d="M584.417 810.24a15.967 15.967 0 1 0-.001-31.935 15.967 15.967 0 0 0 0 31.935z" clip-path="url(#p10c1601b3d)" style="fill:#e45549"/><path id="patch_136" d="M787.718 1027.33a12.974 12.974 0 1 0 0-25.948 12.974 12.974 0 0 0 0 25.948z" clip-path="url(#p10c1601b3d)" style="fill:#dc484c"/><path id="patch_137" d="M1155.177 1119.51a7.984 7.984 0 1 0 0-15.967 7.984 7.984 0 0 0 0 15.968z" clip-path="url(#p10c1601b3d)" style="fill:#c52c4b"/><path id="patch_138" d="M792.31 654.99a21.955 21.955 0 1 0 0-43.911 21.955 21.955 0 0 0 0 43.91z" clip-path="url(#p10c1601b3d)" style="fill:#f57547"/><path id="patch_139" d="M360.98 909.901a14.97 14.97 0 1 0 0-29.939 14.97 14.97 0 0 0 0 29.939z" clip-path="url(#p10c1601b3d)" style="fill:#e2514a"/><path id="patch_140" d="M563.307 332.984a23.951 23.951 0 1 0 0-47.903 23.951 23.951 0 0 0 0 47.903z" clip-path="url(#p10c1601b3d)" style="fill:#f7814c"/><path id="patch_141" d="M1153.18 332.552a9.98 9.98 0 1 0 0-19.96 9.98 9.98 0 0 0 0 19.96z" clip-path="url(#p10c1601b3d)" style="fill:#d0384e"/><path id="patch_142" d="M508.545 1153.44a2.994 2.994 0 1 0 0-5.988 2.994 2.994 0 0 0 0 5.988z" clip-path="url(#p10c1601b3d)" style="fill:#a90d45"/><path id="patch_143" d="M562.684 285.09a11.976 11.976 0 1 0 0-23.952 11.976 11.976 0 0 0 0 23.951z" clip-path="url(#p10c1601b3d)" style="fill:#d8434e"/><path id="patch_144" d="M835.587 1153.44a4.99 4.99 0 1 0 0-9.98 4.99 4.99 0 0 0 0 9.98z" clip-path="url(#p10c1601b3d)" style="fill:#b41947"/><path id="patch_145" d="M704.789 549.17a6.986 6.986 0 1 0 0-13.972 6.986 6.986 0 0 0 0 13.971z" clip-path="url(#p10c1601b3d)" style="fill:#be254a"/><path id="patch_146" d="M176.217 942.57a10.978 10.978 0 1 0 0-21.956 10.978 10.978 0 0 0 0 21.956z" clip-path="url(#p10c1601b3d)" style="fill:#d43d4f"/><path id="patch_147" d="M387.249 1153.44a8.982 8.982 0 1 0 0-17.963 8.982 8.982 0 0 0 0 17.963z" clip-path="url(#p10c1601b3d)" style="fill:#c9314c"/><path id="patch_148" d="M351.38 432.154a11.976 11.976 0 1 0 0-23.951 11.976 11.976 0 0 0 0 23.95z" clip-path="url(#p10c1601b3d)" style="fill:#d8434e"/><path id="patch_149" d="M1002.295 1153.44a9.98 9.98 0 1 0 0-19.96 9.98 9.98 0 0 0 0 19.96z" clip-path="url(#p10c1601b3d)" style="fill:#d0384e"/><path id="patch_150" d="M1119.819 171.487a7.984 7.984 0 1 0 0-15.968 7.984 7.984 0 0 0 0 15.968z" clip-path="url(#p10c1601b3d)" style="fill:#c52c4b"/><path id="patch_151" d="M171.228 825.76a5.988 5.988 0 1 0 0-11.976 5.988 5.988 0 0 0 0 11.975z" clip-path="url(#p10c1601b3d)" style="fill:#b81e48"/><path id="patch_152" d="M660.231 1153.44a3.992 3.992 0 1 0 0-7.984 3.992 3.992 0 0 0 0 7.984z" clip-path="url(#p10c1601b3d)" style="fill:#ad1246"/><path id="patch_153" d="M796.252 515.003a14.97 14.97 0 1 0 0-29.939 14.97 14.97 0 0 0 0 29.94z" clip-path="url(#p10c1601b3d)" style="fill:#e2514a"/><path id="patch_154" d="M167.236 1153.44a1.996 1.996 0 1 0 0-3.992 1.996 1.996 0 0 0 0 3.992z" clip-path="url(#p10c1601b3d)" style="fill:#a20643"/><path id="patch_155" d="M531.185 342.03a12.974 12.974 0 1 0 0-25.947 12.974 12.974 0 0 0 0 25.947z" clip-path="url(#p10c1601b3d)" style="fill:#dc484c"/><path id="patch_156" d="M796.461 177.474a10.978 10.978 0 1 0 0-21.955 10.978 10.978 0 0 0 0 21.955z" clip-path="url(#p10c1601b3d)" style="fill:#d43d4f"/><path id="patch_157" d="M1154.179 516.064a8.982 8.982 0 1 0 0-17.963 8.982 8.982 0 0 0 0 17.963z" clip-path="url(#p10c1601b3d)" style="fill:#c9314c"/><path id="patch_158" d="M505.153 572.106a13.972 13.972 0 1 0 0-27.943 13.972 13.972 0 0 0 0 27.943z" clip-path="url(#p10c1601b3d)" style="fill:#de4c4b"/><path id="patch_159" d="M726.155 500.068a6.986 6.986 0 1 0 0-13.971 6.986 6.986 0 0 0 0 13.971z" clip-path="url(#p10c1601b3d)" style="fill:#be254a"/><path id="patch_160" d="M434.968 472.635a16.965 16.965 0 1 0-.001-33.931 16.965 16.965 0 0 0 0 33.93z" clip-path="url(#p10c1601b3d)" style="fill:#e85b48"/><path id="patch_161" d="M371.99 882.316a11.976 11.976 0 1 0 0-23.951 11.976 11.976 0 0 0 0 23.951z" clip-path="url(#p10c1601b3d)" style="fill:#d8434e"/><path id="patch_162" d="M788.127 698.698a21.955 21.955 0 1 0-.001-43.91 21.955 21.955 0 0 0 0 43.91z" clip-path="url(#p10c1601b3d)" style="fill:#f57547"/><path id="patch_163" d="M535.926 817.505a19.96 19.96 0 1 0-.001-39.918 19.96 19.96 0 0 0 0 39.918z" clip-path="url(#p10c1601b3d)" style="fill:#f26944"/><path id="patch_164" d="M517.836 842.393a14.97 14.97 0 1 0 0-29.939 14.97 14.97 0 0 0 0 29.94z" clip-path="url(#p10c1601b3d)" style="fill:#e2514a"/><path id="patch_165" d="M330.4 175.478a9.98 9.98 0 1 0 0-19.959 9.98 9.98 0 0 0 0 19.96z" clip-path="url(#p10c1601b3d)" style="fill:#d0384e"/><path id="patch_166" d="M1158.17 912.343a4.99 4.99 0 1 0 0-9.98 4.99 4.99 0 0 0 0 9.98z" clip-path="url(#p10c1601b3d)" style="fill:#b41947"/><path id="patch_167" d="M1121.247 1153.44a7.984 7.984 0 1 0 0-15.967 7.984 7.984 0 0 0 0 15.967z" clip-path="url(#p10c1601b3d)" style="fill:#c52c4b"/><path id="patch_168" d="M941.644 1153.44a10.978 10.978 0 1 0 0-21.955 10.978 10.978 0 0 0 0 21.955z" clip-path="url(#p10c1601b3d)" style="fill:#d43d4f"/><path id="patch_169" d="M994.053 714.995a13.972 13.972 0 1 0 0-27.943 13.972 13.972 0 0 0 0 27.943z" clip-path="url(#p10c1601b3d)" style="fill:#de4c4b"/><path id="patch_170" d="M375.38 1153.44a2.994 2.994 0 1 0 0-5.988 2.994 2.994 0 0 0 0 5.988z" clip-path="url(#p10c1601b3d)" style="fill:#a90d45"/><path id="patch_171" d="M314.94 167.495a5.988 5.988 0 1 0 0-11.976 5.988 5.988 0 0 0 0 11.976z" clip-path="url(#p10c1601b3d)" style="fill:#b81e48"/><path id="patch_172" d="M561.409 237.339a11.976 11.976 0 1 0 0-23.952 11.976 11.976 0 0 0 0 23.952z" clip-path="url(#p10c1601b3d)" style="fill:#d8434e"/><path id="patch_173" d="M566.301 623.014a8.982 8.982 0 1 0 0-17.963 8.982 8.982 0 0 0 0 17.963z" clip-path="url(#p10c1601b3d)" style="fill:#c9314c"/><path id="patch_174" d="M859.921 422.463a15.967 15.967 0 1 0 0-31.934 15.967 15.967 0 0 0 0 31.934z" clip-path="url(#p10c1601b3d)" style="fill:#e45549"/><path id="patch_175" d="M680.445 770.602a12.974 12.974 0 1 0 0-25.947 12.974 12.974 0 0 0 0 25.947z" clip-path="url(#p10c1601b3d)" style="fill:#dc484c"/><path id="patch_176" d="M175.22 389.799a9.98 9.98 0 1 0-.001-19.96 9.98 9.98 0 0 0 0 19.96z" clip-path="url(#p10c1601b3d)" style="fill:#d0384e"/><path id="patch_177" d="M630.01 502.656a6.986 6.986 0 1 0 0-13.971 6.986 6.986 0 0 0 0 13.971z" clip-path="url(#p10c1601b3d)" style="fill:#be254a"/><path id="patch_178" d="M1040.775 773.801a23.951 23.951 0 1 0 0-47.902 23.951 23.951 0 0 0 0 47.902z" clip-path="url(#p10c1601b3d)" style="fill:#f7814c"/><path id="patch_179" d="M169.232 619.939a3.992 3.992 0 1 0 0-7.984 3.992 3.992 0 0 0 0 7.984z" clip-path="url(#p10c1601b3d)" style="fill:#ad1246"/><path id="patch_180" d="M173.223 1120.223a7.984 7.984 0 1 0 0-15.968 7.984 7.984 0 0 0 0 15.968z" clip-path="url(#p10c1601b3d)" style="fill:#c52c4b"/><path id="patch_181" d="M371.922 1153.44a.998.998 0 1 0 0-1.996.998.998 0 0 0 0 1.996z" clip-path="url(#p10c1601b3d)" style="fill:#9e0142"/><path id="patch_182" d="M513.29 544.832a35.927 35.927 0 0 0 25.403-61.328 35.927 35.927 0 0 0-61.328 25.403 35.927 35.927 0 0 0 35.925 35.925z" clip-path="url(#p10c1601b3d)" style="fill:#fec877"/><path id="patch_183" d="M793.447 564.127a8.982 8.982 0 1 0 0-17.963 8.982 8.982 0 0 0 0 17.963z" clip-path="url(#p10c1601b3d)" style="fill:#c9314c"/><path id="patch_184" d="M170.23 654.175a4.99 4.99 0 1 0 0-9.98 4.99 4.99 0 0 0 0 9.98z" clip-path="url(#p10c1601b3d)" style="fill:#b41947"/><path id="patch_185" d="M730.071 175.478a9.98 9.98 0 1 0 0-19.959 9.98 9.98 0 0 0 0 19.96z" clip-path="url(#p10c1601b3d)" style="fill:#d0384e"/><path id="patch_186" d="M1152.183 810.884a10.978 10.978 0 1 0 0-21.955 10.978 10.978 0 0 0 0 21.955z" clip-path="url(#p10c1601b3d)" style="fill:#d43d4f"/><path id="patch_187" d="M620.332 167.495a5.988 5.988 0 1 0 0-11.976 5.988 5.988 0 0 0 0 11.976z" clip-path="url(#p10c1601b3d)" style="fill:#b81e48"/><path id="patch_188" d="M591.163 329.475a6.986 6.986 0 1 0 0-13.971 6.986 6.986 0 0 0 0 13.971z" clip-path="url(#p10c1601b3d)" style="fill:#be254a"/><path id="patch_189" d="M1161.164 159.512a1.996 1.996 0 1 0 0-3.992 1.996 1.996 0 0 0 0 3.992z" clip-path="url(#p10c1601b3d)" style="fill:#a20643"/><path id="patch_190" d="M767.817 731.222a18.961 18.961 0 1 0 0-37.922 18.961 18.961 0 0 0 0 37.922z" clip-path="url(#p10c1601b3d)" style="fill:#ee6445"/><path id="patch_191" d="M1155.177 206.844a7.984 7.984 0 1 0 0-15.967 7.984 7.984 0 0 0 0 15.967z" clip-path="url(#p10c1601b3d)" style="fill:#c52c4b"/><path id="patch_192" d="M971.506 909.489a8.982 8.982 0 1 0 0-17.964 8.982 8.982 0 0 0 0 17.964z" clip-path="url(#p10c1601b3d)" style="fill:#c9314c"/><path id="patch_193" d="M855.146 454.038a15.967 15.967 0 1 0 0-31.935 15.967 15.967 0 0 0 0 31.935z" clip-path="url(#p10c1601b3d)" style="fill:#e45549"/><path id="patch_194" d="M175.22 1004.026a9.98 9.98 0 1 0-.001-19.96 9.98 9.98 0 0 0 0 19.96z" clip-path="url(#p10c1601b3d)" style="fill:#d0384e"/><path id="patch_195" d="M628.8 161.508a2.994 2.994 0 1 0 0-5.988 2.994 2.994 0 0 0 0 5.988z" clip-path="url(#p10c1601b3d)" style="fill:#a90d45"/><path id="patch_196" d="M303.75 163.503a3.992 3.992 0 1 0 0-7.983 3.992 3.992 0 0 0 0 7.983z" clip-path="url(#p10c1601b3d)" style="fill:#ad1246"/><path id="patch_197" d="M1158.17 678.953a4.99 4.99 0 1 0 0-9.98 4.99 4.99 0 0 0 0 9.98z" clip-path="url(#p10c1601b3d)" style="fill:#b41947"/><path id="patch_198" d="M565.123 533.103a14.97 14.97 0 1 0 0-29.94 14.97 14.97 0 0 0 0 29.94z" clip-path="url(#p10c1601b3d)" style="fill:#e2514a"/><path id="patch_199" d="M469.64 477.85a17.963 17.963 0 1 0-.001-35.927 17.963 17.963 0 0 0 0 35.927z" clip-path="url(#p10c1601b3d)" style="fill:#ea5e47"/><path id="patch_200" d="M499.105 870.252a16.965 16.965 0 1 0 0-33.93 16.965 16.965 0 0 0 0 33.93z" clip-path="url(#p10c1601b3d)" style="fill:#e85b48"/><path id="patch_201" d="M171.228 921.366a5.988 5.988 0 1 0 0-11.976 5.988 5.988 0 0 0 0 11.976z" clip-path="url(#p10c1601b3d)" style="fill:#b81e48"/><path id="patch_202" d="M218.13 356.6a6.986 6.986 0 1 0 0-13.972 6.986 6.986 0 0 0 0 13.972z" clip-path="url(#p10c1601b3d)" style="fill:#be254a"/><path id="patch_203" d="M422.43 356.95a8.982 8.982 0 1 0 0-17.963 8.982 8.982 0 0 0 0 17.963z" clip-path="url(#p10c1601b3d)" style="fill:#c9314c"/><path id="patch_204" d="M622.082 1022.556a7.984 7.984 0 1 0 0-15.967 7.984 7.984 0 0 0 0 15.967z" clip-path="url(#p10c1601b3d)" style="fill:#c52c4b"/><path id="patch_205" d="M469.918 502.033a10.978 10.978 0 1 0 0-21.956 10.978 10.978 0 0 0 0 21.956z" clip-path="url(#p10c1601b3d)" style="fill:#d43d4f"/><path id="patch_206" d="M392.24 175.478a9.98 9.98 0 1 0-.001-19.959 9.98 9.98 0 0 0 0 19.96z" clip-path="url(#p10c1601b3d)" style="fill:#d0384e"/><path id="patch_207" d="M175.22 327.09a9.98 9.98 0 1 0-.001-19.958 9.98 9.98 0 0 0 0 19.959z" clip-path="url(#p10c1601b3d)" style="fill:#d0384e"/><path id="patch_208" d="M275.873 570.928a8.982 8.982 0 1 0 0-17.963 8.982 8.982 0 0 0 0 17.963z" clip-path="url(#p10c1601b3d)" style="fill:#c9314c"/><path id="patch_209" d="M217.033 970a7.984 7.984 0 1 0 0-15.967 7.984 7.984 0 0 0 0 15.968z" clip-path="url(#p10c1601b3d)" style="fill:#c52c4b"/><path id="patch_210" d="M607.514 1073.568a6.986 6.986 0 1 0 0-13.971 6.986 6.986 0 0 0 0 13.971z" clip-path="url(#p10c1601b3d)" style="fill:#be254a"/><path id="patch_211" d="M1157.172 405.859a5.988 5.988 0 1 0 0-11.976 5.988 5.988 0 0 0 0 11.976z" clip-path="url(#p10c1601b3d)" style="fill:#b81e48"/><path id="patch_212" d="M170.23 398.922a4.99 4.99 0 1 0 0-9.98 4.99 4.99 0 0 0 0 9.98z" clip-path="url(#p10c1601b3d)" style="fill:#b41947"/><path id="patch_213" d="M1159.168 790.66a3.992 3.992 0 1 0 0-7.984 3.992 3.992 0 0 0 0 7.984z" clip-path="url(#p10c1601b3d)" style="fill:#ad1246"/><path id="patch_214" d="M168.234 725.624a2.994 2.994 0 1 0 0-5.988 2.994 2.994 0 0 0 0 5.988z" clip-path="url(#p10c1601b3d)" style="fill:#a90d45"/><path id="patch_215" d="M1161.164 1153.44a1.996 1.996 0 1 0 0-3.992 1.996 1.996 0 0 0 0 3.992z" clip-path="url(#p10c1601b3d)" style="fill:#a20643"/><path id="patch_216" d="M704.342 762.441a11.976 11.976 0 1 0 0-23.951 11.976 11.976 0 0 0 0 23.951z" clip-path="url(#p10c1601b3d)" style="fill:#d8434e"/><path id="patch_217" d="M364.87 312.216a10.978 10.978 0 1 0 0-21.955 10.978 10.978 0 0 0 0 21.955z" clip-path="url(#p10c1601b3d)" style="fill:#d43d4f"/><path id="patch_218" d="M1022.098 367.009a9.98 9.98 0 1 0 0-19.96 9.98 9.98 0 0 0 0 19.96z" clip-path="url(#p10c1601b3d)" style="fill:#d0384e"/><path id="patch_219" d="M1158.342 157.516a.998.998 0 1 0 0-1.996.998.998 0 0 0 0 1.996z" clip-path="url(#p10c1601b3d)" style="fill:#9e0142"/><path id="patch_220" d="M351.161 450.115a8.982 8.982 0 1 0 0-17.963 8.982 8.982 0 0 0 0 17.963z" clip-path="url(#p10c1601b3d)" style="fill:#c9314c"/><path id="patch_221" d="M462.381 874.885a7.984 7.984 0 1 0 0-15.967 7.984 7.984 0 0 0 0 15.967z" clip-path="url(#p10c1601b3d)" style="fill:#c52c4b"/><path id="patch_222" d="M294.673 532.767a6.986 6.986 0 1 0 0-13.971 6.986 6.986 0 0 0 0 13.971z" clip-path="url(#p10c1601b3d)" style="fill:#be254a"/><path id="patch_223" d="M1015.043 730.89a12.974 12.974 0 1 0 0-25.946 12.974 12.974 0 0 0 0 25.947z" clip-path="url(#p10c1601b3d)" style="fill:#dc484c"/><path id="patch_224" d="M171.228 570.56a5.988 5.988 0 1 0 0-11.975 5.988 5.988 0 0 0 0 11.975z" clip-path="url(#p10c1601b3d)" style="fill:#b81e48"/><path id="patch_225" d="M361.25 1025.374a10.978 10.978 0 1 0 0-21.955 10.978 10.978 0 0 0 0 21.955z" clip-path="url(#p10c1601b3d)" style="fill:#d43d4f"/><path id="patch_226" d="M703.507 877.175a9.98 9.98 0 1 0 0-19.96 9.98 9.98 0 0 0 0 19.96z" clip-path="url(#p10c1601b3d)" style="fill:#d0384e"/><path id="patch_227" d="M405.377 1153.44a4.99 4.99 0 1 0 0-9.98 4.99 4.99 0 0 0 0 9.98z" clip-path="url(#p10c1601b3d)" style="fill:#b41947"/><path id="patch_228" d="M569.566 695.56a8.982 8.982 0 1 0 0-17.963 8.982 8.982 0 0 0 0 17.964z" clip-path="url(#p10c1601b3d)" style="fill:#c9314c"/><path id="patch_229" d="M355.271 475.673a12.974 12.974 0 1 0 0-25.947 12.974 12.974 0 0 0 0 25.947z" clip-path="url(#p10c1601b3d)" style="fill:#dc484c"/><path id="patch_230" d="M169.232 833.806a3.992 3.992 0 1 0 0-7.984 3.992 3.992 0 0 0 0 7.984z" clip-path="url(#p10c1601b3d)" style="fill:#ad1246"/><path id="patch_231" d="M357.4 1108.044a7.984 7.984 0 1 0 0-15.967 7.984 7.984 0 0 0 0 15.967z" clip-path="url(#p10c1601b3d)" style="fill:#c52c4b"/><path id="patch_232" d="M880.206 437.688a11.976 11.976 0 1 0 0-23.951 11.976 11.976 0 0 0 0 23.951z" clip-path="url(#p10c1601b3d)" style="fill:#d8434e"/><path id="patch_233" d="M306.441 366.54a10.978 10.978 0 1 0 0-21.955 10.978 10.978 0 0 0 0 21.955z" clip-path="url(#p10c1601b3d)" style="fill:#d43d4f"/><path id="patch_234" d="M743.661 728.718a6.986 6.986 0 1 0 0-13.972 6.986 6.986 0 0 0 0 13.972z" clip-path="url(#p10c1601b3d)" style="fill:#be254a"/><path id="patch_235" d="M843.317 1153.44a2.994 2.994 0 1 0 0-5.988 2.994 2.994 0 0 0 0 5.988z" clip-path="url(#p10c1601b3d)" style="fill:#a90d45"/><path id="patch_236" d="M971.571 639.823a9.98 9.98 0 1 0 0-19.96 9.98 9.98 0 0 0 0 19.96z" clip-path="url(#p10c1601b3d)" style="fill:#d0384e"/><path id="patch_237" d="M1157.172 822.674a5.988 5.988 0 1 0 0-11.976 5.988 5.988 0 0 0 0 11.976z" clip-path="url(#p10c1601b3d)" style="fill:#b81e48"/><path id="patch_238" d="M514.364 722.19a8.982 8.982 0 1 0 0-17.964 8.982 8.982 0 0 0 0 17.963z" clip-path="url(#p10c1601b3d)" style="fill:#c9314c"/><path id="patch_239" d="M965.02 320.386a11.976 11.976 0 1 0 0-23.951 11.976 11.976 0 0 0 0 23.951z" clip-path="url(#p10c1601b3d)" style="fill:#d8434e"/><path id="patch_240" d="M307.413 969.86a10.978 10.978 0 1 0 0-21.954 10.978 10.978 0 0 0 0 21.955z" clip-path="url(#p10c1601b3d)" style="fill:#d43d4f"/><path id="patch_241" d="M362.145 220.158a7.984 7.984 0 1 0 0-15.967 7.984 7.984 0 0 0 0 15.967z" clip-path="url(#p10c1601b3d)" style="fill:#c52c4b"/><path id="patch_242" d="M170.23 490.685a4.99 4.99 0 1 0 0-9.98 4.99 4.99 0 0 0 0 9.98z" clip-path="url(#p10c1601b3d)" style="fill:#b41947"/><path id="patch_243" d="M167.236 210.948a1.996 1.996 0 1 0 0-3.992 1.996 1.996 0 0 0 0 3.992z" clip-path="url(#p10c1601b3d)" style="fill:#a20643"/><path id="patch_244" d="M797.13 528.957a6.986 6.986 0 1 0 0-13.972 6.986 6.986 0 0 0 0 13.972z" clip-path="url(#p10c1601b3d)" style="fill:#be254a"/><path id="patch_245" d="M674.426 462.087a8.982 8.982 0 1 0 0-17.964 8.982 8.982 0 0 0 0 17.964z" clip-path="url(#p10c1601b3d)" style="fill:#c9314c"/><path id="patch_246" d="M217.73 1153.44a3.992 3.992 0 1 0 0-7.984 3.992 3.992 0 0 0 0 7.984z" clip-path="url(#p10c1601b3d)" style="fill:#ad1246"/><path id="patch_247" d="M407.699 167.495a5.988 5.988 0 1 0 0-11.976 5.988 5.988 0 0 0 0 11.976z" clip-path="url(#p10c1601b3d)" style="fill:#b81e48"/><path id="patch_248" d="M875.01 924.013a7.984 7.984 0 1 0 0-15.967 7.984 7.984 0 0 0 0 15.967z" clip-path="url(#p10c1601b3d)" style="fill:#c52c4b"/><path id="patch_249" d="M921.963 359.863a9.98 9.98 0 1 0 0-19.96 9.98 9.98 0 0 0 0 19.96z" clip-path="url(#p10c1601b3d)" style="fill:#d0384e"/><path id="patch_250" d="M1162.162 161.336a.998.998 0 1 0 0-1.996.998.998 0 0 0 0 1.996z" clip-path="url(#p10c1601b3d)" style="fill:#9e0142"/><path id="patch_251" d="M1160.166 669.227a2.994 2.994 0 1 0 0-5.988 2.994 2.994 0 0 0 0 5.988z" clip-path="url(#p10c1601b3d)" style="fill:#a90d45"/><path id="patch_252" d="M822.572 630.405a10.978 10.978 0 1 0 0-21.955 10.978 10.978 0 0 0 0 21.955z" clip-path="url(#p10c1601b3d)" style="fill:#d43d4f"/><path id="patch_253" d="M914.474 799.79a8.982 8.982 0 1 0 0-17.963 8.982 8.982 0 0 0 0 17.964z" clip-path="url(#p10c1601b3d)" style="fill:#c9314c"/><path id="patch_254" d="M476.358 868.53a6.986 6.986 0 1 0 0-13.972 6.986 6.986 0 0 0 0 13.972z" clip-path="url(#p10c1601b3d)" style="fill:#be254a"/><path id="patch_255" d="M170.23 1017.678a4.99 4.99 0 1 0 0-9.98 4.99 4.99 0 0 0 0 9.98z" clip-path="url(#p10c1601b3d)" style="fill:#b41947"/><path id="patch_256" d="M1015.984 557.22a12.974 12.974 0 1 0 0-25.947 12.974 12.974 0 0 0 0 25.947z" clip-path="url(#p10c1601b3d)" style="fill:#dc484c"/><path id="patch_257" d="M656.056 823.517a7.984 7.984 0 1 0 0-15.968 7.984 7.984 0 0 0 0 15.968z" clip-path="url(#p10c1601b3d)" style="fill:#c52c4b"/><path id="patch_258" d="M1157.172 590.742a5.988 5.988 0 1 0 0-11.976 5.988 5.988 0 0 0 0 11.976z" clip-path="url(#p10c1601b3d)" style="fill:#b81e48"/><path id="patch_259" d="M907.43 707.022a10.978 10.978 0 1 0 0-21.955 10.978 10.978 0 0 0 0 21.955z" clip-path="url(#p10c1601b3d)" style="fill:#d43d4f"/><path id="patch_260" d="M744.478 163.503a3.992 3.992 0 1 0 0-7.983 3.992 3.992 0 0 0 0 7.983z" clip-path="url(#p10c1601b3d)" style="fill:#ad1246"/><path id="patch_261" d="M974.558 833.338a8.982 8.982 0 1 0 0-17.963 8.982 8.982 0 0 0 0 17.963z" clip-path="url(#p10c1601b3d)" style="fill:#c9314c"/><path id="patch_262" d="M912.351 980.143a6.986 6.986 0 1 0 0-13.971 6.986 6.986 0 0 0 0 13.971z" clip-path="url(#p10c1601b3d)" style="fill:#be254a"/><path id="patch_263" d="M167.236 718.743a1.996 1.996 0 1 0 0-3.992 1.996 1.996 0 0 0 0 3.992z" clip-path="url(#p10c1601b3d)" style="fill:#a20643"/><path id="patch_264" d="M922.016 728.014a12.974 12.974 0 1 0 0-25.947 12.974 12.974 0 0 0 0 25.947z" clip-path="url(#p10c1601b3d)" style="fill:#dc484c"/><path id="patch_265" d="M1016.407 1153.44a4.99 4.99 0 1 0 0-9.98 4.99 4.99 0 0 0 0 9.98z" clip-path="url(#p10c1601b3d)" style="fill:#b41947"/><path id="patch_266" d="M1019.907 967.442a10.978 10.978 0 1 0 0-21.956 10.978 10.978 0 0 0 0 21.956z" clip-path="url(#p10c1601b3d)" style="fill:#d43d4f"/><path id="patch_267" d="M861.12 974.932a7.984 7.984 0 1 0-.001-15.967 7.984 7.984 0 0 0 0 15.967z" clip-path="url(#p10c1601b3d)" style="fill:#c52c4b"/><path id="patch_268" d="M969.177 1018.262a8.982 8.982 0 1 0 0-17.964 8.982 8.982 0 0 0 0 17.964z" clip-path="url(#p10c1601b3d)" style="fill:#c9314c"/><path id="patch_269" d="M505.24 167.495a5.988 5.988 0 1 0 0-11.976 5.988 5.988 0 0 0 0 11.976z" clip-path="url(#p10c1601b3d)" style="fill:#b81e48"/><path id="patch_270" d="M770.922 1153.44a2.994 2.994 0 1 0 0-5.988 2.994 2.994 0 0 0 0 5.988z" clip-path="url(#p10c1601b3d)" style="fill:#a90d45"/><path id="patch_271" d="M491.612 928.123a9.98 9.98 0 1 0 0-19.959 9.98 9.98 0 0 0 0 19.96z" clip-path="url(#p10c1601b3d)" style="fill:#d0384e"/><path id="patch_272" d="M918.046 933.941a6.986 6.986 0 1 0 0-13.971 6.986 6.986 0 0 0 0 13.971z" clip-path="url(#p10c1601b3d)" style="fill:#be254a"/><path id="patch_273" d="M1107.304 966.517a7.984 7.984 0 1 0 0-15.967 7.984 7.984 0 0 0 0 15.967z" clip-path="url(#p10c1601b3d)" style="fill:#c52c4b"/><path id="patch_274" d="M169.232 1099.947a3.992 3.992 0 1 0 0-7.984 3.992 3.992 0 0 0 0 7.984z" clip-path="url(#p10c1601b3d)" style="fill:#ad1246"/><path id="patch_275" d="M170.23 307.989a4.99 4.99 0 1 0 0-9.98 4.99 4.99 0 0 0 0 9.98z" clip-path="url(#p10c1601b3d)" style="fill:#b41947"/><path id="patch_276" d="M925.43 1153.44a5.988 5.988 0 1 0-.001-11.976 5.988 5.988 0 0 0 0 11.976z" clip-path="url(#p10c1601b3d)" style="fill:#b81e48"/><path id="patch_277" d="M912.325 443.292a11.976 11.976 0 1 0 0-23.951 11.976 11.976 0 0 0 0 23.951z" clip-path="url(#p10c1601b3d)" style="fill:#d8434e"/><path id="patch_278" d="M561.682 796.62a6.986 6.986 0 1 0 0-13.971 6.986 6.986 0 0 0 0 13.971z" clip-path="url(#p10c1601b3d)" style="fill:#be254a"/><path id="patch_279" d="M654.95 1153.44a.998.998 0 1 0 0-1.996.998.998 0 0 0 0 1.996z" clip-path="url(#p10c1601b3d)" style="fill:#9e0142"/><path id="patch_280" d="M215.08 785.184a7.984 7.984 0 1 0-.001-15.967 7.984 7.984 0 0 0 0 15.967z" clip-path="url(#p10c1601b3d)" style="fill:#c52c4b"/><path id="patch_281" d="M613.418 159.512a1.996 1.996 0 1 0 0-3.992 1.996 1.996 0 0 0 0 3.992z" clip-path="url(#p10c1601b3d)" style="fill:#a20643"/><path id="patch_282" d="M615.05 1153.44a2.994 2.994 0 1 0-.001-5.988 2.994 2.994 0 0 0 0 5.988z" clip-path="url(#p10c1601b3d)" style="fill:#a90d45"/><path id="patch_283" d="M809.147 1153.44a3.992 3.992 0 1 0 0-7.984 3.992 3.992 0 0 0 0 7.984z" clip-path="url(#p10c1601b3d)" style="fill:#ad1246"/><path id="patch_284" d="M742.945 1153.44a4.99 4.99 0 1 0 0-9.98 4.99 4.99 0 0 0 0 9.98z" clip-path="url(#p10c1601b3d)" style="fill:#b41947"/><path id="patch_285" d="M1157.172 1012.316a5.988 5.988 0 1 0 0-11.975 5.988 5.988 0 0 0 0 11.975z" clip-path="url(#p10c1601b3d)" style="fill:#b81e48"/><path id="patch_286" d="M453.622 489.346a7.984 7.984 0 1 0 0-15.968 7.984 7.984 0 0 0 0 15.968z" clip-path="url(#p10c1601b3d)" style="fill:#c52c4b"/><path id="patch_287" d="M646.154 546.242a6.986 6.986 0 1 0 0-13.972 6.986 6.986 0 0 0 0 13.972z" clip-path="url(#p10c1601b3d)" style="fill:#be254a"/><path id="patch_288" d="M492.953 453.72a10.978 10.978 0 1 0 0-21.956 10.978 10.978 0 0 0 0 21.956z" clip-path="url(#p10c1601b3d)" style="fill:#d43d4f"/><path id="patch_289" d="M495.779 950.844a9.98 9.98 0 1 0 0-19.96 9.98 9.98 0 0 0 0 19.96z" clip-path="url(#p10c1601b3d)" style="fill:#d0384e"/><path id="patch_290" d="M1112.949 549.212a8.982 8.982 0 1 0 0-17.964 8.982 8.982 0 0 0 0 17.964z" clip-path="url(#p10c1601b3d)" style="fill:#c9314c"/><path id="patch_291" d="M310.187 1153.44a5.988 5.988 0 1 0 0-11.976 5.988 5.988 0 0 0 0 11.976z" clip-path="url(#p10c1601b3d)" style="fill:#b81e48"/><path id="patch_292" d="M711.96 165.5a4.99 4.99 0 1 0-.001-9.98 4.99 4.99 0 0 0 0 9.98z" clip-path="url(#p10c1601b3d)" style="fill:#b41947"/><path id="patch_293" d="M813.414 840.251a13.972 13.972 0 1 0 0-27.943 13.972 13.972 0 0 0 0 27.943z" clip-path="url(#p10c1601b3d)" style="fill:#de4c4b"/><path id="patch_294" d="M224.317 163.503a3.992 3.992 0 1 0 0-7.983 3.992 3.992 0 0 0 0 7.983z" clip-path="url(#p10c1601b3d)" style="fill:#ad1246"/><path id="patch_295" d="M196.663 1153.44a2.994 2.994 0 1 0 0-5.988 2.994 2.994 0 0 0 0 5.988z" clip-path="url(#p10c1601b3d)" style="fill:#a90d45"/><path id="patch_296" d="M167.236 1103.596a1.996 1.996 0 1 0 0-3.992 1.996 1.996 0 0 0 0 3.992z" clip-path="url(#p10c1601b3d)" style="fill:#a20643"/><path id="patch_297" d="M969.907 464.085a7.984 7.984 0 1 0 0-15.967 7.984 7.984 0 0 0 0 15.967z" clip-path="url(#p10c1601b3d)" style="fill:#c52c4b"/><path id="patch_298" d="M812.676 167.495a5.988 5.988 0 1 0 0-11.976 5.988 5.988 0 0 0 0 11.976z" clip-path="url(#p10c1601b3d)" style="fill:#b81e48"/><path id="patch_299" d="M368.526 1153.44a.998.998 0 1 0 0-1.996.998.998 0 0 0 0 1.996z" clip-path="url(#p10c1601b3d)" style="fill:#9e0142"/><path id="patch_300" d="M1158.17 498.684a4.99 4.99 0 1 0 0-9.98 4.99 4.99 0 0 0 0 9.98z" clip-path="url(#p10c1601b3d)" style="fill:#b41947"/><path id="patch_301" d="M1159.168 214.143a3.992 3.992 0 1 0 0-7.984 3.992 3.992 0 0 0 0 7.984z" clip-path="url(#p10c1601b3d)" style="fill:#ad1246"/><path id="patch_302" d="M562.182 810.582a6.986 6.986 0 1 0 0-13.971 6.986 6.986 0 0 0 0 13.971z" clip-path="url(#p10c1601b3d)" style="fill:#be254a"/><path id="patch_303" d="M1157.172 310.187a5.988 5.988 0 1 0 0-11.975 5.988 5.988 0 0 0 0 11.975z" clip-path="url(#p10c1601b3d)" style="fill:#b81e48"/><path id="patch_304" d="M227.992 1153.44a2.994 2.994 0 1 0 0-5.988 2.994 2.994 0 0 0 0 5.988z" clip-path="url(#p10c1601b3d)" style="fill:#a90d45"/><path id="patch_305" d="M498.28 475.018a10.978 10.978 0 1 0-.001-21.955 10.978 10.978 0 0 0 0 21.955z" clip-path="url(#p10c1601b3d)" style="fill:#d43d4f"/><path id="patch_306" d="M871.46 648.339a4.99 4.99 0 1 0 0-9.98 4.99 4.99 0 0 0 0 9.98z" clip-path="url(#p10c1601b3d)" style="fill:#b41947"/><path id="patch_307" d="M806.657 614.887a6.986 6.986 0 1 0 0-13.971 6.986 6.986 0 0 0 0 13.971z" clip-path="url(#p10c1601b3d)" style="fill:#be254a"/><path id="patch_308" d="M218.672 159.512a1.996 1.996 0 1 0 0-3.992 1.996 1.996 0 0 0 0 3.992z" clip-path="url(#p10c1601b3d)" style="fill:#a20643"/><path id="patch_309" d="M417.476 163.503a3.992 3.992 0 1 0 0-7.983 3.992 3.992 0 0 0 0 7.983z" clip-path="url(#p10c1601b3d)" style="fill:#ad1246"/><path id="patch_310" d="M1012.888 167.495a5.988 5.988 0 1 0 0-11.976 5.988 5.988 0 0 0 0 11.976z" clip-path="url(#p10c1601b3d)" style="fill:#b81e48"/><path id="patch_311" d="M562.453 261.14a9.98 9.98 0 1 0 0-19.96 9.98 9.98 0 0 0 0 19.96z" clip-path="url(#p10c1601b3d)" style="fill:#d0384e"/><path id="patch_312" d="M812.208 491.52a7.984 7.984 0 1 0 0-15.968 7.984 7.984 0 0 0 0 15.967z" clip-path="url(#p10c1601b3d)" style="fill:#c52c4b"/><path id="patch_313" d="M1036.098 962.102a4.99 4.99 0 1 0 0-9.98 4.99 4.99 0 0 0 0 9.98z" clip-path="url(#p10c1601b3d)" style="fill:#b41947"/><path id="patch_314" d="M1160.166 298.726a2.994 2.994 0 1 0 0-5.988 2.994 2.994 0 0 0 0 5.988z" clip-path="url(#p10c1601b3d)" style="fill:#a90d45"/><path id="patch_315" d="M417.802 980.472a7.984 7.984 0 1 0 0-15.968 7.984 7.984 0 0 0 0 15.968z" clip-path="url(#p10c1601b3d)" style="fill:#c52c4b"/><path id="patch_316" d="M831.124 1153.44a.998.998 0 1 0 0-1.996.998.998 0 0 0 0 1.996z" clip-path="url(#p10c1601b3d)" style="fill:#9e0142"/><path id="patch_317" d="M1033.864 726.197a5.988 5.988 0 1 0 0-11.976 5.988 5.988 0 0 0 0 11.976z" clip-path="url(#p10c1601b3d)" style="fill:#b81e48"/><path id="patch_318" d="M1108.529 163.503a3.992 3.992 0 1 0 0-7.983 3.992 3.992 0 0 0 0 7.983z" clip-path="url(#p10c1601b3d)" style="fill:#ad1246"/><path id="patch_319" d="M486.243 353.027a4.99 4.99 0 1 0 0-9.98 4.99 4.99 0 0 0 0 9.98z" clip-path="url(#p10c1601b3d)" style="fill:#b41947"/><path id="patch_320" d="M1161.164 748.753a1.996 1.996 0 1 0 0-3.992 1.996 1.996 0 0 0 0 3.992z" clip-path="url(#p10c1601b3d)" style="fill:#a20643"/><path id="patch_321" d="M1022.568 779.604a5.988 5.988 0 1 0 0-11.976 5.988 5.988 0 0 0 0 11.976z" clip-path="url(#p10c1601b3d)" style="fill:#b81e48"/><path id="patch_322" d="M1097.937 161.508a2.994 2.994 0 1 0 0-5.988 2.994 2.994 0 0 0 0 5.988z" clip-path="url(#p10c1601b3d)" style="fill:#a90d45"/><path id="patch_323" d="M169.232 519.707a3.992 3.992 0 1 0 0-7.984 3.992 3.992 0 0 0 0 7.984z" clip-path="url(#p10c1601b3d)" style="fill:#ad1246"/><path id="patch_324" d="M313.23 761.755a4.99 4.99 0 1 0 0-9.98 4.99 4.99 0 0 0 0 9.98z" clip-path="url(#p10c1601b3d)" style="fill:#b41947"/><path id="patch_325" d="M1034.83 548.147a5.988 5.988 0 1 0-.001-11.976 5.988 5.988 0 0 0 0 11.976z" clip-path="url(#p10c1601b3d)" style="fill:#b81e48"/><path id="patch_326" d="M166.238 491.156a.998.998 0 1 0 0-1.996.998.998 0 0 0 0 1.996z" clip-path="url(#p10c1601b3d)" style="fill:#9e0142"/><path id="patch_327" d="M397.62 1153.44a2.994 2.994 0 1 0 0-5.988 2.994 2.994 0 0 0 0 5.988z" clip-path="url(#p10c1601b3d)" style="fill:#a90d45"/><path id="patch_328" d="M1161.164 576.553a1.996 1.996 0 1 0 0-3.992 1.996 1.996 0 0 0 0 3.992z" clip-path="url(#p10c1601b3d)" style="fill:#a20643"/><g id="matplotlib.axis_1"><g id="xtick_1"><g id="line2d_1"><defs><path id="m6f1226c523" d="M0 0v3.5" style="stroke:#000;stroke-width:.8"/></defs><use xlink:href="#m6f1226c523" x="165.24" y="1153.44" style="stroke:#000;stroke-width:.8"/></g><g id="text_1" transform="matrix(.1 0 0 -.1 162.059 1168.038)"><defs><path id="DejaVuSans-30" d="M2034 4250q-487 0-733-480-245-479-245-1442 0-959 245-1439 246-480 733-480 491 0 736 480 246 480 246 1439 0 963-246 1442-245 480-736 480zm0 500q785 0 1199-621 414-620 414-1801 0-1178-414-1799Q2819-91 2034-91q-784 0-1198 620-414 621-414 1799 0 1181 414 1801 414 621 1198 621z" transform="scale(.01563)"/></defs><use xlink:href="#DejaVuSans-30"/></g></g><g id="xtick_2"><use xlink:href="#m6f1226c523" id="line2d_2" x="364.824" y="1153.44" style="stroke:#000;stroke-width:.8"/><g id="text_2" transform="matrix(.1 0 0 -.1 355.28 1168.038)"><defs><path id="DejaVuSans-32" d="M1228 531h2203V0H469v531q359 372 979 998 621 627 780 809 303 340 423 576 121 236 121 464 0 372-261 606-261 235-680 235-297 0-627-103-329-103-704-313v638q381 153 712 231 332 78 607 78 725 0 1156-363 431-362 431-968 0-288-108-546-107-257-392-607-78-91-497-524-418-433-1181-1211z" transform="scale(.01563)"/></defs><use xlink:href="#DejaVuSans-32"/><use xlink:href="#DejaVuSans-30" x="63.623"/><use xlink:href="#DejaVuSans-30" x="127.246"/></g></g><g id="xtick_3"><use xlink:href="#m6f1226c523" id="line2d_3" x="564.408" y="1153.44" style="stroke:#000;stroke-width:.8"/><g id="text_3" transform="matrix(.1 0 0 -.1 554.864 1168.038)"><defs><path id="DejaVuSans-34" d="M2419 4116 825 1625h1594v2491zm-166 550h794V1625h666v-525h-666V0h-628v1100H313v609l1940 2957z" transform="scale(.01563)"/></defs><use xlink:href="#DejaVuSans-34"/><use xlink:href="#DejaVuSans-30" x="63.623"/><use xlink:href="#DejaVuSans-30" x="127.246"/></g></g><g id="xtick_4"><use xlink:href="#m6f1226c523" id="line2d_4" x="763.992" y="1153.44" style="stroke:#000;stroke-width:.8"/><g id="text_4" transform="matrix(.1 0 0 -.1 754.448 1168.038)"><defs><path id="DejaVuSans-36" d="M2113 2584q-425 0-674-291-248-290-248-796 0-503 248-796 249-292 674-292t673 292q248 293 248 796 0 506-248 796-248 291-673 291zm1253 1979v-575q-238 112-480 171-242 60-480 60-625 0-955-422-329-422-376-1275 184 272 462 417 279 145 613 145 703 0 1111-427 408-426 408-1160 0-719-425-1154Q2819-91 2113-91q-810 0-1238 620-428 621-428 1799 0 1106 525 1764t1409 658q238 0 480-47t505-140z" transform="scale(.01563)"/></defs><use xlink:href="#DejaVuSans-36"/><use xlink:href="#DejaVuSans-30" x="63.623"/><use xlink:href="#DejaVuSans-30" x="127.246"/></g></g><g id="xtick_5"><use xlink:href="#m6f1226c523" id="line2d_5" x="963.576" y="1153.44" style="stroke:#000;stroke-width:.8"/><g id="text_5" transform="matrix(.1 0 0 -.1 954.032 1168.038)"><defs><path id="DejaVuSans-38" d="M2034 2216q-450 0-708-241-257-241-257-662 0-422 257-663 258-241 708-241t709 242q260 243 260 662 0 421-258 662-257 241-711 241zm-631 268q-406 100-633 378-226 279-226 679 0 559 398 884 399 325 1092 325 697 0 1094-325t397-884q0-400-227-679-226-278-629-378 456-106 710-416 255-309 255-755 0-679-414-1042Q2806-91 2034-91q-771 0-1186 362-414 363-414 1042 0 446 256 755 257 310 713 416zm-231 997q0-362 226-565 227-203 636-203 407 0 636 203 230 203 230 565 0 363-230 566-229 203-636 203-409 0-636-203-226-203-226-566z" transform="scale(.01563)"/></defs><use xlink:href="#DejaVuSans-38"/><use xlink:href="#DejaVuSans-30" x="63.623"/><use xlink:href="#DejaVuSans-30" x="127.246"/></g></g><g id="xtick_6"><use xlink:href="#m6f1226c523" id="line2d_6" x="1163.16" y="1153.44" style="stroke:#000;stroke-width:.8"/><g id="text_6" transform="matrix(.1 0 0 -.1 1150.435 1168.038)"><defs><path id="DejaVuSans-31" d="M794 531h1031v3560L703 3866v575l1116 225h631V531h1031V0H794v531z" transform="scale(.01563)"/></defs><use xlink:href="#DejaVuSans-31"/><use xlink:href="#DejaVuSans-30" x="63.623"/><use xlink:href="#DejaVuSans-30" x="127.246"/><use xlink:href="#DejaVuSans-30" x="190.869"/></g></g></g><g id="matplotlib.axis_2"><g id="ytick_1"><g id="line2d_7"><defs><path id="m44383bcce9" d="M0 0h-3.5" style="stroke:#000;stroke-width:.8"/></defs><use xlink:href="#m44383bcce9" x="165.24" y="1153.44" style="stroke:#000;stroke-width:.8"/></g><use xlink:href="#DejaVuSans-30" id="text_7" transform="matrix(.1 0 0 -.1 151.877 1157.24)"/></g><g id="ytick_2"><use xlink:href="#m44383bcce9" id="line2d_8" x="165.24" y="953.856" style="stroke:#000;stroke-width:.8"/><g id="text_8" transform="matrix(.1 0 0 -.1 139.153 957.655)"><use xlink:href="#DejaVuSans-32"/><use xlink:href="#DejaVuSans-30" x="63.623"/><use xlink:href="#DejaVuSans-30" x="127.246"/></g></g><g id="ytick_3"><use xlink:href="#m44383bcce9" id="line2d_9" x="165.24" y="754.272" style="stroke:#000;stroke-width:.8"/><g id="text_9" transform="matrix(.1 0 0 -.1 139.153 758.071)"><use xlink:href="#DejaVuSans-34"/><use xlink:href="#DejaVuSans-30" x="63.623"/><use xlink:href="#DejaVuSans-30" x="127.246"/></g></g><g id="ytick_4"><use xlink:href="#m44383bcce9" id="line2d_10" x="165.24" y="554.688" style="stroke:#000;stroke-width:.8"/><g id="text_10" transform="matrix(.1 0 0 -.1 139.153 558.487)"><use xlink:href="#DejaVuSans-36"/><use xlink:href="#DejaVuSans-30" x="63.623"/><use xlink:href="#DejaVuSans-30" x="127.246"/></g></g><g id="ytick_5"><use xlink:href="#m44383bcce9" id="line2d_11" x="165.24" y="355.104" style="stroke:#000;stroke-width:.8"/><g id="text_11" transform="matrix(.1 0 0 -.1 139.153 358.903)"><use xlink:href="#DejaVuSans-38"/><use xlink:href="#DejaVuSans-30" x="63.623"/><use xlink:href="#DejaVuSans-30" x="127.246"/></g></g><g id="ytick_6"><use xlink:href="#m44383bcce9" id="line2d_12" x="165.24" y="155.52" style="stroke:#000;stroke-width:.8"/><g id="text_12" transform="matrix(.1 0 0 -.1 132.79 159.32)"><use xlink:href="#DejaVuSans-31"/><use xlink:href="#DejaVuSans-30" x="63.623"/><use xlink:href="#DejaVuSans-30" x="127.246"/><use xlink:href="#DejaVuSans-30" x="190.869"/></g></g></g><path id="patch_329" d="M165.24 1153.44V155.52" style="fill:none;stroke:#000;stroke-width:.8;stroke-linejoin:miter;stroke-linecap:square"/><path id="patch_330" d="M1163.16 1153.44V155.52" style="fill:none;stroke:#000;stroke-width:.8;stroke-linejoin:miter;stroke-linecap:square"/><path id="patch_331" d="M165.24 1153.44h997.92" style="fill:none;stroke:#000;stroke-width:.8;stroke-linejoin:miter;stroke-linecap:square"/><path id="patch_332" d="M165.24 155.52h997.92" style="fill:none;stroke:#000;stroke-width:.8;stroke-linejoin:miter;stroke-linecap:square"/><g id="text_13" transform="matrix(.12 0 0 -.12 445.252 149.52)"><defs><path id="DejaVuSans-4c" d="M628 4666h631V531h2272V0H628v4666z" transform="scale(.01563)"/><path id="DejaVuSans-69" d="M603 3500h575V0H603v3500zm0 1363h575v-729H603v729z" transform="scale(.01563)"/><path id="DejaVuSans-6e" d="M3513 2113V0h-575v2094q0 497-194 743-194 247-581 247-466 0-735-297-269-296-269-809V0H581v3500h578v-544q207 316 486 472 280 156 646 156 603 0 912-373 310-373 310-1098z" transform="scale(.01563)"/><path id="DejaVuSans-65" d="M3597 1894v-281H953q38-594 358-905t892-311q331 0 642 81t618 244V178Q3153 47 2828-22t-659-69q-838 0-1327 487-489 488-489 1320 0 859 464 1363 464 505 1252 505 706 0 1117-455 411-454 411-1235zm-575 169q-6 471-264 752-258 282-683 282-481 0-770-272t-333-766l2050 4z" transform="scale(.01563)"/><path id="DejaVuSans-61" d="M2194 1759q-697 0-966-159t-269-544q0-306 202-486 202-179 548-179 479 0 768 339t289 901v128h-572zm1147 238V0h-575v531q-197-318-491-470T1556-91q-537 0-855 302-317 302-317 808 0 590 395 890 396 300 1180 300h807v57q0 397-261 614t-733 217q-300 0-585-72-284-72-546-216v532q315 122 612 182 297 61 578 61 760 0 1135-394 375-393 375-1193z" transform="scale(.01563)"/><path id="DejaVuSans-72" d="M2631 2963q-97 56-211 82-114 27-251 27-488 0-749-317t-261-911V0H581v3500h578v-544q182 319 472 473 291 155 707 155 59 0 131-8 72-7 159-23l3-590z" transform="scale(.01563)"/><path id="DejaVuSans-52" d="M2841 2188q203-69 395-294t386-619L4263 0h-679l-596 1197q-232 469-449 622t-592 153h-688V0H628v4666h1425q800 0 1194-335 394-334 394-1009 0-441-205-732-205-290-595-402zM1259 4147V2491h794q456 0 689 211t233 620q0 409-233 617t-689 208h-794z" transform="scale(.01563)"/><path id="DejaVuSans-64" d="M2906 2969v1894h575V0h-575v525q-181-312-458-464-276-152-664-152-634 0-1033 506-398 507-398 1332t398 1331q399 506 1033 506 388 0 664-152 277-151 458-463zM947 1747q0-634 261-995t717-361q456 0 718 361 263 361 263 995t-263 995q-262 361-718 361t-717-361q-261-361-261-995z" transform="scale(.01563)"/><path id="DejaVuSans-75" d="M544 1381v2119h575V1403q0-497 193-746 194-248 582-248 465 0 735 297 271 297 271 810v1984h575V0h-575v538q-209-319-486-474-276-155-642-155-603 0-916 375-312 375-312 1097zm1447 2203z" transform="scale(.01563)"/><path id="DejaVuSans-73" d="M2834 3397v-544q-243 125-506 187-262 63-544 63-428 0-642-131t-214-394q0-200 153-314t616-217l197-44q612-131 870-370t258-667q0-488-386-773Q2250-91 1575-91q-281 0-586 55T347 128v594q319-166 628-249 309-82 613-82 406 0 624 139 219 139 219 392 0 234-158 359-157 125-692 241l-200 47q-534 112-772 345-237 233-237 639 0 494 350 762 350 269 994 269 318 0 599-47 282-46 519-140z" transform="scale(.01563)"/><path id="DejaVuSans-56" d="M1831 0 50 4666h659L2188 738l1481 3928h656L2547 0h-716z" transform="scale(.01563)"/><path id="DejaVuSans-74" d="M1172 4494v-994h1184v-447H1172V1153q0-428 117-550t477-122h590V0h-590q-666 0-919 248-253 249-253 905v1900H172v447h422v994h578z" transform="scale(.01563)"/><path id="DejaVuSans-6f" d="M1959 3097q-462 0-731-361t-269-989q0-628 267-989 268-361 733-361 460 0 728 362 269 363 269 988 0 622-269 986-268 364-728 364zm0 487q750 0 1178-488 429-487 429-1349 0-859-429-1349Q2709-91 1959-91q-753 0-1180 489-426 490-426 1349 0 862 426 1349 427 488 1180 488z" transform="scale(.01563)"/><path id="DejaVuSans-46" d="M628 4666h2681v-532H1259V2759h1850v-531H1259V0H628v4666z" transform="scale(.01563)"/><path id="DejaVuSans-2c" d="M750 794h659V256L897-744H494L750 256v538z" transform="scale(.01563)"/><path id="DejaVuSans-62" d="M3116 1747q0 634-261 995t-717 361q-457 0-718-361t-261-995q0-634 261-995t718-361q456 0 717 361t261 995zM1159 2969q182 312 458 463 277 152 661 152 638 0 1036-506 399-506 399-1331T3314 415Q2916-91 2278-91q-384 0-661 152-276 152-458 464V0H581v4863h578V2969z" transform="scale(.01563)"/><path id="DejaVuSans-3d" d="M678 2906h4006v-525H678v525zm0-1275h4006v-531H678v531z" transform="scale(.01563)"/><path id="DejaVuSans-2e" d="M684 794h660V0H684v794z" transform="scale(.01563)"/><path id="DejaVuSans-39" d="M703 97v575q238-113 481-172 244-59 479-59 625 0 954 420 330 420 377 1277-181-269-460-413-278-144-615-144-700 0-1108 423-408 424-408 1159 0 718 425 1152 425 435 1131 435 810 0 1236-621 427-620 427-1801 0-1103-524-1761Q2575-91 1691-91q-238 0-482 47Q966 3 703 97zm1256 1978q425 0 673 290 249 291 249 798 0 503-249 795-248 292-673 292t-673-292q-248-292-248-795 0-507 248-798 248-290 673-290z" transform="scale(.01563)"/><path id="DejaVuSans-35" d="M691 4666h2478v-532H1269V2991q137 47 274 70 138 23 276 23 781 0 1237-428 457-428 457-1159 0-753-469-1171Q2575-91 1722-91q-294 0-599 50Q819 9 494 109v635q281-153 581-228t634-75q541 0 856 284 316 284 316 772 0 487-316 771-315 285-856 285-253 0-505-56-251-56-513-175v2344z" transform="scale(.01563)"/><path id="DejaVuSans-33" d="M2597 2516q453-97 707-404 255-306 255-756 0-690-475-1069Q2609-91 1734-91q-293 0-604 58T488 141v609q262-153 574-231 313-78 654-78 593 0 904 234t311 681q0 413-289 645-289 233-804 233h-544v519h569q465 0 712 186t247 536q0 359-255 551-254 193-729 193-260 0-557-57-297-56-653-174v562q360 100 674 150t592 50q719 0 1137-327 419-326 419-882 0-388-222-655t-631-370z" transform="scale(.01563)"/><path id="DejaVuSans-37" d="M525 4666h3000v-269L1831 0h-659l1594 4134H525v532z" transform="scale(.01563)"/></defs><use xlink:href="#DejaVuSans-4c"/><use xlink:href="#DejaVuSans-69" x="55.713"/><use xlink:href="#DejaVuSans-6e" x="83.496"/><use xlink:href="#DejaVuSans-65" x="146.875"/><use xlink:href="#DejaVuSans-61" x="208.398"/><use xlink:href="#DejaVuSans-72" x="269.678"/><use xlink:href="#DejaVuSans-52" x="310.791"/><use xlink:href="#DejaVuSans-61" x="378.023"/><use xlink:href="#DejaVuSans-64" x="439.303"/><use xlink:href="#DejaVuSans-69" x="502.779"/><use xlink:href="#DejaVuSans-75" x="530.563"/><use xlink:href="#DejaVuSans-73" x="593.941"/><use xlink:href="#DejaVuSans-56" x="646.041"/><use xlink:href="#DejaVuSans-61" x="706.699"/><use xlink:href="#DejaVuSans-72" x="767.979"/><use xlink:href="#DejaVuSans-69" x="809.092"/><use xlink:href="#DejaVuSans-61" x="836.875"/><use xlink:href="#DejaVuSans-74" x="898.154"/><use xlink:href="#DejaVuSans-69" x="937.363"/><use xlink:href="#DejaVuSans-6f" x="965.146"/><use xlink:href="#DejaVuSans-6e" x="1026.328"/><use xlink:href="#DejaVuSans-46" x="1089.707"/><use xlink:href="#DejaVuSans-6f" x="1143.602"/><use xlink:href="#DejaVuSans-72" x="1204.783"/><use xlink:href="#DejaVuSans-65" x="1243.646"/><use xlink:href="#DejaVuSans-73" x="1305.17"/><use xlink:href="#DejaVuSans-74" x="1357.27"/><use xlink:href="#DejaVuSans-2c" x="1396.479"/><use xlink:href="#DejaVuSans-20" x="1428.266"/><use xlink:href="#DejaVuSans-62" x="1460.053"/><use xlink:href="#DejaVuSans-3d" x="1523.529"/><use xlink:href="#DejaVuSans-30" x="1607.318"/><use xlink:href="#DejaVuSans-2e" x="1670.941"/><use xlink:href="#DejaVuSans-38" x="1702.729"/><use xlink:href="#DejaVuSans-39" x="1766.352"/><use xlink:href="#DejaVuSans-36" x="1829.975"/><use xlink:href="#DejaVuSans-32" x="1893.598"/><use xlink:href="#DejaVuSans-39" x="1957.221"/><use xlink:href="#DejaVuSans-35" x="2020.844"/><use xlink:href="#DejaVuSans-33" x="2084.467"/><use xlink:href="#DejaVuSans-2c" x="2148.09"/><use xlink:href="#DejaVuSans-20" x="2179.877"/><use xlink:href="#DejaVuSans-61" x="2211.664"/><use xlink:href="#DejaVuSans-3d" x="2272.943"/><use xlink:href="#DejaVuSans-30" x="2356.732"/><use xlink:href="#DejaVuSans-2e" x="2420.355"/><use xlink:href="#DejaVuSans-39" x="2452.143"/><use xlink:href="#DejaVuSans-33" x="2515.766"/><use xlink:href="#DejaVuSans-32" x="2579.389"/><use xlink:href="#DejaVuSans-38" x="2643.012"/><use xlink:href="#DejaVuSans-32" x="2706.635"/><use xlink:href="#DejaVuSans-36" x="2770.258"/><use xlink:href="#DejaVuSans-38" x="2833.881"/><use xlink:href="#DejaVuSans-2c" x="2897.504"/><use xlink:href="#DejaVuSans-20" x="2929.291"/><use xlink:href="#DejaVuSans-64" x="2961.078"/><use xlink:href="#DejaVuSans-3d" x="3024.555"/><use xlink:href="#DejaVuSans-30" x="3108.344"/><use xlink:href="#DejaVuSans-2e" x="3171.967"/><use xlink:href="#DejaVuSans-39" x="3203.754"/><use xlink:href="#DejaVuSans-36" x="3267.377"/><use xlink:href="#DejaVuSans-30" x="3331"/><use xlink:href="#DejaVuSans-38" x="3394.623"/><use xlink:href="#DejaVuSans-33" x="3458.246"/><use xlink:href="#DejaVuSans-37" x="3521.869"/><use xlink:href="#DejaVuSans-38" x="3585.492"/></g></g></g><defs><clipPath id="p10c1601b3d"><path d="M165.24 155.52h997.92v997.92H165.24z"/></clipPath></defs></svg>