<svg xmlns="http://www.w3.org/2000/svg" xmlns:xlink="http://www.w3.org/1999/xlink" width="1710.72" height="1710.72" viewBox="0 0 1283.04 1283.04"><defs><style>*{stroke-linejoin:round;stroke-linecap:butt}</style></defs><g id="figure_1"><path id="patch_1" d="M0 1283.04h1283.04V0H0z" style="fill:#fff"/><g id="axes_1"><path id="patch_2" d="M163.588 1141.906h987.94V153.965h-987.94z" style="fill:#fff"/><path id="patch_3" d="M1051.736 353.549a99.797 99.797 0 0 0 70.564-29.229 99.797 99.797 0 0 0 29.228-70.563 99.797 99.797 0 0 0-29.228-70.564 99.797 99.797 0 0 0-70.564-29.228 99.797 99.797 0 0 0-70.563 29.228 99.797 99.797 0 0 0-29.229 70.564 99.797 99.797 0 0 0 29.229 70.563 99.797 99.797 0 0 0 70.563 29.229z" clip-path="url(#pff5adf1744)" style="fill:#5e4fa2"/><path id="patch_4" d="M852.152 353.549a99.797 99.797 0 0 0 70.564-29.229 99.797 99.797 0 0 0 29.228-70.563 99.797 99.797 0 0 0-29.228-70.564 99.797 99.797 0 0 0-70.564-29.228 99.797 99.797 0 0 0-70.563 29.228 99.797 99.797 0 0 0-29.229 70.564 99.797 99.797 0 0 0 29.229 70.563 99.797 99.797 0 0 0 70.563 29.229z" clip-path="url(#pff5adf1744)" style="fill:#5e4fa2"/><path id="patch_5" d="M262.382 351.553c26.2 0 51.331-10.41 69.858-28.936a98.799 98.799 0 0 0 28.936-69.858c0-26.2-10.41-51.332-28.936-69.858a98.799 98.799 0 0 0-69.858-28.936 98.799 98.799 0 0 0-69.858 28.936 98.799 98.799 0 0 0-28.936 69.858c0 26.2 10.41 51.331 28.936 69.858a98.799 98.799 0 0 0 69.858 28.936z" clip-path="url(#pff5adf1744)" style="fill:#5b53a4"/><path id="patch_6" d="M1053.732 1141.906a97.8 97.8 0 0 0 69.153-28.644 97.8 97.8 0 0 0 28.643-69.153 97.8 97.8 0 0 0-28.643-69.152 97.8 97.8 0 0 0-69.153-28.644 97.8 97.8 0 0 0-69.152 28.644 97.8 97.8 0 0 0-28.644 69.152 97.8 97.8 0 0 0 28.644 69.153 97.8 97.8 0 0 0 69.152 28.644z" clip-path="url(#pff5adf1744)" style="fill:#555aa7"/><path id="patch_7" d="M260.386 1141.906a96.803 96.803 0 0 0 68.447-28.352 96.803 96.803 0 0 0 28.351-68.447 96.803 96.803 0 0 0-28.351-68.446 96.803 96.803 0 0 0-68.447-28.352 96.803 96.803 0 0 0-68.447 28.352 96.803 96.803 0 0 0-28.351 68.446 96.803 96.803 0 0 0 28.351 68.447 96.803 96.803 0 0 0 68.447 28.352z" clip-path="url(#pff5adf1744)" style="fill:#525fa9"/><path id="patch_8" d="M1055.728 545.109a95.805 95.805 0 0 0 67.741-28.06 95.805 95.805 0 0 0 28.06-67.74 95.805 95.805 0 0 0-28.06-67.742 95.805 95.805 0 0 0-67.74-28.059 95.805 95.805 0 0 0-67.742 28.06 95.805 95.805 0 0 0-28.06 67.74 95.805 95.805 0 0 0 28.06 67.741 95.805 95.805 0 0 0 67.741 28.06z" clip-path="url(#pff5adf1744)" style="fill:#4d65ad"/><path id="patch_9" d="M861.157 1141.906a94.807 94.807 0 0 0 67.035-27.767 94.807 94.807 0 0 0 27.767-67.036 94.807 94.807 0 0 0-27.767-67.035 94.807 94.807 0 0 0-67.035-27.767 94.807 94.807 0 0 0-67.035 27.767 94.807 94.807 0 0 0-27.767 67.035 94.807 94.807 0 0 0 27.767 67.036 94.807 94.807 0 0 0 67.035 27.767z" clip-path="url(#pff5adf1744)" style="fill:#496aaf"/><path id="patch_10" d="M672.553 1141.906a93.809 93.809 0 0 0 66.33-27.475 93.809 93.809 0 0 0 27.474-66.33 93.809 93.809 0 0 0-27.475-66.33 93.809 93.809 0 0 0-66.33-27.474 93.809 93.809 0 0 0-66.33 27.474 93.809 93.809 0 0 0-27.474 66.33 93.809 93.809 0 0 0 27.475 66.33 93.809 93.809 0 0 0 66.33 27.475z" clip-path="url(#pff5adf1744)" style="fill:#4471b2"/><path id="patch_11" d="M951.944 203.86a24.95 24.95 0 0 0 0-49.895 24.95 24.95 0 0 0 0 49.896z" clip-path="url(#pff5adf1744)" style="fill:#f88950"/><path id="patch_12" d="M1127.578 377.458a23.951 23.951 0 1 0 0-47.902 23.951 23.951 0 0 0 0 47.902z" clip-path="url(#pff5adf1744)" style="fill:#f7814c"/><path id="patch_13" d="M765.354 1141.906a22.953 22.953 0 1 0-.001-45.907 22.953 22.953 0 0 0 0 45.907z" clip-path="url(#pff5adf1744)" style="fill:#f67a49"/><path id="patch_14" d="M961.06 1141.906a21.955 21.955 0 1 0 0-43.91 21.955 21.955 0 0 0 0 43.91z" clip-path="url(#pff5adf1744)" style="fill:#f57547"/><path id="patch_15" d="M1051.736 744.652a99.797 99.797 0 0 0 70.564-29.228 99.797 99.797 0 0 0 29.228-70.564 99.797 99.797 0 0 0-29.228-70.564 99.797 99.797 0 0 0-70.564-29.228 99.797 99.797 0 0 0-70.563 29.228 99.797 99.797 0 0 0-29.229 70.564 99.797 99.797 0 0 0 29.229 70.564 99.797 99.797 0 0 0 70.563 29.228z" clip-path="url(#pff5adf1744)" style="fill:#5e4fa2"/><path id="patch_16" d="M653.569 351.553c26.2 0 51.331-10.41 69.858-28.936a98.799 98.799 0 0 0 28.936-69.858c0-26.2-10.41-51.332-28.936-69.858a98.799 98.799 0 0 0-69.858-28.936A98.799 98.799 0 0 0 583.71 182.9a98.799 98.799 0 0 0-28.936 69.858c0 26.2 10.41 51.331 28.936 69.858a98.799 98.799 0 0 0 69.858 28.936z" clip-path="url(#pff5adf1744)" style="fill:#5b53a4"/><path id="patch_17" d="M480.994 1141.906a97.8 97.8 0 0 0 69.152-28.644 97.8 97.8 0 0 0 28.644-69.153 97.8 97.8 0 0 0-28.644-69.152 97.8 97.8 0 0 0-69.152-28.644 97.8 97.8 0 0 0-69.153 28.644 97.8 97.8 0 0 0-28.644 69.152 97.8 97.8 0 0 0 28.644 69.153 97.8 97.8 0 0 0 69.153 28.644z" clip-path="url(#pff5adf1744)" style="fill:#555aa7"/><path id="patch_18" d="M457.964 347.561a96.803 96.803 0 0 0 68.447-28.351 96.803 96.803 0 0 0 28.351-68.447 96.803 96.803 0 0 0-28.351-68.447 96.803 96.803 0 0 0-68.447-28.351 96.803 96.803 0 0 0-68.447 28.351 96.803 96.803 0 0 0-28.351 68.447 96.803 96.803 0 0 0 28.351 68.447 96.803 96.803 0 0 0 68.447 28.351z" clip-path="url(#pff5adf1744)" style="fill:#525fa9"/><path id="patch_19" d="M1130.572 559.878a20.957 20.957 0 1 0 0-41.915 20.957 20.957 0 0 0 0 41.915z" clip-path="url(#pff5adf1744)" style="fill:#f46d43"/><path id="patch_20" d="M569.353 1141.906a19.96 19.96 0 1 0 0-39.92 19.96 19.96 0 0 0 0 39.92z" clip-path="url(#pff5adf1744)" style="fill:#f26944"/><path id="patch_21" d="M543.646 191.886a18.961 18.961 0 1 0-.001-37.923 18.961 18.961 0 0 0 0 37.923z" clip-path="url(#pff5adf1744)" style="fill:#ee6445"/><path id="patch_22" d="M767.476 189.89a17.963 17.963 0 1 0 0-35.927 17.963 17.963 0 0 0 0 35.927z" clip-path="url(#pff5adf1744)" style="fill:#ea5e47"/><path id="patch_23" d="M1134.564 187.894a16.965 16.965 0 1 0 0-33.93 16.965 16.965 0 0 0 0 33.93z" clip-path="url(#pff5adf1744)" style="fill:#e85b48"/><path id="patch_24" d="M1135.562 1141.906a15.967 15.967 0 1 0 0-31.935 15.967 15.967 0 0 0 0 31.935z" clip-path="url(#pff5adf1744)" style="fill:#e45549"/><path id="patch_25" d="M1051.736 944.236a99.797 99.797 0 0 0 70.564-29.228 99.797 99.797 0 0 0 29.228-70.564 99.797 99.797 0 0 0-29.228-70.564 99.797 99.797 0 0 0-70.564-29.228 99.797 99.797 0 0 0-70.563 29.228 99.797 99.797 0 0 0-29.229 70.564 99.797 99.797 0 0 0 29.229 70.564 99.797 99.797 0 0 0 70.563 29.228z" clip-path="url(#pff5adf1744)" style="fill:#5e4fa2"/><path id="patch_26" d="M262.382 948.32a98.799 98.799 0 0 0 98.794-98.794c0-26.201-10.41-51.332-28.936-69.859a98.799 98.799 0 0 0-69.858-28.936 98.799 98.799 0 0 0-69.858 28.936 98.799 98.799 0 0 0-28.936 69.858c0 26.2 10.41 51.332 28.936 69.858a98.799 98.799 0 0 0 69.858 28.936z" clip-path="url(#pff5adf1744)" style="fill:#5b53a4"/><path id="patch_27" d="M261.384 547.143a97.8 97.8 0 0 0 69.152-28.644 97.8 97.8 0 0 0 28.644-69.152 97.8 97.8 0 0 0-28.644-69.153 97.8 97.8 0 0 0-69.152-28.644 97.8 97.8 0 0 0-69.153 28.644 97.8 97.8 0 0 0-28.643 69.153 97.8 97.8 0 0 0 28.643 69.152 97.8 97.8 0 0 0 69.153 28.644z" clip-path="url(#pff5adf1744)" style="fill:#555aa7"/><path id="patch_28" d="M260.386 750.741a96.803 96.803 0 0 0 68.447-28.351 96.803 96.803 0 0 0 28.351-68.447 96.803 96.803 0 0 0-28.351-68.447 96.803 96.803 0 0 0-68.447-28.351 96.803 96.803 0 0 0-68.447 28.351 96.803 96.803 0 0 0-28.351 68.447 96.803 96.803 0 0 0 28.351 68.447 96.803 96.803 0 0 0 68.447 28.351z" clip-path="url(#pff5adf1744)" style="fill:#525fa9"/><path id="patch_29" d="M584.22 976.13a95.805 95.805 0 0 0 67.741-28.06 95.805 95.805 0 0 0 28.06-67.74 95.805 95.805 0 0 0-28.06-67.742 95.805 95.805 0 0 0-67.74-28.059 95.805 95.805 0 0 0-67.742 28.06 95.805 95.805 0 0 0-28.06 67.74 95.805 95.805 0 0 0 28.06 67.741 95.805 95.805 0 0 0 67.741 28.06z" clip-path="url(#pff5adf1744)" style="fill:#4d65ad"/><path id="patch_30" d="M919.513 810.515a65.866 65.866 0 0 0 65.863-65.863 65.866 65.866 0 0 0-65.863-65.863 65.866 65.866 0 0 0-65.863 65.863 65.866 65.866 0 0 0 65.863 65.863z" clip-path="url(#pff5adf1744)" style="fill:#c3e79f"/><path id="patch_31" d="M423.963 956.639a64.868 64.868 0 0 0 64.865-64.865 64.868 64.868 0 0 0-64.865-64.865 64.868 64.868 0 0 0-64.865 64.865 64.868 64.868 0 0 0 64.865 64.865z" clip-path="url(#pff5adf1744)" style="fill:#caea9e"/><path id="patch_32" d="M896.445 922.09a56.884 56.884 0 0 0 56.882-56.881 56.884 56.884 0 0 0-56.882-56.881 56.884 56.884 0 0 0-56.881 56.881 56.884 56.884 0 0 0 56.881 56.881z" clip-path="url(#pff5adf1744)" style="fill:#eff9a6"/><path id="patch_33" d="M379.902 804.84a55.886 55.886 0 0 0 55.884-55.884 55.886 55.886 0 0 0-55.884-55.883 55.886 55.886 0 0 0-55.883 55.883 55.886 55.886 0 0 0 55.883 55.884z" clip-path="url(#pff5adf1744)" style="fill:#f1f9a9"/><path id="patch_34" d="M765.454 986.891a54.888 54.888 0 0 0 54.885-54.885 54.888 54.888 0 0 0-54.885-54.886 54.888 54.888 0 0 0-54.886 54.886 54.888 54.888 0 0 0 54.886 54.885z" clip-path="url(#pff5adf1744)" style="fill:#f4faad"/><path id="patch_35" d="M370.987 1141.906a30.937 30.937 0 0 0 21.875-52.81 30.937 30.937 0 0 0-52.81 21.874 30.937 30.937 0 0 0 30.935 30.936z" clip-path="url(#pff5adf1744)" style="fill:#fdaf62"/><path id="patch_36" d="M178.556 183.902a14.97 14.97 0 1 0 0-29.939 14.97 14.97 0 0 0 0 29.94z" clip-path="url(#pff5adf1744)" style="fill:#e2514a"/><path id="patch_37" d="M576.197 181.907a13.972 13.972 0 1 0 0-27.944 13.972 13.972 0 0 0 0 27.944z" clip-path="url(#pff5adf1744)" style="fill:#de4c4b"/><path id="patch_38" d="M602.784 1141.906a12.974 12.974 0 1 0 0-25.948 12.974 12.974 0 0 0 0 25.948z" clip-path="url(#pff5adf1744)" style="fill:#dc484c"/><path id="patch_39" d="M452.254 710.908a99.797 99.797 0 0 0 70.564-29.229 99.797 99.797 0 0 0 29.228-70.563 99.797 99.797 0 0 0-29.228-70.564 99.797 99.797 0 0 0-70.564-29.228 99.797 99.797 0 0 0-70.563 29.228 99.797 99.797 0 0 0-29.229 70.564 99.797 99.797 0 0 0 29.229 70.563 99.797 99.797 0 0 0 70.563 29.229z" clip-path="url(#pff5adf1744)" style="fill:#5e4fa2"/><path id="patch_40" d="M362.616 393.42a41.915 41.915 0 0 0 41.913-41.912 41.915 41.915 0 0 0-41.913-41.913 41.915 41.915 0 0 0-41.912 41.913 41.915 41.915 0 0 0 41.912 41.913z" clip-path="url(#pff5adf1744)" style="fill:#fee593"/><path id="patch_41" d="M953.179 985.782a40.917 40.917 0 0 0 40.914-40.915 40.917 40.917 0 0 0-40.914-40.915 40.917 40.917 0 0 0-40.915 40.915 40.917 40.917 0 0 0 40.915 40.915z" clip-path="url(#pff5adf1744)" style="fill:#fee18d"/><path id="patch_42" d="M1126.58 769.6a24.95 24.95 0 0 0 0-49.896 24.95 24.95 0 0 0 0 49.896z" clip-path="url(#pff5adf1744)" style="fill:#f88950"/><path id="patch_43" d="M412.55 1141.906a11.976 11.976 0 1 0 0-23.952 11.976 11.976 0 0 0 0 23.952z" clip-path="url(#pff5adf1744)" style="fill:#d8434e"/><path id="patch_44" d="M1140.551 332.057a10.978 10.978 0 1 0 0-21.956 10.978 10.978 0 0 0 0 21.956z" clip-path="url(#pff5adf1744)" style="fill:#d43d4f"/><path id="patch_45" d="M990.663 1141.906a9.98 9.98 0 1 0 0-19.96 9.98 9.98 0 0 0 0 19.96z" clip-path="url(#pff5adf1744)" style="fill:#d0384e"/><path id="patch_46" d="M750.993 525.597a99.797 99.797 0 0 0 70.564-29.228 99.797 99.797 0 0 0 29.228-70.564 99.797 99.797 0 0 0-29.228-70.564 99.797 99.797 0 0 0-70.564-29.228 99.797 99.797 0 0 0-70.564 29.228 99.797 99.797 0 0 0-29.228 70.564 99.797 99.797 0 0 0 29.228 70.564 99.797 99.797 0 0 0 70.564 29.228z" clip-path="url(#pff5adf1744)" style="fill:#5e4fa2"/><path id="patch_47" d="M552.434 521.297c26.201 0 51.332-10.41 69.858-28.936a98.799 98.799 0 0 0 28.937-69.858 98.799 98.799 0 0 0-98.794-98.794 98.799 98.799 0 0 0-69.858 28.936 98.799 98.799 0 0 0-28.937 69.858 98.799 98.799 0 0 0 98.794 98.794z" clip-path="url(#pff5adf1744)" style="fill:#5b53a4"/><path id="patch_48" d="M861.45 689.435a97.8 97.8 0 0 0 69.153-28.644 97.8 97.8 0 0 0 28.644-69.152 97.8 97.8 0 0 0-28.644-69.153 97.8 97.8 0 0 0-69.152-28.643 97.8 97.8 0 0 0-69.152 28.643 97.8 97.8 0 0 0-28.644 69.153 97.8 97.8 0 0 0 28.644 69.152 97.8 97.8 0 0 0 69.152 28.644z" clip-path="url(#pff5adf1744)" style="fill:#555aa7"/><path id="patch_49" d="M647.94 687.848a95.805 95.805 0 0 0 67.742-28.06 95.805 95.805 0 0 0 28.06-67.74 95.805 95.805 0 0 0-28.06-67.741 95.805 95.805 0 0 0-67.741-28.06 95.805 95.805 0 0 0-67.741 28.06 95.805 95.805 0 0 0-28.06 67.74 95.805 95.805 0 0 0 28.06 67.742 95.805 95.805 0 0 0 67.74 28.059z" clip-path="url(#pff5adf1744)" style="fill:#4d65ad"/><path id="patch_50" d="M489.084 814.205a53.89 53.89 0 0 0 53.888-53.888 53.89 53.89 0 0 0-53.888-53.888 53.89 53.89 0 0 0-53.888 53.888 53.89 53.89 0 0 0 53.888 53.888z" clip-path="url(#pff5adf1744)" style="fill:#f6fbb0"/><path id="patch_51" d="M901.186 451.24a52.892 52.892 0 0 0 52.89-52.89 52.892 52.892 0 0 0-52.89-52.889 52.892 52.892 0 0 0-52.89 52.89 52.892 52.892 0 0 0 52.89 52.89z" clip-path="url(#pff5adf1744)" style="fill:#f9fcb5"/><path id="patch_52" d="M187.538 774.191a23.951 23.951 0 1 0-.001-47.902 23.951 23.951 0 0 0 0 47.902z" clip-path="url(#pff5adf1744)" style="fill:#f7814c"/><path id="patch_53" d="M186.54 377.544a22.953 22.953 0 1 0-.001-45.907 22.953 22.953 0 0 0 0 45.907z" clip-path="url(#pff5adf1744)" style="fill:#f67a49"/><path id="patch_54" d="M365.766 197.873a21.955 21.955 0 1 0-.001-43.91 21.955 21.955 0 0 0 0 43.91z" clip-path="url(#pff5adf1744)" style="fill:#f57547"/><path id="patch_55" d="M540.267 1141.906a8.982 8.982 0 1 0 0-17.964 8.982 8.982 0 0 0 0 17.964z" clip-path="url(#pff5adf1744)" style="fill:#c9314c"/><path id="patch_56" d="M1143.545 1111.342a7.984 7.984 0 1 0 0-15.968 7.984 7.984 0 0 0 0 15.968z" clip-path="url(#pff5adf1744)" style="fill:#c52c4b"/><path id="patch_57" d="M754.373 857.49a99.797 99.797 0 0 0 70.563-29.23 99.797 99.797 0 0 0 29.229-70.563 99.797 99.797 0 0 0-29.229-70.564 99.797 99.797 0 0 0-70.563-29.228 99.797 99.797 0 0 0-70.564 29.228 99.797 99.797 0 0 0-29.228 70.564 99.797 99.797 0 0 0 29.228 70.564 99.797 99.797 0 0 0 70.564 29.228z" clip-path="url(#pff5adf1744)" style="fill:#5e4fa2"/><path id="patch_58" d="M184.544 961.484a20.957 20.957 0 1 0 0-41.915 20.957 20.957 0 0 0 0 41.915z" clip-path="url(#pff5adf1744)" style="fill:#f46d43"/><path id="patch_59" d="M430.581 825.339a19.96 19.96 0 1 0 0-39.92 19.96 19.96 0 0 0 0 39.92z" clip-path="url(#pff5adf1744)" style="fill:#f26944"/><path id="patch_60" d="M754.707 657.906a18.961 18.961 0 1 0 0-37.923 18.961 18.961 0 0 0 0 37.923z" clip-path="url(#pff5adf1744)" style="fill:#ee6445"/><path id="patch_61" d="M776.516 659.986a6.986 6.986 0 1 0 0-13.971 6.986 6.986 0 0 0 0 13.971z" clip-path="url(#pff5adf1744)" style="fill:#be254a"/><path id="patch_62" d="M545.598 728.705a28.941 28.941 0 0 0 20.464-49.403 28.941 28.941 0 0 0-49.403 20.464 28.941 28.941 0 0 0 28.94 28.94z" clip-path="url(#pff5adf1744)" style="fill:#fba35c"/><path id="patch_63" d="M951.944 361.432a27.943 27.943 0 0 0 19.758-47.7 27.943 27.943 0 0 0-47.7 19.759 27.943 27.943 0 0 0 27.942 27.941z" clip-path="url(#pff5adf1744)" style="fill:#fa9b58"/><path id="patch_64" d="M976.32 569.95a26.945 26.945 0 0 0 19.052-45.997 26.945 26.945 0 0 0-45.996 19.053 26.945 26.945 0 0 0 26.944 26.943z" clip-path="url(#pff5adf1744)" style="fill:#fa9656"/><path id="patch_65" d="M376.015 840.663a17.963 17.963 0 1 0 0-35.927 17.963 17.963 0 0 0 0 35.927z" clip-path="url(#pff5adf1744)" style="fill:#ea5e47"/><path id="patch_66" d="M895.592 956.015a16.965 16.965 0 1 0 0-33.931 16.965 16.965 0 0 0 0 33.93z" clip-path="url(#pff5adf1744)" style="fill:#e85b48"/><path id="patch_67" d="M179.554 1141.906a15.967 15.967 0 1 0 0-31.935 15.967 15.967 0 0 0 0 31.935z" clip-path="url(#pff5adf1744)" style="fill:#e45549"/><path id="patch_68" d="M432.597 1141.906a5.988 5.988 0 1 0 0-11.976 5.988 5.988 0 0 0 0 11.976z" clip-path="url(#pff5adf1744)" style="fill:#b81e48"/><path id="patch_69" d="M568.218 775.72a25.947 25.947 0 0 0 0-51.893 25.947 25.947 0 0 0 0 51.892z" clip-path="url(#pff5adf1744)" style="fill:#f98e52"/><path id="patch_70" d="M1126.58 969.184a24.95 24.95 0 0 0 0-49.896 24.95 24.95 0 0 0 0 49.896z" clip-path="url(#pff5adf1744)" style="fill:#f88950"/><path id="patch_71" d="M844.252 953.51a23.951 23.951 0 1 0-.001-47.902 23.951 23.951 0 0 0 0 47.902z" clip-path="url(#pff5adf1744)" style="fill:#f7814c"/><path id="patch_72" d="M860.92 815.303a14.97 14.97 0 1 0-.002-29.94 14.97 14.97 0 0 0 .001 29.94z" clip-path="url(#pff5adf1744)" style="fill:#e2514a"/><path id="patch_73" d="M580.176 1006.556a13.972 13.972 0 1 0 0-27.943 13.972 13.972 0 0 0 0 27.943z" clip-path="url(#pff5adf1744)" style="fill:#de4c4b"/><path id="patch_74" d="M526.879 1141.906a4.99 4.99 0 1 0 0-9.98 4.99 4.99 0 0 0 0 9.98z" clip-path="url(#pff5adf1744)" style="fill:#b41947"/><path id="patch_75" d="M941.578 681.94a12.974 12.974 0 1 0 0-25.947 12.974 12.974 0 0 0 0 25.947z" clip-path="url(#pff5adf1744)" style="fill:#dc484c"/><path id="patch_76" d="M588.392 1141.906a3.992 3.992 0 1 0 0-7.984 3.992 3.992 0 0 0 0 7.984z" clip-path="url(#pff5adf1744)" style="fill:#ad1246"/><path id="patch_77" d="M928.631 1141.906a11.976 11.976 0 1 0 0-23.952 11.976 11.976 0 0 0 0 23.952z" clip-path="url(#pff5adf1744)" style="fill:#d8434e"/><path id="patch_78" d="M1140.551 722.532a10.978 10.978 0 1 0 0-21.955 10.978 10.978 0 0 0 0 21.955z" clip-path="url(#pff5adf1744)" style="fill:#d43d4f"/><path id="patch_79" d="M519.149 1141.906a2.994 2.994 0 1 0 0-5.988 2.994 2.994 0 0 0 0 5.988z" clip-path="url(#pff5adf1744)" style="fill:#a90d45"/><path id="patch_80" d="M189.534 579.659a25.947 25.947 0 0 0 0-51.892 25.947 25.947 0 0 0 0 51.892z" clip-path="url(#pff5adf1744)" style="fill:#f98e52"/><path id="patch_81" d="M868.089 493.75a24.95 24.95 0 0 0 0-49.897 24.95 24.95 0 0 0 0 49.896z" clip-path="url(#pff5adf1744)" style="fill:#f88950"/><path id="patch_82" d="M752.41 563.51a18.961 18.961 0 1 0 0-37.923 18.961 18.961 0 0 0 0 37.922z" clip-path="url(#pff5adf1744)" style="fill:#ee6445"/><path id="patch_83" d="M826.168 909.712a17.963 17.963 0 1 0 0-35.927 17.963 17.963 0 0 0 0 35.927z" clip-path="url(#pff5adf1744)" style="fill:#ea5e47"/><path id="patch_84" d="M1141.55 394.407a9.98 9.98 0 1 0-.001-19.96 9.98 9.98 0 0 0 0 19.96z" clip-path="url(#pff5adf1744)" style="fill:#d0384e"/><path id="patch_85" d="M517.547 171.927a8.982 8.982 0 1 0 0-17.963 8.982 8.982 0 0 0 0 17.963z" clip-path="url(#pff5adf1744)" style="fill:#c9314c"/><path id="patch_86" d="M165.583 1141.906a1.996 1.996 0 1 0 0-3.992 1.996 1.996 0 0 0 0 3.992z" clip-path="url(#pff5adf1744)" style="fill:#a20643"/><path id="patch_87" d="M652.732 381.487a14.97 14.97 0 1 0 0-29.939 14.97 14.97 0 0 0 0 29.94z" clip-path="url(#pff5adf1744)" style="fill:#e2514a"/><path id="patch_88" d="M171.571 1111.342a7.984 7.984 0 1 0 0-15.968 7.984 7.984 0 0 0 0 15.968z" clip-path="url(#pff5adf1744)" style="fill:#c52c4b"/><path id="patch_89" d="M600.85 735.093a26.945 26.945 0 0 0 19.052-45.996 26.945 26.945 0 0 0-45.996 19.052 26.945 26.945 0 0 0 26.943 26.944z" clip-path="url(#pff5adf1744)" style="fill:#fa9656"/><path id="patch_90" d="M945.015 526.321a25.947 25.947 0 0 0 0-51.892 25.947 25.947 0 0 0 0 51.892z" clip-path="url(#pff5adf1744)" style="fill:#f98e52"/><path id="patch_91" d="M689.657 955.578a20.957 20.957 0 1 0 0-41.914 20.957 20.957 0 0 0 0 41.914z" clip-path="url(#pff5adf1744)" style="fill:#f46d43"/><path id="patch_92" d="M700.328 915.082a19.96 19.96 0 1 0 0-39.919 19.96 19.96 0 0 0 0 39.919z" clip-path="url(#pff5adf1744)" style="fill:#f26944"/><path id="patch_93" d="M460.292 835.736a13.972 13.972 0 1 0 0-27.943 13.972 13.972 0 0 0 0 27.943z" clip-path="url(#pff5adf1744)" style="fill:#de4c4b"/><path id="patch_94" d="M607.075 760.55a12.974 12.974 0 1 0 0-25.946 12.974 12.974 0 0 0 0 25.947z" clip-path="url(#pff5adf1744)" style="fill:#dc484c"/><path id="patch_95" d="M730.443 537.728a6.986 6.986 0 1 0 0-13.972 6.986 6.986 0 0 0 0 13.972z" clip-path="url(#pff5adf1744)" style="fill:#be254a"/><path id="patch_96" d="M531.341 1141.906a.998.998 0 1 0 0-1.996.998.998 0 0 0 0 1.996z" clip-path="url(#pff5adf1744)" style="fill:#9e0142"/><path id="patch_97" d="M175.563 530.434a11.976 11.976 0 1 0 0-23.95 11.976 11.976 0 0 0 0 23.95z" clip-path="url(#pff5adf1744)" style="fill:#d8434e"/><path id="patch_98" d="M1145.54 701.328a5.988 5.988 0 1 0 0-11.976 5.988 5.988 0 0 0 0 11.976z" clip-path="url(#pff5adf1744)" style="fill:#b81e48"/><path id="patch_99" d="M733.606 185.898a15.967 15.967 0 1 0-.001-31.935 15.967 15.967 0 0 0 0 31.935z" clip-path="url(#pff5adf1744)" style="fill:#e45549"/><path id="patch_100" d="M174.565 599.726a10.978 10.978 0 1 0 0-21.955 10.978 10.978 0 0 0 0 21.955z" clip-path="url(#pff5adf1744)" style="fill:#d43d4f"/><path id="patch_101" d="M650.2 495.644a14.97 14.97 0 1 0-.001-29.94 14.97 14.97 0 0 0 0 29.94z" clip-path="url(#pff5adf1744)" style="fill:#e2514a"/><path id="patch_102" d="M173.567 726.082a9.98 9.98 0 1 0 0-19.959 9.98 9.98 0 0 0 0 19.96z" clip-path="url(#pff5adf1744)" style="fill:#d0384e"/><path id="patch_103" d="M168.577 1095.725a4.99 4.99 0 1 0 0-9.98 4.99 4.99 0 0 0 0 9.98z" clip-path="url(#pff5adf1744)" style="fill:#b41947"/><path id="patch_104" d="M1142.547 516.955a8.982 8.982 0 1 0 0-17.963 8.982 8.982 0 0 0 0 17.963z" clip-path="url(#pff5adf1744)" style="fill:#c9314c"/><path id="patch_105" d="M167.58 536.279a3.992 3.992 0 1 0 0-7.984 3.992 3.992 0 0 0 0 7.984z" clip-path="url(#pff5adf1744)" style="fill:#ad1246"/><path id="patch_106" d="M176.56 986.477a12.974 12.974 0 1 0 0-25.947 12.974 12.974 0 0 0 0 25.947z" clip-path="url(#pff5adf1744)" style="fill:#dc484c"/><path id="patch_107" d="M202.135 1141.906a7.984 7.984 0 1 0 0-15.968 7.984 7.984 0 0 0 0 15.968z" clip-path="url(#pff5adf1744)" style="fill:#c52c4b"/><path id="patch_108" d="M336.831 583.052a28.941 28.941 0 0 0 20.464-49.403 28.941 28.941 0 0 0-49.403 20.464 28.941 28.941 0 0 0 28.94 28.94z" clip-path="url(#pff5adf1744)" style="fill:#fba35c"/><path id="patch_109" d="M332.492 1141.906a11.976 11.976 0 1 0 0-23.952 11.976 11.976 0 0 0 0 23.952z" clip-path="url(#pff5adf1744)" style="fill:#d8434e"/><path id="patch_110" d="M1140.551 788.726a10.978 10.978 0 1 0 0-21.955 10.978 10.978 0 0 0 0 21.955z" clip-path="url(#pff5adf1744)" style="fill:#d43d4f"/><path id="patch_111" d="M312.393 1141.906a6.986 6.986 0 1 0 0-13.972 6.986 6.986 0 0 0 0 13.972z" clip-path="url(#pff5adf1744)" style="fill:#be254a"/><path id="patch_112" d="M1148.535 726.014a2.994 2.994 0 1 0 0-5.988 2.994 2.994 0 0 0 0 5.988z" clip-path="url(#pff5adf1744)" style="fill:#a90d45"/><path id="patch_113" d="M733.744 1141.906a9.98 9.98 0 1 0 0-19.96 9.98 9.98 0 0 0 0 19.96z" clip-path="url(#pff5adf1744)" style="fill:#d0384e"/><path id="patch_114" d="M372.142 1005.466a31.935 31.935 0 0 0 22.58-54.514 31.935 31.935 0 0 0-54.513 22.58 31.935 31.935 0 0 0 31.933 31.934z" clip-path="url(#pff5adf1744)" style="fill:#fdb567"/><path id="patch_115" d="M1138.555 585.872a12.974 12.974 0 1 0 0-25.947 12.974 12.974 0 0 0 0 25.947z" clip-path="url(#pff5adf1744)" style="fill:#dc484c"/><path id="patch_116" d="M169.575 611.782a5.988 5.988 0 1 0 0-11.976 5.988 5.988 0 0 0 0 11.976z" clip-path="url(#pff5adf1744)" style="fill:#b81e48"/><path id="patch_117" d="M727.808 887.95a15.967 15.967 0 1 0-.001-31.936 15.967 15.967 0 0 0 0 31.935z" clip-path="url(#pff5adf1744)" style="fill:#e45549"/><path id="patch_118" d="M172.569 922.07a8.982 8.982 0 1 0 0-17.963 8.982 8.982 0 0 0 0 17.964z" clip-path="url(#pff5adf1744)" style="fill:#c9314c"/><path id="patch_119" d="M165.583 157.956a1.996 1.996 0 1 0 0-3.991 1.996 1.996 0 0 0 0 3.991z" clip-path="url(#pff5adf1744)" style="fill:#a20643"/><path id="patch_120" d="M373.471 538.247a28.941 28.941 0 0 0 20.464-49.403 28.941 28.941 0 0 0-49.404 20.463 28.941 28.941 0 0 0 28.94 28.94z" clip-path="url(#pff5adf1744)" style="fill:#fba35c"/><path id="patch_121" d="M637.002 755.397a18.961 18.961 0 1 0 0-37.922 18.961 18.961 0 0 0 0 37.922z" clip-path="url(#pff5adf1744)" style="fill:#ee6445"/><path id="patch_122" d="M333.337 177.915a11.976 11.976 0 1 0 0-23.951 11.976 11.976 0 0 0 0 23.95z" clip-path="url(#pff5adf1744)" style="fill:#d8434e"/><path id="patch_123" d="M168.577 702.887a4.99 4.99 0 1 0 0-9.98 4.99 4.99 0 0 0 0 9.98z" clip-path="url(#pff5adf1744)" style="fill:#b41947"/><path id="patch_124" d="M1112.981 1141.906a7.984 7.984 0 1 0 0-15.968 7.984 7.984 0 0 0 0 15.968z" clip-path="url(#pff5adf1744)" style="fill:#c52c4b"/><path id="patch_125" d="M482.527 852.969a13.972 13.972 0 1 0 0-27.943 13.972 13.972 0 0 0 0 27.943z" clip-path="url(#pff5adf1744)" style="fill:#de4c4b"/><path id="patch_126" d="M174.565 793.647a10.978 10.978 0 1 0 0-21.956 10.978 10.978 0 0 0 0 21.956z" clip-path="url(#pff5adf1744)" style="fill:#d43d4f"/><path id="patch_127" d="M991.89 370.973a16.965 16.965 0 1 0-.001-33.93 16.965 16.965 0 0 0 0 33.93z" clip-path="url(#pff5adf1744)" style="fill:#e85b48"/><path id="patch_128" d="M173.567 396.846a9.98 9.98 0 1 0 0-19.96 9.98 9.98 0 0 0 0 19.96z" clip-path="url(#pff5adf1744)" style="fill:#d0384e"/><path id="patch_129" d="M1144.543 598.923a6.986 6.986 0 1 0 0-13.971 6.986 6.986 0 0 0 0 13.971z" clip-path="url(#pff5adf1744)" style="fill:#be254a"/><path id="patch_130" d="M1147.537 523.94a3.992 3.992 0 1 0 0-7.983 3.992 3.992 0 0 0 0 7.984z" clip-path="url(#pff5adf1744)" style="fill:#ad1246"/><path id="patch_131" d="M1150.53 705.933a.998.998 0 1 0 0-1.996.998.998 0 0 0 0 1.996z" clip-path="url(#pff5adf1744)" style="fill:#9e0142"/><path id="patch_132" d="M172.569 202.165a8.982 8.982 0 1 0 0-17.963 8.982 8.982 0 0 0 0 17.963z" clip-path="url(#pff5adf1744)" style="fill:#c9314c"/><path id="patch_133" d="M169.575 507.512a5.988 5.988 0 1 0 0-11.976 5.988 5.988 0 0 0 0 11.976z" clip-path="url(#pff5adf1744)" style="fill:#b81e48"/><path id="patch_134" d="M1140.551 921.616a10.978 10.978 0 1 0 0-21.956 10.978 10.978 0 0 0 0 21.956z" clip-path="url(#pff5adf1744)" style="fill:#d43d4f"/><path id="patch_135" d="M166.581 622.89a2.994 2.994 0 1 0 0-5.987 2.994 2.994 0 0 0 0 5.987z" clip-path="url(#pff5adf1744)" style="fill:#a90d45"/><path id="patch_136" d="M791.426 169.932a7.984 7.984 0 1 0 0-15.968 7.984 7.984 0 0 0 0 15.968z" clip-path="url(#pff5adf1744)" style="fill:#c52c4b"/><path id="patch_137" d="M349.905 946.828a17.963 17.963 0 1 0 0-35.927 17.963 17.963 0 0 0 0 35.927z" clip-path="url(#pff5adf1744)" style="fill:#ea5e47"/><path id="patch_138" d="M853.15 715.07a12.974 12.974 0 1 0 0-25.948 12.974 12.974 0 0 0 0 25.947z" clip-path="url(#pff5adf1744)" style="fill:#dc484c"/><path id="patch_139" d="M429.34 513.287a34.929 34.929 0 0 0 24.697-59.624 34.929 34.929 0 0 0-59.625 24.697 34.929 34.929 0 0 0 34.927 34.927z" clip-path="url(#pff5adf1744)" style="fill:#fdc372"/><path id="patch_140" d="M752.72 326.026a14.97 14.97 0 1 0 0-29.939 14.97 14.97 0 0 0 0 29.939z" clip-path="url(#pff5adf1744)" style="fill:#e2514a"/><path id="patch_141" d="M395.369 173.923a9.98 9.98 0 1 0 0-19.96 9.98 9.98 0 0 0 0 19.96z" clip-path="url(#pff5adf1744)" style="fill:#d0384e"/><path id="patch_142" d="M168.577 405.97a4.99 4.99 0 1 0 0-9.98 4.99 4.99 0 0 0 0 9.98z" clip-path="url(#pff5adf1744)" style="fill:#b41947"/><path id="patch_143" d="M315.045 167.936a6.986 6.986 0 1 0 0-13.972 6.986 6.986 0 0 0 0 13.972z" clip-path="url(#pff5adf1744)" style="fill:#be254a"/><path id="patch_144" d="M1149.533 1141.906a1.996 1.996 0 1 0 0-3.992 1.996 1.996 0 0 0 0 3.992z" clip-path="url(#pff5adf1744)" style="fill:#a20643"/><path id="patch_145" d="M201.746 171.927a8.982 8.982 0 1 0 0-17.963 8.982 8.982 0 0 0 0 17.963z" clip-path="url(#pff5adf1744)" style="fill:#c9314c"/><path id="patch_146" d="M985.542 175.919a10.978 10.978 0 1 0 0-21.955 10.978 10.978 0 0 0 0 21.955z" clip-path="url(#pff5adf1744)" style="fill:#d43d4f"/><path id="patch_147" d="M167.58 378.236a3.992 3.992 0 1 0 0-7.984 3.992 3.992 0 0 0 0 7.984z" clip-path="url(#pff5adf1744)" style="fill:#ad1246"/><path id="patch_148" d="M711.025 169.932a7.984 7.984 0 1 0 0-15.968 7.984 7.984 0 0 0 0 15.968z" clip-path="url(#pff5adf1744)" style="fill:#c52c4b"/><path id="patch_149" d="M1145.54 405.875a5.988 5.988 0 1 0 0-11.976 5.988 5.988 0 0 0 0 11.976z" clip-path="url(#pff5adf1744)" style="fill:#b81e48"/><path id="patch_150" d="M311.223 762.08a11.976 11.976 0 1 0 0-23.95 11.976 11.976 0 0 0 0 23.95z" clip-path="url(#pff5adf1744)" style="fill:#d8434e"/><path id="patch_151" d="M799.641 1141.906a9.98 9.98 0 1 0 0-19.96 9.98 9.98 0 0 0 0 19.96z" clip-path="url(#pff5adf1744)" style="fill:#d0384e"/><path id="patch_152" d="M799.546 885.59a17.963 17.963 0 1 0 0-35.927 17.963 17.963 0 0 0 0 35.927z" clip-path="url(#pff5adf1744)" style="fill:#ea5e47"/><path id="patch_153" d="M966.458 390.898a15.967 15.967 0 1 0 0-31.935 15.967 15.967 0 0 0 0 31.935z" clip-path="url(#pff5adf1744)" style="fill:#e45549"/><path id="patch_154" d="M371.404 1080.037a13.972 13.972 0 1 0 0-27.944 13.972 13.972 0 0 0 0 27.944z" clip-path="url(#pff5adf1744)" style="fill:#de4c4b"/><path id="patch_155" d="M1140.551 989.557a10.978 10.978 0 1 0 0-21.955 10.978 10.978 0 0 0 0 21.955z" clip-path="url(#pff5adf1744)" style="fill:#d43d4f"/><path id="patch_156" d="M549.11 787.991a8.982 8.982 0 1 0 0-17.963 8.982 8.982 0 0 0 0 17.963z" clip-path="url(#pff5adf1744)" style="fill:#c9314c"/><path id="patch_157" d="M170.573 1000.086a6.986 6.986 0 1 0 0-13.972 6.986 6.986 0 0 0 0 13.972z" clip-path="url(#pff5adf1744)" style="fill:#be254a"/><path id="patch_158" d="M1146.539 499.575a4.99 4.99 0 1 0 0-9.98 4.99 4.99 0 0 0 0 9.98z" clip-path="url(#pff5adf1744)" style="fill:#b41947"/><path id="patch_159" d="M166.581 690.983a2.994 2.994 0 1 0 0-5.987 2.994 2.994 0 0 0 0 5.987z" clip-path="url(#pff5adf1744)" style="fill:#a90d45"/><path id="patch_160" d="M164.586 394.176a.998.998 0 1 0 0-1.996.998.998 0 0 0 0 1.996z" clip-path="url(#pff5adf1744)" style="fill:#9e0142"/><path id="patch_161" d="M370.746 1035.383a14.97 14.97 0 1 0 0-29.94 14.97 14.97 0 0 0 0 29.94z" clip-path="url(#pff5adf1744)" style="fill:#e2514a"/><path id="patch_162" d="M599.82 785.462a12.974 12.974 0 1 0 0-25.947 12.974 12.974 0 0 0 0 25.947z" clip-path="url(#pff5adf1744)" style="fill:#dc484c"/><path id="patch_163" d="M491.233 946.792a11.976 11.976 0 1 0 0-23.951 11.976 11.976 0 0 0 0 23.95z" clip-path="url(#pff5adf1744)" style="fill:#d8434e"/><path id="patch_164" d="M771.605 877.413a9.98 9.98 0 1 0 0-19.96 9.98 9.98 0 0 0 0 19.96z" clip-path="url(#pff5adf1744)" style="fill:#d0384e"/><path id="patch_165" d="M1108.187 169.932a7.984 7.984 0 1 0 0-15.968 7.984 7.984 0 0 0 0 15.968z" clip-path="url(#pff5adf1744)" style="fill:#c52c4b"/><path id="patch_166" d="M620.41 1141.906a5.988 5.988 0 1 0 0-11.976 5.988 5.988 0 0 0 0 11.976z" clip-path="url(#pff5adf1744)" style="fill:#b81e48"/><path id="patch_167" d="M554.544 323.728a14.97 14.97 0 1 0 0-29.939 14.97 14.97 0 0 0 0 29.94z" clip-path="url(#pff5adf1744)" style="fill:#e2514a"/><path id="patch_168" d="M999.225 757.625a12.974 12.974 0 1 0 0-25.947 12.974 12.974 0 0 0 0 25.947z" clip-path="url(#pff5adf1744)" style="fill:#dc484c"/><path id="patch_169" d="M1147.537 562.498a3.992 3.992 0 1 0 0-7.983 3.992 3.992 0 0 0 0 7.983z" clip-path="url(#pff5adf1744)" style="fill:#ad1246"/><path id="patch_170" d="M1149.533 157.956a1.996 1.996 0 1 0 0-3.991 1.996 1.996 0 0 0 0 3.991z" clip-path="url(#pff5adf1744)" style="fill:#a20643"/><path id="patch_171" d="M698.525 875.21a15.967 15.967 0 1 0 0-31.934 15.967 15.967 0 0 0 0 31.934z" clip-path="url(#pff5adf1744)" style="fill:#e45549"/><path id="patch_172" d="M402.003 818.921a8.982 8.982 0 1 0 0-17.963 8.982 8.982 0 0 0 0 17.963z" clip-path="url(#pff5adf1744)" style="fill:#c9314c"/><path id="patch_173" d="M773.951 537.07a6.986 6.986 0 1 0 0-13.971 6.986 6.986 0 0 0 0 13.972z" clip-path="url(#pff5adf1744)" style="fill:#be254a"/><path id="patch_174" d="M321.415 966.065a16.965 16.965 0 1 0 0-33.931 16.965 16.965 0 0 0 0 33.93z" clip-path="url(#pff5adf1744)" style="fill:#e85b48"/><path id="patch_175" d="M365.292 694.664a11.976 11.976 0 1 0 0-23.95 11.976 11.976 0 0 0 0 23.95z" clip-path="url(#pff5adf1744)" style="fill:#d8434e"/><path id="patch_176" d="M215.134 163.944a4.99 4.99 0 1 0 0-9.98 4.99 4.99 0 0 0 0 9.98z" clip-path="url(#pff5adf1744)" style="fill:#b41947"/><path id="patch_177" d="M578.042 1100.962a9.98 9.98 0 1 0 0-19.96 9.98 9.98 0 0 0 0 19.96z" clip-path="url(#pff5adf1744)" style="fill:#d0384e"/><path id="patch_178" d="M1143.545 205.29a7.984 7.984 0 1 0 0-15.968 7.984 7.984 0 0 0 0 15.967z" clip-path="url(#pff5adf1744)" style="fill:#c52c4b"/><path id="patch_179" d="M918.347 175.919a10.978 10.978 0 1 0 0-21.955 10.978 10.978 0 0 0 0 21.955z" clip-path="url(#pff5adf1744)" style="fill:#d43d4f"/><path id="patch_180" d="M1148.535 489.85a2.994 2.994 0 1 0 0-5.989 2.994 2.994 0 0 0 0 5.988z" clip-path="url(#pff5adf1744)" style="fill:#a90d45"/><path id="patch_181" d="M911.696 1141.906a5.988 5.988 0 1 0 0-11.976 5.988 5.988 0 0 0 0 11.976z" clip-path="url(#pff5adf1744)" style="fill:#b81e48"/><path id="patch_182" d="M752.626 878.422a8.982 8.982 0 1 0 0-17.964 8.982 8.982 0 0 0 0 17.964z" clip-path="url(#pff5adf1744)" style="fill:#c9314c"/><path id="patch_183" d="M167.58 579.502a3.992 3.992 0 1 0 0-7.984 3.992 3.992 0 0 0 0 7.984z" clip-path="url(#pff5adf1744)" style="fill:#ad1246"/><path id="patch_184" d="M164.586 381.553a.998.998 0 1 0 0-1.996.998.998 0 0 0 0 1.996z" clip-path="url(#pff5adf1744)" style="fill:#9e0142"/><path id="patch_185" d="M439.243 730.36a9.98 9.98 0 1 0 0-19.959 9.98 9.98 0 0 0 0 19.96z" clip-path="url(#pff5adf1744)" style="fill:#d0384e"/><path id="patch_186" d="M332.405 977.365a6.986 6.986 0 1 0 0-13.972 6.986 6.986 0 0 0 0 13.972z" clip-path="url(#pff5adf1744)" style="fill:#be254a"/><path id="patch_187" d="M548.86 555.17a16.965 16.965 0 1 0 0-33.93 16.965 16.965 0 0 0 0 33.93z" clip-path="url(#pff5adf1744)" style="fill:#e85b48"/><path id="patch_188" d="M174.565 333.823a10.978 10.978 0 1 0 0-21.955 10.978 10.978 0 0 0 0 21.955z" clip-path="url(#pff5adf1744)" style="fill:#d43d4f"/><path id="patch_189" d="M597.319 169.932a7.984 7.984 0 1 0 0-15.968 7.984 7.984 0 0 0 0 15.968z" clip-path="url(#pff5adf1744)" style="fill:#c52c4b"/><path id="patch_190" d="M214.757 1141.906a4.99 4.99 0 1 0 0-9.98 4.99 4.99 0 0 0 0 9.98z" clip-path="url(#pff5adf1744)" style="fill:#b41947"/><path id="patch_191" d="M165.583 683.738a1.996 1.996 0 1 0 0-3.992 1.996 1.996 0 0 0 0 3.992z" clip-path="url(#pff5adf1744)" style="fill:#a20643"/><path id="patch_192" d="M956.982 1098.267a8.982 8.982 0 1 0 0-17.963 8.982 8.982 0 0 0 0 17.963z" clip-path="url(#pff5adf1744)" style="fill:#c9314c"/><path id="patch_193" d="M902.133 165.94a5.988 5.988 0 1 0 0-11.976 5.988 5.988 0 0 0 0 11.976z" clip-path="url(#pff5adf1744)" style="fill:#b81e48"/><path id="patch_194" d="M225.452 563.021a9.98 9.98 0 1 0 0-19.96 9.98 9.98 0 0 0 0 19.96z" clip-path="url(#pff5adf1744)" style="fill:#d0384e"/><path id="patch_195" d="M170.573 312.318a6.986 6.986 0 1 0 0-13.972 6.986 6.986 0 0 0 0 13.972z" clip-path="url(#pff5adf1744)" style="fill:#be254a"/><path id="patch_196" d="M550.638 1141.906a2.994 2.994 0 1 0 0-5.988 2.994 2.994 0 0 0 0 5.988z" clip-path="url(#pff5adf1744)" style="fill:#a90d45"/><path id="patch_197" d="M221.063 759.05a7.984 7.984 0 1 0 0-15.968 7.984 7.984 0 0 0 0 15.968z" clip-path="url(#pff5adf1744)" style="fill:#c52c4b"/><path id="patch_198" d="M608.609 161.948a3.992 3.992 0 1 0 0-7.984 3.992 3.992 0 0 0 0 7.984z" clip-path="url(#pff5adf1744)" style="fill:#ad1246"/><path id="patch_199" d="M218.913 360.36a8.982 8.982 0 1 0 0-17.963 8.982 8.982 0 0 0 0 17.963z" clip-path="url(#pff5adf1744)" style="fill:#c9314c"/><path id="patch_200" d="M429.343 400.117a27.943 27.943 0 0 0 19.758-47.7 27.943 27.943 0 0 0-47.7 19.758 27.943 27.943 0 0 0 27.942 27.942z" clip-path="url(#pff5adf1744)" style="fill:#fa9b58"/><path id="patch_201" d="M1146.539 1095.725a4.99 4.99 0 1 0 0-9.98 4.99 4.99 0 0 0 0 9.98z" clip-path="url(#pff5adf1744)" style="fill:#b41947"/><path id="patch_202" d="M642.438 717.915a14.97 14.97 0 1 0 0-29.94 14.97 14.97 0 0 0 0 29.94z" clip-path="url(#pff5adf1744)" style="fill:#e2514a"/><path id="patch_203" d="M464.249 367.335a9.98 9.98 0 1 0 0-19.96 9.98 9.98 0 0 0 0 19.96z" clip-path="url(#pff5adf1744)" style="fill:#d0384e"/><path id="patch_204" d="M624.742 774.726a10.978 10.978 0 1 0 0-21.955 10.978 10.978 0 0 0 0 21.955z" clip-path="url(#pff5adf1744)" style="fill:#d43d4f"/><path id="patch_205" d="M1145.54 899.32a5.988 5.988 0 1 0 0-11.976 5.988 5.988 0 0 0 0 11.975z" clip-path="url(#pff5adf1744)" style="fill:#b81e48"/><path id="patch_206" d="M1150.53 500.046a.998.998 0 1 0 0-1.996.998.998 0 0 0 0 1.996z" clip-path="url(#pff5adf1744)" style="fill:#9e0142"/><path id="patch_207" d="M378.114 480.593a18.961 18.961 0 1 0-.001-37.923 18.961 18.961 0 0 0 0 37.923z" clip-path="url(#pff5adf1744)" style="fill:#ee6445"/><path id="patch_208" d="M507.71 709.349a6.986 6.986 0 1 0 0-13.972 6.986 6.986 0 0 0 0 13.972z" clip-path="url(#pff5adf1744)" style="fill:#be254a"/><path id="patch_209" d="M375.215 1052.428a7.984 7.984 0 1 0 0-15.968 7.984 7.984 0 0 0 0 15.968z" clip-path="url(#pff5adf1744)" style="fill:#c52c4b"/><path id="patch_210" d="M165.583 628.14a1.996 1.996 0 1 0 0-3.992 1.996 1.996 0 0 0 0 3.992z" clip-path="url(#pff5adf1744)" style="fill:#a20643"/><path id="patch_211" d="M361.842 215.586a8.982 8.982 0 1 0 0-17.963 8.982 8.982 0 0 0 0 17.963z" clip-path="url(#pff5adf1744)" style="fill:#c9314c"/><path id="patch_212" d="M1148.535 887.858a2.994 2.994 0 1 0 0-5.988 2.994 2.994 0 0 0 0 5.988z" clip-path="url(#pff5adf1744)" style="fill:#a90d45"/><path id="patch_213" d="M767.552 1008.812a10.978 10.978 0 1 0 0-21.955 10.978 10.978 0 0 0 0 21.955z" clip-path="url(#pff5adf1744)" style="fill:#d43d4f"/><path id="patch_214" d="M524.123 537.506a9.98 9.98 0 1 0 0-19.96 9.98 9.98 0 0 0 0 19.96z" clip-path="url(#pff5adf1744)" style="fill:#d0384e"/><path id="patch_215" d="M304.484 161.948a3.992 3.992 0 1 0 0-7.984 3.992 3.992 0 0 0 0 7.984z" clip-path="url(#pff5adf1744)" style="fill:#ad1246"/><path id="patch_216" d="M168.577 211.562a4.99 4.99 0 1 0 0-9.98 4.99 4.99 0 0 0 0 9.98z" clip-path="url(#pff5adf1744)" style="fill:#b41947"/><path id="patch_217" d="M557.254 672.401a14.97 14.97 0 1 0 0-29.939 14.97 14.97 0 0 0 0 29.939z" clip-path="url(#pff5adf1744)" style="fill:#e2514a"/><path id="patch_218" d="M1015.837 361.304a6.986 6.986 0 1 0 0-13.971 6.986 6.986 0 0 0 0 13.971z" clip-path="url(#pff5adf1744)" style="fill:#be254a"/><path id="patch_219" d="M1145.54 801.544a5.988 5.988 0 1 0 0-11.976 5.988 5.988 0 0 0 0 11.976z" clip-path="url(#pff5adf1744)" style="fill:#b81e48"/><path id="patch_220" d="M966.466 586.93a7.984 7.984 0 1 0 0-15.967 7.984 7.984 0 0 0 0 15.967z" clip-path="url(#pff5adf1744)" style="fill:#c52c4b"/><path id="patch_221" d="M360.525 309.638a9.98 9.98 0 1 0 0-19.96 9.98 9.98 0 0 0 0 19.96z" clip-path="url(#pff5adf1744)" style="fill:#d0384e"/><path id="patch_222" d="M644.695 772.28a8.982 8.982 0 1 0 0-17.963 8.982 8.982 0 0 0 0 17.963z" clip-path="url(#pff5adf1744)" style="fill:#c9314c"/><path id="patch_223" d="M1148.535 373.437a2.994 2.994 0 1 0 0-5.988 2.994 2.994 0 0 0 0 5.988z" clip-path="url(#pff5adf1744)" style="fill:#a90d45"/><path id="patch_224" d="M1149.533 902.241a1.996 1.996 0 1 0 0-3.991 1.996 1.996 0 0 0 0 3.991z" clip-path="url(#pff5adf1744)" style="fill:#a20643"/><path id="patch_225" d="M1150.53 719.172a.998.998 0 1 0 0-1.996.998.998 0 0 0 0 1.996z" clip-path="url(#pff5adf1744)" style="fill:#9e0142"/><path id="patch_226" d="M840.19 494.281a7.984 7.984 0 1 0 0-15.967 7.984 7.984 0 0 0 0 15.967z" clip-path="url(#pff5adf1744)" style="fill:#c52c4b"/><path id="patch_227" d="M870.61 952.74a6.986 6.986 0 1 0-.001-13.97 6.986 6.986 0 0 0 0 13.97z" clip-path="url(#pff5adf1744)" style="fill:#be254a"/><path id="patch_228" d="M1145.54 310.853a5.988 5.988 0 1 0 0-11.976 5.988 5.988 0 0 0 0 11.976z" clip-path="url(#pff5adf1744)" style="fill:#b81e48"/><path id="patch_229" d="M813.754 1141.906a4.99 4.99 0 1 0 0-9.98 4.99 4.99 0 0 0 0 9.98z" clip-path="url(#pff5adf1744)" style="fill:#b41947"/><path id="patch_230" d="M1096.897 161.948a3.992 3.992 0 1 0 0-7.984 3.992 3.992 0 0 0 0 7.984z" clip-path="url(#pff5adf1744)" style="fill:#ad1246"/><path id="patch_231" d="M1001.756 165.94a5.988 5.988 0 1 0 0-11.976 5.988 5.988 0 0 0 0 11.976z" clip-path="url(#pff5adf1744)" style="fill:#b81e48"/><path id="patch_232" d="M395.835 1141.906a4.99 4.99 0 1 0 0-9.98 4.99 4.99 0 0 0 0 9.98z" clip-path="url(#pff5adf1744)" style="fill:#b41947"/><path id="patch_233" d="M1147.537 299.08a3.992 3.992 0 1 0 0-7.984 3.992 3.992 0 0 0 0 7.983z" clip-path="url(#pff5adf1744)" style="fill:#ad1246"/><path id="patch_234" d="M1148.535 339.567a2.994 2.994 0 1 0 0-5.988 2.994 2.994 0 0 0 0 5.988z" clip-path="url(#pff5adf1744)" style="fill:#a90d45"/><path id="patch_235" d="M214.728 957.284a9.98 9.98 0 1 0 0-19.96 9.98 9.98 0 0 0 0 19.96z" clip-path="url(#pff5adf1744)" style="fill:#d0384e"/><path id="patch_236" d="M165.583 1113.338a1.996 1.996 0 1 0 0-3.992 1.996 1.996 0 0 0 0 3.992z" clip-path="url(#pff5adf1744)" style="fill:#a20643"/><path id="patch_237" d="M955.303 903.747a8.982 8.982 0 1 0 0-17.963 8.982 8.982 0 0 0 0 17.963z" clip-path="url(#pff5adf1744)" style="fill:#c9314c"/><path id="patch_238" d="M1095.645 361.491a7.984 7.984 0 1 0 0-15.967 7.984 7.984 0 0 0 0 15.967z" clip-path="url(#pff5adf1744)" style="fill:#c52c4b"/><path id="patch_239" d="M164.586 379.558a.998.998 0 1 0 0-1.996.998.998 0 0 0 0 1.996z" clip-path="url(#pff5adf1744)" style="fill:#9e0142"/><path id="patch_240" d="M857.067 445.815a6.986 6.986 0 1 0 0-13.971 6.986 6.986 0 0 0 0 13.971z" clip-path="url(#pff5adf1744)" style="fill:#be254a"/><path id="patch_241" d="M169.575 806.87a5.988 5.988 0 1 0 0-11.976 5.988 5.988 0 0 0 0 11.976z" clip-path="url(#pff5adf1744)" style="fill:#b81e48"/><path id="patch_242" d="M828.093 873.85a10.978 10.978 0 1 0 0-21.955 10.978 10.978 0 0 0 0 21.956z" clip-path="url(#pff5adf1744)" style="fill:#d43d4f"/><path id="patch_243" d="M715.821 1141.906a4.99 4.99 0 1 0 0-9.98 4.99 4.99 0 0 0 0 9.98z" clip-path="url(#pff5adf1744)" style="fill:#b41947"/><path id="patch_244" d="M931.586 161.948a3.992 3.992 0 1 0 0-7.984 3.992 3.992 0 0 0 0 7.984z" clip-path="url(#pff5adf1744)" style="fill:#ad1246"/><path id="patch_245" d="M402.444 449.476a27.943 27.943 0 0 0 19.758-47.7 27.943 27.943 0 0 0-47.7 19.758 27.943 27.943 0 0 0 27.942 27.942z" clip-path="url(#pff5adf1744)" style="fill:#fa9b58"/><path id="patch_246" d="M343.695 598.375a7.984 7.984 0 1 0 0-15.967 7.984 7.984 0 0 0 0 15.967z" clip-path="url(#pff5adf1744)" style="fill:#c52c4b"/><path id="patch_247" d="M909.986 484.613a16.965 16.965 0 1 0-.001-33.93 16.965 16.965 0 0 0 0 33.93z" clip-path="url(#pff5adf1744)" style="fill:#e85b48"/><path id="patch_248" d="M470.499 512.823a11.976 11.976 0 1 0 0-23.951 11.976 11.976 0 0 0 0 23.951z" clip-path="url(#pff5adf1744)" style="fill:#d8434e"/><path id="patch_249" d="M1148.535 1086a2.994 2.994 0 1 0 0-5.988 2.994 2.994 0 0 0 0 5.988z" clip-path="url(#pff5adf1744)" style="fill:#a90d45"/><path id="patch_250" d="M397.271 392.99a6.986 6.986 0 1 0 0-13.97 6.986 6.986 0 0 0 0 13.97z" clip-path="url(#pff5adf1744)" style="fill:#be254a"/><path id="patch_251" d="M1099.051 555.788a9.98 9.98 0 1 0 0-19.959 9.98 9.98 0 0 0 0 19.96z" clip-path="url(#pff5adf1744)" style="fill:#d0384e"/><path id="patch_252" d="M169.575 904.156a5.988 5.988 0 1 0 0-11.976 5.988 5.988 0 0 0 0 11.976z" clip-path="url(#pff5adf1744)" style="fill:#b81e48"/><path id="patch_253" d="M555.527 1141.906a1.996 1.996 0 1 0 0-3.992 1.996 1.996 0 0 0 0 3.992z" clip-path="url(#pff5adf1744)" style="fill:#a20643"/><path id="patch_254" d="M368.258 444.468a8.982 8.982 0 1 0 0-17.964 8.982 8.982 0 0 0 0 17.964z" clip-path="url(#pff5adf1744)" style="fill:#c9314c"/><path id="patch_255" d="M409.481 163.944a4.99 4.99 0 1 0 0-9.98 4.99 4.99 0 0 0 0 9.98z" clip-path="url(#pff5adf1744)" style="fill:#b41947"/><path id="patch_256" d="M939.134 469.575a14.97 14.97 0 1 0 0-29.939 14.97 14.97 0 0 0 0 29.94z" clip-path="url(#pff5adf1744)" style="fill:#e2514a"/><path id="patch_257" d="M488.438 517.58a7.984 7.984 0 1 0 0-15.968 7.984 7.984 0 0 0 0 15.967z" clip-path="url(#pff5adf1744)" style="fill:#c52c4b"/><path id="patch_258" d="M164.586 674.598a.998.998 0 1 0 0-1.996.998.998 0 0 0 0 1.996z" clip-path="url(#pff5adf1744)" style="fill:#9e0142"/><path id="patch_259" d="M418.407 161.948a3.992 3.992 0 1 0 0-7.984 3.992 3.992 0 0 0 0 7.984z" clip-path="url(#pff5adf1744)" style="fill:#ad1246"/><path id="patch_260" d="M753.331 212.413a12.974 12.974 0 1 0 0-25.947 12.974 12.974 0 0 0 0 25.947z" clip-path="url(#pff5adf1744)" style="fill:#dc484c"/><path id="patch_261" d="M364.814 426.82a9.98 9.98 0 1 0 0-19.959 9.98 9.98 0 0 0 0 19.96z" clip-path="url(#pff5adf1744)" style="fill:#d0384e"/><path id="patch_262" d="M353.184 911.12a6.986 6.986 0 1 0 0-13.972 6.986 6.986 0 0 0 0 13.971z" clip-path="url(#pff5adf1744)" style="fill:#be254a"/><path id="patch_263" d="M1145.54 1001.7a5.988 5.988 0 1 0 0-11.975 5.988 5.988 0 0 0 0 11.975z" clip-path="url(#pff5adf1744)" style="fill:#b81e48"/><path id="patch_264" d="M446.772 1141.906a2.994 2.994 0 1 0 0-5.988 2.994 2.994 0 0 0 0 5.988z" clip-path="url(#pff5adf1744)" style="fill:#a90d45"/><path id="patch_265" d="M1100.359 1141.906a4.99 4.99 0 1 0 0-9.98 4.99 4.99 0 0 0 0 9.98z" clip-path="url(#pff5adf1744)" style="fill:#b41947"/><path id="patch_266" d="M942.647 826.859a9.98 9.98 0 1 0 0-19.96 9.98 9.98 0 0 0 0 19.96z" clip-path="url(#pff5adf1744)" style="fill:#d0384e"/><path id="patch_267" d="M661.674 954.885a6.986 6.986 0 1 0 0-13.971 6.986 6.986 0 0 0 0 13.971z" clip-path="url(#pff5adf1744)" style="fill:#be254a"/><path id="patch_268" d="M1149.533 729.905a1.996 1.996 0 1 0 0-3.992 1.996 1.996 0 0 0 0 3.992z" clip-path="url(#pff5adf1744)" style="fill:#a20643"/><path id="patch_269" d="M787.018 1141.906a3.992 3.992 0 1 0 0-7.984 3.992 3.992 0 0 0 0 7.984z" clip-path="url(#pff5adf1744)" style="fill:#ad1246"/><path id="patch_270" d="M753.262 585.452a10.978 10.978 0 1 0 0-21.956 10.978 10.978 0 0 0 0 21.956z" clip-path="url(#pff5adf1744)" style="fill:#d43d4f"/><path id="patch_271" d="M709.208 961.272a5.988 5.988 0 1 0 0-11.975 5.988 5.988 0 0 0 0 11.975z" clip-path="url(#pff5adf1744)" style="fill:#b81e48"/><path id="patch_272" d="M373.05 408.862a7.984 7.984 0 1 0 0-15.968 7.984 7.984 0 0 0 0 15.968z" clip-path="url(#pff5adf1744)" style="fill:#c52c4b"/><path id="patch_273" d="M753.666 605.406a9.98 9.98 0 1 0 0-19.96 9.98 9.98 0 0 0 0 19.96z" clip-path="url(#pff5adf1744)" style="fill:#d0384e"/><path id="patch_274" d="M164.586 635.284a.998.998 0 1 0 0-1.996.998.998 0 0 0 0 1.996z" clip-path="url(#pff5adf1744)" style="fill:#9e0142"/><path id="patch_275" d="M698.402 163.944a4.99 4.99 0 1 0 0-9.98 4.99 4.99 0 0 0 0 9.98z" clip-path="url(#pff5adf1744)" style="fill:#b41947"/><path id="patch_276" d="M166.581 1086a2.994 2.994 0 1 0 0-5.988 2.994 2.994 0 0 0 0 5.988z" clip-path="url(#pff5adf1744)" style="fill:#a90d45"/><path id="patch_277" d="M951.63 443.156a8.982 8.982 0 1 0 0-17.963 8.982 8.982 0 0 0 0 17.963z" clip-path="url(#pff5adf1744)" style="fill:#c9314c"/><path id="patch_278" d="M748.833 618.674a6.986 6.986 0 1 0 0-13.972 6.986 6.986 0 0 0 0 13.972z" clip-path="url(#pff5adf1744)" style="fill:#be254a"/><path id="patch_279" d="M822.15 960.155a5.988 5.988 0 1 0 0-11.975 5.988 5.988 0 0 0 0 11.975z" clip-path="url(#pff5adf1744)" style="fill:#b81e48"/><path id="patch_280" d="M901.919 1141.906a3.992 3.992 0 1 0 0-7.984 3.992 3.992 0 0 0 0 7.984z" clip-path="url(#pff5adf1744)" style="fill:#ad1246"/><path id="patch_281" d="M165.583 510.678a1.996 1.996 0 1 0 0-3.992 1.996 1.996 0 0 0 0 3.992z" clip-path="url(#pff5adf1744)" style="fill:#a20643"/><path id="patch_282" d="M309.727 362.772a10.978 10.978 0 1 0 0-21.955 10.978 10.978 0 0 0 0 21.955z" clip-path="url(#pff5adf1744)" style="fill:#d43d4f"/><path id="patch_283" d="M917.352 345.302a6.986 6.986 0 1 0 0-13.971 6.986 6.986 0 0 0 0 13.971z" clip-path="url(#pff5adf1744)" style="fill:#be254a"/><path id="patch_284" d="M501.918 163.944a4.99 4.99 0 1 0 0-9.98 4.99 4.99 0 0 0 0 9.98z" clip-path="url(#pff5adf1744)" style="fill:#b41947"/><path id="patch_285" d="M909.472 505.132a9.98 9.98 0 1 0 0-19.96 9.98 9.98 0 0 0 0 19.96z" clip-path="url(#pff5adf1744)" style="fill:#d0384e"/><path id="patch_286" d="M1093.653 752.134a7.984 7.984 0 1 0 0-15.968 7.984 7.984 0 0 0 0 15.968z" clip-path="url(#pff5adf1744)" style="fill:#c52c4b"/><path id="patch_287" d="M690.673 159.952a2.994 2.994 0 1 0 0-5.987 2.994 2.994 0 0 0 0 5.987z" clip-path="url(#pff5adf1744)" style="fill:#a90d45"/><path id="patch_288" d="M408.162 519.355a5.988 5.988 0 1 0 0-11.976 5.988 5.988 0 0 0 0 11.976z" clip-path="url(#pff5adf1744)" style="fill:#b81e48"/><path id="patch_289" d="M702.865 155.96a.998.998 0 1 0 0-1.995.998.998 0 0 0 0 1.996z" clip-path="url(#pff5adf1744)" style="fill:#9e0142"/><path id="patch_290" d="M1147.537 413.656a3.992 3.992 0 1 0 0-7.983 3.992 3.992 0 0 0 0 7.983z" clip-path="url(#pff5adf1744)" style="fill:#ad1246"/><path id="patch_291" d="M892.867 498.663a6.986 6.986 0 1 0 0-13.971 6.986 6.986 0 0 0 0 13.971z" clip-path="url(#pff5adf1744)" style="fill:#be254a"/><path id="patch_292" d="M845.04 829.556a9.98 9.98 0 1 0 0-19.96 9.98 9.98 0 0 0 0 19.96z" clip-path="url(#pff5adf1744)" style="fill:#d0384e"/><path id="patch_293" d="M816.429 855.909a7.984 7.984 0 1 0 0-15.968 7.984 7.984 0 0 0 0 15.968z" clip-path="url(#pff5adf1744)" style="fill:#c52c4b"/><path id="patch_294" d="M1009.552 1141.906a4.99 4.99 0 1 0 0-9.98 4.99 4.99 0 0 0 0 9.98z" clip-path="url(#pff5adf1744)" style="fill:#b41947"/><path id="patch_295" d="M781.373 1141.906a1.996 1.996 0 1 0 0-3.992 1.996 1.996 0 0 0 0 3.992z" clip-path="url(#pff5adf1744)" style="fill:#a20643"/><path id="patch_296" d="M770.67 327.86a5.988 5.988 0 1 0 0-11.976 5.988 5.988 0 0 0 0 11.975z" clip-path="url(#pff5adf1744)" style="fill:#b81e48"/><path id="patch_297" d="M1017.282 1141.906a2.994 2.994 0 1 0 0-5.988 2.994 2.994 0 0 0 0 5.988z" clip-path="url(#pff5adf1744)" style="fill:#a90d45"/><path id="patch_298" d="M549.601 569.13a6.986 6.986 0 1 0 0-13.971 6.986 6.986 0 0 0 0 13.971z" clip-path="url(#pff5adf1744)" style="fill:#be254a"/><path id="patch_299" d="M953.277 305.574a7.984 7.984 0 1 0 0-15.968 7.984 7.984 0 0 0 0 15.968z" clip-path="url(#pff5adf1744)" style="fill:#c52c4b"/><path id="patch_300" d="M1147.537 212.588a3.992 3.992 0 1 0 0-7.984 3.992 3.992 0 0 0 0 7.984z" clip-path="url(#pff5adf1744)" style="fill:#ad1246"/><path id="patch_301" d="M832.8 852.46a8.982 8.982 0 1 0 0-17.964 8.982 8.982 0 0 0 0 17.964z" clip-path="url(#pff5adf1744)" style="fill:#c9314c"/><path id="patch_302" d="M807.524 163.944a4.99 4.99 0 1 0 0-9.98 4.99 4.99 0 0 0 0 9.98z" clip-path="url(#pff5adf1744)" style="fill:#b41947"/><path id="patch_303" d="M546.255 1141.906a.998.998 0 1 0 0-1.996.998.998 0 0 0 0 1.996z" clip-path="url(#pff5adf1744)" style="fill:#9e0142"/><path id="patch_304" d="M296.945 563.535a10.978 10.978 0 1 0 0-21.955 10.978 10.978 0 0 0 0 21.955z" clip-path="url(#pff5adf1744)" style="fill:#d43d4f"/><path id="patch_305" d="M734.453 327.314a5.988 5.988 0 1 0 0-11.975 5.988 5.988 0 0 0 0 11.975z" clip-path="url(#pff5adf1744)" style="fill:#b81e48"/><path id="patch_306" d="M801.213 157.956a1.996 1.996 0 1 0 0-3.991 1.996 1.996 0 0 0 0 3.991z" clip-path="url(#pff5adf1744)" style="fill:#a20643"/><path id="patch_307" d="M1011.19 552.986a7.984 7.984 0 1 0 0-15.968 7.984 7.984 0 0 0 0 15.968z" clip-path="url(#pff5adf1744)" style="fill:#c52c4b"/><path id="patch_308" d="M815.254 159.952a2.994 2.994 0 1 0 0-5.987 2.994 2.994 0 0 0 0 5.987z" clip-path="url(#pff5adf1744)" style="fill:#a90d45"/><path id="patch_309" d="M955.094 1010.66a9.98 9.98 0 1 0 0-19.96 9.98 9.98 0 0 0 0 19.96z" clip-path="url(#pff5adf1744)" style="fill:#d0384e"/><path id="patch_310" d="M1011.534 161.948a3.992 3.992 0 1 0 0-7.984 3.992 3.992 0 0 0 0 7.984z" clip-path="url(#pff5adf1744)" style="fill:#ad1246"/><path id="patch_311" d="M440.72 444.834a11.976 11.976 0 1 0 0-23.95 11.976 11.976 0 0 0 0 23.95z" clip-path="url(#pff5adf1744)" style="fill:#d8434e"/><path id="patch_312" d="M293.006 755.352a4.99 4.99 0 1 0 0-9.98 4.99 4.99 0 0 0 0 9.98z" clip-path="url(#pff5adf1744)" style="fill:#b41947"/><path id="patch_313" d="M752.813 296.089a5.988 5.988 0 1 0 0-11.976 5.988 5.988 0 0 0 0 11.976z" clip-path="url(#pff5adf1744)" style="fill:#b81e48"/><path id="patch_314" d="M501.725 523.475a6.986 6.986 0 1 0 0-13.971 6.986 6.986 0 0 0 0 13.971z" clip-path="url(#pff5adf1744)" style="fill:#be254a"/><path id="patch_315" d="M1017.179 157.956a1.996 1.996 0 1 0 0-3.991 1.996 1.996 0 0 0 0 3.991z" clip-path="url(#pff5adf1744)" style="fill:#a20643"/><path id="patch_316" d="M534.28 1141.906a.998.998 0 1 0 0-1.996.998.998 0 0 0 0 1.996z" clip-path="url(#pff5adf1744)" style="fill:#9e0142"/><path id="patch_317" d="M1001.823 1141.906a2.994 2.994 0 1 0 0-5.988 2.994 2.994 0 0 0 0 5.988z" clip-path="url(#pff5adf1744)" style="fill:#a90d45"/><path id="patch_318" d="M412.29 348.83a5.988 5.988 0 1 0 0-11.975 5.988 5.988 0 0 0 0 11.976z" clip-path="url(#pff5adf1744)" style="fill:#b81e48"/><path id="patch_319" d="M947.021 653.573a4.99 4.99 0 1 0 0-9.98 4.99 4.99 0 0 0 0 9.98z" clip-path="url(#pff5adf1744)" style="fill:#b41947"/><path id="patch_320" d="M348.762 1141.906a3.992 3.992 0 1 0 0-7.984 3.992 3.992 0 0 0 0 7.984z" clip-path="url(#pff5adf1744)" style="fill:#ad1246"/><path id="patch_321" d="M1005.07 955.88a10.978 10.978 0 1 0 0-21.955 10.978 10.978 0 0 0 0 21.956z" clip-path="url(#pff5adf1744)" style="fill:#d43d4f"/><path id="patch_322" d="M732.956 660.075a6.986 6.986 0 1 0 0-13.972 6.986 6.986 0 0 0 0 13.972z" clip-path="url(#pff5adf1744)" style="fill:#be254a"/><path id="patch_323" d="M595.446 1117.437a5.988 5.988 0 1 0 0-11.976 5.988 5.988 0 0 0 0 11.976z" clip-path="url(#pff5adf1744)" style="fill:#b81e48"/><path id="patch_324" d="M869.892 699.067a4.99 4.99 0 1 0 0-9.98 4.99 4.99 0 0 0 0 9.98z" clip-path="url(#pff5adf1744)" style="fill:#b41947"/><path id="patch_325" d="M630.188 1141.906a3.992 3.992 0 1 0 0-7.984 3.992 3.992 0 0 0 0 7.984z" clip-path="url(#pff5adf1744)" style="fill:#ad1246"/><path id="patch_326" d="M297.57 159.952a2.994 2.994 0 1 0 0-5.987 2.994 2.994 0 0 0 0 5.987z" clip-path="url(#pff5adf1744)" style="fill:#a90d45"/><path id="patch_327" d="M343.117 1141.906a1.996 1.996 0 1 0 0-3.992 1.996 1.996 0 0 0 0 3.992z" clip-path="url(#pff5adf1744)" style="fill:#a20643"/><path id="patch_328" d="M844.962 377.267a11.976 11.976 0 1 0 0-23.95 11.976 11.976 0 0 0 0 23.95z" clip-path="url(#pff5adf1744)" style="fill:#d8434e"/><path id="patch_329" d="M439.594 420.912a10.978 10.978 0 1 0 0-21.955 10.978 10.978 0 0 0 0 21.955z" clip-path="url(#pff5adf1744)" style="fill:#d43d4f"/><path id="patch_330" d="M1150.53 889.441a.998.998 0 1 0 0-1.996.998.998 0 0 0 0 1.996z" clip-path="url(#pff5adf1744)" style="fill:#9e0142"/><path id="patch_331" d="M412.288 971.664a7.984 7.984 0 1 0 0-15.968 7.984 7.984 0 0 0 0 15.968z" clip-path="url(#pff5adf1744)" style="fill:#c52c4b"/><path id="patch_332" d="M358.087 408.253a6.986 6.986 0 1 0 0-13.972 6.986 6.986 0 0 0 0 13.972z" clip-path="url(#pff5adf1744)" style="fill:#be254a"/><path id="patch_333" d="M298.47 955.625a5.988 5.988 0 1 0-.001-11.976 5.988 5.988 0 0 0 0 11.976z" clip-path="url(#pff5adf1744)" style="fill:#b81e48"/><path id="patch_334" d="M923.092 678.88a4.99 4.99 0 1 0 0-9.98 4.99 4.99 0 0 0 0 9.98z" clip-path="url(#pff5adf1744)" style="fill:#b41947"/><path id="patch_335" d="M167.58 734.678a3.992 3.992 0 1 0 0-7.984 3.992 3.992 0 0 0 0 7.984z" clip-path="url(#pff5adf1744)" style="fill:#ad1246"/><path id="patch_336" d="M637.102 1141.906a2.994 2.994 0 1 0 0-5.988 2.994 2.994 0 0 0 0 5.988z" clip-path="url(#pff5adf1744)" style="fill:#a90d45"/><path id="patch_337" d="M354.407 1141.906a1.996 1.996 0 1 0 0-3.992 1.996 1.996 0 0 0 0 3.992z" clip-path="url(#pff5adf1744)" style="fill:#a20643"/><path id="patch_338" d="M578.407 688.81a9.98 9.98 0 1 0 0-19.96 9.98 9.98 0 0 0 0 19.96z" clip-path="url(#pff5adf1744)" style="fill:#d0384e"/><path id="patch_339" d="M1121.258 571.122a5.988 5.988 0 1 0 0-11.975 5.988 5.988 0 0 0 0 11.975z" clip-path="url(#pff5adf1744)" style="fill:#b81e48"/><path id="patch_340" d="M356.126 809.984a4.99 4.99 0 1 0 0-9.98 4.99 4.99 0 0 0 0 9.98z" clip-path="url(#pff5adf1744)" style="fill:#b41947"/><path id="patch_341" d="M413.944 155.96a.998.998 0 1 0 0-1.995.998.998 0 0 0 0 1.996z" clip-path="url(#pff5adf1744)" style="fill:#9e0142"/><path id="patch_342" d="M167.58 492.854a3.992 3.992 0 1 0 0-7.984 3.992 3.992 0 0 0 0 7.984z" clip-path="url(#pff5adf1744)" style="fill:#ad1246"/><path id="patch_343" d="M875.754 932.617a6.986 6.986 0 1 0 0-13.972 6.986 6.986 0 0 0 0 13.972z" clip-path="url(#pff5adf1744)" style="fill:#be254a"/><path id="patch_344" d="M370.324 550.195a5.988 5.988 0 1 0 0-11.976 5.988 5.988 0 0 0 0 11.976z" clip-path="url(#pff5adf1744)" style="fill:#b81e48"/><path id="patch_345" d="M940.606 1141.906a2.994 2.994 0 1 0 0-5.988 2.994 2.994 0 0 0 0 5.988z" clip-path="url(#pff5adf1744)" style="fill:#a90d45"/><path id="patch_346" d="M752.845 995.528a4.99 4.99 0 1 0 0-9.98 4.99 4.99 0 0 0 0 9.98z" clip-path="url(#pff5adf1744)" style="fill:#b41947"/><path id="patch_347" d="M685.784 157.956a1.996 1.996 0 1 0 0-3.991 1.996 1.996 0 0 0 0 3.991z" clip-path="url(#pff5adf1744)" style="fill:#a20643"/><path id="patch_348" d="M561.045 161.948a3.992 3.992 0 1 0 0-7.984 3.992 3.992 0 0 0 0 7.984z" clip-path="url(#pff5adf1744)" style="fill:#ad1246"/><path id="patch_349" d="M671.525 361.978a5.988 5.988 0 1 0 0-11.976 5.988 5.988 0 0 0 0 11.976z" clip-path="url(#pff5adf1744)" style="fill:#b81e48"/><path id="patch_350" d="M405.018 155.96a.998.998 0 1 0 0-1.995.998.998 0 0 0 0 1.996z" clip-path="url(#pff5adf1744)" style="fill:#9e0142"/><path id="patch_351" d="M1148.535 807.017a2.994 2.994 0 1 0 0-5.987 2.994 2.994 0 0 0 0 5.987z" clip-path="url(#pff5adf1744)" style="fill:#a90d45"/><path id="patch_352" d="M555.037 213.662a11.976 11.976 0 1 0 0-23.951 11.976 11.976 0 0 0 0 23.951z" clip-path="url(#pff5adf1744)" style="fill:#d8434e"/><g id="matplotlib.axis_1"><g id="xtick_1"><g id="line2d_1"><defs><path id="m00a79b3c40" d="M0 0v3.5" style="stroke:#000;stroke-width:.8"/></defs><use xlink:href="#m00a79b3c40" x="163.588" y="1141.906" style="stroke:#000;stroke-width:.8"/></g><g id="text_1" transform="matrix(.1 0 0 -.1 160.406 1156.504)"><defs><path id="DejaVuSans-30" d="M2034 4250q-487 0-733-480-245-479-245-1442 0-959 245-1439 246-480 733-480 491 0 736 480 246 480 246 1439 0 963-246 1442-245 480-736 480zm0 500q785 0 1199-621 414-620 414-1801 0-1178-414-1799Q2819-91 2034-91q-784 0-1198 620-414 621-414 1799 0 1181 414 1801 414 621 1198 621z" transform="scale(.01563)"/></defs><use xlink:href="#DejaVuSans-30"/></g></g><g id="xtick_2"><use xlink:href="#m00a79b3c40" id="line2d_2" x="363.172" y="1141.906" style="stroke:#000;stroke-width:.8"/><g id="text_2" transform="matrix(.1 0 0 -.1 353.628 1156.504)"><defs><path id="DejaVuSans-32" d="M1228 531h2203V0H469v531q359 372 979 998 621 627 780 809 303 340 423 576 121 236 121 464 0 372-261 606-261 235-680 235-297 0-627-103-329-103-704-313v638q381 153 712 231 332 78 607 78 725 0 1156-363 431-362 431-968 0-288-108-546-107-257-392-607-78-91-497-524-418-433-1181-1211z" transform="scale(.01563)"/></defs><use xlink:href="#DejaVuSans-32"/><use xlink:href="#DejaVuSans-30" x="63.623"/><use xlink:href="#DejaVuSans-30" x="127.246"/></g></g><g id="xtick_3"><use xlink:href="#m00a79b3c40" id="line2d_3" x="562.756" y="1141.906" style="stroke:#000;stroke-width:.8"/><g id="text_3" transform="matrix(.1 0 0 -.1 553.212 1156.504)"><defs><path id="DejaVuSans-34" d="M2419 4116 825 1625h1594v2491zm-166 550h794V1625h666v-525h-666V0h-628v1100H313v609l1940 2957z" transform="scale(.01563)"/></defs><use xlink:href="#DejaVuSans-34"/><use xlink:href="#DejaVuSans-30" x="63.623"/><use xlink:href="#DejaVuSans-30" x="127.246"/></g></g><g id="xtick_4"><use xlink:href="#m00a79b3c40" id="line2d_4" x="762.34" y="1141.906" style="stroke:#000;stroke-width:.8"/><g id="text_4" transform="matrix(.1 0 0 -.1 752.796 1156.504)"><defs><path id="DejaVuSans-36" d="M2113 2584q-425 0-674-291-248-290-248-796 0-503 248-796 249-292 674-292t673 292q248 293 248 796 0 506-248 796-248 291-673 291zm1253 1979v-575q-238 112-480 171-242 60-480 60-625 0-955-422-329-422-376-1275 184 272 462 417 279 145 613 145 703 0 1111-427 408-426 408-1160 0-719-425-1154Q2819-91 2113-91q-810 0-1238 620-428 621-428 1799 0 1106 525 1764t1409 658q238 0 480-47t505-140z" transform="scale(.01563)"/></defs><use xlink:href="#DejaVuSans-36"/><use xlink:href="#DejaVuSans-30" x="63.623"/><use xlink:href="#DejaVuSans-30" x="127.246"/></g></g><g id="xtick_5"><use xlink:href="#m00a79b3c40" id="line2d_5" x="961.924" y="1141.906" style="stroke:#000;stroke-width:.8"/><g id="text_5" transform="matrix(.1 0 0 -.1 952.38 1156.504)"><defs><path id="DejaVuSans-38" d="M2034 2216q-450 0-708-241-257-241-257-662 0-422 257-663 258-241 708-241t709 242q260 243 260 662 0 421-258 662-257 241-711 241zm-631 268q-406 100-633 378-226 279-226 679 0 559 398 884 399 325 1092 325 697 0 1094-325t397-884q0-400-227-679-226-278-629-378 456-106 710-416 255-309 255-755 0-679-414-1042Q2806-91 2034-91q-771 0-1186 362-414 363-414 1042 0 446 256 755 257 310 713 416zm-231 997q0-362 226-565 227-203 636-203 407 0 636 203 230 203 230 565 0 363-230 566-229 203-636 203-409 0-636-203-226-203-226-566z" transform="scale(.01563)"/></defs><use xlink:href="#DejaVuSans-38"/><use xlink:href="#DejaVuSans-30" x="63.623"/><use xlink:href="#DejaVuSans-30" x="127.246"/></g></g></g><g id="matplotlib.axis_2"><g id="ytick_1"><g id="line2d_6"><defs><path id="m96d02009f0" d="M0 0h-3.5" style="stroke:#000;stroke-width:.8"/></defs><use xlink:href="#m96d02009f0" x="163.588" y="1141.906" style="stroke:#000;stroke-width:.8"/></g><use xlink:href="#DejaVuSans-30" id="text_6" transform="matrix(.1 0 0 -.1 150.225 1145.705)"/></g><g id="ytick_2"><use xlink:href="#m96d02009f0" id="line2d_7" x="163.588" y="942.322" style="stroke:#000;stroke-width:.8"/><g id="text_7" transform="matrix(.1 0 0 -.1 137.5 946.12)"><use xlink:href="#DejaVuSans-32"/><use xlink:href="#DejaVuSans-30" x="63.623"/><use xlink:href="#DejaVuSans-30" x="127.246"/></g></g><g id="ytick_3"><use xlink:href="#m96d02009f0" id="line2d_8" x="163.588" y="742.738" style="stroke:#000;stroke-width:.8"/><g id="text_8" transform="matrix(.1 0 0 -.1 137.5 746.537)"><use xlink:href="#DejaVuSans-34"/><use xlink:href="#DejaVuSans-30" x="63.623"/><use xlink:href="#DejaVuSans-30" x="127.246"/></g></g><g id="ytick_4"><use xlink:href="#m96d02009f0" id="line2d_9" x="163.588" y="543.154" style="stroke:#000;stroke-width:.8"/><g id="text_9" transform="matrix(.1 0 0 -.1 137.5 546.953)"><use xlink:href="#DejaVuSans-36"/><use xlink:href="#DejaVuSans-30" x="63.623"/><use xlink:href="#DejaVuSans-30" x="127.246"/></g></g><g id="ytick_5"><use xlink:href="#m96d02009f0" id="line2d_10" x="163.588" y="343.57" style="stroke:#000;stroke-width:.8"/><g id="text_10" transform="matrix(.1 0 0 -.1 137.5 347.369)"><use xlink:href="#DejaVuSans-38"/><use xlink:href="#DejaVuSans-30" x="63.623"/><use xlink:href="#DejaVuSans-30" x="127.246"/></g></g></g><path id="patch_353" d="M163.588 1141.906V153.965" style="fill:none;stroke:#000;stroke-width:.8;stroke-linejoin:miter;stroke-linecap:square"/><path id="patch_354" d="M1151.528 1141.906V153.965" style="fill:none;stroke:#000;stroke-width:.8;stroke-linejoin:miter;stroke-linecap:square"/><path id="patch_355" d="M163.588 1141.906h987.94" style="fill:none;stroke:#000;stroke-width:.8;stroke-linejoin:miter;stroke-linecap:square"/><path id="patch_356" d="M163.588 153.965h987.94" style="fill:none;stroke:#000;stroke-width:.8;stroke-linejoin:miter;stroke-linecap:square"/><g id="text_11" transform="matrix(.12 0 0 -.12 475.37 147.965)"><defs><path id="DejaVuSans-54" d="M-19 4666h3947v-532H2272V0h-634v4134H-19v532z" transform="scale(.01563)"/><path id="DejaVuSans-65" d="M3597 1894v-281H953q38-594 358-905t892-311q331 0 642 81t618 244V178Q3153 47 2828-22t-659-69q-838 0-1327 487-489 488-489 1320 0 859 464 1363 464 505 1252 505 706 0 1117-455 411-454 411-1235zm-575 169q-6 471-264 752-258 282-683 282-481 0-770-272t-333-766l2050 4z" transform="scale(.01563)"/><path id="DejaVuSans-61" d="M2194 1759q-697 0-966-159t-269-544q0-306 202-486 202-179 548-179 479 0 768 339t289 901v128h-572zm1147 238V0h-575v531q-197-318-491-470T1556-91q-537 0-855 302-317 302-317 808 0 590 395 890 396 300 1180 300h807v57q0 397-261 614t-733 217q-300 0-585-72-284-72-546-216v532q315 122 612 182 297 61 578 61 760 0 1135-394 375-393 375-1193z" transform="scale(.01563)"/><path id="DejaVuSans-6d" d="M3328 2828q216 388 516 572t706 184q547 0 844-383 297-382 297-1088V0h-578v2094q0 503-179 746-178 244-543 244-447 0-707-297-259-296-259-809V0h-578v2094q0 506-178 748t-550 242q-441 0-701-298-259-298-259-808V0H581v3500h578v-544q197 322 472 475t653 153q382 0 649-194 267-193 395-562z" transform="scale(.01563)"/><path id="DejaVuSans-4b" d="M628 4666h631V2694l2094 1972h813L1850 2491 4331 0h-831L1259 2247V0H628v4666z" transform="scale(.01563)"/><path id="DejaVuSans-6f" d="M1959 3097q-462 0-731-361t-269-989q0-628 267-989 268-361 733-361 460 0 728 362 269 363 269 988 0 622-269 986-268 364-728 364zm0 487q750 0 1178-488 429-487 429-1349 0-859-429-1349Q2709-91 1959-91q-753 0-1180 489-426 490-426 1349 0 862 426 1349 427 488 1180 488z" transform="scale(.01563)"/><path id="DejaVuSans-6c" d="M603 4863h575V0H603v4863z" transform="scale(.01563)"/><path id="DejaVuSans-6e" d="M3513 2113V0h-575v2094q0 497-194 743-194 247-581 247-466 0-735-297-269-296-269-809V0H581v3500h578v-544q207 316 486 472 280 156 646 156 603 0 912-373 310-373 310-1098z" transform="scale(.01563)"/><path id="DejaVuSans-57" d="M213 4666h637l981-3944 978 3944h710l981-3944 978 3944h641L4947 0h-794l-984 4050L2175 0h-794L213 4666z" transform="scale(.01563)"/><path id="DejaVuSans-64" d="M2906 2969v1894h575V0h-575v525q-181-312-458-464-276-152-664-152-634 0-1033 506-398 507-398 1332t398 1331q399 506 1033 506 388 0 664-152 277-151 458-463zM947 1747q0-634 261-995t717-361q456 0 718 361 263 361 263 995t-263 995q-262 361-718 361t-717-361q-261-361-261-995z" transform="scale(.01563)"/><path id="DejaVuSans-2c" d="M750 794h659V256L897-744H494L750 256v538z" transform="scale(.01563)"/><path id="DejaVuSans-62" d="M3116 1747q0 634-261 995t-717 361q-457 0-718-361t-261-995q0-634 261-995t718-361q456 0 717 361t261 995zM1159 2969q182 312 458 463 277 152 661 152 638 0 1036-506 399-506 399-1331T3314 415Q2916-91 2278-91q-384 0-661 152-276 152-458 464V0H581v4863h578V2969z" transform="scale(.01563)"/><path id="DejaVuSans-3d" d="M678 2906h4006v-525H678v525zm0-1275h4006v-531H678v531z" transform="scale(.01563)"/><path id="DejaVuSans-2e" d="M684 794h660V0H684v794z" transform="scale(.01563)"/><path id="DejaVuSans-39" d="M703 97v575q238-113 481-172 244-59 479-59 625 0 954 420 330 420 377 1277-181-269-460-413-278-144-615-144-700 0-1108 423-408 424-408 1159 0 718 425 1152 425 435 1131 435 810 0 1236-621 427-620 427-1801 0-1103-524-1761Q2575-91 1691-91q-238 0-482 47Q966 3 703 97zm1256 1978q425 0 673 290 249 291 249 798 0 503-249 795-248 292-673 292t-673-292q-248-292-248-795 0-507 248-798 248-290 673-290z" transform="scale(.01563)"/><path id="DejaVuSans-35" d="M691 4666h2478v-532H1269V2991q137 47 274 70 138 23 276 23 781 0 1237-428 457-428 457-1159 0-753-469-1171Q2575-91 1722-91q-294 0-599 50Q819 9 494 109v635q281-153 581-228t634-75q541 0 856 284 316 284 316 772 0 487-316 771-315 285-856 285-253 0-505-56-251-56-513-175v2344z" transform="scale(.01563)"/><path id="DejaVuSans-33" d="M2597 2516q453-97 707-404 255-306 255-756 0-690-475-1069Q2609-91 1734-91q-293 0-604 58T488 141v609q262-153 574-231 313-78 654-78 593 0 904 234t311 681q0 413-289 645-289 233-804 233h-544v519h569q465 0 712 186t247 536q0 359-255 551-254 193-729 193-260 0-557-57-297-56-653-174v562q360 100 674 150t592 50q719 0 1137-327 419-326 419-882 0-388-222-655t-631-370z" transform="scale(.01563)"/><path id="DejaVuSans-31" d="M794 531h1031v3560L703 3866v575l1116 225h631V531h1031V0H794v531z" transform="scale(.01563)"/></defs><use xlink:href="#DejaVuSans-54"/><use xlink:href="#DejaVuSans-65" x="44.084"/><use xlink:href="#DejaVuSans-61" x="105.607"/><use xlink:href="#DejaVuSans-6d" x="166.887"/><use xlink:href="#DejaVuSans-4b" x="264.299"/><use xlink:href="#DejaVuSans-6f" x="324.875"/><use xlink:href="#DejaVuSans-65" x="386.057"/><use xlink:href="#DejaVuSans-6c" x="447.58"/><use xlink:href="#DejaVuSans-6e" x="475.363"/><use xlink:href="#DejaVuSans-57" x="538.742"/><use xlink:href="#DejaVuSans-61" x="631.244"/><use xlink:href="#DejaVuSans-6c" x="692.523"/><use xlink:href="#DejaVuSans-64" x="720.307"/><use xlink:href="#DejaVuSans-2c" x="783.783"/><use xlink:href="#DejaVuSans-20" x="815.57"/><use xlink:href="#DejaVuSans-62" x="847.357"/><use xlink:href="#DejaVuSans-3d" x="910.834"/><use xlink:href="#DejaVuSans-30" x="994.623"/><use xlink:href="#DejaVuSans-2e" x="1058.246"/><use xlink:href="#DejaVuSans-38" x="1090.033"/><use xlink:href="#DejaVuSans-39" x="1153.656"/><use xlink:href="#DejaVuSans-35" x="1217.279"/><use xlink:href="#DejaVuSans-34" x="1280.902"/><use xlink:href="#DejaVuSans-33" x="1344.525"/><use xlink:href="#DejaVuSans-32" x="1408.148"/><use xlink:href="#DejaVuSans-32" x="1471.771"/><use xlink:href="#DejaVuSans-2c" x="1535.395"/><use xlink:href="#DejaVuSans-20" x="1567.182"/><use xlink:href="#DejaVuSans-61" x="1598.969"/><use xlink:href="#DejaVuSans-3d" x="1660.248"/><use xlink:href="#DejaVuSans-30" x="1744.037"/><use xlink:href="#DejaVuSans-2e" x="1807.66"/><use xlink:href="#DejaVuSans-39" x="1839.447"/><use xlink:href="#DejaVuSans-33" x="1903.07"/><use xlink:href="#DejaVuSans-38" x="1966.693"/><use xlink:href="#DejaVuSans-31" x="2030.316"/><use xlink:href="#DejaVuSans-30" x="2093.939"/><use xlink:href="#DejaVuSans-32" x="2157.563"/><use xlink:href="#DejaVuSans-35" x="2221.186"/><use xlink:href="#DejaVuSans-2c" x="2284.809"/><use xlink:href="#DejaVuSans-20" x="2316.596"/><use xlink:href="#DejaVuSans-64" x="2348.383"/><use xlink:href="#DejaVuSans-3d" x="2411.859"/><use xlink:href="#DejaVuSans-30" x="2495.648"/><use xlink:href="#DejaVuSans-2e" x="2559.271"/><use xlink:href="#DejaVuSans-39" x="2591.059"/><use xlink:href="#DejaVuSans-35" x="2654.682"/><use xlink:href="#DejaVuSans-34" x="2718.305"/><use xlink:href="#DejaVuSans-35" x="2781.928"/><use xlink:href="#DejaVuSans-31" x="2845.551"/><use xlink:href="#DejaVuSans-34" x="2909.174"/><use xlink:href="#DejaVuSans-33" x="2972.797"/></g></g></g><defs><clipPath id="pff5adf1744"><path d="M163.588 153.965h987.941v987.941H163.588z"/></clipPath></defs></svg>