<svg xmlns="http://www.w3.org/2000/svg" xmlns:xlink="http://www.w3.org/1999/xlink" width="1710.72" height="1710.72" viewBox="0 0 1283.04 1283.04"><defs><style>*{stroke-linejoin:round;stroke-linecap:butt}</style></defs><g id="figure_1"><path id="patch_1" d="M0 1283.04h1283.04V0H0z" style="fill:#fff"/><g id="axes_1"><path id="patch_2" d="M163.588 1141.906h987.94V153.965h-987.94z" style="fill:#fff"/><path id="patch_3" d="M1051.736 353.549a99.797 99.797 0 0 0 70.564-29.229 99.797 99.797 0 0 0 29.228-70.563 99.797 99.797 0 0 0-29.228-70.564 99.797 99.797 0 0 0-70.564-29.228 99.797 99.797 0 0 0-70.563 29.228 99.797 99.797 0 0 0-29.229 70.564 99.797 99.797 0 0 0 29.229 70.563 99.797 99.797 0 0 0 70.563 29.229z" clip-path="url(#pef1ec36c3f)" style="fill:#5e4fa2"/><path id="patch_4" d="M852.152 353.549a99.797 99.797 0 0 0 70.564-29.229 99.797 99.797 0 0 0 29.228-70.563 99.797 99.797 0 0 0-29.228-70.564 99.797 99.797 0 0 0-70.564-29.228 99.797 99.797 0 0 0-70.563 29.228 99.797 99.797 0 0 0-29.229 70.564 99.797 99.797 0 0 0 29.229 70.563 99.797 99.797 0 0 0 70.563 29.229z" clip-path="url(#pef1ec36c3f)" style="fill:#5e4fa2"/><path id="patch_5" d="M262.382 351.553c26.2 0 51.331-10.41 69.858-28.936a98.799 98.799 0 0 0 28.936-69.858c0-26.2-10.41-51.332-28.936-69.858a98.799 98.799 0 0 0-69.858-28.936 98.799 98.799 0 0 0-69.858 28.936 98.799 98.799 0 0 0-28.936 69.858c0 26.2 10.41 51.331 28.936 69.858a98.799 98.799 0 0 0 69.858 28.936z" clip-path="url(#pef1ec36c3f)" style="fill:#5b53a4"/><path id="patch_6" d="M1053.732 1141.906a97.8 97.8 0 0 0 69.153-28.644 97.8 97.8 0 0 0 28.643-69.153 97.8 97.8 0 0 0-28.643-69.152 97.8 97.8 0 0 0-69.153-28.644 97.8 97.8 0 0 0-69.152 28.644 97.8 97.8 0 0 0-28.644 69.152 97.8 97.8 0 0 0 28.644 69.153 97.8 97.8 0 0 0 69.152 28.644z" clip-path="url(#pef1ec36c3f)" style="fill:#555aa7"/><path id="patch_7" d="M260.386 1141.906a96.803 96.803 0 0 0 68.447-28.352 96.803 96.803 0 0 0 28.351-68.447 96.803 96.803 0 0 0-28.351-68.446 96.803 96.803 0 0 0-68.447-28.352 96.803 96.803 0 0 0-68.447 28.352 96.803 96.803 0 0 0-28.351 68.446 96.803 96.803 0 0 0 28.351 68.447 96.803 96.803 0 0 0 68.447 28.352z" clip-path="url(#pef1ec36c3f)" style="fill:#525fa9"/><path id="patch_8" d="M656.6 345.565a95.805 95.805 0 0 0 67.742-28.059 95.805 95.805 0 0 0 28.06-67.74 95.805 95.805 0 0 0-28.06-67.742 95.805 95.805 0 0 0-67.741-28.06 95.805 95.805 0 0 0-67.741 28.06 95.805 95.805 0 0 0-28.06 67.741 95.805 95.805 0 0 0 28.06 67.741 95.805 95.805 0 0 0 67.74 28.06z" clip-path="url(#pef1ec36c3f)" style="fill:#4d65ad"/><path id="patch_9" d="M455.937 343.57a94.807 94.807 0 0 0 67.035-27.767 94.807 94.807 0 0 0 27.767-67.036 94.807 94.807 0 0 0-27.767-67.035 94.807 94.807 0 0 0-67.035-27.767 94.807 94.807 0 0 0-67.035 27.767 94.807 94.807 0 0 0-27.767 67.035 94.807 94.807 0 0 0 27.767 67.036 94.807 94.807 0 0 0 67.035 27.767z" clip-path="url(#pef1ec36c3f)" style="fill:#496aaf"/><path id="patch_10" d="M1057.724 946.355a93.809 93.809 0 0 0 66.33-27.475 93.809 93.809 0 0 0 27.474-66.33 93.809 93.809 0 0 0-27.474-66.33 93.809 93.809 0 0 0-66.33-27.474 93.809 93.809 0 0 0-66.33 27.475 93.809 93.809 0 0 0-27.475 66.33 93.809 93.809 0 0 0 27.475 66.33 93.809 93.809 0 0 0 66.33 27.474z" clip-path="url(#pef1ec36c3f)" style="fill:#4471b2"/><path id="patch_11" d="M1058.722 539.035a92.81 92.81 0 0 0 65.624-27.182 92.81 92.81 0 0 0 27.182-65.624 92.81 92.81 0 0 0-27.182-65.625 92.81 92.81 0 0 0-65.624-27.182 92.81 92.81 0 0 0-65.624 27.182 92.81 92.81 0 0 0-27.183 65.625 92.81 92.81 0 0 0 27.183 65.624 92.81 92.81 0 0 0 65.624 27.182z" clip-path="url(#pef1ec36c3f)" style="fill:#3f77b5"/><path id="patch_12" d="M255.396 948.375a91.813 91.813 0 0 0 64.919-26.89 91.813 91.813 0 0 0 26.89-64.919 91.813 91.813 0 0 0-26.89-64.918 91.813 91.813 0 0 0-64.919-26.89 91.813 91.813 0 0 0-64.918 26.89 91.813 91.813 0 0 0-26.89 64.918 91.813 91.813 0 0 0 26.89 64.919 91.813 91.813 0 0 0 64.918 26.89z" clip-path="url(#pef1ec36c3f)" style="fill:#3b7cb7"/><path id="patch_13" d="M1060.718 720.646a90.815 90.815 0 0 0 90.81-90.81 90.815 90.815 0 0 0-90.81-90.812 90.815 90.815 0 0 0-90.811 90.811 90.815 90.815 0 0 0 90.81 90.81z" clip-path="url(#pef1ec36c3f)" style="fill:#3682ba"/><path id="patch_14" d="M951.944 203.86a24.95 24.95 0 0 0 0-49.895 24.95 24.95 0 0 0 0 49.896z" clip-path="url(#pef1ec36c3f)" style="fill:#f88950"/><path id="patch_15" d="M359.667 201.865a23.951 23.951 0 1 0 0-47.902 23.951 23.951 0 0 0 0 47.902z" clip-path="url(#pef1ec36c3f)" style="fill:#f7814c"/><path id="patch_16" d="M186.54 973.79a22.953 22.953 0 1 0-.001-45.907 22.953 22.953 0 0 0 0 45.906z" clip-path="url(#pef1ec36c3f)" style="fill:#f67a49"/><path id="patch_17" d="M1129.574 558.46a21.955 21.955 0 1 0 0-43.91 21.955 21.955 0 0 0 0 43.91z" clip-path="url(#pef1ec36c3f)" style="fill:#f57547"/><path id="patch_18" d="M753.328 205.33a20.957 20.957 0 1 0 0-41.914 20.957 20.957 0 0 0 0 41.915z" clip-path="url(#pef1ec36c3f)" style="fill:#f46d43"/><path id="patch_19" d="M856.154 1141.906a99.797 99.797 0 0 0 70.564-29.229 99.797 99.797 0 0 0 29.228-70.563 99.797 99.797 0 0 0-29.228-70.564 99.797 99.797 0 0 0-70.564-29.228 99.797 99.797 0 0 0-70.563 29.228 99.797 99.797 0 0 0-29.229 70.564 99.797 99.797 0 0 0 29.229 70.563 99.797 99.797 0 0 0 70.563 29.229z" clip-path="url(#pef1ec36c3f)" style="fill:#5e4fa2"/><path id="patch_20" d="M1131.57 959.046a19.96 19.96 0 1 0 0-39.918 19.96 19.96 0 0 0 0 39.918z" clip-path="url(#pef1ec36c3f)" style="fill:#f26944"/><path id="patch_21" d="M943.15 1141.906a18.961 18.961 0 1 0 0-37.923 18.961 18.961 0 0 0 0 37.923z" clip-path="url(#pef1ec36c3f)" style="fill:#ee6445"/><path id="patch_22" d="M1133.566 382.532a17.963 17.963 0 1 0 0-35.926 17.963 17.963 0 0 0 0 35.926z" clip-path="url(#pef1ec36c3f)" style="fill:#ea5e47"/><path id="patch_23" d="M263.38 551.134a99.797 99.797 0 0 0 70.563-29.228 99.797 99.797 0 0 0 29.229-70.564 99.797 99.797 0 0 0-29.229-70.563 99.797 99.797 0 0 0-70.563-29.229 99.797 99.797 0 0 0-70.564 29.229 99.797 99.797 0 0 0-29.228 70.563 99.797 99.797 0 0 0 29.228 70.564 99.797 99.797 0 0 0 70.564 29.228z" clip-path="url(#pef1ec36c3f)" style="fill:#5e4fa2"/><path id="patch_24" d="M749.344 400.487a44.908 44.908 0 0 0 44.907-44.906 44.908 44.908 0 0 0-44.907-44.906 44.908 44.908 0 0 0-44.906 44.906 44.908 44.908 0 0 0 44.906 44.906z" clip-path="url(#pef1ec36c3f)" style="fill:#feeda1"/><path id="patch_25" d="M968.346 977.735a33.93 33.93 0 0 0 23.992-57.92 33.93 33.93 0 0 0-57.921 23.99 33.93 33.93 0 0 0 33.93 33.93z" clip-path="url(#pef1ec36c3f)" style="fill:#fdbf6f"/><path id="patch_26" d="M1118.597 772.138a32.933 32.933 0 0 0 23.286-56.218 32.933 32.933 0 0 0-56.217 23.286 32.933 32.933 0 0 0 32.931 32.932z" clip-path="url(#pef1ec36c3f)" style="fill:#fdb96a"/><path id="patch_27" d="M1135.562 1141.906a15.967 15.967 0 1 0 0-31.935 15.967 15.967 0 0 0 0 31.935z" clip-path="url(#pef1ec36c3f)" style="fill:#e45549"/><path id="patch_28" d="M263.38 750.718a99.797 99.797 0 0 0 70.563-29.228 99.797 99.797 0 0 0 29.229-70.564 99.797 99.797 0 0 0-29.229-70.563 99.797 99.797 0 0 0-70.563-29.229 99.797 99.797 0 0 0-70.564 29.229 99.797 99.797 0 0 0-29.228 70.563 99.797 99.797 0 0 0 29.228 70.564 99.797 99.797 0 0 0 70.564 29.228z" clip-path="url(#pef1ec36c3f)" style="fill:#5e4fa2"/><path id="patch_29" d="M892.727 640.713c26.2 0 51.332-10.41 69.858-28.936a98.799 98.799 0 0 0 28.936-69.858c0-26.2-10.41-51.331-28.936-69.858a98.799 98.799 0 0 0-69.858-28.936 98.799 98.799 0 0 0-69.858 28.936 98.799 98.799 0 0 0-28.936 69.858c0 26.2 10.41 51.331 28.936 69.858a98.799 98.799 0 0 0 69.858 28.936z" clip-path="url(#pef1ec36c3f)" style="fill:#5b53a4"/><path id="patch_30" d="M934.987 722.129a43.91 43.91 0 0 0 43.909-43.908 43.91 43.91 0 0 0-43.909-43.909 43.91 43.91 0 0 0-43.908 43.909 43.91 43.91 0 0 0 43.908 43.908z" clip-path="url(#pef1ec36c3f)" style="fill:#feeb9d"/><path id="patch_31" d="M929.405 447.954a42.913 42.913 0 0 0 42.91-42.91 42.913 42.913 0 0 0-42.91-42.911 42.913 42.913 0 0 0-42.91 42.91 42.913 42.913 0 0 0 42.91 42.91z" clip-path="url(#pef1ec36c3f)" style="fill:#fee797"/><path id="patch_32" d="M364.067 391.926a41.915 41.915 0 0 0 41.912-41.912 41.915 41.915 0 0 0-41.912-41.913 41.915 41.915 0 0 0-41.913 41.913 41.915 41.915 0 0 0 41.913 41.912z" clip-path="url(#pef1ec36c3f)" style="fill:#fee593"/><path id="patch_33" d="M845.747 451.26a40.917 40.917 0 0 0 40.915-40.914 40.917 40.917 0 0 0-40.915-40.915 40.917 40.917 0 0 0-40.914 40.915 40.917 40.917 0 0 0 40.914 40.915z" clip-path="url(#pef1ec36c3f)" style="fill:#fee18d"/><path id="patch_34" d="M669.73 424.763a39.919 39.919 0 0 0 39.916-39.917 39.919 39.919 0 0 0-39.917-39.917 39.919 39.919 0 0 0-39.916 39.917 39.919 39.919 0 0 0 39.916 39.917z" clip-path="url(#pef1ec36c3f)" style="fill:#fedc88"/><path id="patch_35" d="M1136.56 346.744a14.97 14.97 0 1 0-.001-29.94 14.97 14.97 0 0 0 0 29.94z" clip-path="url(#pef1ec36c3f)" style="fill:#e2514a"/><path id="patch_36" d="M1005.487 554.763a13.972 13.972 0 1 0 0-27.943 13.972 13.972 0 0 0 0 27.943z" clip-path="url(#pef1ec36c3f)" style="fill:#de4c4b"/><path id="patch_37" d="M456.953 1141.906a99.797 99.797 0 0 0 70.564-29.229 99.797 99.797 0 0 0 29.228-70.563 99.797 99.797 0 0 0-29.228-70.564 99.797 99.797 0 0 0-70.564-29.228 99.797 99.797 0 0 0-70.563 29.228 99.797 99.797 0 0 0-29.229 70.564 99.797 99.797 0 0 0 29.229 70.563 99.797 99.797 0 0 0 70.563 29.229z" clip-path="url(#pef1ec36c3f)" style="fill:#5e4fa2"/><path id="patch_38" d="M797.052 813.593c26.2 0 51.332-10.41 69.858-28.936a98.799 98.799 0 0 0 28.936-69.858c0-26.2-10.41-51.332-28.936-69.858a98.799 98.799 0 0 0-69.858-28.936 98.799 98.799 0 0 0-69.858 28.936 98.799 98.799 0 0 0-28.936 69.858c0 26.2 10.41 51.331 28.936 69.858a98.799 98.799 0 0 0 69.858 28.936z" clip-path="url(#pef1ec36c3f)" style="fill:#5b53a4"/><path id="patch_39" d="M658.576 1141.906a97.8 97.8 0 0 0 69.152-28.644 97.8 97.8 0 0 0 28.644-69.153 97.8 97.8 0 0 0-28.644-69.152 97.8 97.8 0 0 0-69.152-28.644 97.8 97.8 0 0 0-69.152 28.644 97.8 97.8 0 0 0-28.644 69.152 97.8 97.8 0 0 0 28.644 69.153 97.8 97.8 0 0 0 69.152 28.644z" clip-path="url(#pef1ec36c3f)" style="fill:#555aa7"/><path id="patch_40" d="M554.986 461.7a74.847 74.847 0 0 0 74.844-74.844 74.847 74.847 0 0 0-74.844-74.844 74.847 74.847 0 0 0-74.844 74.844 74.847 74.847 0 0 0 74.844 74.844z" clip-path="url(#pef1ec36c3f)" style="fill:#89d0a4"/><path id="patch_41" d="M188.536 576.082a24.95 24.95 0 0 0 0-49.896 24.95 24.95 0 0 0 0 49.896z" clip-path="url(#pef1ec36c3f)" style="fill:#f88950"/><path id="patch_42" d="M359.177 1141.906a23.951 23.951 0 1 0 0-47.903 23.951 23.951 0 0 0 0 47.903z" clip-path="url(#pef1ec36c3f)" style="fill:#f7814c"/><path id="patch_43" d="M1138.555 984.243a12.974 12.974 0 1 0 0-25.947 12.974 12.974 0 0 0 0 25.947z" clip-path="url(#pef1ec36c3f)" style="fill:#dc484c"/><path id="patch_44" d="M783.014 177.915a11.976 11.976 0 1 0 0-23.951 11.976 11.976 0 0 0 0 23.95z" clip-path="url(#pef1ec36c3f)" style="fill:#d8434e"/><path id="patch_45" d="M694.164 644.736a99.797 99.797 0 0 0 70.564-29.228 99.797 99.797 0 0 0 29.228-70.564 99.797 99.797 0 0 0-29.228-70.563 99.797 99.797 0 0 0-70.564-29.229 99.797 99.797 0 0 0-70.563 29.229 99.797 99.797 0 0 0-29.229 70.563 99.797 99.797 0 0 0 29.229 70.564 99.797 99.797 0 0 0 70.563 29.228z" clip-path="url(#pef1ec36c3f)" style="fill:#5e4fa2"/><path id="patch_46" d="M887.763 944.645a76.843 76.843 0 0 0 76.84-76.84 76.843 76.843 0 0 0-76.84-76.84 76.843 76.843 0 0 0-76.84 76.84 76.843 76.843 0 0 0 76.84 76.84z" clip-path="url(#pef1ec36c3f)" style="fill:#7ccaa5"/><path id="patch_47" d="M186.54 378.577a22.953 22.953 0 1 0-.001-45.906 22.953 22.953 0 0 0 0 45.906z" clip-path="url(#pef1ec36c3f)" style="fill:#f67a49"/><path id="patch_48" d="M637.086 457.182a20.957 20.957 0 1 0-.001-41.914 20.957 20.957 0 0 0 0 41.914z" clip-path="url(#pef1ec36c3f)" style="fill:#f46d43"/><path id="patch_49" d="M985.042 175.919a10.978 10.978 0 1 0 0-21.955 10.978 10.978 0 0 0 0 21.955z" clip-path="url(#pef1ec36c3f)" style="fill:#d43d4f"/><path id="patch_50" d="M436.224 650.926a99.797 99.797 0 0 0 70.564-29.228 99.797 99.797 0 0 0 29.228-70.564 99.797 99.797 0 0 0-29.228-70.563 99.797 99.797 0 0 0-70.564-29.229 99.797 99.797 0 0 0-70.563 29.229 99.797 99.797 0 0 0-29.229 70.563 99.797 99.797 0 0 0 29.229 70.564 99.797 99.797 0 0 0 70.563 29.228z" clip-path="url(#pef1ec36c3f)" style="fill:#5e4fa2"/><path id="patch_51" d="M1141.55 576.088a9.98 9.98 0 1 0-.001-19.96 9.98 9.98 0 0 0 0 19.96z" clip-path="url(#pef1ec36c3f)" style="fill:#d0384e"/><path id="patch_52" d="M598.538 819.92a99.797 99.797 0 0 0 70.563-29.228 99.797 99.797 0 0 0 29.229-70.564 99.797 99.797 0 0 0-29.229-70.564 99.797 99.797 0 0 0-70.563-29.228 99.797 99.797 0 0 0-70.564 29.228 99.797 99.797 0 0 0-29.228 70.564 99.797 99.797 0 0 0 29.228 70.564 99.797 99.797 0 0 0 70.564 29.228z" clip-path="url(#pef1ec36c3f)" style="fill:#5e4fa2"/><path id="patch_53" d="M769.158 1141.906a18.961 18.961 0 1 0-.001-37.923 18.961 18.961 0 0 0 0 37.923z" clip-path="url(#pef1ec36c3f)" style="fill:#ee6445"/><path id="patch_54" d="M608.525 480.626a17.963 17.963 0 1 0-.001-35.927 17.963 17.963 0 0 0 0 35.927z" clip-path="url(#pef1ec36c3f)" style="fill:#ea5e47"/><path id="patch_55" d="M1142.547 919.583a8.982 8.982 0 1 0 0-17.964 8.982 8.982 0 0 0 0 17.964z" clip-path="url(#pef1ec36c3f)" style="fill:#c9314c"/><path id="patch_56" d="M1143.545 399.773a7.984 7.984 0 1 0 0-15.968 7.984 7.984 0 0 0 0 15.968z" clip-path="url(#pef1ec36c3f)" style="fill:#c52c4b"/><path id="patch_57" d="M925.542 795.421a36.925 36.925 0 0 0 26.108-63.031 36.925 36.925 0 0 0-63.031 26.108 36.925 36.925 0 0 0 36.923 36.923z" clip-path="url(#pef1ec36c3f)" style="fill:#fece7c"/><path id="patch_58" d="M566.972 532.9a35.927 35.927 0 0 0 25.403-61.328 35.927 35.927 0 0 0-61.328 25.403 35.927 35.927 0 0 0 35.925 35.925z" clip-path="url(#pef1ec36c3f)" style="fill:#fec877"/><path id="patch_59" d="M566.912 624.1a34.929 34.929 0 0 0 24.698-59.624 34.929 34.929 0 0 0-59.625 24.698 34.929 34.929 0 0 0 34.927 34.927z" clip-path="url(#pef1ec36c3f)" style="fill:#fdc372"/><path id="patch_60" d="M951.944 364.02a28.941 28.941 0 0 0 20.464-49.404 28.941 28.941 0 0 0-49.403 20.464 28.941 28.941 0 0 0 28.94 28.94z" clip-path="url(#pef1ec36c3f)" style="fill:#fba35c"/><path id="patch_61" d="M967.173 742.49a14.97 14.97 0 1 0 0-29.939 14.97 14.97 0 0 0 0 29.94z" clip-path="url(#pef1ec36c3f)" style="fill:#e2514a"/><path id="patch_62" d="M702.696 946.305a79.837 79.837 0 0 0 79.834-79.833 79.837 79.837 0 0 0-79.834-79.834 79.837 79.837 0 0 0-79.834 79.834 79.837 79.837 0 0 0 79.834 79.833z" clip-path="url(#pef1ec36c3f)" style="fill:#66c2a5"/><path id="patch_63" d="M439.196 422.359a39.919 39.919 0 0 0 39.917-39.917 39.919 39.919 0 0 0-39.917-39.917 39.919 39.919 0 0 0-39.916 39.917 39.919 39.919 0 0 0 39.916 39.917z" clip-path="url(#pef1ec36c3f)" style="fill:#fedc88"/><path id="patch_64" d="M355.122 986.845a38.92 38.92 0 0 0 38.92-38.918 38.92 38.92 0 0 0-38.92-38.92 38.92 38.92 0 0 0-38.918 38.92 38.92 38.92 0 0 0 38.918 38.918z" clip-path="url(#pef1ec36c3f)" style="fill:#fed884"/><path id="patch_65" d="M796.901 853.51a19.96 19.96 0 1 0 0-39.92 19.96 19.96 0 0 0 0 39.92z" clip-path="url(#pef1ec36c3f)" style="fill:#f26944"/><path id="patch_66" d="M986.008 719.52a13.972 13.972 0 1 0 0-27.942 13.972 13.972 0 0 0 0 27.943z" clip-path="url(#pef1ec36c3f)" style="fill:#de4c4b"/><path id="patch_67" d="M1144.543 313.547a6.986 6.986 0 1 0 0-13.971 6.986 6.986 0 0 0 0 13.971z" clip-path="url(#pef1ec36c3f)" style="fill:#be254a"/><path id="patch_68" d="M795.502 879.426a12.974 12.974 0 1 0 0-25.948 12.974 12.974 0 0 0 0 25.948z" clip-path="url(#pef1ec36c3f)" style="fill:#dc484c"/><path id="patch_69" d="M561.783 1141.906a23.951 23.951 0 1 0 0-47.903 23.951 23.951 0 0 0 0 47.903z" clip-path="url(#pef1ec36c3f)" style="fill:#f7814c"/><path id="patch_70" d="M957.339 821.373a17.963 17.963 0 1 0 0-35.927 17.963 17.963 0 0 0 0 35.927z" clip-path="url(#pef1ec36c3f)" style="fill:#ea5e47"/><path id="patch_71" d="M724.342 177.915a11.976 11.976 0 1 0 0-23.951 11.976 11.976 0 0 0 0 23.95z" clip-path="url(#pef1ec36c3f)" style="fill:#d8434e"/><path id="patch_72" d="M1145.54 589.187a5.988 5.988 0 1 0 0-11.976 5.988 5.988 0 0 0 0 11.976z" clip-path="url(#pef1ec36c3f)" style="fill:#b81e48"/><path id="patch_73" d="M562.818 199.87a22.953 22.953 0 1 0-.001-45.907 22.953 22.953 0 0 0 0 45.906z" clip-path="url(#pef1ec36c3f)" style="fill:#f67a49"/><path id="patch_74" d="M1134.564 187.894a16.965 16.965 0 1 0 0-33.93 16.965 16.965 0 0 0 0 33.93z" clip-path="url(#pef1ec36c3f)" style="fill:#e85b48"/><path id="patch_75" d="M918.347 175.919a10.978 10.978 0 1 0 0-21.955 10.978 10.978 0 0 0 0 21.955z" clip-path="url(#pef1ec36c3f)" style="fill:#d43d4f"/><path id="patch_76" d="M724.227 447.778a25.947 25.947 0 0 0 0-51.892 25.947 25.947 0 0 0 0 51.892z" clip-path="url(#pef1ec36c3f)" style="fill:#f98e52"/><path id="patch_77" d="M382.659 439.185a24.95 24.95 0 0 0 0-49.896 24.95 24.95 0 0 0 0 49.896z" clip-path="url(#pef1ec36c3f)" style="fill:#f88950"/><path id="patch_78" d="M976.844 1141.906a14.97 14.97 0 1 0 0-29.94 14.97 14.97 0 0 0 0 29.94z" clip-path="url(#pef1ec36c3f)" style="fill:#e2514a"/><path id="patch_79" d="M173.567 927.083a9.98 9.98 0 1 0 0-19.96 9.98 9.98 0 0 0 0 19.96z" clip-path="url(#pef1ec36c3f)" style="fill:#d0384e"/><path id="patch_80" d="M1146.539 900.809a4.99 4.99 0 1 0 0-9.98 4.99 4.99 0 0 0 0 9.98z" clip-path="url(#pef1ec36c3f)" style="fill:#b41947"/><path id="patch_81" d="M699.412 786.696a13.972 13.972 0 1 0 0-27.943 13.972 13.972 0 0 0 0 27.943z" clip-path="url(#pef1ec36c3f)" style="fill:#de4c4b"/><path id="patch_82" d="M993.96 374.326a17.963 17.963 0 1 0 0-35.927 17.963 17.963 0 0 0 0 35.927z" clip-path="url(#pef1ec36c3f)" style="fill:#ea5e47"/><path id="patch_83" d="M796.279 1141.906a8.982 8.982 0 1 0 0-17.964 8.982 8.982 0 0 0 0 17.964z" clip-path="url(#pef1ec36c3f)" style="fill:#c9314c"/><path id="patch_84" d="M1138.555 793.518a12.974 12.974 0 1 0 0-25.947 12.974 12.974 0 0 0 0 25.947z" clip-path="url(#pef1ec36c3f)" style="fill:#dc484c"/><path id="patch_85" d="M179.554 185.898a15.967 15.967 0 1 0 0-31.935 15.967 15.967 0 0 0 0 31.935z" clip-path="url(#pef1ec36c3f)" style="fill:#e45549"/><path id="patch_86" d="M1139.553 711.465a11.976 11.976 0 1 0 0-23.951 11.976 11.976 0 0 0 0 23.95z" clip-path="url(#pef1ec36c3f)" style="fill:#d8434e"/><path id="patch_87" d="M1143.545 202.188a7.984 7.984 0 1 0 0-15.967 7.984 7.984 0 0 0 0 15.967z" clip-path="url(#pef1ec36c3f)" style="fill:#c52c4b"/><path id="patch_88" d="M167.58 933.718a3.992 3.992 0 1 0 0-7.984 3.992 3.992 0 0 0 0 7.984z" clip-path="url(#pef1ec36c3f)" style="fill:#ad1246"/><path id="patch_89" d="M190.531 781.577a26.945 26.945 0 0 0 19.053-45.996 26.945 26.945 0 0 0-45.996 19.052 26.945 26.945 0 0 0 26.943 26.944z" clip-path="url(#pef1ec36c3f)" style="fill:#fa9656"/><path id="patch_90" d="M985.373 783.742a22.953 22.953 0 1 0-.001-45.906 22.953 22.953 0 0 0 0 45.906z" clip-path="url(#pef1ec36c3f)" style="fill:#f67a49"/><path id="patch_91" d="M796.196 917.34a18.961 18.961 0 1 0-.001-37.924 18.961 18.961 0 0 0 0 37.923z" clip-path="url(#pef1ec36c3f)" style="fill:#ee6445"/><path id="patch_92" d="M735.464 1141.906a14.97 14.97 0 1 0 0-29.94 14.97 14.97 0 0 0 0 29.94z" clip-path="url(#pef1ec36c3f)" style="fill:#e2514a"/><path id="patch_93" d="M174.565 595.709a10.978 10.978 0 1 0 0-21.955 10.978 10.978 0 0 0 0 21.955z" clip-path="url(#pef1ec36c3f)" style="fill:#d43d4f"/><path id="patch_94" d="M883.562 383.492a16.965 16.965 0 1 0 0-33.93 16.965 16.965 0 0 0 0 33.93z" clip-path="url(#pef1ec36c3f)" style="fill:#e85b48"/><path id="patch_95" d="M377.113 467.905a13.972 13.972 0 1 0 0-27.943 13.972 13.972 0 0 0 0 27.943z" clip-path="url(#pef1ec36c3f)" style="fill:#de4c4b"/><path id="patch_96" d="M1144.543 998.82a6.986 6.986 0 1 0 0-13.97 6.986 6.986 0 0 0 0 13.97z" clip-path="url(#pef1ec36c3f)" style="fill:#be254a"/><path id="patch_97" d="M444.979 942.685a97.8 97.8 0 0 0 69.152-28.644 97.8 97.8 0 0 0 28.644-69.152 97.8 97.8 0 0 0-28.644-69.153 97.8 97.8 0 0 0-69.152-28.644 97.8 97.8 0 0 0-69.152 28.644 97.8 97.8 0 0 0-28.644 69.153 97.8 97.8 0 0 0 28.644 69.152 97.8 97.8 0 0 0 69.152 28.644z" clip-path="url(#pef1ec36c3f)" style="fill:#555aa7"/><path id="patch_98" d="M328.748 173.923a9.98 9.98 0 1 0 0-19.96 9.98 9.98 0 0 0 0 19.96z" clip-path="url(#pef1ec36c3f)" style="fill:#d0384e"/><path id="patch_99" d="M755.257 991.106a28.941 28.941 0 0 0 20.464-49.404 28.941 28.941 0 0 0-49.404 20.464 28.941 28.941 0 0 0 28.94 28.94z" clip-path="url(#pef1ec36c3f)" style="fill:#fba35c"/><path id="patch_100" d="M528.306 179.91a12.974 12.974 0 1 0 0-25.946 12.974 12.974 0 0 0 0 25.947z" clip-path="url(#pef1ec36c3f)" style="fill:#dc484c"/><path id="patch_101" d="M775.104 445.46a24.95 24.95 0 0 0 0-49.895 24.95 24.95 0 0 0 0 49.896z" clip-path="url(#pef1ec36c3f)" style="fill:#f88950"/><path id="patch_102" d="M805.383 480.5a21.955 21.955 0 1 0-.001-43.91 21.955 21.955 0 0 0 0 43.91z" clip-path="url(#pef1ec36c3f)" style="fill:#f57547"/><path id="patch_103" d="M1066.706 758.403a18.961 18.961 0 1 0-.001-37.922 18.961 18.961 0 0 0 0 37.922z" clip-path="url(#pef1ec36c3f)" style="fill:#ee6445"/><path id="patch_104" d="M556.434 312.024a14.97 14.97 0 1 0 0-29.94 14.97 14.97 0 0 0 0 29.94z" clip-path="url(#pef1ec36c3f)" style="fill:#e2514a"/><path id="patch_105" d="M175.563 333.525a11.976 11.976 0 1 0 0-23.95 11.976 11.976 0 0 0 0 23.95z" clip-path="url(#pef1ec36c3f)" style="fill:#d8434e"/><path id="patch_106" d="M1142.547 517.403a8.982 8.982 0 1 0 0-17.963 8.982 8.982 0 0 0 0 17.963z" clip-path="url(#pef1ec36c3f)" style="fill:#c9314c"/><path id="patch_107" d="M799.95 165.94a5.988 5.988 0 1 0 0-11.976 5.988 5.988 0 0 0 0 11.976z" clip-path="url(#pef1ec36c3f)" style="fill:#b81e48"/><path id="patch_108" d="M1148.535 957.541a2.994 2.994 0 1 0 0-5.987 2.994 2.994 0 0 0 0 5.987z" clip-path="url(#pef1ec36c3f)" style="fill:#a90d45"/><path id="patch_109" d="M202.135 169.932a7.984 7.984 0 1 0 0-15.968 7.984 7.984 0 0 0 0 15.968z" clip-path="url(#pef1ec36c3f)" style="fill:#c52c4b"/><path id="patch_110" d="M528.464 643.455a17.963 17.963 0 1 0 0-35.927 17.963 17.963 0 0 0 0 35.927z" clip-path="url(#pef1ec36c3f)" style="fill:#ea5e47"/><path id="patch_111" d="M956.6 1003.836a12.974 12.974 0 1 0 0-25.947 12.974 12.974 0 0 0 0 25.947z" clip-path="url(#pef1ec36c3f)" style="fill:#dc484c"/><path id="patch_112" d="M696.094 674.658a14.97 14.97 0 1 0 0-29.94 14.97 14.97 0 0 0 0 29.94z" clip-path="url(#pef1ec36c3f)" style="fill:#e2514a"/><path id="patch_113" d="M592.702 1141.906a9.98 9.98 0 1 0 0-19.96 9.98 9.98 0 0 0 0 19.96z" clip-path="url(#pef1ec36c3f)" style="fill:#d0384e"/><path id="patch_114" d="M1146.539 211.817a4.99 4.99 0 1 0 0-9.98 4.99 4.99 0 0 0 0 9.98z" clip-path="url(#pef1ec36c3f)" style="fill:#b41947"/><path id="patch_115" d="M509.267 167.936a6.986 6.986 0 1 0 0-13.972 6.986 6.986 0 0 0 0 13.972z" clip-path="url(#pef1ec36c3f)" style="fill:#be254a"/><path id="patch_116" d="M503.192 668.988a17.963 17.963 0 1 0-.001-35.927 17.963 17.963 0 0 0 0 35.927z" clip-path="url(#pef1ec36c3f)" style="fill:#ea5e47"/><path id="patch_117" d="M179.554 1141.906a15.967 15.967 0 1 0 0-31.935 15.967 15.967 0 0 0 0 31.935z" clip-path="url(#pef1ec36c3f)" style="fill:#e45549"/><path id="patch_118" d="M916.03 1141.906a8.982 8.982 0 1 0-.001-17.964 8.982 8.982 0 0 0 0 17.964z" clip-path="url(#pef1ec36c3f)" style="fill:#c9314c"/><path id="patch_119" d="M174.565 529.014a10.978 10.978 0 1 0 0-21.955 10.978 10.978 0 0 0 0 21.955z" clip-path="url(#pef1ec36c3f)" style="fill:#d43d4f"/><path id="patch_120" d="M910.069 365.584a12.974 12.974 0 1 0 0-25.947 12.974 12.974 0 0 0 0 25.947z" clip-path="url(#pef1ec36c3f)" style="fill:#dc484c"/><path id="patch_121" d="M776.302 938.593a13.972 13.972 0 1 0 0-27.943 13.972 13.972 0 0 0 0 27.943z" clip-path="url(#pef1ec36c3f)" style="fill:#de4c4b"/><path id="patch_122" d="M526.091 1141.906a11.976 11.976 0 1 0 0-23.952 11.976 11.976 0 0 0 0 23.952z" clip-path="url(#pef1ec36c3f)" style="fill:#d8434e"/><path id="patch_123" d="M173.567 992.926a9.98 9.98 0 1 0 0-19.959 9.98 9.98 0 0 0 0 19.96z" clip-path="url(#pef1ec36c3f)" style="fill:#d0384e"/><path id="patch_124" d="M1111.288 169.932a7.984 7.984 0 1 0 0-15.968 7.984 7.984 0 0 0 0 15.968z" clip-path="url(#pef1ec36c3f)" style="fill:#c52c4b"/><path id="patch_125" d="M169.575 608.026a5.988 5.988 0 1 0 0-11.976 5.988 5.988 0 0 0 0 11.976z" clip-path="url(#pef1ec36c3f)" style="fill:#b81e48"/><path id="patch_126" d="M1147.537 770.144a3.992 3.992 0 1 0 0-7.983 3.992 3.992 0 0 0 0 7.983z" clip-path="url(#pef1ec36c3f)" style="fill:#ad1246"/><path id="patch_127" d="M1149.533 157.956a1.996 1.996 0 1 0 0-3.991 1.996 1.996 0 0 0 0 3.991z" clip-path="url(#pef1ec36c3f)" style="fill:#a20643"/><path id="patch_128" d="M326.749 1141.906a10.978 10.978 0 1 0 0-21.956 10.978 10.978 0 0 0 0 21.956z" clip-path="url(#pef1ec36c3f)" style="fill:#d43d4f"/><path id="patch_129" d="M1011.192 955.153a8.982 8.982 0 1 0 0-17.963 8.982 8.982 0 0 0 0 17.963z" clip-path="url(#pef1ec36c3f)" style="fill:#c9314c"/><path id="patch_130" d="M997.296 1141.906a6.986 6.986 0 1 0 0-13.972 6.986 6.986 0 0 0 0 13.972z" clip-path="url(#pef1ec36c3f)" style="fill:#be254a"/><path id="patch_131" d="M557.76 982.445a46.904 46.904 0 0 0 46.902-46.902 46.904 46.904 0 0 0-46.903-46.902 46.904 46.904 0 0 0-46.902 46.902 46.904 46.904 0 0 0 46.902 46.902z" clip-path="url(#pef1ec36c3f)" style="fill:#fff3ac"/><path id="patch_132" d="M810.777 379.901a16.965 16.965 0 1 0 0-33.93 16.965 16.965 0 0 0 0 33.93z" clip-path="url(#pef1ec36c3f)" style="fill:#e85b48"/><path id="patch_133" d="M757.347 1106.328a11.976 11.976 0 1 0 0-23.951 11.976 11.976 0 0 0 0 23.951z" clip-path="url(#pef1ec36c3f)" style="fill:#d8434e"/><path id="patch_134" d="M394.421 173.923a9.98 9.98 0 1 0 0-19.96 9.98 9.98 0 0 0 0 19.96z" clip-path="url(#pef1ec36c3f)" style="fill:#d0384e"/><path id="patch_135" d="M1098.666 163.944a4.99 4.99 0 1 0 0-9.98 4.99 4.99 0 0 0 0 9.98z" clip-path="url(#pef1ec36c3f)" style="fill:#b41947"/><path id="patch_136" d="M171.571 200.495a7.984 7.984 0 1 0 0-15.967 7.984 7.984 0 0 0 0 15.967z" clip-path="url(#pef1ec36c3f)" style="fill:#c52c4b"/><path id="patch_137" d="M795.065 960.115a13.972 13.972 0 1 0 0-27.943 13.972 13.972 0 0 0 0 27.943z" clip-path="url(#pef1ec36c3f)" style="fill:#de4c4b"/><path id="patch_138" d="M174.565 800.006a10.978 10.978 0 1 0 0-21.955 10.978 10.978 0 0 0 0 21.955z" clip-path="url(#pef1ec36c3f)" style="fill:#d43d4f"/><path id="patch_139" d="M321.467 565.286a14.97 14.97 0 1 0-.001-29.94 14.97 14.97 0 0 0 0 29.94z" clip-path="url(#pef1ec36c3f)" style="fill:#e2514a"/><path id="patch_140" d="M794.517 502.663a11.976 11.976 0 1 0 0-23.95 11.976 11.976 0 0 0 0 23.95z" clip-path="url(#pef1ec36c3f)" style="fill:#d8434e"/><path id="patch_141" d="M951.997 306.14a8.982 8.982 0 1 0 0-17.963 8.982 8.982 0 0 0 0 17.963z" clip-path="url(#pef1ec36c3f)" style="fill:#c9314c"/><path id="patch_142" d="M169.575 815.662a5.988 5.988 0 1 0 0-11.975 5.988 5.988 0 0 0 0 11.975z" clip-path="url(#pef1ec36c3f)" style="fill:#b81e48"/><path id="patch_143" d="M973.576 159.952a2.994 2.994 0 1 0 0-5.987 2.994 2.994 0 0 0 0 5.987z" clip-path="url(#pef1ec36c3f)" style="fill:#a90d45"/><path id="patch_144" d="M390.097 1141.906a9.98 9.98 0 1 0 0-19.96 9.98 9.98 0 0 0 0 19.96z" clip-path="url(#pef1ec36c3f)" style="fill:#d0384e"/><path id="patch_145" d="M797.322 616.005a13.972 13.972 0 1 0 0-27.943 13.972 13.972 0 0 0 0 27.943z" clip-path="url(#pef1ec36c3f)" style="fill:#de4c4b"/><path id="patch_146" d="M1144.543 806.57a6.986 6.986 0 1 0 0-13.972 6.986 6.986 0 0 0 0 13.971z" clip-path="url(#pef1ec36c3f)" style="fill:#be254a"/><path id="patch_147" d="M583.404 557.311a10.978 10.978 0 1 0 0-21.955 10.978 10.978 0 0 0 0 21.955z" clip-path="url(#pef1ec36c3f)" style="fill:#d43d4f"/><path id="patch_148" d="M820.811 947.9a14.97 14.97 0 1 0 0-29.94 14.97 14.97 0 0 0 0 29.94z" clip-path="url(#pef1ec36c3f)" style="fill:#e2514a"/><path id="patch_149" d="M1109.616 1141.906a7.984 7.984 0 1 0 0-15.968 7.984 7.984 0 0 0 0 15.968z" clip-path="url(#pef1ec36c3f)" style="fill:#c52c4b"/><path id="patch_150" d="M494.843 161.948a3.992 3.992 0 1 0 0-7.984 3.992 3.992 0 0 0 0 7.984z" clip-path="url(#pef1ec36c3f)" style="fill:#ad1246"/><path id="patch_151" d="M965.322 1114.922a8.982 8.982 0 1 0 0-17.964 8.982 8.982 0 0 0 0 17.964z" clip-path="url(#pef1ec36c3f)" style="fill:#c9314c"/><path id="patch_152" d="M173.567 395.873a9.98 9.98 0 1 0 0-19.96 9.98 9.98 0 0 0 0 19.96z" clip-path="url(#pef1ec36c3f)" style="fill:#d0384e"/><path id="patch_153" d="M217.977 163.944a4.99 4.99 0 1 0 0-9.98 4.99 4.99 0 0 0 0 9.98z" clip-path="url(#pef1ec36c3f)" style="fill:#b41947"/><path id="patch_154" d="M174.565 728.098a10.978 10.978 0 1 0 0-21.955 10.978 10.978 0 0 0 0 21.955z" clip-path="url(#pef1ec36c3f)" style="fill:#d43d4f"/><path id="patch_155" d="M313.288 165.94a5.988 5.988 0 1 0 0-11.976 5.988 5.988 0 0 0 0 11.976z" clip-path="url(#pef1ec36c3f)" style="fill:#b81e48"/><path id="patch_156" d="M1144.543 687.193a6.986 6.986 0 1 0 0-13.971 6.986 6.986 0 0 0 0 13.971z" clip-path="url(#pef1ec36c3f)" style="fill:#be254a"/><path id="patch_157" d="M1143.545 1107.976a7.984 7.984 0 1 0 0-15.967 7.984 7.984 0 0 0 0 15.967z" clip-path="url(#pef1ec36c3f)" style="fill:#c52c4b"/><path id="patch_158" d="M717.951 964.344a8.982 8.982 0 1 0 0-17.963 8.982 8.982 0 0 0 0 17.963z" clip-path="url(#pef1ec36c3f)" style="fill:#c9314c"/><path id="patch_159" d="M594.762 173.923a9.98 9.98 0 1 0 0-19.96 9.98 9.98 0 0 0 0 19.96z" clip-path="url(#pef1ec36c3f)" style="fill:#d0384e"/><path id="patch_160" d="M1104.802 364.098a11.976 11.976 0 1 0 0-23.951 11.976 11.976 0 0 0 0 23.951z" clip-path="url(#pef1ec36c3f)" style="fill:#d8434e"/><path id="patch_161" d="M558.528 1094.162a9.98 9.98 0 1 0 0-19.96 9.98 9.98 0 0 0 0 19.96z" clip-path="url(#pef1ec36c3f)" style="fill:#d0384e"/><path id="patch_162" d="M779.731 484.819a8.982 8.982 0 1 0 0-17.964 8.982 8.982 0 0 0 0 17.964z" clip-path="url(#pef1ec36c3f)" style="fill:#c9314c"/><path id="patch_163" d="M171.571 1108.688a7.984 7.984 0 1 0 0-15.967 7.984 7.984 0 0 0 0 15.967z" clip-path="url(#pef1ec36c3f)" style="fill:#c52c4b"/><path id="patch_164" d="M715.013 1141.906a6.986 6.986 0 1 0 0-13.972 6.986 6.986 0 0 0 0 13.972z" clip-path="url(#pef1ec36c3f)" style="fill:#be254a"/><path id="patch_165" d="M169.575 705.802a5.988 5.988 0 1 0 0-11.976 5.988 5.988 0 0 0 0 11.976z" clip-path="url(#pef1ec36c3f)" style="fill:#b81e48"/><path id="patch_166" d="M902.64 1141.906a4.99 4.99 0 1 0 0-9.98 4.99 4.99 0 0 0 0 9.98z" clip-path="url(#pef1ec36c3f)" style="fill:#b41947"/><path id="patch_167" d="M1147.537 299.992a3.992 3.992 0 1 0 0-7.983 3.992 3.992 0 0 0 0 7.983z" clip-path="url(#pef1ec36c3f)" style="fill:#ad1246"/><path id="patch_168" d="M338.214 1141.906a2.994 2.994 0 1 0 0-5.988 2.994 2.994 0 0 0 0 5.988z" clip-path="url(#pef1ec36c3f)" style="fill:#a90d45"/><path id="patch_169" d="M1149.533 1141.906a1.996 1.996 0 1 0 0-3.992 1.996 1.996 0 0 0 0 3.992z" clip-path="url(#pef1ec36c3f)" style="fill:#a20643"/><path id="patch_170" d="M1150.53 163.698a.998.998 0 1 0 0-1.996.998.998 0 0 0 0 1.996z" clip-path="url(#pef1ec36c3f)" style="fill:#9e0142"/><path id="patch_171" d="M558.033 1006.395a11.976 11.976 0 1 0 0-23.952 11.976 11.976 0 0 0 0 23.952z" clip-path="url(#pef1ec36c3f)" style="fill:#d8434e"/><path id="patch_172" d="M311.188 362.06a10.978 10.978 0 1 0 0-21.955 10.978 10.978 0 0 0 0 21.955z" clip-path="url(#pef1ec36c3f)" style="fill:#d43d4f"/><path id="patch_173" d="M355.622 1006.801a9.98 9.98 0 1 0 0-19.959 9.98 9.98 0 0 0 0 19.96z" clip-path="url(#pef1ec36c3f)" style="fill:#d0384e"/><path id="patch_174" d="M418.762 452.491a16.965 16.965 0 1 0 0-33.93 16.965 16.965 0 0 0 0 33.93z" clip-path="url(#pef1ec36c3f)" style="fill:#e85b48"/><path id="patch_175" d="M991.12 736.907a8.982 8.982 0 1 0 0-17.964 8.982 8.982 0 0 0 0 17.964z" clip-path="url(#pef1ec36c3f)" style="fill:#c9314c"/><path id="patch_176" d="M204.788 1141.906a7.984 7.984 0 1 0 0-15.968 7.984 7.984 0 0 0 0 15.968z" clip-path="url(#pef1ec36c3f)" style="fill:#c52c4b"/><path id="patch_177" d="M753.746 219.298a6.986 6.986 0 1 0 0-13.971 6.986 6.986 0 0 0 0 13.971z" clip-path="url(#pef1ec36c3f)" style="fill:#be254a"/><path id="patch_178" d="M406.255 749.704a50.896 50.896 0 0 0 50.894-50.894 50.896 50.896 0 0 0-50.894-50.894 50.896 50.896 0 0 0-50.894 50.894 50.896 50.896 0 0 0 50.894 50.894z" clip-path="url(#pef1ec36c3f)" style="fill:#fefebd"/><path id="patch_179" d="M796.148 399.881a11.976 11.976 0 1 0 0-23.95 11.976 11.976 0 0 0 0 23.95z" clip-path="url(#pef1ec36c3f)" style="fill:#d8434e"/><path id="patch_180" d="M766.08 165.94a5.988 5.988 0 1 0-.001-11.976 5.988 5.988 0 0 0 0 11.976z" clip-path="url(#pef1ec36c3f)" style="fill:#b81e48"/><path id="patch_181" d="M304.591 957.792a10.978 10.978 0 1 0 0-21.955 10.978 10.978 0 0 0 0 21.955z" clip-path="url(#pef1ec36c3f)" style="fill:#d43d4f"/><path id="patch_182" d="M450.69 451.08a14.97 14.97 0 1 0 0-29.94 14.97 14.97 0 0 0 0 29.94z" clip-path="url(#pef1ec36c3f)" style="fill:#e2514a"/><path id="patch_183" d="M403.902 954.508a9.98 9.98 0 1 0 0-19.959 9.98 9.98 0 0 0 0 19.96z" clip-path="url(#pef1ec36c3f)" style="fill:#d0384e"/><path id="patch_184" d="M811.526 1141.906a4.99 4.99 0 1 0 0-9.98 4.99 4.99 0 0 0 0 9.98z" clip-path="url(#pef1ec36c3f)" style="fill:#b41947"/><path id="patch_185" d="M604.703 620.511a8.982 8.982 0 1 0 0-17.963 8.982 8.982 0 0 0 0 17.963z" clip-path="url(#pef1ec36c3f)" style="fill:#c9314c"/><path id="patch_186" d="M888.103 442.764a7.984 7.984 0 1 0 0-15.967 7.984 7.984 0 0 0 0 15.967z" clip-path="url(#pef1ec36c3f)" style="fill:#c52c4b"/><path id="patch_187" d="M167.58 575.085a3.992 3.992 0 1 0 0-7.984 3.992 3.992 0 0 0 0 7.984z" clip-path="url(#pef1ec36c3f)" style="fill:#ad1246"/><path id="patch_188" d="M499.968 949.716a10.978 10.978 0 1 0 0-21.956 10.978 10.978 0 0 0 0 21.956z" clip-path="url(#pef1ec36c3f)" style="fill:#d43d4f"/><path id="patch_189" d="M902.648 728.016a6.986 6.986 0 1 0 0-13.972 6.986 6.986 0 0 0 0 13.972z" clip-path="url(#pef1ec36c3f)" style="fill:#be254a"/><path id="patch_190" d="M526.287 482.824a12.974 12.974 0 1 0 0-25.947 12.974 12.974 0 0 0 0 25.947z" clip-path="url(#pef1ec36c3f)" style="fill:#dc484c"/><path id="patch_191" d="M1102.486 956.164a9.98 9.98 0 1 0 0-19.96 9.98 9.98 0 0 0 0 19.96z" clip-path="url(#pef1ec36c3f)" style="fill:#d0384e"/><path id="patch_192" d="M219.702 360.705a8.982 8.982 0 1 0 0-17.964 8.982 8.982 0 0 0 0 17.964z" clip-path="url(#pef1ec36c3f)" style="fill:#c9314c"/><path id="patch_193" d="M608.162 1141.906a5.988 5.988 0 1 0 0-11.976 5.988 5.988 0 0 0 0 11.976z" clip-path="url(#pef1ec36c3f)" style="fill:#b81e48"/><path id="patch_194" d="M1148.535 222.182a2.994 2.994 0 1 0 0-5.988 2.994 2.994 0 0 0 0 5.988z" clip-path="url(#pef1ec36c3f)" style="fill:#a90d45"/><path id="patch_195" d="M222.672 559.118a7.984 7.984 0 1 0 0-15.968 7.984 7.984 0 0 0 0 15.968z" clip-path="url(#pef1ec36c3f)" style="fill:#c52c4b"/><path id="patch_196" d="M576.162 890.763a33.93 33.93 0 0 0 23.991-57.92 33.93 33.93 0 0 0-57.92 23.99 33.93 33.93 0 0 0 33.929 33.93z" clip-path="url(#pef1ec36c3f)" style="fill:#fdbf6f"/><path id="patch_197" d="M1009.103 1141.906a4.99 4.99 0 1 0 0-9.98 4.99 4.99 0 0 0 0 9.98z" clip-path="url(#pef1ec36c3f)" style="fill:#b41947"/><path id="patch_198" d="M543.276 888.162a6.986 6.986 0 1 0 0-13.971 6.986 6.986 0 0 0 0 13.971z" clip-path="url(#pef1ec36c3f)" style="fill:#be254a"/><path id="patch_199" d="M633.528 360.956a8.982 8.982 0 1 0 0-17.963 8.982 8.982 0 0 0 0 17.963z" clip-path="url(#pef1ec36c3f)" style="fill:#c9314c"/><path id="patch_200" d="M772.477 468.221a10.978 10.978 0 1 0 0-21.955 10.978 10.978 0 0 0 0 21.955z" clip-path="url(#pef1ec36c3f)" style="fill:#d43d4f"/><path id="patch_201" d="M344.759 788.705a32.933 32.933 0 0 0 23.286-56.217 32.933 32.933 0 0 0-56.218 23.286 32.933 32.933 0 0 0 32.932 32.931z" clip-path="url(#pef1ec36c3f)" style="fill:#fdb96a"/><path id="patch_202" d="M616.767 844.383a12.974 12.974 0 1 0 0-25.947 12.974 12.974 0 0 0 0 25.947z" clip-path="url(#pef1ec36c3f)" style="fill:#dc484c"/><path id="patch_203" d="M1025.86 759.031a21.955 21.955 0 1 0-.001-43.91 21.955 21.955 0 0 0 0 43.91z" clip-path="url(#pef1ec36c3f)" style="fill:#f57547"/><path id="patch_204" d="M218.23 957.163a7.984 7.984 0 1 0 0-15.968 7.984 7.984 0 0 0 0 15.968z" clip-path="url(#pef1ec36c3f)" style="fill:#c52c4b"/><path id="patch_205" d="M741.277 165.94a5.988 5.988 0 1 0 0-11.976 5.988 5.988 0 0 0 0 11.976z" clip-path="url(#pef1ec36c3f)" style="fill:#b81e48"/><path id="patch_206" d="M303.51 161.948a3.992 3.992 0 1 0 0-7.984 3.992 3.992 0 0 0 0 7.984z" clip-path="url(#pef1ec36c3f)" style="fill:#ad1246"/><path id="patch_207" d="M165.583 1141.906a1.996 1.996 0 1 0 0-3.992 1.996 1.996 0 0 0 0 3.992z" clip-path="url(#pef1ec36c3f)" style="fill:#a20643"/><path id="patch_208" d="M467.728 684.593a18.961 18.961 0 1 0-.001-37.923 18.961 18.961 0 0 0 0 37.923z" clip-path="url(#pef1ec36c3f)" style="fill:#ee6445"/><path id="patch_209" d="M886.909 662.724a10.978 10.978 0 1 0 0-21.956 10.978 10.978 0 0 0 0 21.956z" clip-path="url(#pef1ec36c3f)" style="fill:#d43d4f"/><path id="patch_210" d="M477.9 725.187a20.957 20.957 0 1 0 0-41.914 20.957 20.957 0 0 0 0 41.914z" clip-path="url(#pef1ec36c3f)" style="fill:#f46d43"/><path id="patch_211" d="M476.256 359.524a8.982 8.982 0 1 0 0-17.964 8.982 8.982 0 0 0 0 17.964z" clip-path="url(#pef1ec36c3f)" style="fill:#c9314c"/><path id="patch_212" d="M350.173 720.108a6.986 6.986 0 1 0 0-13.972 6.986 6.986 0 0 0 0 13.972z" clip-path="url(#pef1ec36c3f)" style="fill:#be254a"/><path id="patch_213" d="M550.173 831.422a9.98 9.98 0 1 0 0-19.96 9.98 9.98 0 0 0 0 19.96z" clip-path="url(#pef1ec36c3f)" style="fill:#d0384e"/><path id="patch_214" d="M168.577 907.98a4.99 4.99 0 1 0 0-9.98 4.99 4.99 0 0 0 0 9.98z" clip-path="url(#pef1ec36c3f)" style="fill:#b41947"/><path id="patch_215" d="M696.907 353.386a7.984 7.984 0 1 0 0-15.968 7.984 7.984 0 0 0 0 15.968z" clip-path="url(#pef1ec36c3f)" style="fill:#c52c4b"/><path id="patch_216" d="M1001.256 165.94a5.988 5.988 0 1 0 0-11.976 5.988 5.988 0 0 0 0 11.976z" clip-path="url(#pef1ec36c3f)" style="fill:#b81e48"/><path id="patch_217" d="M166.581 821.136a2.994 2.994 0 1 0 0-5.988 2.994 2.994 0 0 0 0 5.988z" clip-path="url(#pef1ec36c3f)" style="fill:#a90d45"/><path id="patch_218" d="M800.05 932.776a6.986 6.986 0 1 0 0-13.972 6.986 6.986 0 0 0 0 13.972z" clip-path="url(#pef1ec36c3f)" style="fill:#be254a"/><path id="patch_219" d="M669.015 446.712a10.978 10.978 0 1 0 0-21.955 10.978 10.978 0 0 0 0 21.955z" clip-path="url(#pef1ec36c3f)" style="fill:#d43d4f"/><path id="patch_220" d="M922.787 961.398a11.976 11.976 0 1 0 0-23.952 11.976 11.976 0 0 0 0 23.952z" clip-path="url(#pef1ec36c3f)" style="fill:#d8434e"/><path id="patch_221" d="M358.53 1094.012a7.984 7.984 0 1 0 0-15.967 7.984 7.984 0 0 0 0 15.967z" clip-path="url(#pef1ec36c3f)" style="fill:#c52c4b"/><path id="patch_222" d="M756.302 161.948a3.992 3.992 0 1 0 0-7.984 3.992 3.992 0 0 0 0 7.984z" clip-path="url(#pef1ec36c3f)" style="fill:#ad1246"/><path id="patch_223" d="M386.67 764.373a8.982 8.982 0 1 0 0-17.964 8.982 8.982 0 0 0 0 17.964z" clip-path="url(#pef1ec36c3f)" style="fill:#c9314c"/><path id="patch_224" d="M362.29 305.75a9.98 9.98 0 1 0 0-19.96 9.98 9.98 0 0 0 0 19.96z" clip-path="url(#pef1ec36c3f)" style="fill:#d0384e"/><path id="patch_225" d="M612.874 163.944a4.99 4.99 0 1 0 0-9.98 4.99 4.99 0 0 0 0 9.98z" clip-path="url(#pef1ec36c3f)" style="fill:#b41947"/><path id="patch_226" d="M505.841 1141.906a5.988 5.988 0 1 0 0-11.976 5.988 5.988 0 0 0 0 11.976z" clip-path="url(#pef1ec36c3f)" style="fill:#b81e48"/><path id="patch_227" d="M412.052 347.594a6.986 6.986 0 1 0 0-13.971 6.986 6.986 0 0 0 0 13.971z" clip-path="url(#pef1ec36c3f)" style="fill:#be254a"/><path id="patch_228" d="M555.714 282.098a7.984 7.984 0 1 0 0-15.968 7.984 7.984 0 0 0 0 15.968z" clip-path="url(#pef1ec36c3f)" style="fill:#c52c4b"/><path id="patch_229" d="M966.938 909.9a8.982 8.982 0 1 0 0-17.964 8.982 8.982 0 0 0 0 17.964z" clip-path="url(#pef1ec36c3f)" style="fill:#c9314c"/><path id="patch_230" d="M955.582 1098.61a9.98 9.98 0 1 0 0-19.96 9.98 9.98 0 0 0 0 19.96z" clip-path="url(#pef1ec36c3f)" style="fill:#d0384e"/><path id="patch_231" d="M376.618 655.476a10.978 10.978 0 1 0 0-21.955 10.978 10.978 0 0 0 0 21.955z" clip-path="url(#pef1ec36c3f)" style="fill:#d43d4f"/><path id="patch_232" d="M555.974 223.142a11.976 11.976 0 1 0 0-23.951 11.976 11.976 0 0 0 0 23.951z" clip-path="url(#pef1ec36c3f)" style="fill:#d8434e"/><path id="patch_233" d="M606.806 912.178a15.967 15.967 0 1 0-.001-31.935 15.967 15.967 0 0 0 0 31.935z" clip-path="url(#pef1ec36c3f)" style="fill:#e45549"/><path id="patch_234" d="M751.11 460.552a11.976 11.976 0 1 0 0-23.951 11.976 11.976 0 0 0 0 23.95z" clip-path="url(#pef1ec36c3f)" style="fill:#d8434e"/><path id="patch_235" d="M350.207 909.25a10.978 10.978 0 1 0 0-21.955 10.978 10.978 0 0 0 0 21.955z" clip-path="url(#pef1ec36c3f)" style="fill:#d43d4f"/><path id="patch_236" d="M956.2 463.564a9.98 9.98 0 1 0 0-19.96 9.98 9.98 0 0 0 0 19.96z" clip-path="url(#pef1ec36c3f)" style="fill:#d0384e"/><path id="patch_237" d="M308.535 1141.906a5.988 5.988 0 1 0 0-11.976 5.988 5.988 0 0 0 0 11.976z" clip-path="url(#pef1ec36c3f)" style="fill:#b81e48"/><path id="patch_238" d="M168.577 1002.05a4.99 4.99 0 1 0 0-9.98 4.99 4.99 0 0 0 0 9.98z" clip-path="url(#pef1ec36c3f)" style="fill:#b41947"/><path id="patch_239" d="M581.961 161.948a3.992 3.992 0 1 0 0-7.984 3.992 3.992 0 0 0 0 7.984z" clip-path="url(#pef1ec36c3f)" style="fill:#ad1246"/><path id="patch_240" d="M1148.535 291.32a2.994 2.994 0 1 0 0-5.988 2.994 2.994 0 0 0 0 5.988z" clip-path="url(#pef1ec36c3f)" style="fill:#a90d45"/><path id="patch_241" d="M165.583 157.956a1.996 1.996 0 1 0 0-3.991 1.996 1.996 0 0 0 0 3.991z" clip-path="url(#pef1ec36c3f)" style="fill:#a20643"/><path id="patch_242" d="M1142.793 155.96a.998.998 0 1 0 0-1.995.998.998 0 0 0 0 1.996z" clip-path="url(#pef1ec36c3f)" style="fill:#9e0142"/><path id="patch_243" d="M754.29 1007.06a7.984 7.984 0 1 0 0-15.968 7.984 7.984 0 0 0 0 15.968z" clip-path="url(#pef1ec36c3f)" style="fill:#c52c4b"/><path id="patch_244" d="M978.516 797.208a6.986 6.986 0 1 0 0-13.972 6.986 6.986 0 0 0 0 13.972z" clip-path="url(#pef1ec36c3f)" style="fill:#be254a"/><path id="patch_245" d="M901.04 165.94a5.988 5.988 0 1 0 0-11.976 5.988 5.988 0 0 0 0 11.976z" clip-path="url(#pef1ec36c3f)" style="fill:#b81e48"/><path id="patch_246" d="M168.577 210.124a4.99 4.99 0 1 0 0-9.98 4.99 4.99 0 0 0 0 9.98z" clip-path="url(#pef1ec36c3f)" style="fill:#b41947"/><path id="patch_247" d="M1098.837 546.675a7.984 7.984 0 1 0 0-15.968 7.984 7.984 0 0 0 0 15.968z" clip-path="url(#pef1ec36c3f)" style="fill:#c52c4b"/><path id="patch_248" d="M1098.326 1141.906a3.992 3.992 0 1 0 0-7.984 3.992 3.992 0 0 0 0 7.984z" clip-path="url(#pef1ec36c3f)" style="fill:#ad1246"/><path id="patch_249" d="M228.426 767.013a10.978 10.978 0 1 0 0-21.955 10.978 10.978 0 0 0 0 21.955z" clip-path="url(#pef1ec36c3f)" style="fill:#d43d4f"/><path id="patch_250" d="M617.202 858.349a6.986 6.986 0 1 0 0-13.972 6.986 6.986 0 0 0 0 13.972z" clip-path="url(#pef1ec36c3f)" style="fill:#be254a"/><path id="patch_251" d="M689.412 440.675a9.98 9.98 0 1 0 0-19.96 9.98 9.98 0 0 0 0 19.96z" clip-path="url(#pef1ec36c3f)" style="fill:#d0384e"/><path id="patch_252" d="M460.119 746.1a12.974 12.974 0 1 0 0-25.947 12.974 12.974 0 0 0 0 25.947z" clip-path="url(#pef1ec36c3f)" style="fill:#dc484c"/><path id="patch_253" d="M884.13 787.286a8.982 8.982 0 1 0 0-17.964 8.982 8.982 0 0 0 0 17.964z" clip-path="url(#pef1ec36c3f)" style="fill:#c9314c"/><path id="patch_254" d="M169.575 310.603a5.988 5.988 0 1 0 0-11.976 5.988 5.988 0 0 0 0 11.976z" clip-path="url(#pef1ec36c3f)" style="fill:#b81e48"/><path id="patch_255" d="M166.581 804.201a2.994 2.994 0 1 0 0-5.988 2.994 2.994 0 0 0 0 5.988z" clip-path="url(#pef1ec36c3f)" style="fill:#a90d45"/><path id="patch_256" d="M703.205 1141.906a4.99 4.99 0 1 0 0-9.98 4.99 4.99 0 0 0 0 9.98z" clip-path="url(#pef1ec36c3f)" style="fill:#b41947"/><path id="patch_257" d="M819.085 825.244a6.986 6.986 0 1 0 0-13.972 6.986 6.986 0 0 0 0 13.972z" clip-path="url(#pef1ec36c3f)" style="fill:#be254a"/><path id="patch_258" d="M961.03 634.27a8.982 8.982 0 1 0-.001-17.964 8.982 8.982 0 0 0 0 17.963z" clip-path="url(#pef1ec36c3f)" style="fill:#c9314c"/><path id="patch_259" d="M623.08 946.075a18.961 18.961 0 1 0 0-37.923 18.961 18.961 0 0 0 0 37.923z" clip-path="url(#pef1ec36c3f)" style="fill:#ee6445"/><path id="patch_260" d="M485.736 750.216a12.974 12.974 0 1 0 0-25.947 12.974 12.974 0 0 0 0 25.947z" clip-path="url(#pef1ec36c3f)" style="fill:#dc484c"/><path id="patch_261" d="M978.262 391.652a10.978 10.978 0 1 0 0-21.955 10.978 10.978 0 0 0 0 21.955z" clip-path="url(#pef1ec36c3f)" style="fill:#d43d4f"/><path id="patch_262" d="M1007.756 721.217a7.984 7.984 0 1 0 0-15.968 7.984 7.984 0 0 0 0 15.968z" clip-path="url(#pef1ec36c3f)" style="fill:#c52c4b"/><path id="patch_263" d="M169.575 506.218a5.988 5.988 0 1 0 0-11.976 5.988 5.988 0 0 0 0 11.976z" clip-path="url(#pef1ec36c3f)" style="fill:#b81e48"/><path id="patch_264" d="M542.228 1141.906a3.992 3.992 0 1 0 0-7.984 3.992 3.992 0 0 0 0 7.984z" clip-path="url(#pef1ec36c3f)" style="fill:#ad1246"/><path id="patch_265" d="M1122.926 157.956a1.996 1.996 0 1 0 0-3.991 1.996 1.996 0 0 0 0 3.991z" clip-path="url(#pef1ec36c3f)" style="fill:#a20643"/><path id="patch_266" d="M396.08 450.2a6.986 6.986 0 1 0-.001-13.972 6.986 6.986 0 0 0 0 13.971z" clip-path="url(#pef1ec36c3f)" style="fill:#be254a"/><path id="patch_267" d="M408.534 163.944a4.99 4.99 0 1 0 0-9.98 4.99 4.99 0 0 0 0 9.98z" clip-path="url(#pef1ec36c3f)" style="fill:#b41947"/><path id="patch_268" d="M858.833 371.215a7.984 7.984 0 1 0 0-15.968 7.984 7.984 0 0 0 0 15.968z" clip-path="url(#pef1ec36c3f)" style="fill:#c52c4b"/><path id="patch_269" d="M502.018 472.118a13.972 13.972 0 1 0-.001-27.943 13.972 13.972 0 0 0 0 27.943z" clip-path="url(#pef1ec36c3f)" style="fill:#de4c4b"/><path id="patch_270" d="M561.624 554.552a10.978 10.978 0 1 0 0-21.955 10.978 10.978 0 0 0 0 21.955z" clip-path="url(#pef1ec36c3f)" style="fill:#d43d4f"/><path id="patch_271" d="M704.501 165.94a5.988 5.988 0 1 0 0-11.976 5.988 5.988 0 0 0 0 11.976z" clip-path="url(#pef1ec36c3f)" style="fill:#b81e48"/><path id="patch_272" d="M1091.412 1141.906a2.994 2.994 0 1 0 0-5.988 2.994 2.994 0 0 0 0 5.988z" clip-path="url(#pef1ec36c3f)" style="fill:#a90d45"/><path id="patch_273" d="M167.58 974.316a3.992 3.992 0 1 0 0-7.984 3.992 3.992 0 0 0 0 7.984z" clip-path="url(#pef1ec36c3f)" style="fill:#ad1246"/><path id="patch_274" d="M297.989 773.268a13.972 13.972 0 1 0 0-27.943 13.972 13.972 0 0 0 0 27.943z" clip-path="url(#pef1ec36c3f)" style="fill:#de4c4b"/><path id="patch_275" d="M394.496 391.73a4.99 4.99 0 1 0 0-9.98 4.99 4.99 0 0 0 0 9.98z" clip-path="url(#pef1ec36c3f)" style="fill:#b41947"/><path id="patch_276" d="M1145.54 499.743a5.988 5.988 0 1 0 0-11.975 5.988 5.988 0 0 0 0 11.975z" clip-path="url(#pef1ec36c3f)" style="fill:#b81e48"/><path id="patch_277" d="M408.065 1141.906a5.988 5.988 0 1 0 0-11.976 5.988 5.988 0 0 0 0 11.976z" clip-path="url(#pef1ec36c3f)" style="fill:#b81e48"/><path id="patch_278" d="M585.67 465.548a4.99 4.99 0 1 0-.001-9.98 4.99 4.99 0 0 0 0 9.98z" clip-path="url(#pef1ec36c3f)" style="fill:#b41947"/><path id="patch_279" d="M381.798 161.948a3.992 3.992 0 1 0 0-7.984 3.992 3.992 0 0 0 0 7.984z" clip-path="url(#pef1ec36c3f)" style="fill:#ad1246"/><path id="patch_280" d="M1148.535 889.06a2.994 2.994 0 1 0 0-5.988 2.994 2.994 0 0 0 0 5.988z" clip-path="url(#pef1ec36c3f)" style="fill:#a90d45"/><path id="patch_281" d="M190.844 157.956a1.996 1.996 0 1 0 0-3.991 1.996 1.996 0 0 0 0 3.991z" clip-path="url(#pef1ec36c3f)" style="fill:#a20643"/><path id="patch_282" d="M1126.335 155.96a.998.998 0 1 0 0-1.995.998.998 0 0 0 0 1.996z" clip-path="url(#pef1ec36c3f)" style="fill:#9e0142"/><path id="patch_283" d="M169.575 408.442a5.988 5.988 0 1 0 0-11.976 5.988 5.988 0 0 0 0 11.976z" clip-path="url(#pef1ec36c3f)" style="fill:#b81e48"/><path id="patch_284" d="M1087.078 951.873a4.99 4.99 0 1 0 0-9.98 4.99 4.99 0 0 0 0 9.98z" clip-path="url(#pef1ec36c3f)" style="fill:#b41947"/><path id="patch_285" d="M1147.537 1006.388a3.992 3.992 0 1 0 0-7.984 3.992 3.992 0 0 0 0 7.984z" clip-path="url(#pef1ec36c3f)" style="fill:#ad1246"/><path id="patch_286" d="M697.385 688.451a5.988 5.988 0 1 0 0-11.975 5.988 5.988 0 0 0 0 11.975z" clip-path="url(#pef1ec36c3f)" style="fill:#b81e48"/><path id="patch_287" d="M166.581 892.718a2.994 2.994 0 1 0 0-5.988 2.994 2.994 0 0 0 0 5.988z" clip-path="url(#pef1ec36c3f)" style="fill:#a90d45"/><path id="patch_288" d="M632.95 415.601a4.99 4.99 0 1 0 0-9.98 4.99 4.99 0 0 0 0 9.98z" clip-path="url(#pef1ec36c3f)" style="fill:#b41947"/><path id="patch_289" d="M1017.91 362.246a5.988 5.988 0 1 0 0-11.976 5.988 5.988 0 0 0 0 11.976z" clip-path="url(#pef1ec36c3f)" style="fill:#b81e48"/><path id="patch_290" d="M167.58 779.782a3.992 3.992 0 1 0 0-7.984 3.992 3.992 0 0 0 0 7.984z" clip-path="url(#pef1ec36c3f)" style="fill:#ad1246"/><path id="patch_291" d="M165.583 183.218a1.996 1.996 0 1 0 0-3.992 1.996 1.996 0 0 0 0 3.992z" clip-path="url(#pef1ec36c3f)" style="fill:#a20643"/><path id="patch_292" d="M609.83 956.407a6.986 6.986 0 1 0-.001-13.972 6.986 6.986 0 0 0 0 13.972z" clip-path="url(#pef1ec36c3f)" style="fill:#be254a"/><path id="patch_293" d="M606.245 490.492a4.99 4.99 0 1 0 0-9.98 4.99 4.99 0 0 0 0 9.98z" clip-path="url(#pef1ec36c3f)" style="fill:#b41947"/><path id="patch_294" d="M482.49 452.133a13.972 13.972 0 1 0-.001-27.943 13.972 13.972 0 0 0 0 27.943z" clip-path="url(#pef1ec36c3f)" style="fill:#de4c4b"/><path id="patch_295" d="M751.186 310.292a10.978 10.978 0 1 0 0-21.956 10.978 10.978 0 0 0 0 21.956z" clip-path="url(#pef1ec36c3f)" style="fill:#d43d4f"/><path id="patch_296" d="M360.492 218.603a7.984 7.984 0 1 0 0-15.967 7.984 7.984 0 0 0 0 15.967z" clip-path="url(#pef1ec36c3f)" style="fill:#c52c4b"/><path id="patch_297" d="M464.753 426.562a5.988 5.988 0 1 0 0-11.976 5.988 5.988 0 0 0 0 11.976z" clip-path="url(#pef1ec36c3f)" style="fill:#b81e48"/><path id="patch_298" d="M890.723 1141.906a2.994 2.994 0 1 0 0-5.988 2.994 2.994 0 0 0 0 5.988z" clip-path="url(#pef1ec36c3f)" style="fill:#a90d45"/><path id="patch_299" d="M1147.537 814.137a3.992 3.992 0 1 0 0-7.984 3.992 3.992 0 0 0 0 7.984z" clip-path="url(#pef1ec36c3f)" style="fill:#ad1246"/><path id="patch_300" d="M719.03 788.226a4.99 4.99 0 1 0 0-9.98 4.99 4.99 0 0 0 0 9.98z" clip-path="url(#pef1ec36c3f)" style="fill:#b41947"/><path id="patch_301" d="M960.81 834.747a5.988 5.988 0 1 0 0-11.976 5.988 5.988 0 0 0 0 11.976z" clip-path="url(#pef1ec36c3f)" style="fill:#b81e48"/><path id="patch_302" d="M332.139 538.27a5.988 5.988 0 1 0 0-11.977 5.988 5.988 0 0 0 0 11.976z" clip-path="url(#pef1ec36c3f)" style="fill:#b81e48"/><path id="patch_303" d="M575.587 314.716a4.99 4.99 0 1 0 0-9.98 4.99 4.99 0 0 0 0 9.98z" clip-path="url(#pef1ec36c3f)" style="fill:#b41947"/><path id="patch_304" d="M961.385 1141.906a3.992 3.992 0 1 0 0-7.984 3.992 3.992 0 0 0 0 7.984z" clip-path="url(#pef1ec36c3f)" style="fill:#ad1246"/><path id="patch_305" d="M379.165 1141.906a2.994 2.994 0 1 0 0-5.988 2.994 2.994 0 0 0 0 5.988z" clip-path="url(#pef1ec36c3f)" style="fill:#a90d45"/><path id="patch_306" d="M1149.533 184.563a1.996 1.996 0 1 0 0-3.992 1.996 1.996 0 0 0 0 3.992z" clip-path="url(#pef1ec36c3f)" style="fill:#a20643"/><path id="patch_307" d="M164.586 178.913a.998.998 0 1 0 0-1.996.998.998 0 0 0 0 1.996z" clip-path="url(#pef1ec36c3f)" style="fill:#9e0142"/><g id="matplotlib.axis_1"><g id="xtick_1"><g id="line2d_1"><defs><path id="m8c3177ad75" d="M0 0v3.5" style="stroke:#000;stroke-width:.8"/></defs><use xlink:href="#m8c3177ad75" x="163.588" y="1141.906" style="stroke:#000;stroke-width:.8"/></g><g id="text_1" transform="matrix(.1 0 0 -.1 160.406 1156.504)"><defs><path id="DejaVuSans-30" d="M2034 4250q-487 0-733-480-245-479-245-1442 0-959 245-1439 246-480 733-480 491 0 736 480 246 480 246 1439 0 963-246 1442-245 480-736 480zm0 500q785 0 1199-621 414-620 414-1801 0-1178-414-1799Q2819-91 2034-91q-784 0-1198 620-414 621-414 1799 0 1181 414 1801 414 621 1198 621z" transform="scale(.01563)"/></defs><use xlink:href="#DejaVuSans-30"/></g></g><g id="xtick_2"><use xlink:href="#m8c3177ad75" id="line2d_2" x="363.172" y="1141.906" style="stroke:#000;stroke-width:.8"/><g id="text_2" transform="matrix(.1 0 0 -.1 353.628 1156.504)"><defs><path id="DejaVuSans-32" d="M1228 531h2203V0H469v531q359 372 979 998 621 627 780 809 303 340 423 576 121 236 121 464 0 372-261 606-261 235-680 235-297 0-627-103-329-103-704-313v638q381 153 712 231 332 78 607 78 725 0 1156-363 431-362 431-968 0-288-108-546-107-257-392-607-78-91-497-524-418-433-1181-1211z" transform="scale(.01563)"/></defs><use xlink:href="#DejaVuSans-32"/><use xlink:href="#DejaVuSans-30" x="63.623"/><use xlink:href="#DejaVuSans-30" x="127.246"/></g></g><g id="xtick_3"><use xlink:href="#m8c3177ad75" id="line2d_3" x="562.756" y="1141.906" style="stroke:#000;stroke-width:.8"/><g id="text_3" transform="matrix(.1 0 0 -.1 553.212 1156.504)"><defs><path id="DejaVuSans-34" d="M2419 4116 825 1625h1594v2491zm-166 550h794V1625h666v-525h-666V0h-628v1100H313v609l1940 2957z" transform="scale(.01563)"/></defs><use xlink:href="#DejaVuSans-34"/><use xlink:href="#DejaVuSans-30" x="63.623"/><use xlink:href="#DejaVuSans-30" x="127.246"/></g></g><g id="xtick_4"><use xlink:href="#m8c3177ad75" id="line2d_4" x="762.34" y="1141.906" style="stroke:#000;stroke-width:.8"/><g id="text_4" transform="matrix(.1 0 0 -.1 752.796 1156.504)"><defs><path id="DejaVuSans-36" d="M2113 2584q-425 0-674-291-248-290-248-796 0-503 248-796 249-292 674-292t673 292q248 293 248 796 0 506-248 796-248 291-673 291zm1253 1979v-575q-238 112-480 171-242 60-480 60-625 0-955-422-329-422-376-1275 184 272 462 417 279 145 613 145 703 0 1111-427 408-426 408-1160 0-719-425-1154Q2819-91 2113-91q-810 0-1238 620-428 621-428 1799 0 1106 525 1764t1409 658q238 0 480-47t505-140z" transform="scale(.01563)"/></defs><use xlink:href="#DejaVuSans-36"/><use xlink:href="#DejaVuSans-30" x="63.623"/><use xlink:href="#DejaVuSans-30" x="127.246"/></g></g><g id="xtick_5"><use xlink:href="#m8c3177ad75" id="line2d_5" x="961.924" y="1141.906" style="stroke:#000;stroke-width:.8"/><g id="text_5" transform="matrix(.1 0 0 -.1 952.38 1156.504)"><defs><path id="DejaVuSans-38" d="M2034 2216q-450 0-708-241-257-241-257-662 0-422 257-663 258-241 708-241t709 242q260 243 260 662 0 421-258 662-257 241-711 241zm-631 268q-406 100-633 378-226 279-226 679 0 559 398 884 399 325 1092 325 697 0 1094-325t397-884q0-400-227-679-226-278-629-378 456-106 710-416 255-309 255-755 0-679-414-1042Q2806-91 2034-91q-771 0-1186 362-414 363-414 1042 0 446 256 755 257 310 713 416zm-231 997q0-362 226-565 227-203 636-203 407 0 636 203 230 203 230 565 0 363-230 566-229 203-636 203-409 0-636-203-226-203-226-566z" transform="scale(.01563)"/></defs><use xlink:href="#DejaVuSans-38"/><use xlink:href="#DejaVuSans-30" x="63.623"/><use xlink:href="#DejaVuSans-30" x="127.246"/></g></g></g><g id="matplotlib.axis_2"><g id="ytick_1"><g id="line2d_6"><defs><path id="m06c111dde4" d="M0 0h-3.5" style="stroke:#000;stroke-width:.8"/></defs><use xlink:href="#m06c111dde4" x="163.588" y="1141.906" style="stroke:#000;stroke-width:.8"/></g><use xlink:href="#DejaVuSans-30" id="text_6" transform="matrix(.1 0 0 -.1 150.225 1145.705)"/></g><g id="ytick_2"><use xlink:href="#m06c111dde4" id="line2d_7" x="163.588" y="942.322" style="stroke:#000;stroke-width:.8"/><g id="text_7" transform="matrix(.1 0 0 -.1 137.5 946.12)"><use xlink:href="#DejaVuSans-32"/><use xlink:href="#DejaVuSans-30" x="63.623"/><use xlink:href="#DejaVuSans-30" x="127.246"/></g></g><g id="ytick_3"><use xlink:href="#m06c111dde4" id="line2d_8" x="163.588" y="742.738" style="stroke:#000;stroke-width:.8"/><g id="text_8" transform="matrix(.1 0 0 -.1 137.5 746.537)"><use xlink:href="#DejaVuSans-34"/><use xlink:href="#DejaVuSans-30" x="63.623"/><use xlink:href="#DejaVuSans-30" x="127.246"/></g></g><g id="ytick_4"><use xlink:href="#m06c111dde4" id="line2d_9" x="163.588" y="543.154" style="stroke:#000;stroke-width:.8"/><g id="text_9" transform="matrix(.1 0 0 -.1 137.5 546.953)"><use xlink:href="#DejaVuSans-36"/><use xlink:href="#DejaVuSans-30" x="63.623"/><use xlink:href="#DejaVuSans-30" x="127.246"/></g></g><g id="ytick_5"><use xlink:href="#m06c111dde4" id="line2d_10" x="163.588" y="343.57" style="stroke:#000;stroke-width:.8"/><g id="text_10" transform="matrix(.1 0 0 -.1 137.5 347.369)"><use xlink:href="#DejaVuSans-38"/><use xlink:href="#DejaVuSans-30" x="63.623"/><use xlink:href="#DejaVuSans-30" x="127.246"/></g></g></g><path id="patch_308" d="M163.588 1141.906V153.965" style="fill:none;stroke:#000;stroke-width:.8;stroke-linejoin:miter;stroke-linecap:square"/><path id="patch_309" d="M1151.528 1141.906V153.965" style="fill:none;stroke:#000;stroke-width:.8;stroke-linejoin:miter;stroke-linecap:square"/><path id="patch_310" d="M163.588 1141.906h987.94" style="fill:none;stroke:#000;stroke-width:.8;stroke-linejoin:miter;stroke-linecap:square"/><path id="patch_311" d="M163.588 153.965h987.94" style="fill:none;stroke:#000;stroke-width:.8;stroke-linejoin:miter;stroke-linecap:square"/><g id="text_11" transform="matrix(.12 0 0 -.12 475.37 147.965)"><defs><path id="DejaVuSans-54" d="M-19 4666h3947v-532H2272V0h-634v4134H-19v532z" transform="scale(.01563)"/><path id="DejaVuSans-65" d="M3597 1894v-281H953q38-594 358-905t892-311q331 0 642 81t618 244V178Q3153 47 2828-22t-659-69q-838 0-1327 487-489 488-489 1320 0 859 464 1363 464 505 1252 505 706 0 1117-455 411-454 411-1235zm-575 169q-6 471-264 752-258 282-683 282-481 0-770-272t-333-766l2050 4z" transform="scale(.01563)"/><path id="DejaVuSans-61" d="M2194 1759q-697 0-966-159t-269-544q0-306 202-486 202-179 548-179 479 0 768 339t289 901v128h-572zm1147 238V0h-575v531q-197-318-491-470T1556-91q-537 0-855 302-317 302-317 808 0 590 395 890 396 300 1180 300h807v57q0 397-261 614t-733 217q-300 0-585-72-284-72-546-216v532q315 122 612 182 297 61 578 61 760 0 1135-394 375-393 375-1193z" transform="scale(.01563)"/><path id="DejaVuSans-6d" d="M3328 2828q216 388 516 572t706 184q547 0 844-383 297-382 297-1088V0h-578v2094q0 503-179 746-178 244-543 244-447 0-707-297-259-296-259-809V0h-578v2094q0 506-178 748t-550 242q-441 0-701-298-259-298-259-808V0H581v3500h578v-544q197 322 472 475t653 153q382 0 649-194 267-193 395-562z" transform="scale(.01563)"/><path id="DejaVuSans-4b" d="M628 4666h631V2694l2094 1972h813L1850 2491 4331 0h-831L1259 2247V0H628v4666z" transform="scale(.01563)"/><path id="DejaVuSans-6f" d="M1959 3097q-462 0-731-361t-269-989q0-628 267-989 268-361 733-361 460 0 728 362 269 363 269 988 0 622-269 986-268 364-728 364zm0 487q750 0 1178-488 429-487 429-1349 0-859-429-1349Q2709-91 1959-91q-753 0-1180 489-426 490-426 1349 0 862 426 1349 427 488 1180 488z" transform="scale(.01563)"/><path id="DejaVuSans-6c" d="M603 4863h575V0H603v4863z" transform="scale(.01563)"/><path id="DejaVuSans-6e" d="M3513 2113V0h-575v2094q0 497-194 743-194 247-581 247-466 0-735-297-269-296-269-809V0H581v3500h578v-544q207 316 486 472 280 156 646 156 603 0 912-373 310-373 310-1098z" transform="scale(.01563)"/><path id="DejaVuSans-57" d="M213 4666h637l981-3944 978 3944h710l981-3944 978 3944h641L4947 0h-794l-984 4050L2175 0h-794L213 4666z" transform="scale(.01563)"/><path id="DejaVuSans-64" d="M2906 2969v1894h575V0h-575v525q-181-312-458-464-276-152-664-152-634 0-1033 506-398 507-398 1332t398 1331q399 506 1033 506 388 0 664-152 277-151 458-463zM947 1747q0-634 261-995t717-361q456 0 718 361 263 361 263 995t-263 995q-262 361-718 361t-717-361q-261-361-261-995z" transform="scale(.01563)"/><path id="DejaVuSans-2c" d="M750 794h659V256L897-744H494L750 256v538z" transform="scale(.01563)"/><path id="DejaVuSans-62" d="M3116 1747q0 634-261 995t-717 361q-457 0-718-361t-261-995q0-634 261-995t718-361q456 0 717 361t261 995zM1159 2969q182 312 458 463 277 152 661 152 638 0 1036-506 399-506 399-1331T3314 415Q2916-91 2278-91q-384 0-661 152-276 152-458 464V0H581v4863h578V2969z" transform="scale(.01563)"/><path id="DejaVuSans-3d" d="M678 2906h4006v-525H678v525zm0-1275h4006v-531H678v531z" transform="scale(.01563)"/><path id="DejaVuSans-2e" d="M684 794h660V0H684v794z" transform="scale(.01563)"/><path id="DejaVuSans-39" d="M703 97v575q238-113 481-172 244-59 479-59 625 0 954 420 330 420 377 1277-181-269-460-413-278-144-615-144-700 0-1108 423-408 424-408 1159 0 718 425 1152 425 435 1131 435 810 0 1236-621 427-620 427-1801 0-1103-524-1761Q2575-91 1691-91q-238 0-482 47Q966 3 703 97zm1256 1978q425 0 673 290 249 291 249 798 0 503-249 795-248 292-673 292t-673-292q-248-292-248-795 0-507 248-798 248-290 673-290z" transform="scale(.01563)"/><path id="DejaVuSans-35" d="M691 4666h2478v-532H1269V2991q137 47 274 70 138 23 276 23 781 0 1237-428 457-428 457-1159 0-753-469-1171Q2575-91 1722-91q-294 0-599 50Q819 9 494 109v635q281-153 581-228t634-75q541 0 856 284 316 284 316 772 0 487-316 771-315 285-856 285-253 0-505-56-251-56-513-175v2344z" transform="scale(.01563)"/><path id="DejaVuSans-33" d="M2597 2516q453-97 707-404 255-306 255-756 0-690-475-1069Q2609-91 1734-91q-293 0-604 58T488 141v609q262-153 574-231 313-78 654-78 593 0 904 234t311 681q0 413-289 645-289 233-804 233h-544v519h569q465 0 712 186t247 536q0 359-255 551-254 193-729 193-260 0-557-57-297-56-653-174v562q360 100 674 150t592 50q719 0 1137-327 419-326 419-882 0-388-222-655t-631-370z" transform="scale(.01563)"/><path id="DejaVuSans-37" d="M525 4666h3000v-269L1831 0h-659l1594 4134H525v532z" transform="scale(.01563)"/><path id="DejaVuSans-31" d="M794 531h1031v3560L703 3866v575l1116 225h631V531h1031V0H794v531z" transform="scale(.01563)"/></defs><use xlink:href="#DejaVuSans-54"/><use xlink:href="#DejaVuSans-65" x="44.084"/><use xlink:href="#DejaVuSans-61" x="105.607"/><use xlink:href="#DejaVuSans-6d" x="166.887"/><use xlink:href="#DejaVuSans-4b" x="264.299"/><use xlink:href="#DejaVuSans-6f" x="324.875"/><use xlink:href="#DejaVuSans-65" x="386.057"/><use xlink:href="#DejaVuSans-6c" x="447.58"/><use xlink:href="#DejaVuSans-6e" x="475.363"/><use xlink:href="#DejaVuSans-57" x="538.742"/><use xlink:href="#DejaVuSans-61" x="631.244"/><use xlink:href="#DejaVuSans-6c" x="692.523"/><use xlink:href="#DejaVuSans-64" x="720.307"/><use xlink:href="#DejaVuSans-2c" x="783.783"/><use xlink:href="#DejaVuSans-20" x="815.57"/><use xlink:href="#DejaVuSans-62" x="847.357"/><use xlink:href="#DejaVuSans-3d" x="910.834"/><use xlink:href="#DejaVuSans-30" x="994.623"/><use xlink:href="#DejaVuSans-2e" x="1058.246"/><use xlink:href="#DejaVuSans-38" x="1090.033"/><use xlink:href="#DejaVuSans-39" x="1153.656"/><use xlink:href="#DejaVuSans-34" x="1217.279"/><use xlink:href="#DejaVuSans-38" x="1280.902"/><use xlink:href="#DejaVuSans-35" x="1344.525"/><use xlink:href="#DejaVuSans-38" x="1408.148"/><use xlink:href="#DejaVuSans-39" x="1471.771"/><use xlink:href="#DejaVuSans-2c" x="1535.395"/><use xlink:href="#DejaVuSans-20" x="1567.182"/><use xlink:href="#DejaVuSans-61" x="1598.969"/><use xlink:href="#DejaVuSans-3d" x="1660.248"/><use xlink:href="#DejaVuSans-30" x="1744.037"/><use xlink:href="#DejaVuSans-2e" x="1807.66"/><use xlink:href="#DejaVuSans-39" x="1839.447"/><use xlink:href="#DejaVuSans-33" x="1903.07"/><use xlink:href="#DejaVuSans-34" x="1966.693"/><use xlink:href="#DejaVuSans-38" x="2030.316"/><use xlink:href="#DejaVuSans-38" x="2093.939"/><use xlink:href="#DejaVuSans-37" x="2157.563"/><use xlink:href="#DejaVuSans-35" x="2221.186"/><use xlink:href="#DejaVuSans-2c" x="2284.809"/><use xlink:href="#DejaVuSans-20" x="2316.596"/><use xlink:href="#DejaVuSans-64" x="2348.383"/><use xlink:href="#DejaVuSans-3d" x="2411.859"/><use xlink:href="#DejaVuSans-30" x="2495.648"/><use xlink:href="#DejaVuSans-2e" x="2559.271"/><use xlink:href="#DejaVuSans-39" x="2591.059"/><use xlink:href="#DejaVuSans-35" x="2654.682"/><use xlink:href="#DejaVuSans-37" x="2718.305"/><use xlink:href="#DejaVuSans-31" x="2781.928"/><use xlink:href="#DejaVuSans-38" x="2845.551"/><use xlink:href="#DejaVuSans-33" x="2909.174"/><use xlink:href="#DejaVuSans-36" x="2972.797"/></g></g></g><defs><clipPath id="pef1ec36c3f"><path d="M163.588 153.965h987.941v987.941H163.588z"/></clipPath></defs></svg>