<svg xmlns="http://www.w3.org/2000/svg" xmlns:xlink="http://www.w3.org/1999/xlink" width="1036.8" height="518.4" viewBox="0 0 777.6 388.8"><defs><style>*{stroke-linejoin:round;stroke-linecap:butt}</style></defs><g id="figure_1"><path id="patch_1" d="M0 388.8h777.6V0H0z" style="fill:#fff"/><g id="axes_1"><path id="patch_2" d="M99.144 346.032h598.752V46.656H99.144z" style="fill:#fff"/><path id="patch_3" d="M648 146.448a49.898 49.898 0 0 0 49.896-49.896A49.898 49.898 0 0 0 648 46.656a49.898 49.898 0 0 0-49.896 49.896A49.898 49.898 0 0 0 648 146.448z" clip-path="url(#p26f25907cd)" style="fill:#9e0142"/><path id="patch_4" d="M548.208 146.448a49.898 49.898 0 0 0 49.896-49.896 49.898 49.898 0 0 0-49.896-49.896 49.898 49.898 0 0 0-49.896 49.896 49.898 49.898 0 0 0 49.896 49.896z" clip-path="url(#p26f25907cd)" style="fill:#9e0142"/><path id="patch_5" d="M147.044 142.456a47.902 47.902 0 0 0 47.9-47.9 47.902 47.902 0 0 0-47.9-47.9 47.902 47.902 0 0 0-47.9 47.9 47.902 47.902 0 0 0 47.9 47.9z" clip-path="url(#p26f25907cd)" style="fill:#b41947"/><path id="patch_6" d="M651.992 346.032a45.906 45.906 0 0 0 45.904-45.904 45.906 45.906 0 0 0-45.904-45.905 45.906 45.906 0 0 0-45.905 45.905 45.906 45.906 0 0 0 45.905 45.904z" clip-path="url(#p26f25907cd)" style="fill:#cb334d"/><path id="patch_7" d="M143.052 346.032a43.91 43.91 0 0 0 43.909-43.908 43.91 43.91 0 0 0-43.909-43.909 43.91 43.91 0 0 0-43.908 43.909 43.91 43.91 0 0 0 43.908 43.908z" clip-path="url(#p26f25907cd)" style="fill:#dd4a4c"/><path id="patch_8" d="M236.657 130.481A41.915 41.915 0 0 0 278.57 88.57a41.915 41.915 0 0 0-41.913-41.913 41.915 41.915 0 0 0-41.912 41.913 41.915 41.915 0 0 0 41.912 41.912z" clip-path="url(#p26f25907cd)" style="fill:#e95c47"/><path id="patch_9" d="M566.38 346.032a39.919 39.919 0 0 0 39.916-39.917 39.919 39.919 0 0 0-39.916-39.917 39.919 39.919 0 0 0-39.917 39.917 39.919 39.919 0 0 0 39.917 39.917z" clip-path="url(#p26f25907cd)" style="fill:#f57245"/><path id="patch_10" d="M224.663 346.032a37.923 37.923 0 0 0 37.92-37.921 37.923 37.923 0 0 0-37.92-37.92 37.923 37.923 0 0 0-37.921 37.92 37.923 37.923 0 0 0 37.92 37.921z" clip-path="url(#p26f25907cd)" style="fill:#f98e52"/><path id="patch_11" d="M135.07 213.447a35.927 35.927 0 0 0 25.402-61.328 35.927 35.927 0 0 0-61.328 25.403 35.927 35.927 0 0 0 35.925 35.925z" clip-path="url(#p26f25907cd)" style="fill:#fca85e"/><path id="patch_12" d="M663.967 255.127a33.93 33.93 0 0 0 23.991-57.921 33.93 33.93 0 0 0-57.92 23.991 33.93 33.93 0 0 0 33.929 33.93z" clip-path="url(#p26f25907cd)" style="fill:#fdbf6f"/><path id="patch_13" d="M199.108 187.01a31.935 31.935 0 0 0 22.58-54.514 31.935 31.935 0 0 0-54.513 22.58 31.935 31.935 0 0 0 31.933 31.934z" clip-path="url(#p26f25907cd)" style="fill:#fed481"/><path id="patch_14" d="M613.163 266.43a21.955 21.955 0 1 0-.001-43.91 21.955 21.955 0 0 0 0 43.91z" clip-path="url(#p26f25907cd)" style="fill:#eaf79e"/><path id="patch_15" d="M599.112 70.606a11.976 11.976 0 1 0 0-23.951 11.976 11.976 0 0 0 0 23.951z" clip-path="url(#p26f25907cd)" style="fill:#6bc4a5"/><path id="patch_16" d="M328.118 146.448a49.898 49.898 0 0 0 49.896-49.896 49.898 49.898 0 0 0-49.896-49.896 49.898 49.898 0 0 0-49.896 49.896 49.898 49.898 0 0 0 49.896 49.896z" clip-path="url(#p26f25907cd)" style="fill:#9e0142"/><path id="patch_17" d="M450.432 142.456a47.902 47.902 0 0 0 47.9-47.9 47.902 47.902 0 0 0-47.9-47.9 47.902 47.902 0 0 0-47.9 47.9 47.902 47.902 0 0 0 47.9 47.9z" clip-path="url(#p26f25907cd)" style="fill:#b41947"/><path id="patch_18" d="M598.104 202.303a35.927 35.927 0 0 0 25.403-61.328 35.927 35.927 0 0 0-61.328 25.403 35.927 35.927 0 0 0 35.925 35.925z" clip-path="url(#p26f25907cd)" style="fill:#fca85e"/><path id="patch_19" d="M496.266 196.274a33.93 33.93 0 0 0 23.992-57.92 33.93 33.93 0 0 0-57.921 23.99 33.93 33.93 0 0 0 33.929 33.93z" clip-path="url(#p26f25907cd)" style="fill:#fdbf6f"/><path id="patch_20" d="M270.2 186.29a31.935 31.935 0 0 0 22.58-54.513 31.935 31.935 0 0 0-54.514 22.58 31.935 31.935 0 0 0 31.933 31.934z" clip-path="url(#p26f25907cd)" style="fill:#fed481"/><path id="patch_21" d="M497.242 346.032a29.939 29.939 0 0 0 21.169-51.107 29.939 29.939 0 0 0-51.107 21.17 29.939 29.939 0 0 0 29.938 29.937z" clip-path="url(#p26f25907cd)" style="fill:#fee593"/><path id="patch_22" d="M675.942 184.7a21.955 21.955 0 1 0-.001-43.91 21.955 21.955 0 0 0 0 43.91z" clip-path="url(#p26f25907cd)" style="fill:#eaf79e"/><path id="patch_23" d="M448.354 346.032a19.96 19.96 0 1 0 0-39.919 19.96 19.96 0 0 0 0 39.919z" clip-path="url(#p26f25907cd)" style="fill:#d6ee9b"/><path id="patch_24" d="M184.918 346.032a9.98 9.98 0 1 0 0-19.96 9.98 9.98 0 0 0 0 19.96z" clip-path="url(#p26f25907cd)" style="fill:#54aead"/><path id="patch_25" d="M340.923 245.415a49.898 49.898 0 0 0 49.896-49.896 49.898 49.898 0 0 0-49.896-49.896 49.898 49.898 0 0 0-49.896 49.896 49.898 49.898 0 0 0 49.896 49.896z" clip-path="url(#p26f25907cd)" style="fill:#9e0142"/><path id="patch_26" d="M510.075 287.25a45.906 45.906 0 0 0 45.904-45.904 45.906 45.906 0 0 0-45.904-45.904 45.906 45.906 0 0 0-45.904 45.904 45.906 45.906 0 0 0 45.904 45.904z" clip-path="url(#p26f25907cd)" style="fill:#cb334d"/><path id="patch_27" d="M194.54 274.69a43.91 43.91 0 0 0 43.909-43.909 43.91 43.91 0 0 0-43.908-43.909 43.91 43.91 0 0 0-43.909 43.909 43.91 43.91 0 0 0 43.909 43.908z" clip-path="url(#p26f25907cd)" style="fill:#dd4a4c"/><path id="patch_28" d="M401.124 346.032a27.943 27.943 0 0 0 19.757-47.7 27.943 27.943 0 0 0-47.7 19.758 27.943 27.943 0 0 0 27.943 27.942z" clip-path="url(#p26f25907cd)" style="fill:#fff2aa"/><path id="patch_29" d="M391.165 164.653a25.947 25.947 0 0 0 0-51.892 25.947 25.947 0 0 0 0 51.892z" clip-path="url(#p26f25907cd)" style="fill:#ffffbe"/><path id="patch_30" d="M123.094 261.216a23.951 23.951 0 1 0 0-47.902 23.951 23.951 0 0 0 0 47.902z" clip-path="url(#p26f25907cd)" style="fill:#f5fbaf"/><path id="patch_31" d="M391.767 82.581a17.963 17.963 0 1 0-.001-35.927 17.963 17.963 0 0 0 0 35.927z" clip-path="url(#p26f25907cd)" style="fill:#bfe5a0"/><path id="patch_32" d="M546.366 178.356a15.967 15.967 0 1 0 0-31.935 15.967 15.967 0 0 0 0 31.935z" clip-path="url(#p26f25907cd)" style="fill:#a4daa4"/><path id="patch_33" d="M689.913 62.623a7.984 7.984 0 1 0 0-15.968 7.984 7.984 0 0 0 0 15.968z" clip-path="url(#p26f25907cd)" style="fill:#3d95b8"/><path id="patch_34" d="M311.66 346.032a49.898 49.898 0 0 0 49.895-49.896 49.898 49.898 0 0 0-49.896-49.896 49.898 49.898 0 0 0-49.896 49.896 49.898 49.898 0 0 0 49.896 49.896z" clip-path="url(#p26f25907cd)" style="fill:#9e0142"/><path id="patch_35" d="M455.824 306.786a21.955 21.955 0 1 0 0-43.91 21.955 21.955 0 0 0 0 43.91z" clip-path="url(#p26f25907cd)" style="fill:#eaf79e"/><path id="patch_36" d="M232.233 200.828a13.972 13.972 0 1 0 0-27.943 13.972 13.972 0 0 0 0 27.943z" clip-path="url(#p26f25907cd)" style="fill:#86cfa5"/><path id="patch_37" d="M691.908 346.032a5.988 5.988 0 1 0 0-11.976 5.988 5.988 0 0 0 0 11.976z" clip-path="url(#p26f25907cd)" style="fill:#3a7eb8"/><path id="patch_38" d="M428.593 228.378a37.923 37.923 0 0 0 37.921-37.92 37.923 37.923 0 0 0-37.92-37.922 37.923 37.923 0 0 0-26.815 64.735 37.923 37.923 0 0 0 26.814 11.107z" clip-path="url(#p26f25907cd)" style="fill:#f98e52"/><path id="patch_39" d="M399.025 289.87a33.93 33.93 0 0 0 23.991-57.92 33.93 33.93 0 0 0-57.92 23.991 33.93 33.93 0 0 0 33.929 33.93z" clip-path="url(#p26f25907cd)" style="fill:#fdbf6f"/><path id="patch_40" d="M499.32 70.606a11.976 11.976 0 1 0 0-23.951 11.976 11.976 0 0 0 0 23.951z" clip-path="url(#p26f25907cd)" style="fill:#6bc4a5"/><path id="patch_41" d="M109.123 148.262a9.98 9.98 0 1 0 0-19.96 9.98 9.98 0 0 0 0 19.96z" clip-path="url(#p26f25907cd)" style="fill:#54aead"/><path id="patch_42" d="M679.065 346.032a3.992 3.992 0 1 0 0-7.984 3.992 3.992 0 0 0 0 7.984z" clip-path="url(#p26f25907cd)" style="fill:#4d65ad"/><path id="patch_43" d="M253.268 277.753a19.96 19.96 0 1 0-.001-39.919 19.96 19.96 0 0 0 0 39.919z" clip-path="url(#p26f25907cd)" style="fill:#d6ee9b"/><path id="patch_44" d="M107.127 62.623a7.984 7.984 0 1 0 0-15.968 7.984 7.984 0 0 0 0 15.968z" clip-path="url(#p26f25907cd)" style="fill:#3d95b8"/><path id="patch_45" d="M553.827 209.405a15.967 15.967 0 1 0-.001-31.935 15.967 15.967 0 0 0 0 31.935z" clip-path="url(#p26f25907cd)" style="fill:#a4daa4"/><path id="patch_46" d="M364.54 346.032a11.976 11.976 0 1 0-.001-23.951 11.976 11.976 0 0 0 0 23.951z" clip-path="url(#p26f25907cd)" style="fill:#6bc4a5"/><path id="patch_47" d="M609.186 346.032a9.98 9.98 0 1 0 0-19.96 9.98 9.98 0 0 0 0 19.96z" clip-path="url(#p26f25907cd)" style="fill:#54aead"/><path id="patch_48" d="M105.132 346.032a5.988 5.988 0 1 0 0-11.976 5.988 5.988 0 0 0 0 11.976z" clip-path="url(#p26f25907cd)" style="fill:#3a7eb8"/><path id="patch_49" d="M684.995 346.032a1.996 1.996 0 1 0 0-3.992 1.996 1.996 0 0 0 0 3.992z" clip-path="url(#p26f25907cd)" style="fill:#5e4fa2"/><path id="patch_50" d="M619.19 223.062a11.976 11.976 0 1 0 0-23.952 11.976 11.976 0 0 0 0 23.952z" clip-path="url(#p26f25907cd)" style="fill:#6bc4a5"/><path id="patch_51" d="M689.913 269.824a7.984 7.984 0 1 0 0-15.967 7.984 7.984 0 0 0 0 15.967z" clip-path="url(#p26f25907cd)" style="fill:#3d95b8"/><path id="patch_52" d="M116.575 346.032a3.992 3.992 0 1 0 0-7.984 3.992 3.992 0 0 0 0 7.984z" clip-path="url(#p26f25907cd)" style="fill:#4d65ad"/><path id="patch_53" d="M190.77 66.614a9.98 9.98 0 1 0 0-19.959 9.98 9.98 0 0 0 0 19.96z" clip-path="url(#p26f25907cd)" style="fill:#54aead"/><path id="patch_54" d="M266.925 238.09a25.947 25.947 0 0 0 0-51.892 25.947 25.947 0 0 0 0 51.892z" clip-path="url(#p26f25907cd)" style="fill:#ffffbe"/><path id="patch_55" d="M579.13 238.9a19.96 19.96 0 1 0-.002-39.919 19.96 19.96 0 0 0 .001 39.919z" clip-path="url(#p26f25907cd)" style="fill:#d6ee9b"/><path id="patch_56" d="M389.842 112.784a11.976 11.976 0 1 0 0-23.951 11.976 11.976 0 0 0 0 23.95z" clip-path="url(#p26f25907cd)" style="fill:#6bc4a5"/><path id="patch_57" d="M105.132 275.682a5.988 5.988 0 1 0 0-11.975 5.988 5.988 0 0 0 0 11.975z" clip-path="url(#p26f25907cd)" style="fill:#3a7eb8"/><path id="patch_58" d="M528.161 346.032a7.984 7.984 0 1 0 0-15.967 7.984 7.984 0 0 0 0 15.967z" clip-path="url(#p26f25907cd)" style="fill:#3d95b8"/><path id="patch_59" d="M283.49 66.614a9.98 9.98 0 1 0 0-19.959 9.98 9.98 0 0 0 0 19.96z" clip-path="url(#p26f25907cd)" style="fill:#54aead"/><path id="patch_60" d="M263.569 346.032a9.98 9.98 0 1 0 0-19.96 9.98 9.98 0 0 0 0 19.96z" clip-path="url(#p26f25907cd)" style="fill:#54aead"/><path id="patch_61" d="M603.739 284.12a7.984 7.984 0 1 0 0-15.967 7.984 7.984 0 0 0 0 15.967z" clip-path="url(#p26f25907cd)" style="fill:#3d95b8"/><path id="patch_62" d="M691.908 137.108a5.988 5.988 0 1 0 0-11.975 5.988 5.988 0 0 0 0 11.975z" clip-path="url(#p26f25907cd)" style="fill:#3a7eb8"/><path id="patch_63" d="M169.53 346.032a3.992 3.992 0 1 0 0-7.984 3.992 3.992 0 0 0 0 7.984z" clip-path="url(#p26f25907cd)" style="fill:#4d65ad"/><path id="patch_64" d="M512.701 346.032a1.996 1.996 0 1 0 0-3.992 1.996 1.996 0 0 0 0 3.992z" clip-path="url(#p26f25907cd)" style="fill:#5e4fa2"/><path id="patch_65" d="M470.217 346.032a5.988 5.988 0 1 0 0-11.976 5.988 5.988 0 0 0 0 11.976z" clip-path="url(#p26f25907cd)" style="fill:#3a7eb8"/><path id="patch_66" d="M693.904 331.192a3.992 3.992 0 1 0 0-7.983 3.992 3.992 0 0 0 0 7.983z" clip-path="url(#p26f25907cd)" style="fill:#4d65ad"/><path id="patch_67" d="M644.659 166.313a9.98 9.98 0 1 0 0-19.96 9.98 9.98 0 0 0 0 19.96z" clip-path="url(#p26f25907cd)" style="fill:#54aead"/><path id="patch_68" d="M568.942 266.26a13.972 13.972 0 1 0 0-27.944 13.972 13.972 0 0 0 0 27.943z" clip-path="url(#p26f25907cd)" style="fill:#86cfa5"/><path id="patch_69" d="M456.168 158.128a7.984 7.984 0 1 0 0-15.968 7.984 7.984 0 0 0 0 15.968z" clip-path="url(#p26f25907cd)" style="fill:#3d95b8"/><path id="patch_70" d="M671.135 346.032a1.996 1.996 0 1 0 0-3.992 1.996 1.996 0 0 0 0 3.992z" clip-path="url(#p26f25907cd)" style="fill:#5e4fa2"/><path id="patch_71" d="M416.562 58.631a5.988 5.988 0 1 0 0-11.976 5.988 5.988 0 0 0 0 11.976z" clip-path="url(#p26f25907cd)" style="fill:#3a7eb8"/><path id="patch_72" d="M174.7 54.64a3.992 3.992 0 1 0 0-7.984 3.992 3.992 0 0 0 0 7.983z" clip-path="url(#p26f25907cd)" style="fill:#4d65ad"/><path id="patch_73" d="M371.025 58.631a5.988 5.988 0 1 0 0-11.976 5.988 5.988 0 0 0 0 11.976z" clip-path="url(#p26f25907cd)" style="fill:#3a7eb8"/><path id="patch_74" d="M587.917 271.314a7.984 7.984 0 1 0 0-15.968 7.984 7.984 0 0 0 0 15.968z" clip-path="url(#p26f25907cd)" style="fill:#3d95b8"/><path id="patch_75" d="M645.767 190.235a11.976 11.976 0 1 0 0-23.951 11.976 11.976 0 0 0 0 23.951z" clip-path="url(#p26f25907cd)" style="fill:#6bc4a5"/><path id="patch_76" d="M355.175 263.653a9.98 9.98 0 1 0 0-19.96 9.98 9.98 0 0 0 0 19.96z" clip-path="url(#p26f25907cd)" style="fill:#54aead"/><path id="patch_77" d="M103.136 332.593a3.992 3.992 0 1 0 0-7.984 3.992 3.992 0 0 0 0 7.984z" clip-path="url(#p26f25907cd)" style="fill:#4d65ad"/><path id="patch_78" d="M166.6 50.648a1.996 1.996 0 1 0 0-3.992 1.996 1.996 0 0 0 0 3.992z" clip-path="url(#p26f25907cd)" style="fill:#5e4fa2"/><path id="patch_79" d="M105.132 219.304a5.988 5.988 0 1 0 0-11.976 5.988 5.988 0 0 0 0 11.976z" clip-path="url(#p26f25907cd)" style="fill:#3a7eb8"/><path id="patch_80" d="M346.228 346.032a5.988 5.988 0 1 0 0-11.976 5.988 5.988 0 0 0 0 11.976z" clip-path="url(#p26f25907cd)" style="fill:#3a7eb8"/><path id="patch_81" d="M624.919 346.032a3.992 3.992 0 1 0 0-7.984 3.992 3.992 0 0 0 0 7.984z" clip-path="url(#p26f25907cd)" style="fill:#4d65ad"/><path id="patch_82" d="M101.14 285.397a1.996 1.996 0 1 0 0-3.992 1.996 1.996 0 0 0 0 3.992z" clip-path="url(#p26f25907cd)" style="fill:#5e4fa2"/><path id="patch_83" d="M691.908 191.665a5.988 5.988 0 1 0 0-11.976 5.988 5.988 0 0 0 0 11.976z" clip-path="url(#p26f25907cd)" style="fill:#3a7eb8"/><path id="patch_84" d="M119.389 54.64a3.992 3.992 0 1 0 0-7.984 3.992 3.992 0 0 0 0 7.983z" clip-path="url(#p26f25907cd)" style="fill:#4d65ad"/><path id="patch_85" d="M446.697 257.18a15.967 15.967 0 1 0 0-31.935 15.967 15.967 0 0 0 0 31.935z" clip-path="url(#p26f25907cd)" style="fill:#a4daa4"/><path id="patch_86" d="M295.252 244.219a9.98 9.98 0 1 0 0-19.96 9.98 9.98 0 0 0 0 19.96z" clip-path="url(#p26f25907cd)" style="fill:#54aead"/><g id="matplotlib.axis_1"><g id="xtick_1"><g id="line2d_1"><defs><path id="m0ea4f0a110" d="M0 0v3.5" style="stroke:#000;stroke-width:.8"/></defs><use xlink:href="#m0ea4f0a110" x="99.144" y="346.032" style="stroke:#000;stroke-width:.8"/></g><g id="text_1" transform="matrix(.1 0 0 -.1 95.963 360.63)"><defs><path id="DejaVuSans-30" d="M2034 4250q-487 0-733-480-245-479-245-1442 0-959 245-1439 246-480 733-480 491 0 736 480 246 480 246 1439 0 963-246 1442-245 480-736 480zm0 500q785 0 1199-621 414-620 414-1801 0-1178-414-1799Q2819-91 2034-91q-784 0-1198 620-414 621-414 1799 0 1181 414 1801 414 621 1198 621z" transform="scale(.01563)"/></defs><use xlink:href="#DejaVuSans-30"/></g></g><g id="xtick_2"><use xlink:href="#m0ea4f0a110" id="line2d_2" x="198.936" y="346.032" style="stroke:#000;stroke-width:.8"/><g id="text_2" transform="matrix(.1 0 0 -.1 189.392 360.63)"><defs><path id="DejaVuSans-31" d="M794 531h1031v3560L703 3866v575l1116 225h631V531h1031V0H794v531z" transform="scale(.01563)"/></defs><use xlink:href="#DejaVuSans-31"/><use xlink:href="#DejaVuSans-30" x="63.623"/><use xlink:href="#DejaVuSans-30" x="127.246"/></g></g><g id="xtick_3"><use xlink:href="#m0ea4f0a110" id="line2d_3" x="298.728" y="346.032" style="stroke:#000;stroke-width:.8"/><g id="text_3" transform="matrix(.1 0 0 -.1 289.184 360.63)"><defs><path id="DejaVuSans-32" d="M1228 531h2203V0H469v531q359 372 979 998 621 627 780 809 303 340 423 576 121 236 121 464 0 372-261 606-261 235-680 235-297 0-627-103-329-103-704-313v638q381 153 712 231 332 78 607 78 725 0 1156-363 431-362 431-968 0-288-108-546-107-257-392-607-78-91-497-524-418-433-1181-1211z" transform="scale(.01563)"/></defs><use xlink:href="#DejaVuSans-32"/><use xlink:href="#DejaVuSans-30" x="63.623"/><use xlink:href="#DejaVuSans-30" x="127.246"/></g></g><g id="xtick_4"><use xlink:href="#m0ea4f0a110" id="line2d_4" x="398.52" y="346.032" style="stroke:#000;stroke-width:.8"/><g id="text_4" transform="matrix(.1 0 0 -.1 388.976 360.63)"><defs><path id="DejaVuSans-33" d="M2597 2516q453-97 707-404 255-306 255-756 0-690-475-1069Q2609-91 1734-91q-293 0-604 58T488 141v609q262-153 574-231 313-78 654-78 593 0 904 234t311 681q0 413-289 645-289 233-804 233h-544v519h569q465 0 712 186t247 536q0 359-255 551-254 193-729 193-260 0-557-57-297-56-653-174v562q360 100 674 150t592 50q719 0 1137-327 419-326 419-882 0-388-222-655t-631-370z" transform="scale(.01563)"/></defs><use xlink:href="#DejaVuSans-33"/><use xlink:href="#DejaVuSans-30" x="63.623"/><use xlink:href="#DejaVuSans-30" x="127.246"/></g></g><g id="xtick_5"><use xlink:href="#m0ea4f0a110" id="line2d_5" x="498.312" y="346.032" style="stroke:#000;stroke-width:.8"/><g id="text_5" transform="matrix(.1 0 0 -.1 488.768 360.63)"><defs><path id="DejaVuSans-34" d="M2419 4116 825 1625h1594v2491zm-166 550h794V1625h666v-525h-666V0h-628v1100H313v609l1940 2957z" transform="scale(.01563)"/></defs><use xlink:href="#DejaVuSans-34"/><use xlink:href="#DejaVuSans-30" x="63.623"/><use xlink:href="#DejaVuSans-30" x="127.246"/></g></g><g id="xtick_6"><use xlink:href="#m0ea4f0a110" id="line2d_6" x="598.104" y="346.032" style="stroke:#000;stroke-width:.8"/><g id="text_6" transform="matrix(.1 0 0 -.1 588.56 360.63)"><defs><path id="DejaVuSans-35" d="M691 4666h2478v-532H1269V2991q137 47 274 70 138 23 276 23 781 0 1237-428 457-428 457-1159 0-753-469-1171Q2575-91 1722-91q-294 0-599 50Q819 9 494 109v635q281-153 581-228t634-75q541 0 856 284 316 284 316 772 0 487-316 771-315 285-856 285-253 0-505-56-251-56-513-175v2344z" transform="scale(.01563)"/></defs><use xlink:href="#DejaVuSans-35"/><use xlink:href="#DejaVuSans-30" x="63.623"/><use xlink:href="#DejaVuSans-30" x="127.246"/></g></g><g id="xtick_7"><use xlink:href="#m0ea4f0a110" id="line2d_7" x="697.896" y="346.032" style="stroke:#000;stroke-width:.8"/><g id="text_7" transform="matrix(.1 0 0 -.1 688.352 360.63)"><defs><path id="DejaVuSans-36" d="M2113 2584q-425 0-674-291-248-290-248-796 0-503 248-796 249-292 674-292t673 292q248 293 248 796 0 506-248 796-248 291-673 291zm1253 1979v-575q-238 112-480 171-242 60-480 60-625 0-955-422-329-422-376-1275 184 272 462 417 279 145 613 145 703 0 1111-427 408-426 408-1160 0-719-425-1154Q2819-91 2113-91q-810 0-1238 620-428 621-428 1799 0 1106 525 1764t1409 658q238 0 480-47t505-140z" transform="scale(.01563)"/></defs><use xlink:href="#DejaVuSans-36"/><use xlink:href="#DejaVuSans-30" x="63.623"/><use xlink:href="#DejaVuSans-30" x="127.246"/></g></g></g><g id="matplotlib.axis_2"><g id="ytick_1"><g id="line2d_8"><defs><path id="m9f22645502" d="M0 0h-3.5" style="stroke:#000;stroke-width:.8"/></defs><use xlink:href="#m9f22645502" x="99.144" y="346.032" style="stroke:#000;stroke-width:.8"/></g><use xlink:href="#DejaVuSans-30" id="text_8" transform="matrix(.1 0 0 -.1 85.781 349.831)"/></g><g id="ytick_2"><use xlink:href="#m9f22645502" id="line2d_9" x="99.144" y="296.136" style="stroke:#000;stroke-width:.8"/><g id="text_9" transform="matrix(.1 0 0 -.1 79.419 299.935)"><use xlink:href="#DejaVuSans-35"/><use xlink:href="#DejaVuSans-30" x="63.623"/></g></g><g id="ytick_3"><use xlink:href="#m9f22645502" id="line2d_10" x="99.144" y="246.24" style="stroke:#000;stroke-width:.8"/><g id="text_10" transform="matrix(.1 0 0 -.1 73.056 250.04)"><use xlink:href="#DejaVuSans-31"/><use xlink:href="#DejaVuSans-30" x="63.623"/><use xlink:href="#DejaVuSans-30" x="127.246"/></g></g><g id="ytick_4"><use xlink:href="#m9f22645502" id="line2d_11" x="99.144" y="196.344" style="stroke:#000;stroke-width:.8"/><g id="text_11" transform="matrix(.1 0 0 -.1 73.056 200.143)"><use xlink:href="#DejaVuSans-31"/><use xlink:href="#DejaVuSans-35" x="63.623"/><use xlink:href="#DejaVuSans-30" x="127.246"/></g></g><g id="ytick_5"><use xlink:href="#m9f22645502" id="line2d_12" x="99.144" y="146.448" style="stroke:#000;stroke-width:.8"/><g id="text_12" transform="matrix(.1 0 0 -.1 73.056 150.247)"><use xlink:href="#DejaVuSans-32"/><use xlink:href="#DejaVuSans-30" x="63.623"/><use xlink:href="#DejaVuSans-30" x="127.246"/></g></g><g id="ytick_6"><use xlink:href="#m9f22645502" id="line2d_13" x="99.144" y="96.552" style="stroke:#000;stroke-width:.8"/><g id="text_13" transform="matrix(.1 0 0 -.1 73.056 100.351)"><use xlink:href="#DejaVuSans-32"/><use xlink:href="#DejaVuSans-35" x="63.623"/><use xlink:href="#DejaVuSans-30" x="127.246"/></g></g><g id="ytick_7"><use xlink:href="#m9f22645502" id="line2d_14" x="99.144" y="46.656" style="stroke:#000;stroke-width:.8"/><g id="text_14" transform="matrix(.1 0 0 -.1 73.056 50.455)"><use xlink:href="#DejaVuSans-33"/><use xlink:href="#DejaVuSans-30" x="63.623"/><use xlink:href="#DejaVuSans-30" x="127.246"/></g></g></g><path id="patch_87" d="M99.144 346.032V46.656" style="fill:none;stroke:#000;stroke-width:.8;stroke-linejoin:miter;stroke-linecap:square"/><path id="patch_88" d="M697.896 346.032V46.656" style="fill:none;stroke:#000;stroke-width:.8;stroke-linejoin:miter;stroke-linecap:square"/><path id="patch_89" d="M99.144 346.032h598.752" style="fill:none;stroke:#000;stroke-width:.8;stroke-linejoin:miter;stroke-linecap:square"/><path id="patch_90" d="M99.144 46.656h598.752" style="fill:none;stroke:#000;stroke-width:.8;stroke-linejoin:miter;stroke-linecap:square"/><g id="text_15" transform="matrix(.12 0 0 -.12 226.627 40.656)"><defs><path id="DejaVuSans-50" d="M1259 4147V2394h794q441 0 681 228 241 228 241 650 0 419-241 647-240 228-681 228h-794zm-631 519h1425q785 0 1186-355 402-355 402-1039 0-691-402-1044-401-353-1186-353h-794V0H628v4666z" transform="scale(.01563)"/><path id="DejaVuSans-61" d="M2194 1759q-697 0-966-159t-269-544q0-306 202-486 202-179 548-179 479 0 768 339t289 901v128h-572zm1147 238V0h-575v531q-197-318-491-470T1556-91q-537 0-855 302-317 302-317 808 0 590 395 890 396 300 1180 300h807v57q0 397-261 614t-733 217q-300 0-585-72-284-72-546-216v532q315 122 612 182 297 61 578 61 760 0 1135-394 375-393 375-1193z" transform="scale(.01563)"/><path id="DejaVuSans-6c" d="M603 4863h575V0H603v4863z" transform="scale(.01563)"/><path id="DejaVuSans-6d" d="M3328 2828q216 388 516 572t706 184q547 0 844-383 297-382 297-1088V0h-578v2094q0 503-179 746-178 244-543 244-447 0-707-297-259-296-259-809V0h-578v2094q0 506-178 748t-550 242q-441 0-701-298-259-298-259-808V0H581v3500h578v-544q197 322 472 475t653 153q382 0 649-194 267-193 395-562z" transform="scale(.01563)"/><path id="DejaVuSans-65" d="M3597 1894v-281H953q38-594 358-905t892-311q331 0 642 81t618 244V178Q3153 47 2828-22t-659-69q-838 0-1327 487-489 488-489 1320 0 859 464 1363 464 505 1252 505 706 0 1117-455 411-454 411-1235zm-575 169q-6 471-264 752-258 282-683 282-481 0-770-272t-333-766l2050 4z" transform="scale(.01563)"/><path id="DejaVuSans-6e" d="M3513 2113V0h-575v2094q0 497-194 743-194 247-581 247-466 0-735-297-269-296-269-809V0H581v3500h578v-544q207 316 486 472 280 156 646 156 603 0 912-373 310-373 310-1098z" transform="scale(.01563)"/><path id="DejaVuSans-57" d="M213 4666h637l981-3944 978 3944h710l981-3944 978 3944h641L4947 0h-794l-984 4050L2175 0h-794L213 4666z" transform="scale(.01563)"/><path id="DejaVuSans-64" d="M2906 2969v1894h575V0h-575v525q-181-312-458-464-276-152-664-152-634 0-1033 506-398 507-398 1332t398 1331q399 506 1033 506 388 0 664-152 277-151 458-463zM947 1747q0-634 261-995t717-361q456 0 718 361 263 361 263 995t-263 995q-262 361-718 361t-717-361q-261-361-261-995z" transform="scale(.01563)"/><path id="DejaVuSans-2c" d="M750 794h659V256L897-744H494L750 256v538z" transform="scale(.01563)"/><path id="DejaVuSans-62" d="M3116 1747q0 634-261 995t-717 361q-457 0-718-361t-261-995q0-634 261-995t718-361q456 0 717 361t261 995zM1159 2969q182 312 458 463 277 152 661 152 638 0 1036-506 399-506 399-1331T3314 415Q2916-91 2278-91q-384 0-661 152-276 152-458 464V0H581v4863h578V2969z" transform="scale(.01563)"/><path id="DejaVuSans-3d" d="M678 2906h4006v-525H678v525zm0-1275h4006v-531H678v531z" transform="scale(.01563)"/><path id="DejaVuSans-2e" d="M684 794h660V0H684v794z" transform="scale(.01563)"/><path id="DejaVuSans-38" d="M2034 2216q-450 0-708-241-257-241-257-662 0-422 257-663 258-241 708-241t709 242q260 243 260 662 0 421-258 662-257 241-711 241zm-631 268q-406 100-633 378-226 279-226 679 0 559 398 884 399 325 1092 325 697 0 1094-325t397-884q0-400-227-679-226-278-629-378 456-106 710-416 255-309 255-755 0-679-414-1042Q2806-91 2034-91q-771 0-1186 362-414 363-414 1042 0 446 256 755 257 310 713 416zm-231 997q0-362 226-565 227-203 636-203 407 0 636 203 230 203 230 565 0 363-230 566-229 203-636 203-409 0-636-203-226-203-226-566z" transform="scale(.01563)"/><path id="DejaVuSans-37" d="M525 4666h3000v-269L1831 0h-659l1594 4134H525v532z" transform="scale(.01563)"/><path id="DejaVuSans-39" d="M703 97v575q238-113 481-172 244-59 479-59 625 0 954 420 330 420 377 1277-181-269-460-413-278-144-615-144-700 0-1108 423-408 424-408 1159 0 718 425 1152 425 435 1131 435 810 0 1236-621 427-620 427-1801 0-1103-524-1761Q2575-91 1691-91q-238 0-482 47Q966 3 703 97zm1256 1978q425 0 673 290 249 291 249 798 0 503-249 795-248 292-673 292t-673-292q-248-292-248-795 0-507 248-798 248-290 673-290z" transform="scale(.01563)"/></defs><use xlink:href="#DejaVuSans-50"/><use xlink:href="#DejaVuSans-61" x="55.803"/><use xlink:href="#DejaVuSans-6c" x="117.082"/><use xlink:href="#DejaVuSans-6d" x="144.865"/><use xlink:href="#DejaVuSans-65" x="242.277"/><use xlink:href="#DejaVuSans-6e" x="303.801"/><use xlink:href="#DejaVuSans-57" x="367.18"/><use xlink:href="#DejaVuSans-61" x="459.682"/><use xlink:href="#DejaVuSans-6c" x="520.961"/><use xlink:href="#DejaVuSans-64" x="548.744"/><use xlink:href="#DejaVuSans-2c" x="612.221"/><use xlink:href="#DejaVuSans-20" x="644.008"/><use xlink:href="#DejaVuSans-62" x="675.795"/><use xlink:href="#DejaVuSans-3d" x="739.271"/><use xlink:href="#DejaVuSans-30" x="823.061"/><use xlink:href="#DejaVuSans-2e" x="886.684"/><use xlink:href="#DejaVuSans-38" x="918.471"/><use xlink:href="#DejaVuSans-31" x="982.094"/><use xlink:href="#DejaVuSans-37" x="1045.717"/><use xlink:href="#DejaVuSans-31" x="1109.34"/><use xlink:href="#DejaVuSans-36" x="1172.963"/><use xlink:href="#DejaVuSans-38" x="1236.586"/><use xlink:href="#DejaVuSans-35" x="1300.209"/><use xlink:href="#DejaVuSans-2c" x="1363.832"/><use xlink:href="#DejaVuSans-20" x="1395.619"/><use xlink:href="#DejaVuSans-61" x="1427.406"/><use xlink:href="#DejaVuSans-3d" x="1488.686"/><use xlink:href="#DejaVuSans-30" x="1572.475"/><use xlink:href="#DejaVuSans-2e" x="1636.098"/><use xlink:href="#DejaVuSans-38" x="1667.885"/><use xlink:href="#DejaVuSans-37" x="1731.508"/><use xlink:href="#DejaVuSans-33" x="1795.131"/><use xlink:href="#DejaVuSans-33" x="1858.754"/><use xlink:href="#DejaVuSans-36" x="1922.377"/><use xlink:href="#DejaVuSans-32" x="1986"/><use xlink:href="#DejaVuSans-38" x="2049.623"/><use xlink:href="#DejaVuSans-2c" x="2113.246"/><use xlink:href="#DejaVuSans-20" x="2145.033"/><use xlink:href="#DejaVuSans-64" x="2176.82"/><use xlink:href="#DejaVuSans-3d" x="2240.297"/><use xlink:href="#DejaVuSans-30" x="2324.086"/><use xlink:href="#DejaVuSans-2e" x="2387.709"/><use xlink:href="#DejaVuSans-39" x="2419.496"/><use xlink:href="#DejaVuSans-33" x="2483.119"/><use xlink:href="#DejaVuSans-35" x="2546.742"/><use xlink:href="#DejaVuSans-36" x="2610.365"/><use xlink:href="#DejaVuSans-35" x="2673.988"/><use xlink:href="#DejaVuSans-37" x="2737.611"/><use xlink:href="#DejaVuSans-36" x="2801.234"/></g></g></g><defs><clipPath id="p26f25907cd"><path d="M99.144 46.656h598.752v299.376H99.144z"/></clipPath></defs></svg>