<svg xmlns="http://www.w3.org/2000/svg" xmlns:xlink="http://www.w3.org/1999/xlink" width="1225.92" height="580.8" viewBox="0 0 919.44 435.6"><defs><style>*{stroke-linejoin:round;stroke-linecap:butt}</style></defs><g id="figure_1"><path id="patch_1" d="M0 435.6h919.44V0H0z" style="fill:#fff"/><g id="axes_1"><path id="patch_2" d="M114.93 387.684h712.566V52.272H114.93z" style="fill:#fff"/><g id="matplotlib.axis_1"><g id="xtick_1"><path id="line2d_1" d="M147.32 387.684V52.272" clip-path="url(#p46ab07df6f)" style="fill:none;stroke:#000;stroke-opacity:.1;stroke-width:.6;stroke-linecap:square"/><g id="line2d_2"><defs><path id="m889d6f93df" d="M0 0v4" style="stroke:#000;stroke-width:.6"/></defs><use xlink:href="#m889d6f93df" x="147.319" y="387.684" style="stroke:#000;stroke-width:.6"/></g><g id="text_1" transform="matrix(.09 0 0 -.09 144.818 400.246)"><defs><path id="TeXGyreHeros-Regular-30" d="M3245 2182c0 1575-499 2356-1485 2356-979 0-1485-794-1485-2317C275 691 787-96 1760-96c960 0 1485 787 1485 2278zm-576 52c0-1287-295-1863-922-1863-595 0-896 602-896 1843 0 1242 301 1824 909 1824s909-588 909-1804z" transform="scale(.01563)"/></defs><use xlink:href="#TeXGyreHeros-Regular-30"/></g></g><g id="xtick_2"><path id="line2d_3" d="M228.293 387.684V52.272" clip-path="url(#p46ab07df6f)" style="fill:none;stroke:#000;stroke-opacity:.1;stroke-width:.6;stroke-linecap:square"/><use xlink:href="#m889d6f93df" id="line2d_4" x="228.293" y="387.684" style="stroke:#000;stroke-width:.6"/><g id="text_2" transform="matrix(.09 0 0 -.09 219.537 400.246)"><defs><path id="TeXGyreHeros-Regular-2e" d="M1222 0v666H557V0h665z" transform="scale(.01563)"/><path id="TeXGyreHeros-Regular-32" d="M3270 3206c0 768-595 1332-1452 1332-928 0-1466-474-1498-1575h563c45 762 359 1082 915 1082 512 0 896-365 896-851 0-359-211-666-614-896l-589-333C544 1427 269 998 218 0h3020v557H851c58 371 263 608 819 934l640 346c634 339 960 813 960 1369z" transform="scale(.01563)"/><path id="TeXGyreHeros-Regular-35" d="M3283 1504c0 896-595 1485-1465 1485-320 0-576-83-839-275l179 1171h1888v557H704L365 2067h518c263 314 480 423 832 423 608 0 992-391 992-1063 0-653-377-1024-992-1024-493 0-793 250-928 762H224C410 262 922-96 1728-96c915 0 1555 640 1555 1600z" transform="scale(.01563)"/></defs><use xlink:href="#TeXGyreHeros-Regular-30"/><use xlink:href="#TeXGyreHeros-Regular-2e" x="55.6"/><use xlink:href="#TeXGyreHeros-Regular-32" x="83.4"/><use xlink:href="#TeXGyreHeros-Regular-35" x="139"/></g></g><g id="xtick_3"><path id="line2d_5" d="M309.266 387.684V52.272" clip-path="url(#p46ab07df6f)" style="fill:none;stroke:#000;stroke-opacity:.1;stroke-width:.6;stroke-linecap:square"/><use xlink:href="#m889d6f93df" id="line2d_6" x="309.266" y="387.684" style="stroke:#000;stroke-width:.6"/><g id="text_3" transform="matrix(.09 0 0 -.09 303.012 400.246)"><use xlink:href="#TeXGyreHeros-Regular-30"/><use xlink:href="#TeXGyreHeros-Regular-2e" x="55.6"/><use xlink:href="#TeXGyreHeros-Regular-35" x="83.4"/></g></g><g id="xtick_4"><path id="line2d_7" d="M390.24 387.684V52.272" clip-path="url(#p46ab07df6f)" style="fill:none;stroke:#000;stroke-opacity:.1;stroke-width:.6;stroke-linecap:square"/><use xlink:href="#m889d6f93df" id="line2d_8" x="390.24" y="387.684" style="stroke:#000;stroke-width:.6"/><g id="text_4" transform="matrix(.09 0 0 -.09 381.484 400.246)"><defs><path id="TeXGyreHeros-Regular-37" d="M3328 3968v474H294v-557h2452C1843 2746 1203 1421 883 0h602c249 1466 889 2835 1843 3968z" transform="scale(.01563)"/></defs><use xlink:href="#TeXGyreHeros-Regular-30"/><use xlink:href="#TeXGyreHeros-Regular-2e" x="55.6"/><use xlink:href="#TeXGyreHeros-Regular-37" x="83.4"/><use xlink:href="#TeXGyreHeros-Regular-35" x="139"/></g></g><g id="xtick_5"><path id="line2d_9" d="M471.213 387.684V52.272" clip-path="url(#p46ab07df6f)" style="fill:none;stroke:#000;stroke-opacity:.1;stroke-width:.6;stroke-linecap:square"/><use xlink:href="#m889d6f93df" id="line2d_10" x="471.213" y="387.684" style="stroke:#000;stroke-width:.6"/><g id="text_5" transform="matrix(.09 0 0 -.09 468.711 400.246)"><defs><path id="TeXGyreHeros-Regular-31" d="M2221 0v4538h-371c-199-698-327-794-1197-903v-403h1005V0h563z" transform="scale(.01563)"/></defs><use xlink:href="#TeXGyreHeros-Regular-31"/></g></g><g id="xtick_6"><path id="line2d_11" d="M552.186 387.684V52.272" clip-path="url(#p46ab07df6f)" style="fill:none;stroke:#000;stroke-opacity:.1;stroke-width:.6;stroke-linecap:square"/><use xlink:href="#m889d6f93df" id="line2d_12" x="552.186" y="387.684" style="stroke:#000;stroke-width:.6"/><g id="text_6" transform="matrix(.09 0 0 -.09 543.43 400.246)"><use xlink:href="#TeXGyreHeros-Regular-31"/><use xlink:href="#TeXGyreHeros-Regular-2e" x="55.6"/><use xlink:href="#TeXGyreHeros-Regular-32" x="83.4"/><use xlink:href="#TeXGyreHeros-Regular-35" x="139"/></g></g><g id="xtick_7"><path id="line2d_13" d="M633.16 387.684V52.272" clip-path="url(#p46ab07df6f)" style="fill:none;stroke:#000;stroke-opacity:.1;stroke-width:.6;stroke-linecap:square"/><use xlink:href="#m889d6f93df" id="line2d_14" x="633.16" y="387.684" style="stroke:#000;stroke-width:.6"/><g id="text_7" transform="matrix(.09 0 0 -.09 626.906 400.246)"><use xlink:href="#TeXGyreHeros-Regular-31"/><use xlink:href="#TeXGyreHeros-Regular-2e" x="55.6"/><use xlink:href="#TeXGyreHeros-Regular-35" x="83.4"/></g></g><g id="xtick_8"><path id="line2d_15" d="M714.133 387.684V52.272" clip-path="url(#p46ab07df6f)" style="fill:none;stroke:#000;stroke-opacity:.1;stroke-width:.6;stroke-linecap:square"/><use xlink:href="#m889d6f93df" id="line2d_16" x="714.133" y="387.684" style="stroke:#000;stroke-width:.6"/><g id="text_8" transform="matrix(.09 0 0 -.09 705.377 400.246)"><use xlink:href="#TeXGyreHeros-Regular-31"/><use xlink:href="#TeXGyreHeros-Regular-2e" x="55.6"/><use xlink:href="#TeXGyreHeros-Regular-37" x="83.4"/><use xlink:href="#TeXGyreHeros-Regular-35" x="139"/></g></g><g id="xtick_9"><path id="line2d_17" d="M795.107 387.684V52.272" clip-path="url(#p46ab07df6f)" style="fill:none;stroke:#000;stroke-opacity:.1;stroke-width:.6;stroke-linecap:square"/><use xlink:href="#m889d6f93df" id="line2d_18" x="795.107" y="387.684" style="stroke:#000;stroke-width:.6"/><use xlink:href="#TeXGyreHeros-Regular-32" id="text_9" transform="matrix(.09 0 0 -.09 792.605 400.246)"/></g><g id="xtick_10"><g id="line2d_19"><defs><path id="mcf08614bac" d="M0 0v2" style="stroke:#000;stroke-width:.48"/></defs><use xlink:href="#mcf08614bac" x="114.93" y="387.684" style="stroke:#000;stroke-width:.48"/></g></g><g id="xtick_11"><use xlink:href="#mcf08614bac" id="line2d_20" x="131.125" y="387.684" style="stroke:#000;stroke-width:.48"/></g><g id="xtick_12"><use xlink:href="#mcf08614bac" id="line2d_21" x="163.514" y="387.684" style="stroke:#000;stroke-width:.48"/></g><g id="xtick_13"><use xlink:href="#mcf08614bac" id="line2d_22" x="179.709" y="387.684" style="stroke:#000;stroke-width:.48"/></g><g id="xtick_14"><use xlink:href="#mcf08614bac" id="line2d_23" x="195.903" y="387.684" style="stroke:#000;stroke-width:.48"/></g><g id="xtick_15"><use xlink:href="#mcf08614bac" id="line2d_24" x="212.098" y="387.684" style="stroke:#000;stroke-width:.48"/></g><g id="xtick_16"><use xlink:href="#mcf08614bac" id="line2d_25" x="244.487" y="387.684" style="stroke:#000;stroke-width:.48"/></g><g id="xtick_17"><use xlink:href="#mcf08614bac" id="line2d_26" x="260.682" y="387.684" style="stroke:#000;stroke-width:.48"/></g><g id="xtick_18"><use xlink:href="#mcf08614bac" id="line2d_27" x="276.877" y="387.684" style="stroke:#000;stroke-width:.48"/></g><g id="xtick_19"><use xlink:href="#mcf08614bac" id="line2d_28" x="293.072" y="387.684" style="stroke:#000;stroke-width:.48"/></g><g id="xtick_20"><use xlink:href="#mcf08614bac" id="line2d_29" x="325.461" y="387.684" style="stroke:#000;stroke-width:.48"/></g><g id="xtick_21"><use xlink:href="#mcf08614bac" id="line2d_30" x="341.656" y="387.684" style="stroke:#000;stroke-width:.48"/></g><g id="xtick_22"><use xlink:href="#mcf08614bac" id="line2d_31" x="357.85" y="387.684" style="stroke:#000;stroke-width:.48"/></g><g id="xtick_23"><use xlink:href="#mcf08614bac" id="line2d_32" x="374.045" y="387.684" style="stroke:#000;stroke-width:.48"/></g><g id="xtick_24"><use xlink:href="#mcf08614bac" id="line2d_33" x="406.434" y="387.684" style="stroke:#000;stroke-width:.48"/></g><g id="xtick_25"><use xlink:href="#mcf08614bac" id="line2d_34" x="422.629" y="387.684" style="stroke:#000;stroke-width:.48"/></g><g id="xtick_26"><use xlink:href="#mcf08614bac" id="line2d_35" x="438.824" y="387.684" style="stroke:#000;stroke-width:.48"/></g><g id="xtick_27"><use xlink:href="#mcf08614bac" id="line2d_36" x="455.018" y="387.684" style="stroke:#000;stroke-width:.48"/></g><g id="xtick_28"><use xlink:href="#mcf08614bac" id="line2d_37" x="487.408" y="387.684" style="stroke:#000;stroke-width:.48"/></g><g id="xtick_29"><use xlink:href="#mcf08614bac" id="line2d_38" x="503.602" y="387.684" style="stroke:#000;stroke-width:.48"/></g><g id="xtick_30"><use xlink:href="#mcf08614bac" id="line2d_39" x="519.797" y="387.684" style="stroke:#000;stroke-width:.48"/></g><g id="xtick_31"><use xlink:href="#mcf08614bac" id="line2d_40" x="535.992" y="387.684" style="stroke:#000;stroke-width:.48"/></g><g id="xtick_32"><use xlink:href="#mcf08614bac" id="line2d_41" x="568.381" y="387.684" style="stroke:#000;stroke-width:.48"/></g><g id="xtick_33"><use xlink:href="#mcf08614bac" id="line2d_42" x="584.576" y="387.684" style="stroke:#000;stroke-width:.48"/></g><g id="xtick_34"><use xlink:href="#mcf08614bac" id="line2d_43" x="600.77" y="387.684" style="stroke:#000;stroke-width:.48"/></g><g id="xtick_35"><use xlink:href="#mcf08614bac" id="line2d_44" x="616.965" y="387.684" style="stroke:#000;stroke-width:.48"/></g><g id="xtick_36"><use xlink:href="#mcf08614bac" id="line2d_45" x="649.355" y="387.684" style="stroke:#000;stroke-width:.48"/></g><g id="xtick_37"><use xlink:href="#mcf08614bac" id="line2d_46" x="665.549" y="387.684" style="stroke:#000;stroke-width:.48"/></g><g id="xtick_38"><use xlink:href="#mcf08614bac" id="line2d_47" x="681.744" y="387.684" style="stroke:#000;stroke-width:.48"/></g><g id="xtick_39"><use xlink:href="#mcf08614bac" id="line2d_48" x="697.939" y="387.684" style="stroke:#000;stroke-width:.48"/></g><g id="xtick_40"><use xlink:href="#mcf08614bac" id="line2d_49" x="730.328" y="387.684" style="stroke:#000;stroke-width:.48"/></g><g id="xtick_41"><use xlink:href="#mcf08614bac" id="line2d_50" x="746.523" y="387.684" style="stroke:#000;stroke-width:.48"/></g><g id="xtick_42"><use xlink:href="#mcf08614bac" id="line2d_51" x="762.717" y="387.684" style="stroke:#000;stroke-width:.48"/></g><g id="xtick_43"><use xlink:href="#mcf08614bac" id="line2d_52" x="778.912" y="387.684" style="stroke:#000;stroke-width:.48"/></g><g id="xtick_44"><use xlink:href="#mcf08614bac" id="line2d_53" x="811.301" y="387.684" style="stroke:#000;stroke-width:.48"/></g></g><g id="matplotlib.axis_2"><g id="ytick_1"><path id="line2d_54" d="M114.93 367.067h712.566" clip-path="url(#p46ab07df6f)" style="fill:none;stroke:#000;stroke-opacity:.1;stroke-width:.6;stroke-linecap:square"/><g id="line2d_55"><defs><path id="mb76abaaf49" d="M0 0h-4" style="stroke:#000;stroke-width:.6"/></defs><use xlink:href="#mb76abaaf49" x="114.93" y="367.067" style="stroke:#000;stroke-width:.6"/></g><g id="text_10" transform="matrix(.09 0 0 -.09 91.418 370.348)"><use xlink:href="#TeXGyreHeros-Regular-30"/><use xlink:href="#TeXGyreHeros-Regular-2e" x="55.6"/><use xlink:href="#TeXGyreHeros-Regular-35" x="83.4"/><use xlink:href="#TeXGyreHeros-Regular-35" x="139"/></g></g><g id="ytick_2"><path id="line2d_56" d="M114.93 318.735h712.566" clip-path="url(#p46ab07df6f)" style="fill:none;stroke:#000;stroke-opacity:.1;stroke-width:.6;stroke-linecap:square"/><use xlink:href="#mb76abaaf49" id="line2d_57" x="114.93" y="318.735" style="stroke:#000;stroke-width:.6"/><g id="text_11" transform="matrix(.09 0 0 -.09 96.421 322.016)"><defs><path id="TeXGyreHeros-Regular-36" d="M3283 1408c0 845-576 1414-1389 1414-448 0-800-172-1043-505 7 1107 365 1721 1011 1721 397 0 672-249 762-684h563c-109 742-595 1184-1286 1184-1056 0-1626-890-1626-2471C275 653 762-96 1798-96c864 0 1485 614 1485 1504zm-576-45c0-569-384-960-902-960-525 0-922 410-922 992 0 563 384 928 941 928 544 0 883-352 883-960z" transform="scale(.01563)"/></defs><use xlink:href="#TeXGyreHeros-Regular-30"/><use xlink:href="#TeXGyreHeros-Regular-2e" x="55.6"/><use xlink:href="#TeXGyreHeros-Regular-36" x="83.4"/></g></g><g id="ytick_3"><path id="line2d_58" d="M114.93 270.403h712.566" clip-path="url(#p46ab07df6f)" style="fill:none;stroke:#000;stroke-opacity:.1;stroke-width:.6;stroke-linecap:square"/><use xlink:href="#mb76abaaf49" id="line2d_59" x="114.93" y="270.403" style="stroke:#000;stroke-width:.6"/><g id="text_12" transform="matrix(.09 0 0 -.09 91.418 273.684)"><use xlink:href="#TeXGyreHeros-Regular-30"/><use xlink:href="#TeXGyreHeros-Regular-2e" x="55.6"/><use xlink:href="#TeXGyreHeros-Regular-36" x="83.4"/><use xlink:href="#TeXGyreHeros-Regular-35" x="139"/></g></g><g id="ytick_4"><path id="line2d_60" d="M114.93 222.07h712.566" clip-path="url(#p46ab07df6f)" style="fill:none;stroke:#000;stroke-opacity:.1;stroke-width:.6;stroke-linecap:square"/><use xlink:href="#mb76abaaf49" id="line2d_61" x="114.93" y="222.07" style="stroke:#000;stroke-width:.6"/><g id="text_13" transform="matrix(.09 0 0 -.09 96.421 225.351)"><use xlink:href="#TeXGyreHeros-Regular-30"/><use xlink:href="#TeXGyreHeros-Regular-2e" x="55.6"/><use xlink:href="#TeXGyreHeros-Regular-37" x="83.4"/></g></g><g id="ytick_5"><path id="line2d_62" d="M114.93 173.738h712.566" clip-path="url(#p46ab07df6f)" style="fill:none;stroke:#000;stroke-opacity:.1;stroke-width:.6;stroke-linecap:square"/><use xlink:href="#mb76abaaf49" id="line2d_63" x="114.93" y="173.738" style="stroke:#000;stroke-width:.6"/><g id="text_14" transform="matrix(.09 0 0 -.09 91.418 177.019)"><use xlink:href="#TeXGyreHeros-Regular-30"/><use xlink:href="#TeXGyreHeros-Regular-2e" x="55.6"/><use xlink:href="#TeXGyreHeros-Regular-37" x="83.4"/><use xlink:href="#TeXGyreHeros-Regular-35" x="139"/></g></g><g id="ytick_6"><path id="line2d_64" d="M114.93 125.406h712.566" clip-path="url(#p46ab07df6f)" style="fill:none;stroke:#000;stroke-opacity:.1;stroke-width:.6;stroke-linecap:square"/><use xlink:href="#mb76abaaf49" id="line2d_65" x="114.93" y="125.406" style="stroke:#000;stroke-width:.6"/><g id="text_15" transform="matrix(.09 0 0 -.09 96.421 128.687)"><defs><path id="TeXGyreHeros-Regular-38" d="M3283 1280c0 506-256 858-781 1107 468 282 621 512 621 941 0 710-557 1210-1363 1210-800 0-1363-500-1363-1210 0-422 153-653 614-941-518-249-774-601-774-1101C237 454 864-96 1760-96s1523 550 1523 1376zm-736 2035c0-422-313-704-787-704s-787 282-787 711c0 435 313 716 787 716 480 0 787-281 787-723zm160-2041c0-538-384-871-960-871-550 0-934 339-934 871 0 531 384 864 947 864s947-333 947-864z" transform="scale(.01563)"/></defs><use xlink:href="#TeXGyreHeros-Regular-30"/><use xlink:href="#TeXGyreHeros-Regular-2e" x="55.6"/><use xlink:href="#TeXGyreHeros-Regular-38" x="83.4"/></g></g><g id="ytick_7"><path id="line2d_66" d="M114.93 77.074h712.566" clip-path="url(#p46ab07df6f)" style="fill:none;stroke:#000;stroke-opacity:.1;stroke-width:.6;stroke-linecap:square"/><use xlink:href="#mb76abaaf49" id="line2d_67" x="114.93" y="77.074" style="stroke:#000;stroke-width:.6"/><g id="text_16" transform="matrix(.09 0 0 -.09 91.418 80.354)"><use xlink:href="#TeXGyreHeros-Regular-30"/><use xlink:href="#TeXGyreHeros-Regular-2e" x="55.6"/><use xlink:href="#TeXGyreHeros-Regular-38" x="83.4"/><use xlink:href="#TeXGyreHeros-Regular-35" x="139"/></g></g><g id="ytick_8"><g id="line2d_68"><defs><path id="m3e470d7433" d="M0 0h-2" style="stroke:#000;stroke-width:.48"/></defs><use xlink:href="#m3e470d7433" x="114.93" y="386.4" style="stroke:#000;stroke-width:.48"/></g></g><g id="ytick_9"><use xlink:href="#m3e470d7433" id="line2d_69" x="114.93" y="376.734" style="stroke:#000;stroke-width:.48"/></g><g id="ytick_10"><use xlink:href="#m3e470d7433" id="line2d_70" x="114.93" y="357.401" style="stroke:#000;stroke-width:.48"/></g><g id="ytick_11"><use xlink:href="#m3e470d7433" id="line2d_71" x="114.93" y="347.734" style="stroke:#000;stroke-width:.48"/></g><g id="ytick_12"><use xlink:href="#m3e470d7433" id="line2d_72" x="114.93" y="338.068" style="stroke:#000;stroke-width:.48"/></g><g id="ytick_13"><use xlink:href="#m3e470d7433" id="line2d_73" x="114.93" y="328.402" style="stroke:#000;stroke-width:.48"/></g><g id="ytick_14"><use xlink:href="#m3e470d7433" id="line2d_74" x="114.93" y="309.069" style="stroke:#000;stroke-width:.48"/></g><g id="ytick_15"><use xlink:href="#m3e470d7433" id="line2d_75" x="114.93" y="299.402" style="stroke:#000;stroke-width:.48"/></g><g id="ytick_16"><use xlink:href="#m3e470d7433" id="line2d_76" x="114.93" y="289.736" style="stroke:#000;stroke-width:.48"/></g><g id="ytick_17"><use xlink:href="#m3e470d7433" id="line2d_77" x="114.93" y="280.069" style="stroke:#000;stroke-width:.48"/></g><g id="ytick_18"><use xlink:href="#m3e470d7433" id="line2d_78" x="114.93" y="260.736" style="stroke:#000;stroke-width:.48"/></g><g id="ytick_19"><use xlink:href="#m3e470d7433" id="line2d_79" x="114.93" y="251.07" style="stroke:#000;stroke-width:.48"/></g><g id="ytick_20"><use xlink:href="#m3e470d7433" id="line2d_80" x="114.93" y="241.403" style="stroke:#000;stroke-width:.48"/></g><g id="ytick_21"><use xlink:href="#m3e470d7433" id="line2d_81" x="114.93" y="231.737" style="stroke:#000;stroke-width:.48"/></g><g id="ytick_22"><use xlink:href="#m3e470d7433" id="line2d_82" x="114.93" y="212.404" style="stroke:#000;stroke-width:.48"/></g><g id="ytick_23"><use xlink:href="#m3e470d7433" id="line2d_83" x="114.93" y="202.738" style="stroke:#000;stroke-width:.48"/></g><g id="ytick_24"><use xlink:href="#m3e470d7433" id="line2d_84" x="114.93" y="193.071" style="stroke:#000;stroke-width:.48"/></g><g id="ytick_25"><use xlink:href="#m3e470d7433" id="line2d_85" x="114.93" y="183.405" style="stroke:#000;stroke-width:.48"/></g><g id="ytick_26"><use xlink:href="#m3e470d7433" id="line2d_86" x="114.93" y="164.072" style="stroke:#000;stroke-width:.48"/></g><g id="ytick_27"><use xlink:href="#m3e470d7433" id="line2d_87" x="114.93" y="154.405" style="stroke:#000;stroke-width:.48"/></g><g id="ytick_28"><use xlink:href="#m3e470d7433" id="line2d_88" x="114.93" y="144.739" style="stroke:#000;stroke-width:.48"/></g><g id="ytick_29"><use xlink:href="#m3e470d7433" id="line2d_89" x="114.93" y="135.072" style="stroke:#000;stroke-width:.48"/></g><g id="ytick_30"><use xlink:href="#m3e470d7433" id="line2d_90" x="114.93" y="115.739" style="stroke:#000;stroke-width:.48"/></g><g id="ytick_31"><use xlink:href="#m3e470d7433" id="line2d_91" x="114.93" y="106.073" style="stroke:#000;stroke-width:.48"/></g><g id="ytick_32"><use xlink:href="#m3e470d7433" id="line2d_92" x="114.93" y="96.407" style="stroke:#000;stroke-width:.48"/></g><g id="ytick_33"><use xlink:href="#m3e470d7433" id="line2d_93" x="114.93" y="86.74" style="stroke:#000;stroke-width:.48"/></g><g id="ytick_34"><use xlink:href="#m3e470d7433" id="line2d_94" x="114.93" y="67.407" style="stroke:#000;stroke-width:.48"/></g><g id="ytick_35"><use xlink:href="#m3e470d7433" id="line2d_95" x="114.93" y="57.741" style="stroke:#000;stroke-width:.48"/></g></g><path id="line2d_96" d="m147.32 253.853 3.238 118.386h3.24l3.238-3.395 3.24.543 3.238-4.46 3.239 6.568 3.239.943 3.239-4.558 3.239-5.497 3.239 2.285 3.239 5.605 3.239-7.998 3.239.483 3.238 1.544 3.24-.91 3.238.194 3.24 2.283 3.238-1.655 3.24-4.373 3.238-15.1 3.239-34.478 3.239-17.974 3.239-1.297 3.239-5.26 3.239 1.498 3.239 2.289 3.239 1.011 3.239 3.173 3.239 1.48 3.238 7.126 3.24-9.506 3.238 1.496 3.24-5.327 3.238 3.318 3.24-15.574 3.238-16.193 3.239-1.724 3.239-.93 3.239-2.284 3.239-1.126 3.239 1.095 3.239-1.657 3.239 4.488 3.239-.397 3.238.38 3.24-1.074 3.238 2.297 3.24-1.552 3.238 1.57 3.24-1.253 3.238-2.85 3.24-1.265 3.238 1.353 3.239.15 3.239-.465 3.239-1.758 3.239 1.032 3.239-.01 3.239 4.07 3.239-4.524 3.238 1.587 3.24-1.591 3.238-2.125 3.24 1.934 3.238 1.227 3.24-1.234 3.238-.278 3.239-.392 3.239.635 3.239-3.567 3.239.938 3.239-.046 3.239-1.177 3.239-.533 3.239 1.951 3.239 2.547 3.238-3.981 3.24-.13 3.238.084 3.24-1.747 3.238 2.899 3.24-2.882 3.238 3.615 3.239-2.137 3.239-.031 3.239 2.161 3.239-4.231 3.239 1.347 3.239-2.833 3.239 3.339 3.239-4.924 3.239 4.167 3.238-3.262 3.24 3.835 3.238.537 3.24-.821 3.238-3.251 3.24 3.347 3.238 2.182 3.239-1.958 3.239 3.176 3.239-2.309 3.239-2.797 3.239 3.478 3.239-1.822 3.239 1.7 3.239 2.715 3.238-3.432 3.24 1.46 3.238-3.228 3.24 6.038 3.238-3.906 3.24 3.668 6.477-1.89 3.239.2 3.239-3.313 3.239 8.232 3.239-4.133 3.239.874 3.239 3.611 3.239-5.826 3.239.397 3.238-2.26 3.24 1.62 3.238.733 3.24 2.29 3.238-.2 3.24-2.443 3.238 10.366 3.239-4.383 3.239-3.85 3.239.084 3.239 1.147 3.239 5.215 3.239-4.506 3.239 1.844 3.239-.831 3.239-4.096 3.238 2.095 3.24 8.979 3.238-4.999 6.478.59 3.24 3.016 3.238-1.929 3.239-1.131 3.239-2.727 3.239 6.8 3.239-4.43 3.239 2.25 3.239-2.49 3.239-.638 3.239-1.534 3.239-.3 3.238 4.453 3.24-2.468 3.238-3.262 3.24 11.563 3.238-10.754 3.24-.588 3.238.209 3.239-2.992 3.239-3.856 3.239 3.378 3.239 1.066 3.239-.64 3.239-1.478 3.239-.136 3.239 2.641 3.238-1.024 3.24-2.356 3.238.785 3.24 2.328 3.238-5.28 3.24 2.437 3.238-1.134 3.239.172 3.239-2.137 3.239-.375 3.239-.138 3.239 4 3.239-1.356 3.239 9.006 3.239-7.802 3.239-1.812 3.238 2.88 3.24.263 3.238.484 3.24-2.469 3.238.116 3.24 4.465 3.238-.63 3.239-1.073 3.239 1.812 3.239 2.676 3.239-3.618 3.239 2.12 3.239 1.23 3.239 2.678h0" clip-path="url(#p46ab07df6f)" style="fill:none;stroke:#0072b2;stroke-linecap:square"/><path id="line2d_97" d="m147.32 89.08 3.238-2.096h3.24l3.238 4.646 3.24-6.286 3.238.82 3.239 14.486 3.239-6.833 3.239-1.093 3.239-4.92 3.239-1.093 3.239 13.392 3.239-12.846 3.239-4.92 3.238 1.094 3.24 6.56 3.238-3.007 3.24 6.833 3.238-2.733 3.24-6.287 3.238-3.765 3.239-5.861 3.239-1.974 3.239 9.323 3.239-4.1 3.239-.82 3.239 5.497 3.239 1.761 3.239 3.948 3.239.941 3.238 7.471 3.24-12.815 3.238 2.642 3.24-9.9 3.238 5.557 3.24 6.59 3.238-2.703 3.239 6.195 3.239-.152 3.239-.607 3.239-.85 3.239.395 3.239-2.37L286.594 94l3.239-1.002 3.238-.304 3.24-2.126 3.238 2.916 3.24-2.156 3.238-.73 3.24.213 3.238-2.885 3.24-2.49 3.238 2.126 3.239.304 3.239-1.094 3.239-2.308 3.239 2.976 3.239-.121 3.239 4.859 3.239-6.833 3.238 3.401 3.24-1.518 3.238-1.184 3.24 2.399 3.238-.03 3.24-.76 3.238-.091 3.239-.395 3.239 1.883 3.239-3.25 3.239 1.458 3.239-2.824 3.239 1.093 3.239-.729 6.478 4.343 3.238-4.312 3.24.91 3.238.092 3.24-2.156 3.238 3.097 3.24-2.49 3.238 4.738 3.239-2.946 3.239-3.128 3.239 4.403 3.239-4.282 3.239.365 3.239-1.761 3.239 3.158 3.239-7.319 3.239 5.892 3.238-3.979 3.24 3.979 3.238 1.245 3.24-2.126 3.238-3.918 3.24 2.916 3.238 3.188 3.239-1.791 3.239-.152 3.239-1.245 3.239-2.278 3.239 3.523 3.239-1.336 3.239-.456 3.239 1.61 3.238-2.37 3.24 1.155 3.238-3.25 3.24 3.128 3.238-2.763 3.24-.668 3.238 3.735 3.239-3.34 3.239-.152 3.239-2.551 3.239 2.399 3.239.304 3.239-.122 3.239 4.98 3.239-8.35 3.239.88 3.238-2.703 3.24 2.369 3.238-3.553 3.24 3.37 3.238 1.944 3.24-3.674 3.238 8.472 3.239-4.008 3.239-5.952 3.239 2.885 3.239-6.226 3.239 6.62 3.239-.728 3.239 2.763 3.239 1.306 3.239-7.106 3.238 3.097 3.24-.79 3.238.547 3.24 1.215 3.238-5.223 3.24 3.097 3.238 3.948 3.239-4.008 3.239-5.68 3.239 6.226 3.239.456 3.239-6.742 3.239 7.622 3.239-2.338 3.239-1.367 3.239 4.191 3.238-2.338 3.24 2.095 3.238.699 3.24 10.082 3.238-10.477 3.24-1.549 3.238.486 3.239.304 3.239-1.762 3.239 2.734 3.239-1.246 3.239 1.823 3.239-.395 3.239 2.126 3.239.698 3.238-1.883 3.24 2.612 3.238 2.065 3.24 1.852 3.238-5.071 3.24 2.217 3.238.486 3.239-.486 3.239.637 3.239-.85 3.239-2.277 3.239 5.162 3.239-2.49 3.239 10.72 3.239-6.924 3.239-2.764 3.238.365 6.478 3.401 3.24-3.553 3.238-.273 3.24 2.368 3.238 1.063 3.239-1.457 3.239 1.974 3.239 1.245 3.239-1.397 3.239 1.002 3.239-2.126 3.239 2.035h0" clip-path="url(#p46ab07df6f)" style="fill:none;stroke:#d55e00;stroke-linecap:square"/><path id="line2d_98" d="m147.32 128.803 3.238 142.966h3.24l3.238-7.676 3.24 5.55 3.238-5.94 3.239-3.572 3.239 6.554 3.239-4.61 3.239-2.69 3.239 3.581 3.239-3.876 3.239.597 3.239 4.423 3.238.98 3.24-6.227 3.238 2.601 3.24-2.668 3.238.185 3.24-.253 3.238-14.903 3.239-35.808 3.239-19.395 3.239-9.648 3.239-2.6 3.239 2.484 3.239-2.139 3.239-.36 3.239.265 3.239.927 3.238 1.873 3.24.036 3.238-.559 3.24 2.406 3.238-.955 3.24-24.448 3.238-16.802 3.239-7.906 3.239-.972 3.239-2.157 3.239-.536 3.239.933 3.239.276 3.239.8 3.239.48 6.477 1.48 3.24-.02 3.238.19 3.24 2.57 3.238-1.7 3.24-.671 3.238.844 3.239-.395 3.239-.107 3.239.478 3.239.084 3.239-1.58 3.239.104 3.239.253 3.239 1.068 3.238-1.322 3.24-.46 3.238-1.407 3.24.029 3.238 1.492 3.24-.752 3.238-.245 3.239-.092 3.239-1.03 3.239-1.164 3.239-.269 3.239 2.622 3.239-2.434 3.239.058 3.239.247 3.239.988 3.238-.65 3.24-1.018 6.477-.018 3.24.509 3.238-1.063 3.24-.203 3.238.258 3.239 2.924 3.239-1.6 3.239-.968 3.239 1.252 3.239-1.69 6.478 2.045 3.239-.624 3.238-.106 3.24.786 3.238-.541 3.24 1.035 3.238-.156 3.24 1.213 3.238-.42 3.239-.63 3.239 3.906 3.239-1.565 3.239-1.167 3.239.803 3.239-.9 3.239 2.437 3.239 1.706 3.238-1.842 3.24.646 3.238-.773 3.24 4.208 3.238-2.035 3.24 4.941 3.238-4.598 3.239 2.006 3.239.376 3.239-1.53 3.239 7.465 3.239-5.149 3.239 1.142 3.239-.357 3.239.865 3.239-.346 3.238-.161 3.24-.28 3.238 4.119 3.24-.405 3.238-2.023 3.24.513 3.238 4.41 3.239-1.484 3.239.931 3.239-2.54 3.239 7.005 3.239.1 3.239-4.622 3.239-.366 3.239-2.18 3.239 1.71 3.238-.378 3.24 11.242 3.238-6.354 3.24-.737 3.238 5.055 3.24.733 3.238-5.85 3.239 2.321 3.239 1.943 3.239 2.335 3.239-5.607 3.239 8.7 3.239-9.783 3.239 1.38 3.239-.555 3.239-4.17 3.238 7.351 3.24-4.8 3.238-4.47 3.24 4.373 3.238-3.06 3.24.729 3.238-.2 3.239-3.789 3.239-2.897 3.239 1.44 3.239 2.398 3.239-2.43 3.239-1.372 3.239-2.132 3.239 2.464 3.238.538 3.24-5.204 3.238-1.006 3.24 1.02 3.238-1.491 3.24.8 3.238-1.794 3.239.659 3.239-3.126 3.239.357 3.239 1.975 3.239-.12 3.239.735 3.239.595 3.239-2.743 3.239.459 3.238 3.068 3.24-1.317 3.238-1 6.478.814 3.24 3.067 3.238-1.748 3.239.098 3.239.295 3.239 2.012 3.239-2.99 3.239 1.578 3.239 3.46 3.239 1.277h0" clip-path="url(#p46ab07df6f)" style="fill:none;stroke:#009e73;stroke-linecap:square"/><path id="patch_3" d="M114.93 387.684V52.272" style="fill:none;stroke:#000;stroke-width:.6;stroke-linejoin:miter;stroke-linecap:square"/><path id="patch_4" d="M827.496 387.684V52.272" style="fill:none;stroke:#000;stroke-width:.6;stroke-linejoin:miter;stroke-linecap:square"/><path id="patch_5" d="M114.93 387.684h712.566" style="fill:none;stroke:#000;stroke-width:.6;stroke-linejoin:miter;stroke-linecap:square"/><path id="patch_6" d="M114.93 52.272h712.566" style="fill:none;stroke:#000;stroke-width:.6;stroke-linejoin:miter;stroke-linecap:square"/></g></g><defs><clipPath id="p46ab07df6f"><path d="M114.93 52.272h712.566v335.412H114.93z"/></clipPath></defs></svg>