<svg xmlns="http://www.w3.org/2000/svg" xmlns:xlink="http://www.w3.org/1999/xlink" width="1152" height="1152" viewBox="0 0 864 864"><defs><style>*{stroke-linejoin:round;stroke-linecap:butt}</style></defs><g id="figure_1"><path id="patch_1" d="M0 864h864V0H0z" style="fill:#fff"/><g id="axes_1"><path id="patch_2" d="M110.16 768.96h665.28V103.68H110.16z" style="fill:#fff"/><path id="patch_3" d="M176.688 768.96a66.531 66.531 0 0 0 66.528-66.528 66.531 66.531 0 0 0-66.528-66.528 66.531 66.531 0 0 0-66.528 66.528 66.531 66.531 0 0 0 66.528 66.528z" clip-path="url(#p63601c991d)" style="fill:#ff00bf"/><path id="patch_4" d="M176.688 635.904a66.531 66.531 0 0 0 66.528-66.528 66.531 66.531 0 0 0-66.528-66.528 66.531 66.531 0 0 0-66.528 66.528 66.531 66.531 0 0 0 66.528 66.528z" clip-path="url(#p63601c991d)" style="fill:#ff00bf"/><path id="patch_5" d="M309.744 768.96a66.531 66.531 0 0 0 66.528-66.528 66.531 66.531 0 0 0-66.528-66.528 66.531 66.531 0 0 0-66.528 66.528 66.531 66.531 0 0 0 66.528 66.528z" clip-path="url(#p63601c991d)" style="fill:#ff00bf"/><path id="patch_6" d="M175.357 502.855a65.2 65.2 0 0 0 65.198-65.198 65.2 65.2 0 0 0-65.198-65.197 65.2 65.2 0 0 0-65.197 65.197 65.2 65.2 0 0 0 65.197 65.198z" clip-path="url(#p63601c991d)" style="fill:#ff00da"/><path id="patch_7" d="M440.112 768.96a63.87 63.87 0 0 0 63.867-63.867 63.87 63.87 0 0 0-63.867-63.867 63.87 63.87 0 0 0-63.867 63.867 63.87 63.87 0 0 0 63.867 63.867z" clip-path="url(#p63601c991d)" style="fill:#ff00f6"/><path id="patch_8" d="M172.696 372.488a62.54 62.54 0 0 0 62.537-62.537 62.54 62.54 0 0 0-62.537-62.536 62.54 62.54 0 0 0-62.536 62.536 62.54 62.54 0 0 0 62.536 62.537z" clip-path="url(#p63601c991d)" style="fill:#ed00ff"/><path id="patch_9" d="M565.156 768.96a61.209 61.209 0 0 0 61.206-61.206 61.209 61.209 0 0 0-61.206-61.206 61.209 61.209 0 0 0-61.206 61.206 61.209 61.209 0 0 0 61.206 61.206z" clip-path="url(#p63601c991d)" style="fill:#d200ff"/><path id="patch_10" d="M170.035 247.444a59.878 59.878 0 0 0 59.875-59.875 59.878 59.878 0 0 0-59.875-59.876 59.878 59.878 0 0 0-59.875 59.876 59.878 59.878 0 0 0 59.875 59.875z" clip-path="url(#p63601c991d)" style="fill:#b100ff"/><path id="patch_11" d="M684.877 768.96a58.547 58.547 0 0 0 58.545-58.545 58.547 58.547 0 0 0-58.545-58.544 58.547 58.547 0 0 0-58.545 58.544 58.547 58.547 0 0 0 58.545 58.545z" clip-path="url(#p63601c991d)" style="fill:#9600ff"/><path id="patch_12" d="M241.872 662.515a26.612 26.612 0 0 0 0-53.222 26.612 26.612 0 0 0 0 53.222z" clip-path="url(#p63601c991d)" style="fill:#10ff00"/><path id="patch_13" d="M753.242 768.96a19.96 19.96 0 1 0 0-39.919 19.96 19.96 0 0 0 0 39.919z" clip-path="url(#p63601c991d)" style="fill:#9dff00"/><path id="patch_14" d="M127.457 140.502a17.298 17.298 0 1 0 0-34.596 17.298 17.298 0 0 0 0 34.596z" clip-path="url(#p63601c991d)" style="fill:#d8ff00"/><path id="patch_15" d="M126.127 653.215a15.967 15.967 0 1 0 0-31.935 15.967 15.967 0 0 0 0 31.935z" clip-path="url(#p63601c991d)" style="fill:#f3ff00"/><path id="patch_16" d="M124.796 390.512a14.637 14.637 0 1 0 0-29.274 14.637 14.637 0 0 0 0 29.274z" clip-path="url(#p63601c991d)" style="fill:#fff000"/><path id="patch_17" d="M498.414 768.96a13.306 13.306 0 1 0 0-26.612 13.306 13.306 0 0 0 0 26.612z" clip-path="url(#p63601c991d)" style="fill:#ffd500"/><path id="patch_18" d="M122.135 267.195a11.976 11.976 0 1 0 0-23.951 11.976 11.976 0 0 0 0 23.951z" clip-path="url(#p63601c991d)" style="fill:#ffb400"/><path id="patch_19" d="M120.804 766.299a10.645 10.645 0 1 0 0-21.29 10.645 10.645 0 0 0 0 21.29z" clip-path="url(#p63601c991d)" style="fill:#f90"/><path id="patch_20" d="M612.908 768.96a9.314 9.314 0 1 0 0-18.629 9.314 9.314 0 0 0 0 18.629z" clip-path="url(#p63601c991d)" style="fill:#ff7e00"/><path id="patch_21" d="M241.872 768.96a15.967 15.967 0 1 0 0-31.935 15.967 15.967 0 0 0 0 31.935z" clip-path="url(#p63601c991d)" style="fill:#f3ff00"/><path id="patch_22" d="M520.946 768.96a7.984 7.984 0 1 0 0-15.967 7.984 7.984 0 0 0 0 15.967z" clip-path="url(#p63601c991d)" style="fill:#ff6300"/><path id="patch_23" d="M124.796 521.603a14.637 14.637 0 1 0 0-29.273 14.637 14.637 0 0 0 0 29.273z" clip-path="url(#p63601c991d)" style="fill:#fff000"/><path id="patch_24" d="M369.248 768.96a13.306 13.306 0 1 0 0-26.612 13.306 13.306 0 0 0 0 26.612z" clip-path="url(#p63601c991d)" style="fill:#ffd500"/><path id="patch_25" d="M218.764 768.96a6.653 6.653 0 1 0 0-13.306 6.653 6.653 0 0 0 0 13.306z" clip-path="url(#p63601c991d)" style="fill:#ff4300"/><path id="patch_26" d="M634.95 768.96a10.645 10.645 0 1 0 0-21.29 10.645 10.645 0 0 0 0 21.29z" clip-path="url(#p63601c991d)" style="fill:#f90"/><path id="patch_27" d="M115.482 745.388a5.322 5.322 0 1 0 0-10.645 5.322 5.322 0 0 0 0 10.645z" clip-path="url(#p63601c991d)" style="fill:#ff2800"/><path id="patch_28" d="M118.143 491.27a7.984 7.984 0 1 0 0-15.968 7.984 7.984 0 0 0 0 15.967z" clip-path="url(#p63601c991d)" style="fill:#ff6300"/><path id="patch_29" d="M654.303 768.96a3.992 3.992 0 1 0 0-7.984 3.992 3.992 0 0 0 0 7.984z" clip-path="url(#p63601c991d)" style="fill:#ff0d00"/><path id="patch_30" d="M207.175 642.557a6.653 6.653 0 1 0 0-13.306 6.653 6.653 0 0 0 0 13.306z" clip-path="url(#p63601c991d)" style="fill:#ff4300"/><path id="patch_31" d="M394.951 768.96a7.984 7.984 0 1 0 0-15.967 7.984 7.984 0 0 0 0 15.967z" clip-path="url(#p63601c991d)" style="fill:#ff6300"/><path id="patch_32" d="M139.054 768.96a5.322 5.322 0 1 0 0-10.645 5.322 5.322 0 0 0 0 10.645z" clip-path="url(#p63601c991d)" style="fill:#ff2800"/><path id="patch_33" d="M227.18 768.96a2.661 2.661 0 1 0 0-5.322 2.661 2.661 0 0 0 0 5.322z" clip-path="url(#p63601c991d)" style="fill:#ff000e"/><path id="patch_34" d="M724.348 768.96a6.653 6.653 0 1 0 0-13.306 6.653 6.653 0 0 0 0 13.306z" clip-path="url(#p63601c991d)" style="fill:#ff4300"/><path id="patch_35" d="M118.143 239.279a7.984 7.984 0 1 0 0-15.968 7.984 7.984 0 0 0 0 15.968z" clip-path="url(#p63601c991d)" style="fill:#ff6300"/><path id="patch_36" d="M735.391 768.96a3.992 3.992 0 1 0 0-7.984 3.992 3.992 0 0 0 0 7.984z" clip-path="url(#p63601c991d)" style="fill:#ff0d00"/><path id="patch_37" d="M149.55 641.226a5.322 5.322 0 1 0 0-10.645 5.322 5.322 0 0 0 0 10.645z" clip-path="url(#p63601c991d)" style="fill:#ff2800"/><path id="patch_38" d="M116.813 667.009a6.653 6.653 0 1 0 0-13.306 6.653 6.653 0 0 0 0 13.306z" clip-path="url(#p63601c991d)" style="fill:#ff4300"/><path id="patch_39" d="M116.813 533.953a6.653 6.653 0 1 0 0-13.306 6.653 6.653 0 0 0 0 13.306z" clip-path="url(#p63601c991d)" style="fill:#ff4300"/><path id="patch_40" d="M243.216 734.892a5.322 5.322 0 1 0 0-10.645 5.322 5.322 0 0 0 0 10.645z" clip-path="url(#p63601c991d)" style="fill:#ff2800"/><path id="patch_41" d="M771.094 768.96a3.992 3.992 0 1 0 0-7.984 3.992 3.992 0 0 0 0 7.984z" clip-path="url(#p63601c991d)" style="fill:#ff0d00"/><path id="patch_42" d="M112.821 735.2a2.661 2.661 0 1 0 0-5.322 2.661 2.661 0 0 0 0 5.322z" clip-path="url(#p63601c991d)" style="fill:#ff000e"/><path id="patch_43" d="M111.49 749.458a1.33 1.33 0 1 0 0-2.661 1.33 1.33 0 0 0 0 2.661z" clip-path="url(#p63601c991d)" style="fill:#ff0029"/><path id="patch_44" d="M116.813 618.105a6.653 6.653 0 1 0 0-13.306 6.653 6.653 0 0 0 0 13.306z" clip-path="url(#p63601c991d)" style="fill:#ff4300"/><path id="patch_45" d="M347.378 768.96a5.322 5.322 0 1 0 0-10.645 5.322 5.322 0 0 0 0 10.645z" clip-path="url(#p63601c991d)" style="fill:#ff2800"/><path id="patch_46" d="M114.152 222.48a3.992 3.992 0 1 0 0-7.984 3.992 3.992 0 0 0 0 7.984z" clip-path="url(#p63601c991d)" style="fill:#ff0d00"/><path id="patch_47" d="M243.216 678.598a6.653 6.653 0 1 0 0-13.306 6.653 6.653 0 0 0 0 13.306z" clip-path="url(#p63601c991d)" style="fill:#ff4300"/><path id="patch_48" d="M476.985 768.96a5.322 5.322 0 1 0 0-10.645 5.322 5.322 0 0 0 0 10.645z" clip-path="url(#p63601c991d)" style="fill:#ff2800"/><path id="patch_49" d="M385.733 768.96a2.661 2.661 0 1 0 0-5.322 2.661 2.661 0 0 0 0 5.322z" clip-path="url(#p63601c991d)" style="fill:#ff000e"/><path id="patch_50" d="M267.668 768.96a6.653 6.653 0 1 0 0-13.306 6.653 6.653 0 0 0 0 13.306z" clip-path="url(#p63601c991d)" style="fill:#ff4300"/><path id="patch_51" d="M114.152 473.913a3.992 3.992 0 1 0 0-7.983 3.992 3.992 0 0 0 0 7.983z" clip-path="url(#p63601c991d)" style="fill:#ff0d00"/><path id="patch_52" d="M115.482 278.786a5.322 5.322 0 1 0 0-10.645 5.322 5.322 0 0 0 0 10.645z" clip-path="url(#p63601c991d)" style="fill:#ff2800"/><path id="patch_53" d="M116.813 402.657a6.653 6.653 0 1 0 0-13.306 6.653 6.653 0 0 0 0 13.306z" clip-path="url(#p63601c991d)" style="fill:#ff4300"/><path id="patch_54" d="M116.813 357.398a6.653 6.653 0 1 0 0-13.306 6.653 6.653 0 0 0 0 13.306z" clip-path="url(#p63601c991d)" style="fill:#ff4300"/><path id="patch_55" d="M115.482 157.188a5.322 5.322 0 1 0 0-10.645 5.322 5.322 0 0 0 0 10.645z" clip-path="url(#p63601c991d)" style="fill:#ff2800"/><path id="patch_56" d="M408.178 768.96a3.992 3.992 0 1 0 0-7.984 3.992 3.992 0 0 0 0 7.984z" clip-path="url(#p63601c991d)" style="fill:#ff0d00"/><path id="patch_57" d="M112.821 671.432a2.661 2.661 0 1 0 0-5.322 2.661 2.661 0 0 0 0 5.322z" clip-path="url(#p63601c991d)" style="fill:#ff000e"/><path id="patch_58" d="M740 768.96a1.33 1.33 0 1 0 0-2.661 1.33 1.33 0 0 0 0 2.661z" clip-path="url(#p63601c991d)" style="fill:#ff0029"/><path id="patch_59" d="M533.895 768.96a3.992 3.992 0 1 0 0-7.984 3.992 3.992 0 0 0 0 7.984z" clip-path="url(#p63601c991d)" style="fill:#ff0d00"/><path id="patch_60" d="M112.821 605.698a2.661 2.661 0 1 0 0-5.323 2.661 2.661 0 0 0 0 5.323z" clip-path="url(#p63601c991d)" style="fill:#ff000e"/><path id="patch_61" d="M596.417 768.96a3.992 3.992 0 1 0 0-7.984 3.992 3.992 0 0 0 0 7.984z" clip-path="url(#p63601c991d)" style="fill:#ff0d00"/><path id="patch_62" d="M114.152 143.815a3.992 3.992 0 1 0 0-7.984 3.992 3.992 0 0 0 0 7.984z" clip-path="url(#p63601c991d)" style="fill:#ff0d00"/><path id="patch_63" d="M339.851 768.96a2.661 2.661 0 1 0 0-5.322 2.661 2.661 0 0 0 0 5.322z" clip-path="url(#p63601c991d)" style="fill:#ff000e"/><path id="patch_64" d="M401.47 768.96a1.33 1.33 0 1 0 0-2.661 1.33 1.33 0 0 0 0 2.661z" clip-path="url(#p63601c991d)" style="fill:#ff0029"/><path id="patch_65" d="M112.821 622.528a2.661 2.661 0 1 0 0-5.322 2.661 2.661 0 0 0 0 5.322z" clip-path="url(#p63601c991d)" style="fill:#ff000e"/><path id="patch_66" d="M354.905 768.96a2.661 2.661 0 1 0 0-5.322 2.661 2.661 0 0 0 0 5.322z" clip-path="url(#p63601c991d)" style="fill:#ff000e"/><path id="patch_67" d="M230.943 768.96a1.33 1.33 0 1 0 0-2.661 1.33 1.33 0 0 0 0 2.661z" clip-path="url(#p63601c991d)" style="fill:#ff0029"/><path id="patch_68" d="M112.821 538.376a2.661 2.661 0 1 0 0-5.322 2.661 2.661 0 0 0 0 5.322z" clip-path="url(#p63601c991d)" style="fill:#ff000e"/><path id="patch_69" d="M469.458 768.96a2.661 2.661 0 1 0 0-5.322 2.661 2.661 0 0 0 0 5.322z" clip-path="url(#p63601c991d)" style="fill:#ff000e"/><path id="patch_70" d="M730.298 768.96a1.33 1.33 0 1 0 0-2.661 1.33 1.33 0 0 0 0 2.661z" clip-path="url(#p63601c991d)" style="fill:#ff0029"/><path id="patch_71" d="M484.512 768.96a2.661 2.661 0 1 0 0-5.322 2.661 2.661 0 0 0 0 5.322z" clip-path="url(#p63601c991d)" style="fill:#ff000e"/><path id="patch_72" d="M112.821 654.602a2.661 2.661 0 1 0 0-5.323 2.661 2.661 0 0 0 0 5.323z" clip-path="url(#p63601c991d)" style="fill:#ff000e"/><path id="patch_73" d="M111.49 226.107a1.33 1.33 0 1 0 0-2.66 1.33 1.33 0 0 0 0 2.66z" clip-path="url(#p63601c991d)" style="fill:#ff0029"/><path id="patch_74" d="M259.253 768.96a2.661 2.661 0 1 0 0-5.322 2.661 2.661 0 0 0 0 5.322z" clip-path="url(#p63601c991d)" style="fill:#ff000e"/><path id="patch_75" d="M112.821 243.175a2.661 2.661 0 1 0 0-5.323 2.661 2.661 0 0 0 0 5.323z" clip-path="url(#p63601c991d)" style="fill:#ff000e"/><path id="patch_76" d="M111.49 522.68a1.33 1.33 0 1 0 0-2.661 1.33 1.33 0 0 0 0 2.661z" clip-path="url(#p63601c991d)" style="fill:#ff0029"/><path id="patch_77" d="M276.083 768.96a2.661 2.661 0 1 0 0-5.322 2.661 2.661 0 0 0 0 5.322z" clip-path="url(#p63601c991d)" style="fill:#ff000e"/><path id="patch_78" d="M112.821 283.652a2.661 2.661 0 1 0 0-5.323 2.661 2.661 0 0 0 0 5.323z" clip-path="url(#p63601c991d)" style="fill:#ff000e"/><path id="patch_79" d="M766.484 768.96a1.33 1.33 0 1 0 0-2.661 1.33 1.33 0 0 0 0 2.661z" clip-path="url(#p63601c991d)" style="fill:#ff0029"/><path id="patch_80" d="M715.932 768.96a2.661 2.661 0 1 0 0-5.322 2.661 2.661 0 0 0 0 5.322z" clip-path="url(#p63601c991d)" style="fill:#ff000e"/><path id="patch_81" d="M112.821 407.08a2.661 2.661 0 1 0 0-5.322 2.661 2.661 0 0 0 0 5.322z" clip-path="url(#p63601c991d)" style="fill:#ff000e"/><path id="patch_82" d="M742.661 768.96a1.33 1.33 0 1 0 0-2.661 1.33 1.33 0 0 0 0 2.661z" clip-path="url(#p63601c991d)" style="fill:#ff0029"/><path id="patch_83" d="M112.821 344.991a2.661 2.661 0 1 0 0-5.322 2.661 2.661 0 0 0 0 5.322z" clip-path="url(#p63601c991d)" style="fill:#ff000e"/><path id="patch_84" d="M112.821 361.822a2.661 2.661 0 1 0 0-5.323 2.661 2.661 0 0 0 0 5.323z" clip-path="url(#p63601c991d)" style="fill:#ff000e"/><path id="patch_85" d="M111.49 730.106a1.33 1.33 0 1 0 0-2.66 1.33 1.33 0 0 0 0 2.66z" clip-path="url(#p63601c991d)" style="fill:#ff0029"/><path id="patch_86" d="M112.821 162.054a2.661 2.661 0 1 0 0-5.323 2.661 2.661 0 0 0 0 5.323z" clip-path="url(#p63601c991d)" style="fill:#ff000e"/><path id="patch_87" d="M146.58 768.96a2.661 2.661 0 1 0 0-5.322 2.661 2.661 0 0 0 0 5.322z" clip-path="url(#p63601c991d)" style="fill:#ff000e"/><path id="patch_88" d="M111.49 746.797a1.33 1.33 0 1 0 0-2.661 1.33 1.33 0 0 0 0 2.661z" clip-path="url(#p63601c991d)" style="fill:#ff0029"/><path id="patch_89" d="M112.821 676.755a2.661 2.661 0 1 0 0-5.323 2.661 2.661 0 0 0 0 5.323z" clip-path="url(#p63601c991d)" style="fill:#ff000e"/><path id="patch_90" d="M622.865 768.96a2.661 2.661 0 1 0 0-5.322 2.661 2.661 0 0 0 0 5.322z" clip-path="url(#p63601c991d)" style="fill:#ff000e"/><path id="patch_91" d="M111.49 466.643a1.33 1.33 0 1 0 0-2.661 1.33 1.33 0 0 0 0 2.661z" clip-path="url(#p63601c991d)" style="fill:#ff0029"/><path id="patch_92" d="M602.951 768.96a2.661 2.661 0 1 0 0-5.322 2.661 2.661 0 0 0 0 5.322z" clip-path="url(#p63601c991d)" style="fill:#ff000e"/><path id="patch_93" d="M112.821 768.96a2.661 2.661 0 1 0 0-5.322 2.661 2.661 0 0 0 0 5.322z" clip-path="url(#p63601c991d)" style="fill:#ff000e"/><path id="patch_94" d="M111.49 475.861a1.33 1.33 0 1 0 0-2.66 1.33 1.33 0 0 0 0 2.66z" clip-path="url(#p63601c991d)" style="fill:#ff0029"/><path id="patch_95" d="M511.728 768.96a2.661 2.661 0 1 0 0-5.322 2.661 2.661 0 0 0 0 5.322z" clip-path="url(#p63601c991d)" style="fill:#ff000e"/><path id="patch_96" d="M112.821 497.147a2.661 2.661 0 1 0 0-5.323 2.661 2.661 0 0 0 0 5.323z" clip-path="url(#p63601c991d)" style="fill:#ff000e"/><path id="patch_97" d="M111.49 391.384a1.33 1.33 0 1 0 0-2.661 1.33 1.33 0 0 0 0 2.661z" clip-path="url(#p63601c991d)" style="fill:#ff0029"/><path id="patch_98" d="M112.821 112.297a2.661 2.661 0 1 0 0-5.323 2.661 2.661 0 0 0 0 5.323z" clip-path="url(#p63601c991d)" style="fill:#ff000e"/><path id="patch_99" d="M709.84 768.96a2.661 2.661 0 1 0 0-5.322 2.661 2.661 0 0 0 0 5.322z" clip-path="url(#p63601c991d)" style="fill:#ff000e"/><path id="patch_100" d="M538.504 768.96a1.33 1.33 0 1 0 0-2.661 1.33 1.33 0 0 0 0 2.661z" clip-path="url(#p63601c991d)" style="fill:#ff0029"/><path id="patch_101" d="M112.821 338.413a2.661 2.661 0 1 0 0-5.323 2.661 2.661 0 0 0 0 5.323z" clip-path="url(#p63601c991d)" style="fill:#ff000e"/><path id="patch_102" d="M112.821 413.975a2.661 2.661 0 1 0 0-5.323 2.661 2.661 0 0 0 0 5.323z" clip-path="url(#p63601c991d)" style="fill:#ff000e"/><path id="patch_103" d="M591.808 768.96a1.33 1.33 0 1 0 0-2.661 1.33 1.33 0 0 0 0 2.661z" clip-path="url(#p63601c991d)" style="fill:#ff0029"/><path id="patch_104" d="M203.3 768.96a2.661 2.661 0 1 0 0-5.322 2.661 2.661 0 0 0 0 5.322z" clip-path="url(#p63601c991d)" style="fill:#ff000e"/><path id="patch_105" d="M157.684 638.565a2.661 2.661 0 1 0 0-5.322 2.661 2.661 0 0 0 0 5.322z" clip-path="url(#p63601c991d)" style="fill:#ff000e"/><path id="patch_106" d="M111.49 215.21a1.33 1.33 0 1 0 0-2.662 1.33 1.33 0 0 0 0 2.661z" clip-path="url(#p63601c991d)" style="fill:#ff0029"/><path id="patch_107" d="M195.692 638.565a2.661 2.661 0 1 0 0-5.322 2.661 2.661 0 0 0 0 5.322z" clip-path="url(#p63601c991d)" style="fill:#ff000e"/><path id="patch_108" d="M112.821 545.426a2.661 2.661 0 1 0 0-5.323 2.661 2.661 0 0 0 0 5.323z" clip-path="url(#p63601c991d)" style="fill:#ff000e"/><path id="patch_109" d="M336.088 768.96a1.33 1.33 0 1 0 0-2.661 1.33 1.33 0 0 0 0 2.661z" clip-path="url(#p63601c991d)" style="fill:#ff0029"/><path id="patch_110" d="M112.821 598.648a2.661 2.661 0 1 0 0-5.322 2.661 2.661 0 0 0 0 5.322z" clip-path="url(#p63601c991d)" style="fill:#ff000e"/><path id="patch_111" d="M243.216 724.097a2.661 2.661 0 1 0 0-5.322 2.661 2.661 0 0 0 0 5.322z" clip-path="url(#p63601c991d)" style="fill:#ff000e"/><path id="patch_112" d="M358.668 768.96a1.33 1.33 0 1 0 0-2.661 1.33 1.33 0 0 0 0 2.661z" clip-path="url(#p63601c991d)" style="fill:#ff0029"/><path id="patch_113" d="M243.216 686.089a2.661 2.661 0 1 0 0-5.323 2.661 2.661 0 0 0 0 5.323z" clip-path="url(#p63601c991d)" style="fill:#ff000e"/><path id="patch_114" d="M283.133 768.96a2.661 2.661 0 1 0 0-5.322 2.661 2.661 0 0 0 0 5.322z" clip-path="url(#p63601c991d)" style="fill:#ff000e"/><path id="patch_115" d="M465.695 768.96a1.33 1.33 0 1 0 0-2.661 1.33 1.33 0 0 0 0 2.661z" clip-path="url(#p63601c991d)" style="fill:#ff0029"/><path id="patch_116" d="M210.349 768.96a2.661 2.661 0 1 0 0-5.322 2.661 2.661 0 0 0 0 5.322z" clip-path="url(#p63601c991d)" style="fill:#ff000e"/><path id="patch_117" d="M645.594 768.96a2.661 2.661 0 1 0 0-5.322 2.661 2.661 0 0 0 0 5.322z" clip-path="url(#p63601c991d)" style="fill:#ff000e"/><path id="patch_118" d="M111.49 649.508a1.33 1.33 0 1 0 0-2.661 1.33 1.33 0 0 0 0 2.661z" clip-path="url(#p63601c991d)" style="fill:#ff0029"/><path id="patch_119" d="M131.527 768.96a2.661 2.661 0 1 0 0-5.322 2.661 2.661 0 0 0 0 5.322z" clip-path="url(#p63601c991d)" style="fill:#ff000e"/><path id="patch_120" d="M255.49 768.96a1.33 1.33 0 1 0 0-2.661 1.33 1.33 0 0 0 0 2.661z" clip-path="url(#p63601c991d)" style="fill:#ff0029"/><path id="patch_121" d="M111.49 245.608a1.33 1.33 0 1 0 0-2.662 1.33 1.33 0 0 0 0 2.662z" clip-path="url(#p63601c991d)" style="fill:#ff0029"/><path id="patch_122" d="M111.49 520.019a1.33 1.33 0 1 0 0-2.661 1.33 1.33 0 0 0 0 2.661z" clip-path="url(#p63601c991d)" style="fill:#ff0029"/><path id="patch_123" d="M111.49 286.085a1.33 1.33 0 1 0 0-2.662 1.33 1.33 0 0 0 0 2.662z" clip-path="url(#p63601c991d)" style="fill:#ff0029"/><path id="patch_124" d="M763.823 768.96a1.33 1.33 0 1 0 0-2.661 1.33 1.33 0 0 0 0 2.661z" clip-path="url(#p63601c991d)" style="fill:#ff0029"/><path id="patch_125" d="M111.49 364.255a1.33 1.33 0 1 0 0-2.662 1.33 1.33 0 0 0 0 2.662z" clip-path="url(#p63601c991d)" style="fill:#ff0029"/><path id="patch_126" d="M111.49 727.445a1.33 1.33 0 1 0 0-2.661 1.33 1.33 0 0 0 0 2.661z" clip-path="url(#p63601c991d)" style="fill:#ff0029"/><path id="patch_127" d="M111.49 164.487a1.33 1.33 0 1 0 0-2.662 1.33 1.33 0 0 0 0 2.662z" clip-path="url(#p63601c991d)" style="fill:#ff0029"/><path id="patch_128" d="M150.344 768.96a1.33 1.33 0 1 0 0-2.661 1.33 1.33 0 0 0 0 2.661z" clip-path="url(#p63601c991d)" style="fill:#ff0029"/><path id="patch_129" d="M115.796 672.763a1.33 1.33 0 1 0 0-2.661 1.33 1.33 0 0 0 0 2.66z" clip-path="url(#p63601c991d)" style="fill:#ff0029"/><path id="patch_130" d="M111.49 679.187a1.33 1.33 0 1 0 0-2.66 1.33 1.33 0 0 0 0 2.66z" clip-path="url(#p63601c991d)" style="fill:#ff0029"/><path id="patch_131" d="M626.629 768.96a1.33 1.33 0 1 0 0-2.661 1.33 1.33 0 0 0 0 2.661z" clip-path="url(#p63601c991d)" style="fill:#ff0029"/><path id="patch_132" d="M111.49 463.982a1.33 1.33 0 1 0 0-2.661 1.33 1.33 0 0 0 0 2.66z" clip-path="url(#p63601c991d)" style="fill:#ff0029"/><path id="patch_133" d="M507.964 768.96a1.33 1.33 0 1 0 0-2.661 1.33 1.33 0 0 0 0 2.661z" clip-path="url(#p63601c991d)" style="fill:#ff0029"/><path id="patch_134" d="M111.49 492.053a1.33 1.33 0 1 0 0-2.662 1.33 1.33 0 0 0 0 2.662z" clip-path="url(#p63601c991d)" style="fill:#ff0029"/><path id="patch_135" d="M488.275 768.96a1.33 1.33 0 1 0 0-2.661 1.33 1.33 0 0 0 0 2.661z" clip-path="url(#p63601c991d)" style="fill:#ff0029"/><path id="patch_136" d="M111.49 388.723a1.33 1.33 0 1 0 0-2.661 1.33 1.33 0 0 0 0 2.661z" clip-path="url(#p63601c991d)" style="fill:#ff0029"/><path id="patch_137" d="M111.49 107.203a1.33 1.33 0 1 0 0-2.661 1.33 1.33 0 0 0 0 2.66z" clip-path="url(#p63601c991d)" style="fill:#ff0029"/><path id="patch_138" d="M111.49 114.73a1.33 1.33 0 1 0 0-2.662 1.33 1.33 0 0 0 0 2.662z" clip-path="url(#p63601c991d)" style="fill:#ff0029"/><path id="patch_139" d="M706.077 768.96a1.33 1.33 0 1 0 0-2.661 1.33 1.33 0 0 0 0 2.661z" clip-path="url(#p63601c991d)" style="fill:#ff0029"/><path id="patch_140" d="M541.165 768.96a1.33 1.33 0 1 0 0-2.661 1.33 1.33 0 0 0 0 2.661z" clip-path="url(#p63601c991d)" style="fill:#ff0029"/><path id="patch_141" d="M111.49 333.319a1.33 1.33 0 1 0 0-2.661 1.33 1.33 0 0 0 0 2.66z" clip-path="url(#p63601c991d)" style="fill:#ff0029"/><path id="patch_142" d="M111.49 416.407a1.33 1.33 0 1 0 0-2.66 1.33 1.33 0 0 0 0 2.66z" clip-path="url(#p63601c991d)" style="fill:#ff0029"/><path id="patch_143" d="M589.147 768.96a1.33 1.33 0 1 0 0-2.661 1.33 1.33 0 0 0 0 2.661z" clip-path="url(#p63601c991d)" style="fill:#ff0029"/><path id="patch_144" d="M111.49 212.548a1.33 1.33 0 1 0 0-2.66 1.33 1.33 0 0 0 0 2.66z" clip-path="url(#p63601c991d)" style="fill:#ff0029"/><path id="patch_145" d="M111.49 547.859a1.33 1.33 0 1 0 0-2.661 1.33 1.33 0 0 0 0 2.66z" clip-path="url(#p63601c991d)" style="fill:#ff0029"/><path id="patch_146" d="M333.427 768.96a1.33 1.33 0 1 0 0-2.661 1.33 1.33 0 0 0 0 2.661z" clip-path="url(#p63601c991d)" style="fill:#ff0029"/><path id="patch_147" d="M111.49 593.554a1.33 1.33 0 1 0 0-2.66 1.33 1.33 0 0 0 0 2.66z" clip-path="url(#p63601c991d)" style="fill:#ff0029"/><path id="patch_148" d="M286.896 768.96a1.33 1.33 0 1 0 0-2.661 1.33 1.33 0 0 0 0 2.661z" clip-path="url(#p63601c991d)" style="fill:#ff0029"/><path id="patch_149" d="M463.034 768.96a1.33 1.33 0 1 0 0-2.661 1.33 1.33 0 0 0 0 2.661z" clip-path="url(#p63601c991d)" style="fill:#ff0029"/><path id="patch_150" d="M649.358 768.96a1.33 1.33 0 1 0 0-2.661 1.33 1.33 0 0 0 0 2.661z" clip-path="url(#p63601c991d)" style="fill:#ff0029"/><path id="patch_151" d="M127.764 768.96a1.33 1.33 0 1 0 0-2.661 1.33 1.33 0 0 0 0 2.661z" clip-path="url(#p63601c991d)" style="fill:#ff0029"/><path id="patch_152" d="M252.828 768.96a1.33 1.33 0 1 0 0-2.661 1.33 1.33 0 0 0 0 2.661z" clip-path="url(#p63601c991d)" style="fill:#ff0029"/><path id="patch_153" d="M111.49 517.358a1.33 1.33 0 1 0 0-2.661 1.33 1.33 0 0 0 0 2.66z" clip-path="url(#p63601c991d)" style="fill:#ff0029"/><path id="patch_154" d="M111.49 248.269a1.33 1.33 0 1 0 0-2.661 1.33 1.33 0 0 0 0 2.66z" clip-path="url(#p63601c991d)" style="fill:#ff0029"/><path id="patch_155" d="M111.49 288.746a1.33 1.33 0 1 0 0-2.662 1.33 1.33 0 0 0 0 2.662z" clip-path="url(#p63601c991d)" style="fill:#ff0029"/><path id="patch_156" d="M111.49 366.916a1.33 1.33 0 1 0 0-2.662 1.33 1.33 0 0 0 0 2.662z" clip-path="url(#p63601c991d)" style="fill:#ff0029"/><path id="patch_157" d="M111.49 724.784a1.33 1.33 0 1 0 0-2.661 1.33 1.33 0 0 0 0 2.661z" clip-path="url(#p63601c991d)" style="fill:#ff0029"/><path id="patch_158" d="M543.826 768.96a1.33 1.33 0 1 0 0-2.661 1.33 1.33 0 0 0 0 2.661z" clip-path="url(#p63601c991d)" style="fill:#ff0029"/><path id="patch_159" d="M111.49 330.658a1.33 1.33 0 1 0 0-2.661 1.33 1.33 0 0 0 0 2.66z" clip-path="url(#p63601c991d)" style="fill:#ff0029"/><path id="patch_160" d="M111.49 419.069a1.33 1.33 0 1 0 0-2.662 1.33 1.33 0 0 0 0 2.662z" clip-path="url(#p63601c991d)" style="fill:#ff0029"/><path id="patch_161" d="M539.835 766.655a1.33 1.33 0 1 0 0-2.66 1.33 1.33 0 0 0 0 2.66z" clip-path="url(#p63601c991d)" style="fill:#ff0029"/><path id="patch_162" d="M590.477 766.655a1.33 1.33 0 1 0 0-2.66 1.33 1.33 0 0 0 0 2.66z" clip-path="url(#p63601c991d)" style="fill:#ff0029"/><path id="patch_163" d="M703.416 768.96a1.33 1.33 0 1 0 0-2.661 1.33 1.33 0 0 0 0 2.661z" clip-path="url(#p63601c991d)" style="fill:#ff0029"/><path id="patch_164" d="M111.49 386.062a1.33 1.33 0 1 0 0-2.661 1.33 1.33 0 0 0 0 2.661z" clip-path="url(#p63601c991d)" style="fill:#ff0029"/><path id="patch_165" d="M586.486 768.96a1.33 1.33 0 1 0 0-2.661 1.33 1.33 0 0 0 0 2.661z" clip-path="url(#p63601c991d)" style="fill:#ff0029"/><path id="patch_166" d="M113.795 213.879a1.33 1.33 0 1 0 0-2.661 1.33 1.33 0 0 0 0 2.66z" clip-path="url(#p63601c991d)" style="fill:#ff0029"/><path id="patch_167" d="M111.49 461.32a1.33 1.33 0 1 0 0-2.66 1.33 1.33 0 0 0 0 2.66z" clip-path="url(#p63601c991d)" style="fill:#ff0029"/><path id="patch_168" d="M111.49 209.887a1.33 1.33 0 1 0 0-2.661 1.33 1.33 0 0 0 0 2.661z" clip-path="url(#p63601c991d)" style="fill:#ff0029"/><path id="patch_169" d="M111.49 550.52a1.33 1.33 0 1 0 0-2.661 1.33 1.33 0 0 0 0 2.66z" clip-path="url(#p63601c991d)" style="fill:#ff0029"/><path id="patch_170" d="M330.766 768.96a1.33 1.33 0 1 0 0-2.661 1.33 1.33 0 0 0 0 2.661z" clip-path="url(#p63601c991d)" style="fill:#ff0029"/><path id="patch_171" d="M113.795 465.312a1.33 1.33 0 1 0 0-2.66 1.33 1.33 0 0 0 0 2.66z" clip-path="url(#p63601c991d)" style="fill:#ff0029"/><path id="patch_172" d="M111.49 681.849a1.33 1.33 0 1 0 0-2.662 1.33 1.33 0 0 0 0 2.662z" clip-path="url(#p63601c991d)" style="fill:#ff0029"/><path id="patch_173" d="M111.49 590.893a1.33 1.33 0 1 0 0-2.661 1.33 1.33 0 0 0 0 2.661z" clip-path="url(#p63601c991d)" style="fill:#ff0029"/><path id="patch_174" d="M289.557 768.96a1.33 1.33 0 1 0 0-2.661 1.33 1.33 0 0 0 0 2.661z" clip-path="url(#p63601c991d)" style="fill:#ff0029"/><path id="patch_175" d="M153.005 768.96a1.33 1.33 0 1 0 0-2.661 1.33 1.33 0 0 0 0 2.661z" clip-path="url(#p63601c991d)" style="fill:#ff0029"/><path id="patch_176" d="M460.373 768.96a1.33 1.33 0 1 0 0-2.661 1.33 1.33 0 0 0 0 2.661z" clip-path="url(#p63601c991d)" style="fill:#ff0029"/><path id="patch_177" d="M125.103 768.96a1.33 1.33 0 1 0 0-2.661 1.33 1.33 0 0 0 0 2.661z" clip-path="url(#p63601c991d)" style="fill:#ff0029"/><path id="patch_178" d="M254.159 766.655a1.33 1.33 0 1 0 0-2.66 1.33 1.33 0 0 0 0 2.66z" clip-path="url(#p63601c991d)" style="fill:#ff0029"/><path id="patch_179" d="M111.49 167.148a1.33 1.33 0 1 0 0-2.661 1.33 1.33 0 0 0 0 2.66z" clip-path="url(#p63601c991d)" style="fill:#ff0029"/><path id="patch_180" d="M111.49 291.407a1.33 1.33 0 1 0 0-2.661 1.33 1.33 0 0 0 0 2.66z" clip-path="url(#p63601c991d)" style="fill:#ff0029"/><path id="patch_181" d="M113.795 365.585a1.33 1.33 0 1 0 0-2.661 1.33 1.33 0 0 0 0 2.661z" clip-path="url(#p63601c991d)" style="fill:#ff0029"/><path id="patch_182" d="M199.536 768.96a1.33 1.33 0 1 0 0-2.661 1.33 1.33 0 0 0 0 2.661z" clip-path="url(#p63601c991d)" style="fill:#ff0029"/><path id="patch_183" d="M546.488 768.96a1.33 1.33 0 1 0 0-2.661 1.33 1.33 0 0 0 0 2.661z" clip-path="url(#p63601c991d)" style="fill:#ff0029"/><path id="patch_184" d="M111.49 624.961a1.33 1.33 0 1 0 0-2.661 1.33 1.33 0 0 0 0 2.661z" clip-path="url(#p63601c991d)" style="fill:#ff0029"/><path id="patch_185" d="M583.825 768.96a1.33 1.33 0 1 0 0-2.661 1.33 1.33 0 0 0 0 2.661z" clip-path="url(#p63601c991d)" style="fill:#ff0029"/><path id="patch_186" d="M111.49 458.66a1.33 1.33 0 1 0 0-2.662 1.33 1.33 0 0 0 0 2.662z" clip-path="url(#p63601c991d)" style="fill:#ff0029"/><path id="patch_187" d="M377.664 768.96a1.33 1.33 0 1 0 0-2.661 1.33 1.33 0 0 0 0 2.661z" clip-path="url(#p63601c991d)" style="fill:#ff0029"/><path id="patch_188" d="M658.912 768.96a1.33 1.33 0 1 0 0-2.661 1.33 1.33 0 0 0 0 2.661z" clip-path="url(#p63601c991d)" style="fill:#ff0029"/><path id="patch_189" d="M381.97 768.96a1.33 1.33 0 1 0 0-2.661 1.33 1.33 0 0 0 0 2.661z" clip-path="url(#p63601c991d)" style="fill:#ff0029"/><path id="patch_190" d="M527.465 768.96a1.33 1.33 0 1 0 0-2.661 1.33 1.33 0 0 0 0 2.661z" clip-path="url(#p63601c991d)" style="fill:#ff0029"/><path id="patch_191" d="M111.49 264.534a1.33 1.33 0 1 0 0-2.661 1.33 1.33 0 0 0 0 2.661z" clip-path="url(#p63601c991d)" style="fill:#ff0029"/><path id="patch_192" d="M111.49 269.472a1.33 1.33 0 1 0 0-2.661 1.33 1.33 0 0 0 0 2.661z" clip-path="url(#p63601c991d)" style="fill:#ff0029"/><path id="patch_193" d="M111.49 629.36a1.33 1.33 0 1 0 0-2.66 1.33 1.33 0 0 0 0 2.66z" clip-path="url(#p63601c991d)" style="fill:#ff0029"/><path id="patch_194" d="M111.49 134.13a1.33 1.33 0 1 0 0-2.661 1.33 1.33 0 0 0 0 2.661z" clip-path="url(#p63601c991d)" style="fill:#ff0029"/><path id="patch_195" d="M667.225 768.96a1.33 1.33 0 1 0 0-2.661 1.33 1.33 0 0 0 0 2.661z" clip-path="url(#p63601c991d)" style="fill:#ff0029"/><path id="patch_196" d="M111.49 147.874a1.33 1.33 0 1 0 0-2.66 1.33 1.33 0 0 0 0 2.66z" clip-path="url(#p63601c991d)" style="fill:#ff0029"/><path id="patch_197" d="M111.49 206.75a1.33 1.33 0 1 0 0-2.66 1.33 1.33 0 0 0 0 2.66z" clip-path="url(#p63601c991d)" style="fill:#ff0029"/><path id="patch_198" d="M111.49 171.048a1.33 1.33 0 1 0 0-2.661 1.33 1.33 0 0 0 0 2.66z" clip-path="url(#p63601c991d)" style="fill:#ff0029"/><path id="patch_199" d="M111.49 684.946a1.33 1.33 0 1 0 0-2.662 1.33 1.33 0 0 0 0 2.662z" clip-path="url(#p63601c991d)" style="fill:#ff0029"/><path id="patch_200" d="M157.871 768.96a1.33 1.33 0 1 0 0-2.661 1.33 1.33 0 0 0 0 2.661z" clip-path="url(#p63601c991d)" style="fill:#ff0029"/><path id="patch_201" d="M195.505 768.96a1.33 1.33 0 1 0 0-2.661 1.33 1.33 0 0 0 0 2.661z" clip-path="url(#p63601c991d)" style="fill:#ff0029"/><path id="patch_202" d="M163.316 637.235a1.33 1.33 0 1 0 0-2.662 1.33 1.33 0 0 0 0 2.662z" clip-path="url(#p63601c991d)" style="fill:#ff0029"/><path id="patch_203" d="M190.06 637.235a1.33 1.33 0 1 0 0-2.662 1.33 1.33 0 0 0 0 2.662z" clip-path="url(#p63601c991d)" style="fill:#ff0029"/><path id="patch_204" d="M243.216 717.135a1.33 1.33 0 1 0 0-2.662 1.33 1.33 0 0 0 0 2.662z" clip-path="url(#p63601c991d)" style="fill:#ff0029"/><path id="patch_205" d="M243.216 690.39a1.33 1.33 0 1 0 0-2.66 1.33 1.33 0 0 0 0 2.66z" clip-path="url(#p63601c991d)" style="fill:#ff0029"/><path id="patch_206" d="M421.675 768.96a1.33 1.33 0 1 0 0-2.661 1.33 1.33 0 0 0 0 2.661z" clip-path="url(#p63601c991d)" style="fill:#ff0029"/><path id="patch_207" d="M412.787 768.96a1.33 1.33 0 1 0 0-2.661 1.33 1.33 0 0 0 0 2.661z" clip-path="url(#p63601c991d)" style="fill:#ff0029"/><path id="patch_208" d="M122.442 768.96a1.33 1.33 0 1 0 0-2.661 1.33 1.33 0 0 0 0 2.661z" clip-path="url(#p63601c991d)" style="fill:#ff0029"/><path id="patch_209" d="M661.573 768.96a1.33 1.33 0 1 0 0-2.661 1.33 1.33 0 0 0 0 2.661z" clip-path="url(#p63601c991d)" style="fill:#ff0029"/><path id="patch_210" d="M664.564 768.96a1.33 1.33 0 1 0 0-2.661 1.33 1.33 0 0 0 0 2.661z" clip-path="url(#p63601c991d)" style="fill:#ff0029"/><path id="patch_211" d="M419.014 768.96a1.33 1.33 0 1 0 0-2.661 1.33 1.33 0 0 0 0 2.661z" clip-path="url(#p63601c991d)" style="fill:#ff0029"/><path id="patch_212" d="M415.449 768.96a1.33 1.33 0 1 0 0-2.661 1.33 1.33 0 0 0 0 2.661z" clip-path="url(#p63601c991d)" style="fill:#ff0029"/><path id="patch_213" d="M119.78 768.96a1.33 1.33 0 1 0 0-2.661 1.33 1.33 0 0 0 0 2.661z" clip-path="url(#p63601c991d)" style="fill:#ff0029"/><path id="patch_214" d="M660.243 766.655a1.33 1.33 0 1 0 0-2.66 1.33 1.33 0 0 0 0 2.66z" clip-path="url(#p63601c991d)" style="fill:#ff0029"/><path id="patch_215" d="M414.118 766.655a1.33 1.33 0 1 0 0-2.66 1.33 1.33 0 0 0 0 2.66z" clip-path="url(#p63601c991d)" style="fill:#ff0029"/><path id="patch_216" d="M117.12 768.96a1.33 1.33 0 1 0 0-2.661 1.33 1.33 0 0 0 0 2.661z" clip-path="url(#p63601c991d)" style="fill:#ff0029"/><g id="matplotlib.axis_1"><g id="xtick_1"><g id="line2d_1"><defs><path id="m3d6971bcf9" d="M0 0v3.5" style="stroke:#000;stroke-width:.8"/></defs><use xlink:href="#m3d6971bcf9" x="110.16" y="768.96" style="stroke:#000;stroke-width:.8"/></g><g id="text_1" transform="matrix(.1 0 0 -.1 106.979 783.558)"><defs><path id="DejaVuSans-30" d="M2034 4250q-487 0-733-480-245-479-245-1442 0-959 245-1439 246-480 733-480 491 0 736 480 246 480 246 1439 0 963-246 1442-245 480-736 480zm0 500q785 0 1199-621 414-620 414-1801 0-1178-414-1799Q2819-91 2034-91q-784 0-1198 620-414 621-414 1799 0 1181 414 1801 414 621 1198 621z" transform="scale(.01563)"/></defs><use xlink:href="#DejaVuSans-30"/></g></g><g id="xtick_2"><use xlink:href="#m3d6971bcf9" id="line2d_2" x="243.216" y="768.96" style="stroke:#000;stroke-width:.8"/><g id="text_2" transform="matrix(.1 0 0 -.1 233.672 783.558)"><defs><path id="DejaVuSans-32" d="M1228 531h2203V0H469v531q359 372 979 998 621 627 780 809 303 340 423 576 121 236 121 464 0 372-261 606-261 235-680 235-297 0-627-103-329-103-704-313v638q381 153 712 231 332 78 607 78 725 0 1156-363 431-362 431-968 0-288-108-546-107-257-392-607-78-91-497-524-418-433-1181-1211z" transform="scale(.01563)"/></defs><use xlink:href="#DejaVuSans-32"/><use xlink:href="#DejaVuSans-30" x="63.623"/><use xlink:href="#DejaVuSans-30" x="127.246"/></g></g><g id="xtick_3"><use xlink:href="#m3d6971bcf9" id="line2d_3" x="376.272" y="768.96" style="stroke:#000;stroke-width:.8"/><g id="text_3" transform="matrix(.1 0 0 -.1 366.728 783.558)"><defs><path id="DejaVuSans-34" d="M2419 4116 825 1625h1594v2491zm-166 550h794V1625h666v-525h-666V0h-628v1100H313v609l1940 2957z" transform="scale(.01563)"/></defs><use xlink:href="#DejaVuSans-34"/><use xlink:href="#DejaVuSans-30" x="63.623"/><use xlink:href="#DejaVuSans-30" x="127.246"/></g></g><g id="xtick_4"><use xlink:href="#m3d6971bcf9" id="line2d_4" x="509.328" y="768.96" style="stroke:#000;stroke-width:.8"/><g id="text_4" transform="matrix(.1 0 0 -.1 499.784 783.558)"><defs><path id="DejaVuSans-36" d="M2113 2584q-425 0-674-291-248-290-248-796 0-503 248-796 249-292 674-292t673 292q248 293 248 796 0 506-248 796-248 291-673 291zm1253 1979v-575q-238 112-480 171-242 60-480 60-625 0-955-422-329-422-376-1275 184 272 462 417 279 145 613 145 703 0 1111-427 408-426 408-1160 0-719-425-1154Q2819-91 2113-91q-810 0-1238 620-428 621-428 1799 0 1106 525 1764t1409 658q238 0 480-47t505-140z" transform="scale(.01563)"/></defs><use xlink:href="#DejaVuSans-36"/><use xlink:href="#DejaVuSans-30" x="63.623"/><use xlink:href="#DejaVuSans-30" x="127.246"/></g></g><g id="xtick_5"><use xlink:href="#m3d6971bcf9" id="line2d_5" x="642.384" y="768.96" style="stroke:#000;stroke-width:.8"/><g id="text_5" transform="matrix(.1 0 0 -.1 632.84 783.558)"><defs><path id="DejaVuSans-38" d="M2034 2216q-450 0-708-241-257-241-257-662 0-422 257-663 258-241 708-241t709 242q260 243 260 662 0 421-258 662-257 241-711 241zm-631 268q-406 100-633 378-226 279-226 679 0 559 398 884 399 325 1092 325 697 0 1094-325t397-884q0-400-227-679-226-278-629-378 456-106 710-416 255-309 255-755 0-679-414-1042Q2806-91 2034-91q-771 0-1186 362-414 363-414 1042 0 446 256 755 257 310 713 416zm-231 997q0-362 226-565 227-203 636-203 407 0 636 203 230 203 230 565 0 363-230 566-229 203-636 203-409 0-636-203-226-203-226-566z" transform="scale(.01563)"/></defs><use xlink:href="#DejaVuSans-38"/><use xlink:href="#DejaVuSans-30" x="63.623"/><use xlink:href="#DejaVuSans-30" x="127.246"/></g></g><g id="xtick_6"><use xlink:href="#m3d6971bcf9" id="line2d_6" x="775.44" y="768.96" style="stroke:#000;stroke-width:.8"/><g id="text_6" transform="matrix(.1 0 0 -.1 762.715 783.558)"><defs><path id="DejaVuSans-31" d="M794 531h1031v3560L703 3866v575l1116 225h631V531h1031V0H794v531z" transform="scale(.01563)"/></defs><use xlink:href="#DejaVuSans-31"/><use xlink:href="#DejaVuSans-30" x="63.623"/><use xlink:href="#DejaVuSans-30" x="127.246"/><use xlink:href="#DejaVuSans-30" x="190.869"/></g></g></g><g id="matplotlib.axis_2"><g id="ytick_1"><g id="line2d_7"><defs><path id="m26b59bf01c" d="M0 0h-3.5" style="stroke:#000;stroke-width:.8"/></defs><use xlink:href="#m26b59bf01c" x="110.16" y="768.96" style="stroke:#000;stroke-width:.8"/></g><use xlink:href="#DejaVuSans-30" id="text_7" transform="matrix(.1 0 0 -.1 96.797 772.76)"/></g><g id="ytick_2"><use xlink:href="#m26b59bf01c" id="line2d_8" x="110.16" y="635.904" style="stroke:#000;stroke-width:.8"/><g id="text_8" transform="matrix(.1 0 0 -.1 84.073 639.703)"><use xlink:href="#DejaVuSans-32"/><use xlink:href="#DejaVuSans-30" x="63.623"/><use xlink:href="#DejaVuSans-30" x="127.246"/></g></g><g id="ytick_3"><use xlink:href="#m26b59bf01c" id="line2d_9" x="110.16" y="502.848" style="stroke:#000;stroke-width:.8"/><g id="text_9" transform="matrix(.1 0 0 -.1 84.073 506.647)"><use xlink:href="#DejaVuSans-34"/><use xlink:href="#DejaVuSans-30" x="63.623"/><use xlink:href="#DejaVuSans-30" x="127.246"/></g></g><g id="ytick_4"><use xlink:href="#m26b59bf01c" id="line2d_10" x="110.16" y="369.792" style="stroke:#000;stroke-width:.8"/><g id="text_10" transform="matrix(.1 0 0 -.1 84.073 373.591)"><use xlink:href="#DejaVuSans-36"/><use xlink:href="#DejaVuSans-30" x="63.623"/><use xlink:href="#DejaVuSans-30" x="127.246"/></g></g><g id="ytick_5"><use xlink:href="#m26b59bf01c" id="line2d_11" x="110.16" y="236.736" style="stroke:#000;stroke-width:.8"/><g id="text_11" transform="matrix(.1 0 0 -.1 84.073 240.535)"><use xlink:href="#DejaVuSans-38"/><use xlink:href="#DejaVuSans-30" x="63.623"/><use xlink:href="#DejaVuSans-30" x="127.246"/></g></g><g id="ytick_6"><use xlink:href="#m26b59bf01c" id="line2d_12" x="110.16" y="103.68" style="stroke:#000;stroke-width:.8"/><g id="text_12" transform="matrix(.1 0 0 -.1 77.71 107.48)"><use xlink:href="#DejaVuSans-31"/><use xlink:href="#DejaVuSans-30" x="63.623"/><use xlink:href="#DejaVuSans-30" x="127.246"/><use xlink:href="#DejaVuSans-30" x="190.869"/></g></g></g><path id="patch_217" d="M110.16 768.96V103.68" style="fill:none;stroke:#000;stroke-width:.8;stroke-linejoin:miter;stroke-linecap:square"/><path id="patch_218" d="M775.44 768.96V103.68" style="fill:none;stroke:#000;stroke-width:.8;stroke-linejoin:miter;stroke-linecap:square"/><path id="patch_219" d="M110.16 768.96h665.28" style="fill:none;stroke:#000;stroke-width:.8;stroke-linejoin:miter;stroke-linecap:square"/><path id="patch_220" d="M110.16 103.68h665.28" style="fill:none;stroke:#000;stroke-width:.8;stroke-linejoin:miter;stroke-linecap:square"/><g id="text_13" transform="matrix(.12 0 0 -.12 217.034 97.68)"><defs><path id="DejaVuSans-4c" d="M628 4666h631V531h2272V0H628v4666z" transform="scale(.01563)"/><path id="DejaVuSans-69" d="M603 3500h575V0H603v3500zm0 1363h575v-729H603v729z" transform="scale(.01563)"/><path id="DejaVuSans-6e" d="M3513 2113V0h-575v2094q0 497-194 743-194 247-581 247-466 0-735-297-269-296-269-809V0H581v3500h578v-544q207 316 486 472 280 156 646 156 603 0 912-373 310-373 310-1098z" transform="scale(.01563)"/><path id="DejaVuSans-65" d="M3597 1894v-281H953q38-594 358-905t892-311q331 0 642 81t618 244V178Q3153 47 2828-22t-659-69q-838 0-1327 487-489 488-489 1320 0 859 464 1363 464 505 1252 505 706 0 1117-455 411-454 411-1235zm-575 169q-6 471-264 752-258 282-683 282-481 0-770-272t-333-766l2050 4z" transform="scale(.01563)"/><path id="DejaVuSans-61" d="M2194 1759q-697 0-966-159t-269-544q0-306 202-486 202-179 548-179 479 0 768 339t289 901v128h-572zm1147 238V0h-575v531q-197-318-491-470T1556-91q-537 0-855 302-317 302-317 808 0 590 395 890 396 300 1180 300h807v57q0 397-261 614t-733 217q-300 0-585-72-284-72-546-216v532q315 122 612 182 297 61 578 61 760 0 1135-394 375-393 375-1193z" transform="scale(.01563)"/><path id="DejaVuSans-72" d="M2631 2963q-97 56-211 82-114 27-251 27-488 0-749-317t-261-911V0H581v3500h578v-544q182 319 472 473 291 155 707 155 59 0 131-8 72-7 159-23l3-590z" transform="scale(.01563)"/><path id="DejaVuSans-52" d="M2841 2188q203-69 395-294t386-619L4263 0h-679l-596 1197q-232 469-449 622t-592 153h-688V0H628v4666h1425q800 0 1194-335 394-334 394-1009 0-441-205-732-205-290-595-402zM1259 4147V2491h794q456 0 689 211t233 620q0 409-233 617t-689 208h-794z" transform="scale(.01563)"/><path id="DejaVuSans-64" d="M2906 2969v1894h575V0h-575v525q-181-312-458-464-276-152-664-152-634 0-1033 506-398 507-398 1332t398 1331q399 506 1033 506 388 0 664-152 277-151 458-463zM947 1747q0-634 261-995t717-361q456 0 718 361 263 361 263 995t-263 995q-262 361-718 361t-717-361q-261-361-261-995z" transform="scale(.01563)"/><path id="DejaVuSans-75" d="M544 1381v2119h575V1403q0-497 193-746 194-248 582-248 465 0 735 297 271 297 271 810v1984h575V0h-575v538q-209-319-486-474-276-155-642-155-603 0-916 375-312 375-312 1097zm1447 2203z" transform="scale(.01563)"/><path id="DejaVuSans-73" d="M2834 3397v-544q-243 125-506 187-262 63-544 63-428 0-642-131t-214-394q0-200 153-314t616-217l197-44q612-131 870-370t258-667q0-488-386-773Q2250-91 1575-91q-281 0-586 55T347 128v594q319-166 628-249 309-82 613-82 406 0 624 139 219 139 219 392 0 234-158 359-157 125-692 241l-200 47q-534 112-772 345-237 233-237 639 0 494 350 762 350 269 994 269 318 0 599-47 282-46 519-140z" transform="scale(.01563)"/><path id="DejaVuSans-56" d="M1831 0 50 4666h659L2188 738l1481 3928h656L2547 0h-716z" transform="scale(.01563)"/><path id="DejaVuSans-74" d="M1172 4494v-994h1184v-447H1172V1153q0-428 117-550t477-122h590V0h-590q-666 0-919 248-253 249-253 905v1900H172v447h422v994h578z" transform="scale(.01563)"/><path id="DejaVuSans-6f" d="M1959 3097q-462 0-731-361t-269-989q0-628 267-989 268-361 733-361 460 0 728 362 269 363 269 988 0 622-269 986-268 364-728 364zm0 487q750 0 1178-488 429-487 429-1349 0-859-429-1349Q2709-91 1959-91q-753 0-1180 489-426 490-426 1349 0 862 426 1349 427 488 1180 488z" transform="scale(.01563)"/><path id="DejaVuSans-46" d="M628 4666h2681v-532H1259V2759h1850v-531H1259V0H628v4666z" transform="scale(.01563)"/><path id="DejaVuSans-5f" d="M3263-1063v-446H-63v446h3326z" transform="scale(.01563)"/><path id="DejaVuSans-2c" d="M750 794h659V256L897-744H494L750 256v538z" transform="scale(.01563)"/><path id="DejaVuSans-62" d="M3116 1747q0 634-261 995t-717 361q-457 0-718-361t-261-995q0-634 261-995t718-361q456 0 717 361t261 995zM1159 2969q182 312 458 463 277 152 661 152 638 0 1036-506 399-506 399-1331T3314 415Q2916-91 2278-91q-384 0-661 152-276 152-458 464V0H581v4863h578V2969z" transform="scale(.01563)"/><path id="DejaVuSans-3d" d="M678 2906h4006v-525H678v525zm0-1275h4006v-531H678v531z" transform="scale(.01563)"/><path id="DejaVuSans-2e" d="M684 794h660V0H684v794z" transform="scale(.01563)"/><path id="DejaVuSans-39" d="M703 97v575q238-113 481-172 244-59 479-59 625 0 954 420 330 420 377 1277-181-269-460-413-278-144-615-144-700 0-1108 423-408 424-408 1159 0 718 425 1152 425 435 1131 435 810 0 1236-621 427-620 427-1801 0-1103-524-1761Q2575-91 1691-91q-238 0-482 47Q966 3 703 97zm1256 1978q425 0 673 290 249 291 249 798 0 503-249 795-248 292-673 292t-673-292q-248-292-248-795 0-507 248-798 248-290 673-290z" transform="scale(.01563)"/><path id="DejaVuSans-35" d="M691 4666h2478v-532H1269V2991q137 47 274 70 138 23 276 23 781 0 1237-428 457-428 457-1159 0-753-469-1171Q2575-91 1722-91q-294 0-599 50Q819 9 494 109v635q281-153 581-228t634-75q541 0 856 284 316 284 316 772 0 487-316 771-315 285-856 285-253 0-505-56-251-56-513-175v2344z" transform="scale(.01563)"/></defs><use xlink:href="#DejaVuSans-4c"/><use xlink:href="#DejaVuSans-69" x="55.713"/><use xlink:href="#DejaVuSans-6e" x="83.496"/><use xlink:href="#DejaVuSans-65" x="146.875"/><use xlink:href="#DejaVuSans-61" x="208.398"/><use xlink:href="#DejaVuSans-72" x="269.678"/><use xlink:href="#DejaVuSans-52" x="310.791"/><use xlink:href="#DejaVuSans-61" x="378.023"/><use xlink:href="#DejaVuSans-64" x="439.303"/><use xlink:href="#DejaVuSans-69" x="502.779"/><use xlink:href="#DejaVuSans-75" x="530.563"/><use xlink:href="#DejaVuSans-73" x="593.941"/><use xlink:href="#DejaVuSans-56" x="646.041"/><use xlink:href="#DejaVuSans-61" x="706.699"/><use xlink:href="#DejaVuSans-72" x="767.979"/><use xlink:href="#DejaVuSans-69" x="809.092"/><use xlink:href="#DejaVuSans-61" x="836.875"/><use xlink:href="#DejaVuSans-74" x="898.154"/><use xlink:href="#DejaVuSans-69" x="937.363"/><use xlink:href="#DejaVuSans-6f" x="965.146"/><use xlink:href="#DejaVuSans-6e" x="1026.328"/><use xlink:href="#DejaVuSans-46" x="1089.707"/><use xlink:href="#DejaVuSans-6f" x="1143.602"/><use xlink:href="#DejaVuSans-72" x="1204.783"/><use xlink:href="#DejaVuSans-65" x="1243.646"/><use xlink:href="#DejaVuSans-73" x="1305.17"/><use xlink:href="#DejaVuSans-74" x="1357.27"/><use xlink:href="#DejaVuSans-5f" x="1396.479"/><use xlink:href="#DejaVuSans-32" x="1446.479"/><use xlink:href="#DejaVuSans-2c" x="1510.102"/><use xlink:href="#DejaVuSans-20" x="1541.889"/><use xlink:href="#DejaVuSans-62" x="1573.676"/><use xlink:href="#DejaVuSans-3d" x="1637.152"/><use xlink:href="#DejaVuSans-30" x="1720.941"/><use xlink:href="#DejaVuSans-2e" x="1784.564"/><use xlink:href="#DejaVuSans-31" x="1816.352"/><use xlink:href="#DejaVuSans-38" x="1879.975"/><use xlink:href="#DejaVuSans-38" x="1943.598"/><use xlink:href="#DejaVuSans-39" x="2007.221"/><use xlink:href="#DejaVuSans-36" x="2070.844"/><use xlink:href="#DejaVuSans-30" x="2134.467"/><use xlink:href="#DejaVuSans-30" x="2198.09"/><use xlink:href="#DejaVuSans-2c" x="2261.713"/><use xlink:href="#DejaVuSans-20" x="2293.5"/><use xlink:href="#DejaVuSans-61" x="2325.287"/><use xlink:href="#DejaVuSans-3d" x="2386.566"/><use xlink:href="#DejaVuSans-30" x="2470.355"/><use xlink:href="#DejaVuSans-2e" x="2533.979"/><use xlink:href="#DejaVuSans-32" x="2565.766"/><use xlink:href="#DejaVuSans-39" x="2629.389"/><use xlink:href="#DejaVuSans-31" x="2693.012"/><use xlink:href="#DejaVuSans-31" x="2756.635"/><use xlink:href="#DejaVuSans-31" x="2820.258"/><use xlink:href="#DejaVuSans-32" x="2883.881"/><use xlink:href="#DejaVuSans-35" x="2947.504"/><use xlink:href="#DejaVuSans-2c" x="3011.127"/><use xlink:href="#DejaVuSans-20" x="3042.914"/><use xlink:href="#DejaVuSans-64" x="3074.701"/><use xlink:href="#DejaVuSans-3d" x="3138.178"/><use xlink:href="#DejaVuSans-30" x="3221.967"/><use xlink:href="#DejaVuSans-2e" x="3285.59"/><use xlink:href="#DejaVuSans-36" x="3317.377"/><use xlink:href="#DejaVuSans-34" x="3381"/><use xlink:href="#DejaVuSans-39" x="3444.623"/><use xlink:href="#DejaVuSans-30" x="3508.246"/><use xlink:href="#DejaVuSans-39" x="3571.869"/><use xlink:href="#DejaVuSans-36" x="3635.492"/><use xlink:href="#DejaVuSans-30" x="3699.115"/></g></g></g><defs><clipPath id="p63601c991d"><path d="M110.16 103.68h665.28v665.28H110.16z"/></clipPath></defs></svg>