<svg xmlns="http://www.w3.org/2000/svg" xmlns:xlink="http://www.w3.org/1999/xlink" width="1152" height="1152" viewBox="0 0 864 864"><defs><style>*{stroke-linejoin:round;stroke-linecap:butt}</style></defs><g id="figure_1"><path id="patch_1" d="M0 864h864V0H0z" style="fill:#fff"/><g id="axes_1"><path id="patch_2" d="M110.16 768.96h665.28V103.68H110.16z" style="fill:#fff"/><path id="patch_3" d="M176.688 768.96a66.531 66.531 0 0 0 66.528-66.528 66.531 66.531 0 0 0-66.528-66.528 66.531 66.531 0 0 0-66.528 66.528 66.531 66.531 0 0 0 66.528 66.528z" clip-path="url(#pd948356820)" style="fill:#ff00bf"/><path id="patch_4" d="M176.688 635.904a66.531 66.531 0 0 0 66.528-66.528 66.531 66.531 0 0 0-66.528-66.528 66.531 66.531 0 0 0-66.528 66.528 66.531 66.531 0 0 0 66.528 66.528z" clip-path="url(#pd948356820)" style="fill:#ff00bf"/><path id="patch_5" d="M309.744 768.96a66.531 66.531 0 0 0 66.528-66.528 66.531 66.531 0 0 0-66.528-66.528 66.531 66.531 0 0 0-66.528 66.528 66.531 66.531 0 0 0 66.528 66.528z" clip-path="url(#pd948356820)" style="fill:#ff00bf"/><path id="patch_6" d="M176.023 502.85a65.866 65.866 0 0 0 65.862-65.863 65.866 65.866 0 0 0-65.862-65.863 65.866 65.866 0 0 0-65.863 65.863 65.866 65.866 0 0 0 65.863 65.863z" clip-path="url(#pd948356820)" style="fill:#ff00ca"/><path id="patch_7" d="M441.463 768.96a65.2 65.2 0 0 0 65.197-65.197 65.2 65.2 0 0 0-65.197-65.198 65.2 65.2 0 0 0-65.198 65.198 65.2 65.2 0 0 0 65.198 65.197z" clip-path="url(#pd948356820)" style="fill:#ff00da"/><path id="patch_8" d="M174.692 371.131a64.535 64.535 0 0 0 64.532-64.532 64.535 64.535 0 0 0-64.532-64.532 64.535 64.535 0 0 0-64.532 64.532 64.535 64.535 0 0 0 64.532 64.532z" clip-path="url(#pd948356820)" style="fill:#ff00e5"/><path id="patch_9" d="M570.52 768.96a63.87 63.87 0 0 0 63.867-63.867 63.87 63.87 0 0 0-63.867-63.867 63.87 63.87 0 0 0-63.867 63.867 63.87 63.87 0 0 0 63.867 63.867z" clip-path="url(#pd948356820)" style="fill:#ff00f6"/><path id="patch_10" d="M173.362 242.074a63.205 63.205 0 0 0 63.201-63.202 63.205 63.205 0 0 0-63.201-63.202 63.205 63.205 0 0 0-63.202 63.202 63.205 63.205 0 0 0 63.202 63.202z" clip-path="url(#pd948356820)" style="fill:#fe00ff"/><path id="patch_11" d="M696.916 768.96a62.54 62.54 0 0 0 62.537-62.536 62.54 62.54 0 0 0-62.537-62.537 62.54 62.54 0 0 0-62.536 62.537 62.54 62.54 0 0 0 62.536 62.536z" clip-path="url(#pd948356820)" style="fill:#ed00ff"/><path id="patch_12" d="M242.819 663.18a27.278 27.278 0 0 0 19.287-46.563 27.278 27.278 0 0 0-46.564 19.287 27.278 27.278 0 0 0 27.277 27.276z" clip-path="url(#pd948356820)" style="fill:#00ff05"/><path id="patch_13" d="M126.792 652.536a16.633 16.633 0 1 0 0-33.266 16.633 16.633 0 0 0 0 33.266z" clip-path="url(#pd948356820)" style="fill:#d8ff00"/><path id="patch_14" d="M126.127 520.159a15.967 15.967 0 1 0 0-31.935 15.967 15.967 0 0 0 0 31.935z" clip-path="url(#pd948356820)" style="fill:#e8ff00"/><path id="patch_15" d="M125.461 259.053a15.302 15.302 0 1 0 0-30.604 15.302 15.302 0 0 0 0 30.604z" clip-path="url(#pd948356820)" style="fill:#f9ff00"/><path id="patch_16" d="M631.668 768.96a14.637 14.637 0 1 0 0-29.274 14.637 14.637 0 0 0 0 29.274z" clip-path="url(#pd948356820)" style="fill:#fffb00"/><path id="patch_17" d="M124.13 133.413a13.972 13.972 0 1 0 0-27.943 13.972 13.972 0 0 0 0 27.943z" clip-path="url(#pd948356820)" style="fill:#ffea00"/><path id="patch_18" d="M754.608 768.96a13.306 13.306 0 1 0 0-26.612 13.306 13.306 0 0 0 0 26.612z" clip-path="url(#pd948356820)" style="fill:#ffe000"/><path id="patch_19" d="M367.742 768.96a12.64 12.64 0 1 0 0-25.282 12.64 12.64 0 0 0 0 25.282z" clip-path="url(#pd948356820)" style="fill:#ffcf00"/><path id="patch_20" d="M122.135 392.794a11.976 11.976 0 1 0 0-23.951 11.976 11.976 0 0 0 0 23.951z" clip-path="url(#pd948356820)" style="fill:#ffbf00"/><path id="patch_21" d="M121.47 768.602a11.31 11.31 0 1 0 0-22.62 11.31 11.31 0 0 0 0 22.62z" clip-path="url(#pd948356820)" style="fill:#ffb400"/><path id="patch_22" d="M494.15 768.96a10.645 10.645 0 1 0 0-21.29 10.645 10.645 0 0 0 0 21.29z" clip-path="url(#pd948356820)" style="fill:#ffa400"/><path id="patch_23" d="M390.448 768.96a9.98 9.98 0 1 0 0-19.96 9.98 9.98 0 0 0 0 19.96z" clip-path="url(#pd948356820)" style="fill:#f90"/><path id="patch_24" d="M243.216 768.96a16.633 16.633 0 1 0 0-33.266 16.633 16.633 0 0 0 0 33.266z" clip-path="url(#pd948356820)" style="fill:#d8ff00"/><path id="patch_25" d="M119.474 364.945a9.314 9.314 0 1 0 0-18.628 9.314 9.314 0 0 0 0 18.628z" clip-path="url(#pd948356820)" style="fill:#ff8900"/><path id="patch_26" d="M523.515 768.96a8.649 8.649 0 1 0 0-17.298 8.649 8.649 0 0 0 0 17.298z" clip-path="url(#pd948356820)" style="fill:#ff7e00"/><path id="patch_27" d="M117.478 665.62a7.318 7.318 0 1 0 0-14.636 7.318 7.318 0 0 0 0 14.636z" clip-path="url(#pd948356820)" style="fill:#ff5e00"/><path id="patch_28" d="M207.175 642.557a6.653 6.653 0 1 0 0-13.306 6.653 6.653 0 0 0 0 13.306z" clip-path="url(#pd948356820)" style="fill:#ff5300"/><path id="patch_29" d="M350.342 768.96a5.988 5.988 0 1 0 0-11.976 5.988 5.988 0 0 0 0 11.976z" clip-path="url(#pd948356820)" style="fill:#ff4300"/><path id="patch_30" d="M139.054 768.96a5.322 5.322 0 1 0 0-10.645 5.322 5.322 0 0 0 0 10.645z" clip-path="url(#pd948356820)" style="fill:#ff3800"/><path id="patch_31" d="M770.351 768.96a4.657 4.657 0 1 0 0-9.314 4.657 4.657 0 0 0 0 9.314z" clip-path="url(#pd948356820)" style="fill:#ff2800"/><path id="patch_32" d="M114.152 673.832a3.992 3.992 0 1 0 0-7.984 3.992 3.992 0 0 0 0 7.984z" clip-path="url(#pd948356820)" style="fill:#ff1800"/><path id="patch_33" d="M220.818 768.96a7.318 7.318 0 1 0 0-14.637 7.318 7.318 0 0 0 0 14.637z" clip-path="url(#pd948356820)" style="fill:#ff5e00"/><path id="patch_34" d="M243.216 678.598a6.653 6.653 0 1 0 0-13.306 6.653 6.653 0 0 0 0 13.306z" clip-path="url(#pd948356820)" style="fill:#ff5300"/><path id="patch_35" d="M341.417 768.96a3.327 3.327 0 1 0 0-6.653 3.327 3.327 0 0 0 0 6.653z" clip-path="url(#pd948356820)" style="fill:#ff0d00"/><path id="patch_36" d="M736.757 768.96a5.988 5.988 0 1 0 0-11.976 5.988 5.988 0 0 0 0 11.976z" clip-path="url(#pd948356820)" style="fill:#ff4300"/><path id="patch_37" d="M149.55 641.226a5.322 5.322 0 1 0 0-10.645 5.322 5.322 0 0 0 0 10.645z" clip-path="url(#pd948356820)" style="fill:#ff3800"/><path id="patch_38" d="M150.077 768.96a2.661 2.661 0 1 0 0-5.322 2.661 2.661 0 0 0 0 5.322z" clip-path="url(#pd948356820)" style="fill:#ff0003"/><path id="patch_39" d="M117.478 620.824a7.318 7.318 0 1 0 0-14.637 7.318 7.318 0 0 0 0 14.637z" clip-path="url(#pd948356820)" style="fill:#ff5e00"/><path id="patch_40" d="M114.817 347.116a4.657 4.657 0 1 0 0-9.314 4.657 4.657 0 0 0 0 9.314z" clip-path="url(#pd948356820)" style="fill:#ff2800"/><path id="patch_41" d="M116.813 533.953a6.653 6.653 0 1 0 0-13.306 6.653 6.653 0 0 0 0 13.306z" clip-path="url(#pd948356820)" style="fill:#ff5300"/><path id="patch_42" d="M116.148 145.953a5.988 5.988 0 1 0 0-11.975 5.988 5.988 0 0 0 0 11.975z" clip-path="url(#pd948356820)" style="fill:#ff4300"/><path id="patch_43" d="M209.28 768.96a3.992 3.992 0 1 0 0-7.984 3.992 3.992 0 0 0 0 7.984z" clip-path="url(#pd948356820)" style="fill:#ff1800"/><path id="patch_44" d="M203.635 768.96a1.996 1.996 0 1 0 0-3.992 1.996 1.996 0 0 0 0 3.992z" clip-path="url(#pd948356820)" style="fill:#ff000e"/><path id="patch_45" d="M265.614 768.96a7.318 7.318 0 1 0 0-14.637 7.318 7.318 0 0 0 0 14.637z" clip-path="url(#pd948356820)" style="fill:#ff5e00"/><path id="patch_46" d="M243.216 734.892a5.322 5.322 0 1 0 0-10.645 5.322 5.322 0 0 0 0 10.645z" clip-path="url(#pd948356820)" style="fill:#ff3800"/><path id="patch_47" d="M116.813 271.812a6.653 6.653 0 1 0 0-13.307 6.653 6.653 0 0 0 0 13.307z" clip-path="url(#pd948356820)" style="fill:#ff5300"/><path id="patch_48" d="M113.486 542.95a3.327 3.327 0 1 0 0-6.653 3.327 3.327 0 0 0 0 6.653z" clip-path="url(#pd948356820)" style="fill:#ff0d00"/><path id="patch_49" d="M404.082 768.96a4.657 4.657 0 1 0 0-9.314 4.657 4.657 0 0 0 0 9.314z" clip-path="url(#pd948356820)" style="fill:#ff2800"/><path id="patch_50" d="M609.63 768.96a5.988 5.988 0 1 0 0-11.976 5.988 5.988 0 0 0 0 11.976z" clip-path="url(#pd948356820)" style="fill:#ff4300"/><path id="patch_51" d="M117.478 488.214a7.318 7.318 0 1 0 0-14.637 7.318 7.318 0 0 0 0 14.637z" clip-path="url(#pd948356820)" style="fill:#ff5e00"/><path id="patch_52" d="M116.813 226.535a6.653 6.653 0 1 0 0-13.306 6.653 6.653 0 0 0 0 13.306z" clip-path="url(#pd948356820)" style="fill:#ff5300"/><path id="patch_53" d="M115.482 745.388a5.322 5.322 0 1 0 0-10.645 5.322 5.322 0 0 0 0 10.645z" clip-path="url(#pd948356820)" style="fill:#ff3800"/><path id="patch_54" d="M114.152 605.96a3.992 3.992 0 1 0 0-7.984 3.992 3.992 0 0 0 0 7.984z" clip-path="url(#pd948356820)" style="fill:#ff1800"/><path id="patch_55" d="M229.644 768.96a2.661 2.661 0 1 0 0-5.322 2.661 2.661 0 0 0 0 5.322z" clip-path="url(#pd948356820)" style="fill:#ff0003"/><path id="patch_56" d="M111.49 666.561a1.33 1.33 0 1 0 0-2.66 1.33 1.33 0 0 0 0 2.66z" clip-path="url(#pd948356820)" style="fill:#ff001e"/><path id="patch_57" d="M654.131 768.96a7.318 7.318 0 1 0 0-14.637 7.318 7.318 0 0 0 0 14.637z" clip-path="url(#pd948356820)" style="fill:#ff5e00"/><path id="patch_58" d="M114.817 406.617a4.657 4.657 0 1 0 0-9.314 4.657 4.657 0 0 0 0 9.314z" clip-path="url(#pd948356820)" style="fill:#ff2800"/><path id="patch_59" d="M725.762 768.96a3.327 3.327 0 1 0 0-6.653 3.327 3.327 0 0 0 0 6.653z" clip-path="url(#pd948356820)" style="fill:#ff0d00"/><path id="patch_60" d="M478.718 768.96a5.322 5.322 0 1 0 0-10.645 5.322 5.322 0 0 0 0 10.645z" clip-path="url(#pd948356820)" style="fill:#ff3800"/><path id="patch_61" d="M277.152 768.96a3.992 3.992 0 1 0 0-7.984 3.992 3.992 0 0 0 0 7.984z" clip-path="url(#pd948356820)" style="fill:#ff1800"/><path id="patch_62" d="M112.156 768.79a1.996 1.996 0 1 0 0-3.992 1.996 1.996 0 0 0 0 3.992z" clip-path="url(#pd948356820)" style="fill:#ff000e"/><path id="patch_63" d="M508.232 768.96a4.657 4.657 0 1 0 0-9.314 4.657 4.657 0 0 0 0 9.314z" clip-path="url(#pd948356820)" style="fill:#ff2800"/><path id="patch_64" d="M112.821 521.546a2.661 2.661 0 1 0 0-5.323 2.661 2.661 0 0 0 0 5.323z" clip-path="url(#pd948356820)" style="fill:#ff0003"/><path id="patch_65" d="M113.486 370.09a3.327 3.327 0 1 0 0-6.653 3.327 3.327 0 0 0 0 6.653z" clip-path="url(#pd948356820)" style="fill:#ff0d00"/><path id="patch_66" d="M114.152 473.407a3.992 3.992 0 1 0 0-7.984 3.992 3.992 0 0 0 0 7.984z" clip-path="url(#pd948356820)" style="fill:#ff1800"/><path id="patch_67" d="M538.587 768.96a3.992 3.992 0 1 0 0-7.984 3.992 3.992 0 0 0 0 7.984z" clip-path="url(#pd948356820)" style="fill:#ff1800"/><path id="patch_68" d="M412.01 768.96a3.327 3.327 0 1 0 0-6.653 3.327 3.327 0 0 0 0 6.653z" clip-path="url(#pd948356820)" style="fill:#ff0d00"/><path id="patch_69" d="M112.821 134.644a2.661 2.661 0 1 0 0-5.323 2.661 2.661 0 0 0 0 5.323z" clip-path="url(#pd948356820)" style="fill:#ff0003"/><path id="patch_70" d="M417.163 768.96a1.996 1.996 0 1 0 0-3.992 1.996 1.996 0 0 0 0 3.992z" clip-path="url(#pd948356820)" style="fill:#ff000e"/><path id="patch_71" d="M144.376 768.96a1.33 1.33 0 1 0 0-2.661 1.33 1.33 0 0 0 0 2.661z" clip-path="url(#pd948356820)" style="fill:#ff001e"/><path id="patch_72" d="M205.94 768.96a.665.665 0 1 0 0-1.33.665.665 0 0 0 0 1.33z" clip-path="url(#pd948356820)" style="fill:#ff0029"/><path id="patch_73" d="M665.317 768.96a3.992 3.992 0 1 0 0-7.984 3.992 3.992 0 0 0 0 7.984z" clip-path="url(#pd948356820)" style="fill:#ff1800"/><path id="patch_74" d="M113.486 280.623a3.327 3.327 0 1 0 0-6.653 3.327 3.327 0 0 0 0 6.653z" clip-path="url(#pd948356820)" style="fill:#ff0d00"/><path id="patch_75" d="M256.788 768.96a2.661 2.661 0 1 0 0-5.322 2.661 2.661 0 0 0 0 5.322z" clip-path="url(#pd948356820)" style="fill:#ff0003"/><path id="patch_76" d="M719.26 768.96a1.996 1.996 0 1 0 0-3.992 1.996 1.996 0 0 0 0 3.992z" clip-path="url(#pd948356820)" style="fill:#ff000e"/><path id="patch_77" d="M599.671 768.96a3.327 3.327 0 1 0 0-6.653 3.327 3.327 0 0 0 0 6.653z" clip-path="url(#pd948356820)" style="fill:#ff0d00"/><path id="patch_78" d="M112.821 109.908a2.661 2.661 0 1 0 0-5.322 2.661 2.661 0 0 0 0 5.322z" clip-path="url(#pd948356820)" style="fill:#ff0003"/><path id="patch_79" d="M252.624 768.96a1.33 1.33 0 1 0 0-2.661 1.33 1.33 0 0 0 0 2.661z" clip-path="url(#pd948356820)" style="fill:#ff001e"/><path id="patch_80" d="M113.486 153.2a3.327 3.327 0 1 0 0-6.654 3.327 3.327 0 0 0 0 6.654z" clip-path="url(#pd948356820)" style="fill:#ff0d00"/><path id="patch_81" d="M744.302 768.96a1.996 1.996 0 1 0 0-3.992 1.996 1.996 0 0 0 0 3.992z" clip-path="url(#pd948356820)" style="fill:#ff000e"/><path id="patch_82" d="M379.341 768.96a2.661 2.661 0 1 0 0-5.322 2.661 2.661 0 0 0 0 5.322z" clip-path="url(#pd948356820)" style="fill:#ff0003"/><path id="patch_83" d="M113.486 211.197a3.327 3.327 0 1 0 0-6.653 3.327 3.327 0 0 0 0 6.653z" clip-path="url(#pd948356820)" style="fill:#ff0d00"/><path id="patch_84" d="M113.486 232.81a3.327 3.327 0 1 0 0-6.653 3.327 3.327 0 0 0 0 6.653z" clip-path="url(#pd948356820)" style="fill:#ff0d00"/><path id="patch_85" d="M644.15 768.96a2.661 2.661 0 1 0 0-5.322 2.661 2.661 0 0 0 0 5.322z" clip-path="url(#pd948356820)" style="fill:#ff0003"/><path id="patch_86" d="M112.156 598.319a1.996 1.996 0 1 0 0-3.992 1.996 1.996 0 0 0 0 3.992z" clip-path="url(#pd948356820)" style="fill:#ff000e"/><path id="patch_87" d="M213.89 768.96a1.33 1.33 0 1 0 0-2.661 1.33 1.33 0 0 0 0 2.661z" clip-path="url(#pd948356820)" style="fill:#ff001e"/><path id="patch_88" d="M110.825 599.374a.665.665 0 1 0 0-1.33.665.665 0 0 0 0 1.33z" clip-path="url(#pd948356820)" style="fill:#ff0029"/><path id="patch_89" d="M113.486 396.768a3.327 3.327 0 1 0 0-6.653 3.327 3.327 0 0 0 0 6.653z" clip-path="url(#pd948356820)" style="fill:#ff0d00"/><path id="patch_90" d="M112.821 259.175a2.661 2.661 0 1 0 0-5.322 2.661 2.661 0 0 0 0 5.322z" clip-path="url(#pd948356820)" style="fill:#ff0003"/><path id="patch_91" d="M282.797 768.96a1.996 1.996 0 1 0 0-3.992 1.996 1.996 0 0 0 0 3.992z" clip-path="url(#pd948356820)" style="fill:#ff000e"/><path id="patch_92" d="M112.821 493.816a2.661 2.661 0 1 0 0-5.322 2.661 2.661 0 0 0 0 5.322z" clip-path="url(#pd948356820)" style="fill:#ff0003"/><path id="patch_93" d="M111.49 608.595a1.33 1.33 0 1 0 0-2.66 1.33 1.33 0 0 0 0 2.66z" clip-path="url(#pd948356820)" style="fill:#ff001e"/><path id="patch_94" d="M112.156 748.58a1.996 1.996 0 1 0 0-3.992 1.996 1.996 0 0 0 0 3.992z" clip-path="url(#pd948356820)" style="fill:#ff000e"/><path id="patch_95" d="M112.821 651.87a2.661 2.661 0 1 0 0-5.322 2.661 2.661 0 0 0 0 5.323z" clip-path="url(#pd948356820)" style="fill:#ff0003"/><path id="patch_96" d="M112.821 731.704a2.661 2.661 0 1 0 0-5.322 2.661 2.661 0 0 0 0 5.322z" clip-path="url(#pd948356820)" style="fill:#ff0003"/><path id="patch_97" d="M514.329 768.96a1.996 1.996 0 1 0 0-3.992 1.996 1.996 0 0 0 0 3.992z" clip-path="url(#pd948356820)" style="fill:#ff000e"/><path id="patch_98" d="M603.985 768.96a1.33 1.33 0 1 0 0-2.661 1.33 1.33 0 0 0 0 2.661z" clip-path="url(#pd948356820)" style="fill:#ff001e"/><path id="patch_99" d="M518.718 768.96a.665.665 0 1 0 0-1.33.665.665 0 0 0 0 1.33z" clip-path="url(#pd948356820)" style="fill:#ff0029"/><path id="patch_100" d="M157.684 638.565a2.661 2.661 0 1 0 0-5.322 2.661 2.661 0 0 0 0 5.322z" clip-path="url(#pd948356820)" style="fill:#ff0003"/><path id="patch_101" d="M531.825 768.96a1.996 1.996 0 1 0 0-3.992 1.996 1.996 0 0 0 0 3.992z" clip-path="url(#pd948356820)" style="fill:#ff000e"/><path id="patch_102" d="M195.692 638.565a2.661 2.661 0 1 0 0-5.322 2.661 2.661 0 0 0 0 5.322z" clip-path="url(#pd948356820)" style="fill:#ff0003"/><path id="patch_103" d="M111.49 536.747a1.33 1.33 0 1 0 0-2.662 1.33 1.33 0 0 0 0 2.662z" clip-path="url(#pd948356820)" style="fill:#ff001e"/><path id="patch_104" d="M357.696 768.96a1.996 1.996 0 1 0 0-3.992 1.996 1.996 0 0 0 0 3.992z" clip-path="url(#pd948356820)" style="fill:#ff000e"/><path id="patch_105" d="M243.216 724.097a2.661 2.661 0 1 0 0-5.322 2.661 2.661 0 0 0 0 5.322z" clip-path="url(#pd948356820)" style="fill:#ff0003"/><path id="patch_106" d="M243.216 686.089a2.661 2.661 0 1 0 0-5.323 2.661 2.661 0 0 0 0 5.323z" clip-path="url(#pd948356820)" style="fill:#ff0003"/><path id="patch_107" d="M132.536 768.96a1.996 1.996 0 1 0 0-3.992 1.996 1.996 0 0 0 0 3.992z" clip-path="url(#pd948356820)" style="fill:#ff000e"/><path id="patch_108" d="M111.49 488.467a1.33 1.33 0 1 0 0-2.661 1.33 1.33 0 0 0 0 2.66z" clip-path="url(#pd948356820)" style="fill:#ff001e"/><path id="patch_109" d="M135.29 768.96a.665.665 0 1 0 0-1.33.665.665 0 0 0 0 1.33z" clip-path="url(#pd948356820)" style="fill:#ff0029"/><path id="patch_110" d="M112.821 413.17a2.661 2.661 0 1 0 0-5.322 2.661 2.661 0 0 0 0 5.322z" clip-path="url(#pd948356820)" style="fill:#ff0003"/><path id="patch_111" d="M112.156 677.481a1.996 1.996 0 1 0 0-3.992 1.996 1.996 0 0 0 0 3.992z" clip-path="url(#pd948356820)" style="fill:#ff000e"/><path id="patch_112" d="M467.806 768.96a2.661 2.661 0 1 0 0-5.322 2.661 2.661 0 0 0 0 5.322z" clip-path="url(#pd948356820)" style="fill:#ff0003"/><path id="patch_113" d="M111.49 736.074a1.33 1.33 0 1 0 0-2.661 1.33 1.33 0 0 0 0 2.661z" clip-path="url(#pd948356820)" style="fill:#ff001e"/><path id="patch_114" d="M336.264 768.96a1.996 1.996 0 1 0 0-3.992 1.996 1.996 0 0 0 0 3.992z" clip-path="url(#pd948356820)" style="fill:#ff000e"/><path id="patch_115" d="M112.821 335.469a2.661 2.661 0 1 0 0-5.323 2.661 2.661 0 0 0 0 5.323z" clip-path="url(#pd948356820)" style="fill:#ff0003"/><path id="patch_116" d="M112.821 625.26a2.661 2.661 0 1 0 0-5.323 2.661 2.661 0 0 0 0 5.323z" clip-path="url(#pd948356820)" style="fill:#ff0003"/><path id="patch_117" d="M112.156 546.773a1.996 1.996 0 1 0 0-3.992 1.996 1.996 0 0 0 0 3.992z" clip-path="url(#pd948356820)" style="fill:#ff000e"/><path id="patch_118" d="M729.97 768.96a1.33 1.33 0 1 0 0-2.661 1.33 1.33 0 0 0 0 2.661z" clip-path="url(#pd948356820)" style="fill:#ff001e"/><path id="patch_119" d="M110.825 399.105a.665.665 0 1 0 0-1.33.665.665 0 0 0 0 1.33z" clip-path="url(#pd948356820)" style="fill:#ff0029"/><path id="patch_120" d="M619.186 768.96a2.661 2.661 0 1 0 0-5.322 2.661 2.661 0 0 0 0 5.322z" clip-path="url(#pd948356820)" style="fill:#ff0003"/><path id="patch_121" d="M112.156 461.913a1.996 1.996 0 1 0 0-3.992 1.996 1.996 0 0 0 0 3.992z" clip-path="url(#pd948356820)" style="fill:#ff000e"/><path id="patch_122" d="M272.543 768.96a1.33 1.33 0 1 0 0-2.661 1.33 1.33 0 0 0 0 2.661z" clip-path="url(#pd948356820)" style="fill:#ff001e"/><path id="patch_123" d="M112.156 285.897a1.996 1.996 0 1 0 0-3.992 1.996 1.996 0 0 0 0 3.992z" clip-path="url(#pd948356820)" style="fill:#ff000e"/><path id="patch_124" d="M547.94 768.96a1.996 1.996 0 1 0 0-3.992 1.996 1.996 0 0 0 0 3.992z" clip-path="url(#pd948356820)" style="fill:#ff000e"/><path id="patch_125" d="M111.49 372.302a1.33 1.33 0 1 0 0-2.661 1.33 1.33 0 0 0 0 2.66z" clip-path="url(#pd948356820)" style="fill:#ff001e"/><path id="patch_126" d="M110.825 280.937a.665.665 0 1 0 0-1.33.665.665 0 0 0 0 1.33z" clip-path="url(#pd948356820)" style="fill:#ff0029"/><path id="patch_127" d="M593.1 768.96a1.996 1.996 0 1 0 0-3.992 1.996 1.996 0 0 0 0 3.992z" clip-path="url(#pd948356820)" style="fill:#ff000e"/><path id="patch_128" d="M111.49 475.355a1.33 1.33 0 1 0 0-2.661 1.33 1.33 0 0 0 0 2.661z" clip-path="url(#pd948356820)" style="fill:#ff001e"/><path id="patch_129" d="M112.156 158.405a1.996 1.996 0 1 0 0-3.991 1.996 1.996 0 0 0 0 3.991z" clip-path="url(#pd948356820)" style="fill:#ff000e"/><path id="patch_130" d="M112.156 203.33a1.996 1.996 0 1 0 0-3.992 1.996 1.996 0 0 0 0 3.992z" clip-path="url(#pd948356820)" style="fill:#ff000e"/><path id="patch_131" d="M111.49 129.55a1.33 1.33 0 1 0 0-2.661 1.33 1.33 0 0 0 0 2.66z" clip-path="url(#pd948356820)" style="fill:#ff001e"/><path id="patch_132" d="M270.027 768.96a.665.665 0 1 0 0-1.33.665.665 0 0 0 0 1.33z" clip-path="url(#pd948356820)" style="fill:#ff0029"/><path id="patch_133" d="M674.572 768.96a1.996 1.996 0 1 0 0-3.992 1.996 1.996 0 0 0 0 3.992z" clip-path="url(#pd948356820)" style="fill:#ff000e"/><path id="patch_134" d="M660.708 768.96a1.33 1.33 0 1 0 0-2.661 1.33 1.33 0 0 0 0 2.661z" clip-path="url(#pd948356820)" style="fill:#ff001e"/><path id="patch_135" d="M669.927 768.96a1.33 1.33 0 1 0 0-2.661 1.33 1.33 0 0 0 0 2.661z" clip-path="url(#pd948356820)" style="fill:#ff001e"/><path id="patch_136" d="M110.825 110.574a.665.665 0 1 0 0-1.331.665.665 0 0 0 0 1.33z" clip-path="url(#pd948356820)" style="fill:#ff0029"/><path id="patch_137" d="M420.422 768.96a1.33 1.33 0 1 0 0-2.661 1.33 1.33 0 0 0 0 2.661z" clip-path="url(#pd948356820)" style="fill:#ff001e"/><path id="patch_138" d="M111.49 274.42a1.33 1.33 0 1 0 0-2.662 1.33 1.33 0 0 0 0 2.661z" clip-path="url(#pd948356820)" style="fill:#ff001e"/><path id="patch_139" d="M110.825 153.514a.665.665 0 1 0 0-1.331.665.665 0 0 0 0 1.33z" clip-path="url(#pd948356820)" style="fill:#ff0029"/><path id="patch_140" d="M543.196 768.96a1.33 1.33 0 1 0 0-2.661 1.33 1.33 0 0 0 0 2.661z" clip-path="url(#pd948356820)" style="fill:#ff001e"/><path id="patch_141" d="M111.49 466.137a1.33 1.33 0 1 0 0-2.661 1.33 1.33 0 0 0 0 2.66z" clip-path="url(#pd948356820)" style="fill:#ff001e"/><path id="patch_142" d="M110.825 477.148a.665.665 0 1 0 0-1.33.665.665 0 0 0 0 1.33z" clip-path="url(#pd948356820)" style="fill:#ff0029"/><path id="patch_143" d="M111.49 516.452a1.33 1.33 0 1 0 0-2.661 1.33 1.33 0 0 0 0 2.661z" clip-path="url(#pd948356820)" style="fill:#ff001e"/><path id="patch_144" d="M716.001 768.96a1.33 1.33 0 1 0 0-2.661 1.33 1.33 0 0 0 0 2.661z" clip-path="url(#pd948356820)" style="fill:#ff001e"/><path id="patch_145" d="M110.825 744.495a.665.665 0 1 0 0-1.331.665.665 0 0 0 0 1.33z" clip-path="url(#pd948356820)" style="fill:#ff0029"/><path id="patch_146" d="M503.253 768.96a1.33 1.33 0 1 0 0-2.661 1.33 1.33 0 0 0 0 2.661z" clip-path="url(#pd948356820)" style="fill:#ff001e"/><path id="patch_147" d="M111.49 146.996a1.33 1.33 0 1 0 0-2.661 1.33 1.33 0 0 0 0 2.661z" clip-path="url(#pd948356820)" style="fill:#ff001e"/><path id="patch_148" d="M226.982 768.96a.665.665 0 1 0 0-1.33.665.665 0 0 0 0 1.33z" clip-path="url(#pd948356820)" style="fill:#ff0029"/><path id="patch_149" d="M383.105 768.96a1.33 1.33 0 1 0 0-2.661 1.33 1.33 0 0 0 0 2.661z" clip-path="url(#pd948356820)" style="fill:#ff001e"/><path id="patch_150" d="M111.49 213.41a1.33 1.33 0 1 0 0-2.662 1.33 1.33 0 0 0 0 2.661z" clip-path="url(#pd948356820)" style="fill:#ff001e"/><path id="patch_151" d="M641.489 768.96a.665.665 0 1 0 0-1.33.665.665 0 0 0 0 1.33z" clip-path="url(#pd948356820)" style="fill:#ff0029"/><path id="patch_152" d="M484.04 768.96a1.33 1.33 0 1 0 0-2.661 1.33 1.33 0 0 0 0 2.661z" clip-path="url(#pd948356820)" style="fill:#ff001e"/><path id="patch_153" d="M111.49 235.021a1.33 1.33 0 1 0 0-2.66 1.33 1.33 0 0 0 0 2.66z" clip-path="url(#pd948356820)" style="fill:#ff001e"/><path id="patch_154" d="M215.77 768.96a.665.665 0 1 0 0-1.33.665.665 0 0 0 0 1.33z" clip-path="url(#pd948356820)" style="fill:#ff0029"/><path id="patch_155" d="M111.49 680.075a1.33 1.33 0 1 0 0-2.661 1.33 1.33 0 0 0 0 2.66z" clip-path="url(#pd948356820)" style="fill:#ff001e"/><path id="patch_156" d="M464.043 768.96a1.33 1.33 0 1 0 0-2.661 1.33 1.33 0 0 0 0 2.661z" clip-path="url(#pd948356820)" style="fill:#ff001e"/><path id="patch_157" d="M110.825 261.616a.665.665 0 1 0 0-1.33.665.665 0 0 0 0 1.33z" clip-path="url(#pd948356820)" style="fill:#ff0029"/><path id="patch_158" d="M471.57 768.96a1.33 1.33 0 1 0 0-2.661 1.33 1.33 0 0 0 0 2.661z" clip-path="url(#pd948356820)" style="fill:#ff001e"/><path id="patch_159" d="M333.004 768.96a1.33 1.33 0 1 0 0-2.661 1.33 1.33 0 0 0 0 2.661z" clip-path="url(#pd948356820)" style="fill:#ff001e"/><path id="patch_160" d="M407.603 768.96a.665.665 0 1 0 0-1.33.665.665 0 0 0 0 1.33z" clip-path="url(#pd948356820)" style="fill:#ff0029"/><path id="patch_161" d="M111.49 330.375a1.33 1.33 0 1 0 0-2.661 1.33 1.33 0 0 0 0 2.661z" clip-path="url(#pd948356820)" style="fill:#ff001e"/><path id="patch_162" d="M111.49 337.902a1.33 1.33 0 1 0 0-2.661 1.33 1.33 0 0 0 0 2.66z" clip-path="url(#pd948356820)" style="fill:#ff001e"/><path id="patch_163" d="M110.825 259.84a.665.665 0 1 0 0-1.33.665.665 0 0 0 0 1.33z" clip-path="url(#pd948356820)" style="fill:#ff0029"/><path id="patch_164" d="M111.49 415.603a1.33 1.33 0 1 0 0-2.661 1.33 1.33 0 0 0 0 2.661z" clip-path="url(#pd948356820)" style="fill:#ff001e"/><path id="patch_165" d="M111.49 627.692a1.33 1.33 0 1 0 0-2.66 1.33 1.33 0 0 0 0 2.66z" clip-path="url(#pd948356820)" style="fill:#ff001e"/><path id="patch_166" d="M280.493 768.96a.665.665 0 1 0 0-1.33.665.665 0 0 0 0 1.33z" clip-path="url(#pd948356820)" style="fill:#ff0029"/><path id="patch_167" d="M111.49 549.367a1.33 1.33 0 1 0 0-2.661 1.33 1.33 0 0 0 0 2.66z" clip-path="url(#pd948356820)" style="fill:#ff001e"/><path id="patch_168" d="M129.277 768.96a1.33 1.33 0 1 0 0-2.661 1.33 1.33 0 0 0 0 2.661z" clip-path="url(#pd948356820)" style="fill:#ff001e"/><path id="patch_169" d="M110.825 749.554a.665.665 0 1 0 0-1.33.665.665 0 0 0 0 1.33z" clip-path="url(#pd948356820)" style="fill:#ff0029"/><path id="patch_170" d="M615.423 768.96a1.33 1.33 0 1 0 0-2.661 1.33 1.33 0 0 0 0 2.661z" clip-path="url(#pd948356820)" style="fill:#ff001e"/><path id="patch_171" d="M111.49 726.61a1.33 1.33 0 1 0 0-2.66 1.33 1.33 0 0 0 0 2.66z" clip-path="url(#pd948356820)" style="fill:#ff001e"/><path id="patch_172" d="M658.544 768.96a.665.665 0 1 0 0-1.33.665.665 0 0 0 0 1.33z" clip-path="url(#pd948356820)" style="fill:#ff0029"/><path id="patch_173" d="M111.49 457.989a1.33 1.33 0 1 0 0-2.661 1.33 1.33 0 0 0 0 2.66z" clip-path="url(#pd948356820)" style="fill:#ff001e"/><path id="patch_174" d="M111.49 288.491a1.33 1.33 0 1 0 0-2.661 1.33 1.33 0 0 0 0 2.661z" clip-path="url(#pd948356820)" style="fill:#ff001e"/><path id="patch_175" d="M110.825 732.37a.665.665 0 1 0 0-1.331.665.665 0 0 0 0 1.33z" clip-path="url(#pd948356820)" style="fill:#ff0029"/><path id="patch_176" d="M111.49 646.777a1.33 1.33 0 1 0 0-2.661 1.33 1.33 0 0 0 0 2.66z" clip-path="url(#pd948356820)" style="fill:#ff001e"/><path id="patch_177" d="M551.199 768.96a1.33 1.33 0 1 0 0-2.661 1.33 1.33 0 0 0 0 2.661z" clip-path="url(#pd948356820)" style="fill:#ff001e"/><path id="patch_178" d="M512.024 768.96a.665.665 0 1 0 0-1.33.665.665 0 0 0 0 1.33z" clip-path="url(#pd948356820)" style="fill:#ff0029"/><path id="patch_179" d="M111.49 496.25a1.33 1.33 0 1 0 0-2.662 1.33 1.33 0 0 0 0 2.661z" clip-path="url(#pd948356820)" style="fill:#ff001e"/><path id="patch_180" d="M589.841 768.96a1.33 1.33 0 1 0 0-2.661 1.33 1.33 0 0 0 0 2.661z" clip-path="url(#pd948356820)" style="fill:#ff001e"/><path id="patch_181" d="M517.387 768.96a.665.665 0 1 0 0-1.33.665.665 0 0 0 0 1.33z" clip-path="url(#pd948356820)" style="fill:#ff0029"/><path id="patch_182" d="M286.056 768.96a1.33 1.33 0 1 0 0-2.661 1.33 1.33 0 0 0 0 2.661z" clip-path="url(#pd948356820)" style="fill:#ff001e"/><path id="patch_183" d="M111.49 161a1.33 1.33 0 1 0 0-2.662 1.33 1.33 0 0 0 0 2.661z" clip-path="url(#pd948356820)" style="fill:#ff001e"/><path id="patch_184" d="M534.13 768.96a.665.665 0 1 0 0-1.33.665.665 0 0 0 0 1.33z" clip-path="url(#pd948356820)" style="fill:#ff0029"/><path id="patch_185" d="M111.49 199.406a1.33 1.33 0 1 0 0-2.661 1.33 1.33 0 0 0 0 2.66z" clip-path="url(#pd948356820)" style="fill:#ff001e"/><path id="patch_186" d="M111.49 390.565a1.33 1.33 0 1 0 0-2.661 1.33 1.33 0 0 0 0 2.66z" clip-path="url(#pd948356820)" style="fill:#ff001e"/><path id="patch_187" d="M355.392 768.96a.665.665 0 1 0 0-1.33.665.665 0 0 0 0 1.33z" clip-path="url(#pd948356820)" style="fill:#ff0029"/><path id="patch_188" d="M677.832 768.96a1.33 1.33 0 1 0 0-2.661 1.33 1.33 0 0 0 0 2.661z" clip-path="url(#pd948356820)" style="fill:#ff001e"/><path id="patch_189" d="M233.808 768.96a1.33 1.33 0 1 0 0-2.661 1.33 1.33 0 0 0 0 2.661z" clip-path="url(#pd948356820)" style="fill:#ff001e"/><path id="patch_190" d="M110.825 408.513a.665.665 0 1 0 0-1.33.665.665 0 0 0 0 1.33z" clip-path="url(#pd948356820)" style="fill:#ff0029"/><path id="patch_191" d="M397.736 768.96a1.33 1.33 0 1 0 0-2.661 1.33 1.33 0 0 0 0 2.661z" clip-path="url(#pd948356820)" style="fill:#ff001e"/><path id="patch_192" d="M763.023 768.96a1.33 1.33 0 1 0 0-2.661 1.33 1.33 0 0 0 0 2.661z" clip-path="url(#pd948356820)" style="fill:#ff001e"/><path id="patch_193" d="M731.852 768.96a.665.665 0 1 0 0-1.33.665.665 0 0 0 0 1.33z" clip-path="url(#pd948356820)" style="fill:#ff0029"/><path id="patch_194" d="M111.49 326.462a1.33 1.33 0 1 0 0-2.661 1.33 1.33 0 0 0 0 2.661z" clip-path="url(#pd948356820)" style="fill:#ff001e"/><path id="patch_195" d="M460.09 768.96a1.33 1.33 0 1 0 0-2.661 1.33 1.33 0 0 0 0 2.661z" clip-path="url(#pd948356820)" style="fill:#ff001e"/><path id="patch_196" d="M110.825 373.518a.665.665 0 1 0 0-1.33.665.665 0 0 0 0 1.33z" clip-path="url(#pd948356820)" style="fill:#ff0029"/><path id="patch_197" d="M111.49 419.595a1.33 1.33 0 1 0 0-2.661 1.33 1.33 0 0 0 0 2.66z" clip-path="url(#pd948356820)" style="fill:#ff001e"/><path id="patch_198" d="M328.561 768.96a1.33 1.33 0 1 0 0-2.661 1.33 1.33 0 0 0 0 2.661z" clip-path="url(#pd948356820)" style="fill:#ff001e"/><path id="patch_199" d="M671.808 768.96a.665.665 0 1 0 0-1.33.665.665 0 0 0 0 1.33z" clip-path="url(#pd948356820)" style="fill:#ff0029"/><path id="patch_200" d="M290.927 768.96a1.33 1.33 0 1 0 0-2.661 1.33 1.33 0 0 0 0 2.661z" clip-path="url(#pd948356820)" style="fill:#ff001e"/><path id="patch_201" d="M111.49 684.946a1.33 1.33 0 1 0 0-2.662 1.33 1.33 0 0 0 0 2.662z" clip-path="url(#pd948356820)" style="fill:#ff001e"/><path id="patch_202" d="M545.078 768.96a.665.665 0 1 0 0-1.33.665.665 0 0 0 0 1.33z" clip-path="url(#pd948356820)" style="fill:#ff0029"/><path id="patch_203" d="M111.49 722.58a1.33 1.33 0 1 0 0-2.662 1.33 1.33 0 0 0 0 2.662z" clip-path="url(#pd948356820)" style="fill:#ff001e"/><path id="patch_204" d="M157.871 768.96a1.33 1.33 0 1 0 0-2.661 1.33 1.33 0 0 0 0 2.661z" clip-path="url(#pd948356820)" style="fill:#ff001e"/><path id="patch_205" d="M714.12 768.96a.665.665 0 1 0 0-1.33.665.665 0 0 0 0 1.33z" clip-path="url(#pd948356820)" style="fill:#ff0029"/><path id="patch_206" d="M195.505 768.96a1.33 1.33 0 1 0 0-2.661 1.33 1.33 0 0 0 0 2.661z" clip-path="url(#pd948356820)" style="fill:#ff001e"/><path id="patch_207" d="M163.316 637.235a1.33 1.33 0 1 0 0-2.662 1.33 1.33 0 0 0 0 2.662z" clip-path="url(#pd948356820)" style="fill:#ff001e"/><path id="patch_208" d="M225.652 768.96a.665.665 0 1 0 0-1.33.665.665 0 0 0 0 1.33z" clip-path="url(#pd948356820)" style="fill:#ff0029"/><path id="patch_209" d="M190.06 637.235a1.33 1.33 0 1 0 0-2.662 1.33 1.33 0 0 0 0 2.662z" clip-path="url(#pd948356820)" style="fill:#ff001e"/><path id="patch_210" d="M111.49 589.524a1.33 1.33 0 1 0 0-2.662 1.33 1.33 0 0 0 0 2.662z" clip-path="url(#pd948356820)" style="fill:#ff001e"/><path id="patch_211" d="M384.986 768.96a.665.665 0 1 0 0-1.33.665.665 0 0 0 0 1.33z" clip-path="url(#pd948356820)" style="fill:#ff0029"/><path id="patch_212" d="M243.216 717.135a1.33 1.33 0 1 0 0-2.662 1.33 1.33 0 0 0 0 2.662z" clip-path="url(#pd948356820)" style="fill:#ff001e"/><path id="patch_213" d="M243.216 690.39a1.33 1.33 0 1 0 0-2.66 1.33 1.33 0 0 0 0 2.66z" clip-path="url(#pd948356820)" style="fill:#ff001e"/><path id="patch_214" d="M110.825 214.625a.665.665 0 1 0 0-1.33.665.665 0 0 0 0 1.33z" clip-path="url(#pd948356820)" style="fill:#ff0029"/><path id="patch_215" d="M111.49 349.921a1.33 1.33 0 1 0 0-2.66 1.33 1.33 0 0 0 0 2.66z" clip-path="url(#pd948356820)" style="fill:#ff001e"/><path id="patch_216" d="M153.84 768.96a1.33 1.33 0 1 0 0-2.661 1.33 1.33 0 0 0 0 2.661z" clip-path="url(#pd948356820)" style="fill:#ff001e"/><path id="patch_217" d="M110.825 681.291a.665.665 0 1 0 0-1.33.665.665 0 0 0 0 1.33z" clip-path="url(#pd948356820)" style="fill:#ff0029"/><path id="patch_218" d="M200.376 768.96a1.33 1.33 0 1 0 0-2.661 1.33 1.33 0 0 0 0 2.661z" clip-path="url(#pd948356820)" style="fill:#ff001e"/><path id="patch_219" d="M111.49 594.394a1.33 1.33 0 1 0 0-2.661 1.33 1.33 0 0 0 0 2.661z" clip-path="url(#pd948356820)" style="fill:#ff001e"/><path id="patch_220" d="M331.123 768.96a.665.665 0 1 0 0-1.33.665.665 0 0 0 0 1.33z" clip-path="url(#pd948356820)" style="fill:#ff0029"/><path id="patch_221" d="M462.161 768.96a.665.665 0 1 0 0-1.33.665.665 0 0 0 0 1.33z" clip-path="url(#pd948356820)" style="fill:#ff0029"/><path id="patch_222" d="M110.825 236.238a.665.665 0 1 0 0-1.33.665.665 0 0 0 0 1.33z" clip-path="url(#pd948356820)" style="fill:#ff0029"/><path id="patch_223" d="M473.452 768.96a.665.665 0 1 0 0-1.33.665.665 0 0 0 0 1.33z" clip-path="url(#pd948356820)" style="fill:#ff0029"/><path id="patch_224" d="M408.933 768.96a.665.665 0 1 0 0-1.33.665.665 0 0 0 0 1.33z" clip-path="url(#pd948356820)" style="fill:#ff0029"/><path id="patch_225" d="M110.825 327.828a.665.665 0 1 0 0-1.33.665.665 0 0 0 0 1.33z" clip-path="url(#pd948356820)" style="fill:#ff0029"/><path id="patch_226" d="M485.922 768.96a.665.665 0 1 0 0-1.33.665.665 0 0 0 0 1.33z" clip-path="url(#pd948356820)" style="fill:#ff0029"/><path id="patch_227" d="M110.825 339.118a.665.665 0 1 0 0-1.33.665.665 0 0 0 0 1.33z" clip-path="url(#pd948356820)" style="fill:#ff0029"/><path id="patch_228" d="M640.158 768.96a.665.665 0 1 0 0-1.33.665.665 0 0 0 0 1.33z" clip-path="url(#pd948356820)" style="fill:#ff0029"/><path id="patch_229" d="M110.825 628.909a.665.665 0 1 0 0-1.33.665.665 0 0 0 0 1.33z" clip-path="url(#pd948356820)" style="fill:#ff0029"/><path id="patch_230" d="M110.825 550.583a.665.665 0 1 0 0-1.33.665.665 0 0 0 0 1.33z" clip-path="url(#pd948356820)" style="fill:#ff0029"/><path id="patch_231" d="M127.395 768.96a.665.665 0 1 0 0-1.33.665.665 0 0 0 0 1.33z" clip-path="url(#pd948356820)" style="fill:#ff0029"/><path id="patch_232" d="M110.825 416.82a.665.665 0 1 0 0-1.331.665.665 0 0 0 0 1.33z" clip-path="url(#pd948356820)" style="fill:#ff0029"/><path id="patch_233" d="M110.825 513.905a.665.665 0 1 0 0-1.33.665.665 0 0 0 0 1.33z" clip-path="url(#pd948356820)" style="fill:#ff0029"/><path id="patch_234" d="M501.371 768.96a.665.665 0 1 0 0-1.33.665.665 0 0 0 0 1.33z" clip-path="url(#pd948356820)" style="fill:#ff0029"/><path id="patch_235" d="M110.825 750.885a.665.665 0 1 0 0-1.33.665.665 0 0 0 0 1.33z" clip-path="url(#pd948356820)" style="fill:#ff0029"/><path id="patch_236" d="M110.825 455.442a.665.665 0 1 0 0-1.33.665.665 0 0 0 0 1.33z" clip-path="url(#pd948356820)" style="fill:#ff0029"/><path id="patch_237" d="M110.825 289.707a.665.665 0 1 0 0-1.33.665.665 0 0 0 0 1.33z" clip-path="url(#pd948356820)" style="fill:#ff0029"/><path id="patch_238" d="M110.825 644.23a.665.665 0 1 0 0-1.33.665.665 0 0 0 0 1.33z" clip-path="url(#pd948356820)" style="fill:#ff0029"/><path id="patch_239" d="M553.08 768.96a.665.665 0 1 0 0-1.33.665.665 0 0 0 0 1.33z" clip-path="url(#pd948356820)" style="fill:#ff0029"/><path id="patch_240" d="M110.825 497.466a.665.665 0 1 0 0-1.33.665.665 0 0 0 0 1.33z" clip-path="url(#pd948356820)" style="fill:#ff0029"/><path id="patch_241" d="M110.825 724.063a.665.665 0 1 0 0-1.33.665.665 0 0 0 0 1.33z" clip-path="url(#pd948356820)" style="fill:#ff0029"/><path id="patch_242" d="M110.825 463.59a.665.665 0 1 0 0-1.33.665.665 0 0 0 0 1.33z" clip-path="url(#pd948356820)" style="fill:#ff0029"/><path id="patch_243" d="M587.96 768.96a.665.665 0 1 0 0-1.33.665.665 0 0 0 0 1.33z" clip-path="url(#pd948356820)" style="fill:#ff0029"/><path id="patch_244" d="M287.938 768.96a.665.665 0 1 0 0-1.33.665.665 0 0 0 0 1.33z" clip-path="url(#pd948356820)" style="fill:#ff0029"/><path id="patch_245" d="M110.825 271.872a.665.665 0 1 0 0-1.33.665.665 0 0 0 0 1.33z" clip-path="url(#pd948356820)" style="fill:#ff0029"/><path id="patch_246" d="M110.825 162.216a.665.665 0 1 0 0-1.33.665.665 0 0 0 0 1.33z" clip-path="url(#pd948356820)" style="fill:#ff0029"/><path id="patch_247" d="M110.825 196.859a.665.665 0 1 0 0-1.33.665.665 0 0 0 0 1.33z" clip-path="url(#pd948356820)" style="fill:#ff0029"/><path id="patch_248" d="M110.825 388.018a.665.665 0 1 0 0-1.33.665.665 0 0 0 0 1.33z" clip-path="url(#pd948356820)" style="fill:#ff0029"/><path id="patch_249" d="M422.304 768.96a.665.665 0 1 0 0-1.33.665.665 0 0 0 0 1.33z" clip-path="url(#pd948356820)" style="fill:#ff0029"/><path id="patch_250" d="M679.713 768.96a.665.665 0 1 0 0-1.33.665.665 0 0 0 0 1.33z" clip-path="url(#pd948356820)" style="fill:#ff0029"/><path id="patch_251" d="M235.69 768.96a.665.665 0 1 0 0-1.33.665.665 0 0 0 0 1.33z" clip-path="url(#pd948356820)" style="fill:#ff0029"/><path id="patch_252" d="M110.825 407.183a.665.665 0 1 0 0-1.33.665.665 0 0 0 0 1.33z" clip-path="url(#pd948356820)" style="fill:#ff0029"/><path id="patch_253" d="M395.854 768.96a.665.665 0 1 0 0-1.33.665.665 0 0 0 0 1.33z" clip-path="url(#pd948356820)" style="fill:#ff0029"/><path id="patch_254" d="M110.825 111.904a.665.665 0 1 0 0-1.33.665.665 0 0 0 0 1.33z" clip-path="url(#pd948356820)" style="fill:#ff0029"/><path id="patch_255" d="M761.142 768.96a.665.665 0 1 0 0-1.33.665.665 0 0 0 0 1.33z" clip-path="url(#pd948356820)" style="fill:#ff0029"/><path id="patch_256" d="M764.905 768.96a.665.665 0 1 0 0-1.33.665.665 0 0 0 0 1.33z" clip-path="url(#pd948356820)" style="fill:#ff0029"/><path id="patch_257" d="M110.825 323.915a.665.665 0 1 0 0-1.33.665.665 0 0 0 0 1.33z" clip-path="url(#pd948356820)" style="fill:#ff0029"/><path id="patch_258" d="M458.209 768.96a.665.665 0 1 0 0-1.33.665.665 0 0 0 0 1.33z" clip-path="url(#pd948356820)" style="fill:#ff0029"/><path id="patch_259" d="M110.825 374.849a.665.665 0 1 0 0-1.33.665.665 0 0 0 0 1.33z" clip-path="url(#pd948356820)" style="fill:#ff0029"/><path id="patch_260" d="M399.618 768.96a.665.665 0 1 0 0-1.33.665.665 0 0 0 0 1.33z" clip-path="url(#pd948356820)" style="fill:#ff0029"/><path id="patch_261" d="M110.825 420.811a.665.665 0 1 0 0-1.33.665.665 0 0 0 0 1.33z" clip-path="url(#pd948356820)" style="fill:#ff0029"/><path id="patch_262" d="M326.68 768.96a.665.665 0 1 0 0-1.33.665.665 0 0 0 0 1.33z" clip-path="url(#pd948356820)" style="fill:#ff0029"/><path id="patch_263" d="M292.809 768.96a.665.665 0 1 0 0-1.33.665.665 0 0 0 0 1.33z" clip-path="url(#pd948356820)" style="fill:#ff0029"/><path id="patch_264" d="M110.825 686.162a.665.665 0 1 0 0-1.33.665.665 0 0 0 0 1.33z" clip-path="url(#pd948356820)" style="fill:#ff0029"/><path id="patch_265" d="M110.825 720.033a.665.665 0 1 0 0-1.331.665.665 0 0 0 0 1.33z" clip-path="url(#pd948356820)" style="fill:#ff0029"/><path id="patch_266" d="M155.99 768.96a.665.665 0 1 0 0-1.33.665.665 0 0 0 0 1.33z" clip-path="url(#pd948356820)" style="fill:#ff0029"/><path id="patch_267" d="M110.825 127.003a.665.665 0 1 0 0-1.33.665.665 0 0 0 0 1.33z" clip-path="url(#pd948356820)" style="fill:#ff0029"/><path id="patch_268" d="M159.753 768.96a.665.665 0 1 0 0-1.33.665.665 0 0 0 0 1.33z" clip-path="url(#pd948356820)" style="fill:#ff0029"/><path id="patch_269" d="M712.789 768.96a.665.665 0 1 0 0-1.33.665.665 0 0 0 0 1.33z" clip-path="url(#pd948356820)" style="fill:#ff0029"/><path id="patch_270" d="M193.623 768.96a.665.665 0 1 0 0-1.33.665.665 0 0 0 0 1.33z" clip-path="url(#pd948356820)" style="fill:#ff0029"/><path id="patch_271" d="M197.387 768.96a.665.665 0 1 0 0-1.33.665.665 0 0 0 0 1.33z" clip-path="url(#pd948356820)" style="fill:#ff0029"/><path id="patch_272" d="M595.405 768.96a.665.665 0 1 0 0-1.33.665.665 0 0 0 0 1.33z" clip-path="url(#pd948356820)" style="fill:#ff0029"/><path id="patch_273" d="M110.825 204.304a.665.665 0 1 0 0-1.33.665.665 0 0 0 0 1.33z" clip-path="url(#pd948356820)" style="fill:#ff0029"/><path id="patch_274" d="M110.825 606.048a.665.665 0 1 0 0-1.33.665.665 0 0 0 0 1.33z" clip-path="url(#pd948356820)" style="fill:#ff0029"/><path id="patch_275" d="M110.825 652.536a.665.665 0 1 0 0-1.33.665.665 0 0 0 0 1.33z" clip-path="url(#pd948356820)" style="fill:#ff0029"/><path id="patch_276" d="M529.52 768.96a.665.665 0 1 0 0-1.33.665.665 0 0 0 0 1.33z" clip-path="url(#pd948356820)" style="fill:#ff0029"/><path id="patch_277" d="M110.825 254.518a.665.665 0 1 0 0-1.33.665.665 0 0 0 0 1.33z" clip-path="url(#pd948356820)" style="fill:#ff0029"/><path id="patch_278" d="M110.825 534.2a.665.665 0 1 0 0-1.33.665.665 0 0 0 0 1.33z" clip-path="url(#pd948356820)" style="fill:#ff0029"/><path id="patch_279" d="M360 768.96a.665.665 0 1 0 0-1.33.665.665 0 0 0 0 1.33z" clip-path="url(#pd948356820)" style="fill:#ff0029"/><path id="patch_280" d="M110.825 673.846a.665.665 0 1 0 0-1.33.665.665 0 0 0 0 1.33z" clip-path="url(#pd948356820)" style="fill:#ff0029"/><path id="patch_281" d="M110.825 620.603a.665.665 0 1 0 0-1.331.665.665 0 0 0 0 1.33z" clip-path="url(#pd948356820)" style="fill:#ff0029"/><path id="patch_282" d="M110.825 397.774a.665.665 0 1 0 0-1.33.665.665 0 0 0 0 1.33z" clip-path="url(#pd948356820)" style="fill:#ff0029"/><path id="patch_283" d="M621.847 768.96a.665.665 0 1 0 0-1.33.665.665 0 0 0 0 1.33z" clip-path="url(#pd948356820)" style="fill:#ff0029"/><path id="patch_284" d="M110.825 586.977a.665.665 0 1 0 0-1.331.665.665 0 0 0 0 1.33z" clip-path="url(#pd948356820)" style="fill:#ff0029"/><path id="patch_285" d="M110.825 590.74a.665.665 0 1 0 0-1.33.665.665 0 0 0 0 1.33z" clip-path="url(#pd948356820)" style="fill:#ff0029"/><path id="patch_286" d="M646.81 768.96a.665.665 0 1 0 0-1.33.665.665 0 0 0 0 1.33z" clip-path="url(#pd948356820)" style="fill:#ff0029"/><path id="patch_287" d="M110.825 215.956a.665.665 0 1 0 0-1.33.665.665 0 0 0 0 1.33z" clip-path="url(#pd948356820)" style="fill:#ff0029"/><path id="patch_288" d="M110.825 227.173a.665.665 0 1 0 0-1.33.665.665 0 0 0 0 1.33z" clip-path="url(#pd948356820)" style="fill:#ff0029"/><path id="patch_289" d="M110.825 347.374a.665.665 0 1 0 0-1.33.665.665 0 0 0 0 1.33z" clip-path="url(#pd948356820)" style="fill:#ff0029"/><path id="patch_290" d="M110.825 351.138a.665.665 0 1 0 0-1.33.665.665 0 0 0 0 1.33z" clip-path="url(#pd948356820)" style="fill:#ff0029"/><path id="patch_291" d="M110.825 237.568a.665.665 0 1 0 0-1.33.665.665 0 0 0 0 1.33z" clip-path="url(#pd948356820)" style="fill:#ff0029"/><path id="patch_292" d="M474.782 768.96a.665.665 0 1 0 0-1.33.665.665 0 0 0 0 1.33z" clip-path="url(#pd948356820)" style="fill:#ff0029"/><path id="patch_293" d="M376.68 768.96a.665.665 0 1 0 0-1.33.665.665 0 0 0 0 1.33z" clip-path="url(#pd948356820)" style="fill:#ff0029"/><path id="patch_294" d="M487.253 768.96a.665.665 0 1 0 0-1.33.665.665 0 0 0 0 1.33z" clip-path="url(#pd948356820)" style="fill:#ff0029"/><path id="patch_295" d="M638.828 768.96a.665.665 0 1 0 0-1.33.665.665 0 0 0 0 1.33z" clip-path="url(#pd948356820)" style="fill:#ff0029"/><path id="patch_296" d="M640.823 767.808a.665.665 0 1 0 0-1.33.665.665 0 0 0 0 1.33z" clip-path="url(#pd948356820)" style="fill:#ff0029"/><path id="patch_297" d="M110.825 551.914a.665.665 0 1 0 0-1.33.665.665 0 0 0 0 1.33z" clip-path="url(#pd948356820)" style="fill:#ff0029"/><path id="patch_298" d="M110.825 512.574a.665.665 0 1 0 0-1.33.665.665 0 0 0 0 1.33z" clip-path="url(#pd948356820)" style="fill:#ff0029"/><path id="patch_299" d="M500.04 768.96a.665.665 0 1 0 0-1.33.665.665 0 0 0 0 1.33z" clip-path="url(#pd948356820)" style="fill:#ff0029"/><path id="patch_300" d="M111.978 750.22a.665.665 0 1 0 0-1.331.665.665 0 0 0 0 1.33z" clip-path="url(#pd948356820)" style="fill:#ff0029"/><path id="patch_301" d="M110.825 752.215a.665.665 0 1 0 0-1.33.665.665 0 0 0 0 1.33z" clip-path="url(#pd948356820)" style="fill:#ff0029"/><path id="patch_302" d="M746.606 768.96a.665.665 0 1 0 0-1.33.665.665 0 0 0 0 1.33z" clip-path="url(#pd948356820)" style="fill:#ff0029"/><path id="patch_303" d="M110.825 454.111a.665.665 0 1 0 0-1.33.665.665 0 0 0 0 1.33z" clip-path="url(#pd948356820)" style="fill:#ff0029"/><path id="patch_304" d="M110.825 291.038a.665.665 0 1 0 0-1.33.665.665 0 0 0 0 1.33z" clip-path="url(#pd948356820)" style="fill:#ff0029"/><path id="patch_305" d="M554.411 768.96a.665.665 0 1 0 0-1.33.665.665 0 0 0 0 1.33z" clip-path="url(#pd948356820)" style="fill:#ff0029"/><path id="patch_306" d="M586.63 768.96a.665.665 0 1 0 0-1.33.665.665 0 0 0 0 1.33z" clip-path="url(#pd948356820)" style="fill:#ff0029"/><path id="patch_307" d="M110.825 270.542a.665.665 0 1 0 0-1.33.665.665 0 0 0 0 1.33z" clip-path="url(#pd948356820)" style="fill:#ff0029"/><path id="patch_308" d="M110.825 163.546a.665.665 0 1 0 0-1.33.665.665 0 0 0 0 1.33z" clip-path="url(#pd948356820)" style="fill:#ff0029"/><path id="patch_309" d="M110.825 195.528a.665.665 0 1 0 0-1.33.665.665 0 0 0 0 1.33z" clip-path="url(#pd948356820)" style="fill:#ff0029"/><path id="patch_310" d="M423.634 768.96a.665.665 0 1 0 0-1.33.665.665 0 0 0 0 1.33z" clip-path="url(#pd948356820)" style="fill:#ff0029"/><path id="patch_311" d="M681.044 768.96a.665.665 0 1 0 0-1.33.665.665 0 0 0 0 1.33z" clip-path="url(#pd948356820)" style="fill:#ff0029"/><path id="patch_312" d="M111.978 407.848a.665.665 0 1 0 0-1.33.665.665 0 0 0 0 1.33z" clip-path="url(#pd948356820)" style="fill:#ff0029"/><path id="patch_313" d="M111.978 111.239a.665.665 0 1 0 0-1.33.665.665 0 0 0 0 1.33z" clip-path="url(#pd948356820)" style="fill:#ff0029"/><path id="patch_314" d="M741.997 768.96a.665.665 0 1 0 0-1.33.665.665 0 0 0 0 1.33z" clip-path="url(#pd948356820)" style="fill:#ff0029"/><path id="patch_315" d="M110.825 113.235a.665.665 0 1 0 0-1.33.665.665 0 0 0 0 1.33z" clip-path="url(#pd948356820)" style="fill:#ff0029"/><path id="patch_316" d="M766.236 768.96a.665.665 0 1 0 0-1.33.665.665 0 0 0 0 1.33z" clip-path="url(#pd948356820)" style="fill:#ff0029"/><path id="patch_317" d="M110.825 322.584a.665.665 0 1 0 0-1.33.665.665 0 0 0 0 1.33z" clip-path="url(#pd948356820)" style="fill:#ff0029"/><path id="patch_318" d="M456.878 768.96a.665.665 0 1 0 0-1.33.665.665 0 0 0 0 1.33z" clip-path="url(#pd948356820)" style="fill:#ff0029"/><path id="patch_319" d="M110.825 422.142a.665.665 0 1 0 0-1.33.665.665 0 0 0 0 1.33z" clip-path="url(#pd948356820)" style="fill:#ff0029"/><path id="patch_320" d="M325.349 768.96a.665.665 0 1 0 0-1.33.665.665 0 0 0 0 1.33z" clip-path="url(#pd948356820)" style="fill:#ff0029"/><path id="patch_321" d="M294.14 768.96a.665.665 0 1 0 0-1.33.665.665 0 0 0 0 1.33z" clip-path="url(#pd948356820)" style="fill:#ff0029"/><path id="patch_322" d="M110.825 687.493a.665.665 0 1 0 0-1.331.665.665 0 0 0 0 1.33z" clip-path="url(#pd948356820)" style="fill:#ff0029"/><path id="patch_323" d="M110.825 718.702a.665.665 0 1 0 0-1.33.665.665 0 0 0 0 1.33z" clip-path="url(#pd948356820)" style="fill:#ff0029"/><path id="patch_324" d="M161.083 768.96a.665.665 0 1 0 0-1.33.665.665 0 0 0 0 1.33z" clip-path="url(#pd948356820)" style="fill:#ff0029"/><path id="patch_325" d="M711.458 768.96a.665.665 0 1 0 0-1.33.665.665 0 0 0 0 1.33z" clip-path="url(#pd948356820)" style="fill:#ff0029"/><path id="patch_326" d="M192.293 768.96a.665.665 0 1 0 0-1.33.665.665 0 0 0 0 1.33z" clip-path="url(#pd948356820)" style="fill:#ff0029"/><path id="patch_327" d="M110.825 653.867a.665.665 0 1 0 0-1.331.665.665 0 0 0 0 1.33z" clip-path="url(#pd948356820)" style="fill:#ff0029"/><path id="patch_328" d="M110.825 253.188a.665.665 0 1 0 0-1.33.665.665 0 0 0 0 1.33z" clip-path="url(#pd948356820)" style="fill:#ff0029"/><path id="patch_329" d="M110.825 532.87a.665.665 0 1 0 0-1.331.665.665 0 0 0 0 1.33z" clip-path="url(#pd948356820)" style="fill:#ff0029"/><path id="patch_330" d="M110.825 619.272a.665.665 0 1 0 0-1.33.665.665 0 0 0 0 1.33z" clip-path="url(#pd948356820)" style="fill:#ff0029"/><path id="patch_331" d="M623.178 768.96a.665.665 0 1 0 0-1.33.665.665 0 0 0 0 1.33z" clip-path="url(#pd948356820)" style="fill:#ff0029"/><path id="patch_332" d="M110.825 585.646a.665.665 0 1 0 0-1.33.665.665 0 0 0 0 1.33z" clip-path="url(#pd948356820)" style="fill:#ff0029"/><path id="patch_333" d="M648.142 768.96a.665.665 0 1 0 0-1.33.665.665 0 0 0 0 1.33z" clip-path="url(#pd948356820)" style="fill:#ff0029"/><path id="patch_334" d="M375.35 768.96a.665.665 0 1 0 0-1.33.665.665 0 0 0 0 1.33z" clip-path="url(#pd948356820)" style="fill:#ff0029"/><path id="patch_335" d="M486.588 767.808a.665.665 0 1 0 0-1.33.665.665 0 0 0 0 1.33z" clip-path="url(#pd948356820)" style="fill:#ff0029"/><path id="patch_336" d="M488.583 768.96a.665.665 0 1 0 0-1.33.665.665 0 0 0 0 1.33z" clip-path="url(#pd948356820)" style="fill:#ff0029"/><path id="patch_337" d="M111.978 551.248a.665.665 0 1 0 0-1.33.665.665 0 0 0 0 1.33z" clip-path="url(#pd948356820)" style="fill:#ff0029"/><path id="patch_338" d="M110.825 225.843a.665.665 0 1 0 0-1.33.665.665 0 0 0 0 1.33z" clip-path="url(#pd948356820)" style="fill:#ff0029"/><path id="patch_339" d="M110.825 553.244a.665.665 0 1 0 0-1.33.665.665 0 0 0 0 1.33z" clip-path="url(#pd948356820)" style="fill:#ff0029"/><path id="patch_340" d="M747.937 768.96a.665.665 0 1 0 0-1.33.665.665 0 0 0 0 1.33z" clip-path="url(#pd948356820)" style="fill:#ff0029"/><path id="patch_341" d="M361.331 768.96a.665.665 0 1 0 0-1.33.665.665 0 0 0 0 1.33z" clip-path="url(#pd948356820)" style="fill:#ff0029"/><path id="patch_342" d="M110.825 452.78a.665.665 0 1 0 0-1.33.665.665 0 0 0 0 1.33z" clip-path="url(#pd948356820)" style="fill:#ff0029"/><path id="patch_343" d="M110.825 292.368a.665.665 0 1 0 0-1.33.665.665 0 0 0 0 1.33z" clip-path="url(#pd948356820)" style="fill:#ff0029"/><path id="patch_344" d="M555.742 768.96a.665.665 0 1 0 0-1.33.665.665 0 0 0 0 1.33z" clip-path="url(#pd948356820)" style="fill:#ff0029"/><path id="patch_345" d="M585.299 768.96a.665.665 0 1 0 0-1.33.665.665 0 0 0 0 1.33z" clip-path="url(#pd948356820)" style="fill:#ff0029"/><path id="patch_346" d="M110.825 164.877a.665.665 0 1 0 0-1.33.665.665 0 0 0 0 1.33z" clip-path="url(#pd948356820)" style="fill:#ff0029"/><path id="patch_347" d="M110.825 194.198a.665.665 0 1 0 0-1.33.665.665 0 0 0 0 1.33z" clip-path="url(#pd948356820)" style="fill:#ff0029"/><path id="patch_348" d="M422.969 767.808a.665.665 0 1 0 0-1.33.665.665 0 0 0 0 1.33z" clip-path="url(#pd948356820)" style="fill:#ff0029"/><path id="patch_349" d="M424.965 768.96a.665.665 0 1 0 0-1.33.665.665 0 0 0 0 1.33z" clip-path="url(#pd948356820)" style="fill:#ff0029"/><path id="patch_350" d="M682.374 768.96a.665.665 0 1 0 0-1.33.665.665 0 0 0 0 1.33z" clip-path="url(#pd948356820)" style="fill:#ff0029"/><path id="patch_351" d="M765.57 767.808a.665.665 0 1 0 0-1.33.665.665 0 0 0 0 1.33z" clip-path="url(#pd948356820)" style="fill:#ff0029"/><path id="patch_352" d="M250.743 768.96a.665.665 0 1 0 0-1.33.665.665 0 0 0 0 1.33z" clip-path="url(#pd948356820)" style="fill:#ff0029"/><path id="patch_353" d="M110.825 321.254a.665.665 0 1 0 0-1.33.665.665 0 0 0 0 1.33z" clip-path="url(#pd948356820)" style="fill:#ff0029"/><path id="patch_354" d="M110.825 105.251a.665.665 0 1 0 0-1.33.665.665 0 0 0 0 1.33z" clip-path="url(#pd948356820)" style="fill:#ff0029"/><path id="patch_355" d="M455.548 768.96a.665.665 0 1 0 0-1.33.665.665 0 0 0 0 1.33z" clip-path="url(#pd948356820)" style="fill:#ff0029"/><path id="patch_356" d="M110.825 423.472a.665.665 0 1 0 0-1.33.665.665 0 0 0 0 1.33z" clip-path="url(#pd948356820)" style="fill:#ff0029"/><path id="patch_357" d="M324.018 768.96a.665.665 0 1 0 0-1.33.665.665 0 0 0 0 1.33z" clip-path="url(#pd948356820)" style="fill:#ff0029"/><path id="patch_358" d="M721.565 768.96a.665.665 0 1 0 0-1.33.665.665 0 0 0 0 1.33z" clip-path="url(#pd948356820)" style="fill:#ff0029"/><path id="patch_359" d="M295.47 768.96a.665.665 0 1 0 0-1.33.665.665 0 0 0 0 1.33z" clip-path="url(#pd948356820)" style="fill:#ff0029"/><path id="patch_360" d="M622.513 767.808a.665.665 0 1 0 0-1.33.665.665 0 0 0 0 1.33z" clip-path="url(#pd948356820)" style="fill:#ff0029"/><path id="patch_361" d="M111.978 533.534a.665.665 0 1 0 0-1.33.665.665 0 0 0 0 1.33z" clip-path="url(#pd948356820)" style="fill:#ff0029"/><path id="patch_362" d="M624.509 768.96a.665.665 0 1 0 0-1.33.665.665 0 0 0 0 1.33z" clip-path="url(#pd948356820)" style="fill:#ff0029"/><path id="patch_363" d="M110.825 251.857a.665.665 0 1 0 0-1.33.665.665 0 0 0 0 1.33z" clip-path="url(#pd948356820)" style="fill:#ff0029"/><path id="patch_364" d="M110.825 584.315a.665.665 0 1 0 0-1.33.665.665 0 0 0 0 1.33z" clip-path="url(#pd948356820)" style="fill:#ff0029"/><path id="patch_365" d="M111.978 253.853a.665.665 0 1 0 0-1.33.665.665 0 0 0 0 1.33z" clip-path="url(#pd948356820)" style="fill:#ff0029"/><path id="patch_366" d="M190.962 768.96a.665.665 0 1 0 0-1.33.665.665 0 0 0 0 1.33z" clip-path="url(#pd948356820)" style="fill:#ff0029"/><path id="patch_367" d="M647.476 767.808a.665.665 0 1 0 0-1.33.665.665 0 0 0 0 1.33z" clip-path="url(#pd948356820)" style="fill:#ff0029"/><path id="patch_368" d="M710.128 768.96a.665.665 0 1 0 0-1.33.665.665 0 0 0 0 1.33z" clip-path="url(#pd948356820)" style="fill:#ff0029"/><path id="patch_369" d="M649.472 768.96a.665.665 0 1 0 0-1.33.665.665 0 0 0 0 1.33z" clip-path="url(#pd948356820)" style="fill:#ff0029"/><path id="patch_370" d="M162.414 768.96a.665.665 0 1 0 0-1.33.665.665 0 0 0 0 1.33z" clip-path="url(#pd948356820)" style="fill:#ff0029"/><path id="patch_371" d="M376.015 767.808a.665.665 0 1 0 0-1.33.665.665 0 0 0 0 1.33z" clip-path="url(#pd948356820)" style="fill:#ff0029"/><path id="patch_372" d="M110.825 717.371a.665.665 0 1 0 0-1.33.665.665 0 0 0 0 1.33z" clip-path="url(#pd948356820)" style="fill:#ff0029"/><path id="patch_373" d="M110.825 688.823a.665.665 0 1 0 0-1.33.665.665 0 0 0 0 1.33z" clip-path="url(#pd948356820)" style="fill:#ff0029"/><path id="patch_374" d="M374.02 768.96a.665.665 0 1 0 0-1.33.665.665 0 0 0 0 1.33z" clip-path="url(#pd948356820)" style="fill:#ff0029"/><path id="patch_375" d="M259.45 768.96a.665.665 0 1 0 0-1.33.665.665 0 0 0 0 1.33z" clip-path="url(#pd948356820)" style="fill:#ff0029"/><path id="patch_376" d="M110.825 554.575a.665.665 0 1 0 0-1.33.665.665 0 0 0 0 1.33z" clip-path="url(#pd948356820)" style="fill:#ff0029"/><path id="patch_377" d="M110.825 451.45a.665.665 0 1 0 0-1.33.665.665 0 0 0 0 1.33z" clip-path="url(#pd948356820)" style="fill:#ff0029"/><path id="patch_378" d="M110.825 293.7a.665.665 0 1 0 0-1.332.665.665 0 0 0 0 1.331z" clip-path="url(#pd948356820)" style="fill:#ff0029"/><path id="patch_379" d="M146.258 768.96a.665.665 0 1 0 0-1.33.665.665 0 0 0 0 1.33z" clip-path="url(#pd948356820)" style="fill:#ff0029"/><path id="patch_380" d="M557.072 768.96a.665.665 0 1 0 0-1.33.665.665 0 0 0 0 1.33z" clip-path="url(#pd948356820)" style="fill:#ff0029"/><path id="patch_381" d="M344.392 768.96a.665.665 0 1 0 0-1.33.665.665 0 0 0 0 1.33z" clip-path="url(#pd948356820)" style="fill:#ff0029"/><path id="patch_382" d="M110.825 523.758a.665.665 0 1 0 0-1.33.665.665 0 0 0 0 1.33z" clip-path="url(#pd948356820)" style="fill:#ff0029"/><path id="patch_383" d="M110.825 136.64a.665.665 0 1 0 0-1.331.665.665 0 0 0 0 1.33z" clip-path="url(#pd948356820)" style="fill:#ff0029"/><path id="patch_384" d="M261.201 768.96a.665.665 0 1 0 0-1.33.665.665 0 0 0 0 1.33z" clip-path="url(#pd948356820)" style="fill:#ff0029"/><path id="patch_385" d="M773.872 768.96a.665.665 0 1 0 0-1.33.665.665 0 0 0 0 1.33z" clip-path="url(#pd948356820)" style="fill:#ff0029"/><path id="patch_386" d="M110.825 664.014a.665.665 0 1 0 0-1.33.665.665 0 0 0 0 1.33z" clip-path="url(#pd948356820)" style="fill:#ff0029"/><path id="patch_387" d="M110.825 765.155a.665.665 0 1 0 0-1.33.665.665 0 0 0 0 1.33z" clip-path="url(#pd948356820)" style="fill:#ff0029"/><path id="patch_388" d="M110.825 522.211a.665.665 0 1 0 0-1.33.665.665 0 0 0 0 1.33z" clip-path="url(#pd948356820)" style="fill:#ff0029"/><path id="patch_389" d="M346.35 768.96a.665.665 0 1 0 0-1.33.665.665 0 0 0 0 1.33z" clip-path="url(#pd948356820)" style="fill:#ff0029"/><path id="patch_390" d="M110.825 361.275a.665.665 0 1 0 0-1.33.665.665 0 0 0 0 1.33z" clip-path="url(#pd948356820)" style="fill:#ff0029"/><path id="patch_391" d="M110.825 364.454a.665.665 0 1 0 0-1.33.665.665 0 0 0 0 1.33z" clip-path="url(#pd948356820)" style="fill:#ff0029"/><path id="patch_392" d="M110.825 135.309a.665.665 0 1 0 0-1.33.665.665 0 0 0 0 1.33z" clip-path="url(#pd948356820)" style="fill:#ff0029"/><path id="patch_393" d="M110.825 763.444a.665.665 0 1 0 0-1.33.665.665 0 0 0 0 1.33z" clip-path="url(#pd948356820)" style="fill:#ff0029"/><path id="patch_394" d="M684.016 768.96a.665.665 0 1 0 0-1.33.665.665 0 0 0 0 1.33z" clip-path="url(#pd948356820)" style="fill:#ff0029"/><path id="patch_395" d="M167.256 636.57a.665.665 0 1 0 0-1.331.665.665 0 0 0 0 1.33z" clip-path="url(#pd948356820)" style="fill:#ff0029"/><path id="patch_396" d="M186.12 636.57a.665.665 0 1 0 0-1.331.665.665 0 0 0 0 1.33z" clip-path="url(#pd948356820)" style="fill:#ff0029"/><path id="patch_397" d="M110.825 556.736a.665.665 0 1 0 0-1.33.665.665 0 0 0 0 1.33z" clip-path="url(#pd948356820)" style="fill:#ff0029"/><path id="patch_398" d="M243.216 712.53a.665.665 0 1 0 0-1.331.665.665 0 0 0 0 1.33z" clip-path="url(#pd948356820)" style="fill:#ff0029"/><path id="patch_399" d="M243.216 693.665a.665.665 0 1 0 0-1.33.665.665 0 0 0 0 1.33z" clip-path="url(#pd948356820)" style="fill:#ff0029"/><path id="patch_400" d="M428.29 768.96a.665.665 0 1 0 0-1.33.665.665 0 0 0 0 1.33z" clip-path="url(#pd948356820)" style="fill:#ff0029"/><path id="patch_401" d="M583.557 768.96a.665.665 0 1 0 0-1.33.665.665 0 0 0 0 1.33z" clip-path="url(#pd948356820)" style="fill:#ff0029"/><path id="patch_402" d="M110.825 166.569a.665.665 0 1 0 0-1.331.665.665 0 0 0 0 1.33z" clip-path="url(#pd948356820)" style="fill:#ff0029"/><path id="patch_403" d="M110.825 192.506a.665.665 0 1 0 0-1.33.665.665 0 0 0 0 1.33z" clip-path="url(#pd948356820)" style="fill:#ff0029"/><path id="patch_404" d="M426.295 768.96a.665.665 0 1 0 0-1.33.665.665 0 0 0 0 1.33z" clip-path="url(#pd948356820)" style="fill:#ff0029"/><path id="patch_405" d="M110.825 362.606a.665.665 0 1 0 0-1.33.665.665 0 0 0 0 1.33z" clip-path="url(#pd948356820)" style="fill:#ff0029"/><g id="matplotlib.axis_1"><g id="xtick_1"><g id="line2d_1"><defs><path id="m76143b963b" d="M0 0v3.5" style="stroke:#000;stroke-width:.8"/></defs><use xlink:href="#m76143b963b" x="110.16" y="768.96" style="stroke:#000;stroke-width:.8"/></g><g id="text_1" transform="matrix(.1 0 0 -.1 106.979 783.558)"><defs><path id="DejaVuSans-30" d="M2034 4250q-487 0-733-480-245-479-245-1442 0-959 245-1439 246-480 733-480 491 0 736 480 246 480 246 1439 0 963-246 1442-245 480-736 480zm0 500q785 0 1199-621 414-620 414-1801 0-1178-414-1799Q2819-91 2034-91q-784 0-1198 620-414 621-414 1799 0 1181 414 1801 414 621 1198 621z" transform="scale(.01563)"/></defs><use xlink:href="#DejaVuSans-30"/></g></g><g id="xtick_2"><use xlink:href="#m76143b963b" id="line2d_2" x="243.216" y="768.96" style="stroke:#000;stroke-width:.8"/><g id="text_2" transform="matrix(.1 0 0 -.1 233.672 783.558)"><defs><path id="DejaVuSans-32" d="M1228 531h2203V0H469v531q359 372 979 998 621 627 780 809 303 340 423 576 121 236 121 464 0 372-261 606-261 235-680 235-297 0-627-103-329-103-704-313v638q381 153 712 231 332 78 607 78 725 0 1156-363 431-362 431-968 0-288-108-546-107-257-392-607-78-91-497-524-418-433-1181-1211z" transform="scale(.01563)"/></defs><use xlink:href="#DejaVuSans-32"/><use xlink:href="#DejaVuSans-30" x="63.623"/><use xlink:href="#DejaVuSans-30" x="127.246"/></g></g><g id="xtick_3"><use xlink:href="#m76143b963b" id="line2d_3" x="376.272" y="768.96" style="stroke:#000;stroke-width:.8"/><g id="text_3" transform="matrix(.1 0 0 -.1 366.728 783.558)"><defs><path id="DejaVuSans-34" d="M2419 4116 825 1625h1594v2491zm-166 550h794V1625h666v-525h-666V0h-628v1100H313v609l1940 2957z" transform="scale(.01563)"/></defs><use xlink:href="#DejaVuSans-34"/><use xlink:href="#DejaVuSans-30" x="63.623"/><use xlink:href="#DejaVuSans-30" x="127.246"/></g></g><g id="xtick_4"><use xlink:href="#m76143b963b" id="line2d_4" x="509.328" y="768.96" style="stroke:#000;stroke-width:.8"/><g id="text_4" transform="matrix(.1 0 0 -.1 499.784 783.558)"><defs><path id="DejaVuSans-36" d="M2113 2584q-425 0-674-291-248-290-248-796 0-503 248-796 249-292 674-292t673 292q248 293 248 796 0 506-248 796-248 291-673 291zm1253 1979v-575q-238 112-480 171-242 60-480 60-625 0-955-422-329-422-376-1275 184 272 462 417 279 145 613 145 703 0 1111-427 408-426 408-1160 0-719-425-1154Q2819-91 2113-91q-810 0-1238 620-428 621-428 1799 0 1106 525 1764t1409 658q238 0 480-47t505-140z" transform="scale(.01563)"/></defs><use xlink:href="#DejaVuSans-36"/><use xlink:href="#DejaVuSans-30" x="63.623"/><use xlink:href="#DejaVuSans-30" x="127.246"/></g></g><g id="xtick_5"><use xlink:href="#m76143b963b" id="line2d_5" x="642.384" y="768.96" style="stroke:#000;stroke-width:.8"/><g id="text_5" transform="matrix(.1 0 0 -.1 632.84 783.558)"><defs><path id="DejaVuSans-38" d="M2034 2216q-450 0-708-241-257-241-257-662 0-422 257-663 258-241 708-241t709 242q260 243 260 662 0 421-258 662-257 241-711 241zm-631 268q-406 100-633 378-226 279-226 679 0 559 398 884 399 325 1092 325 697 0 1094-325t397-884q0-400-227-679-226-278-629-378 456-106 710-416 255-309 255-755 0-679-414-1042Q2806-91 2034-91q-771 0-1186 362-414 363-414 1042 0 446 256 755 257 310 713 416zm-231 997q0-362 226-565 227-203 636-203 407 0 636 203 230 203 230 565 0 363-230 566-229 203-636 203-409 0-636-203-226-203-226-566z" transform="scale(.01563)"/></defs><use xlink:href="#DejaVuSans-38"/><use xlink:href="#DejaVuSans-30" x="63.623"/><use xlink:href="#DejaVuSans-30" x="127.246"/></g></g><g id="xtick_6"><use xlink:href="#m76143b963b" id="line2d_6" x="775.44" y="768.96" style="stroke:#000;stroke-width:.8"/><g id="text_6" transform="matrix(.1 0 0 -.1 762.715 783.558)"><defs><path id="DejaVuSans-31" d="M794 531h1031v3560L703 3866v575l1116 225h631V531h1031V0H794v531z" transform="scale(.01563)"/></defs><use xlink:href="#DejaVuSans-31"/><use xlink:href="#DejaVuSans-30" x="63.623"/><use xlink:href="#DejaVuSans-30" x="127.246"/><use xlink:href="#DejaVuSans-30" x="190.869"/></g></g></g><g id="matplotlib.axis_2"><g id="ytick_1"><g id="line2d_7"><defs><path id="m4b65dffc68" d="M0 0h-3.5" style="stroke:#000;stroke-width:.8"/></defs><use xlink:href="#m4b65dffc68" x="110.16" y="768.96" style="stroke:#000;stroke-width:.8"/></g><use xlink:href="#DejaVuSans-30" id="text_7" transform="matrix(.1 0 0 -.1 96.797 772.76)"/></g><g id="ytick_2"><use xlink:href="#m4b65dffc68" id="line2d_8" x="110.16" y="635.904" style="stroke:#000;stroke-width:.8"/><g id="text_8" transform="matrix(.1 0 0 -.1 84.073 639.703)"><use xlink:href="#DejaVuSans-32"/><use xlink:href="#DejaVuSans-30" x="63.623"/><use xlink:href="#DejaVuSans-30" x="127.246"/></g></g><g id="ytick_3"><use xlink:href="#m4b65dffc68" id="line2d_9" x="110.16" y="502.848" style="stroke:#000;stroke-width:.8"/><g id="text_9" transform="matrix(.1 0 0 -.1 84.073 506.647)"><use xlink:href="#DejaVuSans-34"/><use xlink:href="#DejaVuSans-30" x="63.623"/><use xlink:href="#DejaVuSans-30" x="127.246"/></g></g><g id="ytick_4"><use xlink:href="#m4b65dffc68" id="line2d_10" x="110.16" y="369.792" style="stroke:#000;stroke-width:.8"/><g id="text_10" transform="matrix(.1 0 0 -.1 84.073 373.591)"><use xlink:href="#DejaVuSans-36"/><use xlink:href="#DejaVuSans-30" x="63.623"/><use xlink:href="#DejaVuSans-30" x="127.246"/></g></g><g id="ytick_5"><use xlink:href="#m4b65dffc68" id="line2d_11" x="110.16" y="236.736" style="stroke:#000;stroke-width:.8"/><g id="text_11" transform="matrix(.1 0 0 -.1 84.073 240.535)"><use xlink:href="#DejaVuSans-38"/><use xlink:href="#DejaVuSans-30" x="63.623"/><use xlink:href="#DejaVuSans-30" x="127.246"/></g></g><g id="ytick_6"><use xlink:href="#m4b65dffc68" id="line2d_12" x="110.16" y="103.68" style="stroke:#000;stroke-width:.8"/><g id="text_12" transform="matrix(.1 0 0 -.1 77.71 107.48)"><use xlink:href="#DejaVuSans-31"/><use xlink:href="#DejaVuSans-30" x="63.623"/><use xlink:href="#DejaVuSans-30" x="127.246"/><use xlink:href="#DejaVuSans-30" x="190.869"/></g></g></g><path id="patch_406" d="M110.16 768.96V103.68" style="fill:none;stroke:#000;stroke-width:.8;stroke-linejoin:miter;stroke-linecap:square"/><path id="patch_407" d="M775.44 768.96V103.68" style="fill:none;stroke:#000;stroke-width:.8;stroke-linejoin:miter;stroke-linecap:square"/><path id="patch_408" d="M110.16 768.96h665.28" style="fill:none;stroke:#000;stroke-width:.8;stroke-linejoin:miter;stroke-linecap:square"/><path id="patch_409" d="M110.16 103.68h665.28" style="fill:none;stroke:#000;stroke-width:.8;stroke-linejoin:miter;stroke-linecap:square"/><g id="text_13" transform="matrix(.12 0 0 -.12 223.852 97.68)"><defs><path id="DejaVuSans-4c" d="M628 4666h631V531h2272V0H628v4666z" transform="scale(.01563)"/><path id="DejaVuSans-69" d="M603 3500h575V0H603v3500zm0 1363h575v-729H603v729z" transform="scale(.01563)"/><path id="DejaVuSans-6e" d="M3513 2113V0h-575v2094q0 497-194 743-194 247-581 247-466 0-735-297-269-296-269-809V0H581v3500h578v-544q207 316 486 472 280 156 646 156 603 0 912-373 310-373 310-1098z" transform="scale(.01563)"/><path id="DejaVuSans-65" d="M3597 1894v-281H953q38-594 358-905t892-311q331 0 642 81t618 244V178Q3153 47 2828-22t-659-69q-838 0-1327 487-489 488-489 1320 0 859 464 1363 464 505 1252 505 706 0 1117-455 411-454 411-1235zm-575 169q-6 471-264 752-258 282-683 282-481 0-770-272t-333-766l2050 4z" transform="scale(.01563)"/><path id="DejaVuSans-61" d="M2194 1759q-697 0-966-159t-269-544q0-306 202-486 202-179 548-179 479 0 768 339t289 901v128h-572zm1147 238V0h-575v531q-197-318-491-470T1556-91q-537 0-855 302-317 302-317 808 0 590 395 890 396 300 1180 300h807v57q0 397-261 614t-733 217q-300 0-585-72-284-72-546-216v532q315 122 612 182 297 61 578 61 760 0 1135-394 375-393 375-1193z" transform="scale(.01563)"/><path id="DejaVuSans-72" d="M2631 2963q-97 56-211 82-114 27-251 27-488 0-749-317t-261-911V0H581v3500h578v-544q182 319 472 473 291 155 707 155 59 0 131-8 72-7 159-23l3-590z" transform="scale(.01563)"/><path id="DejaVuSans-52" d="M2841 2188q203-69 395-294t386-619L4263 0h-679l-596 1197q-232 469-449 622t-592 153h-688V0H628v4666h1425q800 0 1194-335 394-334 394-1009 0-441-205-732-205-290-595-402zM1259 4147V2491h794q456 0 689 211t233 620q0 409-233 617t-689 208h-794z" transform="scale(.01563)"/><path id="DejaVuSans-64" d="M2906 2969v1894h575V0h-575v525q-181-312-458-464-276-152-664-152-634 0-1033 506-398 507-398 1332t398 1331q399 506 1033 506 388 0 664-152 277-151 458-463zM947 1747q0-634 261-995t717-361q456 0 718 361 263 361 263 995t-263 995q-262 361-718 361t-717-361q-261-361-261-995z" transform="scale(.01563)"/><path id="DejaVuSans-75" d="M544 1381v2119h575V1403q0-497 193-746 194-248 582-248 465 0 735 297 271 297 271 810v1984h575V0h-575v538q-209-319-486-474-276-155-642-155-603 0-916 375-312 375-312 1097zm1447 2203z" transform="scale(.01563)"/><path id="DejaVuSans-73" d="M2834 3397v-544q-243 125-506 187-262 63-544 63-428 0-642-131t-214-394q0-200 153-314t616-217l197-44q612-131 870-370t258-667q0-488-386-773Q2250-91 1575-91q-281 0-586 55T347 128v594q319-166 628-249 309-82 613-82 406 0 624 139 219 139 219 392 0 234-158 359-157 125-692 241l-200 47q-534 112-772 345-237 233-237 639 0 494 350 762 350 269 994 269 318 0 599-47 282-46 519-140z" transform="scale(.01563)"/><path id="DejaVuSans-56" d="M1831 0 50 4666h659L2188 738l1481 3928h656L2547 0h-716z" transform="scale(.01563)"/><path id="DejaVuSans-74" d="M1172 4494v-994h1184v-447H1172V1153q0-428 117-550t477-122h590V0h-590q-666 0-919 248-253 249-253 905v1900H172v447h422v994h578z" transform="scale(.01563)"/><path id="DejaVuSans-6f" d="M1959 3097q-462 0-731-361t-269-989q0-628 267-989 268-361 733-361 460 0 728 362 269 363 269 988 0 622-269 986-268 364-728 364zm0 487q750 0 1178-488 429-487 429-1349 0-859-429-1349Q2709-91 1959-91q-753 0-1180 489-426 490-426 1349 0 862 426 1349 427 488 1180 488z" transform="scale(.01563)"/><path id="DejaVuSans-46" d="M628 4666h2681v-532H1259V2759h1850v-531H1259V0H628v4666z" transform="scale(.01563)"/><path id="DejaVuSans-2c" d="M750 794h659V256L897-744H494L750 256v538z" transform="scale(.01563)"/><path id="DejaVuSans-62" d="M3116 1747q0 634-261 995t-717 361q-457 0-718-361t-261-995q0-634 261-995t718-361q456 0 717 361t261 995zM1159 2969q182 312 458 463 277 152 661 152 638 0 1036-506 399-506 399-1331T3314 415Q2916-91 2278-91q-384 0-661 152-276 152-458 464V0H581v4863h578V2969z" transform="scale(.01563)"/><path id="DejaVuSans-3d" d="M678 2906h4006v-525H678v525zm0-1275h4006v-531H678v531z" transform="scale(.01563)"/><path id="DejaVuSans-2e" d="M684 794h660V0H684v794z" transform="scale(.01563)"/><path id="DejaVuSans-35" d="M691 4666h2478v-532H1269V2991q137 47 274 70 138 23 276 23 781 0 1237-428 457-428 457-1159 0-753-469-1171Q2575-91 1722-91q-294 0-599 50Q819 9 494 109v635q281-153 581-228t634-75q541 0 856 284 316 284 316 772 0 487-316 771-315 285-856 285-253 0-505-56-251-56-513-175v2344z" transform="scale(.01563)"/><path id="DejaVuSans-37" d="M525 4666h3000v-269L1831 0h-659l1594 4134H525v532z" transform="scale(.01563)"/><path id="DejaVuSans-33" d="M2597 2516q453-97 707-404 255-306 255-756 0-690-475-1069Q2609-91 1734-91q-293 0-604 58T488 141v609q262-153 574-231 313-78 654-78 593 0 904 234t311 681q0 413-289 645-289 233-804 233h-544v519h569q465 0 712 186t247 536q0 359-255 551-254 193-729 193-260 0-557-57-297-56-653-174v562q360 100 674 150t592 50q719 0 1137-327 419-326 419-882 0-388-222-655t-631-370z" transform="scale(.01563)"/><path id="DejaVuSans-39" d="M703 97v575q238-113 481-172 244-59 479-59 625 0 954 420 330 420 377 1277-181-269-460-413-278-144-615-144-700 0-1108 423-408 424-408 1159 0 718 425 1152 425 435 1131 435 810 0 1236-621 427-620 427-1801 0-1103-524-1761Q2575-91 1691-91q-238 0-482 47Q966 3 703 97zm1256 1978q425 0 673 290 249 291 249 798 0 503-249 795-248 292-673 292t-673-292q-248-292-248-795 0-507 248-798 248-290 673-290z" transform="scale(.01563)"/></defs><use xlink:href="#DejaVuSans-4c"/><use xlink:href="#DejaVuSans-69" x="55.713"/><use xlink:href="#DejaVuSans-6e" x="83.496"/><use xlink:href="#DejaVuSans-65" x="146.875"/><use xlink:href="#DejaVuSans-61" x="208.398"/><use xlink:href="#DejaVuSans-72" x="269.678"/><use xlink:href="#DejaVuSans-52" x="310.791"/><use xlink:href="#DejaVuSans-61" x="378.023"/><use xlink:href="#DejaVuSans-64" x="439.303"/><use xlink:href="#DejaVuSans-69" x="502.779"/><use xlink:href="#DejaVuSans-75" x="530.563"/><use xlink:href="#DejaVuSans-73" x="593.941"/><use xlink:href="#DejaVuSans-56" x="646.041"/><use xlink:href="#DejaVuSans-61" x="706.699"/><use xlink:href="#DejaVuSans-72" x="767.979"/><use xlink:href="#DejaVuSans-69" x="809.092"/><use xlink:href="#DejaVuSans-61" x="836.875"/><use xlink:href="#DejaVuSans-74" x="898.154"/><use xlink:href="#DejaVuSans-69" x="937.363"/><use xlink:href="#DejaVuSans-6f" x="965.146"/><use xlink:href="#DejaVuSans-6e" x="1026.328"/><use xlink:href="#DejaVuSans-46" x="1089.707"/><use xlink:href="#DejaVuSans-6f" x="1143.602"/><use xlink:href="#DejaVuSans-72" x="1204.783"/><use xlink:href="#DejaVuSans-65" x="1243.646"/><use xlink:href="#DejaVuSans-73" x="1305.17"/><use xlink:href="#DejaVuSans-74" x="1357.27"/><use xlink:href="#DejaVuSans-2c" x="1396.479"/><use xlink:href="#DejaVuSans-20" x="1428.266"/><use xlink:href="#DejaVuSans-62" x="1460.053"/><use xlink:href="#DejaVuSans-3d" x="1523.529"/><use xlink:href="#DejaVuSans-30" x="1607.318"/><use xlink:href="#DejaVuSans-2e" x="1670.941"/><use xlink:href="#DejaVuSans-32" x="1702.729"/><use xlink:href="#DejaVuSans-30" x="1766.352"/><use xlink:href="#DejaVuSans-30" x="1829.975"/><use xlink:href="#DejaVuSans-35" x="1893.598"/><use xlink:href="#DejaVuSans-30" x="1957.221"/><use xlink:href="#DejaVuSans-38" x="2020.844"/><use xlink:href="#DejaVuSans-37" x="2084.467"/><use xlink:href="#DejaVuSans-2c" x="2148.09"/><use xlink:href="#DejaVuSans-20" x="2179.877"/><use xlink:href="#DejaVuSans-61" x="2211.664"/><use xlink:href="#DejaVuSans-3d" x="2272.943"/><use xlink:href="#DejaVuSans-30" x="2356.732"/><use xlink:href="#DejaVuSans-2e" x="2420.355"/><use xlink:href="#DejaVuSans-33" x="2452.143"/><use xlink:href="#DejaVuSans-30" x="2515.766"/><use xlink:href="#DejaVuSans-33" x="2579.389"/><use xlink:href="#DejaVuSans-39" x="2643.012"/><use xlink:href="#DejaVuSans-37" x="2706.635"/><use xlink:href="#DejaVuSans-31" x="2770.258"/><use xlink:href="#DejaVuSans-31" x="2833.881"/><use xlink:href="#DejaVuSans-2c" x="2897.504"/><use xlink:href="#DejaVuSans-20" x="2929.291"/><use xlink:href="#DejaVuSans-64" x="2961.078"/><use xlink:href="#DejaVuSans-3d" x="3024.555"/><use xlink:href="#DejaVuSans-30" x="3108.344"/><use xlink:href="#DejaVuSans-2e" x="3171.967"/><use xlink:href="#DejaVuSans-36" x="3203.754"/><use xlink:href="#DejaVuSans-35" x="3267.377"/><use xlink:href="#DejaVuSans-39" x="3331"/><use xlink:href="#DejaVuSans-36" x="3394.623"/><use xlink:href="#DejaVuSans-33" x="3458.246"/><use xlink:href="#DejaVuSans-30" x="3521.869"/><use xlink:href="#DejaVuSans-39" x="3585.492"/></g></g></g><defs><clipPath id="pd948356820"><path d="M110.16 103.68h665.28v665.28H110.16z"/></clipPath></defs></svg>