<?xml version="1.0" encoding="utf-8" standalone="no"?>
<!DOCTYPE svg PUBLIC "-//W3C//DTD SVG 1.1//EN"
  "http://www.w3.org/Graphics/SVG/1.1/DTD/svg11.dtd">
<svg xmlns:xlink="http://www.w3.org/1999/xlink" width="432pt" height="172.8pt" viewBox="0 0 432 172.8" xmlns="http://www.w3.org/2000/svg" version="1.1">
 <metadata>
  <rdf:RDF xmlns:dc="http://purl.org/dc/elements/1.1/" xmlns:cc="http://creativecommons.org/ns#" xmlns:rdf="http://www.w3.org/1999/02/22-rdf-syntax-ns#">
   <cc:Work>
    <dc:type rdf:resource="http://purl.org/dc/dcmitype/StillImage"/>
    <dc:date>2023-02-11T16:49:52.823428</dc:date>
    <dc:format>image/svg+xml</dc:format>
    <dc:creator>
     <cc:Agent>
      <dc:title>Matplotlib v3.5.2, https://matplotlib.org/</dc:title>
     </cc:Agent>
    </dc:creator>
   </cc:Work>
  </rdf:RDF>
 </metadata>
 <defs>
  <style type="text/css">*{stroke-linejoin: round; stroke-linecap: butt}</style>
 </defs>
 <g id="figure_1">
  <g id="patch_1">
   <path d="M 0 172.8 
L 432 172.8 
L 432 0 
L 0 0 
z
" style="fill: #ffffff"/>
  </g>
  <g id="axes_1">
   <g id="patch_2">
    <path d="M 55.08 153.792 
L 387.72 153.792 
L 387.72 20.736 
L 55.08 20.736 
z
" style="fill: #ffffff"/>
   </g>
   <g id="patch_3">
    <path d="M 63.06336 153.792 
C 65.180572 153.792 67.211353 152.950823 68.708448 151.453728 
C 70.205543 149.956633 71.04672 147.925852 71.04672 145.80864 
C 71.04672 143.691428 70.205543 141.660647 68.708448 140.163552 
C 67.211353 138.666457 65.180572 137.82528 63.06336 137.82528 
C 60.946148 137.82528 58.915367 138.666457 57.418272 140.163552 
C 55.921177 141.660647 55.08 143.691428 55.08 145.80864 
C 55.08 147.925852 55.921177 149.956633 57.418272 151.453728 
C 58.915367 152.950823 60.946148 153.792 63.06336 153.792 
z
" clip-path="url(#pf30557b699)" style="fill: #ff0029"/>
   </g>
   <g id="patch_4">
    <path d="M 63.06336 137.82528 
C 65.180572 137.82528 67.211353 136.984103 68.708448 135.487008 
C 70.205543 133.989913 71.04672 131.959132 71.04672 129.84192 
C 71.04672 127.724708 70.205543 125.693927 68.708448 124.196832 
C 67.211353 122.699737 65.180572 121.85856 63.06336 121.85856 
C 60.946148 121.85856 58.915367 122.699737 57.418272 124.196832 
C 55.921177 125.693927 55.08 127.724708 55.08 129.84192 
C 55.08 131.959132 55.921177 133.989913 57.418272 135.487008 
C 58.915367 136.984103 60.946148 137.82528 63.06336 137.82528 
z
" clip-path="url(#pf30557b699)" style="fill: #ff0029"/>
   </g>
   <g id="patch_5">
    <path d="M 79.03008 153.792 
C 81.147292 153.792 83.178073 152.950823 84.675168 151.453728 
C 86.172263 149.956633 87.01344 147.925852 87.01344 145.80864 
C 87.01344 143.691428 86.172263 141.660647 84.675168 140.163552 
C 83.178073 138.666457 81.147292 137.82528 79.03008 137.82528 
C 76.912868 137.82528 74.882087 138.666457 73.384992 140.163552 
C 71.887897 141.660647 71.04672 143.691428 71.04672 145.80864 
C 71.04672 147.925852 71.887897 149.956633 73.384992 151.453728 
C 74.882087 152.950823 76.912868 153.792 79.03008 153.792 
z
" clip-path="url(#pf30557b699)" style="fill: #ff0029"/>
   </g>
   <g id="patch_6">
    <path d="M 61.06752 122.001855 
C 62.655429 122.001855 64.178515 121.370972 65.301336 120.248151 
C 66.424157 119.12533 67.05504 117.602244 67.05504 116.014335 
C 67.05504 114.426426 66.424157 112.90334 65.301336 111.780519 
C 64.178515 110.657698 62.655429 110.026815 61.06752 110.026815 
C 59.479611 110.026815 57.956525 110.657698 56.833704 111.780519 
C 55.710883 112.90334 55.08 114.426426 55.08 116.014335 
C 55.08 117.602244 55.710883 119.12533 56.833704 120.248151 
C 57.956525 121.370972 59.479611 122.001855 61.06752 122.001855 
z
" clip-path="url(#pf30557b699)" style="fill: #0018ff"/>
   </g>
   <g id="patch_7">
    <path d="M 90.320256 153.792 
C 91.378862 153.792 92.394253 153.371411 93.1428 152.622864 
C 93.891347 151.874317 94.311936 150.858926 94.311936 149.80032 
C 94.311936 148.741714 93.891347 147.726323 93.1428 146.977776 
C 92.394253 146.229229 91.378862 145.80864 90.320256 145.80864 
C 89.26165 145.80864 88.246259 146.229229 87.497712 146.977776 
C 86.749165 147.726323 86.328576 148.741714 86.328576 149.80032 
C 86.328576 150.858926 86.749165 151.874317 87.497712 152.622864 
C 88.246259 153.371411 89.26165 153.792 90.320256 153.792 
z
" clip-path="url(#pf30557b699)" style="fill: #cdff00"/>
   </g>
   <g id="patch_8">
    <path d="M 63.06336 110.17011 
C 65.180572 110.17011 67.211353 109.328933 68.708448 107.831838 
C 70.205543 106.334743 71.04672 104.303962 71.04672 102.18675 
C 71.04672 100.069538 70.205543 98.038757 68.708448 96.541662 
C 67.211353 95.044567 65.180572 94.20339 63.06336 94.20339 
C 60.946148 94.20339 58.915367 95.044567 57.418272 96.541662 
C 55.921177 98.038757 55.08 100.069538 55.08 102.18675 
C 55.08 104.303962 55.921177 106.334743 57.418272 107.831838 
C 58.915367 109.328933 60.946148 110.17011 63.06336 110.17011 
z
" clip-path="url(#pf30557b699)" style="fill: #ff0029"/>
   </g>
   <g id="patch_9">
    <path d="M 100.097835 153.792 
C 101.685744 153.792 103.20883 153.161117 104.331651 152.038296 
C 105.454472 150.915475 106.085355 149.392389 106.085355 147.80448 
C 106.085355 146.216571 105.454472 144.693485 104.331651 143.570664 
C 103.20883 142.447843 101.685744 141.81696 100.097835 141.81696 
C 98.509926 141.81696 96.98684 142.447843 95.864019 143.570664 
C 94.741198 144.693485 94.110315 146.216571 94.110315 147.80448 
C 94.110315 149.392389 94.741198 150.915475 95.864019 152.038296 
C 96.98684 153.161117 98.509926 153.792 100.097835 153.792 
z
" clip-path="url(#pf30557b699)" style="fill: #0018ff"/>
   </g>
   <g id="patch_10">
    <path d="M 70.104022 140.4864 
C 70.809759 140.4864 71.486686 140.206008 71.985718 139.706976 
C 72.484749 139.207944 72.765142 138.531017 72.765142 137.82528 
C 72.765142 137.119543 72.484749 136.442616 71.985718 135.943584 
C 71.486686 135.444552 70.809759 135.16416 70.104022 135.16416 
C 69.398284 135.16416 68.721357 135.444552 68.222326 135.943584 
C 67.723294 136.442616 67.442902 137.119543 67.442902 137.82528 
C 67.442902 138.531017 67.723294 139.207944 68.222326 139.706976 
C 68.721357 140.206008 69.398284 140.4864 70.104022 140.4864 
z
" clip-path="url(#pf30557b699)" style="fill: #00ff8c"/>
   </g>
   <g id="patch_11">
    <path d="M 63.06336 94.20339 
C 65.180572 94.20339 67.211353 93.362213 68.708448 91.865118 
C 70.205543 90.368023 71.04672 88.337242 71.04672 86.22003 
C 71.04672 84.102818 70.205543 82.072037 68.708448 80.574942 
C 67.211353 79.077847 65.180572 78.23667 63.06336 78.23667 
C 60.946148 78.23667 58.915367 79.077847 57.418272 80.574942 
C 55.921177 82.072037 55.08 84.102818 55.08 86.22003 
C 55.08 88.337242 55.921177 90.368023 57.418272 91.865118 
C 58.915367 93.362213 60.946148 94.20339 63.06336 94.20339 
z
" clip-path="url(#pf30557b699)" style="fill: #ff0029"/>
   </g>
   <g id="patch_12">
    <path d="M 112.072875 153.792 
C 113.660784 153.792 115.18387 153.161117 116.306691 152.038296 
C 117.429512 150.915475 118.060395 149.392389 118.060395 147.80448 
C 118.060395 146.216571 117.429512 144.693485 116.306691 143.570664 
C 115.18387 142.447843 113.660784 141.81696 112.072875 141.81696 
C 110.484966 141.81696 108.96188 142.447843 107.839059 143.570664 
C 106.716238 144.693485 106.085355 146.216571 106.085355 147.80448 
C 106.085355 149.392389 106.716238 150.915475 107.839059 152.038296 
C 108.96188 153.161117 110.484966 153.792 112.072875 153.792 
z
" clip-path="url(#pf30557b699)" style="fill: #0018ff"/>
   </g>
   <g id="patch_13">
    <path d="M 71.989028 98.19507 
C 73.047634 98.19507 74.063024 97.774481 74.811572 97.025934 
C 75.560119 96.277386 75.980708 95.261996 75.980708 94.20339 
C 75.980708 93.144784 75.560119 92.129393 74.811572 91.380846 
C 74.063024 90.632298 73.047634 90.21171 71.989028 90.21171 
C 70.930422 90.21171 69.915031 90.632298 69.166484 91.380846 
C 68.417936 92.129393 67.997348 93.144784 67.997348 94.20339 
C 67.997348 95.261996 68.417936 96.277386 69.166484 97.025934 
C 69.915031 97.774481 70.930422 98.19507 71.989028 98.19507 
z
" clip-path="url(#pf30557b699)" style="fill: #cdff00"/>
   </g>
   <g id="patch_14">
    <path d="M 57.07584 139.82112 
C 57.605143 139.82112 58.112838 139.610826 58.487112 139.236552 
C 58.861386 138.862278 59.07168 138.354583 59.07168 137.82528 
C 59.07168 137.295977 58.861386 136.788282 58.487112 136.414008 
C 58.112838 136.039734 57.605143 135.82944 57.07584 135.82944 
C 56.546537 135.82944 56.038842 136.039734 55.664568 136.414008 
C 55.290294 136.788282 55.08 137.295977 55.08 137.82528 
C 55.08 138.354583 55.290294 138.862278 55.664568 139.236552 
C 56.038842 139.610826 56.546537 139.82112 57.07584 139.82112 
z
" clip-path="url(#pf30557b699)" style="fill: #ff00bf"/>
   </g>
   <g id="patch_15">
    <path d="M 63.06336 78.23667 
C 65.180572 78.23667 67.211353 77.395493 68.708448 75.898398 
C 70.205543 74.401303 71.04672 72.370522 71.04672 70.25331 
C 71.04672 68.136098 70.205543 66.105317 68.708448 64.608222 
C 67.211353 63.111127 65.180572 62.26995 63.06336 62.26995 
C 60.946148 62.26995 58.915367 63.111127 57.418272 64.608222 
C 55.921177 66.105317 55.08 68.136098 55.08 70.25331 
C 55.08 72.370522 55.921177 74.401303 57.418272 75.898398 
C 58.915367 77.395493 60.946148 78.23667 63.06336 78.23667 
z
" clip-path="url(#pf30557b699)" style="fill: #ff0029"/>
   </g>
   <g id="patch_16">
    <path d="M 106.085355 143.16504 
C 108.202567 143.16504 110.233348 142.323862 111.730443 140.826768 
C 113.227538 139.329673 114.068715 137.298891 114.068715 135.18168 
C 114.068715 133.064468 113.227538 131.033686 111.730443 129.536592 
C 110.233348 128.039497 108.202567 127.19832 106.085355 127.19832 
C 103.968143 127.19832 101.937362 128.039497 100.440267 129.536592 
C 98.943172 131.033686 98.101995 133.064468 98.101995 135.18168 
C 98.101995 137.298891 98.943172 139.329673 100.440267 140.826768 
C 101.937362 142.323862 103.968143 143.16504 106.085355 143.16504 
z
" clip-path="url(#pf30557b699)" style="fill: #ff0029"/>
   </g>
   <g id="patch_17">
    <path d="M 124.047915 153.792 
C 125.635824 153.792 127.15891 153.161117 128.281731 152.038296 
C 129.404552 150.915475 130.035435 149.392389 130.035435 147.80448 
C 130.035435 146.216571 129.404552 144.693485 128.281731 143.570664 
C 127.15891 142.447843 125.635824 141.81696 124.047915 141.81696 
C 122.460006 141.81696 120.93692 142.447843 119.814099 143.570664 
C 118.691278 144.693485 118.060395 146.216571 118.060395 147.80448 
C 118.060395 149.392389 118.691278 150.915475 119.814099 152.038296 
C 120.93692 153.161117 122.460006 153.792 124.047915 153.792 
z
" clip-path="url(#pf30557b699)" style="fill: #0018ff"/>
   </g>
   <g id="patch_18">
    <path d="M 118.060395 143.8128 
C 119.119001 143.8128 120.134392 143.392211 120.882939 142.643664 
C 121.631487 141.895117 122.052075 140.879726 122.052075 139.82112 
C 122.052075 138.762514 121.631487 137.747123 120.882939 136.998576 
C 120.134392 136.250029 119.119001 135.82944 118.060395 135.82944 
C 117.001789 135.82944 115.986399 136.250029 115.237851 136.998576 
C 114.489304 137.747123 114.068715 138.762514 114.068715 139.82112 
C 114.068715 140.879726 114.489304 141.895117 115.237851 142.643664 
C 115.986399 143.392211 117.001789 143.8128 118.060395 143.8128 
z
" clip-path="url(#pf30557b699)" style="fill: #cdff00"/>
   </g>
   <g id="patch_19">
    <path d="M 70.104022 80.89779 
C 70.809759 80.89779 71.486686 80.617397 71.985718 80.118366 
C 72.484749 79.619334 72.765142 78.942407 72.765142 78.23667 
C 72.765142 77.530932 72.484749 76.854005 71.985718 76.354974 
C 71.486686 75.855942 70.809759 75.57555 70.104022 75.57555 
C 69.398284 75.57555 68.721357 75.855942 68.222326 76.354974 
C 67.723294 76.854005 67.442902 77.530932 67.442902 78.23667 
C 67.442902 78.942407 67.723294 79.619334 68.222326 80.118366 
C 68.721357 80.617397 69.398284 80.89779 70.104022 80.89779 
z
" clip-path="url(#pf30557b699)" style="fill: #00ff8c"/>
   </g>
   <g id="patch_20">
    <path d="M 63.06336 62.26995 
C 65.180572 62.26995 67.211353 61.428773 68.708448 59.931678 
C 70.205543 58.434583 71.04672 56.403802 71.04672 54.28659 
C 71.04672 52.169378 70.205543 50.138597 68.708448 48.641502 
C 67.211353 47.144407 65.180572 46.30323 63.06336 46.30323 
C 60.946148 46.30323 58.915367 47.144407 57.418272 48.641502 
C 55.921177 50.138597 55.08 52.169378 55.08 54.28659 
C 55.08 56.403802 55.921177 58.434583 57.418272 59.931678 
C 58.915367 61.428773 60.946148 62.26995 63.06336 62.26995 
z
" clip-path="url(#pf30557b699)" style="fill: #ff0029"/>
   </g>
   <g id="patch_21">
    <path d="M 136.022955 153.792 
C 137.610864 153.792 139.13395 153.161117 140.256771 152.038296 
C 141.379592 150.915475 142.010475 149.392389 142.010475 147.80448 
C 142.010475 146.216571 141.379592 144.693485 140.256771 143.570664 
C 139.13395 142.447843 137.610864 141.81696 136.022955 141.81696 
C 134.435046 141.81696 132.91196 142.447843 131.789139 143.570664 
C 130.666318 144.693485 130.035435 146.216571 130.035435 147.80448 
C 130.035435 149.392389 130.666318 150.915475 131.789139 152.038296 
C 132.91196 153.161117 134.435046 153.792 136.022955 153.792 
z
" clip-path="url(#pf30557b699)" style="fill: #0018ff"/>
   </g>
   <g id="patch_22">
    <path d="M 76.890945 70.25331 
C 79.008157 70.25331 81.038938 69.412133 82.536033 67.915038 
C 84.033128 66.417943 84.874305 64.387162 84.874305 62.26995 
C 84.874305 60.152738 84.033128 58.121957 82.536033 56.624862 
C 81.038938 55.127767 79.008157 54.28659 76.890945 54.28659 
C 74.773733 54.28659 72.742952 55.127767 71.245857 56.624862 
C 69.748762 58.121957 68.907585 60.152738 68.907585 62.26995 
C 68.907585 64.387162 69.748762 66.417943 71.245857 67.915038 
C 72.742952 69.412133 74.773733 70.25331 76.890945 70.25331 
z
" clip-path="url(#pf30557b699)" style="fill: #ff0029"/>
   </g>
   <g id="patch_23">
    <path d="M 61.06752 46.446525 
C 62.655429 46.446525 64.178515 45.815642 65.301336 44.692821 
C 66.424157 43.569999 67.05504 42.046913 67.05504 40.459005 
C 67.05504 38.871096 66.424157 37.34801 65.301336 36.225189 
C 64.178515 35.102367 62.655429 34.471485 61.06752 34.471485 
C 59.479611 34.471485 57.956525 35.102367 56.833704 36.225189 
C 55.710883 37.34801 55.08 38.871096 55.08 40.459005 
C 55.08 42.046913 55.710883 43.569999 56.833704 44.692821 
C 57.956525 45.815642 59.479611 46.446525 61.06752 46.446525 
z
" clip-path="url(#pf30557b699)" style="fill: #0018ff"/>
   </g>
   <g id="patch_24">
    <path d="M 59.07168 34.673105 
C 60.130286 34.673105 61.145677 34.252517 61.894224 33.503969 
C 62.642771 32.755422 63.06336 31.740031 63.06336 30.681425 
C 63.06336 29.622819 62.642771 28.607429 61.894224 27.858881 
C 61.145677 27.110334 60.130286 26.689745 59.07168 26.689745 
C 58.013074 26.689745 56.997683 27.110334 56.249136 27.858881 
C 55.500589 28.607429 55.08 29.622819 55.08 30.681425 
C 55.08 31.740031 55.500589 32.755422 56.249136 33.503969 
C 56.997683 34.252517 58.013074 34.673105 59.07168 34.673105 
z
" clip-path="url(#pf30557b699)" style="fill: #cdff00"/>
   </g>
   <g id="patch_25">
    <path d="M 71.04672 153.792 
C 71.576023 153.792 72.083718 153.581706 72.457992 153.207432 
C 72.832266 152.833158 73.04256 152.325463 73.04256 151.79616 
C 73.04256 151.266857 72.832266 150.759162 72.457992 150.384888 
C 72.083718 150.010614 71.576023 149.80032 71.04672 149.80032 
C 70.517417 149.80032 70.009722 150.010614 69.635448 150.384888 
C 69.261174 150.759162 69.05088 151.266857 69.05088 151.79616 
C 69.05088 152.325463 69.261174 152.833158 69.635448 153.207432 
C 70.009722 153.581706 70.517417 153.792 71.04672 153.792 
z
" clip-path="url(#pf30557b699)" style="fill: #ff00bf"/>
   </g>
   <g id="patch_26">
    <path d="M 130.035435 143.16504 
C 132.152647 143.16504 134.183428 142.323862 135.680523 140.826768 
C 137.177618 139.329673 138.018795 137.298891 138.018795 135.18168 
C 138.018795 133.064468 137.177618 131.033686 135.680523 129.536592 
C 134.183428 128.039497 132.152647 127.19832 130.035435 127.19832 
C 127.918223 127.19832 125.887442 128.039497 124.390347 129.536592 
C 122.893252 131.033686 122.052075 133.064468 122.052075 135.18168 
C 122.052075 137.298891 122.893252 139.329673 124.390347 140.826768 
C 125.887442 142.323862 127.918223 143.16504 130.035435 143.16504 
z
" clip-path="url(#pf30557b699)" style="fill: #ff0029"/>
   </g>
   <g id="patch_27">
    <path d="M 57.74112 26.824159 
C 58.446857 26.824159 59.123784 26.543767 59.622816 26.044735 
C 60.121848 25.545704 60.40224 24.868777 60.40224 24.163039 
C 60.40224 23.457302 60.121848 22.780375 59.622816 22.281343 
C 59.123784 21.782312 58.446857 21.501919 57.74112 21.501919 
C 57.035383 21.501919 56.358456 21.782312 55.859424 22.281343 
C 55.360392 22.780375 55.08 23.457302 55.08 24.163039 
C 55.08 24.868777 55.360392 25.545704 55.859424 26.044735 
C 56.358456 26.543767 57.035383 26.824159 57.74112 26.824159 
z
" clip-path="url(#pf30557b699)" style="fill: #00ff8c"/>
   </g>
   <g id="patch_28">
    <path d="M 149.85054 153.792 
C 151.967752 153.792 153.998533 152.950823 155.495628 151.453728 
C 156.992723 149.956633 157.8339 147.925852 157.8339 145.80864 
C 157.8339 143.691428 156.992723 141.660647 155.495628 140.163552 
C 153.998533 138.666457 151.967752 137.82528 149.85054 137.82528 
C 147.733329 137.82528 145.702547 138.666457 144.205452 140.163552 
C 142.708358 141.660647 141.86718 143.691428 141.86718 145.80864 
C 141.86718 147.925852 142.708358 149.956633 144.205452 151.453728 
C 145.702547 152.950823 147.733329 153.792 149.85054 153.792 
z
" clip-path="url(#pf30557b699)" style="fill: #ff0029"/>
   </g>
   <g id="patch_29">
    <path d="M 163.678125 153.792 
C 165.266034 153.792 166.78912 153.161117 167.911941 152.038296 
C 169.034763 150.915475 169.665645 149.392389 169.665645 147.80448 
C 169.665645 146.216571 169.034763 144.693485 167.911941 143.570664 
C 166.78912 142.447843 165.266034 141.81696 163.678125 141.81696 
C 162.090217 141.81696 160.567131 142.447843 159.444309 143.570664 
C 158.321488 144.693485 157.690605 146.216571 157.690605 147.80448 
C 157.690605 149.392389 158.321488 150.915475 159.444309 152.038296 
C 160.567131 153.161117 162.090217 153.792 163.678125 153.792 
z
" clip-path="url(#pf30557b699)" style="fill: #0018ff"/>
   </g>
   <g id="patch_30">
    <path d="M 173.455705 153.792 
C 174.514311 153.792 175.529701 153.371411 176.278249 152.622864 
C 177.026796 151.874317 177.447385 150.858926 177.447385 149.80032 
C 177.447385 148.741714 177.026796 147.726323 176.278249 146.977776 
C 175.529701 146.229229 174.514311 145.80864 173.455705 145.80864 
C 172.397099 145.80864 171.381708 146.229229 170.633161 146.977776 
C 169.884613 147.726323 169.464025 148.741714 169.464025 149.80032 
C 169.464025 150.858926 169.884613 151.874317 170.633161 152.622864 
C 171.381708 153.371411 172.397099 153.792 173.455705 153.792 
z
" clip-path="url(#pf30557b699)" style="fill: #cdff00"/>
   </g>
   <g id="patch_31">
    <path d="M 184.745881 153.792 
C 186.863092 153.792 188.893874 152.950823 190.390969 151.453728 
C 191.888064 149.956633 192.729241 147.925852 192.729241 145.80864 
C 192.729241 143.691428 191.888064 141.660647 190.390969 140.163552 
C 188.893874 138.666457 186.863092 137.82528 184.745881 137.82528 
C 182.628669 137.82528 180.597888 138.666457 179.100793 140.163552 
C 177.603698 141.660647 176.762521 143.691428 176.762521 145.80864 
C 176.762521 147.925852 177.603698 149.956633 179.100793 151.453728 
C 180.597888 152.950823 182.628669 153.792 184.745881 153.792 
z
" clip-path="url(#pf30557b699)" style="fill: #ff0029"/>
   </g>
   <g id="patch_32">
    <path d="M 198.573466 153.792 
C 200.161375 153.792 201.684461 153.161117 202.807282 152.038296 
C 203.930103 150.915475 204.560986 149.392389 204.560986 147.80448 
C 204.560986 146.216571 203.930103 144.693485 202.807282 143.570664 
C 201.684461 142.447843 200.161375 141.81696 198.573466 141.81696 
C 196.985557 141.81696 195.462471 142.447843 194.33965 143.570664 
C 193.216829 144.693485 192.585946 146.216571 192.585946 147.80448 
C 192.585946 149.392389 193.216829 150.915475 194.33965 152.038296 
C 195.462471 153.161117 196.985557 153.792 198.573466 153.792 
z
" clip-path="url(#pf30557b699)" style="fill: #0018ff"/>
   </g>
   <g id="patch_33">
    <path d="M 212.401051 153.792 
C 214.518263 153.792 216.549044 152.950823 218.046139 151.453728 
C 219.543234 149.956633 220.384411 147.925852 220.384411 145.80864 
C 220.384411 143.691428 219.543234 141.660647 218.046139 140.163552 
C 216.549044 138.666457 214.518263 137.82528 212.401051 137.82528 
C 210.283839 137.82528 208.253058 138.666457 206.755963 140.163552 
C 205.258868 141.660647 204.417691 143.691428 204.417691 145.80864 
C 204.417691 147.925852 205.258868 149.956633 206.755963 151.453728 
C 208.253058 152.950823 210.283839 153.792 212.401051 153.792 
z
" clip-path="url(#pf30557b699)" style="fill: #ff0029"/>
   </g>
   <g id="patch_34">
    <path d="M 226.228636 153.792 
C 227.816545 153.792 229.339631 153.161117 230.462452 152.038296 
C 231.585273 150.915475 232.216156 149.392389 232.216156 147.80448 
C 232.216156 146.216571 231.585273 144.693485 230.462452 143.570664 
C 229.339631 142.447843 227.816545 141.81696 226.228636 141.81696 
C 224.640727 141.81696 223.117641 142.447843 221.99482 143.570664 
C 220.871999 144.693485 220.241116 146.216571 220.241116 147.80448 
C 220.241116 149.392389 220.871999 150.915475 221.99482 152.038296 
C 223.117641 153.161117 224.640727 153.792 226.228636 153.792 
z
" clip-path="url(#pf30557b699)" style="fill: #0018ff"/>
   </g>
   <g id="patch_35">
    <path d="M 236.006215 153.792 
C 237.064821 153.792 238.080212 153.371411 238.828759 152.622864 
C 239.577307 151.874317 239.997895 150.858926 239.997895 149.80032 
C 239.997895 148.741714 239.577307 147.726323 238.828759 146.977776 
C 238.080212 146.229229 237.064821 145.80864 236.006215 145.80864 
C 234.947609 145.80864 233.932219 146.229229 233.183671 146.977776 
C 232.435124 147.726323 232.014535 148.741714 232.014535 149.80032 
C 232.014535 150.858926 232.435124 151.874317 233.183671 152.622864 
C 233.932219 153.371411 234.947609 153.792 236.006215 153.792 
z
" clip-path="url(#pf30557b699)" style="fill: #cdff00"/>
   </g>
   <g id="patch_36">
    <path d="M 242.524601 153.792 
C 243.230339 153.792 243.907266 153.511608 244.406297 153.012576 
C 244.905329 152.513544 245.185721 151.836617 245.185721 151.13088 
C 245.185721 150.425143 244.905329 149.748216 244.406297 149.249184 
C 243.907266 148.750152 243.230339 148.46976 242.524601 148.46976 
C 241.818864 148.46976 241.141937 148.750152 240.642905 149.249184 
C 240.143874 149.748216 239.863481 150.425143 239.863481 151.13088 
C 239.863481 151.836617 240.143874 152.513544 240.642905 153.012576 
C 241.141937 153.511608 241.818864 153.792 242.524601 153.792 
z
" clip-path="url(#pf30557b699)" style="fill: #00ff8c"/>
   </g>
   <g id="patch_37">
    <path d="M 57.07584 96.19923 
C 57.605143 96.19923 58.112838 95.988935 58.487112 95.614662 
C 58.861386 95.240388 59.07168 94.732693 59.07168 94.20339 
C 59.07168 93.674087 58.861386 93.166391 58.487112 92.792118 
C 58.112838 92.417844 57.605143 92.20755 57.07584 92.20755 
C 56.546537 92.20755 56.038842 92.417844 55.664568 92.792118 
C 55.290294 93.166391 55.08 93.674087 55.08 94.20339 
C 55.08 94.732693 55.290294 95.240388 55.664568 95.614662 
C 56.038842 95.988935 56.546537 96.19923 57.07584 96.19923 
z
" clip-path="url(#pf30557b699)" style="fill: #ff00bf"/>
   </g>
   <g id="patch_38">
    <path d="M 251.742992 153.792 
C 253.860203 153.792 255.890985 152.950823 257.38808 151.453728 
C 258.885174 149.956633 259.726352 147.925852 259.726352 145.80864 
C 259.726352 143.691428 258.885174 141.660647 257.38808 140.163552 
C 255.890985 138.666457 253.860203 137.82528 251.742992 137.82528 
C 249.62578 137.82528 247.594998 138.666457 246.097904 140.163552 
C 244.600809 141.660647 243.759632 143.691428 243.759632 145.80864 
C 243.759632 147.925852 244.600809 149.956633 246.097904 151.453728 
C 247.594998 152.950823 249.62578 153.792 251.742992 153.792 
z
" clip-path="url(#pf30557b699)" style="fill: #ff0029"/>
   </g>
   <g id="patch_39">
    <path d="M 265.570577 153.792 
C 267.158486 153.792 268.681572 153.161117 269.804393 152.038296 
C 270.927214 150.915475 271.558097 149.392389 271.558097 147.80448 
C 271.558097 146.216571 270.927214 144.693485 269.804393 143.570664 
C 268.681572 142.447843 267.158486 141.81696 265.570577 141.81696 
C 263.982668 141.81696 262.459582 142.447843 261.336761 143.570664 
C 260.21394 144.693485 259.583057 146.216571 259.583057 147.80448 
C 259.583057 149.392389 260.21394 150.915475 261.336761 152.038296 
C 262.459582 153.161117 263.982668 153.792 265.570577 153.792 
z
" clip-path="url(#pf30557b699)" style="fill: #0018ff"/>
   </g>
   <g id="patch_40">
    <path d="M 279.398162 153.792 
C 281.515374 153.792 283.546155 152.950823 285.04325 151.453728 
C 286.540345 149.956633 287.381522 147.925852 287.381522 145.80864 
C 287.381522 143.691428 286.540345 141.660647 285.04325 140.163552 
C 283.546155 138.666457 281.515374 137.82528 279.398162 137.82528 
C 277.28095 137.82528 275.250169 138.666457 273.753074 140.163552 
C 272.255979 141.660647 271.414802 143.691428 271.414802 145.80864 
C 271.414802 147.925852 272.255979 149.956633 273.753074 151.453728 
C 275.250169 152.950823 277.28095 153.792 279.398162 153.792 
z
" clip-path="url(#pf30557b699)" style="fill: #ff0029"/>
   </g>
   <g id="patch_41">
    <path d="M 293.225747 153.792 
C 294.813656 153.792 296.336742 153.161117 297.459563 152.038296 
C 298.582384 150.915475 299.213267 149.392389 299.213267 147.80448 
C 299.213267 146.216571 298.582384 144.693485 297.459563 143.570664 
C 296.336742 142.447843 294.813656 141.81696 293.225747 141.81696 
C 291.637838 141.81696 290.114752 142.447843 288.991931 143.570664 
C 287.86911 144.693485 287.238227 146.216571 287.238227 147.80448 
C 287.238227 149.392389 287.86911 150.915475 288.991931 152.038296 
C 290.114752 153.161117 291.637838 153.792 293.225747 153.792 
z
" clip-path="url(#pf30557b699)" style="fill: #0018ff"/>
   </g>
   <g id="patch_42">
    <path d="M 303.003326 153.792 
C 304.061932 153.792 305.077323 153.371411 305.82587 152.622864 
C 306.574418 151.874317 306.995006 150.858926 306.995006 149.80032 
C 306.995006 148.741714 306.574418 147.726323 305.82587 146.977776 
C 305.077323 146.229229 304.061932 145.80864 303.003326 145.80864 
C 301.94472 145.80864 300.92933 146.229229 300.180782 146.977776 
C 299.432235 147.726323 299.011646 148.741714 299.011646 149.80032 
C 299.011646 150.858926 299.432235 151.874317 300.180782 152.622864 
C 300.92933 153.371411 301.94472 153.792 303.003326 153.792 
z
" clip-path="url(#pf30557b699)" style="fill: #cdff00"/>
   </g>
   <g id="patch_43">
    <path d="M 314.293502 153.792 
C 316.410714 153.792 318.441495 152.950823 319.93859 151.453728 
C 321.435685 149.956633 322.276862 147.925852 322.276862 145.80864 
C 322.276862 143.691428 321.435685 141.660647 319.93859 140.163552 
C 318.441495 138.666457 316.410714 137.82528 314.293502 137.82528 
C 312.17629 137.82528 310.145509 138.666457 308.648414 140.163552 
C 307.151319 141.660647 306.310142 143.691428 306.310142 145.80864 
C 306.310142 147.925852 307.151319 149.956633 308.648414 151.453728 
C 310.145509 152.950823 312.17629 153.792 314.293502 153.792 
z
" clip-path="url(#pf30557b699)" style="fill: #ff0029"/>
   </g>
   <g id="patch_44">
    <path d="M 323.511892 153.792 
C 324.21763 153.792 324.894557 153.511608 325.393588 153.012576 
C 325.89262 152.513544 326.173012 151.836617 326.173012 151.13088 
C 326.173012 150.425143 325.89262 149.748216 325.393588 149.249184 
C 324.894557 148.750152 324.21763 148.46976 323.511892 148.46976 
C 322.806155 148.46976 322.129228 148.750152 321.630196 149.249184 
C 321.131165 149.748216 320.850772 150.425143 320.850772 151.13088 
C 320.850772 151.836617 321.131165 152.513544 321.630196 153.012576 
C 322.129228 153.511608 322.806155 153.792 323.511892 153.792 
z
" clip-path="url(#pf30557b699)" style="fill: #00ff8c"/>
   </g>
   <g id="patch_45">
    <path d="M 332.730282 153.792 
C 334.847494 153.792 336.878275 152.950823 338.37537 151.453728 
C 339.872465 149.956633 340.713642 147.925852 340.713642 145.80864 
C 340.713642 143.691428 339.872465 141.660647 338.37537 140.163552 
C 336.878275 138.666457 334.847494 137.82528 332.730282 137.82528 
C 330.61307 137.82528 328.582289 138.666457 327.085194 140.163552 
C 325.588099 141.660647 324.746922 143.691428 324.746922 145.80864 
C 324.746922 147.925852 325.588099 149.956633 327.085194 151.453728 
C 328.582289 152.950823 330.61307 153.792 332.730282 153.792 
z
" clip-path="url(#pf30557b699)" style="fill: #ff0029"/>
   </g>
   <g id="patch_46">
    <path d="M 346.557867 153.792 
C 348.145776 153.792 349.668862 153.161117 350.791683 152.038296 
C 351.914505 150.915475 352.545387 149.392389 352.545387 147.80448 
C 352.545387 146.216571 351.914505 144.693485 350.791683 143.570664 
C 349.668862 142.447843 348.145776 141.81696 346.557867 141.81696 
C 344.969959 141.81696 343.446873 142.447843 342.324051 143.570664 
C 341.20123 144.693485 340.570347 146.216571 340.570347 147.80448 
C 340.570347 149.392389 341.20123 150.915475 342.324051 152.038296 
C 343.446873 153.161117 344.969959 153.792 346.557867 153.792 
z
" clip-path="url(#pf30557b699)" style="fill: #0018ff"/>
   </g>
   <g id="patch_47">
    <path d="M 356.335447 153.792 
C 357.394053 153.792 358.409443 153.371411 359.157991 152.622864 
C 359.906538 151.874317 360.327127 150.858926 360.327127 149.80032 
C 360.327127 148.741714 359.906538 147.726323 359.157991 146.977776 
C 358.409443 146.229229 357.394053 145.80864 356.335447 145.80864 
C 355.276841 145.80864 354.26145 146.229229 353.512903 146.977776 
C 352.764355 147.726323 352.343767 148.741714 352.343767 149.80032 
C 352.343767 150.858926 352.764355 151.874317 353.512903 152.622864 
C 354.26145 153.371411 355.276841 153.792 356.335447 153.792 
z
" clip-path="url(#pf30557b699)" style="fill: #cdff00"/>
   </g>
   <g id="patch_48">
    <path d="M 57.07584 80.23251 
C 57.605143 80.23251 58.112838 80.022215 58.487112 79.647942 
C 58.861386 79.273668 59.07168 78.765973 59.07168 78.23667 
C 59.07168 77.707367 58.861386 77.199671 58.487112 76.825398 
C 58.112838 76.451124 57.605143 76.24083 57.07584 76.24083 
C 56.546537 76.24083 56.038842 76.451124 55.664568 76.825398 
C 55.290294 77.199671 55.08 77.707367 55.08 78.23667 
C 55.08 78.765973 55.290294 79.273668 55.664568 79.647942 
C 56.038842 80.022215 56.546537 80.23251 57.07584 80.23251 
z
" clip-path="url(#pf30557b699)" style="fill: #ff00bf"/>
   </g>
   <g id="patch_49">
    <path d="M 367.625623 153.792 
C 369.742834 153.792 371.773616 152.950823 373.270711 151.453728 
C 374.767805 149.956633 375.608983 147.925852 375.608983 145.80864 
C 375.608983 143.691428 374.767805 141.660647 373.270711 140.163552 
C 371.773616 138.666457 369.742834 137.82528 367.625623 137.82528 
C 365.508411 137.82528 363.477629 138.666457 361.980535 140.163552 
C 360.48344 141.660647 359.642263 143.691428 359.642263 145.80864 
C 359.642263 147.925852 360.48344 149.956633 361.980535 151.453728 
C 363.477629 152.950823 365.508411 153.792 367.625623 153.792 
z
" clip-path="url(#pf30557b699)" style="fill: #ff0029"/>
   </g>
   <g id="patch_50">
    <path d="M 381.453208 153.792 
C 383.041117 153.792 384.564203 153.161117 385.687024 152.038296 
C 386.809845 150.915475 387.440728 149.392389 387.440728 147.80448 
C 387.440728 146.216571 386.809845 144.693485 385.687024 143.570664 
C 384.564203 142.447843 383.041117 141.81696 381.453208 141.81696 
C 379.865299 141.81696 378.342213 142.447843 377.219392 143.570664 
C 376.096571 144.693485 375.465688 146.216571 375.465688 147.80448 
C 375.465688 149.392389 376.096571 150.915475 377.219392 152.038296 
C 378.342213 153.161117 379.865299 153.792 381.453208 153.792 
z
" clip-path="url(#pf30557b699)" style="fill: #0018ff"/>
   </g>
   <g id="patch_51">
    <path d="M 57.07584 64.26579 
C 57.605143 64.26579 58.112838 64.055495 58.487112 63.681222 
C 58.861386 63.306948 59.07168 62.799253 59.07168 62.26995 
C 59.07168 61.740647 58.861386 61.232951 58.487112 60.858678 
C 58.112838 60.484404 57.605143 60.27411 57.07584 60.27411 
C 56.546537 60.27411 56.038842 60.484404 55.664568 60.858678 
C 55.290294 61.232951 55.08 61.740647 55.08 62.26995 
C 55.08 62.799253 55.290294 63.306948 55.664568 63.681222 
C 56.038842 64.055495 56.546537 64.26579 57.07584 64.26579 
z
" clip-path="url(#pf30557b699)" style="fill: #ff00bf"/>
   </g>
   <g id="matplotlib.axis_1">
    <g id="xtick_1">
     <g id="line2d_1">
      <defs>
       <path id="mc3adfc73ba" d="M 0 0 
L 0 3.5 
" style="stroke: #000000; stroke-width: 0.8"/>
      </defs>
      <g>
       <use xlink:href="#mc3adfc73ba" x="55.08" y="153.792" style="stroke: #000000; stroke-width: 0.8"/>
      </g>
     </g>
     <g id="text_1">
      <!-- 0 -->
      <g transform="translate(51.89875 168.390437)scale(0.1 -0.1)">
       <defs>
        <path id="DejaVuSans-30" d="M 2034 4250 
Q 1547 4250 1301 3770 
Q 1056 3291 1056 2328 
Q 1056 1369 1301 889 
Q 1547 409 2034 409 
Q 2525 409 2770 889 
Q 3016 1369 3016 2328 
Q 3016 3291 2770 3770 
Q 2525 4250 2034 4250 
z
M 2034 4750 
Q 2819 4750 3233 4129 
Q 3647 3509 3647 2328 
Q 3647 1150 3233 529 
Q 2819 -91 2034 -91 
Q 1250 -91 836 529 
Q 422 1150 422 2328 
Q 422 3509 836 4129 
Q 1250 4750 2034 4750 
z
" transform="scale(0.015625)"/>
       </defs>
       <use xlink:href="#DejaVuSans-30"/>
      </g>
     </g>
    </g>
    <g id="xtick_2">
     <g id="line2d_2">
      <g>
       <use xlink:href="#mc3adfc73ba" x="121.608" y="153.792" style="stroke: #000000; stroke-width: 0.8"/>
      </g>
     </g>
     <g id="text_2">
      <!-- 100 -->
      <g transform="translate(112.06425 168.390437)scale(0.1 -0.1)">
       <defs>
        <path id="DejaVuSans-31" d="M 794 531 
L 1825 531 
L 1825 4091 
L 703 3866 
L 703 4441 
L 1819 4666 
L 2450 4666 
L 2450 531 
L 3481 531 
L 3481 0 
L 794 0 
L 794 531 
z
" transform="scale(0.015625)"/>
       </defs>
       <use xlink:href="#DejaVuSans-31"/>
       <use xlink:href="#DejaVuSans-30" x="63.623047"/>
       <use xlink:href="#DejaVuSans-30" x="127.246094"/>
      </g>
     </g>
    </g>
    <g id="xtick_3">
     <g id="line2d_3">
      <g>
       <use xlink:href="#mc3adfc73ba" x="188.136" y="153.792" style="stroke: #000000; stroke-width: 0.8"/>
      </g>
     </g>
     <g id="text_3">
      <!-- 200 -->
      <g transform="translate(178.59225 168.390437)scale(0.1 -0.1)">
       <defs>
        <path id="DejaVuSans-32" d="M 1228 531 
L 3431 531 
L 3431 0 
L 469 0 
L 469 531 
Q 828 903 1448 1529 
Q 2069 2156 2228 2338 
Q 2531 2678 2651 2914 
Q 2772 3150 2772 3378 
Q 2772 3750 2511 3984 
Q 2250 4219 1831 4219 
Q 1534 4219 1204 4116 
Q 875 4013 500 3803 
L 500 4441 
Q 881 4594 1212 4672 
Q 1544 4750 1819 4750 
Q 2544 4750 2975 4387 
Q 3406 4025 3406 3419 
Q 3406 3131 3298 2873 
Q 3191 2616 2906 2266 
Q 2828 2175 2409 1742 
Q 1991 1309 1228 531 
z
" transform="scale(0.015625)"/>
       </defs>
       <use xlink:href="#DejaVuSans-32"/>
       <use xlink:href="#DejaVuSans-30" x="63.623047"/>
       <use xlink:href="#DejaVuSans-30" x="127.246094"/>
      </g>
     </g>
    </g>
    <g id="xtick_4">
     <g id="line2d_4">
      <g>
       <use xlink:href="#mc3adfc73ba" x="254.664" y="153.792" style="stroke: #000000; stroke-width: 0.8"/>
      </g>
     </g>
     <g id="text_4">
      <!-- 300 -->
      <g transform="translate(245.12025 168.390437)scale(0.1 -0.1)">
       <defs>
        <path id="DejaVuSans-33" d="M 2597 2516 
Q 3050 2419 3304 2112 
Q 3559 1806 3559 1356 
Q 3559 666 3084 287 
Q 2609 -91 1734 -91 
Q 1441 -91 1130 -33 
Q 819 25 488 141 
L 488 750 
Q 750 597 1062 519 
Q 1375 441 1716 441 
Q 2309 441 2620 675 
Q 2931 909 2931 1356 
Q 2931 1769 2642 2001 
Q 2353 2234 1838 2234 
L 1294 2234 
L 1294 2753 
L 1863 2753 
Q 2328 2753 2575 2939 
Q 2822 3125 2822 3475 
Q 2822 3834 2567 4026 
Q 2313 4219 1838 4219 
Q 1578 4219 1281 4162 
Q 984 4106 628 3988 
L 628 4550 
Q 988 4650 1302 4700 
Q 1616 4750 1894 4750 
Q 2613 4750 3031 4423 
Q 3450 4097 3450 3541 
Q 3450 3153 3228 2886 
Q 3006 2619 2597 2516 
z
" transform="scale(0.015625)"/>
       </defs>
       <use xlink:href="#DejaVuSans-33"/>
       <use xlink:href="#DejaVuSans-30" x="63.623047"/>
       <use xlink:href="#DejaVuSans-30" x="127.246094"/>
      </g>
     </g>
    </g>
    <g id="xtick_5">
     <g id="line2d_5">
      <g>
       <use xlink:href="#mc3adfc73ba" x="321.192" y="153.792" style="stroke: #000000; stroke-width: 0.8"/>
      </g>
     </g>
     <g id="text_5">
      <!-- 400 -->
      <g transform="translate(311.64825 168.390437)scale(0.1 -0.1)">
       <defs>
        <path id="DejaVuSans-34" d="M 2419 4116 
L 825 1625 
L 2419 1625 
L 2419 4116 
z
M 2253 4666 
L 3047 4666 
L 3047 1625 
L 3713 1625 
L 3713 1100 
L 3047 1100 
L 3047 0 
L 2419 0 
L 2419 1100 
L 313 1100 
L 313 1709 
L 2253 4666 
z
" transform="scale(0.015625)"/>
       </defs>
       <use xlink:href="#DejaVuSans-34"/>
       <use xlink:href="#DejaVuSans-30" x="63.623047"/>
       <use xlink:href="#DejaVuSans-30" x="127.246094"/>
      </g>
     </g>
    </g>
    <g id="xtick_6">
     <g id="line2d_6">
      <g>
       <use xlink:href="#mc3adfc73ba" x="387.72" y="153.792" style="stroke: #000000; stroke-width: 0.8"/>
      </g>
     </g>
     <g id="text_6">
      <!-- 500 -->
      <g transform="translate(378.17625 168.390437)scale(0.1 -0.1)">
       <defs>
        <path id="DejaVuSans-35" d="M 691 4666 
L 3169 4666 
L 3169 4134 
L 1269 4134 
L 1269 2991 
Q 1406 3038 1543 3061 
Q 1681 3084 1819 3084 
Q 2600 3084 3056 2656 
Q 3513 2228 3513 1497 
Q 3513 744 3044 326 
Q 2575 -91 1722 -91 
Q 1428 -91 1123 -41 
Q 819 9 494 109 
L 494 744 
Q 775 591 1075 516 
Q 1375 441 1709 441 
Q 2250 441 2565 725 
Q 2881 1009 2881 1497 
Q 2881 1984 2565 2268 
Q 2250 2553 1709 2553 
Q 1456 2553 1204 2497 
Q 953 2441 691 2322 
L 691 4666 
z
" transform="scale(0.015625)"/>
       </defs>
       <use xlink:href="#DejaVuSans-35"/>
       <use xlink:href="#DejaVuSans-30" x="63.623047"/>
       <use xlink:href="#DejaVuSans-30" x="127.246094"/>
      </g>
     </g>
    </g>
   </g>
   <g id="matplotlib.axis_2">
    <g id="ytick_1">
     <g id="line2d_7">
      <defs>
       <path id="mbd0555f754" d="M 0 0 
L -3.5 0 
" style="stroke: #000000; stroke-width: 0.8"/>
      </defs>
      <g>
       <use xlink:href="#mbd0555f754" x="55.08" y="153.792" style="stroke: #000000; stroke-width: 0.8"/>
      </g>
     </g>
     <g id="text_7">
      <!-- 0 -->
      <g transform="translate(41.7175 157.591219)scale(0.1 -0.1)">
       <use xlink:href="#DejaVuSans-30"/>
      </g>
     </g>
    </g>
    <g id="ytick_2">
     <g id="line2d_8">
      <g>
       <use xlink:href="#mbd0555f754" x="55.08" y="120.528" style="stroke: #000000; stroke-width: 0.8"/>
      </g>
     </g>
     <g id="text_8">
      <!-- 50 -->
      <g transform="translate(35.355 124.327219)scale(0.1 -0.1)">
       <use xlink:href="#DejaVuSans-35"/>
       <use xlink:href="#DejaVuSans-30" x="63.623047"/>
      </g>
     </g>
    </g>
    <g id="ytick_3">
     <g id="line2d_9">
      <g>
       <use xlink:href="#mbd0555f754" x="55.08" y="87.264" style="stroke: #000000; stroke-width: 0.8"/>
      </g>
     </g>
     <g id="text_9">
      <!-- 100 -->
      <g transform="translate(28.9925 91.063219)scale(0.1 -0.1)">
       <use xlink:href="#DejaVuSans-31"/>
       <use xlink:href="#DejaVuSans-30" x="63.623047"/>
       <use xlink:href="#DejaVuSans-30" x="127.246094"/>
      </g>
     </g>
    </g>
    <g id="ytick_4">
     <g id="line2d_10">
      <g>
       <use xlink:href="#mbd0555f754" x="55.08" y="54" style="stroke: #000000; stroke-width: 0.8"/>
      </g>
     </g>
     <g id="text_10">
      <!-- 150 -->
      <g transform="translate(28.9925 57.799219)scale(0.1 -0.1)">
       <use xlink:href="#DejaVuSans-31"/>
       <use xlink:href="#DejaVuSans-35" x="63.623047"/>
       <use xlink:href="#DejaVuSans-30" x="127.246094"/>
      </g>
     </g>
    </g>
    <g id="ytick_5">
     <g id="line2d_11">
      <g>
       <use xlink:href="#mbd0555f754" x="55.08" y="20.736" style="stroke: #000000; stroke-width: 0.8"/>
      </g>
     </g>
     <g id="text_11">
      <!-- 200 -->
      <g transform="translate(28.9925 24.535219)scale(0.1 -0.1)">
       <use xlink:href="#DejaVuSans-32"/>
       <use xlink:href="#DejaVuSans-30" x="63.623047"/>
       <use xlink:href="#DejaVuSans-30" x="127.246094"/>
      </g>
     </g>
    </g>
   </g>
   <g id="patch_52">
    <path d="M 55.08 153.792 
L 55.08 20.736 
" style="fill: none; stroke: #000000; stroke-width: 0.8; stroke-linejoin: miter; stroke-linecap: square"/>
   </g>
   <g id="patch_53">
    <path d="M 387.72 153.792 
L 387.72 20.736 
" style="fill: none; stroke: #000000; stroke-width: 0.8; stroke-linejoin: miter; stroke-linecap: square"/>
   </g>
   <g id="patch_54">
    <path d="M 55.08 153.792 
L 387.72 153.792 
" style="fill: none; stroke: #000000; stroke-width: 0.8; stroke-linejoin: miter; stroke-linecap: square"/>
   </g>
   <g id="patch_55">
    <path d="M 55.08 20.736 
L 387.72 20.736 
" style="fill: none; stroke: #000000; stroke-width: 0.8; stroke-linejoin: miter; stroke-linecap: square"/>
   </g>
   <g id="text_12">
    <!-- SherwoodForest, b=0.0952560, a=0.1274858, d=0.7471887 -->
    <g transform="translate(38.005312 14.736)scale(0.12 -0.12)">
     <defs>
      <path id="DejaVuSans-53" d="M 3425 4513 
L 3425 3897 
Q 3066 4069 2747 4153 
Q 2428 4238 2131 4238 
Q 1616 4238 1336 4038 
Q 1056 3838 1056 3469 
Q 1056 3159 1242 3001 
Q 1428 2844 1947 2747 
L 2328 2669 
Q 3034 2534 3370 2195 
Q 3706 1856 3706 1288 
Q 3706 609 3251 259 
Q 2797 -91 1919 -91 
Q 1588 -91 1214 -16 
Q 841 59 441 206 
L 441 856 
Q 825 641 1194 531 
Q 1563 422 1919 422 
Q 2459 422 2753 634 
Q 3047 847 3047 1241 
Q 3047 1584 2836 1778 
Q 2625 1972 2144 2069 
L 1759 2144 
Q 1053 2284 737 2584 
Q 422 2884 422 3419 
Q 422 4038 858 4394 
Q 1294 4750 2059 4750 
Q 2388 4750 2728 4690 
Q 3069 4631 3425 4513 
z
" transform="scale(0.015625)"/>
      <path id="DejaVuSans-68" d="M 3513 2113 
L 3513 0 
L 2938 0 
L 2938 2094 
Q 2938 2591 2744 2837 
Q 2550 3084 2163 3084 
Q 1697 3084 1428 2787 
Q 1159 2491 1159 1978 
L 1159 0 
L 581 0 
L 581 4863 
L 1159 4863 
L 1159 2956 
Q 1366 3272 1645 3428 
Q 1925 3584 2291 3584 
Q 2894 3584 3203 3211 
Q 3513 2838 3513 2113 
z
" transform="scale(0.015625)"/>
      <path id="DejaVuSans-65" d="M 3597 1894 
L 3597 1613 
L 953 1613 
Q 991 1019 1311 708 
Q 1631 397 2203 397 
Q 2534 397 2845 478 
Q 3156 559 3463 722 
L 3463 178 
Q 3153 47 2828 -22 
Q 2503 -91 2169 -91 
Q 1331 -91 842 396 
Q 353 884 353 1716 
Q 353 2575 817 3079 
Q 1281 3584 2069 3584 
Q 2775 3584 3186 3129 
Q 3597 2675 3597 1894 
z
M 3022 2063 
Q 3016 2534 2758 2815 
Q 2500 3097 2075 3097 
Q 1594 3097 1305 2825 
Q 1016 2553 972 2059 
L 3022 2063 
z
" transform="scale(0.015625)"/>
      <path id="DejaVuSans-72" d="M 2631 2963 
Q 2534 3019 2420 3045 
Q 2306 3072 2169 3072 
Q 1681 3072 1420 2755 
Q 1159 2438 1159 1844 
L 1159 0 
L 581 0 
L 581 3500 
L 1159 3500 
L 1159 2956 
Q 1341 3275 1631 3429 
Q 1922 3584 2338 3584 
Q 2397 3584 2469 3576 
Q 2541 3569 2628 3553 
L 2631 2963 
z
" transform="scale(0.015625)"/>
      <path id="DejaVuSans-77" d="M 269 3500 
L 844 3500 
L 1563 769 
L 2278 3500 
L 2956 3500 
L 3675 769 
L 4391 3500 
L 4966 3500 
L 4050 0 
L 3372 0 
L 2619 2869 
L 1863 0 
L 1184 0 
L 269 3500 
z
" transform="scale(0.015625)"/>
      <path id="DejaVuSans-6f" d="M 1959 3097 
Q 1497 3097 1228 2736 
Q 959 2375 959 1747 
Q 959 1119 1226 758 
Q 1494 397 1959 397 
Q 2419 397 2687 759 
Q 2956 1122 2956 1747 
Q 2956 2369 2687 2733 
Q 2419 3097 1959 3097 
z
M 1959 3584 
Q 2709 3584 3137 3096 
Q 3566 2609 3566 1747 
Q 3566 888 3137 398 
Q 2709 -91 1959 -91 
Q 1206 -91 779 398 
Q 353 888 353 1747 
Q 353 2609 779 3096 
Q 1206 3584 1959 3584 
z
" transform="scale(0.015625)"/>
      <path id="DejaVuSans-64" d="M 2906 2969 
L 2906 4863 
L 3481 4863 
L 3481 0 
L 2906 0 
L 2906 525 
Q 2725 213 2448 61 
Q 2172 -91 1784 -91 
Q 1150 -91 751 415 
Q 353 922 353 1747 
Q 353 2572 751 3078 
Q 1150 3584 1784 3584 
Q 2172 3584 2448 3432 
Q 2725 3281 2906 2969 
z
M 947 1747 
Q 947 1113 1208 752 
Q 1469 391 1925 391 
Q 2381 391 2643 752 
Q 2906 1113 2906 1747 
Q 2906 2381 2643 2742 
Q 2381 3103 1925 3103 
Q 1469 3103 1208 2742 
Q 947 2381 947 1747 
z
" transform="scale(0.015625)"/>
      <path id="DejaVuSans-46" d="M 628 4666 
L 3309 4666 
L 3309 4134 
L 1259 4134 
L 1259 2759 
L 3109 2759 
L 3109 2228 
L 1259 2228 
L 1259 0 
L 628 0 
L 628 4666 
z
" transform="scale(0.015625)"/>
      <path id="DejaVuSans-73" d="M 2834 3397 
L 2834 2853 
Q 2591 2978 2328 3040 
Q 2066 3103 1784 3103 
Q 1356 3103 1142 2972 
Q 928 2841 928 2578 
Q 928 2378 1081 2264 
Q 1234 2150 1697 2047 
L 1894 2003 
Q 2506 1872 2764 1633 
Q 3022 1394 3022 966 
Q 3022 478 2636 193 
Q 2250 -91 1575 -91 
Q 1294 -91 989 -36 
Q 684 19 347 128 
L 347 722 
Q 666 556 975 473 
Q 1284 391 1588 391 
Q 1994 391 2212 530 
Q 2431 669 2431 922 
Q 2431 1156 2273 1281 
Q 2116 1406 1581 1522 
L 1381 1569 
Q 847 1681 609 1914 
Q 372 2147 372 2553 
Q 372 3047 722 3315 
Q 1072 3584 1716 3584 
Q 2034 3584 2315 3537 
Q 2597 3491 2834 3397 
z
" transform="scale(0.015625)"/>
      <path id="DejaVuSans-74" d="M 1172 4494 
L 1172 3500 
L 2356 3500 
L 2356 3053 
L 1172 3053 
L 1172 1153 
Q 1172 725 1289 603 
Q 1406 481 1766 481 
L 2356 481 
L 2356 0 
L 1766 0 
Q 1100 0 847 248 
Q 594 497 594 1153 
L 594 3053 
L 172 3053 
L 172 3500 
L 594 3500 
L 594 4494 
L 1172 4494 
z
" transform="scale(0.015625)"/>
      <path id="DejaVuSans-2c" d="M 750 794 
L 1409 794 
L 1409 256 
L 897 -744 
L 494 -744 
L 750 256 
L 750 794 
z
" transform="scale(0.015625)"/>
      <path id="DejaVuSans-20" transform="scale(0.015625)"/>
      <path id="DejaVuSans-62" d="M 3116 1747 
Q 3116 2381 2855 2742 
Q 2594 3103 2138 3103 
Q 1681 3103 1420 2742 
Q 1159 2381 1159 1747 
Q 1159 1113 1420 752 
Q 1681 391 2138 391 
Q 2594 391 2855 752 
Q 3116 1113 3116 1747 
z
M 1159 2969 
Q 1341 3281 1617 3432 
Q 1894 3584 2278 3584 
Q 2916 3584 3314 3078 
Q 3713 2572 3713 1747 
Q 3713 922 3314 415 
Q 2916 -91 2278 -91 
Q 1894 -91 1617 61 
Q 1341 213 1159 525 
L 1159 0 
L 581 0 
L 581 4863 
L 1159 4863 
L 1159 2969 
z
" transform="scale(0.015625)"/>
      <path id="DejaVuSans-3d" d="M 678 2906 
L 4684 2906 
L 4684 2381 
L 678 2381 
L 678 2906 
z
M 678 1631 
L 4684 1631 
L 4684 1100 
L 678 1100 
L 678 1631 
z
" transform="scale(0.015625)"/>
      <path id="DejaVuSans-2e" d="M 684 794 
L 1344 794 
L 1344 0 
L 684 0 
L 684 794 
z
" transform="scale(0.015625)"/>
      <path id="DejaVuSans-39" d="M 703 97 
L 703 672 
Q 941 559 1184 500 
Q 1428 441 1663 441 
Q 2288 441 2617 861 
Q 2947 1281 2994 2138 
Q 2813 1869 2534 1725 
Q 2256 1581 1919 1581 
Q 1219 1581 811 2004 
Q 403 2428 403 3163 
Q 403 3881 828 4315 
Q 1253 4750 1959 4750 
Q 2769 4750 3195 4129 
Q 3622 3509 3622 2328 
Q 3622 1225 3098 567 
Q 2575 -91 1691 -91 
Q 1453 -91 1209 -44 
Q 966 3 703 97 
z
M 1959 2075 
Q 2384 2075 2632 2365 
Q 2881 2656 2881 3163 
Q 2881 3666 2632 3958 
Q 2384 4250 1959 4250 
Q 1534 4250 1286 3958 
Q 1038 3666 1038 3163 
Q 1038 2656 1286 2365 
Q 1534 2075 1959 2075 
z
" transform="scale(0.015625)"/>
      <path id="DejaVuSans-36" d="M 2113 2584 
Q 1688 2584 1439 2293 
Q 1191 2003 1191 1497 
Q 1191 994 1439 701 
Q 1688 409 2113 409 
Q 2538 409 2786 701 
Q 3034 994 3034 1497 
Q 3034 2003 2786 2293 
Q 2538 2584 2113 2584 
z
M 3366 4563 
L 3366 3988 
Q 3128 4100 2886 4159 
Q 2644 4219 2406 4219 
Q 1781 4219 1451 3797 
Q 1122 3375 1075 2522 
Q 1259 2794 1537 2939 
Q 1816 3084 2150 3084 
Q 2853 3084 3261 2657 
Q 3669 2231 3669 1497 
Q 3669 778 3244 343 
Q 2819 -91 2113 -91 
Q 1303 -91 875 529 
Q 447 1150 447 2328 
Q 447 3434 972 4092 
Q 1497 4750 2381 4750 
Q 2619 4750 2861 4703 
Q 3103 4656 3366 4563 
z
" transform="scale(0.015625)"/>
      <path id="DejaVuSans-61" d="M 2194 1759 
Q 1497 1759 1228 1600 
Q 959 1441 959 1056 
Q 959 750 1161 570 
Q 1363 391 1709 391 
Q 2188 391 2477 730 
Q 2766 1069 2766 1631 
L 2766 1759 
L 2194 1759 
z
M 3341 1997 
L 3341 0 
L 2766 0 
L 2766 531 
Q 2569 213 2275 61 
Q 1981 -91 1556 -91 
Q 1019 -91 701 211 
Q 384 513 384 1019 
Q 384 1609 779 1909 
Q 1175 2209 1959 2209 
L 2766 2209 
L 2766 2266 
Q 2766 2663 2505 2880 
Q 2244 3097 1772 3097 
Q 1472 3097 1187 3025 
Q 903 2953 641 2809 
L 641 3341 
Q 956 3463 1253 3523 
Q 1550 3584 1831 3584 
Q 2591 3584 2966 3190 
Q 3341 2797 3341 1997 
z
" transform="scale(0.015625)"/>
      <path id="DejaVuSans-37" d="M 525 4666 
L 3525 4666 
L 3525 4397 
L 1831 0 
L 1172 0 
L 2766 4134 
L 525 4134 
L 525 4666 
z
" transform="scale(0.015625)"/>
      <path id="DejaVuSans-38" d="M 2034 2216 
Q 1584 2216 1326 1975 
Q 1069 1734 1069 1313 
Q 1069 891 1326 650 
Q 1584 409 2034 409 
Q 2484 409 2743 651 
Q 3003 894 3003 1313 
Q 3003 1734 2745 1975 
Q 2488 2216 2034 2216 
z
M 1403 2484 
Q 997 2584 770 2862 
Q 544 3141 544 3541 
Q 544 4100 942 4425 
Q 1341 4750 2034 4750 
Q 2731 4750 3128 4425 
Q 3525 4100 3525 3541 
Q 3525 3141 3298 2862 
Q 3072 2584 2669 2484 
Q 3125 2378 3379 2068 
Q 3634 1759 3634 1313 
Q 3634 634 3220 271 
Q 2806 -91 2034 -91 
Q 1263 -91 848 271 
Q 434 634 434 1313 
Q 434 1759 690 2068 
Q 947 2378 1403 2484 
z
M 1172 3481 
Q 1172 3119 1398 2916 
Q 1625 2713 2034 2713 
Q 2441 2713 2670 2916 
Q 2900 3119 2900 3481 
Q 2900 3844 2670 4047 
Q 2441 4250 2034 4250 
Q 1625 4250 1398 4047 
Q 1172 3844 1172 3481 
z
" transform="scale(0.015625)"/>
     </defs>
     <use xlink:href="#DejaVuSans-53"/>
     <use xlink:href="#DejaVuSans-68" x="63.476562"/>
     <use xlink:href="#DejaVuSans-65" x="126.855469"/>
     <use xlink:href="#DejaVuSans-72" x="188.378906"/>
     <use xlink:href="#DejaVuSans-77" x="229.492188"/>
     <use xlink:href="#DejaVuSans-6f" x="311.279297"/>
     <use xlink:href="#DejaVuSans-6f" x="372.460938"/>
     <use xlink:href="#DejaVuSans-64" x="433.642578"/>
     <use xlink:href="#DejaVuSans-46" x="497.119141"/>
     <use xlink:href="#DejaVuSans-6f" x="551.013672"/>
     <use xlink:href="#DejaVuSans-72" x="612.195312"/>
     <use xlink:href="#DejaVuSans-65" x="651.058594"/>
     <use xlink:href="#DejaVuSans-73" x="712.582031"/>
     <use xlink:href="#DejaVuSans-74" x="764.681641"/>
     <use xlink:href="#DejaVuSans-2c" x="803.890625"/>
     <use xlink:href="#DejaVuSans-20" x="835.677734"/>
     <use xlink:href="#DejaVuSans-62" x="867.464844"/>
     <use xlink:href="#DejaVuSans-3d" x="930.941406"/>
     <use xlink:href="#DejaVuSans-30" x="1014.730469"/>
     <use xlink:href="#DejaVuSans-2e" x="1078.353516"/>
     <use xlink:href="#DejaVuSans-30" x="1110.140625"/>
     <use xlink:href="#DejaVuSans-39" x="1173.763672"/>
     <use xlink:href="#DejaVuSans-35" x="1237.386719"/>
     <use xlink:href="#DejaVuSans-32" x="1301.009766"/>
     <use xlink:href="#DejaVuSans-35" x="1364.632812"/>
     <use xlink:href="#DejaVuSans-36" x="1428.255859"/>
     <use xlink:href="#DejaVuSans-30" x="1491.878906"/>
     <use xlink:href="#DejaVuSans-2c" x="1555.501953"/>
     <use xlink:href="#DejaVuSans-20" x="1587.289062"/>
     <use xlink:href="#DejaVuSans-61" x="1619.076172"/>
     <use xlink:href="#DejaVuSans-3d" x="1680.355469"/>
     <use xlink:href="#DejaVuSans-30" x="1764.144531"/>
     <use xlink:href="#DejaVuSans-2e" x="1827.767578"/>
     <use xlink:href="#DejaVuSans-31" x="1859.554688"/>
     <use xlink:href="#DejaVuSans-32" x="1923.177734"/>
     <use xlink:href="#DejaVuSans-37" x="1986.800781"/>
     <use xlink:href="#DejaVuSans-34" x="2050.423828"/>
     <use xlink:href="#DejaVuSans-38" x="2114.046875"/>
     <use xlink:href="#DejaVuSans-35" x="2177.669922"/>
     <use xlink:href="#DejaVuSans-38" x="2241.292969"/>
     <use xlink:href="#DejaVuSans-2c" x="2304.916016"/>
     <use xlink:href="#DejaVuSans-20" x="2336.703125"/>
     <use xlink:href="#DejaVuSans-64" x="2368.490234"/>
     <use xlink:href="#DejaVuSans-3d" x="2431.966797"/>
     <use xlink:href="#DejaVuSans-30" x="2515.755859"/>
     <use xlink:href="#DejaVuSans-2e" x="2579.378906"/>
     <use xlink:href="#DejaVuSans-37" x="2611.166016"/>
     <use xlink:href="#DejaVuSans-34" x="2674.789062"/>
     <use xlink:href="#DejaVuSans-37" x="2738.412109"/>
     <use xlink:href="#DejaVuSans-31" x="2802.035156"/>
     <use xlink:href="#DejaVuSans-38" x="2865.658203"/>
     <use xlink:href="#DejaVuSans-38" x="2929.28125"/>
     <use xlink:href="#DejaVuSans-37" x="2992.904297"/>
    </g>
   </g>
  </g>
 </g>
 <defs>
  <clipPath id="pf30557b699">
   <rect x="55.08" y="20.736" width="332.64" height="133.056"/>
  </clipPath>
 </defs>
</svg>
