<svg xmlns="http://www.w3.org/2000/svg" xmlns:xlink="http://www.w3.org/1999/xlink" width="1152" height="1152" viewBox="0 0 864 864"><defs><style>*{stroke-linejoin:round;stroke-linecap:butt}</style></defs><g id="figure_1"><path id="patch_1" d="M0 864h864V0H0z" style="fill:#fff"/><g id="axes_1"><path id="patch_2" d="M110.16 768.96h665.28V103.68H110.16z" style="fill:#fff"/><path id="patch_3" d="M116.813 768.96a6.653 6.653 0 1 0 0-13.306 6.653 6.653 0 0 0 0 13.306z" clip-path="url(#p18a68f3cca)" style="fill:#ff0029"/><path id="patch_4" d="M116.813 755.654a6.653 6.653 0 1 0 0-13.306 6.653 6.653 0 0 0 0 13.306z" clip-path="url(#p18a68f3cca)" style="fill:#ff0029"/><path id="patch_5" d="M130.118 768.96a6.653 6.653 0 1 0 0-13.306 6.653 6.653 0 0 0 0 13.306z" clip-path="url(#p18a68f3cca)" style="fill:#ff0029"/><path id="patch_6" d="M114.152 742.687a3.992 3.992 0 1 0 0-7.984 3.992 3.992 0 0 0 0 7.984z" clip-path="url(#p18a68f3cca)" style="fill:#cdff00"/><path id="patch_7" d="M143.424 768.96a6.653 6.653 0 1 0 0-13.306 6.653 6.653 0 0 0 0 13.306z" clip-path="url(#p18a68f3cca)" style="fill:#ff0029"/><path id="patch_8" d="M123.331 758.316a2.661 2.661 0 1 0 0-5.323 2.661 2.661 0 0 0 0 5.323z" clip-path="url(#p18a68f3cca)" style="fill:#00ff8c"/><path id="patch_9" d="M116.813 735.041a6.653 6.653 0 1 0 0-13.306 6.653 6.653 0 0 0 0 13.306z" clip-path="url(#p18a68f3cca)" style="fill:#ff0029"/><path id="patch_10" d="M136.771 757.99a3.992 3.992 0 1 0 0-7.984 3.992 3.992 0 0 0 0 7.984z" clip-path="url(#p18a68f3cca)" style="fill:#cdff00"/><path id="patch_11" d="M150.712 768.96a1.996 1.996 0 1 0 0-3.992 1.996 1.996 0 0 0 0 3.992z" clip-path="url(#p18a68f3cca)" style="fill:#0018ff"/><path id="patch_12" d="M116.813 721.736a6.653 6.653 0 1 0 0-13.306 6.653 6.653 0 0 0 0 13.306z" clip-path="url(#p18a68f3cca)" style="fill:#ff0029"/><path id="patch_13" d="M156.357 768.96a3.992 3.992 0 1 0 0-7.984 3.992 3.992 0 0 0 0 7.984z" clip-path="url(#p18a68f3cca)" style="fill:#cdff00"/><path id="patch_14" d="M123.331 724.397a2.661 2.661 0 1 0 0-5.323 2.661 2.661 0 0 0 0 5.323z" clip-path="url(#p18a68f3cca)" style="fill:#00ff8c"/><path id="patch_15" d="M111.49 757.687a1.33 1.33 0 1 0 0-2.66 1.33 1.33 0 0 0 0 2.66z" clip-path="url(#p18a68f3cca)" style="fill:#ff00bf"/><path id="patch_16" d="M116.813 708.43a6.653 6.653 0 1 0 0-13.306 6.653 6.653 0 0 0 0 13.306z" clip-path="url(#p18a68f3cca)" style="fill:#ff0029"/><path id="patch_17" d="M166.663 768.96a6.653 6.653 0 1 0 0-13.306 6.653 6.653 0 0 0 0 13.306z" clip-path="url(#p18a68f3cca)" style="fill:#ff0029"/><path id="patch_18" d="M125.122 712.422a3.992 3.992 0 1 0 0-7.984 3.992 3.992 0 0 0 0 7.984z" clip-path="url(#p18a68f3cca)" style="fill:#cdff00"/><path id="patch_19" d="M112.156 696.486a1.996 1.996 0 1 0 0-3.992 1.996 1.996 0 0 0 0 3.992z" clip-path="url(#p18a68f3cca)" style="fill:#0018ff"/><path id="patch_20" d="M179.969 768.96a6.653 6.653 0 1 0 0-13.306 6.653 6.653 0 0 0 0 13.306z" clip-path="url(#p18a68f3cca)" style="fill:#ff0029"/><path id="patch_21" d="M112.821 692.542a2.661 2.661 0 1 0 0-5.323 2.661 2.661 0 0 0 0 5.323z" clip-path="url(#p18a68f3cca)" style="fill:#00ff8c"/><path id="patch_22" d="M173.316 757.437a6.653 6.653 0 1 0 0-13.306 6.653 6.653 0 0 0 0 13.306z" clip-path="url(#p18a68f3cca)" style="fill:#ff0029"/><path id="patch_23" d="M190.275 768.96a3.992 3.992 0 1 0 0-7.984 3.992 3.992 0 0 0 0 7.984z" clip-path="url(#p18a68f3cca)" style="fill:#cdff00"/><path id="patch_24" d="M116.813 688.118a6.653 6.653 0 1 0 0-13.306 6.653 6.653 0 0 0 0 13.306z" clip-path="url(#p18a68f3cca)" style="fill:#ff0029"/><path id="patch_25" d="M198.259 768.96a3.992 3.992 0 1 0 0-7.984 3.992 3.992 0 0 0 0 7.984z" clip-path="url(#p18a68f3cca)" style="fill:#cdff00"/><path id="patch_26" d="M112.821 675.711a2.661 2.661 0 1 0 0-5.322 2.661 2.661 0 0 0 0 5.322z" clip-path="url(#p18a68f3cca)" style="fill:#00ff8c"/><path id="patch_27" d="M194.267 762.501a1.996 1.996 0 1 0 0-3.992 1.996 1.996 0 0 0 0 3.992z" clip-path="url(#p18a68f3cca)" style="fill:#0018ff"/><path id="patch_28" d="M123.466 768.05a1.33 1.33 0 1 0 0-2.66 1.33 1.33 0 0 0 0 2.66z" clip-path="url(#p18a68f3cca)" style="fill:#ff00bf"/><path id="patch_29" d="M208.565 768.96a6.653 6.653 0 1 0 0-13.306 6.653 6.653 0 0 0 0 13.306z" clip-path="url(#p18a68f3cca)" style="fill:#ff0029"/><path id="patch_30" d="M116.813 671.288a6.653 6.653 0 1 0 0-13.307 6.653 6.653 0 0 0 0 13.307z" clip-path="url(#p18a68f3cca)" style="fill:#ff0029"/><path id="patch_31" d="M218.872 768.96a3.992 3.992 0 1 0 0-7.984 3.992 3.992 0 0 0 0 7.984z" clip-path="url(#p18a68f3cca)" style="fill:#cdff00"/><path id="patch_32" d="M116.813 657.982a6.653 6.653 0 1 0 0-13.306 6.653 6.653 0 0 0 0 13.306z" clip-path="url(#p18a68f3cca)" style="fill:#ff0029"/><path id="patch_33" d="M226.855 768.96a3.992 3.992 0 1 0 0-7.984 3.992 3.992 0 0 0 0 7.984z" clip-path="url(#p18a68f3cca)" style="fill:#cdff00"/><path id="patch_34" d="M123.331 660.643a2.661 2.661 0 1 0 0-5.322 2.661 2.661 0 0 0 0 5.322z" clip-path="url(#p18a68f3cca)" style="fill:#00ff8c"/><path id="patch_35" d="M112.156 646.037a1.996 1.996 0 1 0 0-3.992 1.996 1.996 0 0 0 0 3.992z" clip-path="url(#p18a68f3cca)" style="fill:#0018ff"/><path id="patch_36" d="M222.863 761.753a6.653 6.653 0 1 0 0-13.306 6.653 6.653 0 0 0 0 13.306z" clip-path="url(#p18a68f3cca)" style="fill:#ff0029"/><path id="patch_37" d="M237.162 768.96a6.653 6.653 0 1 0 0-13.306 6.653 6.653 0 0 0 0 13.306z" clip-path="url(#p18a68f3cca)" style="fill:#ff0029"/><path id="patch_38" d="M114.152 642.388a3.992 3.992 0 1 0 0-7.984 3.992 3.992 0 0 0 0 7.984z" clip-path="url(#p18a68f3cca)" style="fill:#cdff00"/><path id="patch_39" d="M245.577 768.96a2.661 2.661 0 1 0 0-5.322 2.661 2.661 0 0 0 0 5.322z" clip-path="url(#p18a68f3cca)" style="fill:#00ff8c"/><path id="patch_40" d="M136.771 768.05a1.33 1.33 0 1 0 0-2.66 1.33 1.33 0 0 0 0 2.66z" clip-path="url(#p18a68f3cca)" style="fill:#ff00bf"/><path id="patch_41" d="M116.813 634.743a6.653 6.653 0 1 0 0-13.306 6.653 6.653 0 0 0 0 13.306z" clip-path="url(#p18a68f3cca)" style="fill:#ff0029"/><path id="patch_42" d="M253.992 768.96a6.653 6.653 0 1 0 0-13.306 6.653 6.653 0 0 0 0 13.306z" clip-path="url(#p18a68f3cca)" style="fill:#ff0029"/><path id="patch_43" d="M114.152 621.775a3.992 3.992 0 1 0 0-7.984 3.992 3.992 0 0 0 0 7.984z" clip-path="url(#p18a68f3cca)" style="fill:#cdff00"/><path id="patch_44" d="M262.407 768.96a2.661 2.661 0 1 0 0-5.322 2.661 2.661 0 0 0 0 5.322z" clip-path="url(#p18a68f3cca)" style="fill:#00ff8c"/><path id="patch_45" d="M112.156 614.134a1.996 1.996 0 1 0 0-3.992 1.996 1.996 0 0 0 0 3.992z" clip-path="url(#p18a68f3cca)" style="fill:#0018ff"/><path id="patch_46" d="M270.822 768.96a6.653 6.653 0 1 0 0-13.306 6.653 6.653 0 0 0 0 13.306z" clip-path="url(#p18a68f3cca)" style="fill:#ff0029"/><path id="patch_47" d="M114.152 610.485a3.992 3.992 0 1 0 0-7.984 3.992 3.992 0 0 0 0 7.984z" clip-path="url(#p18a68f3cca)" style="fill:#cdff00"/><path id="patch_48" d="M284.128 768.96a6.653 6.653 0 1 0 0-13.306 6.653 6.653 0 0 0 0 13.306z" clip-path="url(#p18a68f3cca)" style="fill:#ff0029"/><path id="patch_49" d="M116.813 602.84a6.653 6.653 0 1 0 0-13.307 6.653 6.653 0 0 0 0 13.307z" clip-path="url(#p18a68f3cca)" style="fill:#ff0029"/><path id="patch_50" d="M277.475 757.99a3.992 3.992 0 1 0 0-7.984 3.992 3.992 0 0 0 0 7.984z" clip-path="url(#p18a68f3cca)" style="fill:#cdff00"/><path id="patch_51" d="M292.543 768.96a2.661 2.661 0 1 0 0-5.322 2.661 2.661 0 0 0 0 5.322z" clip-path="url(#p18a68f3cca)" style="fill:#00ff8c"/><path id="patch_52" d="M112.156 590.895a1.996 1.996 0 1 0 0-3.992 1.996 1.996 0 0 0 0 3.992z" clip-path="url(#p18a68f3cca)" style="fill:#0018ff"/><path id="patch_53" d="M112.4 723.066a1.33 1.33 0 1 0 0-2.66 1.33 1.33 0 0 0 0 2.66z" clip-path="url(#p18a68f3cca)" style="fill:#ff00bf"/><path id="patch_54" d="M300.958 768.96a6.653 6.653 0 1 0 0-13.306 6.653 6.653 0 0 0 0 13.306z" clip-path="url(#p18a68f3cca)" style="fill:#ff0029"/><path id="patch_55" d="M114.152 587.246a3.992 3.992 0 1 0 0-7.984 3.992 3.992 0 0 0 0 7.984z" clip-path="url(#p18a68f3cca)" style="fill:#cdff00"/><path id="patch_56" d="M314.264 768.96a6.653 6.653 0 1 0 0-13.306 6.653 6.653 0 0 0 0 13.306z" clip-path="url(#p18a68f3cca)" style="fill:#ff0029"/><path id="patch_57" d="M112.821 579.397a2.661 2.661 0 1 0 0-5.323 2.661 2.661 0 0 0 0 5.323z" clip-path="url(#p18a68f3cca)" style="fill:#00ff8c"/><path id="patch_58" d="M307.611 757.437a6.653 6.653 0 1 0 0-13.306 6.653 6.653 0 0 0 0 13.306z" clip-path="url(#p18a68f3cca)" style="fill:#ff0029"/><path id="patch_59" d="M324.57 768.96a3.992 3.992 0 1 0 0-7.984 3.992 3.992 0 0 0 0 7.984z" clip-path="url(#p18a68f3cca)" style="fill:#cdff00"/><path id="patch_60" d="M112.156 574.122a1.996 1.996 0 1 0 0-3.992 1.996 1.996 0 0 0 0 3.992z" clip-path="url(#p18a68f3cca)" style="fill:#0018ff"/><path id="patch_61" d="M334.877 768.96a6.653 6.653 0 1 0 0-13.306 6.653 6.653 0 0 0 0 13.306z" clip-path="url(#p18a68f3cca)" style="fill:#ff0029"/><path id="patch_62" d="M114.152 570.473a3.992 3.992 0 1 0 0-7.984 3.992 3.992 0 0 0 0 7.984z" clip-path="url(#p18a68f3cca)" style="fill:#cdff00"/><path id="patch_63" d="M343.292 768.96a2.661 2.661 0 1 0 0-5.322 2.661 2.661 0 0 0 0 5.322z" clip-path="url(#p18a68f3cca)" style="fill:#00ff8c"/><path id="patch_64" d="M112.4 709.76a1.33 1.33 0 1 0 0-2.66 1.33 1.33 0 0 0 0 2.66z" clip-path="url(#p18a68f3cca)" style="fill:#ff00bf"/><path id="patch_65" d="M116.813 562.828a6.653 6.653 0 1 0 0-13.307 6.653 6.653 0 0 0 0 13.307z" clip-path="url(#p18a68f3cca)" style="fill:#ff0029"/><path id="patch_66" d="M351.707 768.96a6.653 6.653 0 1 0 0-13.306 6.653 6.653 0 0 0 0 13.306z" clip-path="url(#p18a68f3cca)" style="fill:#ff0029"/><path id="patch_67" d="M114.152 549.86a3.992 3.992 0 1 0 0-7.984 3.992 3.992 0 0 0 0 7.984z" clip-path="url(#p18a68f3cca)" style="fill:#cdff00"/><path id="patch_68" d="M360.123 768.96a2.661 2.661 0 1 0 0-5.322 2.661 2.661 0 0 0 0 5.322z" clip-path="url(#p18a68f3cca)" style="fill:#00ff8c"/><path id="patch_69" d="M112.156 542.22a1.996 1.996 0 1 0 0-3.993 1.996 1.996 0 0 0 0 3.992z" clip-path="url(#p18a68f3cca)" style="fill:#0018ff"/><path id="patch_70" d="M368.538 768.96a6.653 6.653 0 1 0 0-13.306 6.653 6.653 0 0 0 0 13.306z" clip-path="url(#p18a68f3cca)" style="fill:#ff0029"/><path id="patch_71" d="M114.152 538.57a3.992 3.992 0 1 0 0-7.984 3.992 3.992 0 0 0 0 7.984z" clip-path="url(#p18a68f3cca)" style="fill:#cdff00"/><path id="patch_72" d="M381.843 768.96a6.653 6.653 0 1 0 0-13.306 6.653 6.653 0 0 0 0 13.306z" clip-path="url(#p18a68f3cca)" style="fill:#ff0029"/><path id="patch_73" d="M114.152 530.586a3.992 3.992 0 1 0 0-7.983 3.992 3.992 0 0 0 0 7.983z" clip-path="url(#p18a68f3cca)" style="fill:#cdff00"/><path id="patch_74" d="M375.19 758.45a2.661 2.661 0 1 0 0-5.323 2.661 2.661 0 0 0 0 5.323z" clip-path="url(#p18a68f3cca)" style="fill:#00ff8c"/><path id="patch_75" d="M389.131 768.96a1.996 1.996 0 1 0 0-3.992 1.996 1.996 0 0 0 0 3.992z" clip-path="url(#p18a68f3cca)" style="fill:#0018ff"/><path id="patch_76" d="M173.316 768.05a1.33 1.33 0 1 0 0-2.66 1.33 1.33 0 0 0 0 2.66z" clip-path="url(#p18a68f3cca)" style="fill:#ff00bf"/><path id="patch_77" d="M124.02 537.24a6.653 6.653 0 1 0 0-13.307 6.653 6.653 0 0 0 0 13.306z" clip-path="url(#p18a68f3cca)" style="fill:#ff0029"/><path id="patch_78" d="M116.813 522.941a6.653 6.653 0 1 0 0-13.306 6.653 6.653 0 0 0 0 13.306z" clip-path="url(#p18a68f3cca)" style="fill:#ff0029"/><path id="patch_79" d="M394.776 768.96a3.992 3.992 0 1 0 0-7.984 3.992 3.992 0 0 0 0 7.984z" clip-path="url(#p18a68f3cca)" style="fill:#cdff00"/><path id="patch_80" d="M116.813 509.636a6.653 6.653 0 1 0 0-13.307 6.653 6.653 0 0 0 0 13.307z" clip-path="url(#p18a68f3cca)" style="fill:#ff0029"/><path id="patch_81" d="M402.76 768.96a3.992 3.992 0 1 0 0-7.984 3.992 3.992 0 0 0 0 7.984z" clip-path="url(#p18a68f3cca)" style="fill:#cdff00"/><path id="patch_82" d="M123.331 512.297a2.661 2.661 0 1 0 0-5.323 2.661 2.661 0 0 0 0 5.323z" clip-path="url(#p18a68f3cca)" style="fill:#00ff8c"/><path id="patch_83" d="M112.156 497.69a1.996 1.996 0 1 0 0-3.991 1.996 1.996 0 0 0 0 3.992z" clip-path="url(#p18a68f3cca)" style="fill:#0018ff"/><path id="patch_84" d="M398.768 761.753a6.653 6.653 0 1 0 0-13.306 6.653 6.653 0 0 0 0 13.306z" clip-path="url(#p18a68f3cca)" style="fill:#ff0029"/><path id="patch_85" d="M413.066 768.96a6.653 6.653 0 1 0 0-13.306 6.653 6.653 0 0 0 0 13.306z" clip-path="url(#p18a68f3cca)" style="fill:#ff0029"/><path id="patch_86" d="M114.152 494.042a3.992 3.992 0 1 0 0-7.984 3.992 3.992 0 0 0 0 7.984z" clip-path="url(#p18a68f3cca)" style="fill:#cdff00"/><path id="patch_87" d="M421.481 768.96a2.661 2.661 0 1 0 0-5.322 2.661 2.661 0 0 0 0 5.322z" clip-path="url(#p18a68f3cca)" style="fill:#00ff8c"/><path id="patch_88" d="M112.4 659.313a1.33 1.33 0 1 0 0-2.662 1.33 1.33 0 0 0 0 2.662z" clip-path="url(#p18a68f3cca)" style="fill:#ff00bf"/><path id="patch_89" d="M116.813 486.396a6.653 6.653 0 1 0 0-13.306 6.653 6.653 0 0 0 0 13.306z" clip-path="url(#p18a68f3cca)" style="fill:#ff0029"/><path id="patch_90" d="M428 768.96a3.992 3.992 0 1 0 0-7.984 3.992 3.992 0 0 0 0 7.984z" clip-path="url(#p18a68f3cca)" style="fill:#cdff00"/><path id="patch_91" d="M112.156 474.451a1.996 1.996 0 1 0 0-3.991 1.996 1.996 0 0 0 0 3.991z" clip-path="url(#p18a68f3cca)" style="fill:#0018ff"/><path id="patch_92" d="M438.306 768.96a6.653 6.653 0 1 0 0-13.306 6.653 6.653 0 0 0 0 13.306z" clip-path="url(#p18a68f3cca)" style="fill:#ff0029"/><path id="patch_93" d="M112.821 470.508a2.661 2.661 0 1 0 0-5.323 2.661 2.661 0 0 0 0 5.323z" clip-path="url(#p18a68f3cca)" style="fill:#00ff8c"/><path id="patch_94" d="M451.612 768.96a6.653 6.653 0 1 0 0-13.306 6.653 6.653 0 0 0 0 13.306z" clip-path="url(#p18a68f3cca)" style="fill:#ff0029"/><path id="patch_95" d="M114.152 465.32a3.992 3.992 0 1 0 0-7.984 3.992 3.992 0 0 0 0 7.984z" clip-path="url(#p18a68f3cca)" style="fill:#cdff00"/><path id="patch_96" d="M444.959 757.437a6.653 6.653 0 1 0 0-13.306 6.653 6.653 0 0 0 0 13.306z" clip-path="url(#p18a68f3cca)" style="fill:#ff0029"/><path id="patch_97" d="M461.918 768.96a3.992 3.992 0 1 0 0-7.984 3.992 3.992 0 0 0 0 7.984z" clip-path="url(#p18a68f3cca)" style="fill:#cdff00"/><path id="patch_98" d="M112.821 457.47a2.661 2.661 0 1 0 0-5.322 2.661 2.661 0 0 0 0 5.323z" clip-path="url(#p18a68f3cca)" style="fill:#00ff8c"/><path id="patch_99" d="M467.563 768.96a1.996 1.996 0 1 0 0-3.992 1.996 1.996 0 0 0 0 3.992z" clip-path="url(#p18a68f3cca)" style="fill:#0018ff"/><path id="patch_100" d="M277.475 768.05a1.33 1.33 0 1 0 0-2.66 1.33 1.33 0 0 0 0 2.66z" clip-path="url(#p18a68f3cca)" style="fill:#ff00bf"/><path id="patch_101" d="M116.813 453.047a6.653 6.653 0 1 0 0-13.306 6.653 6.653 0 0 0 0 13.306z" clip-path="url(#p18a68f3cca)" style="fill:#ff0029"/><path id="patch_102" d="M473.208 768.96a3.992 3.992 0 1 0 0-7.984 3.992 3.992 0 0 0 0 7.984z" clip-path="url(#p18a68f3cca)" style="fill:#cdff00"/><path id="patch_103" d="M116.813 439.742a6.653 6.653 0 1 0 0-13.307 6.653 6.653 0 0 0 0 13.307z" clip-path="url(#p18a68f3cca)" style="fill:#ff0029"/><path id="patch_104" d="M479.727 768.96a2.661 2.661 0 1 0 0-5.322 2.661 2.661 0 0 0 0 5.322z" clip-path="url(#p18a68f3cca)" style="fill:#00ff8c"/><path id="patch_105" d="M128.336 446.394a6.653 6.653 0 1 0 0-13.306 6.653 6.653 0 0 0 0 13.306z" clip-path="url(#p18a68f3cca)" style="fill:#ff0029"/><path id="patch_106" d="M114.152 426.774a3.992 3.992 0 1 0 0-7.984 3.992 3.992 0 0 0 0 7.984z" clip-path="url(#p18a68f3cca)" style="fill:#cdff00"/><path id="patch_107" d="M484.336 768.96a1.996 1.996 0 1 0 0-3.992 1.996 1.996 0 0 0 0 3.992z" clip-path="url(#p18a68f3cca)" style="fill:#0018ff"/><path id="patch_108" d="M116.813 419.129a6.653 6.653 0 1 0 0-13.307 6.653 6.653 0 0 0 0 13.307z" clip-path="url(#p18a68f3cca)" style="fill:#ff0029"/><path id="patch_109" d="M489.981 768.96a3.992 3.992 0 1 0 0-7.984 3.992 3.992 0 0 0 0 7.984z" clip-path="url(#p18a68f3cca)" style="fill:#cdff00"/><path id="patch_110" d="M112.821 406.722a2.661 2.661 0 1 0 0-5.323 2.661 2.661 0 0 0 0 5.323z" clip-path="url(#p18a68f3cca)" style="fill:#00ff8c"/><path id="patch_111" d="M307.611 768.05a1.33 1.33 0 1 0 0-2.66 1.33 1.33 0 0 0 0 2.66z" clip-path="url(#p18a68f3cca)" style="fill:#ff00bf"/><path id="patch_112" d="M500.287 768.96a6.653 6.653 0 1 0 0-13.306 6.653 6.653 0 0 0 0 13.306z" clip-path="url(#p18a68f3cca)" style="fill:#ff0029"/><path id="patch_113" d="M114.152 401.534a3.992 3.992 0 1 0 0-7.984 3.992 3.992 0 0 0 0 7.984z" clip-path="url(#p18a68f3cca)" style="fill:#cdff00"/><path id="patch_114" d="M507.575 768.96a1.996 1.996 0 1 0 0-3.992 1.996 1.996 0 0 0 0 3.992z" clip-path="url(#p18a68f3cca)" style="fill:#0018ff"/><path id="patch_115" d="M116.813 393.889a6.653 6.653 0 1 0 0-13.307 6.653 6.653 0 0 0 0 13.307z" clip-path="url(#p18a68f3cca)" style="fill:#ff0029"/><path id="patch_116" d="M512.184 768.96a2.661 2.661 0 1 0 0-5.322 2.661 2.661 0 0 0 0 5.322z" clip-path="url(#p18a68f3cca)" style="fill:#00ff8c"/><path id="patch_117" d="M116.813 380.583a6.653 6.653 0 1 0 0-13.306 6.653 6.653 0 0 0 0 13.306z" clip-path="url(#p18a68f3cca)" style="fill:#ff0029"/><path id="patch_118" d="M518.703 768.96a3.992 3.992 0 1 0 0-7.984 3.992 3.992 0 0 0 0 7.984z" clip-path="url(#p18a68f3cca)" style="fill:#cdff00"/><path id="patch_119" d="M128.336 387.236a6.653 6.653 0 1 0 0-13.306 6.653 6.653 0 0 0 0 13.306z" clip-path="url(#p18a68f3cca)" style="fill:#ff0029"/><path id="patch_120" d="M114.152 367.615a3.992 3.992 0 1 0 0-7.983 3.992 3.992 0 0 0 0 7.983z" clip-path="url(#p18a68f3cca)" style="fill:#cdff00"/><path id="patch_121" d="M525.221 768.96a2.661 2.661 0 1 0 0-5.322 2.661 2.661 0 0 0 0 5.322z" clip-path="url(#p18a68f3cca)" style="fill:#00ff8c"/><path id="patch_122" d="M112.156 359.975a1.996 1.996 0 1 0 0-3.992 1.996 1.996 0 0 0 0 3.992z" clip-path="url(#p18a68f3cca)" style="fill:#0018ff"/><path id="patch_123" d="M375.19 768.05a1.33 1.33 0 1 0 0-2.66 1.33 1.33 0 0 0 0 2.66z" clip-path="url(#p18a68f3cca)" style="fill:#ff00bf"/><path id="patch_124" d="M533.636 768.96a6.653 6.653 0 1 0 0-13.306 6.653 6.653 0 0 0 0 13.306z" clip-path="url(#p18a68f3cca)" style="fill:#ff0029"/><path id="patch_125" d="M114.152 356.325a3.992 3.992 0 1 0 0-7.983 3.992 3.992 0 0 0 0 7.983z" clip-path="url(#p18a68f3cca)" style="fill:#cdff00"/><path id="patch_126" d="M546.942 768.96a6.653 6.653 0 1 0 0-13.306 6.653 6.653 0 0 0 0 13.306z" clip-path="url(#p18a68f3cca)" style="fill:#ff0029"/><path id="patch_127" d="M114.152 348.342a3.992 3.992 0 1 0 0-7.984 3.992 3.992 0 0 0 0 7.984z" clip-path="url(#p18a68f3cca)" style="fill:#cdff00"/><path id="patch_128" d="M540.29 758.45a2.661 2.661 0 1 0 0-5.323 2.661 2.661 0 0 0 0 5.323z" clip-path="url(#p18a68f3cca)" style="fill:#00ff8c"/><path id="patch_129" d="M554.23 768.96a1.996 1.996 0 1 0 0-3.992 1.996 1.996 0 0 0 0 3.992z" clip-path="url(#p18a68f3cca)" style="fill:#0018ff"/><path id="patch_130" d="M124.02 354.995a6.653 6.653 0 1 0 0-13.307 6.653 6.653 0 0 0 0 13.307z" clip-path="url(#p18a68f3cca)" style="fill:#ff0029"/><path id="patch_131" d="M116.813 340.697a6.653 6.653 0 1 0 0-13.307 6.653 6.653 0 0 0 0 13.307z" clip-path="url(#p18a68f3cca)" style="fill:#ff0029"/><path id="patch_132" d="M559.875 768.96a3.992 3.992 0 1 0 0-7.984 3.992 3.992 0 0 0 0 7.984z" clip-path="url(#p18a68f3cca)" style="fill:#cdff00"/><path id="patch_133" d="M112.821 328.29a2.661 2.661 0 1 0 0-5.323 2.661 2.661 0 0 0 0 5.323z" clip-path="url(#p18a68f3cca)" style="fill:#00ff8c"/><path id="patch_134" d="M112.4 510.966a1.33 1.33 0 1 0 0-2.661 1.33 1.33 0 0 0 0 2.661z" clip-path="url(#p18a68f3cca)" style="fill:#ff00bf"/><path id="patch_135" d="M570.181 768.96a6.653 6.653 0 1 0 0-13.306 6.653 6.653 0 0 0 0 13.306z" clip-path="url(#p18a68f3cca)" style="fill:#ff0029"/><path id="patch_136" d="M114.152 323.102a3.992 3.992 0 1 0 0-7.984 3.992 3.992 0 0 0 0 7.984z" clip-path="url(#p18a68f3cca)" style="fill:#cdff00"/><path id="patch_137" d="M577.47 768.96a1.996 1.996 0 1 0-.001-3.992 1.996 1.996 0 0 0 0 3.992z" clip-path="url(#p18a68f3cca)" style="fill:#0018ff"/><path id="patch_138" d="M116.813 315.456a6.653 6.653 0 1 0 0-13.306 6.653 6.653 0 0 0 0 13.306z" clip-path="url(#p18a68f3cca)" style="fill:#ff0029"/><path id="patch_139" d="M583.114 768.96a3.992 3.992 0 1 0 0-7.984 3.992 3.992 0 0 0 0 7.984z" clip-path="url(#p18a68f3cca)" style="fill:#cdff00"/><path id="patch_140" d="M112.821 303.05a2.661 2.661 0 1 0 0-5.323 2.661 2.661 0 0 0 0 5.323z" clip-path="url(#p18a68f3cca)" style="fill:#00ff8c"/><path id="patch_141" d="M593.42 768.96a6.653 6.653 0 1 0 0-13.306 6.653 6.653 0 0 0 0 13.306z" clip-path="url(#p18a68f3cca)" style="fill:#ff0029"/><path id="patch_142" d="M114.152 297.862a3.992 3.992 0 1 0 0-7.984 3.992 3.992 0 0 0 0 7.984z" clip-path="url(#p18a68f3cca)" style="fill:#cdff00"/><path id="patch_143" d="M601.836 768.96a2.661 2.661 0 1 0 0-5.322 2.661 2.661 0 0 0 0 5.322z" clip-path="url(#p18a68f3cca)" style="fill:#00ff8c"/><path id="patch_144" d="M112.156 290.22a1.996 1.996 0 1 0 0-3.991 1.996 1.996 0 0 0 0 3.992z" clip-path="url(#p18a68f3cca)" style="fill:#0018ff"/><path id="patch_145" d="M444.257 768.96a1.33 1.33 0 1 0 0-2.661 1.33 1.33 0 0 0 0 2.661z" clip-path="url(#p18a68f3cca)" style="fill:#ff00bf"/><path id="patch_146" d="M610.251 768.96a6.653 6.653 0 1 0 0-13.306 6.653 6.653 0 0 0 0 13.306z" clip-path="url(#p18a68f3cca)" style="fill:#ff0029"/><path id="patch_147" d="M116.813 287.59a6.653 6.653 0 1 0 0-13.306 6.653 6.653 0 0 0 0 13.306z" clip-path="url(#p18a68f3cca)" style="fill:#ff0029"/><path id="patch_148" d="M620.558 768.96a3.992 3.992 0 1 0 0-7.984 3.992 3.992 0 0 0 0 7.984z" clip-path="url(#p18a68f3cca)" style="fill:#cdff00"/><path id="patch_149" d="M112.821 275.183a2.661 2.661 0 1 0 0-5.322 2.661 2.661 0 0 0 0 5.322z" clip-path="url(#p18a68f3cca)" style="fill:#00ff8c"/><path id="patch_150" d="M630.864 768.96a6.653 6.653 0 1 0 0-13.306 6.653 6.653 0 0 0 0 13.306z" clip-path="url(#p18a68f3cca)" style="fill:#ff0029"/><path id="patch_151" d="M114.152 269.995a3.992 3.992 0 1 0 0-7.983 3.992 3.992 0 0 0 0 7.983z" clip-path="url(#p18a68f3cca)" style="fill:#cdff00"/><path id="patch_152" d="M638.152 768.96a1.996 1.996 0 1 0 0-3.992 1.996 1.996 0 0 0 0 3.992z" clip-path="url(#p18a68f3cca)" style="fill:#0018ff"/><path id="patch_153" d="M116.813 262.35a6.653 6.653 0 1 0 0-13.306 6.653 6.653 0 0 0 0 13.306z" clip-path="url(#p18a68f3cca)" style="fill:#ff0029"/><path id="patch_154" d="M643.797 768.96a3.992 3.992 0 1 0 0-7.984 3.992 3.992 0 0 0 0 7.984z" clip-path="url(#p18a68f3cca)" style="fill:#cdff00"/><path id="patch_155" d="M112.821 249.943a2.661 2.661 0 1 0 0-5.322 2.661 2.661 0 0 0 0 5.322z" clip-path="url(#p18a68f3cca)" style="fill:#00ff8c"/><path id="patch_156" d="M111.49 441.775a1.33 1.33 0 1 0 0-2.662 1.33 1.33 0 0 0 0 2.662z" clip-path="url(#p18a68f3cca)" style="fill:#ff00bf"/><path id="patch_157" d="M654.103 768.96a6.653 6.653 0 1 0 0-13.306 6.653 6.653 0 0 0 0 13.306z" clip-path="url(#p18a68f3cca)" style="fill:#ff0029"/><path id="patch_158" d="M114.152 244.755a3.992 3.992 0 1 0 0-7.983 3.992 3.992 0 0 0 0 7.983z" clip-path="url(#p18a68f3cca)" style="fill:#cdff00"/><path id="patch_159" d="M661.391 768.96a1.996 1.996 0 1 0 0-3.992 1.996 1.996 0 0 0 0 3.992z" clip-path="url(#p18a68f3cca)" style="fill:#0018ff"/><path id="patch_160" d="M116.813 237.11a6.653 6.653 0 1 0 0-13.306 6.653 6.653 0 0 0 0 13.306z" clip-path="url(#p18a68f3cca)" style="fill:#ff0029"/><path id="patch_161" d="M667.036 768.96a3.992 3.992 0 1 0 0-7.984 3.992 3.992 0 0 0 0 7.984z" clip-path="url(#p18a68f3cca)" style="fill:#cdff00"/><path id="patch_162" d="M112.821 224.703a2.661 2.661 0 1 0 0-5.322 2.661 2.661 0 0 0 0 5.322z" clip-path="url(#p18a68f3cca)" style="fill:#00ff8c"/><path id="patch_163" d="M677.343 768.96a6.653 6.653 0 1 0 0-13.306 6.653 6.653 0 0 0 0 13.306z" clip-path="url(#p18a68f3cca)" style="fill:#ff0029"/><path id="patch_164" d="M114.152 219.515a3.992 3.992 0 1 0 0-7.984 3.992 3.992 0 0 0 0 7.984z" clip-path="url(#p18a68f3cca)" style="fill:#cdff00"/><path id="patch_165" d="M685.758 768.96a2.661 2.661 0 1 0 0-5.322 2.661 2.661 0 0 0 0 5.322z" clip-path="url(#p18a68f3cca)" style="fill:#00ff8c"/><path id="patch_166" d="M112.156 211.874a1.996 1.996 0 1 0 0-3.992 1.996 1.996 0 0 0 0 3.992z" clip-path="url(#p18a68f3cca)" style="fill:#0018ff"/><path id="patch_167" d="M111.49 382.616a1.33 1.33 0 1 0 0-2.661 1.33 1.33 0 0 0 0 2.661z" clip-path="url(#p18a68f3cca)" style="fill:#ff00bf"/><path id="patch_168" d="M694.173 768.96a6.653 6.653 0 1 0 0-13.306 6.653 6.653 0 0 0 0 13.306z" clip-path="url(#p18a68f3cca)" style="fill:#ff0029"/><path id="patch_169" d="M116.813 209.243a6.653 6.653 0 1 0 0-13.306 6.653 6.653 0 0 0 0 13.306z" clip-path="url(#p18a68f3cca)" style="fill:#ff0029"/><path id="patch_170" d="M704.48 768.96a3.992 3.992 0 1 0 0-7.984 3.992 3.992 0 0 0 0 7.984z" clip-path="url(#p18a68f3cca)" style="fill:#cdff00"/><path id="patch_171" d="M112.821 196.837a2.661 2.661 0 1 0 0-5.323 2.661 2.661 0 0 0 0 5.323z" clip-path="url(#p18a68f3cca)" style="fill:#00ff8c"/><path id="patch_172" d="M714.786 768.96a6.653 6.653 0 1 0 0-13.306 6.653 6.653 0 0 0 0 13.306z" clip-path="url(#p18a68f3cca)" style="fill:#ff0029"/><path id="patch_173" d="M114.152 191.649a3.992 3.992 0 1 0 0-7.984 3.992 3.992 0 0 0 0 7.984z" clip-path="url(#p18a68f3cca)" style="fill:#cdff00"/><path id="patch_174" d="M722.074 768.96a1.996 1.996 0 1 0 0-3.992 1.996 1.996 0 0 0 0 3.992z" clip-path="url(#p18a68f3cca)" style="fill:#0018ff"/><path id="patch_175" d="M116.813 184.003a6.653 6.653 0 1 0 0-13.306 6.653 6.653 0 0 0 0 13.306z" clip-path="url(#p18a68f3cca)" style="fill:#ff0029"/><path id="patch_176" d="M727.719 768.96a3.992 3.992 0 1 0 0-7.984 3.992 3.992 0 0 0 0 7.984z" clip-path="url(#p18a68f3cca)" style="fill:#cdff00"/><path id="patch_177" d="M112.821 171.597a2.661 2.661 0 1 0 0-5.323 2.661 2.661 0 0 0 0 5.323z" clip-path="url(#p18a68f3cca)" style="fill:#00ff8c"/><path id="patch_178" d="M539.587 768.96a1.33 1.33 0 1 0 0-2.661 1.33 1.33 0 0 0 0 2.661z" clip-path="url(#p18a68f3cca)" style="fill:#ff00bf"/><path id="patch_179" d="M738.025 768.96a6.653 6.653 0 1 0 0-13.306 6.653 6.653 0 0 0 0 13.306z" clip-path="url(#p18a68f3cca)" style="fill:#ff0029"/><path id="patch_180" d="M114.152 166.409a3.992 3.992 0 1 0 0-7.984 3.992 3.992 0 0 0 0 7.984z" clip-path="url(#p18a68f3cca)" style="fill:#cdff00"/><path id="patch_181" d="M745.313 768.96a1.996 1.996 0 1 0 0-3.992 1.996 1.996 0 0 0 0 3.992z" clip-path="url(#p18a68f3cca)" style="fill:#0018ff"/><path id="patch_182" d="M116.813 158.763a6.653 6.653 0 1 0 0-13.306 6.653 6.653 0 0 0 0 13.306z" clip-path="url(#p18a68f3cca)" style="fill:#ff0029"/><path id="patch_183" d="M750.958 768.96a3.992 3.992 0 1 0 0-7.984 3.992 3.992 0 0 0 0 7.984z" clip-path="url(#p18a68f3cca)" style="fill:#cdff00"/><path id="patch_184" d="M112.821 146.356a2.661 2.661 0 1 0 0-5.322 2.661 2.661 0 0 0 0 5.322z" clip-path="url(#p18a68f3cca)" style="fill:#00ff8c"/><path id="patch_185" d="M761.265 768.96a6.653 6.653 0 1 0 0-13.306 6.653 6.653 0 0 0 0 13.306z" clip-path="url(#p18a68f3cca)" style="fill:#ff0029"/><path id="patch_186" d="M114.152 141.169a3.992 3.992 0 1 0 0-7.984 3.992 3.992 0 0 0 0 7.984z" clip-path="url(#p18a68f3cca)" style="fill:#cdff00"/><path id="patch_187" d="M769.68 768.96a2.661 2.661 0 1 0 0-5.322 2.661 2.661 0 0 0 0 5.322z" clip-path="url(#p18a68f3cca)" style="fill:#00ff8c"/><path id="patch_188" d="M112.156 133.528a1.996 1.996 0 1 0 0-3.992 1.996 1.996 0 0 0 0 3.992z" clip-path="url(#p18a68f3cca)" style="fill:#0018ff"/><path id="patch_189" d="M773.443 768.96a1.33 1.33 0 1 0 0-2.661 1.33 1.33 0 0 0 0 2.661z" clip-path="url(#p18a68f3cca)" style="fill:#ff00bf"/><path id="patch_190" d="M116.813 130.897a6.653 6.653 0 1 0 0-13.306 6.653 6.653 0 0 0 0 13.306z" clip-path="url(#p18a68f3cca)" style="fill:#ff0029"/><path id="patch_191" d="M114.152 117.93a3.992 3.992 0 1 0 0-7.984 3.992 3.992 0 0 0 0 7.983z" clip-path="url(#p18a68f3cca)" style="fill:#cdff00"/><path id="patch_192" d="M112.821 110.08a2.661 2.661 0 1 0 0-5.322 2.661 2.661 0 0 0 0 5.322z" clip-path="url(#p18a68f3cca)" style="fill:#00ff8c"/><g id="matplotlib.axis_1"><g id="xtick_1"><g id="line2d_1"><defs><path id="m5a09fa2d7a" d="M0 0v3.5" style="stroke:#000;stroke-width:.8"/></defs><use xlink:href="#m5a09fa2d7a" x="110.16" y="768.96" style="stroke:#000;stroke-width:.8"/></g><g id="text_1" transform="matrix(.1 0 0 -.1 106.979 783.558)"><defs><path id="DejaVuSans-30" d="M2034 4250q-487 0-733-480-245-479-245-1442 0-959 245-1439 246-480 733-480 491 0 736 480 246 480 246 1439 0 963-246 1442-245 480-736 480zm0 500q785 0 1199-621 414-620 414-1801 0-1178-414-1799Q2819-91 2034-91q-784 0-1198 620-414 621-414 1799 0 1181 414 1801 414 621 1198 621z" transform="scale(.01563)"/></defs><use xlink:href="#DejaVuSans-30"/></g></g><g id="xtick_2"><use xlink:href="#m5a09fa2d7a" id="line2d_2" x="243.216" y="768.96" style="stroke:#000;stroke-width:.8"/><g id="text_2" transform="matrix(.1 0 0 -.1 233.672 783.558)"><defs><path id="DejaVuSans-32" d="M1228 531h2203V0H469v531q359 372 979 998 621 627 780 809 303 340 423 576 121 236 121 464 0 372-261 606-261 235-680 235-297 0-627-103-329-103-704-313v638q381 153 712 231 332 78 607 78 725 0 1156-363 431-362 431-968 0-288-108-546-107-257-392-607-78-91-497-524-418-433-1181-1211z" transform="scale(.01563)"/></defs><use xlink:href="#DejaVuSans-32"/><use xlink:href="#DejaVuSans-30" x="63.623"/><use xlink:href="#DejaVuSans-30" x="127.246"/></g></g><g id="xtick_3"><use xlink:href="#m5a09fa2d7a" id="line2d_3" x="376.272" y="768.96" style="stroke:#000;stroke-width:.8"/><g id="text_3" transform="matrix(.1 0 0 -.1 366.728 783.558)"><defs><path id="DejaVuSans-34" d="M2419 4116 825 1625h1594v2491zm-166 550h794V1625h666v-525h-666V0h-628v1100H313v609l1940 2957z" transform="scale(.01563)"/></defs><use xlink:href="#DejaVuSans-34"/><use xlink:href="#DejaVuSans-30" x="63.623"/><use xlink:href="#DejaVuSans-30" x="127.246"/></g></g><g id="xtick_4"><use xlink:href="#m5a09fa2d7a" id="line2d_4" x="509.328" y="768.96" style="stroke:#000;stroke-width:.8"/><g id="text_4" transform="matrix(.1 0 0 -.1 499.784 783.558)"><defs><path id="DejaVuSans-36" d="M2113 2584q-425 0-674-291-248-290-248-796 0-503 248-796 249-292 674-292t673 292q248 293 248 796 0 506-248 796-248 291-673 291zm1253 1979v-575q-238 112-480 171-242 60-480 60-625 0-955-422-329-422-376-1275 184 272 462 417 279 145 613 145 703 0 1111-427 408-426 408-1160 0-719-425-1154Q2819-91 2113-91q-810 0-1238 620-428 621-428 1799 0 1106 525 1764t1409 658q238 0 480-47t505-140z" transform="scale(.01563)"/></defs><use xlink:href="#DejaVuSans-36"/><use xlink:href="#DejaVuSans-30" x="63.623"/><use xlink:href="#DejaVuSans-30" x="127.246"/></g></g><g id="xtick_5"><use xlink:href="#m5a09fa2d7a" id="line2d_5" x="642.384" y="768.96" style="stroke:#000;stroke-width:.8"/><g id="text_5" transform="matrix(.1 0 0 -.1 632.84 783.558)"><defs><path id="DejaVuSans-38" d="M2034 2216q-450 0-708-241-257-241-257-662 0-422 257-663 258-241 708-241t709 242q260 243 260 662 0 421-258 662-257 241-711 241zm-631 268q-406 100-633 378-226 279-226 679 0 559 398 884 399 325 1092 325 697 0 1094-325t397-884q0-400-227-679-226-278-629-378 456-106 710-416 255-309 255-755 0-679-414-1042Q2806-91 2034-91q-771 0-1186 362-414 363-414 1042 0 446 256 755 257 310 713 416zm-231 997q0-362 226-565 227-203 636-203 407 0 636 203 230 203 230 565 0 363-230 566-229 203-636 203-409 0-636-203-226-203-226-566z" transform="scale(.01563)"/></defs><use xlink:href="#DejaVuSans-38"/><use xlink:href="#DejaVuSans-30" x="63.623"/><use xlink:href="#DejaVuSans-30" x="127.246"/></g></g><g id="xtick_6"><use xlink:href="#m5a09fa2d7a" id="line2d_6" x="775.44" y="768.96" style="stroke:#000;stroke-width:.8"/><g id="text_6" transform="matrix(.1 0 0 -.1 762.715 783.558)"><defs><path id="DejaVuSans-31" d="M794 531h1031v3560L703 3866v575l1116 225h631V531h1031V0H794v531z" transform="scale(.01563)"/></defs><use xlink:href="#DejaVuSans-31"/><use xlink:href="#DejaVuSans-30" x="63.623"/><use xlink:href="#DejaVuSans-30" x="127.246"/><use xlink:href="#DejaVuSans-30" x="190.869"/></g></g></g><g id="matplotlib.axis_2"><g id="ytick_1"><g id="line2d_7"><defs><path id="mb9545996d0" d="M0 0h-3.5" style="stroke:#000;stroke-width:.8"/></defs><use xlink:href="#mb9545996d0" x="110.16" y="768.96" style="stroke:#000;stroke-width:.8"/></g><use xlink:href="#DejaVuSans-30" id="text_7" transform="matrix(.1 0 0 -.1 96.797 772.76)"/></g><g id="ytick_2"><use xlink:href="#mb9545996d0" id="line2d_8" x="110.16" y="635.904" style="stroke:#000;stroke-width:.8"/><g id="text_8" transform="matrix(.1 0 0 -.1 84.073 639.703)"><use xlink:href="#DejaVuSans-32"/><use xlink:href="#DejaVuSans-30" x="63.623"/><use xlink:href="#DejaVuSans-30" x="127.246"/></g></g><g id="ytick_3"><use xlink:href="#mb9545996d0" id="line2d_9" x="110.16" y="502.848" style="stroke:#000;stroke-width:.8"/><g id="text_9" transform="matrix(.1 0 0 -.1 84.073 506.647)"><use xlink:href="#DejaVuSans-34"/><use xlink:href="#DejaVuSans-30" x="63.623"/><use xlink:href="#DejaVuSans-30" x="127.246"/></g></g><g id="ytick_4"><use xlink:href="#mb9545996d0" id="line2d_10" x="110.16" y="369.792" style="stroke:#000;stroke-width:.8"/><g id="text_10" transform="matrix(.1 0 0 -.1 84.073 373.591)"><use xlink:href="#DejaVuSans-36"/><use xlink:href="#DejaVuSans-30" x="63.623"/><use xlink:href="#DejaVuSans-30" x="127.246"/></g></g><g id="ytick_5"><use xlink:href="#mb9545996d0" id="line2d_11" x="110.16" y="236.736" style="stroke:#000;stroke-width:.8"/><g id="text_11" transform="matrix(.1 0 0 -.1 84.073 240.535)"><use xlink:href="#DejaVuSans-38"/><use xlink:href="#DejaVuSans-30" x="63.623"/><use xlink:href="#DejaVuSans-30" x="127.246"/></g></g><g id="ytick_6"><use xlink:href="#mb9545996d0" id="line2d_12" x="110.16" y="103.68" style="stroke:#000;stroke-width:.8"/><g id="text_12" transform="matrix(.1 0 0 -.1 77.71 107.48)"><use xlink:href="#DejaVuSans-31"/><use xlink:href="#DejaVuSans-30" x="63.623"/><use xlink:href="#DejaVuSans-30" x="127.246"/><use xlink:href="#DejaVuSans-30" x="190.869"/></g></g></g><path id="patch_193" d="M110.16 768.96V103.68" style="fill:none;stroke:#000;stroke-width:.8;stroke-linejoin:miter;stroke-linecap:square"/><path id="patch_194" d="M775.44 768.96V103.68" style="fill:none;stroke:#000;stroke-width:.8;stroke-linejoin:miter;stroke-linecap:square"/><path id="patch_195" d="M110.16 768.96h665.28" style="fill:none;stroke:#000;stroke-width:.8;stroke-linejoin:miter;stroke-linecap:square"/><path id="patch_196" d="M110.16 103.68h665.28" style="fill:none;stroke:#000;stroke-width:.8;stroke-linejoin:miter;stroke-linecap:square"/><g id="text_13" transform="matrix(.12 0 0 -.12 277.783 97.68)"><defs><path id="DejaVuSans-4d" d="M628 4666h941l1190-3175 1197 3175h941V0h-616v4097L3078 897h-634L1241 4097V0H628v4666z" transform="scale(.01563)"/><path id="DejaVuSans-61" d="M2194 1759q-697 0-966-159t-269-544q0-306 202-486 202-179 548-179 479 0 768 339t289 901v128h-572zm1147 238V0h-575v531q-197-318-491-470T1556-91q-537 0-855 302-317 302-317 808 0 590 395 890 396 300 1180 300h807v57q0 397-261 614t-733 217q-300 0-585-72-284-72-546-216v532q315 122 612 182 297 61 578 61 760 0 1135-394 375-393 375-1193z" transform="scale(.01563)"/><path id="DejaVuSans-64" d="M2906 2969v1894h575V0h-575v525q-181-312-458-464-276-152-664-152-634 0-1033 506-398 507-398 1332t398 1331q399 506 1033 506 388 0 664-152 277-151 458-463zM947 1747q0-634 261-995t717-361q456 0 718 361 263 361 263 995t-263 995q-262 361-718 361t-717-361q-261-361-261-995z" transform="scale(.01563)"/><path id="DejaVuSans-57" d="M213 4666h637l981-3944 978 3944h710l981-3944 978 3944h641L4947 0h-794l-984 4050L2175 0h-794L213 4666z" transform="scale(.01563)"/><path id="DejaVuSans-6f" d="M1959 3097q-462 0-731-361t-269-989q0-628 267-989 268-361 733-361 460 0 728 362 269 363 269 988 0 622-269 986-268 364-728 364zm0 487q750 0 1178-488 429-487 429-1349 0-859-429-1349Q2709-91 1959-91q-753 0-1180 489-426 490-426 1349 0 862 426 1349 427 488 1180 488z" transform="scale(.01563)"/><path id="DejaVuSans-72" d="M2631 2963q-97 56-211 82-114 27-251 27-488 0-749-317t-261-911V0H581v3500h578v-544q182 319 472 473 291 155 707 155 59 0 131-8 72-7 159-23l3-590z" transform="scale(.01563)"/><path id="DejaVuSans-6c" d="M603 4863h575V0H603v4863z" transform="scale(.01563)"/><path id="DejaVuSans-2c" d="M750 794h659V256L897-744H494L750 256v538z" transform="scale(.01563)"/><path id="DejaVuSans-62" d="M3116 1747q0 634-261 995t-717 361q-457 0-718-361t-261-995q0-634 261-995t718-361q456 0 717 361t261 995zM1159 2969q182 312 458 463 277 152 661 152 638 0 1036-506 399-506 399-1331T3314 415Q2916-91 2278-91q-384 0-661 152-276 152-458 464V0H581v4863h578V2969z" transform="scale(.01563)"/><path id="DejaVuSans-3d" d="M678 2906h4006v-525H678v525zm0-1275h4006v-531H678v531z" transform="scale(.01563)"/><path id="DejaVuSans-2e" d="M684 794h660V0H684v794z" transform="scale(.01563)"/><path id="DejaVuSans-37" d="M525 4666h3000v-269L1831 0h-659l1594 4134H525v532z" transform="scale(.01563)"/><path id="DejaVuSans-39" d="M703 97v575q238-113 481-172 244-59 479-59 625 0 954 420 330 420 377 1277-181-269-460-413-278-144-615-144-700 0-1108 423-408 424-408 1159 0 718 425 1152 425 435 1131 435 810 0 1236-621 427-620 427-1801 0-1103-524-1761Q2575-91 1691-91q-238 0-482 47Q966 3 703 97zm1256 1978q425 0 673 290 249 291 249 798 0 503-249 795-248 292-673 292t-673-292q-248-292-248-795 0-507 248-798 248-290 673-290z" transform="scale(.01563)"/><path id="DejaVuSans-33" d="M2597 2516q453-97 707-404 255-306 255-756 0-690-475-1069Q2609-91 1734-91q-293 0-604 58T488 141v609q262-153 574-231 313-78 654-78 593 0 904 234t311 681q0 413-289 645-289 233-804 233h-544v519h569q465 0 712 186t247 536q0 359-255 551-254 193-729 193-260 0-557-57-297-56-653-174v562q360 100 674 150t592 50q719 0 1137-327 419-326 419-882 0-388-222-655t-631-370z" transform="scale(.01563)"/><path id="DejaVuSans-35" d="M691 4666h2478v-532H1269V2991q137 47 274 70 138 23 276 23 781 0 1237-428 457-428 457-1159 0-753-469-1171Q2575-91 1722-91q-294 0-599 50Q819 9 494 109v635q281-153 581-228t634-75q541 0 856 284 316 284 316 772 0 487-316 771-315 285-856 285-253 0-505-56-251-56-513-175v2344z" transform="scale(.01563)"/></defs><use xlink:href="#DejaVuSans-4d"/><use xlink:href="#DejaVuSans-61" x="86.279"/><use xlink:href="#DejaVuSans-64" x="147.559"/><use xlink:href="#DejaVuSans-57" x="211.035"/><use xlink:href="#DejaVuSans-6f" x="304.037"/><use xlink:href="#DejaVuSans-72" x="365.219"/><use xlink:href="#DejaVuSans-6c" x="406.332"/><use xlink:href="#DejaVuSans-64" x="434.115"/><use xlink:href="#DejaVuSans-2c" x="497.592"/><use xlink:href="#DejaVuSans-20" x="529.379"/><use xlink:href="#DejaVuSans-62" x="561.166"/><use xlink:href="#DejaVuSans-3d" x="624.643"/><use xlink:href="#DejaVuSans-30" x="708.432"/><use xlink:href="#DejaVuSans-2e" x="772.055"/><use xlink:href="#DejaVuSans-30" x="803.842"/><use xlink:href="#DejaVuSans-32" x="867.465"/><use xlink:href="#DejaVuSans-32" x="931.088"/><use xlink:href="#DejaVuSans-31" x="994.711"/><use xlink:href="#DejaVuSans-34" x="1058.334"/><use xlink:href="#DejaVuSans-36" x="1121.957"/><use xlink:href="#DejaVuSans-37" x="1185.58"/><use xlink:href="#DejaVuSans-2c" x="1249.203"/><use xlink:href="#DejaVuSans-20" x="1280.99"/><use xlink:href="#DejaVuSans-61" x="1312.777"/><use xlink:href="#DejaVuSans-3d" x="1374.057"/><use xlink:href="#DejaVuSans-30" x="1457.846"/><use xlink:href="#DejaVuSans-2e" x="1521.469"/><use xlink:href="#DejaVuSans-30" x="1553.256"/><use xlink:href="#DejaVuSans-32" x="1616.879"/><use xlink:href="#DejaVuSans-39" x="1680.502"/><use xlink:href="#DejaVuSans-34" x="1744.125"/><use xlink:href="#DejaVuSans-34" x="1807.748"/><use xlink:href="#DejaVuSans-33" x="1871.371"/><use xlink:href="#DejaVuSans-30" x="1934.994"/><use xlink:href="#DejaVuSans-2c" x="1998.617"/><use xlink:href="#DejaVuSans-20" x="2030.404"/><use xlink:href="#DejaVuSans-64" x="2062.191"/><use xlink:href="#DejaVuSans-3d" x="2125.668"/><use xlink:href="#DejaVuSans-30" x="2209.457"/><use xlink:href="#DejaVuSans-2e" x="2273.08"/><use xlink:href="#DejaVuSans-37" x="2304.867"/><use xlink:href="#DejaVuSans-35" x="2368.49"/><use xlink:href="#DejaVuSans-32" x="2432.113"/><use xlink:href="#DejaVuSans-31" x="2495.736"/><use xlink:href="#DejaVuSans-38" x="2559.359"/><use xlink:href="#DejaVuSans-38" x="2622.982"/><use xlink:href="#DejaVuSans-34" x="2686.605"/></g></g></g><defs><clipPath id="p18a68f3cca"><path d="M110.16 103.68h665.28v665.28H110.16z"/></clipPath></defs></svg>