<svg xmlns="http://www.w3.org/2000/svg" xmlns:xlink="http://www.w3.org/1999/xlink" width="1152" height="1152" viewBox="0 0 864 864"><defs><style>*{stroke-linejoin:round;stroke-linecap:butt}</style></defs><g id="figure_1"><path id="patch_1" d="M0 864h864V0H0z" style="fill:#fff"/><g id="axes_1"><path id="patch_2" d="M110.16 768.96h665.28V103.68H110.16z" style="fill:#fff"/><path id="patch_3" d="M152.738 768.96a42.58 42.58 0 0 0 42.578-42.578 42.58 42.58 0 0 0-42.578-42.578 42.58 42.58 0 0 0-42.578 42.578 42.58 42.58 0 0 0 42.578 42.578z" clip-path="url(#p475b18f202)" style="fill:#00ff8c"/><path id="patch_4" d="M152.738 683.804a42.58 42.58 0 0 0 42.578-42.578 42.58 42.58 0 0 0-42.578-42.578 42.58 42.58 0 0 0-42.578 42.578 42.58 42.58 0 0 0 42.578 42.578z" clip-path="url(#p475b18f202)" style="fill:#00ff8c"/><path id="patch_5" d="M237.894 768.96a42.58 42.58 0 0 0 42.578-42.578 42.58 42.58 0 0 0-42.578-42.578 42.58 42.58 0 0 0-42.578 42.578 42.58 42.58 0 0 0 42.578 42.578z" clip-path="url(#p475b18f202)" style="fill:#00ff8c"/><path id="patch_6" d="M131.449 602.3a21.29 21.29 0 1 0 0-42.579 21.29 21.29 0 0 0 0 42.58z" clip-path="url(#p475b18f202)" style="fill:#00ff16"/><path id="patch_7" d="M298.108 768.96a21.29 21.29 0 1 0 0-42.58 21.29 21.29 0 0 0 0 42.58z" clip-path="url(#p475b18f202)" style="fill:#00fffd"/><path id="patch_8" d="M152.738 563.376a42.58 42.58 0 0 0 42.578-42.578 42.58 42.58 0 0 0-42.578-42.578 42.58 42.58 0 0 0-42.578 42.578 42.58 42.58 0 0 0 42.578 42.578z" clip-path="url(#p475b18f202)" style="fill:#00ff8c"/><path id="patch_9" d="M358.322 768.96a42.58 42.58 0 0 0 42.578-42.578 42.58 42.58 0 0 0-42.578-42.578 42.58 42.58 0 0 0-42.578 42.578 42.58 42.58 0 0 0 42.578 42.578z" clip-path="url(#p475b18f202)" style="fill:#00ff8c"/><path id="patch_10" d="M131.449 481.872a21.29 21.29 0 1 0 0-42.58 21.29 21.29 0 0 0 0 42.58z" clip-path="url(#p475b18f202)" style="fill:#00ff16"/><path id="patch_11" d="M418.537 768.96a21.29 21.29 0 1 0-.001-42.58 21.29 21.29 0 0 0 0 42.58z" clip-path="url(#p475b18f202)" style="fill:#00fffd"/><path id="patch_12" d="M120.804 694.449a10.645 10.645 0 1 0 0-21.29 10.645 10.645 0 0 0 0 21.29z" clip-path="url(#p475b18f202)" style="fill:#5cff00"/><path id="patch_13" d="M195.316 768.96a10.645 10.645 0 1 0 0-21.29 10.645 10.645 0 0 0 0 21.29z" clip-path="url(#p475b18f202)" style="fill:#008fff"/><path id="patch_14" d="M152.738 442.947a42.58 42.58 0 0 0 42.578-42.578 42.58 42.58 0 0 0-42.578-42.578 42.58 42.58 0 0 0-42.578 42.578 42.58 42.58 0 0 0 42.578 42.578z" clip-path="url(#p475b18f202)" style="fill:#00ff8c"/><path id="patch_15" d="M478.75 768.96a42.58 42.58 0 0 0 42.579-42.578 42.58 42.58 0 0 0-42.578-42.578 42.58 42.58 0 0 0-42.578 42.578 42.58 42.58 0 0 0 42.578 42.578z" clip-path="url(#p475b18f202)" style="fill:#00ff8c"/><path id="patch_16" d="M131.449 361.444a21.29 21.29 0 1 0 0-42.58 21.29 21.29 0 0 0 0 42.58z" clip-path="url(#p475b18f202)" style="fill:#00ff16"/><path id="patch_17" d="M538.965 768.96a21.29 21.29 0 1 0 0-42.58 21.29 21.29 0 0 0 0 42.58z" clip-path="url(#p475b18f202)" style="fill:#00fffd"/><path id="patch_18" d="M152.738 322.519a42.58 42.58 0 0 0 42.578-42.578 42.58 42.58 0 0 0-42.578-42.578 42.58 42.58 0 0 0-42.578 42.578 42.58 42.58 0 0 0 42.578 42.578z" clip-path="url(#p475b18f202)" style="fill:#00ff8c"/><path id="patch_19" d="M599.18 768.96a42.58 42.58 0 0 0 42.577-42.578 42.58 42.58 0 0 0-42.578-42.578 42.58 42.58 0 0 0-42.578 42.578 42.58 42.58 0 0 0 42.578 42.578z" clip-path="url(#p475b18f202)" style="fill:#00ff8c"/><path id="patch_20" d="M131.449 241.015a21.29 21.29 0 1 0 0-42.58 21.29 21.29 0 0 0 0 42.58z" clip-path="url(#p475b18f202)" style="fill:#00ff16"/><path id="patch_21" d="M659.394 768.96a21.29 21.29 0 1 0-.001-42.58 21.29 21.29 0 0 0 0 42.58z" clip-path="url(#p475b18f202)" style="fill:#00fffd"/><path id="patch_22" d="M184.671 694.449a10.645 10.645 0 1 0 0-21.29 10.645 10.645 0 0 0 0 21.29z" clip-path="url(#p475b18f202)" style="fill:#5cff00"/><path id="patch_23" d="M120.804 200.264a10.645 10.645 0 1 0 0-21.29 10.645 10.645 0 0 0 0 21.29z" clip-path="url(#p475b18f202)" style="fill:#008fff"/><path id="patch_24" d="M122.63 768.96a5.322 5.322 0 1 0 0-10.645 5.322 5.322 0 0 0 0 10.645z" clip-path="url(#p475b18f202)" style="fill:#cdff00"/><path id="patch_25" d="M195.316 709.76a5.322 5.322 0 1 0 0-10.645 5.322 5.322 0 0 0 0 10.645z" clip-path="url(#p475b18f202)" style="fill:#0018ff"/><path id="patch_26" d="M719.608 768.96a42.58 42.58 0 0 0 42.578-42.578 42.58 42.58 0 0 0-42.578-42.578 42.58 42.58 0 0 0-42.578 42.578 42.58 42.58 0 0 0 42.578 42.578z" clip-path="url(#p475b18f202)" style="fill:#00ff8c"/><path id="patch_27" d="M152.738 189.62a42.58 42.58 0 0 0 42.578-42.579 42.58 42.58 0 0 0-42.578-42.578 42.58 42.58 0 0 0-42.578 42.578 42.58 42.58 0 0 0 42.578 42.578z" clip-path="url(#p475b18f202)" style="fill:#00ff8c"/><path id="patch_28" d="M762.186 768.96a10.645 10.645 0 1 0 0-21.29 10.645 10.645 0 0 0 0 21.29z" clip-path="url(#p475b18f202)" style="fill:#5cff00"/><path id="patch_29" d="M115.482 435.799a5.322 5.322 0 1 0 0-10.645 5.322 5.322 0 0 0 0 10.645z" clip-path="url(#p475b18f202)" style="fill:#cdff00"/><path id="patch_30" d="M448.644 768.96a5.322 5.322 0 1 0 0-10.645 5.322 5.322 0 0 0 0 10.645z" clip-path="url(#p475b18f202)" style="fill:#0018ff"/><path id="patch_31" d="M112.821 202.925a2.661 2.661 0 1 0 0-5.323 2.661 2.661 0 0 0 0 5.323z" clip-path="url(#p475b18f202)" style="fill:#ffba00"/><path id="patch_32" d="M115.104 768.96a2.661 2.661 0 1 0 0-5.322 2.661 2.661 0 0 0 0 5.322z" clip-path="url(#p475b18f202)" style="fill:#5a00ff"/><path id="patch_33" d="M508.858 768.96a5.322 5.322 0 1 0 0-10.645 5.322 5.322 0 0 0 0 10.645z" clip-path="url(#p475b18f202)" style="fill:#cdff00"/><path id="patch_34" d="M115.482 375.584a5.322 5.322 0 1 0 0-10.645 5.322 5.322 0 0 0 0 10.645z" clip-path="url(#p475b18f202)" style="fill:#0018ff"/><path id="patch_35" d="M397.248 768.96a5.322 5.322 0 1 0 0-10.645 5.322 5.322 0 0 0 0 10.645z" clip-path="url(#p475b18f202)" style="fill:#cdff00"/><path id="patch_36" d="M115.482 324.188a5.322 5.322 0 1 0 0-10.645 5.322 5.322 0 0 0 0 10.645z" clip-path="url(#p475b18f202)" style="fill:#0018ff"/><path id="patch_37" d="M112.821 170.991a2.661 2.661 0 1 0 0-5.322 2.661 2.661 0 0 0 0 5.322z" clip-path="url(#p475b18f202)" style="fill:#ffba00"/><path id="patch_38" d="M751.541 768.96a2.661 2.661 0 1 0 0-5.322 2.661 2.661 0 0 0 0 5.322z" clip-path="url(#p475b18f202)" style="fill:#5a00ff"/><path id="patch_39" d="M195.316 716.985a1.33 1.33 0 1 0 0-2.66 1.33 1.33 0 0 0 0 2.66z" clip-path="url(#p475b18f202)" style="fill:#ff4800"/><path id="patch_40" d="M769.713 768.96a1.33 1.33 0 1 0 0-2.661 1.33 1.33 0 0 0 0 2.661z" clip-path="url(#p475b18f202)" style="fill:#cd00ff"/><path id="patch_41" d="M115.482 487.195a5.322 5.322 0 1 0 0-10.645 5.322 5.322 0 0 0 0 10.645z" clip-path="url(#p475b18f202)" style="fill:#cdff00"/><path id="patch_42" d="M560.254 768.96a5.322 5.322 0 1 0 0-10.645 5.322 5.322 0 0 0 0 10.645z" clip-path="url(#p475b18f202)" style="fill:#0018ff"/><path id="patch_43" d="M115.482 616.441a5.322 5.322 0 1 0 0-10.645 5.322 5.322 0 0 0 0 10.645z" clip-path="url(#p475b18f202)" style="fill:#cdff00"/><path id="patch_44" d="M268 768.96a5.322 5.322 0 1 0 0-10.645 5.322 5.322 0 0 0 0 10.645z" clip-path="url(#p475b18f202)" style="fill:#0018ff"/><path id="patch_45" d="M516.385 768.96a2.661 2.661 0 1 0 0-5.322 2.661 2.661 0 0 0 0 5.322z" clip-path="url(#p475b18f202)" style="fill:#ffba00"/><path id="patch_46" d="M112.821 365.396a2.661 2.661 0 1 0 0-5.322 2.661 2.661 0 0 0 0 5.322z" clip-path="url(#p475b18f202)" style="fill:#5a00ff"/><path id="patch_47" d="M115.482 565.045a5.322 5.322 0 1 0 0-10.645 5.322 5.322 0 0 0 0 10.645z" clip-path="url(#p475b18f202)" style="fill:#cdff00"/><path id="patch_48" d="M319.397 768.96a5.322 5.322 0 1 0 0-10.645 5.322 5.322 0 0 0 0 10.645z" clip-path="url(#p475b18f202)" style="fill:#0018ff"/><path id="patch_49" d="M115.482 255.156a5.322 5.322 0 1 0 0-10.645 5.322 5.322 0 0 0 0 10.645z" clip-path="url(#p475b18f202)" style="fill:#cdff00"/><path id="patch_50" d="M629.287 768.96a5.322 5.322 0 1 0 0-10.645 5.322 5.322 0 0 0 0 10.645z" clip-path="url(#p475b18f202)" style="fill:#0018ff"/><path id="patch_51" d="M746.22 768.96a2.661 2.661 0 1 0-.001-5.322 2.661 2.661 0 0 0 0 5.322z" clip-path="url(#p475b18f202)" style="fill:#ffba00"/><path id="patch_52" d="M112.821 492.06a2.661 2.661 0 1 0 0-5.322 2.661 2.661 0 0 0 0 5.322z" clip-path="url(#p475b18f202)" style="fill:#5a00ff"/><path id="patch_53" d="M549.61 768.96a1.33 1.33 0 1 0 0-2.661 1.33 1.33 0 0 0 0 2.661z" clip-path="url(#p475b18f202)" style="fill:#ff4800"/><path id="patch_54" d="M552.27 768.96a1.33 1.33 0 1 0 0-2.661 1.33 1.33 0 0 0 0 2.661z" clip-path="url(#p475b18f202)" style="fill:#cd00ff"/><path id="patch_55" d="M748.88 768.96a.665.665 0 1 0 0-1.33.665.665 0 0 0 0 1.33z" clip-path="url(#p475b18f202)" style="fill:#ff0029"/><path id="patch_56" d="M110.825 486.301a.665.665 0 1 0 0-1.33.665.665 0 0 0 0 1.33z" clip-path="url(#p475b18f202)" style="fill:#ff00bf"/><path id="patch_57" d="M680.683 768.96a5.322 5.322 0 1 0 0-10.645 5.322 5.322 0 0 0 0 10.645z" clip-path="url(#p475b18f202)" style="fill:#cdff00"/><path id="patch_58" d="M115.482 122.256a5.322 5.322 0 1 0 0-10.645 5.322 5.322 0 0 0 0 10.645z" clip-path="url(#p475b18f202)" style="fill:#0018ff"/><path id="patch_59" d="M441.117 768.96a2.661 2.661 0 1 0 0-5.322 2.661 2.661 0 0 0 0 5.322z" clip-path="url(#p475b18f202)" style="fill:#ffba00"/><path id="patch_60" d="M456.17 768.96a2.661 2.661 0 1 0 0-5.322 2.661 2.661 0 0 0 0 5.322z" clip-path="url(#p475b18f202)" style="fill:#5a00ff"/><path id="patch_61" d="M501.331 768.96a2.661 2.661 0 1 0 0-5.322 2.661 2.661 0 0 0 0 5.322z" clip-path="url(#p475b18f202)" style="fill:#ffba00"/><path id="patch_62" d="M275.528 768.96a2.661 2.661 0 1 0 0-5.322 2.661 2.661 0 0 0 0 5.322z" clip-path="url(#p475b18f202)" style="fill:#5a00ff"/><path id="patch_63" d="M111.49 325.519a1.33 1.33 0 1 0 0-2.662 1.33 1.33 0 0 0 0 2.662z" clip-path="url(#p475b18f202)" style="fill:#ff4800"/><path id="patch_64" d="M111.49 477.88a1.33 1.33 0 1 0 0-2.66 1.33 1.33 0 0 0 0 2.66z" clip-path="url(#p475b18f202)" style="fill:#cd00ff"/><path id="patch_65" d="M521.707 768.96a2.661 2.661 0 1 0 0-5.322 2.661 2.661 0 0 0 0 5.322z" clip-path="url(#p475b18f202)" style="fill:#ffba00"/><path id="patch_66" d="M112.821 360.074a2.661 2.661 0 1 0 0-5.322 2.661 2.661 0 0 0 0 5.322z" clip-path="url(#p475b18f202)" style="fill:#5a00ff"/><path id="patch_67" d="M326.924 768.96a2.661 2.661 0 1 0 0-5.322 2.661 2.661 0 0 0 0 5.322z" clip-path="url(#p475b18f202)" style="fill:#ffba00"/><path id="patch_68" d="M112.821 244.968a2.661 2.661 0 1 0 0-5.323 2.661 2.661 0 0 0 0 5.323z" clip-path="url(#p475b18f202)" style="fill:#5a00ff"/><path id="patch_69" d="M554.932 768.96a1.33 1.33 0 1 0 0-2.661 1.33 1.33 0 0 0 0 2.661z" clip-path="url(#p475b18f202)" style="fill:#ff4800"/><path id="patch_70" d="M670.038 768.96a1.33 1.33 0 1 0 0-2.661 1.33 1.33 0 0 0 0 2.661z" clip-path="url(#p475b18f202)" style="fill:#cd00ff"/><path id="patch_71" d="M505.095 768.96a.665.665 0 1 0 0-1.33.665.665 0 0 0 0 1.33z" clip-path="url(#p475b18f202)" style="fill:#ff0029"/><path id="patch_72" d="M512.621 768.96a.665.665 0 1 0 0-1.33.665.665 0 0 0 0 1.33z" clip-path="url(#p475b18f202)" style="fill:#ff00bf"/><path id="patch_73" d="M112.821 260.021a2.661 2.661 0 1 0 0-5.322 2.661 2.661 0 0 0 0 5.322z" clip-path="url(#p475b18f202)" style="fill:#ffba00"/><path id="patch_74" d="M112.821 554.857a2.661 2.661 0 1 0 0-5.322 2.661 2.661 0 0 0 0 5.322z" clip-path="url(#p475b18f202)" style="fill:#5a00ff"/><path id="patch_75" d="M621.76 768.96a2.661 2.661 0 1 0 0-5.322 2.661 2.661 0 0 0 0 5.322z" clip-path="url(#p475b18f202)" style="fill:#ffba00"/><path id="patch_76" d="M636.813 768.96a2.661 2.661 0 1 0 0-5.322 2.661 2.661 0 0 0 0 5.322z" clip-path="url(#p475b18f202)" style="fill:#5a00ff"/><path id="patch_77" d="M459.934 768.96a1.33 1.33 0 1 0 0-2.661 1.33 1.33 0 0 0 0 2.661z" clip-path="url(#p475b18f202)" style="fill:#ff4800"/><path id="patch_78" d="M314.075 768.96a1.33 1.33 0 1 0 0-2.661 1.33 1.33 0 0 0 0 2.661z" clip-path="url(#p475b18f202)" style="fill:#cd00ff"/><path id="patch_79" d="M748.88 764.35a2.661 2.661 0 1 0 0-5.322 2.661 2.661 0 0 0 0 5.323z" clip-path="url(#p475b18f202)" style="fill:#ffba00"/><path id="patch_80" d="M260.474 768.96a2.661 2.661 0 1 0 0-5.322 2.661 2.661 0 0 0 0 5.322z" clip-path="url(#p475b18f202)" style="fill:#5a00ff"/><path id="patch_81" d="M112.821 621.307a2.661 2.661 0 1 0 0-5.322 2.661 2.661 0 0 0 0 5.322z" clip-path="url(#p475b18f202)" style="fill:#ffba00"/><path id="patch_82" d="M740.897 768.96a2.661 2.661 0 1 0 0-5.322 2.661 2.661 0 0 0 0 5.322z" clip-path="url(#p475b18f202)" style="fill:#5a00ff"/><path id="patch_83" d="M614.233 768.96a1.33 1.33 0 1 0 0-2.661 1.33 1.33 0 0 0 0 2.661z" clip-path="url(#p475b18f202)" style="fill:#ff4800"/><path id="patch_84" d="M111.49 328.18a1.33 1.33 0 1 0 0-2.661 1.33 1.33 0 0 0 0 2.66z" clip-path="url(#p475b18f202)" style="fill:#cd00ff"/><path id="patch_85" d="M756.864 768.96a.665.665 0 1 0 0-1.33.665.665 0 0 0 0 1.33z" clip-path="url(#p475b18f202)" style="fill:#ff0029"/><path id="patch_86" d="M264.238 768.96a.665.665 0 1 0 0-1.33.665.665 0 0 0 0 1.33z" clip-path="url(#p475b18f202)" style="fill:#ff00bf"/><path id="patch_87" d="M112.821 606.253a2.661 2.661 0 1 0 0-5.322 2.661 2.661 0 0 0 0 5.322z" clip-path="url(#p475b18f202)" style="fill:#ffba00"/><path id="patch_88" d="M112.821 497.383a2.661 2.661 0 1 0 0-5.323 2.661 2.661 0 0 0 0 5.323z" clip-path="url(#p475b18f202)" style="fill:#5a00ff"/><path id="patch_89" d="M112.821 112.068a2.661 2.661 0 1 0 0-5.322 2.661 2.661 0 0 0 0 5.322z" clip-path="url(#p475b18f202)" style="fill:#ffba00"/><path id="patch_90" d="M688.21 768.96a2.661 2.661 0 1 0 0-5.322 2.661 2.661 0 0 0 0 5.322z" clip-path="url(#p475b18f202)" style="fill:#5a00ff"/><path id="patch_91" d="M111.49 352.13a1.33 1.33 0 1 0 0-2.661 1.33 1.33 0 0 0 0 2.66z" clip-path="url(#p475b18f202)" style="fill:#ff4800"/><path id="patch_92" d="M672.7 768.96a1.33 1.33 0 1 0 0-2.661 1.33 1.33 0 0 0 0 2.661z" clip-path="url(#p475b18f202)" style="fill:#cd00ff"/><path id="patch_93" d="M112.821 127.122a2.661 2.661 0 1 0 0-5.322 2.661 2.661 0 0 0 0 5.322z" clip-path="url(#p475b18f202)" style="fill:#ffba00"/><path id="patch_94" d="M567.78 768.96a2.661 2.661 0 1 0 0-5.322 2.661 2.661 0 0 0 0 5.322z" clip-path="url(#p475b18f202)" style="fill:#5a00ff"/><path id="patch_95" d="M435.795 768.96a2.661 2.661 0 1 0 0-5.322 2.661 2.661 0 0 0 0 5.322z" clip-path="url(#p475b18f202)" style="fill:#ffba00"/><path id="patch_96" d="M519.046 764.35a2.661 2.661 0 1 0 0-5.322 2.661 2.661 0 0 0 0 5.323z" clip-path="url(#p475b18f202)" style="fill:#5a00ff"/><path id="patch_97" d="M617.996 768.96a1.33 1.33 0 1 0 0-2.661 1.33 1.33 0 0 0 0 2.661z" clip-path="url(#p475b18f202)" style="fill:#ff4800"/><path id="patch_98" d="M111.49 262.454a1.33 1.33 0 1 0 0-2.661 1.33 1.33 0 0 0 0 2.661z" clip-path="url(#p475b18f202)" style="fill:#cd00ff"/><path id="patch_99" d="M444.88 768.96a.665.665 0 1 0 0-1.33.665.665 0 0 0 0 1.33z" clip-path="url(#p475b18f202)" style="fill:#ff0029"/><path id="patch_100" d="M519.046 768.96a.665.665 0 1 0 0-1.33.665.665 0 0 0 0 1.33z" clip-path="url(#p475b18f202)" style="fill:#ff00bf"/><path id="patch_101" d="M280.85 768.96a2.661 2.661 0 1 0 0-5.322 2.661 2.661 0 0 0 0 5.322z" clip-path="url(#p475b18f202)" style="fill:#ffba00"/><path id="patch_102" d="M117.43 362.735a2.661 2.661 0 1 0 0-5.322 2.661 2.661 0 0 0 0 5.322z" clip-path="url(#p475b18f202)" style="fill:#5a00ff"/><path id="patch_103" d="M112.821 176.314a2.661 2.661 0 1 0 0-5.323 2.661 2.661 0 0 0 0 5.323z" clip-path="url(#p475b18f202)" style="fill:#ffba00"/><path id="patch_104" d="M332.246 768.96a2.661 2.661 0 1 0 0-5.322 2.661 2.661 0 0 0 0 5.322z" clip-path="url(#p475b18f202)" style="fill:#5a00ff"/><path id="patch_105" d="M772.374 768.96a1.33 1.33 0 1 0 0-2.661 1.33 1.33 0 0 0 0 2.661z" clip-path="url(#p475b18f202)" style="fill:#ff4800"/><path id="patch_106" d="M256.71 768.96a1.33 1.33 0 1 0 0-2.661 1.33 1.33 0 0 0 0 2.661z" clip-path="url(#p475b18f202)" style="fill:#cd00ff"/><path id="patch_107" d="M112.821 549.535a2.661 2.661 0 1 0 0-5.322 2.661 2.661 0 0 0 0 5.322z" clip-path="url(#p475b18f202)" style="fill:#ffba00"/><path id="patch_108" d="M642.136 768.96a2.661 2.661 0 1 0 0-5.322 2.661 2.661 0 0 0 0 5.322z" clip-path="url(#p475b18f202)" style="fill:#5a00ff"/><path id="patch_109" d="M112.821 600.931a2.661 2.661 0 1 0 0-5.322 2.661 2.661 0 0 0 0 5.322z" clip-path="url(#p475b18f202)" style="fill:#ffba00"/><path id="patch_110" d="M117.43 494.721a2.661 2.661 0 1 0 0-5.322 2.661 2.661 0 0 0 0 5.322z" clip-path="url(#p475b18f202)" style="fill:#5a00ff"/><path id="patch_111" d="M111.49 205.358a1.33 1.33 0 1 0 0-2.662 1.33 1.33 0 0 0 0 2.662z" clip-path="url(#p475b18f202)" style="fill:#ff4800"/><path id="patch_112" d="M113.795 326.85a1.33 1.33 0 1 0 0-2.662 1.33 1.33 0 0 0 0 2.661z" clip-path="url(#p475b18f202)" style="fill:#cd00ff"/><path id="patch_113" d="M754.202 768.96a.665.665 0 1 0 0-1.33.665.665 0 0 0 0 1.33z" clip-path="url(#p475b18f202)" style="fill:#ff0029"/><path id="patch_114" d="M110.825 245.633a.665.665 0 1 0 0-1.33.665.665 0 0 0 0 1.33z" clip-path="url(#p475b18f202)" style="fill:#ff00bf"/><path id="patch_115" d="M693.532 768.96a2.661 2.661 0 1 0 0-5.322 2.661 2.661 0 0 0 0 5.322z" clip-path="url(#p475b18f202)" style="fill:#ffba00"/><path id="patch_116" d="M573.103 768.96a2.661 2.661 0 1 0 0-5.322 2.661 2.661 0 0 0 0 5.322z" clip-path="url(#p475b18f202)" style="fill:#5a00ff"/><path id="patch_117" d="M438.456 764.35a2.661 2.661 0 1 0 0-5.322 2.661 2.661 0 0 0 0 5.323z" clip-path="url(#p475b18f202)" style="fill:#ffba00"/><path id="patch_118" d="M112.821 239.646a2.661 2.661 0 1 0 0-5.323 2.661 2.661 0 0 0 0 5.323z" clip-path="url(#p475b18f202)" style="fill:#5a00ff"/><path id="patch_119" d="M111.49 165.897a1.33 1.33 0 1 0 0-2.66 1.33 1.33 0 0 0 0 2.66z" clip-path="url(#p475b18f202)" style="fill:#ff4800"/><path id="patch_120" d="M111.49 566.376a1.33 1.33 0 1 0 0-2.661 1.33 1.33 0 0 0 0 2.66z" clip-path="url(#p475b18f202)" style="fill:#cd00ff"/><path id="patch_121" d="M112.821 181.636a2.661 2.661 0 1 0 0-5.323 2.661 2.661 0 0 0 0 5.323z" clip-path="url(#p475b18f202)" style="fill:#ffba00"/><path id="patch_122" d="M329.585 764.35a2.661 2.661 0 1 0 0-5.322 2.661 2.661 0 0 0 0 5.323z" clip-path="url(#p475b18f202)" style="fill:#5a00ff"/><path id="patch_123" d="M112.821 424.32a2.661 2.661 0 1 0 0-5.323 2.661 2.661 0 0 0 0 5.322z" clip-path="url(#p475b18f202)" style="fill:#ffba00"/><path id="patch_124" d="M112.821 381.741a2.661 2.661 0 1 0 0-5.322 2.661 2.661 0 0 0 0 5.322z" clip-path="url(#p475b18f202)" style="fill:#5a00ff"/><path id="patch_125" d="M111.49 354.98a1.33 1.33 0 1 0 0-2.661 1.33 1.33 0 0 0 0 2.661z" clip-path="url(#p475b18f202)" style="fill:#ff4800"/><path id="patch_126" d="M525.47 768.96a1.33 1.33 0 1 0 0-2.661 1.33 1.33 0 0 0 0 2.661z" clip-path="url(#p475b18f202)" style="fill:#cd00ff"/><path id="patch_127" d="M625.523 768.96a.665.665 0 1 0 0-1.33.665.665 0 0 0 0 1.33z" clip-path="url(#p475b18f202)" style="fill:#ff0029"/><path id="patch_128" d="M323.16 768.96a.665.665 0 1 0 0-1.33.665.665 0 0 0 0 1.33z" clip-path="url(#p475b18f202)" style="fill:#ff00bf"/><path id="patch_129" d="M205.96 768.96a2.661 2.661 0 1 0 0-5.322 2.661 2.661 0 0 0 0 5.322z" clip-path="url(#p475b18f202)" style="fill:#ffba00"/><path id="patch_130" d="M112.821 303.89a2.661 2.661 0 1 0 0-5.322 2.661 2.661 0 0 0 0 5.323z" clip-path="url(#p475b18f202)" style="fill:#5a00ff"/><path id="patch_131" d="M130.158 768.96a2.661 2.661 0 1 0 0-5.322 2.661 2.661 0 0 0 0 5.322z" clip-path="url(#p475b18f202)" style="fill:#ffba00"/><path id="patch_132" d="M112.821 440.664a2.661 2.661 0 1 0 0-5.322 2.661 2.661 0 0 0 0 5.322z" clip-path="url(#p475b18f202)" style="fill:#5a00ff"/><path id="patch_133" d="M402.57 768.96a1.33 1.33 0 1 0 0-2.661 1.33 1.33 0 0 0 0 2.661z" clip-path="url(#p475b18f202)" style="fill:#ff4800"/><path id="patch_134" d="M111.49 623.74a1.33 1.33 0 1 0 0-2.661 1.33 1.33 0 0 0 0 2.66z" clip-path="url(#p475b18f202)" style="fill:#cd00ff"/><path id="patch_135" d="M389.72 768.96a2.661 2.661 0 1 0 0-5.322 2.661 2.661 0 0 0 0 5.322z" clip-path="url(#p475b18f202)" style="fill:#ffba00"/><path id="patch_136" d="M112.821 314a2.661 2.661 0 1 0 0-5.322 2.661 2.661 0 0 0 0 5.322z" clip-path="url(#p475b18f202)" style="fill:#5a00ff"/><path id="patch_137" d="M184.671 768.96a2.661 2.661 0 1 0 0-5.322 2.661 2.661 0 0 0 0 5.322z" clip-path="url(#p475b18f202)" style="fill:#ffba00"/><path id="patch_138" d="M278.189 764.35a2.661 2.661 0 1 0 0-5.322 2.661 2.661 0 0 0 0 5.323z" clip-path="url(#p475b18f202)" style="fill:#5a00ff"/><path id="patch_139" d="M111.49 475.22a1.33 1.33 0 1 0 0-2.662 1.33 1.33 0 0 0 0 2.662z" clip-path="url(#p475b18f202)" style="fill:#ff4800"/><path id="patch_140" d="M111.49 499.815a1.33 1.33 0 1 0 0-2.66 1.33 1.33 0 0 0 0 2.66z" clip-path="url(#p475b18f202)" style="fill:#cd00ff"/><path id="patch_141" d="M438.456 768.96a.665.665 0 1 0 0-1.33.665.665 0 0 0 0 1.33z" clip-path="url(#p475b18f202)" style="fill:#ff0029"/><path id="patch_142" d="M110.825 113.836a.665.665 0 1 0 0-1.33.665.665 0 0 0 0 1.33z" clip-path="url(#p475b18f202)" style="fill:#ff00bf"/><path id="patch_143" d="M112.821 697.11a2.661 2.661 0 1 0 0-5.323 2.661 2.661 0 0 0 0 5.323z" clip-path="url(#p475b18f202)" style="fill:#ffba00"/><path id="patch_144" d="M117.43 552.196a2.661 2.661 0 1 0 0-5.322 2.661 2.661 0 0 0 0 5.322z" clip-path="url(#p475b18f202)" style="fill:#5a00ff"/><path id="patch_145" d="M639.474 764.35a2.661 2.661 0 1 0 0-5.322 2.661 2.661 0 0 0 0 5.323z" clip-path="url(#p475b18f202)" style="fill:#ffba00"/><path id="patch_146" d="M112.821 675.82a2.661 2.661 0 1 0 0-5.322 2.661 2.661 0 0 0 0 5.323z" clip-path="url(#p475b18f202)" style="fill:#5a00ff"/><path id="patch_147" d="M737.134 768.96a1.33 1.33 0 1 0 0-2.661 1.33 1.33 0 0 0 0 2.661z" clip-path="url(#p475b18f202)" style="fill:#ff4800"/><path id="patch_148" d="M111.49 330.841a1.33 1.33 0 1 0 0-2.661 1.33 1.33 0 0 0 0 2.661z" clip-path="url(#p475b18f202)" style="fill:#cd00ff"/><path id="patch_149" d="M117.43 603.592a2.661 2.661 0 1 0 0-5.322 2.661 2.661 0 0 0 0 5.322z" clip-path="url(#p475b18f202)" style="fill:#ffba00"/><path id="patch_150" d="M690.87 764.35a2.661 2.661 0 1 0 0-5.322 2.661 2.661 0 0 0 0 5.323z" clip-path="url(#p475b18f202)" style="fill:#5a00ff"/><path id="patch_151" d="M112.821 448.191a2.661 2.661 0 1 0 0-5.323 2.661 2.661 0 0 0 0 5.323z" clip-path="url(#p475b18f202)" style="fill:#ffba00"/><path id="patch_152" d="M379.611 768.96a2.661 2.661 0 1 0 0-5.322 2.661 2.661 0 0 0 0 5.322z" clip-path="url(#p475b18f202)" style="fill:#5a00ff"/><path id="patch_153" d="M115.796 172.322a1.33 1.33 0 1 0 0-2.661 1.33 1.33 0 0 0 0 2.66z" clip-path="url(#p475b18f202)" style="fill:#ff4800"/><path id="patch_154" d="M336.01 768.96a1.33 1.33 0 1 0 0-2.661 1.33 1.33 0 0 0 0 2.661z" clip-path="url(#p475b18f202)" style="fill:#cd00ff"/><path id="patch_155" d="M639.474 768.96a.665.665 0 1 0 0-1.33.665.665 0 0 0 0 1.33z" clip-path="url(#p475b18f202)" style="fill:#ff0029"/><path id="patch_156" d="M110.825 550.2a.665.665 0 1 0 0-1.33.665.665 0 0 0 0 1.33z" clip-path="url(#p475b18f202)" style="fill:#ff00bf"/><path id="patch_157" d="M112.821 707.754a2.661 2.661 0 1 0 0-5.322 2.661 2.661 0 0 0 0 5.322z" clip-path="url(#p475b18f202)" style="fill:#ffba00"/><path id="patch_158" d="M112.821 750.332a2.661 2.661 0 1 0 0-5.322 2.661 2.661 0 0 0 0 5.322z" clip-path="url(#p475b18f202)" style="fill:#5a00ff"/><path id="patch_159" d="M174.027 768.96a2.661 2.661 0 1 0 0-5.322 2.661 2.661 0 0 0 0 5.322z" clip-path="url(#p475b18f202)" style="fill:#ffba00"/><path id="patch_160" d="M137.45 686.465a2.661 2.661 0 1 0 0-5.322 2.661 2.661 0 0 0 0 5.322z" clip-path="url(#p475b18f202)" style="fill:#5a00ff"/><path id="patch_161" d="M645.899 768.96a1.33 1.33 0 1 0 0-2.661 1.33 1.33 0 0 0 0 2.661z" clip-path="url(#p475b18f202)" style="fill:#ff4800"/><path id="patch_162" d="M111.49 595.837a1.33 1.33 0 1 0 0-2.661 1.33 1.33 0 0 0 0 2.661z" clip-path="url(#p475b18f202)" style="fill:#cd00ff"/><path id="patch_163" d="M168.025 686.465a2.661 2.661 0 1 0 0-5.322 2.661 2.661 0 0 0 0 5.322z" clip-path="url(#p475b18f202)" style="fill:#ffba00"/><path id="patch_164" d="M112.821 665.176a2.661 2.661 0 1 0 0-5.322 2.661 2.661 0 0 0 0 5.322z" clip-path="url(#p475b18f202)" style="fill:#5a00ff"/><path id="patch_165" d="M195.316 744.33a2.661 2.661 0 1 0 0-5.322 2.661 2.661 0 0 0 0 5.322z" clip-path="url(#p475b18f202)" style="fill:#ffba00"/><path id="patch_166" d="M216.605 768.96a2.661 2.661 0 1 0 0-5.322 2.661 2.661 0 0 0 0 5.322z" clip-path="url(#p475b18f202)" style="fill:#5a00ff"/><path id="patch_167" d="M697.295 768.96a1.33 1.33 0 1 0 0-2.661 1.33 1.33 0 0 0 0 2.661z" clip-path="url(#p475b18f202)" style="fill:#ff4800"/><path id="patch_168" d="M576.866 768.96a1.33 1.33 0 1 0 0-2.661 1.33 1.33 0 0 0 0 2.661z" clip-path="url(#p475b18f202)" style="fill:#cd00ff"/><path id="patch_169" d="M110.825 616.65a.665.665 0 1 0 0-1.33.665.665 0 0 0 0 1.33z" clip-path="url(#p475b18f202)" style="fill:#ff0029"/><path id="patch_170" d="M110.825 377.084a.665.665 0 1 0 0-1.33.665.665 0 0 0 0 1.33z" clip-path="url(#p475b18f202)" style="fill:#ff00bf"/><path id="patch_171" d="M570.442 764.35a2.661 2.661 0 1 0 0-5.322 2.661 2.661 0 0 0 0 5.323z" clip-path="url(#p475b18f202)" style="fill:#ffba00"/><path id="patch_172" d="M117.43 242.307a2.661 2.661 0 1 0 0-5.323 2.661 2.661 0 0 0 0 5.323z" clip-path="url(#p475b18f202)" style="fill:#5a00ff"/><path id="patch_173" d="M117.43 178.975a2.661 2.661 0 1 0 0-5.323 2.661 2.661 0 0 0 0 5.323z" clip-path="url(#p475b18f202)" style="fill:#ffba00"/><path id="patch_174" d="M211.283 768.96a2.661 2.661 0 1 0 0-5.322 2.661 2.661 0 0 0 0 5.322z" clip-path="url(#p475b18f202)" style="fill:#5a00ff"/><path id="patch_175" d="M111.49 234.552a1.33 1.33 0 1 0 0-2.662 1.33 1.33 0 0 0 0 2.662z" clip-path="url(#p475b18f202)" style="fill:#ff4800"/><path id="patch_176" d="M111.49 569.037a1.33 1.33 0 1 0 0-2.661 1.33 1.33 0 0 0 0 2.66z" clip-path="url(#p475b18f202)" style="fill:#cd00ff"/><path id="patch_177" d="M179.35 768.96a2.661 2.661 0 1 0-.001-5.322 2.661 2.661 0 0 0 0 5.322z" clip-path="url(#p475b18f202)" style="fill:#ffba00"/><path id="patch_178" d="M112.821 702.432a2.661 2.661 0 1 0 0-5.322 2.661 2.661 0 0 0 0 5.322z" clip-path="url(#p475b18f202)" style="fill:#5a00ff"/><path id="patch_179" d="M112.821 670.499a2.661 2.661 0 1 0 0-5.323 2.661 2.661 0 0 0 0 5.323z" clip-path="url(#p475b18f202)" style="fill:#ffba00"/><path id="patch_180" d="M112.821 755.654a2.661 2.661 0 1 0 0-5.322 2.661 2.661 0 0 0 0 5.322z" clip-path="url(#p475b18f202)" style="fill:#5a00ff"/><path id="patch_181" d="M111.49 384.174a1.33 1.33 0 1 0 0-2.661 1.33 1.33 0 0 0 0 2.661z" clip-path="url(#p475b18f202)" style="fill:#ff4800"/><path id="patch_182" d="M528.132 768.96a1.33 1.33 0 1 0 0-2.661 1.33 1.33 0 0 0 0 2.661z" clip-path="url(#p475b18f202)" style="fill:#cd00ff"/><path id="patch_183" d="M774.255 768.96a.665.665 0 1 0 0-1.33.665.665 0 0 0 0 1.33z" clip-path="url(#p475b18f202)" style="fill:#ff0029"/><path id="patch_184" d="M110.825 601.596a.665.665 0 1 0 0-1.33.665.665 0 0 0 0 1.33z" clip-path="url(#p475b18f202)" style="fill:#ff00bf"/><path id="patch_185" d="M208.621 764.35a2.661 2.661 0 1 0 0-5.322 2.661 2.661 0 0 0 0 5.323z" clip-path="url(#p475b18f202)" style="fill:#ffba00"/><path id="patch_186" d="M182.01 764.35a2.661 2.661 0 1 0 0-5.322 2.661 2.661 0 0 0 0 5.323z" clip-path="url(#p475b18f202)" style="fill:#5a00ff"/><path id="patch_187" d="M117.43 699.77a2.661 2.661 0 1 0 0-5.322 2.661 2.661 0 0 0 0 5.323z" clip-path="url(#p475b18f202)" style="fill:#ffba00"/><path id="patch_188" d="M117.43 673.16a2.661 2.661 0 1 0 0-5.323 2.661 2.661 0 0 0 0 5.323z" clip-path="url(#p475b18f202)" style="fill:#5a00ff"/><path id="patch_189" d="M111.49 298.797a1.33 1.33 0 1 0 0-2.662 1.33 1.33 0 0 0 0 2.662z" clip-path="url(#p475b18f202)" style="fill:#ff4800"/><path id="patch_190" d="M111.49 419.225a1.33 1.33 0 1 0 0-2.661 1.33 1.33 0 0 0 0 2.661z" clip-path="url(#p475b18f202)" style="fill:#cd00ff"/><path id="patch_191" d="M112.821 760.977a2.661 2.661 0 1 0 0-5.323 2.661 2.661 0 0 0 0 5.323z" clip-path="url(#p475b18f202)" style="fill:#ffba00"/><path id="patch_192" d="M117.43 758.316a2.661 2.661 0 1 0 0-5.323 2.661 2.661 0 0 0 0 5.323z" clip-path="url(#p475b18f202)" style="fill:#5a00ff"/><path id="patch_193" d="M111.49 306.324a1.33 1.33 0 1 0 0-2.662 1.33 1.33 0 0 0 0 2.662z" clip-path="url(#p475b18f202)" style="fill:#ff4800"/><path id="patch_194" d="M111.49 208.019a1.33 1.33 0 1 0 0-2.661 1.33 1.33 0 0 0 0 2.66z" clip-path="url(#p475b18f202)" style="fill:#cd00ff"/><path id="patch_195" d="M570.442 768.96a.665.665 0 1 0 0-1.33.665.665 0 0 0 0 1.33z" clip-path="url(#p475b18f202)" style="fill:#ff0029"/><path id="patch_196" d="M110.825 240.31a.665.665 0 1 0 0-1.33.665.665 0 0 0 0 1.33z" clip-path="url(#p475b18f202)" style="fill:#ff00bf"/><path id="patch_197" d="M111.49 443.097a1.33 1.33 0 1 0 0-2.661 1.33 1.33 0 0 0 0 2.661z" clip-path="url(#p475b18f202)" style="fill:#ff4800"/><path id="patch_198" d="M133.921 768.96a1.33 1.33 0 1 0 0-2.661 1.33 1.33 0 0 0 0 2.661z" clip-path="url(#p475b18f202)" style="fill:#cd00ff"/><path id="patch_199" d="M405.231 768.96a1.33 1.33 0 1 0 0-2.661 1.33 1.33 0 0 0 0 2.661z" clip-path="url(#p475b18f202)" style="fill:#ff4800"/><path id="patch_200" d="M111.49 626.401a1.33 1.33 0 1 0 0-2.661 1.33 1.33 0 0 0 0 2.661z" clip-path="url(#p475b18f202)" style="fill:#cd00ff"/><path id="patch_201" d="M110.825 163.35a.665.665 0 1 0 0-1.33.665.665 0 0 0 0 1.33z" clip-path="url(#p475b18f202)" style="fill:#ff0029"/><path id="patch_202" d="M110.825 176.979a.665.665 0 1 0 0-1.33.665.665 0 0 0 0 1.33z" clip-path="url(#p475b18f202)" style="fill:#ff00bf"/><path id="patch_203" d="M385.957 768.96a1.33 1.33 0 1 0 0-2.661 1.33 1.33 0 0 0 0 2.661z" clip-path="url(#p475b18f202)" style="fill:#ff4800"/><path id="patch_204" d="M254.05 768.96a1.33 1.33 0 1 0 0-2.661 1.33 1.33 0 0 0 0 2.661z" clip-path="url(#p475b18f202)" style="fill:#cd00ff"/><path id="patch_205" d="M111.49 544.441a1.33 1.33 0 1 0 0-2.661 1.33 1.33 0 0 0 0 2.661z" clip-path="url(#p475b18f202)" style="fill:#ff4800"/><path id="patch_206" d="M113.795 476.55a1.33 1.33 0 1 0 0-2.661 1.33 1.33 0 0 0 0 2.661z" clip-path="url(#p475b18f202)" style="fill:#cd00ff"/><path id="patch_207" d="M110.825 606.919a.665.665 0 1 0 0-1.33.665.665 0 0 0 0 1.33z" clip-path="url(#p475b18f202)" style="fill:#ff0029"/><path id="patch_208" d="M755.533 768.96a.665.665 0 1 0 0-1.33.665.665 0 0 0 0 1.33z" clip-path="url(#p475b18f202)" style="fill:#ff00bf"/><path id="patch_209" d="M648.56 768.96a1.33 1.33 0 1 0 0-2.661 1.33 1.33 0 0 0 0 2.661z" clip-path="url(#p475b18f202)" style="fill:#ff4800"/><path id="patch_210" d="M111.49 593.176a1.33 1.33 0 1 0 0-2.661 1.33 1.33 0 0 0 0 2.661z" clip-path="url(#p475b18f202)" style="fill:#cd00ff"/><path id="patch_211" d="M170.263 768.96a1.33 1.33 0 1 0 0-2.661 1.33 1.33 0 0 0 0 2.661z" clip-path="url(#p475b18f202)" style="fill:#ff4800"/><path id="patch_212" d="M111.49 660.082a1.33 1.33 0 1 0 0-2.66 1.33 1.33 0 0 0 0 2.66z" clip-path="url(#p475b18f202)" style="fill:#cd00ff"/><path id="patch_213" d="M110.825 309.343a.665.665 0 1 0 0-1.33.665.665 0 0 0 0 1.33z" clip-path="url(#p475b18f202)" style="fill:#ff0029"/><path id="patch_214" d="M110.825 314.666a.665.665 0 1 0 0-1.331.665.665 0 0 0 0 1.33z" clip-path="url(#p475b18f202)" style="fill:#ff00bf"/><path id="patch_215" d="M111.49 745.238a1.33 1.33 0 1 0 0-2.661 1.33 1.33 0 0 0 0 2.661z" clip-path="url(#p475b18f202)" style="fill:#ff4800"/><path id="patch_216" d="M220.368 768.96a1.33 1.33 0 1 0 0-2.661 1.33 1.33 0 0 0 0 2.661z" clip-path="url(#p475b18f202)" style="fill:#cd00ff"/><path id="patch_217" d="M111.49 710.187a1.33 1.33 0 1 0 0-2.661 1.33 1.33 0 0 0 0 2.661z" clip-path="url(#p475b18f202)" style="fill:#ff4800"/><path id="patch_218" d="M699.956 768.96a1.33 1.33 0 1 0 0-2.661 1.33 1.33 0 0 0 0 2.661z" clip-path="url(#p475b18f202)" style="fill:#cd00ff"/><path id="patch_219" d="M110.825 692.453a.665.665 0 1 0 0-1.33.665.665 0 0 0 0 1.33z" clip-path="url(#p475b18f202)" style="fill:#ff0029"/><path id="patch_220" d="M110.825 697.775a.665.665 0 1 0 0-1.33.665.665 0 0 0 0 1.33z" clip-path="url(#p475b18f202)" style="fill:#ff00bf"/><path id="patch_221" d="M579.528 768.96a1.33 1.33 0 1 0 0-2.661 1.33 1.33 0 0 0 0 2.661z" clip-path="url(#p475b18f202)" style="fill:#ff4800"/><path id="patch_222" d="M113.795 567.706a1.33 1.33 0 1 0 0-2.66 1.33 1.33 0 0 0 0 2.66z" clip-path="url(#p475b18f202)" style="fill:#cd00ff"/><path id="patch_223" d="M111.49 231.89a1.33 1.33 0 1 0 0-2.66 1.33 1.33 0 0 0 0 2.66z" clip-path="url(#p475b18f202)" style="fill:#ff4800"/><path id="patch_224" d="M111.49 571.698a1.33 1.33 0 1 0 0-2.661 1.33 1.33 0 0 0 0 2.661z" clip-path="url(#p475b18f202)" style="fill:#cd00ff"/><path id="patch_225" d="M110.825 671.164a.665.665 0 1 0 0-1.33.665.665 0 0 0 0 1.33z" clip-path="url(#p475b18f202)" style="fill:#ff0029"/><path id="patch_226" d="M182.01 768.96a.665.665 0 1 0 0-1.33.665.665 0 0 0 0 1.33z" clip-path="url(#p475b18f202)" style="fill:#ff00bf"/><path id="patch_227" d="M338.67 768.96a1.33 1.33 0 1 0 0-2.661 1.33 1.33 0 0 0 0 2.661z" clip-path="url(#p475b18f202)" style="fill:#ff4800"/><path id="patch_228" d="M111.49 763.41a1.33 1.33 0 1 0 0-2.662 1.33 1.33 0 0 0 0 2.661z" clip-path="url(#p475b18f202)" style="fill:#cd00ff"/><path id="patch_229" d="M115.796 751.663a1.33 1.33 0 1 0 0-2.662 1.33 1.33 0 0 0 0 2.662z" clip-path="url(#p475b18f202)" style="fill:#ff4800"/><path id="patch_230" d="M113.795 206.688a1.33 1.33 0 1 0 0-2.661 1.33 1.33 0 0 0 0 2.661z" clip-path="url(#p475b18f202)" style="fill:#cd00ff"/><path id="patch_231" d="M392.382 768.96a.665.665 0 1 0 0-1.33.665.665 0 0 0 0 1.33z" clip-path="url(#p475b18f202)" style="fill:#ff0029"/><path id="patch_232" d="M187.332 768.96a.665.665 0 1 0 0-1.33.665.665 0 0 0 0 1.33z" clip-path="url(#p475b18f202)" style="fill:#ff00bf"/><path id="patch_233" d="M375.848 768.96a1.33 1.33 0 1 0 0-2.661 1.33 1.33 0 0 0 0 2.661z" clip-path="url(#p475b18f202)" style="fill:#ff4800"/><path id="patch_234" d="M111.49 450.624a1.33 1.33 0 1 0 0-2.661 1.33 1.33 0 0 0 0 2.66z" clip-path="url(#p475b18f202)" style="fill:#cd00ff"/><path id="patch_235" d="M136.582 768.96a1.33 1.33 0 1 0 0-2.661 1.33 1.33 0 0 0 0 2.661z" clip-path="url(#p475b18f202)" style="fill:#ff4800"/><path id="patch_236" d="M111.49 502.476a1.33 1.33 0 1 0 0-2.66 1.33 1.33 0 0 0 0 2.66z" clip-path="url(#p475b18f202)" style="fill:#cd00ff"/><path id="patch_237" d="M112.978 328.845a.665.665 0 1 0 0-1.33.665.665 0 0 0 0 1.33z" clip-path="url(#p475b18f202)" style="fill:#ff0029"/><path id="patch_238" d="M735.252 768.96a.665.665 0 1 0 0-1.33.665.665 0 0 0 0 1.33z" clip-path="url(#p475b18f202)" style="fill:#ff00bf"/><path id="patch_239" d="M407.892 768.96a1.33 1.33 0 1 0 0-2.661 1.33 1.33 0 0 0 0 2.661z" clip-path="url(#p475b18f202)" style="fill:#ff4800"/><path id="patch_240" d="M111.49 541.78a1.33 1.33 0 1 0 0-2.661 1.33 1.33 0 0 0 0 2.661z" clip-path="url(#p475b18f202)" style="fill:#cd00ff"/><path id="patch_241" d="M698.626 766.655a1.33 1.33 0 1 0 0-2.66 1.33 1.33 0 0 0 0 2.66z" clip-path="url(#p475b18f202)" style="fill:#ff4800"/><path id="patch_242" d="M702.617 768.96a1.33 1.33 0 1 0 0-2.661 1.33 1.33 0 0 0 0 2.661z" clip-path="url(#p475b18f202)" style="fill:#cd00ff"/><path id="patch_243" d="M110.825 750.997a.665.665 0 1 0 0-1.33.665.665 0 0 0 0 1.33z" clip-path="url(#p475b18f202)" style="fill:#ff0029"/><path id="patch_244" d="M382.272 768.96a.665.665 0 1 0 0-1.33.665.665 0 0 0 0 1.33z" clip-path="url(#p475b18f202)" style="fill:#ff00bf"/><path id="patch_245" d="M403.9 766.655a1.33 1.33 0 1 0 0-2.66 1.33 1.33 0 0 0 0 2.66z" clip-path="url(#p475b18f202)" style="fill:#ff4800"/><path id="patch_246" d="M111.49 472.558a1.33 1.33 0 1 0 0-2.66 1.33 1.33 0 0 0 0 2.66z" clip-path="url(#p475b18f202)" style="fill:#cd00ff"/><path id="patch_247" d="M578.197 766.655a1.33 1.33 0 1 0 0-2.66 1.33 1.33 0 0 0 0 2.66z" clip-path="url(#p475b18f202)" style="fill:#ff4800"/><path id="patch_248" d="M462.595 768.96a1.33 1.33 0 1 0 0-2.661 1.33 1.33 0 0 0 0 2.661z" clip-path="url(#p475b18f202)" style="fill:#cd00ff"/><path id="patch_249" d="M213.944 768.96a.665.665 0 1 0 0-1.33.665.665 0 0 0 0 1.33z" clip-path="url(#p475b18f202)" style="fill:#ff0029"/><path id="patch_250" d="M110.825 665.842a.665.665 0 1 0 0-1.331.665.665 0 0 0 0 1.33z" clip-path="url(#p475b18f202)" style="fill:#ff00bf"/><path id="patch_251" d="M311.414 768.96a1.33 1.33 0 1 0 0-2.661 1.33 1.33 0 0 0 0 2.661z" clip-path="url(#p475b18f202)" style="fill:#ff4800"/><path id="patch_252" d="M743.558 764.654a1.33 1.33 0 1 0 0-2.661 1.33 1.33 0 0 0 0 2.661z" clip-path="url(#p475b18f202)" style="fill:#cd00ff"/><path id="patch_253" d="M111.49 106.975a1.33 1.33 0 1 0 0-2.662 1.33 1.33 0 0 0 0 2.662z" clip-path="url(#p475b18f202)" style="fill:#ff4800"/><path id="patch_254" d="M497.568 768.96a1.33 1.33 0 1 0 0-2.661 1.33 1.33 0 0 0 0 2.661z" clip-path="url(#p475b18f202)" style="fill:#cd00ff"/><path id="patch_255" d="M110.825 703.097a.665.665 0 1 0 0-1.33.665.665 0 0 0 0 1.33z" clip-path="url(#p475b18f202)" style="fill:#ff0029"/><path id="patch_256" d="M110.825 332.057a.665.665 0 1 0 0-1.33.665.665 0 0 0 0 1.33z" clip-path="url(#p475b18f202)" style="fill:#ff00bf"/><path id="patch_257" d="M675.36 768.96a1.33 1.33 0 1 0 0-2.661 1.33 1.33 0 0 0 0 2.661z" clip-path="url(#p475b18f202)" style="fill:#ff4800"/><path id="patch_258" d="M432.031 768.96a1.33 1.33 0 1 0 0-2.661 1.33 1.33 0 0 0 0 2.661z" clip-path="url(#p475b18f202)" style="fill:#cd00ff"/><path id="patch_259" d="M111.49 265.115a1.33 1.33 0 1 0 0-2.66 1.33 1.33 0 0 0 0 2.66z" clip-path="url(#p475b18f202)" style="fill:#ff4800"/><path id="patch_260" d="M284.613 768.96a1.33 1.33 0 1 0 0-2.661 1.33 1.33 0 0 0 0 2.661z" clip-path="url(#p475b18f202)" style="fill:#cd00ff"/><path id="patch_261" d="M208.621 768.96a.665.665 0 1 0 0-1.33.665.665 0 0 0 0 1.33z" clip-path="url(#p475b18f202)" style="fill:#ff0029"/><path id="patch_262" d="M110.825 375.754a.665.665 0 1 0 0-1.33.665.665 0 0 0 0 1.33z" clip-path="url(#p475b18f202)" style="fill:#ff00bf"/><path id="patch_263" d="M582.189 768.96a1.33 1.33 0 1 0 0-2.661 1.33 1.33 0 0 0 0 2.661z" clip-path="url(#p475b18f202)" style="fill:#ff4800"/><path id="patch_264" d="M337.34 766.655a1.33 1.33 0 1 0 0-2.66 1.33 1.33 0 0 0 0 2.66z" clip-path="url(#p475b18f202)" style="fill:#cd00ff"/><path id="patch_265" d="M111.49 129.555a1.33 1.33 0 1 0 0-2.661 1.33 1.33 0 0 0 0 2.66z" clip-path="url(#p475b18f202)" style="fill:#ff4800"/><path id="patch_266" d="M341.332 768.96a1.33 1.33 0 1 0 0-2.661 1.33 1.33 0 0 0 0 2.661z" clip-path="url(#p475b18f202)" style="fill:#cd00ff"/><path id="patch_267" d="M526.801 766.807a.665.665 0 1 0 0-1.33.665.665 0 0 0 0 1.33z" clip-path="url(#p475b18f202)" style="fill:#ff0029"/><path id="patch_268" d="M110.825 385.39a.665.665 0 1 0 0-1.33.665.665 0 0 0 0 1.33z" clip-path="url(#p475b18f202)" style="fill:#ff00bf"/><path id="patch_269" d="M113.795 501.146a1.33 1.33 0 1 0 0-2.661 1.33 1.33 0 0 0 0 2.66z" clip-path="url(#p475b18f202)" style="fill:#ff4800"/><path id="patch_270" d="M111.49 505.138a1.33 1.33 0 1 0 0-2.662 1.33 1.33 0 0 0 0 2.662z" clip-path="url(#p475b18f202)" style="fill:#cd00ff"/><path id="patch_271" d="M113.795 543.11a1.33 1.33 0 1 0 0-2.66 1.33 1.33 0 0 0 0 2.66z" clip-path="url(#p475b18f202)" style="fill:#ff4800"/><path id="patch_272" d="M111.49 133.318a1.33 1.33 0 1 0 0-2.661 1.33 1.33 0 0 0 0 2.661z" clip-path="url(#p475b18f202)" style="fill:#cd00ff"/><path id="patch_273" d="M110.825 756.32a.665.665 0 1 0 0-1.33.665.665 0 0 0 0 1.33z" clip-path="url(#p475b18f202)" style="fill:#ff0029"/><path id="patch_274" d="M110.825 416.678a.665.665 0 1 0 0-1.33.665.665 0 0 0 0 1.33z" clip-path="url(#p475b18f202)" style="fill:#ff00bf"/><path id="patch_275" d="M142.01 685.135a1.33 1.33 0 1 0 0-2.662 1.33 1.33 0 0 0 0 2.662z" clip-path="url(#p475b18f202)" style="fill:#ff4800"/><path id="patch_276" d="M163.465 685.135a1.33 1.33 0 1 0 0-2.662 1.33 1.33 0 0 0 0 2.662z" clip-path="url(#p475b18f202)" style="fill:#cd00ff"/><path id="patch_277" d="M195.316 738.44a1.33 1.33 0 1 0 0-2.661 1.33 1.33 0 0 0 0 2.661z" clip-path="url(#p475b18f202)" style="fill:#ff4800"/><path id="patch_278" d="M287.464 768.96a1.33 1.33 0 1 0 0-2.661 1.33 1.33 0 0 0 0 2.661z" clip-path="url(#p475b18f202)" style="fill:#cd00ff"/><path id="patch_279" d="M110.825 209.235a.665.665 0 1 0 0-1.33.665.665 0 0 0 0 1.33z" clip-path="url(#p475b18f202)" style="fill:#ff0029"/><path id="patch_280" d="M112.978 624.405a.665.665 0 1 0 0-1.33.665.665 0 0 0 0 1.33z" clip-path="url(#p475b18f202)" style="fill:#ff00bf"/><path id="patch_281" d="M308.753 768.96a1.33 1.33 0 1 0 0-2.661 1.33 1.33 0 0 0 0 2.661z" clip-path="url(#p475b18f202)" style="fill:#ff4800"/><path id="patch_282" d="M111.49 537.182a1.33 1.33 0 1 0 0-2.661 1.33 1.33 0 0 0 0 2.66z" clip-path="url(#p475b18f202)" style="fill:#cd00ff"/><path id="patch_283" d="M429.181 768.96a1.33 1.33 0 1 0 0-2.661 1.33 1.33 0 0 0 0 2.661z" clip-path="url(#p475b18f202)" style="fill:#ff4800"/><path id="patch_284" d="M493.804 768.96a1.33 1.33 0 1 0 0-2.661 1.33 1.33 0 0 0 0 2.661z" clip-path="url(#p475b18f202)" style="fill:#cd00ff"/><path id="patch_285" d="M647.23 766.807a.665.665 0 1 0 0-1.33.665.665 0 0 0 0 1.33z" clip-path="url(#p475b18f202)" style="fill:#ff0029"/><path id="patch_286" d="M252.168 768.96a.665.665 0 1 0 0-1.33.665.665 0 0 0 0 1.33z" clip-path="url(#p475b18f202)" style="fill:#ff00bf"/><path id="patch_287" d="M312.744 766.655a1.33 1.33 0 1 0 0-2.66 1.33 1.33 0 0 0 0 2.66z" clip-path="url(#p475b18f202)" style="fill:#ff4800"/><path id="patch_288" d="M674.03 766.655a1.33 1.33 0 1 0 0-2.66 1.33 1.33 0 0 0 0 2.66z" clip-path="url(#p475b18f202)" style="fill:#cd00ff"/><path id="patch_289" d="M650.442 768.96a.665.665 0 1 0 0-1.33.665.665 0 0 0 0 1.33z" clip-path="url(#p475b18f202)" style="fill:#ff0029"/><path id="patch_290" d="M112.978 593.841a.665.665 0 1 0 0-1.33.665.665 0 0 0 0 1.33z" clip-path="url(#p475b18f202)" style="fill:#ff00bf"/><path id="patch_291" d="M255.38 766.807a.665.665 0 1 0 0-1.33.665.665 0 0 0 0 1.33z" clip-path="url(#p475b18f202)" style="fill:#ff0029"/><path id="patch_292" d="M110.825 590.63a.665.665 0 1 0 0-1.331.665.665 0 0 0 0 1.33z" clip-path="url(#p475b18f202)" style="fill:#ff00bf"/><path id="patch_293" d="M168.382 768.96a.665.665 0 1 0 0-1.33.665.665 0 0 0 0 1.33z" clip-path="url(#p475b18f202)" style="fill:#ff0029"/><path id="patch_294" d="M110.825 657.535a.665.665 0 1 0 0-1.33.665.665 0 0 0 0 1.33z" clip-path="url(#p475b18f202)" style="fill:#ff00bf"/><path id="patch_295" d="M110.825 308.013a.665.665 0 1 0 0-1.33.665.665 0 0 0 0 1.33z" clip-path="url(#p475b18f202)" style="fill:#ff0029"/><path id="patch_296" d="M110.825 742.691a.665.665 0 1 0 0-1.33.665.665 0 0 0 0 1.33z" clip-path="url(#p475b18f202)" style="fill:#ff00bf"/><path id="patch_297" d="M222.25 768.96a.665.665 0 1 0 0-1.33.665.665 0 0 0 0 1.33z" clip-path="url(#p475b18f202)" style="fill:#ff0029"/><path id="patch_298" d="M110.825 711.403a.665.665 0 1 0 0-1.33.665.665 0 0 0 0 1.33z" clip-path="url(#p475b18f202)" style="fill:#ff00bf"/><path id="patch_299" d="M110.825 691.122a.665.665 0 1 0 0-1.33.665.665 0 0 0 0 1.33z" clip-path="url(#p475b18f202)" style="fill:#ff0029"/><path id="patch_300" d="M110.825 229.344a.665.665 0 1 0 0-1.331.665.665 0 0 0 0 1.33z" clip-path="url(#p475b18f202)" style="fill:#ff00bf"/><path id="patch_301" d="M112.978 569.702a.665.665 0 1 0 0-1.33.665.665 0 0 0 0 1.33z" clip-path="url(#p475b18f202)" style="fill:#ff0029"/><path id="patch_302" d="M112.978 232.556a.665.665 0 1 0 0-1.33.665.665 0 0 0 0 1.33z" clip-path="url(#p475b18f202)" style="fill:#ff00bf"/><path id="patch_303" d="M384.076 768.96a.665.665 0 1 0 0-1.33.665.665 0 0 0 0 1.33z" clip-path="url(#p475b18f202)" style="fill:#ff0029"/><path id="patch_304" d="M110.825 162.02a.665.665 0 1 0 0-1.33.665.665 0 0 0 0 1.33z" clip-path="url(#p475b18f202)" style="fill:#ff00bf"/><path id="patch_305" d="M110.825 572.914a.665.665 0 1 0 0-1.33.665.665 0 0 0 0 1.33z" clip-path="url(#p475b18f202)" style="fill:#ff0029"/><path id="patch_306" d="M110.825 764.626a.665.665 0 1 0 0-1.33.665.665 0 0 0 0 1.33z" clip-path="url(#p475b18f202)" style="fill:#ff00bf"/><path id="patch_307" d="M188.663 768.96a.665.665 0 1 0 0-1.33.665.665 0 0 0 0 1.33z" clip-path="url(#p475b18f202)" style="fill:#ff0029"/><path id="patch_308" d="M110.825 451.84a.665.665 0 1 0 0-1.33.665.665 0 0 0 0 1.33z" clip-path="url(#p475b18f202)" style="fill:#ff00bf"/><path id="patch_309" d="M135.252 766.807a.665.665 0 1 0 0-1.33.665.665 0 0 0 0 1.33z" clip-path="url(#p475b18f202)" style="fill:#ff0029"/><path id="patch_310" d="M373.966 768.96a.665.665 0 1 0 0-1.33.665.665 0 0 0 0 1.33z" clip-path="url(#p475b18f202)" style="fill:#ff00bf"/><path id="patch_311" d="M138.464 768.96a.665.665 0 1 0 0-1.33.665.665 0 0 0 0 1.33z" clip-path="url(#p475b18f202)" style="fill:#ff0029"/><path id="patch_312" d="M733.921 768.96a.665.665 0 1 0 0-1.33.665.665 0 0 0 0 1.33z" clip-path="url(#p475b18f202)" style="fill:#ff00bf"/><path id="patch_313" d="M409.774 768.96a.665.665 0 1 0 0-1.33.665.665 0 0 0 0 1.33z" clip-path="url(#p475b18f202)" style="fill:#ff0029"/><path id="patch_314" d="M110.825 539.233a.665.665 0 1 0 0-1.33.665.665 0 0 0 0 1.33z" clip-path="url(#p475b18f202)" style="fill:#ff00bf"/><path id="patch_315" d="M406.562 766.807a.665.665 0 1 0 0-1.33.665.665 0 0 0 0 1.33z" clip-path="url(#p475b18f202)" style="fill:#ff0029"/><path id="patch_316" d="M110.825 627.617a.665.665 0 1 0 0-1.33.665.665 0 0 0 0 1.33z" clip-path="url(#p475b18f202)" style="fill:#ff00bf"/><path id="patch_317" d="M701.287 766.807a.665.665 0 1 0 0-1.33.665.665 0 0 0 0 1.33z" clip-path="url(#p475b18f202)" style="fill:#ff0029"/><path id="patch_318" d="M110.825 296.25a.665.665 0 1 0 0-1.33.665.665 0 0 0 0 1.33z" clip-path="url(#p475b18f202)" style="fill:#ff00bf"/><path id="patch_319" d="M704.499 768.96a.665.665 0 1 0 0-1.33.665.665 0 0 0 0 1.33z" clip-path="url(#p475b18f202)" style="fill:#ff0029"/><path id="patch_320" d="M112.978 473.224a.665.665 0 1 0 0-1.33.665.665 0 0 0 0 1.33z" clip-path="url(#p475b18f202)" style="fill:#ff00bf"/><path id="patch_321" d="M530.013 768.96a.665.665 0 1 0 0-1.33.665.665 0 0 0 0 1.33z" clip-path="url(#p475b18f202)" style="fill:#ff0029"/><path id="patch_322" d="M110.825 470.011a.665.665 0 1 0 0-1.33.665.665 0 0 0 0 1.33z" clip-path="url(#p475b18f202)" style="fill:#ff00bf"/><path id="patch_323" d="M461.264 766.807a.665.665 0 1 0 0-1.33.665.665 0 0 0 0 1.33z" clip-path="url(#p475b18f202)" style="fill:#ff0029"/><path id="patch_324" d="M176.688 768.96a.665.665 0 1 0 0-1.33.665.665 0 0 0 0 1.33z" clip-path="url(#p475b18f202)" style="fill:#ff00bf"/><path id="patch_325" d="M464.477 768.96a.665.665 0 1 0 0-1.33.665.665 0 0 0 0 1.33z" clip-path="url(#p475b18f202)" style="fill:#ff0029"/><path id="patch_326" d="M495.686 768.96a.665.665 0 1 0 0-1.33.665.665 0 0 0 0 1.33z" clip-path="url(#p475b18f202)" style="fill:#ff00bf"/><path id="patch_327" d="M110.825 436.007a.665.665 0 1 0 0-1.33.665.665 0 0 0 0 1.33z" clip-path="url(#p475b18f202)" style="fill:#ff0029"/><path id="patch_328" d="M110.825 676.486a.665.665 0 1 0 0-1.33.665.665 0 0 0 0 1.33z" clip-path="url(#p475b18f202)" style="fill:#ff00bf"/><path id="patch_329" d="M112.978 263.12a.665.665 0 1 0 0-1.331.665.665 0 0 0 0 1.33z" clip-path="url(#p475b18f202)" style="fill:#ff0029"/><path id="patch_330" d="M127.496 768.96a.665.665 0 1 0 0-1.33.665.665 0 0 0 0 1.33z" clip-path="url(#p475b18f202)" style="fill:#ff00bf"/><path id="patch_331" d="M110.825 266.332a.665.665 0 1 0 0-1.33.665.665 0 0 0 0 1.33z" clip-path="url(#p475b18f202)" style="fill:#ff0029"/><path id="patch_332" d="M111.978 376.42a.665.665 0 1 0 0-1.332.665.665 0 0 0 0 1.331z" clip-path="url(#p475b18f202)" style="fill:#ff00bf"/><path id="patch_333" d="M580.858 766.807a.665.665 0 1 0 0-1.33.665.665 0 0 0 0 1.33z" clip-path="url(#p475b18f202)" style="fill:#ff0029"/><path id="patch_334" d="M203.3 768.96a.665.665 0 1 0 0-1.33.665.665 0 0 0 0 1.33z" clip-path="url(#p475b18f202)" style="fill:#ff00bf"/><path id="patch_335" d="M584.07 768.96a.665.665 0 1 0 0-1.33.665.665 0 0 0 0 1.33z" clip-path="url(#p475b18f202)" style="fill:#ff0029"/><path id="patch_336" d="M110.825 130.771a.665.665 0 1 0 0-1.33.665.665 0 0 0 0 1.33z" clip-path="url(#p475b18f202)" style="fill:#ff00bf"/><path id="patch_337" d="M110.825 182.301a.665.665 0 1 0 0-1.33.665.665 0 0 0 0 1.33z" clip-path="url(#p475b18f202)" style="fill:#ff0029"/><path id="patch_338" d="M110.825 424.985a.665.665 0 1 0 0-1.331.665.665 0 0 0 0 1.33z" clip-path="url(#p475b18f202)" style="fill:#ff00bf"/><path id="patch_339" d="M340.001 766.807a.665.665 0 1 0 0-1.33.665.665 0 0 0 0 1.33z" clip-path="url(#p475b18f202)" style="fill:#ff0029"/><path id="patch_340" d="M343.213 768.96a.665.665 0 1 0 0-1.33.665.665 0 0 0 0 1.33z" clip-path="url(#p475b18f202)" style="fill:#ff00bf"/><path id="patch_341" d="M110.825 386.721a.665.665 0 1 0 0-1.33.665.665 0 0 0 0 1.33z" clip-path="url(#p475b18f202)" style="fill:#ff0029"/><path id="patch_342" d="M112.978 503.142a.665.665 0 1 0 0-1.33.665.665 0 0 0 0 1.33z" clip-path="url(#p475b18f202)" style="fill:#ff00bf"/><path id="patch_343" d="M110.825 506.354a.665.665 0 1 0 0-1.33.665.665 0 0 0 0 1.33z" clip-path="url(#p475b18f202)" style="fill:#ff0029"/><path id="patch_344" d="M110.825 134.535a.665.665 0 1 0 0-1.33.665.665 0 0 0 0 1.33z" clip-path="url(#p475b18f202)" style="fill:#ff00bf"/><path id="patch_345" d="M110.825 415.348a.665.665 0 1 0 0-1.33.665.665 0 0 0 0 1.33z" clip-path="url(#p475b18f202)" style="fill:#ff0029"/><path id="patch_346" d="M289.345 768.96a.665.665 0 1 0 0-1.33.665.665 0 0 0 0 1.33z" clip-path="url(#p475b18f202)" style="fill:#ff00bf"/><path id="patch_347" d="M110.825 210.566a.665.665 0 1 0 0-1.33.665.665 0 0 0 0 1.33z" clip-path="url(#p475b18f202)" style="fill:#ff0029"/><path id="patch_348" d="M110.825 534.635a.665.665 0 1 0 0-1.33.665.665 0 0 0 0 1.33z" clip-path="url(#p475b18f202)" style="fill:#ff00bf"/><path id="patch_349" d="M427.3 768.96a.665.665 0 1 0 0-1.33.665.665 0 0 0 0 1.33z" clip-path="url(#p475b18f202)" style="fill:#ff0029"/><path id="patch_350" d="M306.87 768.96a.665.665 0 1 0 0-1.33.665.665 0 0 0 0 1.33z" clip-path="url(#p475b18f202)" style="fill:#ff00bf"/><path id="patch_351" d="M491.923 768.96a.665.665 0 1 0 0-1.33.665.665 0 0 0 0 1.33z" clip-path="url(#p475b18f202)" style="fill:#ff0029"/><path id="patch_352" d="M250.837 768.96a.665.665 0 1 0 0-1.33.665.665 0 0 0 0 1.33z" clip-path="url(#p475b18f202)" style="fill:#ff00bf"/><path id="patch_353" d="M651.772 768.96a.665.665 0 1 0 0-1.33.665.665 0 0 0 0 1.33z" clip-path="url(#p475b18f202)" style="fill:#ff0029"/><path id="patch_354" d="M690.87 768.96a.665.665 0 1 0 0-1.33.665.665 0 0 0 0 1.33z" clip-path="url(#p475b18f202)" style="fill:#ff00bf"/><path id="patch_355" d="M110.825 589.299a.665.665 0 1 0 0-1.331.665.665 0 0 0 0 1.33z" clip-path="url(#p475b18f202)" style="fill:#ff0029"/><path id="patch_356" d="M167.051 768.96a.665.665 0 1 0 0-1.33.665.665 0 0 0 0 1.33z" clip-path="url(#p475b18f202)" style="fill:#ff00bf"/><path id="patch_357" d="M111.978 308.678a.665.665 0 1 0 0-1.33.665.665 0 0 0 0 1.33z" clip-path="url(#p475b18f202)" style="fill:#ff0029"/><path id="patch_358" d="M110.825 656.205a.665.665 0 1 0 0-1.33.665.665 0 0 0 0 1.33z" clip-path="url(#p475b18f202)" style="fill:#ff00bf"/><path id="patch_359" d="M223.58 768.96a.665.665 0 1 0 0-1.33.665.665 0 0 0 0 1.33z" clip-path="url(#p475b18f202)" style="fill:#ff0029"/><path id="patch_360" d="M110.825 712.734a.665.665 0 1 0 0-1.33.665.665 0 0 0 0 1.33z" clip-path="url(#p475b18f202)" style="fill:#ff00bf"/><path id="patch_361" d="M110.825 689.792a.665.665 0 1 0 0-1.33.665.665 0 0 0 0 1.33z" clip-path="url(#p475b18f202)" style="fill:#ff0029"/><path id="patch_362" d="M110.825 228.013a.665.665 0 1 0 0-1.33.665.665 0 0 0 0 1.33z" clip-path="url(#p475b18f202)" style="fill:#ff00bf"/><path id="patch_363" d="M111.978 162.685a.665.665 0 1 0 0-1.33.665.665 0 0 0 0 1.33z" clip-path="url(#p475b18f202)" style="fill:#ff0029"/><path id="patch_364" d="M111.978 691.788a.665.665 0 1 0 0-1.331.665.665 0 0 0 0 1.33z" clip-path="url(#p475b18f202)" style="fill:#ff00bf"/><path id="patch_365" d="M110.825 741.36a.665.665 0 1 0 0-1.33.665.665 0 0 0 0 1.33z" clip-path="url(#p475b18f202)" style="fill:#ff0029"/><path id="patch_366" d="M110.825 765.956a.665.665 0 1 0 0-1.33.665.665 0 0 0 0 1.33z" clip-path="url(#p475b18f202)" style="fill:#ff00bf"/><path id="patch_367" d="M189.994 768.96a.665.665 0 1 0 0-1.33.665.665 0 0 0 0 1.33z" clip-path="url(#p475b18f202)" style="fill:#ff0029"/><path id="patch_368" d="M187.998 767.808a.665.665 0 1 0 0-1.33.665.665 0 0 0 0 1.33z" clip-path="url(#p475b18f202)" style="fill:#ff00bf"/><path id="patch_369" d="M110.825 160.69a.665.665 0 1 0 0-1.331.665.665 0 0 0 0 1.33z" clip-path="url(#p475b18f202)" style="fill:#ff0029"/><path id="patch_370" d="M110.825 453.17a.665.665 0 1 0 0-1.33.665.665 0 0 0 0 1.33z" clip-path="url(#p475b18f202)" style="fill:#ff00bf"/><path id="patch_371" d="M372.636 768.96a.665.665 0 1 0 0-1.33.665.665 0 0 0 0 1.33z" clip-path="url(#p475b18f202)" style="fill:#ff0029"/><path id="patch_372" d="M734.587 767.808a.665.665 0 1 0 0-1.33.665.665 0 0 0 0 1.33z" clip-path="url(#p475b18f202)" style="fill:#ff00bf"/><path id="patch_373" d="M139.794 768.96a.665.665 0 1 0 0-1.33.665.665 0 0 0 0 1.33z" clip-path="url(#p475b18f202)" style="fill:#ff0029"/><path id="patch_374" d="M732.59 768.96a.665.665 0 1 0 0-1.33.665.665 0 0 0 0 1.33z" clip-path="url(#p475b18f202)" style="fill:#ff00bf"/><path id="patch_375" d="M110.825 628.948a.665.665 0 1 0 0-1.33.665.665 0 0 0 0 1.33z" clip-path="url(#p475b18f202)" style="fill:#ff0029"/><path id="patch_376" d="M110.825 294.92a.665.665 0 1 0 0-1.331.665.665 0 0 0 0 1.33z" clip-path="url(#p475b18f202)" style="fill:#ff00bf"/><path id="patch_377" d="M531.344 768.96a.665.665 0 1 0 0-1.33.665.665 0 0 0 0 1.33z" clip-path="url(#p475b18f202)" style="fill:#ff0029"/><path id="patch_378" d="M616.115 768.96a.665.665 0 1 0 0-1.33.665.665 0 0 0 0 1.33z" clip-path="url(#p475b18f202)" style="fill:#ff00bf"/><path id="patch_379" d="M278.189 768.96a.665.665 0 1 0 0-1.33.665.665 0 0 0 0 1.33z" clip-path="url(#p475b18f202)" style="fill:#ff0029"/><path id="patch_380" d="M110.825 122.465a.665.665 0 1 0 0-1.33.665.665 0 0 0 0 1.33z" clip-path="url(#p475b18f202)" style="fill:#ff00bf"/><path id="patch_381" d="M565.12 768.96a.665.665 0 1 0 0-1.33.665.665 0 0 0 0 1.33z" clip-path="url(#p475b18f202)" style="fill:#ff0029"/><path id="patch_382" d="M110.825 171.657a.665.665 0 1 0 0-1.331.665.665 0 0 0 0 1.33z" clip-path="url(#p475b18f202)" style="fill:#ff00bf"/><path id="patch_383" d="M671.369 766.807a.665.665 0 1 0 0-1.33.665.665 0 0 0 0 1.33z" clip-path="url(#p475b18f202)" style="fill:#ff0029"/><path id="patch_384" d="M110.825 349.583a.665.665 0 1 0 0-1.33.665.665 0 0 0 0 1.33z" clip-path="url(#p475b18f202)" style="fill:#ff00bf"/><path id="patch_385" d="M329.585 768.96a.665.665 0 1 0 0-1.33.665.665 0 0 0 0 1.33z" clip-path="url(#p475b18f202)" style="fill:#ff0029"/><path id="patch_386" d="M771.043 766.807a.665.665 0 1 0 0-1.33.665.665 0 0 0 0 1.33z" clip-path="url(#p475b18f202)" style="fill:#ff00bf"/><path id="patch_387" d="M685.548 768.96a.665.665 0 1 0 0-1.33.665.665 0 0 0 0 1.33z" clip-path="url(#p475b18f202)" style="fill:#ff0029"/><path id="patch_388" d="M110.825 492.726a.665.665 0 1 0 0-1.331.665.665 0 0 0 0 1.33z" clip-path="url(#p475b18f202)" style="fill:#ff00bf"/><path id="patch_389" d="M465.807 768.96a.665.665 0 1 0 0-1.33.665.665 0 0 0 0 1.33z" clip-path="url(#p475b18f202)" style="fill:#ff0029"/><path id="patch_390" d="M110.825 677.817a.665.665 0 1 0 0-1.331.665.665 0 0 0 0 1.33z" clip-path="url(#p475b18f202)" style="fill:#ff00bf"/><path id="patch_391" d="M110.825 267.662a.665.665 0 1 0 0-1.33.665.665 0 0 0 0 1.33z" clip-path="url(#p475b18f202)" style="fill:#ff0029"/><path id="patch_392" d="M201.969 768.96a.665.665 0 1 0 0-1.33.665.665 0 0 0 0 1.33z" clip-path="url(#p475b18f202)" style="fill:#ff00bf"/><path id="patch_393" d="M110.825 183.632a.665.665 0 1 0 0-1.331.665.665 0 0 0 0 1.33z" clip-path="url(#p475b18f202)" style="fill:#ff0029"/><path id="patch_394" d="M110.825 426.315a.665.665 0 1 0 0-1.33.665.665 0 0 0 0 1.33z" clip-path="url(#p475b18f202)" style="fill:#ff00bf"/><path id="patch_395" d="M111.978 386.056a.665.665 0 1 0 0-1.33.665.665 0 0 0 0 1.33z" clip-path="url(#p475b18f202)" style="fill:#ff0029"/><path id="patch_396" d="M344.544 768.96a.665.665 0 1 0 0-1.33.665.665 0 0 0 0 1.33z" clip-path="url(#p475b18f202)" style="fill:#ff00bf"/><path id="patch_397" d="M110.825 507.685a.665.665 0 1 0 0-1.331.665.665 0 0 0 0 1.33z" clip-path="url(#p475b18f202)" style="fill:#ff0029"/><path id="patch_398" d="M110.825 135.865a.665.665 0 1 0 0-1.33.665.665 0 0 0 0 1.33z" clip-path="url(#p475b18f202)" style="fill:#ff00bf"/><path id="patch_399" d="M111.978 416.013a.665.665 0 1 0 0-1.33.665.665 0 0 0 0 1.33z" clip-path="url(#p475b18f202)" style="fill:#ff0029"/><path id="patch_400" d="M110.825 414.017a.665.665 0 1 0 0-1.33.665.665 0 0 0 0 1.33z" clip-path="url(#p475b18f202)" style="fill:#ff00bf"/><path id="patch_401" d="M111.978 209.9a.665.665 0 1 0 0-1.33.665.665 0 0 0 0 1.33z" clip-path="url(#p475b18f202)" style="fill:#ff0029"/><path id="patch_402" d="M110.825 388.052a.665.665 0 1 0 0-1.33.665.665 0 0 0 0 1.33z" clip-path="url(#p475b18f202)" style="fill:#ff00bf"/><path id="patch_403" d="M110.825 211.896a.665.665 0 1 0 0-1.33.665.665 0 0 0 0 1.33z" clip-path="url(#p475b18f202)" style="fill:#ff0029"/><path id="patch_404" d="M110.825 533.304a.665.665 0 1 0 0-1.33.665.665 0 0 0 0 1.33z" clip-path="url(#p475b18f202)" style="fill:#ff00bf"/><path id="patch_405" d="M585.401 768.96a.665.665 0 1 0 0-1.33.665.665 0 0 0 0 1.33z" clip-path="url(#p475b18f202)" style="fill:#ff0029"/><path id="patch_406" d="M249.507 768.96a.665.665 0 1 0 0-1.33.665.665 0 0 0 0 1.33z" clip-path="url(#p475b18f202)" style="fill:#ff00bf"/><path id="patch_407" d="M167.717 767.808a.665.665 0 1 0 0-1.33.665.665 0 0 0 0 1.33z" clip-path="url(#p475b18f202)" style="fill:#ff0029"/><path id="patch_408" d="M490.592 768.96a.665.665 0 1 0 0-1.33.665.665 0 0 0 0 1.33z" clip-path="url(#p475b18f202)" style="fill:#ff00bf"/><path id="patch_409" d="M165.72 768.96a.665.665 0 1 0 0-1.33.665.665 0 0 0 0 1.33z" clip-path="url(#p475b18f202)" style="fill:#ff0029"/><path id="patch_410" d="M111.978 656.87a.665.665 0 1 0 0-1.33.665.665 0 0 0 0 1.33z" clip-path="url(#p475b18f202)" style="fill:#ff00bf"/><path id="patch_411" d="M110.825 654.874a.665.665 0 1 0 0-1.33.665.665 0 0 0 0 1.33z" clip-path="url(#p475b18f202)" style="fill:#ff0029"/><path id="patch_412" d="M222.915 767.808a.665.665 0 1 0 0-1.33.665.665 0 0 0 0 1.33z" clip-path="url(#p475b18f202)" style="fill:#ff00bf"/><path id="patch_413" d="M705.83 768.96a.665.665 0 1 0 0-1.33.665.665 0 0 0 0 1.33z" clip-path="url(#p475b18f202)" style="fill:#ff0029"/><path id="patch_414" d="M111.978 712.069a.665.665 0 1 0 0-1.33.665.665 0 0 0 0 1.33z" clip-path="url(#p475b18f202)" style="fill:#ff00bf"/><path id="patch_415" d="M224.911 768.96a.665.665 0 1 0 0-1.33.665.665 0 0 0 0 1.33z" clip-path="url(#p475b18f202)" style="fill:#ff0029"/><path id="patch_416" d="M110.825 714.065a.665.665 0 1 0 0-1.331.665.665 0 0 0 0 1.33z" clip-path="url(#p475b18f202)" style="fill:#ff00bf"/><path id="patch_417" d="M111.978 742.026a.665.665 0 1 0 0-1.33.665.665 0 0 0 0 1.33z" clip-path="url(#p475b18f202)" style="fill:#ff0029"/><path id="patch_418" d="M612.351 768.96a.665.665 0 1 0 0-1.33.665.665 0 0 0 0 1.33z" clip-path="url(#p475b18f202)" style="fill:#ff00bf"/><path id="patch_419" d="M110.825 740.03a.665.665 0 1 0 0-1.33.665.665 0 0 0 0 1.33z" clip-path="url(#p475b18f202)" style="fill:#ff0029"/><path id="patch_420" d="M111.978 765.291a.665.665 0 1 0 0-1.33.665.665 0 0 0 0 1.33z" clip-path="url(#p475b18f202)" style="fill:#ff00bf"/><path id="patch_421" d="M743.558 768.96a.665.665 0 1 0 0-1.33.665.665 0 0 0 0 1.33z" clip-path="url(#p475b18f202)" style="fill:#ff0029"/><path id="patch_422" d="M110.825 159.359a.665.665 0 1 0 0-1.33.665.665 0 0 0 0 1.33z" clip-path="url(#p475b18f202)" style="fill:#ff00bf"/><path id="patch_423" d="M373.3 767.808a.665.665 0 1 0 0-1.33.665.665 0 0 0 0 1.33z" clip-path="url(#p475b18f202)" style="fill:#ff0029"/><path id="patch_424" d="M110.825 767.287a.665.665 0 1 0 0-1.33.665.665 0 0 0 0 1.33z" clip-path="url(#p475b18f202)" style="fill:#ff00bf"/><path id="patch_425" d="M371.305 768.96a.665.665 0 1 0 0-1.33.665.665 0 0 0 0 1.33z" clip-path="url(#p475b18f202)" style="fill:#ff0029"/><path id="patch_426" d="M141.125 768.96a.665.665 0 1 0 0-1.33.665.665 0 0 0 0 1.33z" clip-path="url(#p475b18f202)" style="fill:#ff00bf"/><path id="patch_427" d="M634.152 768.96a.665.665 0 1 0 0-1.33.665.665 0 0 0 0 1.33z" clip-path="url(#p475b18f202)" style="fill:#ff0029"/><path id="patch_428" d="M731.26 768.96a.665.665 0 1 0 0-1.33.665.665 0 0 0 0 1.33z" clip-path="url(#p475b18f202)" style="fill:#ff00bf"/><path id="patch_429" d="M110.825 630.278a.665.665 0 1 0 0-1.33.665.665 0 0 0 0 1.33z" clip-path="url(#p475b18f202)" style="fill:#ff0029"/><path id="patch_430" d="M111.978 295.584a.665.665 0 1 0 0-1.33.665.665 0 0 0 0 1.33z" clip-path="url(#p475b18f202)" style="fill:#ff00bf"/><path id="patch_431" d="M110.825 555.523a.665.665 0 1 0 0-1.331.665.665 0 0 0 0 1.33z" clip-path="url(#p475b18f202)" style="fill:#ff0029"/><path id="patch_432" d="M110.825 293.589a.665.665 0 1 0 0-1.331.665.665 0 0 0 0 1.33z" clip-path="url(#p475b18f202)" style="fill:#ff00bf"/><path id="patch_433" d="M467.138 768.96a.665.665 0 1 0 0-1.33.665.665 0 0 0 0 1.33z" clip-path="url(#p475b18f202)" style="fill:#ff0029"/><path id="patch_434" d="M111.978 677.151a.665.665 0 1 0 0-1.33.665.665 0 0 0 0 1.33z" clip-path="url(#p475b18f202)" style="fill:#ff00bf"/><path id="patch_435" d="M110.825 255.364a.665.665 0 1 0 0-1.33.665.665 0 0 0 0 1.33z" clip-path="url(#p475b18f202)" style="fill:#ff0029"/><path id="patch_436" d="M110.825 679.147a.665.665 0 1 0 0-1.33.665.665 0 0 0 0 1.33z" clip-path="url(#p475b18f202)" style="fill:#ff00bf"/><path id="patch_437" d="M668.156 768.96a.665.665 0 1 0 0-1.33.665.665 0 0 0 0 1.33z" clip-path="url(#p475b18f202)" style="fill:#ff0029"/><path id="patch_438" d="M110.825 268.993a.665.665 0 1 0 0-1.33.665.665 0 0 0 0 1.33z" clip-path="url(#p475b18f202)" style="fill:#ff00bf"/><path id="patch_439" d="M110.825 509.015a.665.665 0 1 0 0-1.33.665.665 0 0 0 0 1.33z" clip-path="url(#p475b18f202)" style="fill:#ff0029"/><path id="patch_440" d="M110.825 412.687a.665.665 0 1 0 0-1.331.665.665 0 0 0 0 1.33z" clip-path="url(#p475b18f202)" style="fill:#ff00bf"/><path id="patch_441" d="M110.825 389.382a.665.665 0 1 0 0-1.33.665.665 0 0 0 0 1.33z" clip-path="url(#p475b18f202)" style="fill:#ff0029"/><path id="patch_442" d="M111.978 507.02a.665.665 0 1 0 0-1.331.665.665 0 0 0 0 1.33z" clip-path="url(#p475b18f202)" style="fill:#ff00bf"/><path id="patch_443" d="M584.736 767.808a.665.665 0 1 0 0-1.33.665.665 0 0 0 0 1.33z" clip-path="url(#p475b18f202)" style="fill:#ff0029"/><path id="patch_444" d="M345.874 768.96a.665.665 0 1 0 0-1.33.665.665 0 0 0 0 1.33z" clip-path="url(#p475b18f202)" style="fill:#ff00bf"/><path id="patch_445" d="M586.732 768.96a.665.665 0 1 0 0-1.33.665.665 0 0 0 0 1.33z" clip-path="url(#p475b18f202)" style="fill:#ff0029"/><path id="patch_446" d="M164.39 768.96a.665.665 0 1 0 0-1.33.665.665 0 0 0 0 1.33z" clip-path="url(#p475b18f202)" style="fill:#ff00bf"/><path id="patch_447" d="M343.879 767.808a.665.665 0 1 0 0-1.33.665.665 0 0 0 0 1.33z" clip-path="url(#p475b18f202)" style="fill:#ff0029"/><path id="patch_448" d="M110.825 653.544a.665.665 0 1 0 0-1.33.665.665 0 0 0 0 1.33z" clip-path="url(#p475b18f202)" style="fill:#ff00bf"/><path id="patch_449" d="M111.978 425.65a.665.665 0 1 0 0-1.33.665.665 0 0 0 0 1.33z" clip-path="url(#p475b18f202)" style="fill:#ff0029"/><path id="patch_450" d="M110.825 184.962a.665.665 0 1 0 0-1.33.665.665 0 0 0 0 1.33z" clip-path="url(#p475b18f202)" style="fill:#ff00bf"/><path id="patch_451" d="M705.164 767.808a.665.665 0 1 0 0-1.33.665.665 0 0 0 0 1.33z" clip-path="url(#p475b18f202)" style="fill:#ff0029"/><path id="patch_452" d="M111.978 182.966a.665.665 0 1 0 0-1.33.665.665 0 0 0 0 1.33z" clip-path="url(#p475b18f202)" style="fill:#ff00bf"/><path id="patch_453" d="M200.638 768.96a.665.665 0 1 0 0-1.33.665.665 0 0 0 0 1.33z" clip-path="url(#p475b18f202)" style="fill:#ff0029"/><path id="patch_454" d="M707.16 768.96a.665.665 0 1 0 0-1.33.665.665 0 0 0 0 1.33z" clip-path="url(#p475b18f202)" style="fill:#ff00bf"/><path id="patch_455" d="M226.242 768.96a.665.665 0 1 0 0-1.33.665.665 0 0 0 0 1.33z" clip-path="url(#p475b18f202)" style="fill:#ff0029"/><path id="patch_456" d="M202.634 767.808a.665.665 0 1 0 0-1.33.665.665 0 0 0 0 1.33z" clip-path="url(#p475b18f202)" style="fill:#ff00bf"/><path id="patch_457" d="M110.825 715.395a.665.665 0 1 0 0-1.33.665.665 0 0 0 0 1.33z" clip-path="url(#p475b18f202)" style="fill:#ff0029"/><path id="patch_458" d="M110.825 360.74a.665.665 0 1 0 0-1.331.665.665 0 0 0 0 1.33z" clip-path="url(#p475b18f202)" style="fill:#ff00bf"/><path id="patch_459" d="M611.02 768.96a.665.665 0 1 0 0-1.33.665.665 0 0 0 0 1.33z" clip-path="url(#p475b18f202)" style="fill:#ff0029"/><path id="patch_460" d="M272.867 768.96a.665.665 0 1 0 0-1.33.665.665 0 0 0 0 1.33z" clip-path="url(#p475b18f202)" style="fill:#ff00bf"/><path id="patch_461" d="M110.825 738.7a.665.665 0 1 0 0-1.331.665.665 0 0 0 0 1.33z" clip-path="url(#p475b18f202)" style="fill:#ff0029"/><path id="patch_462" d="M110.825 198.268a.665.665 0 1 0 0-1.33.665.665 0 0 0 0 1.33z" clip-path="url(#p475b18f202)" style="fill:#ff00bf"/><path id="patch_463" d="M112.443 768.96a.665.665 0 1 0 0-1.33.665.665 0 0 0 0 1.33z" clip-path="url(#p475b18f202)" style="fill:#ff0029"/><path id="patch_464" d="M117.765 768.96a.665.665 0 1 0 0-1.33.665.665 0 0 0 0 1.33z" clip-path="url(#p475b18f202)" style="fill:#ff00bf"/><path id="patch_465" d="M110.825 367.164a.665.665 0 1 0 0-1.33.665.665 0 0 0 0 1.33z" clip-path="url(#p475b18f202)" style="fill:#ff0029"/><path id="patch_466" d="M452.407 768.96a.665.665 0 1 0 0-1.33.665.665 0 0 0 0 1.33z" clip-path="url(#p475b18f202)" style="fill:#ff00bf"/><path id="patch_467" d="M767.508 768.96a.665.665 0 1 0 0-1.33.665.665 0 0 0 0 1.33z" clip-path="url(#p475b18f202)" style="fill:#ff0029"/><path id="patch_468" d="M708.963 768.96a.665.665 0 1 0 0-1.33.665.665 0 0 0 0 1.33z" clip-path="url(#p475b18f202)" style="fill:#ff00bf"/><path id="patch_469" d="M110.825 195.607a.665.665 0 1 0 0-1.33.665.665 0 0 0 0 1.33z" clip-path="url(#p475b18f202)" style="fill:#ff0029"/><path id="patch_470" d="M547.728 768.96a.665.665 0 1 0 0-1.33.665.665 0 0 0 0 1.33z" clip-path="url(#p475b18f202)" style="fill:#ff00bf"/><path id="patch_471" d="M550.94 766.807a.665.665 0 1 0 0-1.33.665.665 0 0 0 0 1.33z" clip-path="url(#p475b18f202)" style="fill:#ff0029"/><path id="patch_472" d="M110.825 768.618a.665.665 0 1 0 0-1.331.665.665 0 0 0 0 1.33z" clip-path="url(#p475b18f202)" style="fill:#ff00bf"/><path id="patch_473" d="M145.182 684.47a.665.665 0 1 0 0-1.331.665.665 0 0 0 0 1.33z" clip-path="url(#p475b18f202)" style="fill:#ff0029"/><path id="patch_474" d="M160.294 684.47a.665.665 0 1 0 0-1.331.665.665 0 0 0 0 1.33z" clip-path="url(#p475b18f202)" style="fill:#ff00bf"/><path id="patch_475" d="M195.316 734.603a.665.665 0 1 0 0-1.33.665.665 0 0 0 0 1.33z" clip-path="url(#p475b18f202)" style="fill:#ff0029"/><path id="patch_476" d="M195.316 719.491a.665.665 0 1 0 0-1.33.665.665 0 0 0 0 1.33z" clip-path="url(#p475b18f202)" style="fill:#ff00bf"/><path id="patch_477" d="M110.825 510.818a.665.665 0 1 0 0-1.33.665.665 0 0 0 0 1.33z" clip-path="url(#p475b18f202)" style="fill:#ff0029"/><path id="patch_478" d="M347.678 768.96a.665.665 0 1 0 0-1.33.665.665 0 0 0 0 1.33z" clip-path="url(#p475b18f202)" style="fill:#ff00bf"/><path id="patch_479" d="M368.967 768.96a.665.665 0 1 0 0-1.33.665.665 0 0 0 0 1.33z" clip-path="url(#p475b18f202)" style="fill:#ff0029"/><path id="patch_480" d="M110.825 291.25a.665.665 0 1 0 0-1.33.665.665 0 0 0 0 1.33z" clip-path="url(#p475b18f202)" style="fill:#ff00bf"/><path id="patch_481" d="M588.535 768.96a.665.665 0 1 0 0-1.33.665.665 0 0 0 0 1.33z" clip-path="url(#p475b18f202)" style="fill:#ff0029"/><path id="patch_482" d="M110.825 196.937a.665.665 0 1 0 0-1.33.665.665 0 0 0 0 1.33z" clip-path="url(#p475b18f202)" style="fill:#ff00bf"/><path id="patch_483" d="M111.978 197.603a.665.665 0 1 0 0-1.331.665.665 0 0 0 0 1.33z" clip-path="url(#p475b18f202)" style="fill:#ff0029"/><g id="matplotlib.axis_1"><g id="xtick_1"><g id="line2d_1"><defs><path id="me52fa7d77d" d="M0 0v3.5" style="stroke:#000;stroke-width:.8"/></defs><use xlink:href="#me52fa7d77d" x="110.16" y="768.96" style="stroke:#000;stroke-width:.8"/></g><g id="text_1" transform="matrix(.1 0 0 -.1 106.979 783.558)"><defs><path id="DejaVuSans-30" d="M2034 4250q-487 0-733-480-245-479-245-1442 0-959 245-1439 246-480 733-480 491 0 736 480 246 480 246 1439 0 963-246 1442-245 480-736 480zm0 500q785 0 1199-621 414-620 414-1801 0-1178-414-1799Q2819-91 2034-91q-784 0-1198 620-414 621-414 1799 0 1181 414 1801 414 621 1198 621z" transform="scale(.01563)"/></defs><use xlink:href="#DejaVuSans-30"/></g></g><g id="xtick_2"><use xlink:href="#me52fa7d77d" id="line2d_2" x="243.216" y="768.96" style="stroke:#000;stroke-width:.8"/><g id="text_2" transform="matrix(.1 0 0 -.1 233.672 783.558)"><defs><path id="DejaVuSans-32" d="M1228 531h2203V0H469v531q359 372 979 998 621 627 780 809 303 340 423 576 121 236 121 464 0 372-261 606-261 235-680 235-297 0-627-103-329-103-704-313v638q381 153 712 231 332 78 607 78 725 0 1156-363 431-362 431-968 0-288-108-546-107-257-392-607-78-91-497-524-418-433-1181-1211z" transform="scale(.01563)"/></defs><use xlink:href="#DejaVuSans-32"/><use xlink:href="#DejaVuSans-30" x="63.623"/><use xlink:href="#DejaVuSans-30" x="127.246"/></g></g><g id="xtick_3"><use xlink:href="#me52fa7d77d" id="line2d_3" x="376.272" y="768.96" style="stroke:#000;stroke-width:.8"/><g id="text_3" transform="matrix(.1 0 0 -.1 366.728 783.558)"><defs><path id="DejaVuSans-34" d="M2419 4116 825 1625h1594v2491zm-166 550h794V1625h666v-525h-666V0h-628v1100H313v609l1940 2957z" transform="scale(.01563)"/></defs><use xlink:href="#DejaVuSans-34"/><use xlink:href="#DejaVuSans-30" x="63.623"/><use xlink:href="#DejaVuSans-30" x="127.246"/></g></g><g id="xtick_4"><use xlink:href="#me52fa7d77d" id="line2d_4" x="509.328" y="768.96" style="stroke:#000;stroke-width:.8"/><g id="text_4" transform="matrix(.1 0 0 -.1 499.784 783.558)"><defs><path id="DejaVuSans-36" d="M2113 2584q-425 0-674-291-248-290-248-796 0-503 248-796 249-292 674-292t673 292q248 293 248 796 0 506-248 796-248 291-673 291zm1253 1979v-575q-238 112-480 171-242 60-480 60-625 0-955-422-329-422-376-1275 184 272 462 417 279 145 613 145 703 0 1111-427 408-426 408-1160 0-719-425-1154Q2819-91 2113-91q-810 0-1238 620-428 621-428 1799 0 1106 525 1764t1409 658q238 0 480-47t505-140z" transform="scale(.01563)"/></defs><use xlink:href="#DejaVuSans-36"/><use xlink:href="#DejaVuSans-30" x="63.623"/><use xlink:href="#DejaVuSans-30" x="127.246"/></g></g><g id="xtick_5"><use xlink:href="#me52fa7d77d" id="line2d_5" x="642.384" y="768.96" style="stroke:#000;stroke-width:.8"/><g id="text_5" transform="matrix(.1 0 0 -.1 632.84 783.558)"><defs><path id="DejaVuSans-38" d="M2034 2216q-450 0-708-241-257-241-257-662 0-422 257-663 258-241 708-241t709 242q260 243 260 662 0 421-258 662-257 241-711 241zm-631 268q-406 100-633 378-226 279-226 679 0 559 398 884 399 325 1092 325 697 0 1094-325t397-884q0-400-227-679-226-278-629-378 456-106 710-416 255-309 255-755 0-679-414-1042Q2806-91 2034-91q-771 0-1186 362-414 363-414 1042 0 446 256 755 257 310 713 416zm-231 997q0-362 226-565 227-203 636-203 407 0 636 203 230 203 230 565 0 363-230 566-229 203-636 203-409 0-636-203-226-203-226-566z" transform="scale(.01563)"/></defs><use xlink:href="#DejaVuSans-38"/><use xlink:href="#DejaVuSans-30" x="63.623"/><use xlink:href="#DejaVuSans-30" x="127.246"/></g></g><g id="xtick_6"><use xlink:href="#me52fa7d77d" id="line2d_6" x="775.44" y="768.96" style="stroke:#000;stroke-width:.8"/><g id="text_6" transform="matrix(.1 0 0 -.1 762.715 783.558)"><defs><path id="DejaVuSans-31" d="M794 531h1031v3560L703 3866v575l1116 225h631V531h1031V0H794v531z" transform="scale(.01563)"/></defs><use xlink:href="#DejaVuSans-31"/><use xlink:href="#DejaVuSans-30" x="63.623"/><use xlink:href="#DejaVuSans-30" x="127.246"/><use xlink:href="#DejaVuSans-30" x="190.869"/></g></g></g><g id="matplotlib.axis_2"><g id="ytick_1"><g id="line2d_7"><defs><path id="mf476ac9465" d="M0 0h-3.5" style="stroke:#000;stroke-width:.8"/></defs><use xlink:href="#mf476ac9465" x="110.16" y="768.96" style="stroke:#000;stroke-width:.8"/></g><use xlink:href="#DejaVuSans-30" id="text_7" transform="matrix(.1 0 0 -.1 96.797 772.76)"/></g><g id="ytick_2"><use xlink:href="#mf476ac9465" id="line2d_8" x="110.16" y="635.904" style="stroke:#000;stroke-width:.8"/><g id="text_8" transform="matrix(.1 0 0 -.1 84.073 639.703)"><use xlink:href="#DejaVuSans-32"/><use xlink:href="#DejaVuSans-30" x="63.623"/><use xlink:href="#DejaVuSans-30" x="127.246"/></g></g><g id="ytick_3"><use xlink:href="#mf476ac9465" id="line2d_9" x="110.16" y="502.848" style="stroke:#000;stroke-width:.8"/><g id="text_9" transform="matrix(.1 0 0 -.1 84.073 506.647)"><use xlink:href="#DejaVuSans-34"/><use xlink:href="#DejaVuSans-30" x="63.623"/><use xlink:href="#DejaVuSans-30" x="127.246"/></g></g><g id="ytick_4"><use xlink:href="#mf476ac9465" id="line2d_10" x="110.16" y="369.792" style="stroke:#000;stroke-width:.8"/><g id="text_10" transform="matrix(.1 0 0 -.1 84.073 373.591)"><use xlink:href="#DejaVuSans-36"/><use xlink:href="#DejaVuSans-30" x="63.623"/><use xlink:href="#DejaVuSans-30" x="127.246"/></g></g><g id="ytick_5"><use xlink:href="#mf476ac9465" id="line2d_11" x="110.16" y="236.736" style="stroke:#000;stroke-width:.8"/><g id="text_11" transform="matrix(.1 0 0 -.1 84.073 240.535)"><use xlink:href="#DejaVuSans-38"/><use xlink:href="#DejaVuSans-30" x="63.623"/><use xlink:href="#DejaVuSans-30" x="127.246"/></g></g><g id="ytick_6"><use xlink:href="#mf476ac9465" id="line2d_12" x="110.16" y="103.68" style="stroke:#000;stroke-width:.8"/><g id="text_12" transform="matrix(.1 0 0 -.1 77.71 107.48)"><use xlink:href="#DejaVuSans-31"/><use xlink:href="#DejaVuSans-30" x="63.623"/><use xlink:href="#DejaVuSans-30" x="127.246"/><use xlink:href="#DejaVuSans-30" x="190.869"/></g></g></g><path id="patch_484" d="M110.16 768.96V103.68" style="fill:none;stroke:#000;stroke-width:.8;stroke-linejoin:miter;stroke-linecap:square"/><path id="patch_485" d="M775.44 768.96V103.68" style="fill:none;stroke:#000;stroke-width:.8;stroke-linejoin:miter;stroke-linecap:square"/><path id="patch_486" d="M110.16 768.96h665.28" style="fill:none;stroke:#000;stroke-width:.8;stroke-linejoin:miter;stroke-linecap:square"/><path id="patch_487" d="M110.16 103.68h665.28" style="fill:none;stroke:#000;stroke-width:.8;stroke-linejoin:miter;stroke-linecap:square"/><g id="text_13" transform="matrix(.12 0 0 -.12 281.098 97.68)"><defs><path id="DejaVuSans-42" d="M1259 2228V519h1013q509 0 754 211 246 211 246 645 0 438-246 645-245 208-754 208H1259zm0 1919V2741h935q462 0 688 173 227 174 227 530 0 353-227 528-226 175-688 175h-935zm-631 519h1613q722 0 1112-300 391-300 391-853 0-429-200-682t-588-315q466-100 724-418 258-317 258-792 0-625-425-966Q3088 0 2303 0H628v4666z" transform="scale(.01563)"/><path id="DejaVuSans-69" d="M603 3500h575V0H603v3500zm0 1363h575v-729H603v729z" transform="scale(.01563)"/><path id="DejaVuSans-74" d="M1172 4494v-994h1184v-447H1172V1153q0-428 117-550t477-122h590V0h-590q-666 0-919 248-253 249-253 905v1900H172v447h422v994h578z" transform="scale(.01563)"/><path id="DejaVuSans-46" d="M628 4666h2681v-532H1259V2759h1850v-531H1259V0H628v4666z" transform="scale(.01563)"/><path id="DejaVuSans-6f" d="M1959 3097q-462 0-731-361t-269-989q0-628 267-989 268-361 733-361 460 0 728 362 269 363 269 988 0 622-269 986-268 364-728 364zm0 487q750 0 1178-488 429-487 429-1349 0-859-429-1349Q2709-91 1959-91q-753 0-1180 489-426 490-426 1349 0 862 426 1349 427 488 1180 488z" transform="scale(.01563)"/><path id="DejaVuSans-72" d="M2631 2963q-97 56-211 82-114 27-251 27-488 0-749-317t-261-911V0H581v3500h578v-544q182 319 472 473 291 155 707 155 59 0 131-8 72-7 159-23l3-590z" transform="scale(.01563)"/><path id="DejaVuSans-65" d="M3597 1894v-281H953q38-594 358-905t892-311q331 0 642 81t618 244V178Q3153 47 2828-22t-659-69q-838 0-1327 487-489 488-489 1320 0 859 464 1363 464 505 1252 505 706 0 1117-455 411-454 411-1235zm-575 169q-6 471-264 752-258 282-683 282-481 0-770-272t-333-766l2050 4z" transform="scale(.01563)"/><path id="DejaVuSans-73" d="M2834 3397v-544q-243 125-506 187-262 63-544 63-428 0-642-131t-214-394q0-200 153-314t616-217l197-44q612-131 870-370t258-667q0-488-386-773Q2250-91 1575-91q-281 0-586 55T347 128v594q319-166 628-249 309-82 613-82 406 0 624 139 219 139 219 392 0 234-158 359-157 125-692 241l-200 47q-534 112-772 345-237 233-237 639 0 494 350 762 350 269 994 269 318 0 599-47 282-46 519-140z" transform="scale(.01563)"/><path id="DejaVuSans-2c" d="M750 794h659V256L897-744H494L750 256v538z" transform="scale(.01563)"/><path id="DejaVuSans-62" d="M3116 1747q0 634-261 995t-717 361q-457 0-718-361t-261-995q0-634 261-995t718-361q456 0 717 361t261 995zM1159 2969q182 312 458 463 277 152 661 152 638 0 1036-506 399-506 399-1331T3314 415Q2916-91 2278-91q-384 0-661 152-276 152-458 464V0H581v4863h578V2969z" transform="scale(.01563)"/><path id="DejaVuSans-3d" d="M678 2906h4006v-525H678v525zm0-1275h4006v-531H678v531z" transform="scale(.01563)"/><path id="DejaVuSans-2e" d="M684 794h660V0H684v794z" transform="scale(.01563)"/><path id="DejaVuSans-39" d="M703 97v575q238-113 481-172 244-59 479-59 625 0 954 420 330 420 377 1277-181-269-460-413-278-144-615-144-700 0-1108 423-408 424-408 1159 0 718 425 1152 425 435 1131 435 810 0 1236-621 427-620 427-1801 0-1103-524-1761Q2575-91 1691-91q-238 0-482 47Q966 3 703 97zm1256 1978q425 0 673 290 249 291 249 798 0 503-249 795-248 292-673 292t-673-292q-248-292-248-795 0-507 248-798 248-290 673-290z" transform="scale(.01563)"/><path id="DejaVuSans-33" d="M2597 2516q453-97 707-404 255-306 255-756 0-690-475-1069Q2609-91 1734-91q-293 0-604 58T488 141v609q262-153 574-231 313-78 654-78 593 0 904 234t311 681q0 413-289 645-289 233-804 233h-544v519h569q465 0 712 186t247 536q0 359-255 551-254 193-729 193-260 0-557-57-297-56-653-174v562q360 100 674 150t592 50q719 0 1137-327 419-326 419-882 0-388-222-655t-631-370z" transform="scale(.01563)"/><path id="DejaVuSans-35" d="M691 4666h2478v-532H1269V2991q137 47 274 70 138 23 276 23 781 0 1237-428 457-428 457-1159 0-753-469-1171Q2575-91 1722-91q-294 0-599 50Q819 9 494 109v635q281-153 581-228t634-75q541 0 856 284 316 284 316 772 0 487-316 771-315 285-856 285-253 0-505-56-251-56-513-175v2344z" transform="scale(.01563)"/><path id="DejaVuSans-61" d="M2194 1759q-697 0-966-159t-269-544q0-306 202-486 202-179 548-179 479 0 768 339t289 901v128h-572zm1147 238V0h-575v531q-197-318-491-470T1556-91q-537 0-855 302-317 302-317 808 0 590 395 890 396 300 1180 300h807v57q0 397-261 614t-733 217q-300 0-585-72-284-72-546-216v532q315 122 612 182 297 61 578 61 760 0 1135-394 375-393 375-1193z" transform="scale(.01563)"/><path id="DejaVuSans-37" d="M525 4666h3000v-269L1831 0h-659l1594 4134H525v532z" transform="scale(.01563)"/><path id="DejaVuSans-64" d="M2906 2969v1894h575V0h-575v525q-181-312-458-464-276-152-664-152-634 0-1033 506-398 507-398 1332t398 1331q399 506 1033 506 388 0 664-152 277-151 458-463zM947 1747q0-634 261-995t717-361q456 0 718 361 263 361 263 995t-263 995q-262 361-718 361t-717-361q-261-361-261-995z" transform="scale(.01563)"/></defs><use xlink:href="#DejaVuSans-42"/><use xlink:href="#DejaVuSans-69" x="68.604"/><use xlink:href="#DejaVuSans-74" x="96.387"/><use xlink:href="#DejaVuSans-46" x="135.596"/><use xlink:href="#DejaVuSans-6f" x="189.49"/><use xlink:href="#DejaVuSans-72" x="250.672"/><use xlink:href="#DejaVuSans-65" x="289.535"/><use xlink:href="#DejaVuSans-73" x="351.059"/><use xlink:href="#DejaVuSans-74" x="403.158"/><use xlink:href="#DejaVuSans-2c" x="442.367"/><use xlink:href="#DejaVuSans-20" x="474.154"/><use xlink:href="#DejaVuSans-62" x="505.941"/><use xlink:href="#DejaVuSans-3d" x="569.418"/><use xlink:href="#DejaVuSans-30" x="653.207"/><use xlink:href="#DejaVuSans-2e" x="716.83"/><use xlink:href="#DejaVuSans-31" x="748.617"/><use xlink:href="#DejaVuSans-34" x="812.24"/><use xlink:href="#DejaVuSans-39" x="875.863"/><use xlink:href="#DejaVuSans-38" x="939.486"/><use xlink:href="#DejaVuSans-38" x="1003.109"/><use xlink:href="#DejaVuSans-33" x="1066.732"/><use xlink:href="#DejaVuSans-35" x="1130.355"/><use xlink:href="#DejaVuSans-2c" x="1193.979"/><use xlink:href="#DejaVuSans-20" x="1225.766"/><use xlink:href="#DejaVuSans-61" x="1257.553"/><use xlink:href="#DejaVuSans-3d" x="1318.832"/><use xlink:href="#DejaVuSans-30" x="1402.621"/><use xlink:href="#DejaVuSans-2e" x="1466.244"/><use xlink:href="#DejaVuSans-31" x="1498.031"/><use xlink:href="#DejaVuSans-38" x="1561.654"/><use xlink:href="#DejaVuSans-31" x="1625.277"/><use xlink:href="#DejaVuSans-33" x="1688.9"/><use xlink:href="#DejaVuSans-35" x="1752.523"/><use xlink:href="#DejaVuSans-34" x="1816.146"/><use xlink:href="#DejaVuSans-37" x="1879.77"/><use xlink:href="#DejaVuSans-2c" x="1943.393"/><use xlink:href="#DejaVuSans-20" x="1975.18"/><use xlink:href="#DejaVuSans-64" x="2006.967"/><use xlink:href="#DejaVuSans-3d" x="2070.443"/><use xlink:href="#DejaVuSans-30" x="2154.232"/><use xlink:href="#DejaVuSans-2e" x="2217.855"/><use xlink:href="#DejaVuSans-38" x="2249.643"/><use xlink:href="#DejaVuSans-32" x="2313.266"/><use xlink:href="#DejaVuSans-36" x="2376.889"/><use xlink:href="#DejaVuSans-34" x="2440.512"/><use xlink:href="#DejaVuSans-36" x="2504.135"/><use xlink:href="#DejaVuSans-36" x="2567.758"/><use xlink:href="#DejaVuSans-30" x="2631.381"/></g></g></g><defs><clipPath id="p475b18f202"><path d="M110.16 103.68h665.28v665.28H110.16z"/></clipPath></defs></svg>