<svg xmlns="http://www.w3.org/2000/svg" xmlns:xlink="http://www.w3.org/1999/xlink" width="1152" height="1152" viewBox="0 0 864 864"><defs><style>*{stroke-linejoin:round;stroke-linecap:butt}</style></defs><g id="figure_1"><path id="patch_1" d="M0 864h864V0H0z" style="fill:#fff"/><g id="axes_1"><path id="patch_2" d="M110.16 768.96h665.28V103.68H110.16z" style="fill:#fff"/><path id="patch_3" d="M280.472 768.96A170.32 170.32 0 0 0 400.9 719.077a170.32 170.32 0 0 0 49.883-120.429A170.32 170.32 0 0 0 400.9 478.22a170.32 170.32 0 0 0-120.428-49.883 170.32 170.32 0 0 0-120.429 49.883 170.32 170.32 0 0 0-49.883 120.428 170.32 170.32 0 0 0 49.883 120.429 170.32 170.32 0 0 0 120.429 49.883z" clip-path="url(#p92fe582985)" style="fill:#ff00bf"/><path id="patch_4" d="M131.449 499.509a21.29 21.29 0 1 0 0-42.58 21.29 21.29 0 0 0 0 42.58z" clip-path="url(#p92fe582985)" style="fill:#ff0029"/><path id="patch_5" d="M131.449 740.366a21.29 21.29 0 1 0 0-42.58 21.29 21.29 0 0 0 0 42.58z" clip-path="url(#p92fe582985)" style="fill:#cd00ff"/><path id="patch_6" d="M400.9 768.96a21.29 21.29 0 1 0 0-42.58 21.29 21.29 0 0 0 0 42.58z" clip-path="url(#p92fe582985)" style="fill:#ff0029"/><path id="patch_7" d="M131.449 456.93a21.29 21.29 0 1 0 0-42.58 21.29 21.29 0 0 0 0 42.58z" clip-path="url(#p92fe582985)" style="fill:#cd00ff"/><path id="patch_8" d="M120.804 524.137a10.645 10.645 0 1 0 0-21.29 10.645 10.645 0 0 0 0 21.29z" clip-path="url(#p92fe582985)" style="fill:#ff4800"/><path id="patch_9" d="M120.804 694.449a10.645 10.645 0 1 0 0-21.29 10.645 10.645 0 0 0 0 21.29z" clip-path="url(#p92fe582985)" style="fill:#5a00ff"/><path id="patch_10" d="M443.478 768.96a21.29 21.29 0 1 0 0-42.58 21.29 21.29 0 0 0 0 42.58z" clip-path="url(#p92fe582985)" style="fill:#ff0029"/><path id="patch_11" d="M131.449 414.353a21.29 21.29 0 1 0 0-42.58 21.29 21.29 0 0 0 0 42.58z" clip-path="url(#p92fe582985)" style="fill:#cd00ff"/><path id="patch_12" d="M486.056 768.96a21.29 21.29 0 1 0 0-42.58 21.29 21.29 0 0 0 0 42.58z" clip-path="url(#p92fe582985)" style="fill:#ff0029"/><path id="patch_13" d="M168.323 435.642a21.29 21.29 0 1 0-.001-42.58 21.29 21.29 0 0 0 0 42.58z" clip-path="url(#p92fe582985)" style="fill:#cd00ff"/><path id="patch_14" d="M195.316 768.96a10.645 10.645 0 1 0 0-21.29 10.645 10.645 0 0 0 0 21.29z" clip-path="url(#p92fe582985)" style="fill:#ff4800"/><path id="patch_15" d="M365.628 768.96a10.645 10.645 0 1 0 0-21.29 10.645 10.645 0 0 0 0 21.29z" clip-path="url(#p92fe582985)" style="fill:#5a00ff"/><path id="patch_16" d="M422.19 768.96a5.322 5.322 0 1 0-.001-10.645 5.322 5.322 0 0 0 0 10.645z" clip-path="url(#p92fe582985)" style="fill:#ffba00"/><path id="patch_17" d="M115.482 664.185a5.322 5.322 0 1 0 0-10.645 5.322 5.322 0 0 0 0 10.645z" clip-path="url(#p92fe582985)" style="fill:#0018ff"/><path id="patch_18" d="M131.449 371.775a21.29 21.29 0 1 0 0-42.58 21.29 21.29 0 0 0 0 42.58z" clip-path="url(#p92fe582985)" style="fill:#ff0029"/><path id="patch_19" d="M464.767 732.086a21.29 21.29 0 1 0 0-42.58 21.29 21.29 0 0 0 0 42.58z" clip-path="url(#p92fe582985)" style="fill:#cd00ff"/><path id="patch_20" d="M528.634 768.96a21.29 21.29 0 1 0 0-42.58 21.29 21.29 0 0 0 0 42.58z" clip-path="url(#p92fe582985)" style="fill:#ff0029"/><path id="patch_21" d="M168.323 393.064a21.29 21.29 0 1 0-.001-42.58 21.29 21.29 0 0 0 0 42.58z" clip-path="url(#p92fe582985)" style="fill:#cd00ff"/><path id="patch_22" d="M120.804 759.828a10.645 10.645 0 1 0 0-21.29 10.645 10.645 0 0 0 0 21.29z" clip-path="url(#p92fe582985)" style="fill:#ff4800"/><path id="patch_23" d="M155.25 467.575a10.645 10.645 0 1 0 0-21.29 10.645 10.645 0 0 0 0 21.29z" clip-path="url(#p92fe582985)" style="fill:#5a00ff"/><path id="patch_24" d="M131.449 329.197a21.29 21.29 0 1 0 0-42.58 21.29 21.29 0 0 0 0 42.58z" clip-path="url(#p92fe582985)" style="fill:#ff0029"/><path id="patch_25" d="M507.345 732.086a21.29 21.29 0 1 0 0-42.58 21.29 21.29 0 0 0 0 42.58z" clip-path="url(#p92fe582985)" style="fill:#cd00ff"/><path id="patch_26" d="M571.212 768.96a21.29 21.29 0 1 0 0-42.58 21.29 21.29 0 0 0 0 42.58z" clip-path="url(#p92fe582985)" style="fill:#ff0029"/><path id="patch_27" d="M168.323 350.486a21.29 21.29 0 1 0-.001-42.58 21.29 21.29 0 0 0 0 42.58z" clip-path="url(#p92fe582985)" style="fill:#cd00ff"/><path id="patch_28" d="M422.19 734.514a10.645 10.645 0 1 0-.001-21.29 10.645 10.645 0 0 0 0 21.29z" clip-path="url(#p92fe582985)" style="fill:#ff4800"/><path id="patch_29" d="M174.027 768.96a10.645 10.645 0 1 0 0-21.29 10.645 10.645 0 0 0 0 21.29z" clip-path="url(#p92fe582985)" style="fill:#5a00ff"/><path id="patch_30" d="M220.257 768.96a5.322 5.322 0 1 0 0-10.645 5.322 5.322 0 0 0 0 10.645z" clip-path="url(#p92fe582985)" style="fill:#ffba00"/><path id="patch_31" d="M340.686 768.96a5.322 5.322 0 1 0 0-10.645 5.322 5.322 0 0 0 0 10.645z" clip-path="url(#p92fe582985)" style="fill:#0018ff"/><path id="patch_32" d="M112.821 741.2a2.661 2.661 0 1 0 0-5.322 2.661 2.661 0 0 0 0 5.323z" clip-path="url(#p92fe582985)" style="fill:#cdff00"/><path id="patch_33" d="M112.821 762.49a2.661 2.661 0 1 0 0-5.323 2.661 2.661 0 0 0 0 5.323z" clip-path="url(#p92fe582985)" style="fill:#008fff"/><path id="patch_34" d="M131.449 286.62a21.29 21.29 0 1 0 0-42.58 21.29 21.29 0 0 0 0 42.58z" clip-path="url(#p92fe582985)" style="fill:#ff0029"/><path id="patch_35" d="M549.923 732.086a21.29 21.29 0 1 0 0-42.58 21.29 21.29 0 0 0 0 42.58z" clip-path="url(#p92fe582985)" style="fill:#cd00ff"/><path id="patch_36" d="M613.79 768.96a21.29 21.29 0 1 0-.001-42.58 21.29 21.29 0 0 0 0 42.58z" clip-path="url(#p92fe582985)" style="fill:#ff0029"/><path id="patch_37" d="M168.323 307.908a21.29 21.29 0 1 0-.001-42.58 21.29 21.29 0 0 0 0 42.58z" clip-path="url(#p92fe582985)" style="fill:#cd00ff"/><path id="patch_38" d="M152.738 768.96a10.645 10.645 0 1 0 0-21.29 10.645 10.645 0 0 0 0 21.29z" clip-path="url(#p92fe582985)" style="fill:#ff4800"/><path id="patch_39" d="M163.382 750.523a10.645 10.645 0 1 0 0-21.29 10.645 10.645 0 0 0 0 21.29z" clip-path="url(#p92fe582985)" style="fill:#5a00ff"/><path id="patch_40" d="M131.449 244.041a21.29 21.29 0 1 0 0-42.58 21.29 21.29 0 0 0 0 42.58z" clip-path="url(#p92fe582985)" style="fill:#ff0029"/><path id="patch_41" d="M592.5 732.086a21.29 21.29 0 1 0 0-42.58 21.29 21.29 0 0 0 0 42.58z" clip-path="url(#p92fe582985)" style="fill:#cd00ff"/><path id="patch_42" d="M656.368 768.96a21.29 21.29 0 1 0-.001-42.58 21.29 21.29 0 0 0 0 42.58z" clip-path="url(#p92fe582985)" style="fill:#ff0029"/><path id="patch_43" d="M168.323 265.33a21.29 21.29 0 1 0-.001-42.58 21.29 21.29 0 0 0 0 42.58z" clip-path="url(#p92fe582985)" style="fill:#cd00ff"/><path id="patch_44" d="M120.804 203.29a10.645 10.645 0 1 0 0-21.29 10.645 10.645 0 0 0 0 21.29z" clip-path="url(#p92fe582985)" style="fill:#ff4800"/><path id="patch_45" d="M635.079 734.514a10.645 10.645 0 1 0 0-21.29 10.645 10.645 0 0 0 0 21.29z" clip-path="url(#p92fe582985)" style="fill:#5a00ff"/><path id="patch_46" d="M115.482 291.941a5.322 5.322 0 1 0 0-10.645 5.322 5.322 0 0 0 0 10.645z" clip-path="url(#p92fe582985)" style="fill:#ffba00"/><path id="patch_47" d="M592.5 768.96a5.322 5.322 0 1 0 0-10.645 5.322 5.322 0 0 0 0 10.645z" clip-path="url(#p92fe582985)" style="fill:#0018ff"/><path id="patch_48" d="M698.946 768.96a21.29 21.29 0 1 0-.001-42.58 21.29 21.29 0 0 0 0 42.58z" clip-path="url(#p92fe582985)" style="fill:#ff0029"/><path id="patch_49" d="M131.449 183.827a21.29 21.29 0 1 0 0-42.58 21.29 21.29 0 0 0 0 42.58z" clip-path="url(#p92fe582985)" style="fill:#cd00ff"/><path id="patch_50" d="M677.657 732.086a21.29 21.29 0 1 0-.001-42.58 21.29 21.29 0 0 0 0 42.58z" clip-path="url(#p92fe582985)" style="fill:#ff0029"/><path id="patch_51" d="M741.524 768.96a21.29 21.29 0 1 0-.001-42.58 21.29 21.29 0 0 0 0 42.58z" clip-path="url(#p92fe582985)" style="fill:#cd00ff"/><path id="patch_52" d="M120.804 143.075a10.645 10.645 0 1 0 0-21.29 10.645 10.645 0 0 0 0 21.29z" clip-path="url(#p92fe582985)" style="fill:#ff4800"/><path id="patch_53" d="M720.235 734.514a10.645 10.645 0 1 0 0-21.29 10.645 10.645 0 0 0 0 21.29z" clip-path="url(#p92fe582985)" style="fill:#5a00ff"/><path id="patch_54" d="M635.079 768.96a5.322 5.322 0 1 0 0-10.645 5.322 5.322 0 0 0 0 10.645z" clip-path="url(#p92fe582985)" style="fill:#ffba00"/><path id="patch_55" d="M115.482 249.363a5.322 5.322 0 1 0 0-10.645 5.322 5.322 0 0 0 0 10.645z" clip-path="url(#p92fe582985)" style="fill:#0018ff"/><path id="patch_56" d="M112.821 767.812a2.661 2.661 0 1 0 0-5.323 2.661 2.661 0 0 0 0 5.323z" clip-path="url(#p92fe582985)" style="fill:#cdff00"/><path id="patch_57" d="M142.421 289.28a2.661 2.661 0 1 0 0-5.322 2.661 2.661 0 0 0 0 5.322z" clip-path="url(#p92fe582985)" style="fill:#008fff"/><path id="patch_58" d="M635.079 741.358a1.33 1.33 0 1 0 0-2.661 1.33 1.33 0 0 0 0 2.661z" clip-path="url(#p92fe582985)" style="fill:#5cff00"/><path id="patch_59" d="M645.723 768.96a1.33 1.33 0 1 0 0-2.661 1.33 1.33 0 0 0 0 2.661z" clip-path="url(#p92fe582985)" style="fill:#00fffd"/><path id="patch_60" d="M677.657 768.96a5.322 5.322 0 1 0 0-10.645 5.322 5.322 0 0 0 0 10.645z" clip-path="url(#p92fe582985)" style="fill:#ffba00"/><path id="patch_61" d="M115.482 377.097a5.322 5.322 0 1 0 0-10.645 5.322 5.322 0 0 0 0 10.645z" clip-path="url(#p92fe582985)" style="fill:#0018ff"/><path id="patch_62" d="M507.345 768.96a5.322 5.322 0 1 0 0-10.645 5.322 5.322 0 0 0 0 10.645z" clip-path="url(#p92fe582985)" style="fill:#ffba00"/><path id="patch_63" d="M549.923 768.96a5.322 5.322 0 1 0 0-10.645 5.322 5.322 0 0 0 0 10.645z" clip-path="url(#p92fe582985)" style="fill:#0018ff"/><path id="patch_64" d="M592.5 739.36a2.661 2.661 0 1 0 0-5.322 2.661 2.661 0 0 0 0 5.322z" clip-path="url(#p92fe582985)" style="fill:#cdff00"/><path id="patch_65" d="M348.213 768.96a2.661 2.661 0 1 0 0-5.322 2.661 2.661 0 0 0 0 5.322z" clip-path="url(#p92fe582985)" style="fill:#008fff"/><path id="patch_66" d="M464.767 768.96a5.322 5.322 0 1 0 0-10.645 5.322 5.322 0 0 0 0 10.645z" clip-path="url(#p92fe582985)" style="fill:#ffba00"/><path id="patch_67" d="M115.482 334.52a5.322 5.322 0 1 0 0-10.646 5.322 5.322 0 0 0 0 10.645z" clip-path="url(#p92fe582985)" style="fill:#0018ff"/><path id="patch_68" d="M115.482 543.756a5.322 5.322 0 1 0 0-10.645 5.322 5.322 0 0 0 0 10.645z" clip-path="url(#p92fe582985)" style="fill:#ffba00"/><path id="patch_69" d="M115.482 462.253a5.322 5.322 0 1 0 0-10.645 5.322 5.322 0 0 0 0 10.645z" clip-path="url(#p92fe582985)" style="fill:#0018ff"/><path id="patch_70" d="M112.821 210.36a2.661 2.661 0 1 0 0-5.323 2.661 2.661 0 0 0 0 5.323z" clip-path="url(#p92fe582985)" style="fill:#cdff00"/><path id="patch_71" d="M163.382 768.96a2.661 2.661 0 1 0 0-5.322 2.661 2.661 0 0 0 0 5.322z" clip-path="url(#p92fe582985)" style="fill:#008fff"/><path id="patch_72" d="M111.49 293.272a1.33 1.33 0 1 0 0-2.661 1.33 1.33 0 0 0 0 2.66z" clip-path="url(#p92fe582985)" style="fill:#5cff00"/><path id="patch_73" d="M517.99 768.96a1.33 1.33 0 1 0 0-2.661 1.33 1.33 0 0 0 0 2.661z" clip-path="url(#p92fe582985)" style="fill:#00fffd"/><path id="patch_74" d="M158.06 768.96a.665.665 0 1 0 0-1.33.665.665 0 0 0 0 1.33z" clip-path="url(#p92fe582985)" style="fill:#00ff16"/><path id="patch_75" d="M635.079 742.973a.665.665 0 1 0 0-1.331.665.665 0 0 0 0 1.33z" clip-path="url(#p92fe582985)" style="fill:#00ff8c"/><path id="patch_76" d="M115.482 419.675a5.322 5.322 0 1 0 0-10.645 5.322 5.322 0 0 0 0 10.645z" clip-path="url(#p92fe582985)" style="fill:#ffba00"/><path id="patch_77" d="M184.671 751.737a5.322 5.322 0 1 0 0-10.645 5.322 5.322 0 0 0 0 10.645z" clip-path="url(#p92fe582985)" style="fill:#0018ff"/><path id="patch_78" d="M137.684 768.96a5.322 5.322 0 1 0 0-10.645 5.322 5.322 0 0 0 0 10.645z" clip-path="url(#p92fe582985)" style="fill:#ffba00"/><path id="patch_79" d="M720.235 768.96a5.322 5.322 0 1 0 0-10.645 5.322 5.322 0 0 0 0 10.645z" clip-path="url(#p92fe582985)" style="fill:#0018ff"/><path id="patch_80" d="M112.821 184.662a2.661 2.661 0 1 0 0-5.323 2.661 2.661 0 0 0 0 5.323z" clip-path="url(#p92fe582985)" style="fill:#cdff00"/><path id="patch_81" d="M142.421 246.702a2.661 2.661 0 1 0 0-5.322 2.661 2.661 0 0 0 0 5.322z" clip-path="url(#p92fe582985)" style="fill:#008fff"/><path id="patch_82" d="M762.813 768.96a5.322 5.322 0 1 0 0-10.645 5.322 5.322 0 0 0 0 10.645z" clip-path="url(#p92fe582985)" style="fill:#ffba00"/><path id="patch_83" d="M115.482 122.7a5.322 5.322 0 1 0 0-10.645 5.322 5.322 0 0 0 0 10.645z" clip-path="url(#p92fe582985)" style="fill:#0018ff"/><path id="patch_84" d="M112.821 150.146a2.661 2.661 0 1 0 0-5.323 2.661 2.661 0 0 0 0 5.323z" clip-path="url(#p92fe582985)" style="fill:#cdff00"/><path id="patch_85" d="M333.16 768.96a2.661 2.661 0 1 0 0-5.322 2.661 2.661 0 0 0 0 5.322z" clip-path="url(#p92fe582985)" style="fill:#008fff"/><path id="patch_86" d="M111.49 277.305a1.33 1.33 0 1 0 0-2.661 1.33 1.33 0 0 0 0 2.661z" clip-path="url(#p92fe582985)" style="fill:#5cff00"/><path id="patch_87" d="M111.49 201.502a1.33 1.33 0 1 0 0-2.66 1.33 1.33 0 0 0 0 2.66z" clip-path="url(#p92fe582985)" style="fill:#00fffd"/><path id="patch_88" d="M677.657 739.36a2.661 2.661 0 1 0 0-5.322 2.661 2.661 0 0 0 0 5.322z" clip-path="url(#p92fe582985)" style="fill:#cdff00"/><path id="patch_89" d="M227.784 768.96a2.661 2.661 0 1 0 0-5.322 2.661 2.661 0 0 0 0 5.322z" clip-path="url(#p92fe582985)" style="fill:#008fff"/><path id="patch_90" d="M117.43 765.15a2.661 2.661 0 1 0 0-5.322 2.661 2.661 0 0 0 0 5.323z" clip-path="url(#p92fe582985)" style="fill:#cdff00"/><path id="patch_91" d="M353.535 768.96a2.661 2.661 0 1 0 0-5.322 2.661 2.661 0 0 0 0 5.322z" clip-path="url(#p92fe582985)" style="fill:#008fff"/><path id="patch_92" d="M677.657 756.645a1.33 1.33 0 1 0 0-2.661 1.33 1.33 0 0 0 0 2.661z" clip-path="url(#p92fe582985)" style="fill:#5cff00"/><path id="patch_93" d="M111.49 282.627a1.33 1.33 0 1 0 0-2.66 1.33 1.33 0 0 0 0 2.66z" clip-path="url(#p92fe582985)" style="fill:#00fffd"/><path id="patch_94" d="M350.874 768.96a.665.665 0 1 0 0-1.33.665.665 0 0 0 0 1.33z" clip-path="url(#p92fe582985)" style="fill:#00ff16"/><path id="patch_95" d="M345.552 768.96a.665.665 0 1 0 0-1.33.665.665 0 0 0 0 1.33z" clip-path="url(#p92fe582985)" style="fill:#00ff8c"/><path id="patch_96" d="M112.821 533.568a2.661 2.661 0 1 0 0-5.322 2.661 2.661 0 0 0 0 5.322z" clip-path="url(#p92fe582985)" style="fill:#cdff00"/><path id="patch_97" d="M112.821 548.622a2.661 2.661 0 1 0 0-5.323 2.661 2.661 0 0 0 0 5.323z" clip-path="url(#p92fe582985)" style="fill:#008fff"/><path id="patch_98" d="M130.158 768.96a2.661 2.661 0 1 0 0-5.322 2.661 2.661 0 0 0 0 5.322z" clip-path="url(#p92fe582985)" style="fill:#cdff00"/><path id="patch_99" d="M770.34 768.96a2.661 2.661 0 1 0 0-5.322 2.661 2.661 0 0 0 0 5.322z" clip-path="url(#p92fe582985)" style="fill:#008fff"/><path id="patch_100" d="M709.59 768.96a1.33 1.33 0 1 0 0-2.661 1.33 1.33 0 0 0 0 2.661z" clip-path="url(#p92fe582985)" style="fill:#5cff00"/><path id="patch_101" d="M111.49 153.224a1.33 1.33 0 1 0 0-2.661 1.33 1.33 0 0 0 0 2.661z" clip-path="url(#p92fe582985)" style="fill:#00fffd"/><path id="patch_102" d="M112.821 653.997a2.661 2.661 0 1 0 0-5.323 2.661 2.661 0 0 0 0 5.323z" clip-path="url(#p92fe582985)" style="fill:#cdff00"/><path id="patch_103" d="M112.821 669.05a2.661 2.661 0 1 0 0-5.322 2.661 2.661 0 0 0 0 5.322z" clip-path="url(#p92fe582985)" style="fill:#008fff"/><path id="patch_104" d="M142.421 374.436a2.661 2.661 0 1 0 0-5.322 2.661 2.661 0 0 0 0 5.322z" clip-path="url(#p92fe582985)" style="fill:#cdff00"/><path id="patch_105" d="M376.272 768.96a2.661 2.661 0 1 0 0-5.322 2.661 2.661 0 0 0 0 5.322z" clip-path="url(#p92fe582985)" style="fill:#008fff"/><path id="patch_106" d="M123.805 245.372a1.33 1.33 0 1 0 0-2.661 1.33 1.33 0 0 0 0 2.66z" clip-path="url(#p92fe582985)" style="fill:#5cff00"/><path id="patch_107" d="M111.49 213.438a1.33 1.33 0 1 0 0-2.66 1.33 1.33 0 0 0 0 2.66z" clip-path="url(#p92fe582985)" style="fill:#00fffd"/><path id="patch_108" d="M110.825 763.155a.665.665 0 1 0 0-1.33.665.665 0 0 0 0 1.33z" clip-path="url(#p92fe582985)" style="fill:#00ff16"/><path id="patch_109" d="M110.825 744.527a.665.665 0 1 0 0-1.33.665.665 0 0 0 0 1.33z" clip-path="url(#p92fe582985)" style="fill:#00ff8c"/><path id="patch_110" d="M507.345 739.36a2.661 2.661 0 1 0 0-5.322 2.661 2.661 0 0 0 0 5.322z" clip-path="url(#p92fe582985)" style="fill:#cdff00"/><path id="patch_111" d="M142.421 331.858a2.661 2.661 0 1 0 0-5.322 2.661 2.661 0 0 0 0 5.322z" clip-path="url(#p92fe582985)" style="fill:#008fff"/><path id="patch_112" d="M205.96 768.96a2.661 2.661 0 1 0 0-5.322 2.661 2.661 0 0 0 0 5.322z" clip-path="url(#p92fe582985)" style="fill:#cdff00"/><path id="patch_113" d="M549.923 739.36a2.661 2.661 0 1 0 0-5.322 2.661 2.661 0 0 0 0 5.322z" clip-path="url(#p92fe582985)" style="fill:#008fff"/><path id="patch_114" d="M603.145 768.96a1.33 1.33 0 1 0 0-2.661 1.33 1.33 0 0 0 0 2.661z" clip-path="url(#p92fe582985)" style="fill:#5cff00"/><path id="patch_115" d="M730.88 768.96a1.33 1.33 0 1 0 0-2.661 1.33 1.33 0 0 0 0 2.661z" clip-path="url(#p92fe582985)" style="fill:#00fffd"/><path id="patch_116" d="M184.671 768.96a2.661 2.661 0 1 0 0-5.322 2.661 2.661 0 0 0 0 5.322z" clip-path="url(#p92fe582985)" style="fill:#cdff00"/><path id="patch_117" d="M464.767 739.36a2.661 2.661 0 1 0 0-5.322 2.661 2.661 0 0 0 0 5.322z" clip-path="url(#p92fe582985)" style="fill:#008fff"/><path id="patch_118" d="M212.73 768.96a2.661 2.661 0 1 0 0-5.322 2.661 2.661 0 0 0 0 5.322z" clip-path="url(#p92fe582985)" style="fill:#cdff00"/><path id="patch_119" d="M142.421 417.014a2.661 2.661 0 1 0 0-5.322 2.661 2.661 0 0 0 0 5.322z" clip-path="url(#p92fe582985)" style="fill:#008fff"/><path id="patch_120" d="M111.49 141.288a1.33 1.33 0 1 0 0-2.661 1.33 1.33 0 0 0 0 2.661z" clip-path="url(#p92fe582985)" style="fill:#5cff00"/><path id="patch_121" d="M111.49 240.05a1.33 1.33 0 1 0 0-2.662 1.33 1.33 0 0 0 0 2.662z" clip-path="url(#p92fe582985)" style="fill:#00fffd"/><path id="patch_122" d="M110.825 155.676a.665.665 0 1 0 0-1.33.665.665 0 0 0 0 1.33z" clip-path="url(#p92fe582985)" style="fill:#00ff16"/><path id="patch_123" d="M706.472 768.96a.665.665 0 1 0 0-1.33.665.665 0 0 0 0 1.33z" clip-path="url(#p92fe582985)" style="fill:#00ff8c"/><path id="patch_124" d="M112.821 697.11a2.661 2.661 0 1 0 0-5.323 2.661 2.661 0 0 0 0 5.323z" clip-path="url(#p92fe582985)" style="fill:#cdff00"/><path id="patch_125" d="M112.821 112.512a2.661 2.661 0 1 0 0-5.323 2.661 2.661 0 0 0 0 5.323z" clip-path="url(#p92fe582985)" style="fill:#008fff"/><path id="patch_126" d="M327.837 768.96a2.661 2.661 0 1 0 0-5.322 2.661 2.661 0 0 0 0 5.322z" clip-path="url(#p92fe582985)" style="fill:#cdff00"/><path id="patch_127" d="M233.106 768.96a2.661 2.661 0 1 0 0-5.322 2.661 2.661 0 0 0 0 5.322z" clip-path="url(#p92fe582985)" style="fill:#008fff"/><path id="patch_128" d="M111.49 367.783a1.33 1.33 0 1 0 0-2.66 1.33 1.33 0 0 0 0 2.66z" clip-path="url(#p92fe582985)" style="fill:#5cff00"/><path id="patch_129" d="M111.49 378.428a1.33 1.33 0 1 0 0-2.661 1.33 1.33 0 0 0 0 2.66z" clip-path="url(#p92fe582985)" style="fill:#00fffd"/><path id="patch_130" d="M112.821 558.732a2.661 2.661 0 1 0 0-5.323 2.661 2.661 0 0 0 0 5.323z" clip-path="url(#p92fe582985)" style="fill:#cdff00"/><path id="patch_131" d="M112.821 643.887a2.661 2.661 0 1 0 0-5.322 2.661 2.661 0 0 0 0 5.322z" clip-path="url(#p92fe582985)" style="fill:#008fff"/><path id="patch_132" d="M112.821 495.934a2.661 2.661 0 1 0 0-5.322 2.661 2.661 0 0 0 0 5.322z" clip-path="url(#p92fe582985)" style="fill:#cdff00"/><path id="patch_133" d="M112.821 706.684a2.661 2.661 0 1 0 0-5.322 2.661 2.661 0 0 0 0 5.322z" clip-path="url(#p92fe582985)" style="fill:#008fff"/><path id="patch_134" d="M111.49 205.266a1.33 1.33 0 1 0 0-2.661 1.33 1.33 0 0 0 0 2.66z" clip-path="url(#p92fe582985)" style="fill:#5cff00"/><path id="patch_135" d="M111.49 463.584a1.33 1.33 0 1 0 0-2.662 1.33 1.33 0 0 0 0 2.662z" clip-path="url(#p92fe582985)" style="fill:#00fffd"/><path id="patch_136" d="M136.813 287.284a.665.665 0 1 0 0-1.33.665.665 0 0 0 0 1.33z" clip-path="url(#p92fe582985)" style="fill:#00ff16"/><path id="patch_137" d="M110.825 757.833a.665.665 0 1 0 0-1.331.665.665 0 0 0 0 1.33z" clip-path="url(#p92fe582985)" style="fill:#00ff8c"/><path id="patch_138" d="M385.847 768.96a2.661 2.661 0 1 0 0-5.322 2.661 2.661 0 0 0 0 5.322z" clip-path="url(#p92fe582985)" style="fill:#cdff00"/><path id="patch_139" d="M112.821 505.51a2.661 2.661 0 1 0 0-5.323 2.661 2.661 0 0 0 0 5.322z" clip-path="url(#p92fe582985)" style="fill:#008fff"/><path id="patch_140" d="M112.821 526.798a2.661 2.661 0 1 0 0-5.322 2.661 2.661 0 0 0 0 5.322z" clip-path="url(#p92fe582985)" style="fill:#cdff00"/><path id="patch_141" d="M112.821 675.82a2.661 2.661 0 1 0 0-5.322 2.661 2.661 0 0 0 0 5.323z" clip-path="url(#p92fe582985)" style="fill:#008fff"/><path id="patch_142" d="M143.007 768.96a1.33 1.33 0 1 0 0-2.661 1.33 1.33 0 0 0 0 2.661z" clip-path="url(#p92fe582985)" style="fill:#5cff00"/><path id="patch_143" d="M714.912 768.96a1.33 1.33 0 1 0 0-2.661 1.33 1.33 0 0 0 0 2.661z" clip-path="url(#p92fe582985)" style="fill:#00fffd"/><path id="patch_144" d="M350.874 764.35a2.661 2.661 0 1 0 0-5.322 2.661 2.661 0 0 0 0 5.323z" clip-path="url(#p92fe582985)" style="fill:#cdff00"/><path id="patch_145" d="M124.835 768.96a2.661 2.661 0 1 0 0-5.322 2.661 2.661 0 0 0 0 5.322z" clip-path="url(#p92fe582985)" style="fill:#008fff"/><path id="patch_146" d="M127.496 764.35a2.661 2.661 0 1 0 0-5.322 2.661 2.661 0 0 0 0 5.323z" clip-path="url(#p92fe582985)" style="fill:#cdff00"/><path id="patch_147" d="M725.557 768.96a1.33 1.33 0 1 0 0-2.661 1.33 1.33 0 0 0 0 2.661z" clip-path="url(#p92fe582985)" style="fill:#5cff00"/><path id="patch_148" d="M111.49 179.568a1.33 1.33 0 1 0 0-2.661 1.33 1.33 0 0 0 0 2.66z" clip-path="url(#p92fe582985)" style="fill:#00fffd"/><path id="patch_149" d="M648.841 768.96a.665.665 0 1 0 0-1.33.665.665 0 0 0 0 1.33z" clip-path="url(#p92fe582985)" style="fill:#00ff16"/><path id="patch_150" d="M110.825 741.866a.665.665 0 1 0 0-1.33.665.665 0 0 0 0 1.33z" clip-path="url(#p92fe582985)" style="fill:#00ff8c"/><path id="patch_151" d="M757.49 768.96a1.33 1.33 0 1 0 0-2.661 1.33 1.33 0 0 0 0 2.661z" clip-path="url(#p92fe582985)" style="fill:#5cff00"/><path id="patch_152" d="M111.49 124.03a1.33 1.33 0 1 0 0-2.661 1.33 1.33 0 0 0 0 2.661z" clip-path="url(#p92fe582985)" style="fill:#00fffd"/><path id="patch_153" d="M111.49 145.052a1.33 1.33 0 1 0 0-2.662 1.33 1.33 0 0 0 0 2.662z" clip-path="url(#p92fe582985)" style="fill:#5cff00"/><path id="patch_154" d="M111.49 410.361a1.33 1.33 0 1 0 0-2.661 1.33 1.33 0 0 0 0 2.661z" clip-path="url(#p92fe582985)" style="fill:#00fffd"/><path id="patch_155" d="M330.498 768.96a.665.665 0 1 0 0-1.33.665.665 0 0 0 0 1.33z" clip-path="url(#p92fe582985)" style="fill:#00ff16"/><path id="patch_156" d="M110.825 198.633a.665.665 0 1 0 0-1.331.665.665 0 0 0 0 1.33z" clip-path="url(#p92fe582985)" style="fill:#00ff8c"/><path id="patch_157" d="M111.49 421.006a1.33 1.33 0 1 0 0-2.662 1.33 1.33 0 0 0 0 2.662z" clip-path="url(#p92fe582985)" style="fill:#5cff00"/><path id="patch_158" d="M111.49 279.966a1.33 1.33 0 1 0 0-2.66 1.33 1.33 0 0 0 0 2.66z" clip-path="url(#p92fe582985)" style="fill:#00fffd"/><path id="patch_159" d="M515.328 768.96a1.33 1.33 0 1 0 0-2.661 1.33 1.33 0 0 0 0 2.661z" clip-path="url(#p92fe582985)" style="fill:#5cff00"/><path id="patch_160" d="M357.298 768.96a1.33 1.33 0 1 0 0-2.661 1.33 1.33 0 0 0 0 2.661z" clip-path="url(#p92fe582985)" style="fill:#00fffd"/><path id="patch_161" d="M677.657 753.7a.665.665 0 1 0 0-1.33.665.665 0 0 0 0 1.33z" clip-path="url(#p92fe582985)" style="fill:#00ff16"/><path id="patch_162" d="M677.657 742.973a.665.665 0 1 0 0-1.331.665.665 0 0 0 0 1.33z" clip-path="url(#p92fe582985)" style="fill:#00ff8c"/><path id="patch_163" d="M111.49 551.055a1.33 1.33 0 1 0 0-2.661 1.33 1.33 0 0 0 0 2.66z" clip-path="url(#p92fe582985)" style="fill:#5cff00"/><path id="patch_164" d="M111.49 295.933a1.33 1.33 0 1 0 0-2.661 1.33 1.33 0 0 0 0 2.661z" clip-path="url(#p92fe582985)" style="fill:#00fffd"/><path id="patch_165" d="M712.251 768.96a1.33 1.33 0 1 0 0-2.661 1.33 1.33 0 0 0 0 2.661z" clip-path="url(#p92fe582985)" style="fill:#5cff00"/><path id="patch_166" d="M111.49 452.94a1.33 1.33 0 1 0 0-2.662 1.33 1.33 0 0 0 0 2.661z" clip-path="url(#p92fe582985)" style="fill:#00fffd"/><path id="patch_167" d="M110.825 528.911a.665.665 0 1 0 0-1.33.665.665 0 0 0 0 1.33z" clip-path="url(#p92fe582985)" style="fill:#00ff16"/><path id="patch_168" d="M230.445 768.96a.665.665 0 1 0 0-1.33.665.665 0 0 0 0 1.33z" clip-path="url(#p92fe582985)" style="fill:#00ff8c"/><path id="patch_169" d="M774.103 768.96a1.33 1.33 0 1 0 0-2.661 1.33 1.33 0 0 0 0 2.661z" clip-path="url(#p92fe582985)" style="fill:#5cff00"/><path id="patch_170" d="M470.09 768.96a1.33 1.33 0 1 0 0-2.661 1.33 1.33 0 0 0 0 2.661z" clip-path="url(#p92fe582985)" style="fill:#00fffd"/><path id="patch_171" d="M111.49 648.903a1.33 1.33 0 1 0 0-2.661 1.33 1.33 0 0 0 0 2.661z" clip-path="url(#p92fe582985)" style="fill:#5cff00"/><path id="patch_172" d="M459.445 768.96a1.33 1.33 0 1 0 0-2.661 1.33 1.33 0 0 0 0 2.661z" clip-path="url(#p92fe582985)" style="fill:#00fffd"/><path id="patch_173" d="M110.825 187.988a.665.665 0 1 0 0-1.33.665.665 0 0 0 0 1.33z" clip-path="url(#p92fe582985)" style="fill:#00ff16"/><path id="patch_174" d="M132.819 768.96a.665.665 0 1 0 0-1.33.665.665 0 0 0 0 1.33z" clip-path="url(#p92fe582985)" style="fill:#00ff8c"/><path id="patch_175" d="M380.035 768.96a1.33 1.33 0 1 0 0-2.661 1.33 1.33 0 0 0 0 2.661z" clip-path="url(#p92fe582985)" style="fill:#5cff00"/><path id="patch_176" d="M555.245 768.96a1.33 1.33 0 1 0 0-2.661 1.33 1.33 0 0 0 0 2.661z" clip-path="url(#p92fe582985)" style="fill:#00fffd"/><path id="patch_177" d="M600.484 768.96a1.33 1.33 0 1 0 0-2.661 1.33 1.33 0 0 0 0 2.661z" clip-path="url(#p92fe582985)" style="fill:#5cff00"/><path id="patch_178" d="M728.218 768.96a1.33 1.33 0 1 0 0-2.661 1.33 1.33 0 0 0 0 2.661z" clip-path="url(#p92fe582985)" style="fill:#00fffd"/><path id="patch_179" d="M110.825 654.662a.665.665 0 1 0 0-1.33.665.665 0 0 0 0 1.33z" clip-path="url(#p92fe582985)" style="fill:#00ff16"/><path id="patch_180" d="M110.825 664.394a.665.665 0 1 0 0-1.331.665.665 0 0 0 0 1.33z" clip-path="url(#p92fe582985)" style="fill:#00ff8c"/><path id="patch_181" d="M544.6 768.96a1.33 1.33 0 1 0 0-2.661 1.33 1.33 0 0 0 0 2.661z" clip-path="url(#p92fe582985)" style="fill:#5cff00"/><path id="patch_182" d="M111.49 237.388a1.33 1.33 0 1 0 0-2.66 1.33 1.33 0 0 0 0 2.66z" clip-path="url(#p92fe582985)" style="fill:#00fffd"/><path id="patch_183" d="M111.49 107.418a1.33 1.33 0 1 0 0-2.662 1.33 1.33 0 0 0 0 2.662z" clip-path="url(#p92fe582985)" style="fill:#5cff00"/><path id="patch_184" d="M111.49 699.543a1.33 1.33 0 1 0 0-2.662 1.33 1.33 0 0 0 0 2.662z" clip-path="url(#p92fe582985)" style="fill:#00fffd"/><path id="patch_185" d="M373.61 768.96a.665.665 0 1 0 0-1.33.665.665 0 0 0 0 1.33z" clip-path="url(#p92fe582985)" style="fill:#00ff16"/><path id="patch_186" d="M110.825 214.655a.665.665 0 1 0 0-1.33.665.665 0 0 0 0 1.33z" clip-path="url(#p92fe582985)" style="fill:#00ff8c"/><path id="patch_187" d="M672.334 768.96a1.33 1.33 0 1 0 0-2.661 1.33 1.33 0 0 0 0 2.661z" clip-path="url(#p92fe582985)" style="fill:#5cff00"/><path id="patch_188" d="M682.979 768.96a1.33 1.33 0 1 0 0-2.661 1.33 1.33 0 0 0 0 2.661z" clip-path="url(#p92fe582985)" style="fill:#00fffd"/><path id="patch_189" d="M330.498 764.654a1.33 1.33 0 1 0 0-2.661 1.33 1.33 0 0 0 0 2.661z" clip-path="url(#p92fe582985)" style="fill:#5cff00"/><path id="patch_190" d="M324.074 768.96a1.33 1.33 0 1 0 0-2.661 1.33 1.33 0 0 0 0 2.661z" clip-path="url(#p92fe582985)" style="fill:#00fffd"/><path id="patch_191" d="M127.496 768.96a.665.665 0 1 0 0-1.33.665.665 0 0 0 0 1.33z" clip-path="url(#p92fe582985)" style="fill:#00ff16"/><path id="patch_192" d="M126.085 244.706a.665.665 0 1 0 0-1.33.665.665 0 0 0 0 1.33z" clip-path="url(#p92fe582985)" style="fill:#00ff8c"/><path id="patch_193" d="M230.445 764.654a1.33 1.33 0 1 0 0-2.661 1.33 1.33 0 0 0 0 2.661z" clip-path="url(#p92fe582985)" style="fill:#5cff00"/><path id="patch_194" d="M643.062 768.96a1.33 1.33 0 1 0 0-2.661 1.33 1.33 0 0 0 0 2.661z" clip-path="url(#p92fe582985)" style="fill:#00fffd"/><path id="patch_195" d="M236.87 768.96a1.33 1.33 0 1 0 0-2.661 1.33 1.33 0 0 0 0 2.661z" clip-path="url(#p92fe582985)" style="fill:#5cff00"/><path id="patch_196" d="M111.49 365.122a1.33 1.33 0 1 0 0-2.661 1.33 1.33 0 0 0 0 2.661z" clip-path="url(#p92fe582985)" style="fill:#00fffd"/><path id="patch_197" d="M110.825 527.463a.665.665 0 1 0 0-1.33.665.665 0 0 0 0 1.33z" clip-path="url(#p92fe582985)" style="fill:#00ff16"/><path id="patch_198" d="M224.02 768.96a.665.665 0 1 0 0-1.33.665.665 0 0 0 0 1.33z" clip-path="url(#p92fe582985)" style="fill:#00ff8c"/><path id="patch_199" d="M111.49 561.164a1.33 1.33 0 1 0 0-2.66 1.33 1.33 0 0 0 0 2.66z" clip-path="url(#p92fe582985)" style="fill:#5cff00"/><path id="patch_200" d="M111.49 638.793a1.33 1.33 0 1 0 0-2.66 1.33 1.33 0 0 0 0 2.66z" clip-path="url(#p92fe582985)" style="fill:#00fffd"/><path id="patch_201" d="M111.49 490.84a1.33 1.33 0 1 0 0-2.66 1.33 1.33 0 0 0 0 2.66z" clip-path="url(#p92fe582985)" style="fill:#5cff00"/><path id="patch_202" d="M111.49 498.367a1.33 1.33 0 1 0 0-2.66 1.33 1.33 0 0 0 0 2.66z" clip-path="url(#p92fe582985)" style="fill:#00fffd"/><path id="patch_203" d="M335.82 768.96a.665.665 0 1 0 0-1.33.665.665 0 0 0 0 1.33z" clip-path="url(#p92fe582985)" style="fill:#00ff16"/><path id="patch_204" d="M110.825 274.758a.665.665 0 1 0 0-1.33.665.665 0 0 0 0 1.33z" clip-path="url(#p92fe582985)" style="fill:#00ff8c"/><path id="patch_205" d="M111.49 381.089a1.33 1.33 0 1 0 0-2.661 1.33 1.33 0 0 0 0 2.66z" clip-path="url(#p92fe582985)" style="fill:#5cff00"/><path id="patch_206" d="M111.49 709.117a1.33 1.33 0 1 0 0-2.661 1.33 1.33 0 0 0 0 2.661z" clip-path="url(#p92fe582985)" style="fill:#00fffd"/><path id="patch_207" d="M111.49 466.245a1.33 1.33 0 1 0 0-2.662 1.33 1.33 0 0 0 0 2.662z" clip-path="url(#p92fe582985)" style="fill:#5cff00"/><path id="patch_208" d="M121.072 768.96a1.33 1.33 0 1 0 0-2.661 1.33 1.33 0 0 0 0 2.661z" clip-path="url(#p92fe582985)" style="fill:#00fffd"/><path id="patch_209" d="M208.621 768.96a.665.665 0 1 0 0-1.33.665.665 0 0 0 0 1.33z" clip-path="url(#p92fe582985)" style="fill:#00ff16"/><path id="patch_210" d="M110.825 202.719a.665.665 0 1 0 0-1.33.665.665 0 0 0 0 1.33z" clip-path="url(#p92fe582985)" style="fill:#00ff8c"/><path id="patch_211" d="M111.49 176.907a1.33 1.33 0 1 0 0-2.662 1.33 1.33 0 0 0 0 2.662z" clip-path="url(#p92fe582985)" style="fill:#5cff00"/><path id="patch_212" d="M754.83 768.96a1.33 1.33 0 1 0 0-2.661 1.33 1.33 0 0 0 0 2.661z" clip-path="url(#p92fe582985)" style="fill:#00fffd"/><path id="patch_213" d="M111.49 423.667a1.33 1.33 0 1 0 0-2.661 1.33 1.33 0 0 0 0 2.66z" clip-path="url(#p92fe582985)" style="fill:#5cff00"/><path id="patch_214" d="M512.667 768.96a1.33 1.33 0 1 0 0-2.661 1.33 1.33 0 0 0 0 2.661z" clip-path="url(#p92fe582985)" style="fill:#00fffd"/><path id="patch_215" d="M110.825 138.418a.665.665 0 1 0 0-1.33.665.665 0 0 0 0 1.33z" clip-path="url(#p92fe582985)" style="fill:#00ff16"/><path id="patch_216" d="M179.35 768.96a.665.665 0 1 0 0-1.33.665.665 0 0 0 0 1.33z" clip-path="url(#p92fe582985)" style="fill:#00ff8c"/><path id="patch_217" d="M113.795 294.602a1.33 1.33 0 1 0 0-2.66 1.33 1.33 0 0 0 0 2.66z" clip-path="url(#p92fe582985)" style="fill:#5cff00"/><path id="patch_218" d="M111.49 298.594a1.33 1.33 0 1 0 0-2.661 1.33 1.33 0 0 0 0 2.661z" clip-path="url(#p92fe582985)" style="fill:#00fffd"/><path id="patch_219" d="M111.49 407.7a1.33 1.33 0 1 0 0-2.661 1.33 1.33 0 0 0 0 2.661z" clip-path="url(#p92fe582985)" style="fill:#5cff00"/><path id="patch_220" d="M472.75 768.96a1.33 1.33 0 1 0 0-2.661 1.33 1.33 0 0 0 0 2.661z" clip-path="url(#p92fe582985)" style="fill:#00fffd"/><path id="patch_221" d="M110.825 768.477a.665.665 0 1 0 0-1.33.665.665 0 0 0 0 1.33z" clip-path="url(#p92fe582985)" style="fill:#00ff16"/><path id="patch_222" d="M110.825 535.336a.665.665 0 1 0 0-1.33.665.665 0 0 0 0 1.33z" clip-path="url(#p92fe582985)" style="fill:#00ff8c"/><path id="patch_223" d="M557.906 768.96a1.33 1.33 0 1 0 0-2.661 1.33 1.33 0 0 0 0 2.661z" clip-path="url(#p92fe582985)" style="fill:#5cff00"/><path id="patch_224" d="M597.823 768.96a1.33 1.33 0 1 0 0-2.661 1.33 1.33 0 0 0 0 2.661z" clip-path="url(#p92fe582985)" style="fill:#00fffd"/><path id="patch_225" d="M541.94 768.96a1.33 1.33 0 1 0 0-2.661 1.33 1.33 0 0 0 0 2.661z" clip-path="url(#p92fe582985)" style="fill:#5cff00"/><path id="patch_226" d="M111.49 234.727a1.33 1.33 0 1 0 0-2.66 1.33 1.33 0 0 0 0 2.66z" clip-path="url(#p92fe582985)" style="fill:#00fffd"/><path id="patch_227" d="M110.825 669.716a.665.665 0 1 0 0-1.33.665.665 0 0 0 0 1.33z" clip-path="url(#p92fe582985)" style="fill:#00ff16"/><path id="patch_228" d="M110.825 743.196a.665.665 0 1 0 0-1.33.665.665 0 0 0 0 1.33z" clip-path="url(#p92fe582985)" style="fill:#00ff8c"/><path id="patch_229" d="M669.673 768.96a1.33 1.33 0 1 0 0-2.661 1.33 1.33 0 0 0 0 2.661z" clip-path="url(#p92fe582985)" style="fill:#5cff00"/><path id="patch_230" d="M685.64 768.96a1.33 1.33 0 1 0 0-2.661 1.33 1.33 0 0 0 0 2.661z" clip-path="url(#p92fe582985)" style="fill:#00fffd"/><path id="patch_231" d="M640.401 768.96a1.33 1.33 0 1 0 0-2.661 1.33 1.33 0 0 0 0 2.661z" clip-path="url(#p92fe582985)" style="fill:#5cff00"/><path id="patch_232" d="M239.53 768.96a1.33 1.33 0 1 0 0-2.661 1.33 1.33 0 0 0 0 2.661z" clip-path="url(#p92fe582985)" style="fill:#00fffd"/><path id="patch_233" d="M160.721 768.96a.665.665 0 1 0 0-1.33.665.665 0 0 0 0 1.33z" clip-path="url(#p92fe582985)" style="fill:#00ff16"/><path id="patch_234" d="M767.678 768.96a.665.665 0 1 0 0-1.33.665.665 0 0 0 0 1.33z" clip-path="url(#p92fe582985)" style="fill:#00ff8c"/><path id="patch_235" d="M113.795 366.453a1.33 1.33 0 1 0 0-2.662 1.33 1.33 0 0 0 0 2.662z" clip-path="url(#p92fe582985)" style="fill:#5cff00"/><path id="patch_236" d="M111.49 362.461a1.33 1.33 0 1 0 0-2.661 1.33 1.33 0 0 0 0 2.661z" clip-path="url(#p92fe582985)" style="fill:#00fffd"/><path id="patch_237" d="M111.49 563.825a1.33 1.33 0 1 0 0-2.66 1.33 1.33 0 0 0 0 2.66z" clip-path="url(#p92fe582985)" style="fill:#5cff00"/><path id="patch_238" d="M111.49 636.132a1.33 1.33 0 1 0 0-2.661 1.33 1.33 0 0 0 0 2.661z" clip-path="url(#p92fe582985)" style="fill:#00fffd"/><path id="patch_239" d="M519.871 768.96a.665.665 0 1 0 0-1.33.665.665 0 0 0 0 1.33z" clip-path="url(#p92fe582985)" style="fill:#00ff16"/><path id="patch_240" d="M166.044 768.96a.665.665 0 1 0 0-1.33.665.665 0 0 0 0 1.33z" clip-path="url(#p92fe582985)" style="fill:#00ff8c"/><path id="patch_241" d="M113.795 379.758a1.33 1.33 0 1 0 0-2.66 1.33 1.33 0 0 0 0 2.66z" clip-path="url(#p92fe582985)" style="fill:#5cff00"/><path id="patch_242" d="M321.412 768.96a1.33 1.33 0 1 0 0-2.661 1.33 1.33 0 0 0 0 2.661z" clip-path="url(#p92fe582985)" style="fill:#00fffd"/><path id="patch_243" d="M113.795 464.914a1.33 1.33 0 1 0 0-2.661 1.33 1.33 0 0 0 0 2.661z" clip-path="url(#p92fe582985)" style="fill:#5cff00"/><path id="patch_244" d="M111.49 383.75a1.33 1.33 0 1 0 0-2.661 1.33 1.33 0 0 0 0 2.661z" clip-path="url(#p92fe582985)" style="fill:#00fffd"/><path id="patch_245" d="M110.825 692.453a.665.665 0 1 0 0-1.33.665.665 0 0 0 0 1.33z" clip-path="url(#p92fe582985)" style="fill:#00ff16"/><path id="patch_246" d="M110.825 113.177a.665.665 0 1 0 0-1.33.665.665 0 0 0 0 1.33z" clip-path="url(#p92fe582985)" style="fill:#00ff8c"/><path id="patch_247" d="M113.795 238.719a1.33 1.33 0 1 0 0-2.661 1.33 1.33 0 0 0 0 2.661z" clip-path="url(#p92fe582985)" style="fill:#5cff00"/><path id="patch_248" d="M111.49 468.906a1.33 1.33 0 1 0 0-2.661 1.33 1.33 0 0 0 0 2.66z" clip-path="url(#p92fe582985)" style="fill:#00fffd"/><path id="patch_249" d="M118.41 768.96a1.33 1.33 0 1 0 0-2.661 1.33 1.33 0 0 0 0 2.661z" clip-path="url(#p92fe582985)" style="fill:#5cff00"/><path id="patch_250" d="M456.784 768.96a1.33 1.33 0 1 0 0-2.661 1.33 1.33 0 0 0 0 2.661z" clip-path="url(#p92fe582985)" style="fill:#00fffd"/><path id="patch_251" d="M163.382 762.803a.665.665 0 1 0 0-1.331.665.665 0 0 0 0 1.33z" clip-path="url(#p92fe582985)" style="fill:#00ff16"/><path id="patch_252" d="M110.825 552.271a.665.665 0 1 0 0-1.33.665.665 0 0 0 0 1.33z" clip-path="url(#p92fe582985)" style="fill:#00ff8c"/><path id="patch_253" d="M756.16 766.655a1.33 1.33 0 1 0 0-2.66 1.33 1.33 0 0 0 0 2.66z" clip-path="url(#p92fe582985)" style="fill:#5cff00"/><path id="patch_254" d="M113.795 178.237a1.33 1.33 0 1 0 0-2.661 1.33 1.33 0 0 0 0 2.661z" clip-path="url(#p92fe582985)" style="fill:#00fffd"/><path id="patch_255" d="M752.168 768.96a1.33 1.33 0 1 0 0-2.661 1.33 1.33 0 0 0 0 2.661z" clip-path="url(#p92fe582985)" style="fill:#5cff00"/><path id="patch_256" d="M111.49 450.278a1.33 1.33 0 1 0 0-2.661 1.33 1.33 0 0 0 0 2.661z" clip-path="url(#p92fe582985)" style="fill:#00fffd"/><path id="patch_257" d="M110.825 185.327a.665.665 0 1 0 0-1.33.665.665 0 0 0 0 1.33z" clip-path="url(#p92fe582985)" style="fill:#00ff16"/><path id="patch_258" d="M110.825 142.505a.665.665 0 1 0 0-1.331.665.665 0 0 0 0 1.33z" clip-path="url(#p92fe582985)" style="fill:#00ff8c"/><path id="patch_259" d="M111.49 426.328a1.33 1.33 0 1 0 0-2.661 1.33 1.33 0 0 0 0 2.66z" clip-path="url(#p92fe582985)" style="fill:#5cff00"/><path id="patch_260" d="M113.795 422.336a1.33 1.33 0 1 0 0-2.661 1.33 1.33 0 0 0 0 2.661z" clip-path="url(#p92fe582985)" style="fill:#00fffd"/><path id="patch_261" d="M513.998 766.655a1.33 1.33 0 1 0 0-2.66 1.33 1.33 0 0 0 0 2.66z" clip-path="url(#p92fe582985)" style="fill:#5cff00"/><path id="patch_262" d="M389.61 768.96a1.33 1.33 0 1 0 0-2.661 1.33 1.33 0 0 0 0 2.661z" clip-path="url(#p92fe582985)" style="fill:#00fffd"/><path id="patch_263" d="M359.18 768.96a.665.665 0 1 0 0-1.33.665.665 0 0 0 0 1.33z" clip-path="url(#p92fe582985)" style="fill:#00ff16"/><path id="patch_264" d="M516.659 766.807a.665.665 0 1 0 0-1.33.665.665 0 0 0 0 1.33z" clip-path="url(#p92fe582985)" style="fill:#00ff8c"/><path id="patch_265" d="M539.278 768.96a1.33 1.33 0 1 0 0-2.661 1.33 1.33 0 0 0 0 2.661z" clip-path="url(#p92fe582985)" style="fill:#5cff00"/><path id="patch_266" d="M671.004 766.655a1.33 1.33 0 1 0 0-2.66 1.33 1.33 0 0 0 0 2.66z" clip-path="url(#p92fe582985)" style="fill:#00fffd"/><path id="patch_267" d="M543.27 766.655a1.33 1.33 0 1 0 0-2.66 1.33 1.33 0 0 0 0 2.66z" clip-path="url(#p92fe582985)" style="fill:#5cff00"/><path id="patch_268" d="M599.154 766.655a1.33 1.33 0 1 0 0-2.66 1.33 1.33 0 0 0 0 2.66z" clip-path="url(#p92fe582985)" style="fill:#00fffd"/><path id="patch_269" d="M110.825 646.356a.665.665 0 1 0 0-1.33.665.665 0 0 0 0 1.33z" clip-path="url(#p92fe582985)" style="fill:#00ff16"/><path id="patch_270" d="M110.825 186.658a.665.665 0 1 0 0-1.331.665.665 0 0 0 0 1.33z" clip-path="url(#p92fe582985)" style="fill:#00ff8c"/><path id="patch_271" d="M667.012 768.96a1.33 1.33 0 1 0 0-2.661 1.33 1.33 0 0 0 0 2.661z" clip-path="url(#p92fe582985)" style="fill:#5cff00"/><path id="patch_272" d="M560.567 768.96a1.33 1.33 0 1 0 0-2.661 1.33 1.33 0 0 0 0 2.661z" clip-path="url(#p92fe582985)" style="fill:#00fffd"/><path id="patch_273" d="M684.31 766.655a1.33 1.33 0 1 0 0-2.66 1.33 1.33 0 0 0 0 2.66z" clip-path="url(#p92fe582985)" style="fill:#5cff00"/><path id="patch_274" d="M556.576 766.655a1.33 1.33 0 1 0 0-2.66 1.33 1.33 0 0 0 0 2.66z" clip-path="url(#p92fe582985)" style="fill:#00fffd"/><path id="patch_275" d="M601.815 766.807a.665.665 0 1 0 0-1.33.665.665 0 0 0 0 1.33z" clip-path="url(#p92fe582985)" style="fill:#00ff16"/><path id="patch_276" d="M729.549 766.807a.665.665 0 1 0 0-1.33.665.665 0 0 0 0 1.33z" clip-path="url(#p92fe582985)" style="fill:#00ff8c"/><path id="patch_277" d="M475.412 768.96a1.33 1.33 0 1 0 0-2.661 1.33 1.33 0 0 0 0 2.661z" clip-path="url(#p92fe582985)" style="fill:#5cff00"/><path id="patch_278" d="M688.301 768.96a1.33 1.33 0 1 0 0-2.661 1.33 1.33 0 0 0 0 2.661z" clip-path="url(#p92fe582985)" style="fill:#00fffd"/><path id="patch_279" d="M471.42 766.655a1.33 1.33 0 1 0 0-2.66 1.33 1.33 0 0 0 0 2.66z" clip-path="url(#p92fe582985)" style="fill:#5cff00"/><path id="patch_280" d="M111.49 405.039a1.33 1.33 0 1 0 0-2.661 1.33 1.33 0 0 0 0 2.661z" clip-path="url(#p92fe582985)" style="fill:#00fffd"/><path id="patch_281" d="M644.393 766.807a.665.665 0 1 0 0-1.33.665.665 0 0 0 0 1.33z" clip-path="url(#p92fe582985)" style="fill:#00ff16"/><path id="patch_282" d="M372.28 768.96a.665.665 0 1 0 0-1.33.665.665 0 0 0 0 1.33z" clip-path="url(#p92fe582985)" style="fill:#00ff8c"/><path id="patch_283" d="M641.732 766.655a1.33 1.33 0 1 0 0-2.66 1.33 1.33 0 0 0 0 2.66z" clip-path="url(#p92fe582985)" style="fill:#5cff00"/><path id="patch_284" d="M113.795 409.03a1.33 1.33 0 1 0 0-2.66 1.33 1.33 0 0 0 0 2.66z" clip-path="url(#p92fe582985)" style="fill:#00fffd"/><path id="patch_285" d="M111.49 250.694a1.33 1.33 0 1 0 0-2.661 1.33 1.33 0 0 0 0 2.661z" clip-path="url(#p92fe582985)" style="fill:#5cff00"/><path id="patch_286" d="M238.2 766.655a1.33 1.33 0 1 0 0-2.66 1.33 1.33 0 0 0 0 2.66z" clip-path="url(#p92fe582985)" style="fill:#00fffd"/><path id="patch_287" d="M110.825 127.774a.665.665 0 1 0 0-1.33.665.665 0 0 0 0 1.33z" clip-path="url(#p92fe582985)" style="fill:#00ff16"/><path id="patch_288" d="M110.825 710.334a.665.665 0 1 0 0-1.331.665.665 0 0 0 0 1.33z" clip-path="url(#p92fe582985)" style="fill:#00ff8c"/><path id="patch_289" d="M242.192 768.96a1.33 1.33 0 1 0 0-2.661 1.33 1.33 0 0 0 0 2.661z" clip-path="url(#p92fe582985)" style="fill:#5cff00"/><path id="patch_290" d="M111.49 566.487a1.33 1.33 0 1 0 0-2.662 1.33 1.33 0 0 0 0 2.662z" clip-path="url(#p92fe582985)" style="fill:#00fffd"/><path id="patch_291" d="M111.49 633.471a1.33 1.33 0 1 0 0-2.661 1.33 1.33 0 0 0 0 2.661z" clip-path="url(#p92fe582985)" style="fill:#5cff00"/><path id="patch_292" d="M322.743 766.655a1.33 1.33 0 1 0 0-2.66 1.33 1.33 0 0 0 0 2.66z" clip-path="url(#p92fe582985)" style="fill:#00fffd"/><path id="patch_293" d="M749.05 768.96a.665.665 0 1 0 0-1.33.665.665 0 0 0 0 1.33z" clip-path="url(#p92fe582985)" style="fill:#00ff16"/><path id="patch_294" d="M203.3 768.96a.665.665 0 1 0 0-1.33.665.665 0 0 0 0 1.33z" clip-path="url(#p92fe582985)" style="fill:#00ff8c"/><path id="patch_295" d="M720.235 741.358a1.33 1.33 0 1 0 0-2.661 1.33 1.33 0 0 0 0 2.661z" clip-path="url(#p92fe582985)" style="fill:#5cff00"/><path id="patch_296" d="M720.235 756.645a1.33 1.33 0 1 0 0-2.661 1.33 1.33 0 0 0 0 2.661z" clip-path="url(#p92fe582985)" style="fill:#00fffd"/><path id="patch_297" d="M635.079 756.645a1.33 1.33 0 1 0 0-2.661 1.33 1.33 0 0 0 0 2.661z" clip-path="url(#p92fe582985)" style="fill:#5cff00"/><path id="patch_298" d="M318.751 768.96a1.33 1.33 0 1 0 0-2.661 1.33 1.33 0 0 0 0 2.661z" clip-path="url(#p92fe582985)" style="fill:#00fffd"/><path id="patch_299" d="M110.825 543.965a.665.665 0 1 0 0-1.33.665.665 0 0 0 0 1.33z" clip-path="url(#p92fe582985)" style="fill:#00ff16"/><path id="patch_300" d="M159.39 768.96a.665.665 0 1 0 0-1.33.665.665 0 0 0 0 1.33z" clip-path="url(#p92fe582985)" style="fill:#00ff8c"/><path id="patch_301" d="M458.114 766.655a1.33 1.33 0 1 0 0-2.66 1.33 1.33 0 0 0 0 2.66z" clip-path="url(#p92fe582985)" style="fill:#5cff00"/><path id="patch_302" d="M163.382 754.16a1.33 1.33 0 1 0 0-2.661 1.33 1.33 0 0 0 0 2.661z" clip-path="url(#p92fe582985)" style="fill:#00fffd"/><path id="patch_303" d="M624.434 768.96a1.33 1.33 0 1 0 0-2.661 1.33 1.33 0 0 0 0 2.661z" clip-path="url(#p92fe582985)" style="fill:#5cff00"/><path id="patch_304" d="M454.123 768.96a1.33 1.33 0 1 0 0-2.661 1.33 1.33 0 0 0 0 2.661z" clip-path="url(#p92fe582985)" style="fill:#00fffd"/><path id="patch_305" d="M110.825 232.18a.665.665 0 1 0 0-1.33.665.665 0 0 0 0 1.33z" clip-path="url(#p92fe582985)" style="fill:#00ff16"/><path id="patch_306" d="M112.978 235.393a.665.665 0 1 0 0-1.331.665.665 0 0 0 0 1.33z" clip-path="url(#p92fe582985)" style="fill:#00ff8c"/><path id="patch_307" d="M113.795 451.609a1.33 1.33 0 1 0 0-2.662 1.33 1.33 0 0 0 0 2.662z" clip-path="url(#p92fe582985)" style="fill:#5cff00"/><path id="patch_308" d="M592.5 756.645a1.33 1.33 0 1 0 0-2.661 1.33 1.33 0 0 0 0 2.661z" clip-path="url(#p92fe582985)" style="fill:#00fffd"/><path id="patch_309" d="M111.49 341.172a1.33 1.33 0 1 0 0-2.661 1.33 1.33 0 0 0 0 2.661z" clip-path="url(#p92fe582985)" style="fill:#5cff00"/><path id="patch_310" d="M507.345 756.645a1.33 1.33 0 1 0 0-2.661 1.33 1.33 0 0 0 0 2.661z" clip-path="url(#p92fe582985)" style="fill:#00fffd"/><path id="patch_311" d="M110.825 671.046a.665.665 0 1 0 0-1.33.665.665 0 0 0 0 1.33z" clip-path="url(#p92fe582985)" style="fill:#00ff16"/><path id="patch_312" d="M110.825 359.914a.665.665 0 1 0 0-1.33.665.665 0 0 0 0 1.33z" clip-path="url(#p92fe582985)" style="fill:#00ff8c"/><path id="patch_313" d="M123.805 373.106a1.33 1.33 0 1 0 0-2.662 1.33 1.33 0 0 0 0 2.662z" clip-path="url(#p92fe582985)" style="fill:#5cff00"/><path id="patch_314" d="M123.805 330.528a1.33 1.33 0 1 0 0-2.662 1.33 1.33 0 0 0 0 2.662z" clip-path="url(#p92fe582985)" style="fill:#00fffd"/><path id="patch_315" d="M496.7 768.96a1.33 1.33 0 1 0 0-2.661 1.33 1.33 0 0 0 0 2.661z" clip-path="url(#p92fe582985)" style="fill:#5cff00"/><path id="patch_316" d="M111.49 319.883a1.33 1.33 0 1 0 0-2.661 1.33 1.33 0 0 0 0 2.661z" clip-path="url(#p92fe582985)" style="fill:#00fffd"/><path id="patch_317" d="M110.825 676.486a.665.665 0 1 0 0-1.33.665.665 0 0 0 0 1.33z" clip-path="url(#p92fe582985)" style="fill:#00ff16"/><path id="patch_318" d="M167.374 768.96a.665.665 0 1 0 0-1.33.665.665 0 0 0 0 1.33z" clip-path="url(#p92fe582985)" style="fill:#00ff8c"/><path id="patch_319" d="M549.923 756.645a1.33 1.33 0 1 0 0-2.661 1.33 1.33 0 0 0 0 2.661z" clip-path="url(#p92fe582985)" style="fill:#5cff00"/><path id="patch_320" d="M581.856 768.96a1.33 1.33 0 1 0 0-2.661 1.33 1.33 0 0 0 0 2.661z" clip-path="url(#p92fe582985)" style="fill:#00fffd"/><path id="patch_321" d="M111.49 736.107a1.33 1.33 0 1 0 0-2.662 1.33 1.33 0 0 0 0 2.662z" clip-path="url(#p92fe582985)" style="fill:#5cff00"/><path id="patch_322" d="M123.805 287.95a1.33 1.33 0 1 0 0-2.662 1.33 1.33 0 0 0 0 2.662z" clip-path="url(#p92fe582985)" style="fill:#00fffd"/><path id="patch_323" d="M110.825 299.81a.665.665 0 1 0 0-1.33.665.665 0 0 0 0 1.33z" clip-path="url(#p92fe582985)" style="fill:#00ff16"/><path id="patch_324" d="M710.92 766.807a.665.665 0 1 0 0-1.33.665.665 0 0 0 0 1.33z" clip-path="url(#p92fe582985)" style="fill:#00ff8c"/><path id="patch_325" d="M464.767 756.645a1.33 1.33 0 1 0 0-2.661 1.33 1.33 0 0 0 0 2.661z" clip-path="url(#p92fe582985)" style="fill:#5cff00"/><path id="patch_326" d="M111.49 256.016a1.33 1.33 0 1 0 0-2.661 1.33 1.33 0 0 0 0 2.661z" clip-path="url(#p92fe582985)" style="fill:#00fffd"/><path id="patch_327" d="M111.49 447.617a1.33 1.33 0 1 0 0-2.661 1.33 1.33 0 0 0 0 2.66z" clip-path="url(#p92fe582985)" style="fill:#5cff00"/><path id="patch_328" d="M111.49 253.355a1.33 1.33 0 1 0 0-2.661 1.33 1.33 0 0 0 0 2.661z" clip-path="url(#p92fe582985)" style="fill:#00fffd"/><path id="patch_329" d="M112.978 381.754a.665.665 0 1 0 0-1.33.665.665 0 0 0 0 1.33z" clip-path="url(#p92fe582985)" style="fill:#00ff16"/><path id="patch_330" d="M112.978 636.798a.665.665 0 1 0 0-1.331.665.665 0 0 0 0 1.33z" clip-path="url(#p92fe582985)" style="fill:#00ff8c"/><path id="patch_331" d="M123.805 415.683a1.33 1.33 0 1 0 0-2.66 1.33 1.33 0 0 0 0 2.66z" clip-path="url(#p92fe582985)" style="fill:#5cff00"/><path id="patch_332" d="M244.853 768.96a1.33 1.33 0 1 0 0-2.661 1.33 1.33 0 0 0 0 2.661z" clip-path="url(#p92fe582985)" style="fill:#00fffd"/><path id="patch_333" d="M111.49 569.148a1.33 1.33 0 1 0 0-2.662 1.33 1.33 0 0 0 0 2.662z" clip-path="url(#p92fe582985)" style="fill:#5cff00"/><path id="patch_334" d="M111.49 630.81a1.33 1.33 0 1 0 0-2.661 1.33 1.33 0 0 0 0 2.661z" clip-path="url(#p92fe582985)" style="fill:#00fffd"/><path id="patch_335" d="M110.825 553.602a.665.665 0 1 0 0-1.33.665.665 0 0 0 0 1.33z" clip-path="url(#p92fe582985)" style="fill:#00ff16"/><path id="patch_336" d="M753.499 766.807a.665.665 0 1 0 0-1.33.665.665 0 0 0 0 1.33z" clip-path="url(#p92fe582985)" style="fill:#00ff8c"/><path id="patch_337" d="M316.09 768.96a1.33 1.33 0 1 0 0-2.661 1.33 1.33 0 0 0 0 2.661z" clip-path="url(#p92fe582985)" style="fill:#5cff00"/><path id="patch_338" d="M627.095 768.96a1.33 1.33 0 1 0 0-2.661 1.33 1.33 0 0 0 0 2.661z" clip-path="url(#p92fe582985)" style="fill:#00fffd"/><path id="patch_339" d="M111.49 338.511a1.33 1.33 0 1 0 0-2.661 1.33 1.33 0 0 0 0 2.661z" clip-path="url(#p92fe582985)" style="fill:#5cff00"/><path id="patch_340" d="M499.362 768.96a1.33 1.33 0 1 0 0-2.661 1.33 1.33 0 0 0 0 2.661z" clip-path="url(#p92fe582985)" style="fill:#00fffd"/><path id="patch_341" d="M391.492 768.96a.665.665 0 1 0 0-1.33.665.665 0 0 0 0 1.33z" clip-path="url(#p92fe582985)" style="fill:#00ff16"/><path id="patch_342" d="M540.609 766.807a.665.665 0 1 0 0-1.33.665.665 0 0 0 0 1.33z" clip-path="url(#p92fe582985)" style="fill:#00ff8c"/><path id="patch_343" d="M111.49 322.544a1.33 1.33 0 1 0 0-2.661 1.33 1.33 0 0 0 0 2.661z" clip-path="url(#p92fe582985)" style="fill:#5cff00"/><path id="patch_344" d="M584.518 768.96a1.33 1.33 0 1 0 0-2.661 1.33 1.33 0 0 0 0 2.661z" clip-path="url(#p92fe582985)" style="fill:#00fffd"/><path id="patch_345" d="M111.49 733.446a1.33 1.33 0 1 0 0-2.662 1.33 1.33 0 0 0 0 2.662z" clip-path="url(#p92fe582985)" style="fill:#5cff00"/><path id="patch_346" d="M113.795 252.025a1.33 1.33 0 1 0 0-2.662 1.33 1.33 0 0 0 0 2.662z" clip-path="url(#p92fe582985)" style="fill:#00fffd"/><path id="patch_347" d="M668.343 766.807a.665.665 0 1 0 0-1.33.665.665 0 0 0 0 1.33z" clip-path="url(#p92fe582985)" style="fill:#00ff16"/><path id="patch_348" d="M110.825 645.025a.665.665 0 1 0 0-1.33.665.665 0 0 0 0 1.33z" clip-path="url(#p92fe582985)" style="fill:#00ff8c"/><path id="patch_349" d="M250.365 768.96a1.33 1.33 0 1 0 0-2.661 1.33 1.33 0 0 0 0 2.661z" clip-path="url(#p92fe582985)" style="fill:#5cff00"/><path id="patch_350" d="M310.579 768.96a1.33 1.33 0 1 0 0-2.661 1.33 1.33 0 0 0 0 2.661z" clip-path="url(#p92fe582985)" style="fill:#00fffd"/><path id="patch_351" d="M411.545 768.96a1.33 1.33 0 1 0 0-2.661 1.33 1.33 0 0 0 0 2.661z" clip-path="url(#p92fe582985)" style="fill:#5cff00"/><path id="patch_352" d="M123.805 458.261a1.33 1.33 0 1 0 0-2.66 1.33 1.33 0 0 0 0 2.66z" clip-path="url(#p92fe582985)" style="fill:#00fffd"/><path id="patch_353" d="M474.081 766.807a.665.665 0 1 0 0-1.33.665.665 0 0 0 0 1.33z" clip-path="url(#p92fe582985)" style="fill:#00ff16"/><path id="patch_354" d="M562.45 768.96a.665.665 0 1 0 0-1.33.665.665 0 0 0 0 1.33z" clip-path="url(#p92fe582985)" style="fill:#00ff8c"/><path id="patch_355" d="M139.092 458.261a1.33 1.33 0 1 0 0-2.66 1.33 1.33 0 0 0 0 2.66z" clip-path="url(#p92fe582985)" style="fill:#5cff00"/><path id="patch_356" d="M422.19 756.645a1.33 1.33 0 1 0 0-2.661 1.33 1.33 0 0 0 0 2.661z" clip-path="url(#p92fe582985)" style="fill:#00fffd"/><path id="patch_357" d="M422.19 741.358a1.33 1.33 0 1 0 0-2.661 1.33 1.33 0 0 0 0 2.661z" clip-path="url(#p92fe582985)" style="fill:#5cff00"/><path id="patch_358" d="M432.834 768.96a1.33 1.33 0 1 0 0-2.661 1.33 1.33 0 0 0 0 2.661z" clip-path="url(#p92fe582985)" style="fill:#00fffd"/><path id="patch_359" d="M477.293 768.96a.665.665 0 1 0 0-1.33.665.665 0 0 0 0 1.33z" clip-path="url(#p92fe582985)" style="fill:#00ff16"/><path id="patch_360" d="M686.97 766.807a.665.665 0 1 0 0-1.33.665.665 0 0 0 0 1.33z" clip-path="url(#p92fe582985)" style="fill:#00ff8c"/><path id="patch_361" d="M247.514 768.96a1.33 1.33 0 1 0 0-2.661 1.33 1.33 0 0 0 0 2.661z" clip-path="url(#p92fe582985)" style="fill:#5cff00"/><path id="patch_362" d="M313.43 768.96a1.33 1.33 0 1 0-.001-2.661 1.33 1.33 0 0 0 0 2.661z" clip-path="url(#p92fe582985)" style="fill:#00fffd"/><path id="patch_363" d="M629.757 768.96a1.33 1.33 0 1 0 0-2.661 1.33 1.33 0 0 0 0 2.661z" clip-path="url(#p92fe582985)" style="fill:#5cff00"/><path id="patch_364" d="M111.49 335.85a1.33 1.33 0 1 0 0-2.661 1.33 1.33 0 0 0 0 2.66z" clip-path="url(#p92fe582985)" style="fill:#00fffd"/><path id="patch_365" d="M559.237 766.807a.665.665 0 1 0 0-1.33.665.665 0 0 0 0 1.33z" clip-path="url(#p92fe582985)" style="fill:#00ff16"/><path id="patch_366" d="M665.13 768.96a.665.665 0 1 0 0-1.33.665.665 0 0 0 0 1.33z" clip-path="url(#p92fe582985)" style="fill:#00ff8c"/><path id="patch_367" d="M502.023 768.96a1.33 1.33 0 1 0 0-2.661 1.33 1.33 0 0 0 0 2.661z" clip-path="url(#p92fe582985)" style="fill:#5cff00"/><path id="patch_368" d="M111.49 325.205a1.33 1.33 0 1 0 0-2.66 1.33 1.33 0 0 0 0 2.66z" clip-path="url(#p92fe582985)" style="fill:#00fffd"/><path id="patch_369" d="M587.179 768.96a1.33 1.33 0 1 0 0-2.661 1.33 1.33 0 0 0 0 2.661z" clip-path="url(#p92fe582985)" style="fill:#5cff00"/><path id="patch_370" d="M113.795 734.776a1.33 1.33 0 1 0 0-2.661 1.33 1.33 0 0 0 0 2.661z" clip-path="url(#p92fe582985)" style="fill:#00fffd"/><path id="patch_371" d="M690.183 768.96a.665.665 0 1 0 0-1.33.665.665 0 0 0 0 1.33z" clip-path="url(#p92fe582985)" style="fill:#00ff16"/><path id="patch_372" d="M112.978 405.704a.665.665 0 1 0 0-1.33.665.665 0 0 0 0 1.33z" clip-path="url(#p92fe582985)" style="fill:#00ff8c"/><path id="patch_373" d="M414.206 768.96a1.33 1.33 0 1 0 0-2.661 1.33 1.33 0 0 0 0 2.661z" clip-path="url(#p92fe582985)" style="fill:#5cff00"/><path id="patch_374" d="M430.173 768.96a1.33 1.33 0 1 0 0-2.661 1.33 1.33 0 0 0 0 2.661z" clip-path="url(#p92fe582985)" style="fill:#00fffd"/><path id="patch_375" d="M628.426 766.655a1.33 1.33 0 1 0 0-2.66 1.33 1.33 0 0 0 0 2.66z" clip-path="url(#p92fe582985)" style="fill:#5cff00"/><path id="patch_376" d="M113.795 337.18a1.33 1.33 0 1 0 0-2.66 1.33 1.33 0 0 0 0 2.66z" clip-path="url(#p92fe582985)" style="fill:#00fffd"/><path id="patch_377" d="M110.825 402.492a.665.665 0 1 0 0-1.33.665.665 0 0 0 0 1.33z" clip-path="url(#p92fe582985)" style="fill:#00ff16"/><path id="patch_378" d="M372.946 767.808a.665.665 0 1 0 0-1.33.665.665 0 0 0 0 1.33z" clip-path="url(#p92fe582985)" style="fill:#00ff8c"/><path id="patch_379" d="M500.692 766.655a1.33 1.33 0 1 0 0-2.66 1.33 1.33 0 0 0 0 2.66z" clip-path="url(#p92fe582985)" style="fill:#5cff00"/><path id="patch_380" d="M113.795 323.875a1.33 1.33 0 1 0 0-2.661 1.33 1.33 0 0 0 0 2.66z" clip-path="url(#p92fe582985)" style="fill:#00fffd"/><path id="patch_381" d="M585.848 766.655a1.33 1.33 0 1 0 0-2.66 1.33 1.33 0 0 0 0 2.66z" clip-path="url(#p92fe582985)" style="fill:#5cff00"/><path id="patch_382" d="M416.867 768.96a1.33 1.33 0 1 0 0-2.661 1.33 1.33 0 0 0 0 2.661z" clip-path="url(#p92fe582985)" style="fill:#00fffd"/><path id="patch_383" d="M370.95 768.96a.665.665 0 1 0 0-1.33.665.665 0 0 0 0 1.33z" clip-path="url(#p92fe582985)" style="fill:#00ff16"/><path id="patch_384" d="M537.397 768.96a.665.665 0 1 0 0-1.33.665.665 0 0 0 0 1.33z" clip-path="url(#p92fe582985)" style="fill:#00ff8c"/><path id="patch_385" d="M427.511 768.96a1.33 1.33 0 1 0 0-2.661 1.33 1.33 0 0 0 0 2.661z" clip-path="url(#p92fe582985)" style="fill:#5cff00"/><path id="patch_386" d="M415.536 766.655a1.33 1.33 0 1 0 0-2.66 1.33 1.33 0 0 0 0 2.66z" clip-path="url(#p92fe582985)" style="fill:#00fffd"/><path id="patch_387" d="M428.842 766.655a1.33 1.33 0 1 0 0-2.66 1.33 1.33 0 0 0 0 2.66z" clip-path="url(#p92fe582985)" style="fill:#5cff00"/><path id="patch_388" d="M110.825 126.443a.665.665 0 1 0 0-1.33.665.665 0 0 0 0 1.33z" clip-path="url(#p92fe582985)" style="fill:#00ff16"/><path id="patch_389" d="M112.978 561.83a.665.665 0 1 0 0-1.331.665.665 0 0 0 0 1.33z" clip-path="url(#p92fe582985)" style="fill:#00ff8c"/><path id="patch_390" d="M112.978 363.126a.665.665 0 1 0 0-1.33.665.665 0 0 0 0 1.33z" clip-path="url(#p92fe582985)" style="fill:#00ff16"/><path id="patch_391" d="M110.825 384.966a.665.665 0 1 0 0-1.33.665.665 0 0 0 0 1.33z" clip-path="url(#p92fe582985)" style="fill:#00ff8c"/><path id="patch_392" d="M112.978 296.598a.665.665 0 1 0 0-1.33.665.665 0 0 0 0 1.33z" clip-path="url(#p92fe582985)" style="fill:#00ff16"/><path id="patch_393" d="M180.68 768.96a.665.665 0 1 0 0-1.33.665.665 0 0 0 0 1.33z" clip-path="url(#p92fe582985)" style="fill:#00ff8c"/><path id="patch_394" d="M110.825 691.122a.665.665 0 1 0 0-1.33.665.665 0 0 0 0 1.33z" clip-path="url(#p92fe582985)" style="fill:#00ff16"/><path id="patch_395" d="M110.825 470.122a.665.665 0 1 0 0-1.33.665.665 0 0 0 0 1.33z" clip-path="url(#p92fe582985)" style="fill:#00ff8c"/><path id="patch_396" d="M119.741 766.807a.665.665 0 1 0 0-1.33.665.665 0 0 0 0 1.33z" clip-path="url(#p92fe582985)" style="fill:#00ff16"/><path id="patch_397" d="M112.978 466.91a.665.665 0 1 0 0-1.33.665.665 0 0 0 0 1.33z" clip-path="url(#p92fe582985)" style="fill:#00ff8c"/><path id="patch_398" d="M116.53 768.96a.665.665 0 1 0 0-1.33.665.665 0 0 0 0 1.33z" clip-path="url(#p92fe582985)" style="fill:#00ff16"/><path id="patch_399" d="M112.978 424.332a.665.665 0 1 0 0-1.33.665.665 0 0 0 0 1.33z" clip-path="url(#p92fe582985)" style="fill:#00ff8c"/><path id="patch_400" d="M110.825 174.36a.665.665 0 1 0 0-1.33.665.665 0 0 0 0 1.33z" clip-path="url(#p92fe582985)" style="fill:#00ff16"/><path id="patch_401" d="M110.825 427.544a.665.665 0 1 0 0-1.33.665.665 0 0 0 0 1.33z" clip-path="url(#p92fe582985)" style="fill:#00ff8c"/><path id="patch_402" d="M110.825 711.664a.665.665 0 1 0 0-1.33.665.665 0 0 0 0 1.33z" clip-path="url(#p92fe582985)" style="fill:#00ff16"/><path id="patch_403" d="M209.952 768.96a.665.665 0 1 0 0-1.33.665.665 0 0 0 0 1.33z" clip-path="url(#p92fe582985)" style="fill:#00ff8c"/><path id="patch_404" d="M112.978 564.49a.665.665 0 1 0 0-1.33.665.665 0 0 0 0 1.33z" clip-path="url(#p92fe582985)" style="fill:#00ff16"/><path id="patch_405" d="M240.862 766.807a.665.665 0 1 0 0-1.33.665.665 0 0 0 0 1.33z" clip-path="url(#p92fe582985)" style="fill:#00ff8c"/><path id="patch_406" d="M112.978 634.136a.665.665 0 1 0 0-1.33.665.665 0 0 0 0 1.33z" clip-path="url(#p92fe582985)" style="fill:#00ff16"/><path id="patch_407" d="M110.825 499.584a.665.665 0 1 0 0-1.33.665.665 0 0 0 0 1.33z" clip-path="url(#p92fe582985)" style="fill:#00ff8c"/><path id="patch_408" d="M201.969 768.96a.665.665 0 1 0 0-1.33.665.665 0 0 0 0 1.33z" clip-path="url(#p92fe582985)" style="fill:#00ff16"/><path id="patch_409" d="M622.553 768.96a.665.665 0 1 0 0-1.33.665.665 0 0 0 0 1.33z" clip-path="url(#p92fe582985)" style="fill:#00ff8c"/><path id="patch_410" d="M320.082 766.807a.665.665 0 1 0 0-1.33.665.665 0 0 0 0 1.33z" clip-path="url(#p92fe582985)" style="fill:#00ff16"/><path id="patch_411" d="M110.825 488.294a.665.665 0 1 0 0-1.331.665.665 0 0 0 0 1.33z" clip-path="url(#p92fe582985)" style="fill:#00ff8c"/><path id="patch_412" d="M455.453 766.807a.665.665 0 1 0 0-1.33.665.665 0 0 0 0 1.33z" clip-path="url(#p92fe582985)" style="fill:#00ff16"/><path id="patch_413" d="M452.24 768.96a.665.665 0 1 0 0-1.33.665.665 0 0 0 0 1.33z" clip-path="url(#p92fe582985)" style="fill:#00ff8c"/><path id="patch_414" d="M110.825 342.389a.665.665 0 1 0 0-1.331.665.665 0 0 0 0 1.33z" clip-path="url(#p92fe582985)" style="fill:#00ff16"/><path id="patch_415" d="M111.978 670.381a.665.665 0 1 0 0-1.33.665.665 0 0 0 0 1.33z" clip-path="url(#p92fe582985)" style="fill:#00ff8c"/><path id="patch_416" d="M110.825 700.759a.665.665 0 1 0 0-1.33.665.665 0 0 0 0 1.33z" clip-path="url(#p92fe582985)" style="fill:#00ff16"/><path id="patch_417" d="M381.917 768.96a.665.665 0 1 0 0-1.33.665.665 0 0 0 0 1.33z" clip-path="url(#p92fe582985)" style="fill:#00ff8c"/><path id="patch_418" d="M494.819 768.96a.665.665 0 1 0 0-1.33.665.665 0 0 0 0 1.33z" clip-path="url(#p92fe582985)" style="fill:#00ff16"/><path id="patch_419" d="M110.825 317.336a.665.665 0 1 0 0-1.33.665.665 0 0 0 0 1.33z" clip-path="url(#p92fe582985)" style="fill:#00ff8c"/><path id="patch_420" d="M110.825 677.817a.665.665 0 1 0 0-1.331.665.665 0 0 0 0 1.33z" clip-path="url(#p92fe582985)" style="fill:#00ff16"/><path id="patch_421" d="M168.705 768.96a.665.665 0 1 0 0-1.33.665.665 0 0 0 0 1.33z" clip-path="url(#p92fe582985)" style="fill:#00ff8c"/><path id="patch_422" d="M166.709 767.808a.665.665 0 1 0 0-1.33.665.665 0 0 0 0 1.33z" clip-path="url(#p92fe582985)" style="fill:#00ff16"/><path id="patch_423" d="M112.978 277.97a.665.665 0 1 0 0-1.33.665.665 0 0 0 0 1.33z" clip-path="url(#p92fe582985)" style="fill:#00ff8c"/><path id="patch_424" d="M579.975 768.96a.665.665 0 1 0 0-1.33.665.665 0 0 0 0 1.33z" clip-path="url(#p92fe582985)" style="fill:#00ff16"/><path id="patch_425" d="M110.825 257.233a.665.665 0 1 0 0-1.331.665.665 0 0 0 0 1.33z" clip-path="url(#p92fe582985)" style="fill:#00ff8c"/><path id="patch_426" d="M112.978 448.282a.665.665 0 1 0 0-1.33.665.665 0 0 0 0 1.33z" clip-path="url(#p92fe582985)" style="fill:#00ff16"/><path id="patch_427" d="M144.888 768.96a.665.665 0 1 0 0-1.33.665.665 0 0 0 0 1.33z" clip-path="url(#p92fe582985)" style="fill:#00ff8c"/><path id="patch_428" d="M110.825 445.07a.665.665 0 1 0 0-1.33.665.665 0 0 0 0 1.33z" clip-path="url(#p92fe582985)" style="fill:#00ff16"/><path id="patch_429" d="M110.825 522.141a.665.665 0 1 0 0-1.33.665.665 0 0 0 0 1.33z" clip-path="url(#p92fe582985)" style="fill:#00ff8c"/><path id="patch_430" d="M243.523 766.807a.665.665 0 1 0 0-1.33.665.665 0 0 0 0 1.33z" clip-path="url(#p92fe582985)" style="fill:#00ff16"/><path id="patch_431" d="M110.825 570.364a.665.665 0 1 0 0-1.33.665.665 0 0 0 0 1.33z" clip-path="url(#p92fe582985)" style="fill:#00ff8c"/><path id="patch_432" d="M110.825 628.263a.665.665 0 1 0 0-1.33.665.665 0 0 0 0 1.33z" clip-path="url(#p92fe582985)" style="fill:#00ff16"/><path id="patch_433" d="M111.978 552.936a.665.665 0 1 0 0-1.33.665.665 0 0 0 0 1.33z" clip-path="url(#p92fe582985)" style="fill:#00ff8c"/><path id="patch_434" d="M110.825 506.174a.665.665 0 1 0 0-1.33.665.665 0 0 0 0 1.33z" clip-path="url(#p92fe582985)" style="fill:#00ff16"/><path id="patch_435" d="M317.42 766.807a.665.665 0 1 0 0-1.33.665.665 0 0 0 0 1.33z" clip-path="url(#p92fe582985)" style="fill:#00ff8c"/><path id="patch_436" d="M625.765 766.807a.665.665 0 1 0 0-1.33.665.665 0 0 0 0 1.33z" clip-path="url(#p92fe582985)" style="fill:#00ff16"/><path id="patch_437" d="M110.825 756.502a.665.665 0 1 0 0-1.33.665.665 0 0 0 0 1.33z" clip-path="url(#p92fe582985)" style="fill:#00ff8c"/><path id="patch_438" d="M498.031 766.807a.665.665 0 1 0 0-1.33.665.665 0 0 0 0 1.33z" clip-path="url(#p92fe582985)" style="fill:#00ff16"/><path id="patch_439" d="M112.978 339.176a.665.665 0 1 0 0-1.33.665.665 0 0 0 0 1.33z" clip-path="url(#p92fe582985)" style="fill:#00ff8c"/><path id="patch_440" d="M392.822 768.96a.665.665 0 1 0 0-1.33.665.665 0 0 0 0 1.33z" clip-path="url(#p92fe582985)" style="fill:#00ff16"/><path id="patch_441" d="M215.392 768.96a.665.665 0 1 0 0-1.33.665.665 0 0 0 0 1.33z" clip-path="url(#p92fe582985)" style="fill:#00ff8c"/><path id="patch_442" d="M112.978 320.548a.665.665 0 1 0 0-1.33.665.665 0 0 0 0 1.33z" clip-path="url(#p92fe582985)" style="fill:#00ff16"/><path id="patch_443" d="M732.76 768.96a.665.665 0 1 0 0-1.33.665.665 0 0 0 0 1.33z" clip-path="url(#p92fe582985)" style="fill:#00ff8c"/><path id="patch_444" d="M583.187 766.807a.665.665 0 1 0 0-1.33.665.665 0 0 0 0 1.33z" clip-path="url(#p92fe582985)" style="fill:#00ff16"/><path id="patch_445" d="M110.825 730.899a.665.665 0 1 0 0-1.331.665.665 0 0 0 0 1.33z" clip-path="url(#p92fe582985)" style="fill:#00ff8c"/><path id="patch_446" d="M111.978 645.69a.665.665 0 1 0 0-1.33.665.665 0 0 0 0 1.33z" clip-path="url(#p92fe582985)" style="fill:#00ff16"/><path id="patch_447" d="M605.027 768.96a.665.665 0 1 0 0-1.33.665.665 0 0 0 0 1.33z" clip-path="url(#p92fe582985)" style="fill:#00ff8c"/><path id="patch_448" d="M720.235 742.973a.665.665 0 1 0 0-1.331.665.665 0 0 0 0 1.33z" clip-path="url(#p92fe582985)" style="fill:#00ff16"/><path id="patch_449" d="M252.246 768.96a.665.665 0 1 0 0-1.33.665.665 0 0 0 0 1.33z" clip-path="url(#p92fe582985)" style="fill:#00ff8c"/><path id="patch_450" d="M308.697 768.96a.665.665 0 1 0 0-1.33.665.665 0 0 0 0 1.33z" clip-path="url(#p92fe582985)" style="fill:#00ff16"/><path id="patch_451" d="M409.663 768.96a.665.665 0 1 0 0-1.33.665.665 0 0 0 0 1.33z" clip-path="url(#p92fe582985)" style="fill:#00ff8c"/><path id="patch_452" d="M209.287 767.808a.665.665 0 1 0 0-1.33.665.665 0 0 0 0 1.33z" clip-path="url(#p92fe582985)" style="fill:#00ff16"/><path id="patch_453" d="M110.825 173.03a.665.665 0 1 0 0-1.331.665.665 0 0 0 0 1.33z" clip-path="url(#p92fe582985)" style="fill:#00ff8c"/><path id="patch_454" d="M200.638 768.96a.665.665 0 1 0 0-1.33.665.665 0 0 0 0 1.33z" clip-path="url(#p92fe582985)" style="fill:#00ff16"/><path id="patch_455" d="M110.825 486.963a.665.665 0 1 0 0-1.33.665.665 0 0 0 0 1.33z" clip-path="url(#p92fe582985)" style="fill:#00ff8c"/><path id="patch_456" d="M202.634 767.808a.665.665 0 1 0 0-1.33.665.665 0 0 0 0 1.33z" clip-path="url(#p92fe582985)" style="fill:#00ff16"/><path id="patch_457" d="M115.199 768.96a.665.665 0 1 0 0-1.33.665.665 0 0 0 0 1.33z" clip-path="url(#p92fe582985)" style="fill:#00ff8c"/><path id="patch_458" d="M111.978 677.151a.665.665 0 1 0 0-1.33.665.665 0 0 0 0 1.33z" clip-path="url(#p92fe582985)" style="fill:#00ff16"/><path id="patch_459" d="M110.825 679.147a.665.665 0 1 0 0-1.33.665.665 0 0 0 0 1.33z" clip-path="url(#p92fe582985)" style="fill:#00ff8c"/><path id="patch_460" d="M110.825 689.792a.665.665 0 1 0 0-1.33.665.665 0 0 0 0 1.33z" clip-path="url(#p92fe582985)" style="fill:#00ff16"/><path id="patch_461" d="M146.219 768.96a.665.665 0 1 0 0-1.33.665.665 0 0 0 0 1.33z" clip-path="url(#p92fe582985)" style="fill:#00ff8c"/><path id="patch_462" d="M110.825 520.81a.665.665 0 1 0 0-1.33.665.665 0 0 0 0 1.33z" clip-path="url(#p92fe582985)" style="fill:#00ff16"/><path id="patch_463" d="M110.825 626.933a.665.665 0 1 0 0-1.331.665.665 0 0 0 0 1.33z" clip-path="url(#p92fe582985)" style="fill:#00ff8c"/><path id="patch_464" d="M110.825 507.505a.665.665 0 1 0 0-1.33.665.665 0 0 0 0 1.33z" clip-path="url(#p92fe582985)" style="fill:#00ff16"/><path id="patch_465" d="M111.978 757.167a.665.665 0 1 0 0-1.33.665.665 0 0 0 0 1.33z" clip-path="url(#p92fe582985)" style="fill:#00ff8c"/><path id="patch_466" d="M110.825 755.172a.665.665 0 1 0 0-1.331.665.665 0 0 0 0 1.33z" clip-path="url(#p92fe582985)" style="fill:#00ff16"/><path id="patch_467" d="M110.825 571.695a.665.665 0 1 0 0-1.33.665.665 0 0 0 0 1.33z" clip-path="url(#p92fe582985)" style="fill:#00ff8c"/><path id="patch_468" d="M110.825 729.568a.665.665 0 1 0 0-1.33.665.665 0 0 0 0 1.33z" clip-path="url(#p92fe582985)" style="fill:#00ff16"/><path id="patch_469" d="M307.367 768.96a.665.665 0 1 0 0-1.33.665.665 0 0 0 0 1.33z" clip-path="url(#p92fe582985)" style="fill:#00ff8c"/><path id="patch_470" d="M111.978 173.694a.665.665 0 1 0 0-1.33.665.665 0 0 0 0 1.33z" clip-path="url(#p92fe582985)" style="fill:#00ff16"/><path id="patch_471" d="M253.577 768.96a.665.665 0 1 0 0-1.33.665.665 0 0 0 0 1.33z" clip-path="url(#p92fe582985)" style="fill:#00ff8c"/><path id="patch_472" d="M110.825 171.699a.665.665 0 1 0 0-1.331.665.665 0 0 0 0 1.33z" clip-path="url(#p92fe582985)" style="fill:#00ff16"/><path id="patch_473" d="M115.864 767.808a.665.665 0 1 0 0-1.33.665.665 0 0 0 0 1.33z" clip-path="url(#p92fe582985)" style="fill:#00ff8c"/><path id="patch_474" d="M111.978 691.788a.665.665 0 1 0 0-1.331.665.665 0 0 0 0 1.33z" clip-path="url(#p92fe582985)" style="fill:#00ff16"/><path id="patch_475" d="M182.01 768.96a.665.665 0 1 0 0-1.33.665.665 0 0 0 0 1.33z" clip-path="url(#p92fe582985)" style="fill:#00ff8c"/><path id="patch_476" d="M145.554 767.808a.665.665 0 1 0 0-1.33.665.665 0 0 0 0 1.33z" clip-path="url(#p92fe582985)" style="fill:#00ff16"/><path id="patch_477" d="M431.503 766.807a.665.665 0 1 0 0-1.33.665.665 0 0 0 0 1.33z" clip-path="url(#p92fe582985)" style="fill:#00ff8c"/><path id="patch_478" d="M111.978 521.476a.665.665 0 1 0 0-1.33.665.665 0 0 0 0 1.33z" clip-path="url(#p92fe582985)" style="fill:#00ff16"/><path id="patch_479" d="M412.875 766.807a.665.665 0 1 0 0-1.33.665.665 0 0 0 0 1.33z" clip-path="url(#p92fe582985)" style="fill:#00ff8c"/><path id="patch_480" d="M434.715 768.96a.665.665 0 1 0 0-1.33.665.665 0 0 0 0 1.33z" clip-path="url(#p92fe582985)" style="fill:#00ff16"/><path id="patch_481" d="M110.825 519.48a.665.665 0 1 0 0-1.33.665.665 0 0 0 0 1.33z" clip-path="url(#p92fe582985)" style="fill:#00ff8c"/><path id="patch_482" d="M720.235 753.7a.665.665 0 1 0 0-1.33.665.665 0 0 0 0 1.33z" clip-path="url(#p92fe582985)" style="fill:#00ff16"/><path id="patch_483" d="M635.079 753.7a.665.665 0 1 0 0-1.33.665.665 0 0 0 0 1.33z" clip-path="url(#p92fe582985)" style="fill:#00ff8c"/><path id="patch_484" d="M110.825 625.602a.665.665 0 1 0 0-1.33.665.665 0 0 0 0 1.33z" clip-path="url(#p92fe582985)" style="fill:#00ff16"/><path id="patch_485" d="M111.978 506.84a.665.665 0 1 0 0-1.33.665.665 0 0 0 0 1.33z" clip-path="url(#p92fe582985)" style="fill:#00ff8c"/><path id="patch_486" d="M136.813 244.706a.665.665 0 1 0 0-1.33.665.665 0 0 0 0 1.33z" clip-path="url(#p92fe582985)" style="fill:#00ff16"/><path id="patch_487" d="M592.5 742.973a.665.665 0 1 0 0-1.331.665.665 0 0 0 0 1.33z" clip-path="url(#p92fe582985)" style="fill:#00ff8c"/><path id="patch_488" d="M592.5 753.7a.665.665 0 1 0 0-1.33.665.665 0 0 0 0 1.33z" clip-path="url(#p92fe582985)" style="fill:#00ff16"/><path id="patch_489" d="M110.825 508.836a.665.665 0 1 0 0-1.331.665.665 0 0 0 0 1.33z" clip-path="url(#p92fe582985)" style="fill:#00ff8c"/><path id="patch_490" d="M507.345 753.7a.665.665 0 1 0 0-1.33.665.665 0 0 0 0 1.33z" clip-path="url(#p92fe582985)" style="fill:#00ff16"/><path id="patch_491" d="M136.813 372.44a.665.665 0 1 0 0-1.33.665.665 0 0 0 0 1.33z" clip-path="url(#p92fe582985)" style="fill:#00ff8c"/><path id="patch_492" d="M507.345 742.973a.665.665 0 1 0 0-1.331.665.665 0 0 0 0 1.33z" clip-path="url(#p92fe582985)" style="fill:#00ff16"/><path id="patch_493" d="M126.085 372.44a.665.665 0 1 0 0-1.33.665.665 0 0 0 0 1.33z" clip-path="url(#p92fe582985)" style="fill:#00ff8c"/><path id="patch_494" d="M126.085 329.862a.665.665 0 1 0 0-1.33.665.665 0 0 0 0 1.33z" clip-path="url(#p92fe582985)" style="fill:#00ff16"/><path id="patch_495" d="M189.994 768.96a.665.665 0 1 0 0-1.33.665.665 0 0 0 0 1.33z" clip-path="url(#p92fe582985)" style="fill:#00ff8c"/><path id="patch_496" d="M136.813 329.862a.665.665 0 1 0 0-1.33.665.665 0 0 0 0 1.33z" clip-path="url(#p92fe582985)" style="fill:#00ff16"/><path id="patch_497" d="M549.923 753.7a.665.665 0 1 0 0-1.33.665.665 0 0 0 0 1.33z" clip-path="url(#p92fe582985)" style="fill:#00ff8c"/><path id="patch_498" d="M464.767 742.973a.665.665 0 1 0 0-1.331.665.665 0 0 0 0 1.33z" clip-path="url(#p92fe582985)" style="fill:#00ff16"/><path id="patch_499" d="M549.923 742.973a.665.665 0 1 0 0-1.331.665.665 0 0 0 0 1.33z" clip-path="url(#p92fe582985)" style="fill:#00ff8c"/><path id="patch_500" d="M464.767 753.7a.665.665 0 1 0 0-1.33.665.665 0 0 0 0 1.33z" clip-path="url(#p92fe582985)" style="fill:#00ff16"/><path id="patch_501" d="M184.671 755.16a.665.665 0 1 0 0-1.332.665.665 0 0 0 0 1.331z" clip-path="url(#p92fe582985)" style="fill:#00ff8c"/><path id="patch_502" d="M136.813 415.018a.665.665 0 1 0 0-1.33.665.665 0 0 0 0 1.33z" clip-path="url(#p92fe582985)" style="fill:#00ff16"/><path id="patch_503" d="M184.671 762.803a.665.665 0 1 0 0-1.331.665.665 0 0 0 0 1.33z" clip-path="url(#p92fe582985)" style="fill:#00ff8c"/><path id="patch_504" d="M126.085 415.018a.665.665 0 1 0 0-1.33.665.665 0 0 0 0 1.33z" clip-path="url(#p92fe582985)" style="fill:#00ff16"/><path id="patch_505" d="M126.085 287.284a.665.665 0 1 0 0-1.33.665.665 0 0 0 0 1.33z" clip-path="url(#p92fe582985)" style="fill:#00ff8c"/><path id="patch_506" d="M422.19 742.973a.665.665 0 1 0 0-1.331.665.665 0 0 0 0 1.33z" clip-path="url(#p92fe582985)" style="fill:#00ff16"/><path id="patch_507" d="M110.825 578.025a.665.665 0 1 0 0-1.331.665.665 0 0 0 0 1.33z" clip-path="url(#p92fe582985)" style="fill:#00ff8c"/><path id="patch_508" d="M110.825 620.603a.665.665 0 1 0 0-1.331.665.665 0 0 0 0 1.33z" clip-path="url(#p92fe582985)" style="fill:#00ff16"/><path id="patch_509" d="M259.183 768.96a.665.665 0 1 0 0-1.33.665.665 0 0 0 0 1.33z" clip-path="url(#p92fe582985)" style="fill:#00ff8c"/><path id="patch_510" d="M301.76 768.96a.665.665 0 1 0 0-1.33.665.665 0 0 0 0 1.33z" clip-path="url(#p92fe582985)" style="fill:#00ff16"/><path id="patch_511" d="M110.825 727.269a.665.665 0 1 0 0-1.33.665.665 0 0 0 0 1.33z" clip-path="url(#p92fe582985)" style="fill:#00ff8c"/><path id="patch_512" d="M126.085 457.596a.665.665 0 1 0 0-1.33.665.665 0 0 0 0 1.33z" clip-path="url(#p92fe582985)" style="fill:#00ff16"/><path id="patch_513" d="M136.813 457.596a.665.665 0 1 0 0-1.33.665.665 0 0 0 0 1.33z" clip-path="url(#p92fe582985)" style="fill:#00ff8c"/><path id="patch_514" d="M422.19 753.7a.665.665 0 1 0 0-1.33.665.665 0 0 0 0 1.33z" clip-path="url(#p92fe582985)" style="fill:#00ff16"/><path id="patch_515" d="M110.825 573.025a.665.665 0 1 0 0-1.33.665.665 0 0 0 0 1.33z" clip-path="url(#p92fe582985)" style="fill:#00ff8c"/><path id="patch_516" d="M111.978 730.233a.665.665 0 1 0 0-1.33.665.665 0 0 0 0 1.33z" clip-path="url(#p92fe582985)" style="fill:#00ff16"/><path id="patch_517" d="M306.036 768.96a.665.665 0 1 0 0-1.33.665.665 0 0 0 0 1.33z" clip-path="url(#p92fe582985)" style="fill:#00ff8c"/><path id="patch_518" d="M254.907 768.96a.665.665 0 1 0 0-1.33.665.665 0 0 0 0 1.33z" clip-path="url(#p92fe582985)" style="fill:#00ff16"/><path id="patch_519" d="M181.345 767.808a.665.665 0 1 0 0-1.33.665.665 0 0 0 0 1.33z" clip-path="url(#p92fe582985)" style="fill:#00ff8c"/><path id="patch_520" d="M110.825 624.271a.665.665 0 1 0 0-1.33.665.665 0 0 0 0 1.33z" clip-path="url(#p92fe582985)" style="fill:#00ff16"/><path id="patch_521" d="M188.663 768.96a.665.665 0 1 0 0-1.33.665.665 0 0 0 0 1.33z" clip-path="url(#p92fe582985)" style="fill:#00ff8c"/><path id="patch_522" d="M110.825 576.694a.665.665 0 1 0 0-1.33.665.665 0 0 0 0 1.33z" clip-path="url(#p92fe582985)" style="fill:#00ff16"/><path id="patch_523" d="M110.825 621.933a.665.665 0 1 0 0-1.33.665.665 0 0 0 0 1.33z" clip-path="url(#p92fe582985)" style="fill:#00ff8c"/><path id="patch_524" d="M257.852 768.96a.665.665 0 1 0 0-1.33.665.665 0 0 0 0 1.33z" clip-path="url(#p92fe582985)" style="fill:#00ff16"/><path id="patch_525" d="M303.091 768.96a.665.665 0 1 0 0-1.33.665.665 0 0 0 0 1.33z" clip-path="url(#p92fe582985)" style="fill:#00ff8c"/><path id="patch_526" d="M110.825 574.356a.665.665 0 1 0 0-1.33.665.665 0 0 0 0 1.33z" clip-path="url(#p92fe582985)" style="fill:#00ff16"/><path id="patch_527" d="M304.705 768.96a.665.665 0 1 0 0-1.33.665.665 0 0 0 0 1.33z" clip-path="url(#p92fe582985)" style="fill:#00ff8c"/><path id="patch_528" d="M256.238 768.96a.665.665 0 1 0 0-1.33.665.665 0 0 0 0 1.33z" clip-path="url(#p92fe582985)" style="fill:#00ff16"/><path id="patch_529" d="M187.332 768.96a.665.665 0 1 0 0-1.33.665.665 0 0 0 0 1.33z" clip-path="url(#p92fe582985)" style="fill:#00ff8c"/><path id="patch_530" d="M187.998 767.808a.665.665 0 1 0 0-1.33.665.665 0 0 0 0 1.33z" clip-path="url(#p92fe582985)" style="fill:#00ff16"/><g id="matplotlib.axis_1"><g id="xtick_1"><g id="line2d_1"><defs><path id="mbe40ea4e31" d="M0 0v3.5" style="stroke:#000;stroke-width:.8"/></defs><use xlink:href="#mbe40ea4e31" x="110.16" y="768.96" style="stroke:#000;stroke-width:.8"/></g><g id="text_1" transform="matrix(.1 0 0 -.1 106.979 783.558)"><defs><path id="DejaVuSans-30" d="M2034 4250q-487 0-733-480-245-479-245-1442 0-959 245-1439 246-480 733-480 491 0 736 480 246 480 246 1439 0 963-246 1442-245 480-736 480zm0 500q785 0 1199-621 414-620 414-1801 0-1178-414-1799Q2819-91 2034-91q-784 0-1198 620-414 621-414 1799 0 1181 414 1801 414 621 1198 621z" transform="scale(.01563)"/></defs><use xlink:href="#DejaVuSans-30"/></g></g><g id="xtick_2"><use xlink:href="#mbe40ea4e31" id="line2d_2" x="243.216" y="768.96" style="stroke:#000;stroke-width:.8"/><g id="text_2" transform="matrix(.1 0 0 -.1 233.672 783.558)"><defs><path id="DejaVuSans-32" d="M1228 531h2203V0H469v531q359 372 979 998 621 627 780 809 303 340 423 576 121 236 121 464 0 372-261 606-261 235-680 235-297 0-627-103-329-103-704-313v638q381 153 712 231 332 78 607 78 725 0 1156-363 431-362 431-968 0-288-108-546-107-257-392-607-78-91-497-524-418-433-1181-1211z" transform="scale(.01563)"/></defs><use xlink:href="#DejaVuSans-32"/><use xlink:href="#DejaVuSans-30" x="63.623"/><use xlink:href="#DejaVuSans-30" x="127.246"/></g></g><g id="xtick_3"><use xlink:href="#mbe40ea4e31" id="line2d_3" x="376.272" y="768.96" style="stroke:#000;stroke-width:.8"/><g id="text_3" transform="matrix(.1 0 0 -.1 366.728 783.558)"><defs><path id="DejaVuSans-34" d="M2419 4116 825 1625h1594v2491zm-166 550h794V1625h666v-525h-666V0h-628v1100H313v609l1940 2957z" transform="scale(.01563)"/></defs><use xlink:href="#DejaVuSans-34"/><use xlink:href="#DejaVuSans-30" x="63.623"/><use xlink:href="#DejaVuSans-30" x="127.246"/></g></g><g id="xtick_4"><use xlink:href="#mbe40ea4e31" id="line2d_4" x="509.328" y="768.96" style="stroke:#000;stroke-width:.8"/><g id="text_4" transform="matrix(.1 0 0 -.1 499.784 783.558)"><defs><path id="DejaVuSans-36" d="M2113 2584q-425 0-674-291-248-290-248-796 0-503 248-796 249-292 674-292t673 292q248 293 248 796 0 506-248 796-248 291-673 291zm1253 1979v-575q-238 112-480 171-242 60-480 60-625 0-955-422-329-422-376-1275 184 272 462 417 279 145 613 145 703 0 1111-427 408-426 408-1160 0-719-425-1154Q2819-91 2113-91q-810 0-1238 620-428 621-428 1799 0 1106 525 1764t1409 658q238 0 480-47t505-140z" transform="scale(.01563)"/></defs><use xlink:href="#DejaVuSans-36"/><use xlink:href="#DejaVuSans-30" x="63.623"/><use xlink:href="#DejaVuSans-30" x="127.246"/></g></g><g id="xtick_5"><use xlink:href="#mbe40ea4e31" id="line2d_5" x="642.384" y="768.96" style="stroke:#000;stroke-width:.8"/><g id="text_5" transform="matrix(.1 0 0 -.1 632.84 783.558)"><defs><path id="DejaVuSans-38" d="M2034 2216q-450 0-708-241-257-241-257-662 0-422 257-663 258-241 708-241t709 242q260 243 260 662 0 421-258 662-257 241-711 241zm-631 268q-406 100-633 378-226 279-226 679 0 559 398 884 399 325 1092 325 697 0 1094-325t397-884q0-400-227-679-226-278-629-378 456-106 710-416 255-309 255-755 0-679-414-1042Q2806-91 2034-91q-771 0-1186 362-414 363-414 1042 0 446 256 755 257 310 713 416zm-231 997q0-362 226-565 227-203 636-203 407 0 636 203 230 203 230 565 0 363-230 566-229 203-636 203-409 0-636-203-226-203-226-566z" transform="scale(.01563)"/></defs><use xlink:href="#DejaVuSans-38"/><use xlink:href="#DejaVuSans-30" x="63.623"/><use xlink:href="#DejaVuSans-30" x="127.246"/></g></g><g id="xtick_6"><use xlink:href="#mbe40ea4e31" id="line2d_6" x="775.44" y="768.96" style="stroke:#000;stroke-width:.8"/><g id="text_6" transform="matrix(.1 0 0 -.1 762.715 783.558)"><defs><path id="DejaVuSans-31" d="M794 531h1031v3560L703 3866v575l1116 225h631V531h1031V0H794v531z" transform="scale(.01563)"/></defs><use xlink:href="#DejaVuSans-31"/><use xlink:href="#DejaVuSans-30" x="63.623"/><use xlink:href="#DejaVuSans-30" x="127.246"/><use xlink:href="#DejaVuSans-30" x="190.869"/></g></g></g><g id="matplotlib.axis_2"><g id="ytick_1"><g id="line2d_7"><defs><path id="m4d1777f35f" d="M0 0h-3.5" style="stroke:#000;stroke-width:.8"/></defs><use xlink:href="#m4d1777f35f" x="110.16" y="768.96" style="stroke:#000;stroke-width:.8"/></g><use xlink:href="#DejaVuSans-30" id="text_7" transform="matrix(.1 0 0 -.1 96.797 772.76)"/></g><g id="ytick_2"><use xlink:href="#m4d1777f35f" id="line2d_8" x="110.16" y="635.904" style="stroke:#000;stroke-width:.8"/><g id="text_8" transform="matrix(.1 0 0 -.1 84.073 639.703)"><use xlink:href="#DejaVuSans-32"/><use xlink:href="#DejaVuSans-30" x="63.623"/><use xlink:href="#DejaVuSans-30" x="127.246"/></g></g><g id="ytick_3"><use xlink:href="#m4d1777f35f" id="line2d_9" x="110.16" y="502.848" style="stroke:#000;stroke-width:.8"/><g id="text_9" transform="matrix(.1 0 0 -.1 84.073 506.647)"><use xlink:href="#DejaVuSans-34"/><use xlink:href="#DejaVuSans-30" x="63.623"/><use xlink:href="#DejaVuSans-30" x="127.246"/></g></g><g id="ytick_4"><use xlink:href="#m4d1777f35f" id="line2d_10" x="110.16" y="369.792" style="stroke:#000;stroke-width:.8"/><g id="text_10" transform="matrix(.1 0 0 -.1 84.073 373.591)"><use xlink:href="#DejaVuSans-36"/><use xlink:href="#DejaVuSans-30" x="63.623"/><use xlink:href="#DejaVuSans-30" x="127.246"/></g></g><g id="ytick_5"><use xlink:href="#m4d1777f35f" id="line2d_11" x="110.16" y="236.736" style="stroke:#000;stroke-width:.8"/><g id="text_11" transform="matrix(.1 0 0 -.1 84.073 240.535)"><use xlink:href="#DejaVuSans-38"/><use xlink:href="#DejaVuSans-30" x="63.623"/><use xlink:href="#DejaVuSans-30" x="127.246"/></g></g><g id="ytick_6"><use xlink:href="#m4d1777f35f" id="line2d_12" x="110.16" y="103.68" style="stroke:#000;stroke-width:.8"/><g id="text_12" transform="matrix(.1 0 0 -.1 77.71 107.48)"><use xlink:href="#DejaVuSans-31"/><use xlink:href="#DejaVuSans-30" x="63.623"/><use xlink:href="#DejaVuSans-30" x="127.246"/><use xlink:href="#DejaVuSans-30" x="190.869"/></g></g></g><path id="patch_531" d="M110.16 768.96V103.68" style="fill:none;stroke:#000;stroke-width:.8;stroke-linejoin:miter;stroke-linecap:square"/><path id="patch_532" d="M775.44 768.96V103.68" style="fill:none;stroke:#000;stroke-width:.8;stroke-linejoin:miter;stroke-linecap:square"/><path id="patch_533" d="M110.16 768.96h665.28" style="fill:none;stroke:#000;stroke-width:.8;stroke-linejoin:miter;stroke-linecap:square"/><path id="patch_534" d="M110.16 103.68h665.28" style="fill:none;stroke:#000;stroke-width:.8;stroke-linejoin:miter;stroke-linecap:square"/><g id="text_13" transform="matrix(.12 0 0 -.12 240.505 97.68)"><defs><path id="DejaVuSans-41" d="m2188 4044-857-2322h1716l-859 2322zm-357 622h716L4325 0h-656l-425 1197H1141L716 0H50l1781 4666z" transform="scale(.01563)"/><path id="DejaVuSans-6e" d="M3513 2113V0h-575v2094q0 497-194 743-194 247-581 247-466 0-735-297-269-296-269-809V0H581v3500h578v-544q207 316 486 472 280 156 646 156 603 0 912-373 310-373 310-1098z" transform="scale(.01563)"/><path id="DejaVuSans-6f" d="M1959 3097q-462 0-731-361t-269-989q0-628 267-989 268-361 733-361 460 0 728 362 269 363 269 988 0 622-269 986-268 364-728 364zm0 487q750 0 1178-488 429-487 429-1349 0-859-429-1349Q2709-91 1959-91q-753 0-1180 489-426 490-426 1349 0 862 426 1349 427 488 1180 488z" transform="scale(.01563)"/><path id="DejaVuSans-74" d="M1172 4494v-994h1184v-447H1172V1153q0-428 117-550t477-122h590V0h-590q-666 0-919 248-253 249-253 905v1900H172v447h422v994h578z" transform="scale(.01563)"/><path id="DejaVuSans-68" d="M3513 2113V0h-575v2094q0 497-194 743-194 247-581 247-466 0-735-297-269-296-269-809V0H581v4863h578V2956q207 316 486 472 280 156 646 156 603 0 912-373 310-373 310-1098z" transform="scale(.01563)"/><path id="DejaVuSans-65" d="M3597 1894v-281H953q38-594 358-905t892-311q331 0 642 81t618 244V178Q3153 47 2828-22t-659-69q-838 0-1327 487-489 488-489 1320 0 859 464 1363 464 505 1252 505 706 0 1117-455 411-454 411-1235zm-575 169q-6 471-264 752-258 282-683 282-481 0-770-272t-333-766l2050 4z" transform="scale(.01563)"/><path id="DejaVuSans-72" d="M2631 2963q-97 56-211 82-114 27-251 27-488 0-749-317t-261-911V0H581v3500h578v-544q182 319 472 473 291 155 707 155 59 0 131-8 72-7 159-23l3-590z" transform="scale(.01563)"/><path id="DejaVuSans-47" d="M3809 666v1253H2778v519h1656V434q-365-259-806-392-440-133-940-133-1094 0-1712 639-617 640-617 1780 0 1144 617 1783 618 639 1712 639 456 0 867-113 411-112 758-331v-672q-350 297-744 447t-828 150q-857 0-1287-478-429-478-429-1425 0-944 429-1422 430-478 1287-478 334 0 596 58 263 58 472 180z" transform="scale(.01563)"/><path id="DejaVuSans-61" d="M2194 1759q-697 0-966-159t-269-544q0-306 202-486 202-179 548-179 479 0 768 339t289 901v128h-572zm1147 238V0h-575v531q-197-318-491-470T1556-91q-537 0-855 302-317 302-317 808 0 590 395 890 396 300 1180 300h807v57q0 397-261 614t-733 217q-300 0-585-72-284-72-546-216v532q315 122 612 182 297 61 578 61 760 0 1135-394 375-393 375-1193z" transform="scale(.01563)"/><path id="DejaVuSans-42" d="M1259 2228V519h1013q509 0 754 211 246 211 246 645 0 438-246 645-245 208-754 208H1259zm0 1919V2741h935q462 0 688 173 227 174 227 530 0 353-227 528-226 175-688 175h-935zm-631 519h1613q722 0 1112-300 391-300 391-853 0-429-200-682t-588-315q466-100 724-418 258-317 258-792 0-625-425-966Q3088 0 2303 0H628v4666z" transform="scale(.01563)"/><path id="DejaVuSans-69" d="M603 3500h575V0H603v3500zm0 1363h575v-729H603v729z" transform="scale(.01563)"/><path id="DejaVuSans-46" d="M628 4666h2681v-532H1259V2759h1850v-531H1259V0H628v4666z" transform="scale(.01563)"/><path id="DejaVuSans-73" d="M2834 3397v-544q-243 125-506 187-262 63-544 63-428 0-642-131t-214-394q0-200 153-314t616-217l197-44q612-131 870-370t258-667q0-488-386-773Q2250-91 1575-91q-281 0-586 55T347 128v594q319-166 628-249 309-82 613-82 406 0 624 139 219 139 219 392 0 234-158 359-157 125-692 241l-200 47q-534 112-772 345-237 233-237 639 0 494 350 762 350 269 994 269 318 0 599-47 282-46 519-140z" transform="scale(.01563)"/><path id="DejaVuSans-2c" d="M750 794h659V256L897-744H494L750 256v538z" transform="scale(.01563)"/><path id="DejaVuSans-62" d="M3116 1747q0 634-261 995t-717 361q-457 0-718-361t-261-995q0-634 261-995t718-361q456 0 717 361t261 995zM1159 2969q182 312 458 463 277 152 661 152 638 0 1036-506 399-506 399-1331T3314 415Q2916-91 2278-91q-384 0-661 152-276 152-458 464V0H581v4863h578V2969z" transform="scale(.01563)"/><path id="DejaVuSans-3d" d="M678 2906h4006v-525H678v525zm0-1275h4006v-531H678v531z" transform="scale(.01563)"/><path id="DejaVuSans-2e" d="M684 794h660V0H684v794z" transform="scale(.01563)"/><path id="DejaVuSans-35" d="M691 4666h2478v-532H1269V2991q137 47 274 70 138 23 276 23 781 0 1237-428 457-428 457-1159 0-753-469-1171Q2575-91 1722-91q-294 0-599 50Q819 9 494 109v635q281-153 581-228t634-75q541 0 856 284 316 284 316 772 0 487-316 771-315 285-856 285-253 0-505-56-251-56-513-175v2344z" transform="scale(.01563)"/><path id="DejaVuSans-33" d="M2597 2516q453-97 707-404 255-306 255-756 0-690-475-1069Q2609-91 1734-91q-293 0-604 58T488 141v609q262-153 574-231 313-78 654-78 593 0 904 234t311 681q0 413-289 645-289 233-804 233h-544v519h569q465 0 712 186t247 536q0 359-255 551-254 193-729 193-260 0-557-57-297-56-653-174v562q360 100 674 150t592 50q719 0 1137-327 419-326 419-882 0-388-222-655t-631-370z" transform="scale(.01563)"/><path id="DejaVuSans-37" d="M525 4666h3000v-269L1831 0h-659l1594 4134H525v532z" transform="scale(.01563)"/><path id="DejaVuSans-64" d="M2906 2969v1894h575V0h-575v525q-181-312-458-464-276-152-664-152-634 0-1033 506-398 507-398 1332t398 1331q399 506 1033 506 388 0 664-152 277-151 458-463zM947 1747q0-634 261-995t717-361q456 0 718 361 263 361 263 995t-263 995q-262 361-718 361t-717-361q-261-361-261-995z" transform="scale(.01563)"/><path id="DejaVuSans-39" d="M703 97v575q238-113 481-172 244-59 479-59 625 0 954 420 330 420 377 1277-181-269-460-413-278-144-615-144-700 0-1108 423-408 424-408 1159 0 718 425 1152 425 435 1131 435 810 0 1236-621 427-620 427-1801 0-1103-524-1761Q2575-91 1691-91q-238 0-482 47Q966 3 703 97zm1256 1978q425 0 673 290 249 291 249 798 0 503-249 795-248 292-673 292t-673-292q-248-292-248-795 0-507 248-798 248-290 673-290z" transform="scale(.01563)"/></defs><use xlink:href="#DejaVuSans-41"/><use xlink:href="#DejaVuSans-6e" x="68.408"/><use xlink:href="#DejaVuSans-6f" x="131.787"/><use xlink:href="#DejaVuSans-74" x="192.969"/><use xlink:href="#DejaVuSans-68" x="232.178"/><use xlink:href="#DejaVuSans-65" x="295.557"/><use xlink:href="#DejaVuSans-72" x="357.08"/><use xlink:href="#DejaVuSans-47" x="398.193"/><use xlink:href="#DejaVuSans-72" x="475.684"/><use xlink:href="#DejaVuSans-65" x="514.547"/><use xlink:href="#DejaVuSans-61" x="576.07"/><use xlink:href="#DejaVuSans-74" x="637.35"/><use xlink:href="#DejaVuSans-42" x="676.559"/><use xlink:href="#DejaVuSans-69" x="745.162"/><use xlink:href="#DejaVuSans-74" x="772.945"/><use xlink:href="#DejaVuSans-46" x="812.154"/><use xlink:href="#DejaVuSans-6f" x="866.049"/><use xlink:href="#DejaVuSans-72" x="927.23"/><use xlink:href="#DejaVuSans-65" x="966.094"/><use xlink:href="#DejaVuSans-73" x="1027.617"/><use xlink:href="#DejaVuSans-74" x="1079.717"/><use xlink:href="#DejaVuSans-2c" x="1118.926"/><use xlink:href="#DejaVuSans-20" x="1150.713"/><use xlink:href="#DejaVuSans-62" x="1182.5"/><use xlink:href="#DejaVuSans-3d" x="1245.977"/><use xlink:href="#DejaVuSans-30" x="1329.766"/><use xlink:href="#DejaVuSans-2e" x="1393.389"/><use xlink:href="#DejaVuSans-32" x="1425.176"/><use xlink:href="#DejaVuSans-36" x="1488.799"/><use xlink:href="#DejaVuSans-35" x="1552.422"/><use xlink:href="#DejaVuSans-30" x="1616.045"/><use xlink:href="#DejaVuSans-33" x="1679.668"/><use xlink:href="#DejaVuSans-37" x="1743.291"/><use xlink:href="#DejaVuSans-31" x="1806.914"/><use xlink:href="#DejaVuSans-2c" x="1870.537"/><use xlink:href="#DejaVuSans-20" x="1902.324"/><use xlink:href="#DejaVuSans-61" x="1934.111"/><use xlink:href="#DejaVuSans-3d" x="1995.391"/><use xlink:href="#DejaVuSans-30" x="2079.18"/><use xlink:href="#DejaVuSans-2e" x="2142.803"/><use xlink:href="#DejaVuSans-33" x="2174.59"/><use xlink:href="#DejaVuSans-31" x="2238.213"/><use xlink:href="#DejaVuSans-37" x="2301.836"/><use xlink:href="#DejaVuSans-30" x="2365.459"/><use xlink:href="#DejaVuSans-34" x="2429.082"/><use xlink:href="#DejaVuSans-30" x="2492.705"/><use xlink:href="#DejaVuSans-31" x="2556.328"/><use xlink:href="#DejaVuSans-2c" x="2619.951"/><use xlink:href="#DejaVuSans-20" x="2651.738"/><use xlink:href="#DejaVuSans-64" x="2683.525"/><use xlink:href="#DejaVuSans-3d" x="2747.002"/><use xlink:href="#DejaVuSans-30" x="2830.791"/><use xlink:href="#DejaVuSans-2e" x="2894.414"/><use xlink:href="#DejaVuSans-38" x="2926.201"/><use xlink:href="#DejaVuSans-33" x="2989.824"/><use xlink:href="#DejaVuSans-35" x="3053.447"/><use xlink:href="#DejaVuSans-39" x="3117.07"/><use xlink:href="#DejaVuSans-37" x="3180.693"/><use xlink:href="#DejaVuSans-33" x="3244.316"/><use xlink:href="#DejaVuSans-34" x="3307.939"/></g></g></g><defs><clipPath id="p92fe582985"><path d="M110.16 103.68h665.28v665.28H110.16z"/></clipPath></defs></svg>