<svg xmlns="http://www.w3.org/2000/svg" xmlns:xlink="http://www.w3.org/1999/xlink" width="576" height="230.4" viewBox="0 0 432 172.8"><defs><style>*{stroke-linejoin:round;stroke-linecap:butt}</style></defs><g id="figure_1"><path id="patch_1" d="M0 172.8h432V0H0z" style="fill:#fff"/><g id="axes_1"><path id="patch_2" d="M55.08 153.792h332.64V20.736H55.08z" style="fill:#fff"/><path id="patch_3" d="M63.063 153.792a7.984 7.984 0 1 0 0-15.967 7.984 7.984 0 0 0 0 15.967z" clip-path="url(#pf30557b699)" style="fill:#ff0029"/><path id="patch_4" d="M63.063 137.825a7.984 7.984 0 1 0 0-15.967 7.984 7.984 0 0 0 0 15.967z" clip-path="url(#pf30557b699)" style="fill:#ff0029"/><path id="patch_5" d="M79.03 153.792a7.984 7.984 0 1 0 0-15.967 7.984 7.984 0 0 0 0 15.967z" clip-path="url(#pf30557b699)" style="fill:#ff0029"/><path id="patch_6" d="M61.068 122.002a5.988 5.988 0 1 0 0-11.976 5.988 5.988 0 0 0 0 11.976z" clip-path="url(#pf30557b699)" style="fill:#0018ff"/><path id="patch_7" d="M90.32 153.792a3.992 3.992 0 1 0 0-7.984 3.992 3.992 0 0 0 0 7.984z" clip-path="url(#pf30557b699)" style="fill:#cdff00"/><path id="patch_8" d="M63.063 110.17a7.984 7.984 0 1 0 0-15.967 7.984 7.984 0 0 0 0 15.967z" clip-path="url(#pf30557b699)" style="fill:#ff0029"/><path id="patch_9" d="M100.098 153.792a5.988 5.988 0 1 0 0-11.976 5.988 5.988 0 0 0 0 11.976z" clip-path="url(#pf30557b699)" style="fill:#0018ff"/><path id="patch_10" d="M70.104 140.486a2.661 2.661 0 1 0 0-5.322 2.661 2.661 0 0 0 0 5.322z" clip-path="url(#pf30557b699)" style="fill:#00ff8c"/><path id="patch_11" d="M63.063 94.203a7.984 7.984 0 1 0 0-15.967 7.984 7.984 0 0 0 0 15.967z" clip-path="url(#pf30557b699)" style="fill:#ff0029"/><path id="patch_12" d="M112.073 153.792a5.988 5.988 0 1 0 0-11.976 5.988 5.988 0 0 0 0 11.976z" clip-path="url(#pf30557b699)" style="fill:#0018ff"/><path id="patch_13" d="M71.989 98.195a3.992 3.992 0 1 0 0-7.984 3.992 3.992 0 0 0 0 7.984z" clip-path="url(#pf30557b699)" style="fill:#cdff00"/><path id="patch_14" d="M57.076 139.821a1.996 1.996 0 1 0 0-3.992 1.996 1.996 0 0 0 0 3.992z" clip-path="url(#pf30557b699)" style="fill:#ff00bf"/><path id="patch_15" d="M63.063 78.237a7.984 7.984 0 1 0 0-15.968 7.984 7.984 0 0 0 0 15.968z" clip-path="url(#pf30557b699)" style="fill:#ff0029"/><path id="patch_16" d="M106.085 143.165a7.984 7.984 0 1 0 0-15.967 7.984 7.984 0 0 0 0 15.967z" clip-path="url(#pf30557b699)" style="fill:#ff0029"/><path id="patch_17" d="M124.048 153.792a5.988 5.988 0 1 0 0-11.976 5.988 5.988 0 0 0 0 11.976z" clip-path="url(#pf30557b699)" style="fill:#0018ff"/><path id="patch_18" d="M118.06 143.813a3.992 3.992 0 1 0 0-7.984 3.992 3.992 0 0 0 0 7.984z" clip-path="url(#pf30557b699)" style="fill:#cdff00"/><path id="patch_19" d="M70.104 80.898a2.661 2.661 0 1 0 0-5.323 2.661 2.661 0 0 0 0 5.323z" clip-path="url(#pf30557b699)" style="fill:#00ff8c"/><path id="patch_20" d="M63.063 62.27a7.984 7.984 0 1 0 0-15.968 7.984 7.984 0 0 0 0 15.968z" clip-path="url(#pf30557b699)" style="fill:#ff0029"/><path id="patch_21" d="M136.023 153.792a5.988 5.988 0 1 0 0-11.976 5.988 5.988 0 0 0 0 11.976z" clip-path="url(#pf30557b699)" style="fill:#0018ff"/><path id="patch_22" d="M76.89 70.253a7.984 7.984 0 1 0 0-15.967 7.984 7.984 0 0 0 0 15.967z" clip-path="url(#pf30557b699)" style="fill:#ff0029"/><path id="patch_23" d="M61.068 46.447a5.988 5.988 0 1 0 0-11.976 5.988 5.988 0 0 0 0 11.976z" clip-path="url(#pf30557b699)" style="fill:#0018ff"/><path id="patch_24" d="M59.072 34.673a3.992 3.992 0 1 0 0-7.984 3.992 3.992 0 0 0 0 7.984z" clip-path="url(#pf30557b699)" style="fill:#cdff00"/><path id="patch_25" d="M71.047 153.792a1.996 1.996 0 1 0 0-3.992 1.996 1.996 0 0 0 0 3.992z" clip-path="url(#pf30557b699)" style="fill:#ff00bf"/><path id="patch_26" d="M130.035 143.165a7.984 7.984 0 1 0 0-15.967 7.984 7.984 0 0 0 0 15.967z" clip-path="url(#pf30557b699)" style="fill:#ff0029"/><path id="patch_27" d="M57.741 26.824a2.661 2.661 0 1 0 0-5.322 2.661 2.661 0 0 0 0 5.322z" clip-path="url(#pf30557b699)" style="fill:#00ff8c"/><path id="patch_28" d="M149.85 153.792a7.984 7.984 0 1 0 0-15.967 7.984 7.984 0 0 0 0 15.967z" clip-path="url(#pf30557b699)" style="fill:#ff0029"/><path id="patch_29" d="M163.678 153.792a5.988 5.988 0 1 0 0-11.976 5.988 5.988 0 0 0 0 11.976z" clip-path="url(#pf30557b699)" style="fill:#0018ff"/><path id="patch_30" d="M173.456 153.792a3.992 3.992 0 1 0 0-7.984 3.992 3.992 0 0 0 0 7.984z" clip-path="url(#pf30557b699)" style="fill:#cdff00"/><path id="patch_31" d="M184.746 153.792a7.984 7.984 0 1 0 0-15.967 7.984 7.984 0 0 0 0 15.967z" clip-path="url(#pf30557b699)" style="fill:#ff0029"/><path id="patch_32" d="M198.573 153.792a5.988 5.988 0 1 0 0-11.976 5.988 5.988 0 0 0 0 11.976z" clip-path="url(#pf30557b699)" style="fill:#0018ff"/><path id="patch_33" d="M212.401 153.792a7.984 7.984 0 1 0 0-15.967 7.984 7.984 0 0 0 0 15.967z" clip-path="url(#pf30557b699)" style="fill:#ff0029"/><path id="patch_34" d="M226.229 153.792a5.988 5.988 0 1 0 0-11.976 5.988 5.988 0 0 0 0 11.976z" clip-path="url(#pf30557b699)" style="fill:#0018ff"/><path id="patch_35" d="M236.006 153.792a3.992 3.992 0 1 0 0-7.984 3.992 3.992 0 0 0 0 7.984z" clip-path="url(#pf30557b699)" style="fill:#cdff00"/><path id="patch_36" d="M242.525 153.792a2.661 2.661 0 1 0 0-5.322 2.661 2.661 0 0 0 0 5.322z" clip-path="url(#pf30557b699)" style="fill:#00ff8c"/><path id="patch_37" d="M57.076 96.2a1.996 1.996 0 1 0 0-3.993 1.996 1.996 0 0 0 0 3.992z" clip-path="url(#pf30557b699)" style="fill:#ff00bf"/><path id="patch_38" d="M251.743 153.792a7.984 7.984 0 1 0 0-15.967 7.984 7.984 0 0 0 0 15.967z" clip-path="url(#pf30557b699)" style="fill:#ff0029"/><path id="patch_39" d="M265.57 153.792a5.988 5.988 0 1 0 0-11.976 5.988 5.988 0 0 0 0 11.976z" clip-path="url(#pf30557b699)" style="fill:#0018ff"/><path id="patch_40" d="M279.398 153.792a7.984 7.984 0 1 0 0-15.967 7.984 7.984 0 0 0 0 15.967z" clip-path="url(#pf30557b699)" style="fill:#ff0029"/><path id="patch_41" d="M293.226 153.792a5.988 5.988 0 1 0 0-11.976 5.988 5.988 0 0 0 0 11.976z" clip-path="url(#pf30557b699)" style="fill:#0018ff"/><path id="patch_42" d="M303.003 153.792a3.992 3.992 0 1 0 0-7.984 3.992 3.992 0 0 0 0 7.984z" clip-path="url(#pf30557b699)" style="fill:#cdff00"/><path id="patch_43" d="M314.294 153.792a7.984 7.984 0 1 0 0-15.967 7.984 7.984 0 0 0 0 15.967z" clip-path="url(#pf30557b699)" style="fill:#ff0029"/><path id="patch_44" d="M323.512 153.792a2.661 2.661 0 1 0 0-5.322 2.661 2.661 0 0 0 0 5.322z" clip-path="url(#pf30557b699)" style="fill:#00ff8c"/><path id="patch_45" d="M332.73 153.792a7.984 7.984 0 1 0 0-15.967 7.984 7.984 0 0 0 0 15.967z" clip-path="url(#pf30557b699)" style="fill:#ff0029"/><path id="patch_46" d="M346.558 153.792a5.988 5.988 0 1 0 0-11.976 5.988 5.988 0 0 0 0 11.976z" clip-path="url(#pf30557b699)" style="fill:#0018ff"/><path id="patch_47" d="M356.335 153.792a3.992 3.992 0 1 0 0-7.984 3.992 3.992 0 0 0 0 7.984z" clip-path="url(#pf30557b699)" style="fill:#cdff00"/><path id="patch_48" d="M57.076 80.233a1.996 1.996 0 1 0 0-3.992 1.996 1.996 0 0 0 0 3.992z" clip-path="url(#pf30557b699)" style="fill:#ff00bf"/><path id="patch_49" d="M367.626 153.792a7.984 7.984 0 1 0 0-15.967 7.984 7.984 0 0 0 0 15.967z" clip-path="url(#pf30557b699)" style="fill:#ff0029"/><path id="patch_50" d="M381.453 153.792a5.988 5.988 0 1 0 0-11.976 5.988 5.988 0 0 0 0 11.976z" clip-path="url(#pf30557b699)" style="fill:#0018ff"/><path id="patch_51" d="M57.076 64.266a1.996 1.996 0 1 0 0-3.992 1.996 1.996 0 0 0 0 3.992z" clip-path="url(#pf30557b699)" style="fill:#ff00bf"/><g id="matplotlib.axis_1"><g id="xtick_1"><g id="line2d_1"><defs><path id="mc3adfc73ba" d="M0 0v3.5" style="stroke:#000;stroke-width:.8"/></defs><use xlink:href="#mc3adfc73ba" x="55.08" y="153.792" style="stroke:#000;stroke-width:.8"/></g><g id="text_1" transform="matrix(.1 0 0 -.1 51.899 168.39)"><defs><path id="DejaVuSans-30" d="M2034 4250q-487 0-733-480-245-479-245-1442 0-959 245-1439 246-480 733-480 491 0 736 480 246 480 246 1439 0 963-246 1442-245 480-736 480zm0 500q785 0 1199-621 414-620 414-1801 0-1178-414-1799Q2819-91 2034-91q-784 0-1198 620-414 621-414 1799 0 1181 414 1801 414 621 1198 621z" transform="scale(.01563)"/></defs><use xlink:href="#DejaVuSans-30"/></g></g><g id="xtick_2"><use xlink:href="#mc3adfc73ba" id="line2d_2" x="121.608" y="153.792" style="stroke:#000;stroke-width:.8"/><g id="text_2" transform="matrix(.1 0 0 -.1 112.064 168.39)"><defs><path id="DejaVuSans-31" d="M794 531h1031v3560L703 3866v575l1116 225h631V531h1031V0H794v531z" transform="scale(.01563)"/></defs><use xlink:href="#DejaVuSans-31"/><use xlink:href="#DejaVuSans-30" x="63.623"/><use xlink:href="#DejaVuSans-30" x="127.246"/></g></g><g id="xtick_3"><use xlink:href="#mc3adfc73ba" id="line2d_3" x="188.136" y="153.792" style="stroke:#000;stroke-width:.8"/><g id="text_3" transform="matrix(.1 0 0 -.1 178.592 168.39)"><defs><path id="DejaVuSans-32" d="M1228 531h2203V0H469v531q359 372 979 998 621 627 780 809 303 340 423 576 121 236 121 464 0 372-261 606-261 235-680 235-297 0-627-103-329-103-704-313v638q381 153 712 231 332 78 607 78 725 0 1156-363 431-362 431-968 0-288-108-546-107-257-392-607-78-91-497-524-418-433-1181-1211z" transform="scale(.01563)"/></defs><use xlink:href="#DejaVuSans-32"/><use xlink:href="#DejaVuSans-30" x="63.623"/><use xlink:href="#DejaVuSans-30" x="127.246"/></g></g><g id="xtick_4"><use xlink:href="#mc3adfc73ba" id="line2d_4" x="254.664" y="153.792" style="stroke:#000;stroke-width:.8"/><g id="text_4" transform="matrix(.1 0 0 -.1 245.12 168.39)"><defs><path id="DejaVuSans-33" d="M2597 2516q453-97 707-404 255-306 255-756 0-690-475-1069Q2609-91 1734-91q-293 0-604 58T488 141v609q262-153 574-231 313-78 654-78 593 0 904 234t311 681q0 413-289 645-289 233-804 233h-544v519h569q465 0 712 186t247 536q0 359-255 551-254 193-729 193-260 0-557-57-297-56-653-174v562q360 100 674 150t592 50q719 0 1137-327 419-326 419-882 0-388-222-655t-631-370z" transform="scale(.01563)"/></defs><use xlink:href="#DejaVuSans-33"/><use xlink:href="#DejaVuSans-30" x="63.623"/><use xlink:href="#DejaVuSans-30" x="127.246"/></g></g><g id="xtick_5"><use xlink:href="#mc3adfc73ba" id="line2d_5" x="321.192" y="153.792" style="stroke:#000;stroke-width:.8"/><g id="text_5" transform="matrix(.1 0 0 -.1 311.648 168.39)"><defs><path id="DejaVuSans-34" d="M2419 4116 825 1625h1594v2491zm-166 550h794V1625h666v-525h-666V0h-628v1100H313v609l1940 2957z" transform="scale(.01563)"/></defs><use xlink:href="#DejaVuSans-34"/><use xlink:href="#DejaVuSans-30" x="63.623"/><use xlink:href="#DejaVuSans-30" x="127.246"/></g></g><g id="xtick_6"><use xlink:href="#mc3adfc73ba" id="line2d_6" x="387.72" y="153.792" style="stroke:#000;stroke-width:.8"/><g id="text_6" transform="matrix(.1 0 0 -.1 378.176 168.39)"><defs><path id="DejaVuSans-35" d="M691 4666h2478v-532H1269V2991q137 47 274 70 138 23 276 23 781 0 1237-428 457-428 457-1159 0-753-469-1171Q2575-91 1722-91q-294 0-599 50Q819 9 494 109v635q281-153 581-228t634-75q541 0 856 284 316 284 316 772 0 487-316 771-315 285-856 285-253 0-505-56-251-56-513-175v2344z" transform="scale(.01563)"/></defs><use xlink:href="#DejaVuSans-35"/><use xlink:href="#DejaVuSans-30" x="63.623"/><use xlink:href="#DejaVuSans-30" x="127.246"/></g></g></g><g id="matplotlib.axis_2"><g id="ytick_1"><g id="line2d_7"><defs><path id="mbd0555f754" d="M0 0h-3.5" style="stroke:#000;stroke-width:.8"/></defs><use xlink:href="#mbd0555f754" x="55.08" y="153.792" style="stroke:#000;stroke-width:.8"/></g><use xlink:href="#DejaVuSans-30" id="text_7" transform="matrix(.1 0 0 -.1 41.718 157.591)"/></g><g id="ytick_2"><use xlink:href="#mbd0555f754" id="line2d_8" x="55.08" y="120.528" style="stroke:#000;stroke-width:.8"/><g id="text_8" transform="matrix(.1 0 0 -.1 35.355 124.327)"><use xlink:href="#DejaVuSans-35"/><use xlink:href="#DejaVuSans-30" x="63.623"/></g></g><g id="ytick_3"><use xlink:href="#mbd0555f754" id="line2d_9" x="55.08" y="87.264" style="stroke:#000;stroke-width:.8"/><g id="text_9" transform="matrix(.1 0 0 -.1 28.992 91.063)"><use xlink:href="#DejaVuSans-31"/><use xlink:href="#DejaVuSans-30" x="63.623"/><use xlink:href="#DejaVuSans-30" x="127.246"/></g></g><g id="ytick_4"><use xlink:href="#mbd0555f754" id="line2d_10" x="55.08" y="54" style="stroke:#000;stroke-width:.8"/><g id="text_10" transform="matrix(.1 0 0 -.1 28.992 57.8)"><use xlink:href="#DejaVuSans-31"/><use xlink:href="#DejaVuSans-35" x="63.623"/><use xlink:href="#DejaVuSans-30" x="127.246"/></g></g><g id="ytick_5"><use xlink:href="#mbd0555f754" id="line2d_11" x="55.08" y="20.736" style="stroke:#000;stroke-width:.8"/><g id="text_11" transform="matrix(.1 0 0 -.1 28.992 24.535)"><use xlink:href="#DejaVuSans-32"/><use xlink:href="#DejaVuSans-30" x="63.623"/><use xlink:href="#DejaVuSans-30" x="127.246"/></g></g></g><path id="patch_52" d="M55.08 153.792V20.736" style="fill:none;stroke:#000;stroke-width:.8;stroke-linejoin:miter;stroke-linecap:square"/><path id="patch_53" d="M387.72 153.792V20.736" style="fill:none;stroke:#000;stroke-width:.8;stroke-linejoin:miter;stroke-linecap:square"/><path id="patch_54" d="M55.08 153.792h332.64" style="fill:none;stroke:#000;stroke-width:.8;stroke-linejoin:miter;stroke-linecap:square"/><path id="patch_55" d="M55.08 20.736h332.64" style="fill:none;stroke:#000;stroke-width:.8;stroke-linejoin:miter;stroke-linecap:square"/><g id="text_12" transform="matrix(.12 0 0 -.12 38.005 14.736)"><defs><path id="DejaVuSans-53" d="M3425 4513v-616q-359 172-678 256-319 85-616 85-515 0-795-200t-280-569q0-310 186-468 186-157 705-254l381-78q706-135 1042-474t336-907q0-679-455-1029Q2797-91 1919-91q-331 0-705 75-373 75-773 222v650q384-215 753-325 369-109 725-109 540 0 834 212 294 213 294 607 0 343-211 537t-692 291l-385 75q-706 140-1022 440-315 300-315 835 0 619 436 975t1201 356q329 0 669-60 341-59 697-177z" transform="scale(.01563)"/><path id="DejaVuSans-68" d="M3513 2113V0h-575v2094q0 497-194 743-194 247-581 247-466 0-735-297-269-296-269-809V0H581v4863h578V2956q207 316 486 472 280 156 646 156 603 0 912-373 310-373 310-1098z" transform="scale(.01563)"/><path id="DejaVuSans-65" d="M3597 1894v-281H953q38-594 358-905t892-311q331 0 642 81t618 244V178Q3153 47 2828-22t-659-69q-838 0-1327 487-489 488-489 1320 0 859 464 1363 464 505 1252 505 706 0 1117-455 411-454 411-1235zm-575 169q-6 471-264 752-258 282-683 282-481 0-770-272t-333-766l2050 4z" transform="scale(.01563)"/><path id="DejaVuSans-72" d="M2631 2963q-97 56-211 82-114 27-251 27-488 0-749-317t-261-911V0H581v3500h578v-544q182 319 472 473 291 155 707 155 59 0 131-8 72-7 159-23l3-590z" transform="scale(.01563)"/><path id="DejaVuSans-77" d="M269 3500h575l719-2731 715 2731h678l719-2731 716 2731h575L4050 0h-678l-753 2869L1863 0h-679L269 3500z" transform="scale(.01563)"/><path id="DejaVuSans-6f" d="M1959 3097q-462 0-731-361t-269-989q0-628 267-989 268-361 733-361 460 0 728 362 269 363 269 988 0 622-269 986-268 364-728 364zm0 487q750 0 1178-488 429-487 429-1349 0-859-429-1349Q2709-91 1959-91q-753 0-1180 489-426 490-426 1349 0 862 426 1349 427 488 1180 488z" transform="scale(.01563)"/><path id="DejaVuSans-64" d="M2906 2969v1894h575V0h-575v525q-181-312-458-464-276-152-664-152-634 0-1033 506-398 507-398 1332t398 1331q399 506 1033 506 388 0 664-152 277-151 458-463zM947 1747q0-634 261-995t717-361q456 0 718 361 263 361 263 995t-263 995q-262 361-718 361t-717-361q-261-361-261-995z" transform="scale(.01563)"/><path id="DejaVuSans-46" d="M628 4666h2681v-532H1259V2759h1850v-531H1259V0H628v4666z" transform="scale(.01563)"/><path id="DejaVuSans-73" d="M2834 3397v-544q-243 125-506 187-262 63-544 63-428 0-642-131t-214-394q0-200 153-314t616-217l197-44q612-131 870-370t258-667q0-488-386-773Q2250-91 1575-91q-281 0-586 55T347 128v594q319-166 628-249 309-82 613-82 406 0 624 139 219 139 219 392 0 234-158 359-157 125-692 241l-200 47q-534 112-772 345-237 233-237 639 0 494 350 762 350 269 994 269 318 0 599-47 282-46 519-140z" transform="scale(.01563)"/><path id="DejaVuSans-74" d="M1172 4494v-994h1184v-447H1172V1153q0-428 117-550t477-122h590V0h-590q-666 0-919 248-253 249-253 905v1900H172v447h422v994h578z" transform="scale(.01563)"/><path id="DejaVuSans-2c" d="M750 794h659V256L897-744H494L750 256v538z" transform="scale(.01563)"/><path id="DejaVuSans-62" d="M3116 1747q0 634-261 995t-717 361q-457 0-718-361t-261-995q0-634 261-995t718-361q456 0 717 361t261 995zM1159 2969q182 312 458 463 277 152 661 152 638 0 1036-506 399-506 399-1331T3314 415Q2916-91 2278-91q-384 0-661 152-276 152-458 464V0H581v4863h578V2969z" transform="scale(.01563)"/><path id="DejaVuSans-3d" d="M678 2906h4006v-525H678v525zm0-1275h4006v-531H678v531z" transform="scale(.01563)"/><path id="DejaVuSans-2e" d="M684 794h660V0H684v794z" transform="scale(.01563)"/><path id="DejaVuSans-39" d="M703 97v575q238-113 481-172 244-59 479-59 625 0 954 420 330 420 377 1277-181-269-460-413-278-144-615-144-700 0-1108 423-408 424-408 1159 0 718 425 1152 425 435 1131 435 810 0 1236-621 427-620 427-1801 0-1103-524-1761Q2575-91 1691-91q-238 0-482 47Q966 3 703 97zm1256 1978q425 0 673 290 249 291 249 798 0 503-249 795-248 292-673 292t-673-292q-248-292-248-795 0-507 248-798 248-290 673-290z" transform="scale(.01563)"/><path id="DejaVuSans-36" d="M2113 2584q-425 0-674-291-248-290-248-796 0-503 248-796 249-292 674-292t673 292q248 293 248 796 0 506-248 796-248 291-673 291zm1253 1979v-575q-238 112-480 171-242 60-480 60-625 0-955-422-329-422-376-1275 184 272 462 417 279 145 613 145 703 0 1111-427 408-426 408-1160 0-719-425-1154Q2819-91 2113-91q-810 0-1238 620-428 621-428 1799 0 1106 525 1764t1409 658q238 0 480-47t505-140z" transform="scale(.01563)"/><path id="DejaVuSans-61" d="M2194 1759q-697 0-966-159t-269-544q0-306 202-486 202-179 548-179 479 0 768 339t289 901v128h-572zm1147 238V0h-575v531q-197-318-491-470T1556-91q-537 0-855 302-317 302-317 808 0 590 395 890 396 300 1180 300h807v57q0 397-261 614t-733 217q-300 0-585-72-284-72-546-216v532q315 122 612 182 297 61 578 61 760 0 1135-394 375-393 375-1193z" transform="scale(.01563)"/><path id="DejaVuSans-37" d="M525 4666h3000v-269L1831 0h-659l1594 4134H525v532z" transform="scale(.01563)"/><path id="DejaVuSans-38" d="M2034 2216q-450 0-708-241-257-241-257-662 0-422 257-663 258-241 708-241t709 242q260 243 260 662 0 421-258 662-257 241-711 241zm-631 268q-406 100-633 378-226 279-226 679 0 559 398 884 399 325 1092 325 697 0 1094-325t397-884q0-400-227-679-226-278-629-378 456-106 710-416 255-309 255-755 0-679-414-1042Q2806-91 2034-91q-771 0-1186 362-414 363-414 1042 0 446 256 755 257 310 713 416zm-231 997q0-362 226-565 227-203 636-203 407 0 636 203 230 203 230 565 0 363-230 566-229 203-636 203-409 0-636-203-226-203-226-566z" transform="scale(.01563)"/></defs><use xlink:href="#DejaVuSans-53"/><use xlink:href="#DejaVuSans-68" x="63.477"/><use xlink:href="#DejaVuSans-65" x="126.855"/><use xlink:href="#DejaVuSans-72" x="188.379"/><use xlink:href="#DejaVuSans-77" x="229.492"/><use xlink:href="#DejaVuSans-6f" x="311.279"/><use xlink:href="#DejaVuSans-6f" x="372.461"/><use xlink:href="#DejaVuSans-64" x="433.643"/><use xlink:href="#DejaVuSans-46" x="497.119"/><use xlink:href="#DejaVuSans-6f" x="551.014"/><use xlink:href="#DejaVuSans-72" x="612.195"/><use xlink:href="#DejaVuSans-65" x="651.059"/><use xlink:href="#DejaVuSans-73" x="712.582"/><use xlink:href="#DejaVuSans-74" x="764.682"/><use xlink:href="#DejaVuSans-2c" x="803.891"/><use xlink:href="#DejaVuSans-20" x="835.678"/><use xlink:href="#DejaVuSans-62" x="867.465"/><use xlink:href="#DejaVuSans-3d" x="930.941"/><use xlink:href="#DejaVuSans-30" x="1014.73"/><use xlink:href="#DejaVuSans-2e" x="1078.354"/><use xlink:href="#DejaVuSans-30" x="1110.141"/><use xlink:href="#DejaVuSans-39" x="1173.764"/><use xlink:href="#DejaVuSans-35" x="1237.387"/><use xlink:href="#DejaVuSans-32" x="1301.01"/><use xlink:href="#DejaVuSans-35" x="1364.633"/><use xlink:href="#DejaVuSans-36" x="1428.256"/><use xlink:href="#DejaVuSans-30" x="1491.879"/><use xlink:href="#DejaVuSans-2c" x="1555.502"/><use xlink:href="#DejaVuSans-20" x="1587.289"/><use xlink:href="#DejaVuSans-61" x="1619.076"/><use xlink:href="#DejaVuSans-3d" x="1680.355"/><use xlink:href="#DejaVuSans-30" x="1764.145"/><use xlink:href="#DejaVuSans-2e" x="1827.768"/><use xlink:href="#DejaVuSans-31" x="1859.555"/><use xlink:href="#DejaVuSans-32" x="1923.178"/><use xlink:href="#DejaVuSans-37" x="1986.801"/><use xlink:href="#DejaVuSans-34" x="2050.424"/><use xlink:href="#DejaVuSans-38" x="2114.047"/><use xlink:href="#DejaVuSans-35" x="2177.67"/><use xlink:href="#DejaVuSans-38" x="2241.293"/><use xlink:href="#DejaVuSans-2c" x="2304.916"/><use xlink:href="#DejaVuSans-20" x="2336.703"/><use xlink:href="#DejaVuSans-64" x="2368.49"/><use xlink:href="#DejaVuSans-3d" x="2431.967"/><use xlink:href="#DejaVuSans-30" x="2515.756"/><use xlink:href="#DejaVuSans-2e" x="2579.379"/><use xlink:href="#DejaVuSans-37" x="2611.166"/><use xlink:href="#DejaVuSans-34" x="2674.789"/><use xlink:href="#DejaVuSans-37" x="2738.412"/><use xlink:href="#DejaVuSans-31" x="2802.035"/><use xlink:href="#DejaVuSans-38" x="2865.658"/><use xlink:href="#DejaVuSans-38" x="2929.281"/><use xlink:href="#DejaVuSans-37" x="2992.904"/></g></g></g><defs><clipPath id="pf30557b699"><path d="M55.08 20.736h332.64v133.056H55.08z"/></clipPath></defs></svg>