<?xml version="1.0" encoding="utf-8" standalone="no"?>
<!DOCTYPE svg PUBLIC "-//W3C//DTD SVG 1.1//EN"
  "http://www.w3.org/Graphics/SVG/1.1/DTD/svg11.dtd">
<svg xmlns:xlink="http://www.w3.org/1999/xlink" width="864pt" height="864pt" viewBox="0 0 864 864" xmlns="http://www.w3.org/2000/svg" version="1.1">
 <metadata>
  <rdf:RDF xmlns:dc="http://purl.org/dc/elements/1.1/" xmlns:cc="http://creativecommons.org/ns#" xmlns:rdf="http://www.w3.org/1999/02/22-rdf-syntax-ns#">
   <cc:Work>
    <dc:type rdf:resource="http://purl.org/dc/dcmitype/StillImage"/>
    <dc:date>2023-02-11T16:49:55.947062</dc:date>
    <dc:format>image/svg+xml</dc:format>
    <dc:creator>
     <cc:Agent>
      <dc:title>Matplotlib v3.5.2, https://matplotlib.org/</dc:title>
     </cc:Agent>
    </dc:creator>
   </cc:Work>
  </rdf:RDF>
 </metadata>
 <defs>
  <style type="text/css">*{stroke-linejoin: round; stroke-linecap: butt}</style>
 </defs>
 <g id="figure_1">
  <g id="patch_1">
   <path d="M 0 864 
L 864 864 
L 864 0 
L 0 0 
z
" style="fill: #ffffff"/>
  </g>
  <g id="axes_1">
   <g id="patch_2">
    <path d="M 110.16 768.96 
L 775.44 768.96 
L 775.44 103.68 
L 110.16 103.68 
z
" style="fill: #ffffff"/>
   </g>
   <g id="patch_3">
    <path d="M 176.688 768.96 
C 194.331432 768.96 211.25461 761.95019 223.7304 749.4744 
C 236.20619 736.99861 243.216 720.075432 243.216 702.432 
C 243.216 684.788568 236.20619 667.86539 223.7304 655.3896 
C 211.25461 642.91381 194.331432 635.904 176.688 635.904 
C 159.044568 635.904 142.12139 642.91381 129.6456 655.3896 
C 117.16981 667.86539 110.16 684.788568 110.16 702.432 
C 110.16 720.075432 117.16981 736.99861 129.6456 749.4744 
C 142.12139 761.95019 159.044568 768.96 176.688 768.96 
z
" clip-path="url(#pa1a49b7fad)" style="fill: #ff0029"/>
   </g>
   <g id="patch_4">
    <path d="M 176.688 635.904 
C 194.331432 635.904 211.25461 628.89419 223.7304 616.4184 
C 236.20619 603.94261 243.216 587.019432 243.216 569.376 
C 243.216 551.732568 236.20619 534.80939 223.7304 522.3336 
C 211.25461 509.85781 194.331432 502.848 176.688 502.848 
C 159.044568 502.848 142.12139 509.85781 129.6456 522.3336 
C 117.16981 534.80939 110.16 551.732568 110.16 569.376 
C 110.16 587.019432 117.16981 603.94261 129.6456 616.4184 
C 142.12139 628.89419 159.044568 635.904 176.688 635.904 
z
" clip-path="url(#pa1a49b7fad)" style="fill: #ff0029"/>
   </g>
   <g id="patch_5">
    <path d="M 309.744 768.96 
C 327.387432 768.96 344.31061 761.95019 356.7864 749.4744 
C 369.26219 736.99861 376.272 720.075432 376.272 702.432 
C 376.272 684.788568 369.26219 667.86539 356.7864 655.3896 
C 344.31061 642.91381 327.387432 635.904 309.744 635.904 
C 292.100568 635.904 275.17739 642.91381 262.7016 655.3896 
C 250.22581 667.86539 243.216 684.788568 243.216 702.432 
C 243.216 720.075432 250.22581 736.99861 262.7016 749.4744 
C 275.17739 761.95019 292.100568 768.96 309.744 768.96 
z
" clip-path="url(#pa1a49b7fad)" style="fill: #ff0029"/>
   </g>
   <g id="patch_6">
    <path d="M 143.424 508.5552 
C 152.245716 508.5552 160.707305 505.050295 166.9452 498.8124 
C 173.183095 492.574505 176.688 484.112916 176.688 475.2912 
C 176.688 466.469484 173.183095 458.007895 166.9452 451.77 
C 160.707305 445.532105 152.245716 442.0272 143.424 442.0272 
C 134.602284 442.0272 126.140695 445.532105 119.9028 451.77 
C 113.664905 458.007895 110.16 466.469484 110.16 475.2912 
C 110.16 484.112916 113.664905 492.574505 119.9028 498.8124 
C 126.140695 505.050295 134.602284 508.5552 143.424 508.5552 
z
" clip-path="url(#pa1a49b7fad)" style="fill: #cdff00"/>
   </g>
   <g id="patch_7">
    <path d="M 442.8 768.96 
C 460.443432 768.96 477.36661 761.95019 489.8424 749.4744 
C 502.31819 736.99861 509.328 720.075432 509.328 702.432 
C 509.328 684.788568 502.31819 667.86539 489.8424 655.3896 
C 477.36661 642.91381 460.443432 635.904 442.8 635.904 
C 425.156568 635.904 408.23339 642.91381 395.7576 655.3896 
C 383.28181 667.86539 376.272 684.788568 376.272 702.432 
C 376.272 720.075432 383.28181 736.99861 395.7576 749.4744 
C 408.23339 761.95019 425.156568 768.96 442.8 768.96 
z
" clip-path="url(#pa1a49b7fad)" style="fill: #ff0029"/>
   </g>
   <g id="patch_8">
    <path d="M 176.688 447.7344 
C 194.331432 447.7344 211.25461 440.72459 223.7304 428.2488 
C 236.20619 415.77301 243.216 398.849832 243.216 381.2064 
C 243.216 363.562968 236.20619 346.639791 223.7304 334.164 
C 211.25461 321.68821 194.331432 314.6784 176.688 314.6784 
C 159.044568 314.6784 142.12139 321.68821 129.6456 334.164 
C 117.16981 346.639791 110.16 363.562968 110.16 381.2064 
C 110.16 398.849832 117.16981 415.77301 129.6456 428.2488 
C 142.12139 440.72459 159.044568 447.7344 176.688 447.7344 
z
" clip-path="url(#pa1a49b7fad)" style="fill: #ff0029"/>
   </g>
   <g id="patch_9">
    <path d="M 376.272 661.315435 
C 385.093716 661.315435 393.555305 657.81053 399.7932 651.572635 
C 406.031095 645.33474 409.536 636.873151 409.536 628.051435 
C 409.536 619.229719 406.031095 610.76813 399.7932 604.530235 
C 393.555305 598.29234 385.093716 594.787435 376.272 594.787435 
C 367.450284 594.787435 358.988695 598.29234 352.7508 604.530235 
C 346.512905 610.76813 343.008 619.229719 343.008 628.051435 
C 343.008 636.873151 346.512905 645.33474 352.7508 651.572635 
C 358.988695 657.81053 367.450284 661.315435 376.272 661.315435 
z
" clip-path="url(#pa1a49b7fad)" style="fill: #cdff00"/>
   </g>
   <g id="patch_10">
    <path d="M 126.792 652.536 
C 131.202858 652.536 135.433652 650.783548 138.5526 647.6646 
C 141.671548 644.545652 143.424 640.314858 143.424 635.904 
C 143.424 631.493142 141.671548 627.262348 138.5526 624.1434 
C 135.433652 621.024452 131.202858 619.272 126.792 619.272 
C 122.381142 619.272 118.150348 621.024452 115.0314 624.1434 
C 111.912452 627.262348 110.16 631.493142 110.16 635.904 
C 110.16 640.314858 111.912452 644.545652 115.0314 647.6646 
C 118.150348 650.783548 122.381142 652.536 126.792 652.536 
z
" clip-path="url(#pa1a49b7fad)" style="fill: #00ff8c"/>
   </g>
   <g id="patch_11">
    <path d="M 575.856 768.96 
C 593.499432 768.96 610.42261 761.95019 622.8984 749.4744 
C 635.37419 736.99861 642.384 720.075432 642.384 702.432 
C 642.384 684.788568 635.37419 667.86539 622.8984 655.3896 
C 610.42261 642.91381 593.499432 635.904 575.856 635.904 
C 558.212568 635.904 541.28939 642.91381 528.8136 655.3896 
C 516.33781 667.86539 509.328 684.788568 509.328 702.432 
C 509.328 720.075432 516.33781 736.99861 528.8136 749.4744 
C 541.28939 761.95019 558.212568 768.96 575.856 768.96 
z
" clip-path="url(#pa1a49b7fad)" style="fill: #ff0029"/>
   </g>
   <g id="patch_12">
    <path d="M 176.688 314.6784 
C 194.331432 314.6784 211.25461 307.66859 223.7304 295.1928 
C 236.20619 282.71701 243.216 265.793832 243.216 248.1504 
C 243.216 230.506968 236.20619 213.583791 223.7304 201.108 
C 211.25461 188.63221 194.331432 181.6224 176.688 181.6224 
C 159.044568 181.6224 142.12139 188.63221 129.6456 201.108 
C 117.16981 213.583791 110.16 230.506968 110.16 248.1504 
C 110.16 265.793832 117.16981 282.71701 129.6456 295.1928 
C 142.12139 307.66859 159.044568 314.6784 176.688 314.6784 
z
" clip-path="url(#pa1a49b7fad)" style="fill: #ff0029"/>
   </g>
   <g id="patch_13">
    <path d="M 143.424 187.3296 
C 152.245716 187.3296 160.707305 183.824695 166.9452 177.5868 
C 173.183095 171.348905 176.688 162.887316 176.688 154.0656 
C 176.688 145.243884 173.183095 136.782296 166.9452 130.5444 
C 160.707305 124.306505 152.245716 120.8016 143.424 120.8016 
C 134.602284 120.8016 126.140695 124.306505 119.9028 130.5444 
C 113.664905 136.782296 110.16 145.243884 110.16 154.0656 
C 110.16 162.887316 113.664905 171.348905 119.9028 177.5868 
C 126.140695 183.824695 134.602284 187.3296 143.424 187.3296 
z
" clip-path="url(#pa1a49b7fad)" style="fill: #cdff00"/>
   </g>
   <g id="patch_14">
    <path d="M 509.328 653.730124 
C 526.971432 653.730124 543.89461 646.720314 556.3704 634.244524 
C 568.84619 621.768734 575.856 604.845556 575.856 587.202124 
C 575.856 569.558692 568.84619 552.635514 556.3704 540.159724 
C 543.89461 527.683934 526.971432 520.674124 509.328 520.674124 
C 491.684568 520.674124 474.76139 527.683934 462.2856 540.159724 
C 449.80981 552.635514 442.8 569.558692 442.8 587.202124 
C 442.8 604.845556 449.80981 621.768734 462.2856 634.244524 
C 474.76139 646.720314 491.684568 653.730124 509.328 653.730124 
z
" clip-path="url(#pa1a49b7fad)" style="fill: #ff0029"/>
   </g>
   <g id="patch_15">
    <path d="M 708.912 768.96 
C 726.555432 768.96 743.47861 761.95019 755.9544 749.4744 
C 768.43019 736.99861 775.44 720.075432 775.44 702.432 
C 775.44 684.788568 768.43019 667.86539 755.9544 655.3896 
C 743.47861 642.91381 726.555432 635.904 708.912 635.904 
C 691.268568 635.904 674.34539 642.91381 661.8696 655.3896 
C 649.39381 667.86539 642.384 684.788568 642.384 702.432 
C 642.384 720.075432 649.39381 736.99861 661.8696 749.4744 
C 674.34539 761.95019 691.268568 768.96 708.912 768.96 
z
" clip-path="url(#pa1a49b7fad)" style="fill: #ff0029"/>
   </g>
   <g id="patch_16">
    <path d="M 251.068565 347.9424 
C 259.890281 347.9424 268.35187 344.437495 274.589765 338.1996 
C 280.82766 331.961705 284.332565 323.500116 284.332565 314.6784 
C 284.332565 305.856684 280.82766 297.395095 274.589765 291.1572 
C 268.35187 284.919305 259.890281 281.4144 251.068565 281.4144 
C 242.246849 281.4144 233.78526 284.919305 227.547365 291.1572 
C 221.30947 297.395095 217.804565 305.856684 217.804565 314.6784 
C 217.804565 323.500116 221.30947 331.961705 227.547365 338.1996 
C 233.78526 344.437495 242.246849 347.9424 251.068565 347.9424 
z
" clip-path="url(#pa1a49b7fad)" style="fill: #cdff00"/>
   </g>
   <g id="patch_17">
    <path d="M 126.792 331.3104 
C 131.202858 331.3104 135.433652 329.557948 138.5526 326.439 
C 141.671548 323.320053 143.424 319.089258 143.424 314.6784 
C 143.424 310.267542 141.671548 306.036748 138.5526 302.9178 
C 135.433652 299.798853 131.202858 298.0464 126.792 298.0464 
C 122.381142 298.0464 118.150348 299.798853 115.0314 302.9178 
C 111.912452 306.036748 110.16 310.267542 110.16 314.6784 
C 110.16 319.089258 111.912452 323.320053 115.0314 326.439 
C 118.150348 329.557948 122.381142 331.3104 126.792 331.3104 
z
" clip-path="url(#pa1a49b7fad)" style="fill: #00ff8c"/>
   </g>
   <g id="patch_18">
    <path d="M 642.384 653.730124 
C 660.027432 653.730124 676.95061 646.720314 689.4264 634.244524 
C 701.90219 621.768734 708.912 604.845556 708.912 587.202124 
C 708.912 569.558692 701.90219 552.635514 689.4264 540.159724 
C 676.95061 527.683934 660.027432 520.674124 642.384 520.674124 
C 624.740568 520.674124 607.81739 527.683934 595.3416 540.159724 
C 582.86581 552.635514 575.856 569.558692 575.856 587.202124 
C 575.856 604.845556 582.86581 621.768734 595.3416 634.244524 
C 607.81739 646.720314 624.740568 653.730124 642.384 653.730124 
z
" clip-path="url(#pa1a49b7fad)" style="fill: #ff0029"/>
   </g>
   <g id="patch_19">
    <path d="M 116.8128 429.935202 
C 118.577143 429.935202 120.269461 429.234221 121.51704 427.986642 
C 122.764619 426.739063 123.4656 425.046745 123.4656 423.282402 
C 123.4656 421.518059 122.764619 419.825741 121.51704 418.578162 
C 120.269461 417.330583 118.577143 416.629602 116.8128 416.629602 
C 115.048457 416.629602 113.356139 417.330583 112.10856 418.578162 
C 110.860981 419.825741 110.16 421.518059 110.16 423.282402 
C 110.16 425.046745 110.860981 426.739063 112.10856 427.986642 
C 113.356139 429.234221 115.048457 429.935202 116.8128 429.935202 
z
" clip-path="url(#pa1a49b7fad)" style="fill: #0018ff"/>
   </g>
   <g id="patch_20">
    <path d="M 243.216 768.96 
C 247.626858 768.96 251.857652 767.207548 254.9766 764.0886 
C 258.095548 760.969652 259.848 756.738858 259.848 752.328 
C 259.848 747.917142 258.095548 743.686348 254.9766 740.5674 
C 251.857652 737.448452 247.626858 735.696 243.216 735.696 
C 238.805142 735.696 234.574348 737.448452 231.4554 740.5674 
C 228.336452 743.686348 226.584 747.917142 226.584 752.328 
C 226.584 756.738858 228.336452 760.969652 231.4554 764.0886 
C 234.574348 767.207548 238.805142 768.96 243.216 768.96 
z
" clip-path="url(#pa1a49b7fad)" style="fill: #00ff8c"/>
   </g>
   <g id="patch_21">
    <path d="M 226.584 652.536 
C 230.994858 652.536 235.225652 650.783548 238.3446 647.6646 
C 241.463548 644.545652 243.216 640.314858 243.216 635.904 
C 243.216 631.493142 241.463548 627.262348 238.3446 624.1434 
C 235.225652 621.024452 230.994858 619.272 226.584 619.272 
C 222.173142 619.272 217.942348 621.024452 214.8234 624.1434 
C 211.704452 627.262348 209.952 631.493142 209.952 635.904 
C 209.952 640.314858 211.704452 644.545652 214.8234 647.6646 
C 217.942348 650.783548 222.173142 652.536 226.584 652.536 
z
" clip-path="url(#pa1a49b7fad)" style="fill: #00ff8c"/>
   </g>
   <g id="patch_22">
    <path d="M 376.272 768.96 
C 380.682858 768.96 384.913652 767.207548 388.0326 764.0886 
C 391.151548 760.969652 392.904 756.738858 392.904 752.328 
C 392.904 747.917142 391.151548 743.686348 388.0326 740.5674 
C 384.913652 737.448452 380.682858 735.696 376.272 735.696 
C 371.861142 735.696 367.630348 737.448452 364.5114 740.5674 
C 361.392452 743.686348 359.64 747.917142 359.64 752.328 
C 359.64 756.738858 361.392452 760.969652 364.5114 764.0886 
C 367.630348 767.207548 371.861142 768.96 376.272 768.96 
z
" clip-path="url(#pa1a49b7fad)" style="fill: #00ff8c"/>
   </g>
   <g id="patch_23">
    <path d="M 509.328 678.59784 
C 511.092343 678.59784 512.784661 677.896859 514.03224 676.64928 
C 515.279819 675.401701 515.9808 673.709384 515.9808 671.94504 
C 515.9808 670.180697 515.279819 668.488379 514.03224 667.2408 
C 512.784661 665.993221 511.092343 665.29224 509.328 665.29224 
C 507.563657 665.29224 505.871339 665.993221 504.62376 667.2408 
C 503.376181 668.488379 502.6752 670.180697 502.6752 671.94504 
C 502.6752 673.709384 503.376181 675.401701 504.62376 676.64928 
C 505.871339 677.896859 507.563657 678.59784 509.328 678.59784 
z
" clip-path="url(#pa1a49b7fad)" style="fill: #0018ff"/>
   </g>
   <g id="patch_24">
    <path d="M 155.388648 318.0048 
C 156.270819 318.0048 157.116978 317.65431 157.740768 317.03052 
C 158.364557 316.406731 158.715048 315.560572 158.715048 314.6784 
C 158.715048 313.796229 158.364557 312.95007 157.740768 312.32628 
C 157.116978 311.702491 156.270819 311.352 155.388648 311.352 
C 154.506476 311.352 153.660317 311.702491 153.036528 312.32628 
C 152.412738 312.95007 152.062248 313.796229 152.062248 314.6784 
C 152.062248 315.560572 152.412738 316.406731 153.036528 317.03052 
C 153.660317 317.65431 154.506476 318.0048 155.388648 318.0048 
z
" clip-path="url(#pa1a49b7fad)" style="fill: #ff00bf"/>
   </g>
   <g id="patch_25">
    <path d="M 509.328 768.96 
C 513.738858 768.96 517.969652 767.207548 521.0886 764.0886 
C 524.207548 760.969652 525.96 756.738858 525.96 752.328 
C 525.96 747.917142 524.207548 743.686348 521.0886 740.5674 
C 517.969652 737.448452 513.738858 735.696 509.328 735.696 
C 504.917142 735.696 500.686348 737.448452 497.5674 740.5674 
C 494.448452 743.686348 492.696 747.917142 492.696 752.328 
C 492.696 756.738858 494.448452 760.969652 497.5674 764.0886 
C 500.686348 767.207548 504.917142 768.96 509.328 768.96 
z
" clip-path="url(#pa1a49b7fad)" style="fill: #00ff8c"/>
   </g>
   <g id="patch_26">
    <path d="M 642.384 768.96 
C 646.794858 768.96 651.025652 767.207548 654.1446 764.0886 
C 657.263548 760.969652 659.016 756.738858 659.016 752.328 
C 659.016 747.917142 657.263548 743.686348 654.1446 740.5674 
C 651.025652 737.448452 646.794858 735.696 642.384 735.696 
C 637.973142 735.696 633.742348 737.448452 630.6234 740.5674 
C 627.504452 743.686348 625.752 747.917142 625.752 752.328 
C 625.752 756.738858 627.504452 760.969652 630.6234 764.0886 
C 633.742348 767.207548 637.973142 768.96 642.384 768.96 
z
" clip-path="url(#pa1a49b7fad)" style="fill: #00ff8c"/>
   </g>
   <g id="patch_27">
    <path d="M 116.8128 443.240802 
C 118.577143 443.240802 120.269461 442.539821 121.51704 441.292242 
C 122.764619 440.044663 123.4656 438.352345 123.4656 436.588002 
C 123.4656 434.823659 122.764619 433.131341 121.51704 431.883762 
C 120.269461 430.636183 118.577143 429.935202 116.8128 429.935202 
C 115.048457 429.935202 113.356139 430.636183 112.10856 431.883762 
C 110.860981 433.131341 110.16 434.823659 110.16 436.588002 
C 110.16 438.352345 110.860981 440.044663 112.10856 441.292242 
C 113.356139 442.539821 115.048457 443.240802 116.8128 443.240802 
z
" clip-path="url(#pa1a49b7fad)" style="fill: #0018ff"/>
   </g>
   <g id="patch_28">
    <path d="M 116.8128 342.369201 
C 118.577143 342.369201 120.269461 341.66822 121.51704 340.420641 
C 122.764619 339.173062 123.4656 337.480744 123.4656 335.716401 
C 123.4656 333.952058 122.764619 332.25974 121.51704 331.012161 
C 120.269461 329.764582 118.577143 329.063601 116.8128 329.063601 
C 115.048457 329.063601 113.356139 329.764582 112.10856 331.012161 
C 110.860981 332.25974 110.16 333.952058 110.16 335.716401 
C 110.16 337.480744 110.860981 339.173062 112.10856 340.420641 
C 113.356139 341.66822 115.048457 342.369201 116.8128 342.369201 
z
" clip-path="url(#pa1a49b7fad)" style="fill: #0018ff"/>
   </g>
   <g id="patch_29">
    <path d="M 113.4864 348.451281 
C 114.368572 348.451281 115.21473 348.100791 115.83852 347.477001 
C 116.46231 346.853212 116.8128 346.007053 116.8128 345.124881 
C 116.8128 344.242709 116.46231 343.396551 115.83852 342.772761 
C 115.21473 342.148972 114.368572 341.798481 113.4864 341.798481 
C 112.604228 341.798481 111.75807 342.148972 111.13428 342.772761 
C 110.51049 343.396551 110.16 344.242709 110.16 345.124881 
C 110.16 346.007053 110.51049 346.853212 111.13428 347.477001 
C 111.75807 348.100791 112.604228 348.451281 113.4864 348.451281 
z
" clip-path="url(#pa1a49b7fad)" style="fill: #ff00bf"/>
   </g>
   <g id="patch_30">
    <path d="M 222.177999 768.96 
C 223.942342 768.96 225.63466 768.259019 226.882239 767.01144 
C 228.129818 765.763861 228.830799 764.071543 228.830799 762.3072 
C 228.830799 760.542857 228.129818 758.850539 226.882239 757.60296 
C 225.63466 756.355381 223.942342 755.6544 222.177999 755.6544 
C 220.413656 755.6544 218.721338 756.355381 217.473759 757.60296 
C 216.22618 758.850539 215.525199 760.542857 215.525199 762.3072 
C 215.525199 764.071543 216.22618 765.763861 217.473759 767.01144 
C 218.721338 768.259019 220.413656 768.96 222.177999 768.96 
z
" clip-path="url(#pa1a49b7fad)" style="fill: #0018ff"/>
   </g>
   <g id="patch_31">
    <path d="M 207.17496 321.3312 
C 208.939303 321.3312 210.631621 320.630219 211.8792 319.38264 
C 213.126779 318.135061 213.82776 316.442743 213.82776 314.6784 
C 213.82776 312.914057 213.126779 311.221739 211.8792 309.97416 
C 210.631621 308.726581 208.939303 308.0256 207.17496 308.0256 
C 205.410616 308.0256 203.718299 308.726581 202.47072 309.97416 
C 201.223141 311.221739 200.52216 312.914057 200.52216 314.6784 
C 200.52216 316.442743 201.223141 318.135061 202.47072 319.38264 
C 203.718299 320.630219 205.410616 321.3312 207.17496 321.3312 
z
" clip-path="url(#pa1a49b7fad)" style="fill: #0018ff"/>
   </g>
   <g id="patch_32">
    <path d="M 642.384 727.057752 
C 643.266172 727.057752 644.11233 726.707262 644.73612 726.083472 
C 645.35991 725.459683 645.7104 724.613524 645.7104 723.731352 
C 645.7104 722.849181 645.35991 722.003022 644.73612 721.379232 
C 644.11233 720.755443 643.266172 720.404952 642.384 720.404952 
C 641.501828 720.404952 640.65567 720.755443 640.03188 721.379232 
C 639.40809 722.003022 639.0576 722.849181 639.0576 723.731352 
C 639.0576 724.613524 639.40809 725.459683 640.03188 726.083472 
C 640.65567 726.707262 641.501828 727.057752 642.384 727.057752 
z
" clip-path="url(#pa1a49b7fad)" style="fill: #ff00bf"/>
   </g>
   <g id="patch_33">
    <path d="M 617.932002 768.96 
C 619.696345 768.96 621.388663 768.259019 622.636242 767.01144 
C 623.883821 765.763861 624.584802 764.071543 624.584802 762.3072 
C 624.584802 760.542857 623.883821 758.850539 622.636242 757.60296 
C 621.388663 756.355381 619.696345 755.6544 617.932002 755.6544 
C 616.167658 755.6544 614.475341 756.355381 613.227762 757.60296 
C 611.980183 758.850539 611.279202 760.542857 611.279202 762.3072 
C 611.279202 764.071543 611.980183 765.763861 613.227762 767.01144 
C 614.475341 768.259019 616.167658 768.96 617.932002 768.96 
z
" clip-path="url(#pa1a49b7fad)" style="fill: #0018ff"/>
   </g>
   <g id="patch_34">
    <path d="M 533.779998 768.96 
C 535.544342 768.96 537.236659 768.259019 538.484238 767.01144 
C 539.731817 765.763861 540.432798 764.071543 540.432798 762.3072 
C 540.432798 760.542857 539.731817 758.850539 538.484238 757.60296 
C 537.236659 756.355381 535.544342 755.6544 533.779998 755.6544 
C 532.015655 755.6544 530.323337 756.355381 529.075758 757.60296 
C 527.828179 758.850539 527.127198 760.542857 527.127198 762.3072 
C 527.127198 764.071543 527.828179 765.763861 529.075758 767.01144 
C 530.323337 768.259019 532.015655 768.96 533.779998 768.96 
z
" clip-path="url(#pa1a49b7fad)" style="fill: #0018ff"/>
   </g>
   <g id="patch_35">
    <path d="M 605.608226 768.96 
C 606.490398 768.96 607.336557 768.60951 607.960346 767.98572 
C 608.584136 767.36193 608.934626 766.515772 608.934626 765.6336 
C 608.934626 764.751428 608.584136 763.90527 607.960346 763.28148 
C 607.336557 762.65769 606.490398 762.3072 605.608226 762.3072 
C 604.726054 762.3072 603.879896 762.65769 603.256106 763.28148 
C 602.632317 763.90527 602.281826 764.751428 602.281826 765.6336 
C 602.281826 766.515772 602.632317 767.36193 603.256106 767.98572 
C 603.879896 768.60951 604.726054 768.96 605.608226 768.96 
z
" clip-path="url(#pa1a49b7fad)" style="fill: #ff00bf"/>
   </g>
   <g id="patch_36">
    <path d="M 116.8128 663.594801 
C 118.577143 663.594801 120.269461 662.89382 121.51704 661.646241 
C 122.764619 660.398662 123.4656 658.706344 123.4656 656.942001 
C 123.4656 655.177658 122.764619 653.48534 121.51704 652.237761 
C 120.269461 650.990182 118.577143 650.289201 116.8128 650.289201 
C 115.048457 650.289201 113.356139 650.990182 112.10856 652.237761 
C 110.860981 653.48534 110.16 655.177658 110.16 656.942001 
C 110.16 658.706344 110.860981 660.398662 112.10856 661.646241 
C 113.356139 662.89382 115.048457 663.594801 116.8128 663.594801 
z
" clip-path="url(#pa1a49b7fad)" style="fill: #0018ff"/>
   </g>
   <g id="patch_37">
    <path d="M 116.8128 212.727199 
C 118.577143 212.727199 120.269461 212.026218 121.51704 210.778639 
C 122.764619 209.53106 123.4656 207.838742 123.4656 206.074399 
C 123.4656 204.310055 122.764619 202.617738 121.51704 201.370159 
C 120.269461 200.12258 118.577143 199.421599 116.8128 199.421599 
C 115.048457 199.421599 113.356139 200.12258 112.10856 201.370159 
C 110.860981 202.617738 110.16 204.310055 110.16 206.074399 
C 110.16 207.838742 110.860981 209.53106 112.10856 210.778639 
C 113.356139 212.026218 115.048457 212.727199 116.8128 212.727199 
z
" clip-path="url(#pa1a49b7fad)" style="fill: #0018ff"/>
   </g>
   <g id="patch_38">
    <path d="M 376.272 727.057752 
C 377.154172 727.057752 378.00033 726.707262 378.62412 726.083472 
C 379.24791 725.459683 379.5984 724.613524 379.5984 723.731352 
C 379.5984 722.849181 379.24791 722.003022 378.62412 721.379232 
C 378.00033 720.755443 377.154172 720.404952 376.272 720.404952 
C 375.389828 720.404952 374.54367 720.755443 373.91988 721.379232 
C 373.29609 722.003022 372.9456 722.849181 372.9456 723.731352 
C 372.9456 724.613524 373.29609 725.459683 373.91988 726.083472 
C 374.54367 726.707262 375.389828 727.057752 376.272 727.057752 
z
" clip-path="url(#pa1a49b7fad)" style="fill: #ff00bf"/>
   </g>
   <g id="patch_39">
    <path d="M 116.8128 296.879202 
C 118.577143 296.879202 120.269461 296.178221 121.51704 294.930642 
C 122.764619 293.683063 123.4656 291.990745 123.4656 290.226402 
C 123.4656 288.462059 122.764619 286.769741 121.51704 285.522162 
C 120.269461 284.274583 118.577143 283.573602 116.8128 283.573602 
C 115.048457 283.573602 113.356139 284.274583 112.10856 285.522162 
C 110.860981 286.769741 110.16 288.462059 110.16 290.226402 
C 110.16 291.990745 110.860981 293.683063 112.10856 294.930642 
C 113.356139 296.178221 115.048457 296.879202 116.8128 296.879202 
z
" clip-path="url(#pa1a49b7fad)" style="fill: #0018ff"/>
   </g>
   <g id="patch_40">
    <path d="M 116.8128 621.518799 
C 118.577143 621.518799 120.269461 620.817818 121.51704 619.570239 
C 122.764619 618.32266 123.4656 616.630342 123.4656 614.865999 
C 123.4656 613.101656 122.764619 611.409338 121.51704 610.161759 
C 120.269461 608.91418 118.577143 608.213199 116.8128 608.213199 
C 115.048457 608.213199 113.356139 608.91418 112.10856 610.161759 
C 110.860981 611.409338 110.16 613.101656 110.16 614.865999 
C 110.16 616.630342 110.860981 618.32266 112.10856 619.570239 
C 113.356139 620.817818 115.048457 621.518799 116.8128 621.518799 
z
" clip-path="url(#pa1a49b7fad)" style="fill: #0018ff"/>
   </g>
   <g id="patch_41">
    <path d="M 113.4864 608.783919 
C 114.368572 608.783919 115.21473 608.433429 115.83852 607.809639 
C 116.46231 607.18585 116.8128 606.339691 116.8128 605.457519 
C 116.8128 604.575348 116.46231 603.729189 115.83852 603.105399 
C 115.21473 602.48161 114.368572 602.131119 113.4864 602.131119 
C 112.604228 602.131119 111.75807 602.48161 111.13428 603.105399 
C 110.51049 603.729189 110.16 604.575348 110.16 605.457519 
C 110.16 606.339691 110.51049 607.18585 111.13428 607.809639 
C 111.75807 608.433429 112.604228 608.783919 113.4864 608.783919 
z
" clip-path="url(#pa1a49b7fad)" style="fill: #ff00bf"/>
   </g>
   <g id="patch_42">
    <path d="M 116.8128 130.966174 
C 118.577143 130.966174 120.269461 130.265193 121.51704 129.017614 
C 122.764619 127.770035 123.4656 126.077717 123.4656 124.313374 
C 123.4656 122.549031 122.764619 120.856713 121.51704 119.609134 
C 120.269461 118.361555 118.577143 117.660574 116.8128 117.660574 
C 115.048457 117.660574 113.356139 118.361555 112.10856 119.609134 
C 110.860981 120.856713 110.16 122.549031 110.16 124.313374 
C 110.16 126.077717 110.860981 127.770035 112.10856 129.017614 
C 113.356139 130.265193 115.048457 130.966174 116.8128 130.966174 
z
" clip-path="url(#pa1a49b7fad)" style="fill: #0018ff"/>
   </g>
   <g id="patch_43">
    <path d="M 116.8128 190.470626 
C 118.577143 190.470626 120.269461 189.769645 121.51704 188.522066 
C 122.764619 187.274487 123.4656 185.58217 123.4656 183.817826 
C 123.4656 182.053483 122.764619 180.361165 121.51704 179.113586 
C 120.269461 177.866007 118.577143 177.165026 116.8128 177.165026 
C 115.048457 177.165026 113.356139 177.866007 112.10856 179.113586 
C 110.860981 180.361165 110.16 182.053483 110.16 183.817826 
C 110.16 185.58217 110.860981 187.274487 112.10856 188.522066 
C 113.356139 189.769645 115.048457 190.470626 116.8128 190.470626 
z
" clip-path="url(#pa1a49b7fad)" style="fill: #0018ff"/>
   </g>
   <g id="patch_44">
    <path d="M 627.340482 768.96 
C 628.222653 768.96 629.068812 768.60951 629.692602 767.98572 
C 630.316391 767.36193 630.666882 766.515772 630.666882 765.6336 
C 630.666882 764.751428 630.316391 763.90527 629.692602 763.28148 
C 629.068812 762.65769 628.222653 762.3072 627.340482 762.3072 
C 626.45831 762.3072 625.612151 762.65769 624.988362 763.28148 
C 624.364572 763.90527 624.014082 764.751428 624.014082 765.6336 
C 624.014082 766.515772 624.364572 767.36193 624.988362 767.98572 
C 625.612151 768.60951 626.45831 768.96 627.340482 768.96 
z
" clip-path="url(#pa1a49b7fad)" style="fill: #ff00bf"/>
   </g>
   <g id="patch_45">
    <path d="M 484.876002 768.96 
C 486.640345 768.96 488.332663 768.259019 489.580242 767.01144 
C 490.827821 765.763861 491.528802 764.071543 491.528802 762.3072 
C 491.528802 760.542857 490.827821 758.850539 489.580242 757.60296 
C 488.332663 756.355381 486.640345 755.6544 484.876002 755.6544 
C 483.111658 755.6544 481.419341 756.355381 480.171762 757.60296 
C 478.924183 758.850539 478.223202 760.542857 478.223202 762.3072 
C 478.223202 764.071543 478.924183 765.763861 480.171762 767.01144 
C 481.419341 768.259019 483.111658 768.96 484.876002 768.96 
z
" clip-path="url(#pa1a49b7fad)" style="fill: #0018ff"/>
   </g>
   <g id="patch_46">
    <path d="M 400.723998 768.96 
C 402.488342 768.96 404.180659 768.259019 405.428238 767.01144 
C 406.675817 765.763861 407.376798 764.071543 407.376798 762.3072 
C 407.376798 760.542857 406.675817 758.850539 405.428238 757.60296 
C 404.180659 756.355381 402.488342 755.6544 400.723998 755.6544 
C 398.959655 755.6544 397.267337 756.355381 396.019758 757.60296 
C 394.772179 758.850539 394.071198 760.542857 394.071198 762.3072 
C 394.071198 764.071543 394.772179 765.763861 396.019758 767.01144 
C 397.267337 768.259019 398.959655 768.96 400.723998 768.96 
z
" clip-path="url(#pa1a49b7fad)" style="fill: #0018ff"/>
   </g>
   <g id="patch_47">
    <path d="M 113.4864 669.676881 
C 114.368572 669.676881 115.21473 669.32639 115.83852 668.702601 
C 116.46231 668.078811 116.8128 667.232652 116.8128 666.350481 
C 116.8128 665.468309 116.46231 664.62215 115.83852 663.998361 
C 115.21473 663.374571 114.368572 663.024081 113.4864 663.024081 
C 112.604228 663.024081 111.75807 663.374571 111.13428 663.998361 
C 110.51049 664.62215 110.16 665.468309 110.16 666.350481 
C 110.16 667.232652 110.51049 668.078811 111.13428 668.702601 
C 111.75807 669.32639 112.604228 669.676881 113.4864 669.676881 
z
" clip-path="url(#pa1a49b7fad)" style="fill: #ff00bf"/>
   </g>
   <g id="patch_48">
    <path d="M 116.8128 751.160802 
C 118.577143 751.160802 120.269461 750.459821 121.51704 749.212242 
C 122.764619 747.964663 123.4656 746.272345 123.4656 744.508002 
C 123.4656 742.743658 122.764619 741.051341 121.51704 739.803762 
C 120.269461 738.556183 118.577143 737.855202 116.8128 737.855202 
C 115.048457 737.855202 113.356139 738.556183 112.10856 739.803762 
C 110.860981 741.051341 110.16 742.743658 110.16 744.508002 
C 110.16 746.272345 110.860981 747.964663 112.10856 749.212242 
C 113.356139 750.459821 115.048457 751.160802 116.8128 751.160802 
z
" clip-path="url(#pa1a49b7fad)" style="fill: #0018ff"/>
   </g>
   <g id="patch_49">
    <path d="M 134.611998 768.96 
C 136.376342 768.96 138.068659 768.259019 139.316238 767.01144 
C 140.563817 765.763861 141.264798 764.071543 141.264798 762.3072 
C 141.264798 760.542857 140.563817 758.850539 139.316238 757.60296 
C 138.068659 756.355381 136.376342 755.6544 134.611998 755.6544 
C 132.847655 755.6544 131.155337 756.355381 129.907758 757.60296 
C 128.660179 758.850539 127.959198 760.542857 127.959198 762.3072 
C 127.959198 764.071543 128.660179 765.763861 129.907758 767.01144 
C 131.155337 768.259019 132.847655 768.96 134.611998 768.96 
z
" clip-path="url(#pa1a49b7fad)" style="fill: #0018ff"/>
   </g>
   <g id="patch_50">
    <path d="M 113.4864 199.992319 
C 114.368572 199.992319 115.21473 199.641828 115.83852 199.018039 
C 116.46231 198.394249 116.8128 197.54809 116.8128 196.665919 
C 116.8128 195.783747 116.46231 194.937588 115.83852 194.313799 
C 115.21473 193.690009 114.368572 193.339519 113.4864 193.339519 
C 112.604228 193.339519 111.75807 193.690009 111.13428 194.313799 
C 110.51049 194.937588 110.16 195.783747 110.16 196.665919 
C 110.16 197.54809 110.51049 198.394249 111.13428 199.018039 
C 111.75807 199.641828 112.604228 199.992319 113.4864 199.992319 
z
" clip-path="url(#pa1a49b7fad)" style="fill: #ff00bf"/>
   </g>
   <g id="patch_51">
    <path d="M 116.8128 533.952798 
C 118.577143 533.952798 120.269461 533.251817 121.51704 532.004238 
C 122.764619 530.756659 123.4656 529.064342 123.4656 527.299998 
C 123.4656 525.535655 122.764619 523.843337 121.51704 522.595758 
C 120.269461 521.348179 118.577143 520.647198 116.8128 520.647198 
C 115.048457 520.647198 113.356139 521.348179 112.10856 522.595758 
C 110.860981 523.843337 110.16 525.535655 110.16 527.299998 
C 110.16 529.064342 110.860981 530.756659 112.10856 532.004238 
C 113.356139 533.251817 115.048457 533.952798 116.8128 533.952798 
z
" clip-path="url(#pa1a49b7fad)" style="fill: #0018ff"/>
   </g>
   <g id="patch_52">
    <path d="M 243.216 678.59784 
C 244.980343 678.59784 246.672661 677.896859 247.92024 676.64928 
C 249.167819 675.401701 249.8688 673.709384 249.8688 671.94504 
C 249.8688 670.180697 249.167819 668.488379 247.92024 667.2408 
C 246.672661 665.993221 244.980343 665.29224 243.216 665.29224 
C 241.451657 665.29224 239.759339 665.993221 238.51176 667.2408 
C 237.264181 668.488379 236.5632 670.180697 236.5632 671.94504 
C 236.5632 673.709384 237.264181 675.401701 238.51176 676.64928 
C 239.759339 677.896859 241.451657 678.59784 243.216 678.59784 
z
" clip-path="url(#pa1a49b7fad)" style="fill: #0018ff"/>
   </g>
   <g id="patch_53">
    <path d="M 113.4864 218.809279 
C 114.368572 218.809279 115.21473 218.458788 115.83852 217.834999 
C 116.46231 217.211209 116.8128 216.36505 116.8128 215.482879 
C 116.8128 214.600707 116.46231 213.754548 115.83852 213.130759 
C 115.21473 212.506969 114.368572 212.156479 113.4864 212.156479 
C 112.604228 212.156479 111.75807 212.506969 111.13428 213.130759 
C 110.51049 213.754548 110.16 214.600707 110.16 215.482879 
C 110.16 216.36505 110.51049 217.211209 111.13428 217.834999 
C 111.75807 218.458788 112.604228 218.809279 113.4864 218.809279 
z
" clip-path="url(#pa1a49b7fad)" style="fill: #ff00bf"/>
   </g>
   <g id="patch_54">
    <path d="M 267.667998 768.96 
C 269.432342 768.96 271.124659 768.259019 272.372238 767.01144 
C 273.619817 765.763861 274.320798 764.071543 274.320798 762.3072 
C 274.320798 760.542857 273.619817 758.850539 272.372238 757.60296 
C 271.124659 756.355381 269.432342 755.6544 267.667998 755.6544 
C 265.903655 755.6544 264.211337 756.355381 262.963758 757.60296 
C 261.716179 758.850539 261.015198 760.542857 261.015198 762.3072 
C 261.015198 764.071543 261.716179 765.763861 262.963758 767.01144 
C 264.211337 768.259019 265.903655 768.96 267.667998 768.96 
z
" clip-path="url(#pa1a49b7fad)" style="fill: #0018ff"/>
   </g>
   <g id="patch_55">
    <path d="M 351.820002 768.96 
C 353.584345 768.96 355.276663 768.259019 356.524242 767.01144 
C 357.771821 765.763861 358.472802 764.071543 358.472802 762.3072 
C 358.472802 760.542857 357.771821 758.850539 356.524242 757.60296 
C 355.276663 756.355381 353.584345 755.6544 351.820002 755.6544 
C 350.055658 755.6544 348.363341 756.355381 347.115762 757.60296 
C 345.868183 758.850539 345.167202 760.542857 345.167202 762.3072 
C 345.167202 764.071543 345.868183 765.763861 347.115762 767.01144 
C 348.363341 768.259019 350.055658 768.96 351.820002 768.96 
z
" clip-path="url(#pa1a49b7fad)" style="fill: #0018ff"/>
   </g>
   <g id="patch_56">
    <path d="M 475.467522 768.96 
C 476.349693 768.96 477.195852 768.60951 477.819642 767.98572 
C 478.443431 767.36193 478.793922 766.515772 478.793922 765.6336 
C 478.793922 764.751428 478.443431 763.90527 477.819642 763.28148 
C 477.195852 762.65769 476.349693 762.3072 475.467522 762.3072 
C 474.58535 762.3072 473.739191 762.65769 473.115402 763.28148 
C 472.491612 763.90527 472.141122 764.751428 472.141122 765.6336 
C 472.141122 766.515772 472.491612 767.36193 473.115402 767.98572 
C 473.739191 768.60951 474.58535 768.96 475.467522 768.96 
z
" clip-path="url(#pa1a49b7fad)" style="fill: #ff00bf"/>
   </g>
   <g id="patch_57">
    <path d="M 116.8128 511.696226 
C 118.577143 511.696226 120.269461 510.995245 121.51704 509.747666 
C 122.764619 508.500087 123.4656 506.807769 123.4656 505.043426 
C 123.4656 503.279083 122.764619 501.586765 121.51704 500.339186 
C 120.269461 499.091607 118.577143 498.390626 116.8128 498.390626 
C 115.048457 498.390626 113.356139 499.091607 112.10856 500.339186 
C 110.860981 501.586765 110.16 503.279083 110.16 505.043426 
C 110.16 506.807769 110.860981 508.500087 112.10856 509.747666 
C 113.356139 510.995245 115.048457 511.696226 116.8128 511.696226 
z
" clip-path="url(#pa1a49b7fad)" style="fill: #0018ff"/>
   </g>
   <g id="patch_58">
    <path d="M 376.272 678.59784 
C 378.036343 678.59784 379.728661 677.896859 380.97624 676.64928 
C 382.223819 675.401701 382.9248 673.709384 382.9248 671.94504 
C 382.9248 670.180697 382.223819 668.488379 380.97624 667.2408 
C 379.728661 665.993221 378.036343 665.29224 376.272 665.29224 
C 374.507657 665.29224 372.815339 665.993221 371.56776 667.2408 
C 370.320181 668.488379 369.6192 670.180697 369.6192 671.94504 
C 369.6192 673.709384 370.320181 675.401701 371.56776 676.64928 
C 372.815339 677.896859 374.507657 678.59784 376.272 678.59784 
z
" clip-path="url(#pa1a49b7fad)" style="fill: #0018ff"/>
   </g>
   <g id="patch_59">
    <path d="M 391.315518 768.96 
C 392.19769 768.96 393.043849 768.60951 393.667638 767.98572 
C 394.291428 767.36193 394.641918 766.515772 394.641918 765.6336 
C 394.641918 764.751428 394.291428 763.90527 393.667638 763.28148 
C 393.043849 762.65769 392.19769 762.3072 391.315518 762.3072 
C 390.433347 762.3072 389.587188 762.65769 388.963398 763.28148 
C 388.339609 763.90527 387.989118 764.751428 387.989118 765.6336 
C 387.989118 766.515772 388.339609 767.36193 388.963398 767.98572 
C 389.587188 768.60951 390.433347 768.96 391.315518 768.96 
z
" clip-path="url(#pa1a49b7fad)" style="fill: #ff00bf"/>
   </g>
   <g id="patch_60">
    <path d="M 642.384 678.59784 
C 644.148343 678.59784 645.840661 677.896859 647.08824 676.64928 
C 648.335819 675.401701 649.0368 673.709384 649.0368 671.94504 
C 649.0368 670.180697 648.335819 668.488379 647.08824 667.2408 
C 645.840661 665.993221 644.148343 665.29224 642.384 665.29224 
C 640.619657 665.29224 638.927339 665.993221 637.67976 667.2408 
C 636.432181 668.488379 635.7312 670.180697 635.7312 671.94504 
C 635.7312 673.709384 636.432181 675.401701 637.67976 676.64928 
C 638.927339 677.896859 640.619657 678.59784 642.384 678.59784 
z
" clip-path="url(#pa1a49b7fad)" style="fill: #0018ff"/>
   </g>
   <g id="patch_61">
    <path d="M 666.835998 768.96 
C 668.600342 768.96 670.292659 768.259019 671.540238 767.01144 
C 672.787817 765.763861 673.488798 764.071543 673.488798 762.3072 
C 673.488798 760.542857 672.787817 758.850539 671.540238 757.60296 
C 670.292659 756.355381 668.600342 755.6544 666.835998 755.6544 
C 665.071655 755.6544 663.379337 756.355381 662.131758 757.60296 
C 660.884179 758.850539 660.183198 760.542857 660.183198 762.3072 
C 660.183198 764.071543 660.884179 765.763861 662.131758 767.01144 
C 663.379337 768.259019 665.071655 768.96 666.835998 768.96 
z
" clip-path="url(#pa1a49b7fad)" style="fill: #0018ff"/>
   </g>
   <g id="patch_62">
    <path d="M 113.4864 738.425922 
C 114.368572 738.425922 115.21473 738.075431 115.83852 737.451642 
C 116.46231 736.827852 116.8128 735.981693 116.8128 735.099522 
C 116.8128 734.21735 116.46231 733.371191 115.83852 732.747402 
C 115.21473 732.123612 114.368572 731.773122 113.4864 731.773122 
C 112.604228 731.773122 111.75807 732.123612 111.13428 732.747402 
C 110.51049 733.371191 110.16 734.21735 110.16 735.099522 
C 110.16 735.981693 110.51049 736.827852 111.13428 737.451642 
C 111.75807 738.075431 112.604228 738.425922 113.4864 738.425922 
z
" clip-path="url(#pa1a49b7fad)" style="fill: #ff00bf"/>
   </g>
   <g id="patch_63">
    <path d="M 750.988002 768.96 
C 752.752345 768.96 754.444663 768.259019 755.692242 767.01144 
C 756.939821 765.763861 757.640802 764.071543 757.640802 762.3072 
C 757.640802 760.542857 756.939821 758.850539 755.692242 757.60296 
C 754.444663 756.355381 752.752345 755.6544 750.988002 755.6544 
C 749.223658 755.6544 747.531341 756.355381 746.283762 757.60296 
C 745.036183 758.850539 744.335202 760.542857 744.335202 762.3072 
C 744.335202 764.071543 745.036183 765.763861 746.283762 767.01144 
C 747.531341 768.259019 749.223658 768.96 750.988002 768.96 
z
" clip-path="url(#pa1a49b7fad)" style="fill: #0018ff"/>
   </g>
   <g id="patch_64">
    <path d="M 116.8128 117.660574 
C 118.577143 117.660574 120.269461 116.959593 121.51704 115.712014 
C 122.764619 114.464435 123.4656 112.772117 123.4656 111.007774 
C 123.4656 109.243431 122.764619 107.551113 121.51704 106.303534 
C 120.269461 105.055955 118.577143 104.354974 116.8128 104.354974 
C 115.048457 104.354974 113.356139 105.055955 112.10856 106.303534 
C 110.860981 107.551113 110.16 109.243431 110.16 111.007774 
C 110.16 112.772117 110.860981 114.464435 112.10856 115.712014 
C 113.356139 116.959593 115.048457 117.660574 116.8128 117.660574 
z
" clip-path="url(#pa1a49b7fad)" style="fill: #0018ff"/>
   </g>
   <g id="patch_65">
    <path d="M 113.4864 521.217918 
C 114.368572 521.217918 115.21473 520.867428 115.83852 520.243638 
C 116.46231 519.619849 116.8128 518.77369 116.8128 517.891518 
C 116.8128 517.009347 116.46231 516.163188 115.83852 515.539398 
C 115.21473 514.915609 114.368572 514.565118 113.4864 514.565118 
C 112.604228 514.565118 111.75807 514.915609 111.13428 515.539398 
C 110.51049 516.163188 110.16 517.009347 110.16 517.891518 
C 110.16 518.77369 110.51049 519.619849 111.13428 520.243638 
C 111.75807 520.867428 112.604228 521.217918 113.4864 521.217918 
z
" clip-path="url(#pa1a49b7fad)" style="fill: #ff00bf"/>
   </g>
   <g id="patch_66">
    <path d="M 116.8128 764.466402 
C 118.577143 764.466402 120.269461 763.765421 121.51704 762.517842 
C 122.764619 761.270263 123.4656 759.577945 123.4656 757.813602 
C 123.4656 756.049258 122.764619 754.356941 121.51704 753.109362 
C 120.269461 751.861783 118.577143 751.160802 116.8128 751.160802 
C 115.048457 751.160802 113.356139 751.861783 112.10856 753.109362 
C 110.860981 754.356941 110.16 756.049258 110.16 757.813602 
C 110.16 759.577945 110.860981 761.270263 112.10856 762.517842 
C 113.356139 763.765421 115.048457 764.466402 116.8128 764.466402 
z
" clip-path="url(#pa1a49b7fad)" style="fill: #0018ff"/>
   </g>
   <g id="patch_67">
    <path d="M 764.293602 768.96 
C 766.057945 768.96 767.750263 768.259019 768.997842 767.01144 
C 770.245421 765.763861 770.946402 764.071543 770.946402 762.3072 
C 770.946402 760.542857 770.245421 758.850539 768.997842 757.60296 
C 767.750263 756.355381 766.057945 755.6544 764.293602 755.6544 
C 762.529258 755.6544 760.836941 756.355381 759.589362 757.60296 
C 758.341783 758.850539 757.640802 760.542857 757.640802 762.3072 
C 757.640802 764.071543 758.341783 765.763861 759.589362 767.01144 
C 760.836941 768.259019 762.529258 768.96 764.293602 768.96 
z
" clip-path="url(#pa1a49b7fad)" style="fill: #0018ff"/>
   </g>
   <g id="patch_68">
    <path d="M 113.4864 540.034878 
C 114.368572 540.034878 115.21473 539.684388 115.83852 539.060598 
C 116.46231 538.436809 116.8128 537.59065 116.8128 536.708478 
C 116.8128 535.826307 116.46231 534.980148 115.83852 534.356358 
C 115.21473 533.732569 114.368572 533.382078 113.4864 533.382078 
C 112.604228 533.382078 111.75807 533.732569 111.13428 534.356358 
C 110.51049 534.980148 110.16 535.826307 110.16 536.708478 
C 110.16 537.59065 110.51049 538.436809 111.13428 539.060598 
C 111.75807 539.684388 112.604228 540.034878 113.4864 540.034878 
z
" clip-path="url(#pa1a49b7fad)" style="fill: #ff00bf"/>
   </g>
   <g id="patch_69">
    <path d="M 144.020478 768.96 
C 144.90265 768.96 145.748809 768.60951 146.372598 767.98572 
C 146.996388 767.36193 147.346878 766.515772 147.346878 765.6336 
C 147.346878 764.751428 146.996388 763.90527 146.372598 763.28148 
C 145.748809 762.65769 144.90265 762.3072 144.020478 762.3072 
C 143.138307 762.3072 142.292148 762.65769 141.668358 763.28148 
C 141.044569 763.90527 140.694078 764.751428 140.694078 765.6336 
C 140.694078 766.515772 141.044569 767.36193 141.668358 767.98572 
C 142.292148 768.60951 143.138307 768.96 144.020478 768.96 
z
" clip-path="url(#pa1a49b7fad)" style="fill: #ff00bf"/>
   </g>
   <g id="patch_70">
    <path d="M 258.259518 768.96 
C 259.14169 768.96 259.987849 768.60951 260.611638 767.98572 
C 261.235428 767.36193 261.585918 766.515772 261.585918 765.6336 
C 261.585918 764.751428 261.235428 763.90527 260.611638 763.28148 
C 259.987849 762.65769 259.14169 762.3072 258.259518 762.3072 
C 257.377347 762.3072 256.531188 762.65769 255.907398 763.28148 
C 255.283609 763.90527 254.933118 764.751428 254.933118 765.6336 
C 254.933118 766.515772 255.283609 767.36193 255.907398 767.98572 
C 256.531188 768.60951 257.377347 768.96 258.259518 768.96 
z
" clip-path="url(#pa1a49b7fad)" style="fill: #ff00bf"/>
   </g>
   <g id="patch_71">
    <path d="M 125.203518 768.96 
C 126.08569 768.96 126.931849 768.60951 127.555638 767.98572 
C 128.179428 767.36193 128.529918 766.515772 128.529918 765.6336 
C 128.529918 764.751428 128.179428 763.90527 127.555638 763.28148 
C 126.931849 762.65769 126.08569 762.3072 125.203518 762.3072 
C 124.321347 762.3072 123.475188 762.65769 122.851398 763.28148 
C 122.227609 763.90527 121.877118 764.751428 121.877118 765.6336 
C 121.877118 766.515772 122.227609 767.36193 122.851398 767.98572 
C 123.475188 768.60951 124.321347 768.96 125.203518 768.96 
z
" clip-path="url(#pa1a49b7fad)" style="fill: #ff00bf"/>
   </g>
   <g id="patch_72">
    <path d="M 277.076478 768.96 
C 277.95865 768.96 278.804809 768.60951 279.428598 767.98572 
C 280.052388 767.36193 280.402878 766.515772 280.402878 765.6336 
C 280.402878 764.751428 280.052388 763.90527 279.428598 763.28148 
C 278.804809 762.65769 277.95865 762.3072 277.076478 762.3072 
C 276.194307 762.3072 275.348148 762.65769 274.724358 763.28148 
C 274.100569 763.90527 273.750078 764.751428 273.750078 765.6336 
C 273.750078 766.515772 274.100569 767.36193 274.724358 767.98572 
C 275.348148 768.60951 276.194307 768.96 277.076478 768.96 
z
" clip-path="url(#pa1a49b7fad)" style="fill: #ff00bf"/>
   </g>
   <g id="patch_73">
    <path d="M 410.132478 768.96 
C 411.01465 768.96 411.860809 768.60951 412.484598 767.98572 
C 413.108388 767.36193 413.458878 766.515772 413.458878 765.6336 
C 413.458878 764.751428 413.108388 763.90527 412.484598 763.28148 
C 411.860809 762.65769 411.01465 762.3072 410.132478 762.3072 
C 409.250307 762.3072 408.404148 762.65769 407.780358 763.28148 
C 407.156569 763.90527 406.806078 764.751428 406.806078 765.6336 
C 406.806078 766.515772 407.156569 767.36193 407.780358 767.98572 
C 408.404148 768.60951 409.250307 768.96 410.132478 768.96 
z
" clip-path="url(#pa1a49b7fad)" style="fill: #ff00bf"/>
   </g>
   <g id="patch_74">
    <path d="M 342.411522 768.96 
C 343.293693 768.96 344.139852 768.60951 344.763642 767.98572 
C 345.387431 767.36193 345.737922 766.515772 345.737922 765.6336 
C 345.737922 764.751428 345.387431 763.90527 344.763642 763.28148 
C 344.139852 762.65769 343.293693 762.3072 342.411522 762.3072 
C 341.52935 762.3072 340.683191 762.65769 340.059402 763.28148 
C 339.435612 763.90527 339.085122 764.751428 339.085122 765.6336 
C 339.085122 766.515772 339.435612 767.36193 340.059402 767.98572 
C 340.683191 768.60951 341.52935 768.96 342.411522 768.96 
z
" clip-path="url(#pa1a49b7fad)" style="fill: #ff00bf"/>
   </g>
   <g id="patch_75">
    <path d="M 657.260113 768.96 
C 658.142285 768.96 658.988444 768.60951 659.612233 767.98572 
C 660.236023 767.36193 660.586513 766.515772 660.586513 765.6336 
C 660.586513 764.751428 660.236023 763.90527 659.612233 763.28148 
C 658.988444 762.65769 658.142285 762.3072 657.260113 762.3072 
C 656.377941 762.3072 655.531783 762.65769 654.907993 763.28148 
C 654.284204 763.90527 653.933713 764.751428 653.933713 765.6336 
C 653.933713 766.515772 654.284204 767.36193 654.907993 767.98572 
C 655.531783 768.60951 656.377941 768.96 657.260113 768.96 
z
" clip-path="url(#pa1a49b7fad)" style="fill: #ff00bf"/>
   </g>
   <g id="patch_76">
    <path d="M 524.204113 768.96 
C 525.086285 768.96 525.932444 768.60951 526.556233 767.98572 
C 527.180023 767.36193 527.530513 766.515772 527.530513 765.6336 
C 527.530513 764.751428 527.180023 763.90527 526.556233 763.28148 
C 525.932444 762.65769 525.086285 762.3072 524.204113 762.3072 
C 523.321941 762.3072 522.475783 762.65769 521.851993 763.28148 
C 521.228204 763.90527 520.877713 764.751428 520.877713 765.6336 
C 520.877713 766.515772 521.228204 767.36193 521.851993 767.98572 
C 522.475783 768.60951 523.321941 768.96 524.204113 768.96 
z
" clip-path="url(#pa1a49b7fad)" style="fill: #ff00bf"/>
   </g>
   <g id="patch_77">
    <path d="M 494.451887 768.96 
C 495.334059 768.96 496.180217 768.60951 496.804007 767.98572 
C 497.427796 767.36193 497.778287 766.515772 497.778287 765.6336 
C 497.778287 764.751428 497.427796 763.90527 496.804007 763.28148 
C 496.180217 762.65769 495.334059 762.3072 494.451887 762.3072 
C 493.569715 762.3072 492.723556 762.65769 492.099767 763.28148 
C 491.475977 763.90527 491.125487 764.751428 491.125487 765.6336 
C 491.125487 766.515772 491.475977 767.36193 492.099767 767.98572 
C 492.723556 768.60951 493.569715 768.96 494.451887 768.96 
z
" clip-path="url(#pa1a49b7fad)" style="fill: #ff00bf"/>
   </g>
   <g id="patch_78">
    <path d="M 361.395887 768.96 
C 362.278059 768.96 363.124217 768.60951 363.748007 767.98572 
C 364.371796 767.36193 364.722287 766.515772 364.722287 765.6336 
C 364.722287 764.751428 364.371796 763.90527 363.748007 763.28148 
C 363.124217 762.65769 362.278059 762.3072 361.395887 762.3072 
C 360.513715 762.3072 359.667556 762.65769 359.043767 763.28148 
C 358.419977 763.90527 358.069487 764.751428 358.069487 765.6336 
C 358.069487 766.515772 358.419977 767.36193 359.043767 767.98572 
C 359.667556 768.60951 360.513715 768.96 361.395887 768.96 
z
" clip-path="url(#pa1a49b7fad)" style="fill: #ff00bf"/>
   </g>
   <g id="patch_79">
    <path d="M 113.4864 417.200322 
C 114.368572 417.200322 115.21473 416.849831 115.83852 416.226042 
C 116.46231 415.602252 116.8128 414.756093 116.8128 413.873922 
C 116.8128 412.99175 116.46231 412.145591 115.83852 411.521802 
C 115.21473 410.898012 114.368572 410.547522 113.4864 410.547522 
C 112.604228 410.547522 111.75807 410.898012 111.13428 411.521802 
C 110.51049 412.145591 110.16 412.99175 110.16 413.873922 
C 110.16 414.756093 110.51049 415.602252 111.13428 416.226042 
C 111.75807 416.849831 112.604228 417.200322 113.4864 417.200322 
z
" clip-path="url(#pa1a49b7fad)" style="fill: #ff00bf"/>
   </g>
   <g id="patch_80">
    <path d="M 124.250857 433.261602 
C 125.133028 433.261602 125.979187 432.911111 126.602977 432.287322 
C 127.226766 431.663532 127.577257 430.817373 127.577257 429.935202 
C 127.577257 429.05303 127.226766 428.206871 126.602977 427.583082 
C 125.979187 426.959292 125.133028 426.608802 124.250857 426.608802 
C 123.368685 426.608802 122.522526 426.959292 121.898737 427.583082 
C 121.274947 428.206871 120.924457 429.05303 120.924457 429.935202 
C 120.924457 430.817373 121.274947 431.663532 121.898737 432.287322 
C 122.522526 432.911111 123.368685 433.261602 124.250857 433.261602 
z
" clip-path="url(#pa1a49b7fad)" style="fill: #ff00bf"/>
   </g>
   <g id="patch_81">
    <path d="M 113.4864 303.128687 
C 114.368572 303.128687 115.21473 302.778197 115.83852 302.154407 
C 116.46231 301.530618 116.8128 300.684459 116.8128 299.802287 
C 116.8128 298.920116 116.46231 298.073957 115.83852 297.450167 
C 115.21473 296.826378 114.368572 296.475887 113.4864 296.475887 
C 112.604228 296.475887 111.75807 296.826378 111.13428 297.450167 
C 110.51049 298.073957 110.16 298.920116 110.16 299.802287 
C 110.16 300.684459 110.51049 301.530618 111.13428 302.154407 
C 111.75807 302.778197 112.604228 303.128687 113.4864 303.128687 
z
" clip-path="url(#pa1a49b7fad)" style="fill: #ff00bf"/>
   </g>
   <g id="patch_82">
    <path d="M 738.664226 768.96 
C 739.546398 768.96 740.392557 768.60951 741.016346 767.98572 
C 741.640136 767.36193 741.990626 766.515772 741.990626 765.6336 
C 741.990626 764.751428 741.640136 763.90527 741.016346 763.28148 
C 740.392557 762.65769 739.546398 762.3072 738.664226 762.3072 
C 737.782054 762.3072 736.935896 762.65769 736.312106 763.28148 
C 735.688317 763.90527 735.337826 764.751428 735.337826 765.6336 
C 735.337826 766.515772 735.688317 767.36193 736.312106 767.98572 
C 736.935896 768.60951 737.782054 768.96 738.664226 768.96 
z
" clip-path="url(#pa1a49b7fad)" style="fill: #ff00bf"/>
   </g>
   <g id="patch_83">
    <path d="M 679.159774 768.96 
C 680.041946 768.96 680.888104 768.60951 681.511894 767.98572 
C 682.135683 767.36193 682.486174 766.515772 682.486174 765.6336 
C 682.486174 764.751428 682.135683 763.90527 681.511894 763.28148 
C 680.888104 762.65769 680.041946 762.3072 679.159774 762.3072 
C 678.277602 762.3072 677.431443 762.65769 676.807654 763.28148 
C 676.183864 763.90527 675.833374 764.751428 675.833374 765.6336 
C 675.833374 766.515772 676.183864 767.36193 676.807654 767.98572 
C 677.431443 768.60951 678.277602 768.96 679.159774 768.96 
z
" clip-path="url(#pa1a49b7fad)" style="fill: #ff00bf"/>
   </g>
   <g id="patch_84">
    <path d="M 206.440226 768.96 
C 207.322398 768.96 208.168557 768.60951 208.792346 767.98572 
C 209.416136 767.36193 209.766626 766.515772 209.766626 765.6336 
C 209.766626 764.751428 209.416136 763.90527 208.792346 763.28148 
C 208.168557 762.65769 207.322398 762.3072 206.440226 762.3072 
C 205.558054 762.3072 204.711896 762.65769 204.088106 763.28148 
C 203.464317 763.90527 203.113826 764.751428 203.113826 765.6336 
C 203.113826 766.515772 203.464317 767.36193 204.088106 767.98572 
C 204.711896 768.60951 205.558054 768.96 206.440226 768.96 
z
" clip-path="url(#pa1a49b7fad)" style="fill: #ff00bf"/>
   </g>
   <g id="patch_85">
    <path d="M 155.388648 639.2304 
C 156.270819 639.2304 157.116978 638.87991 157.740768 638.25612 
C 158.364557 637.63233 158.715048 636.786172 158.715048 635.904 
C 158.715048 635.021828 158.364557 634.17567 157.740768 633.55188 
C 157.116978 632.92809 156.270819 632.5776 155.388648 632.5776 
C 154.506476 632.5776 153.660317 632.92809 153.036528 633.55188 
C 152.412738 634.17567 152.062248 635.021828 152.062248 635.904 
C 152.062248 636.786172 152.412738 637.63233 153.036528 638.25612 
C 153.660317 638.87991 154.506476 639.2304 155.388648 639.2304 
z
" clip-path="url(#pa1a49b7fad)" style="fill: #ff00bf"/>
   </g>
   <g id="patch_86">
    <path d="M 197.987352 639.2304 
C 198.869524 639.2304 199.715683 638.87991 200.339472 638.25612 
C 200.963262 637.63233 201.313752 636.786172 201.313752 635.904 
C 201.313752 635.021828 200.963262 634.17567 200.339472 633.55188 
C 199.715683 632.92809 198.869524 632.5776 197.987352 632.5776 
C 197.105181 632.5776 196.259022 632.92809 195.635232 633.55188 
C 195.011443 634.17567 194.660952 635.021828 194.660952 635.904 
C 194.660952 636.786172 195.011443 637.63233 195.635232 638.25612 
C 196.259022 638.87991 197.105181 639.2304 197.987352 639.2304 
z
" clip-path="url(#pa1a49b7fad)" style="fill: #ff00bf"/>
   </g>
   <g id="patch_87">
    <path d="M 243.216 727.057752 
C 244.098172 727.057752 244.94433 726.707262 245.56812 726.083472 
C 246.19191 725.459683 246.5424 724.613524 246.5424 723.731352 
C 246.5424 722.849181 246.19191 722.003022 245.56812 721.379232 
C 244.94433 720.755443 244.098172 720.404952 243.216 720.404952 
C 242.333828 720.404952 241.48767 720.755443 240.86388 721.379232 
C 240.24009 722.003022 239.8896 722.849181 239.8896 723.731352 
C 239.8896 724.613524 240.24009 725.459683 240.86388 726.083472 
C 241.48767 726.707262 242.333828 727.057752 243.216 727.057752 
z
" clip-path="url(#pa1a49b7fad)" style="fill: #ff00bf"/>
   </g>
   <g id="patch_88">
    <path d="M 113.4864 457.579599 
C 114.368572 457.579599 115.21473 457.229109 115.83852 456.605319 
C 116.46231 455.98153 116.8128 455.135371 116.8128 454.253199 
C 116.8128 453.371028 116.46231 452.524869 115.83852 451.901079 
C 115.21473 451.27729 114.368572 450.926799 113.4864 450.926799 
C 112.604228 450.926799 111.75807 451.27729 111.13428 451.901079 
C 110.51049 452.524869 110.16 453.371028 110.16 454.253199 
C 110.16 455.135371 110.51049 455.98153 111.13428 456.605319 
C 111.75807 457.229109 112.604228 457.579599 113.4864 457.579599 
z
" clip-path="url(#pa1a49b7fad)" style="fill: #ff00bf"/>
   </g>
   <g id="patch_89">
    <path d="M 509.328 727.057752 
C 510.210172 727.057752 511.05633 726.707262 511.68012 726.083472 
C 512.30391 725.459683 512.6544 724.613524 512.6544 723.731352 
C 512.6544 722.849181 512.30391 722.003022 511.68012 721.379232 
C 511.05633 720.755443 510.210172 720.404952 509.328 720.404952 
C 508.445828 720.404952 507.59967 720.755443 506.97588 721.379232 
C 506.35209 722.003022 506.0016 722.849181 506.0016 723.731352 
C 506.0016 724.613524 506.35209 725.459683 506.97588 726.083472 
C 507.59967 726.707262 508.445828 727.057752 509.328 727.057752 
z
" clip-path="url(#pa1a49b7fad)" style="fill: #ff00bf"/>
   </g>
   <g id="patch_90">
    <path d="M 546.103774 768.96 
C 546.985946 768.96 547.832104 768.60951 548.455894 767.98572 
C 549.079683 767.36193 549.430174 766.515772 549.430174 765.6336 
C 549.430174 764.751428 549.079683 763.90527 548.455894 763.28148 
C 547.832104 762.65769 546.985946 762.3072 546.103774 762.3072 
C 545.221602 762.3072 544.375443 762.65769 543.751654 763.28148 
C 543.127864 763.90527 542.777374 764.751428 542.777374 765.6336 
C 542.777374 766.515772 543.127864 767.36193 543.751654 767.98572 
C 544.375443 768.60951 545.221602 768.96 546.103774 768.96 
z
" clip-path="url(#pa1a49b7fad)" style="fill: #ff00bf"/>
   </g>
   <g id="patch_91">
    <path d="M 113.4864 281.229026 
C 114.368572 281.229026 115.21473 280.878536 115.83852 280.254746 
C 116.46231 279.630957 116.8128 278.784798 116.8128 277.902626 
C 116.8128 277.020455 116.46231 276.174296 115.83852 275.550506 
C 115.21473 274.926717 114.368572 274.576226 113.4864 274.576226 
C 112.604228 274.576226 111.75807 274.926717 111.13428 275.550506 
C 110.51049 276.174296 110.16 277.020455 110.16 277.902626 
C 110.16 278.784798 110.51049 279.630957 111.13428 280.254746 
C 111.75807 280.878536 112.604228 281.229026 113.4864 281.229026 
z
" clip-path="url(#pa1a49b7fad)" style="fill: #ff00bf"/>
   </g>
   <g id="patch_92">
    <path d="M 113.4864 449.322882 
C 114.368572 449.322882 115.21473 448.972391 115.83852 448.348602 
C 116.46231 447.724812 116.8128 446.878653 116.8128 445.996482 
C 116.8128 445.11431 116.46231 444.268151 115.83852 443.644362 
C 115.21473 443.020572 114.368572 442.670082 113.4864 442.670082 
C 112.604228 442.670082 111.75807 443.020572 111.13428 443.644362 
C 110.51049 444.268151 110.16 445.11431 110.16 445.996482 
C 110.16 446.878653 110.51049 447.724812 111.13428 448.348602 
C 111.75807 448.972391 112.604228 449.322882 113.4864 449.322882 
z
" clip-path="url(#pa1a49b7fad)" style="fill: #ff00bf"/>
   </g>
   <g id="patch_93">
    <path d="M 124.250857 120.986974 
C 125.133028 120.986974 125.979187 120.636484 126.602977 120.012694 
C 127.226766 119.388905 127.577257 118.542746 127.577257 117.660574 
C 127.577257 116.778403 127.226766 115.932244 126.602977 115.308454 
C 125.979187 114.684665 125.133028 114.334174 124.250857 114.334174 
C 123.368685 114.334174 122.522526 114.684665 121.898737 115.308454 
C 121.274947 115.932244 120.924457 116.778403 120.924457 117.660574 
C 120.924457 118.542746 121.274947 119.388905 121.898737 120.012694 
C 122.522526 120.636484 123.368685 120.986974 124.250857 120.986974 
z
" clip-path="url(#pa1a49b7fad)" style="fill: #ff00bf"/>
   </g>
   <g id="patch_94">
    <path d="M 124.250857 754.487202 
C 125.133028 754.487202 125.979187 754.136711 126.602977 753.512922 
C 127.226766 752.889132 127.577257 752.042973 127.577257 751.160802 
C 127.577257 750.27863 127.226766 749.432471 126.602977 748.808682 
C 125.979187 748.184892 125.133028 747.834402 124.250857 747.834402 
C 123.368685 747.834402 122.522526 748.184892 121.898737 748.808682 
C 121.274947 749.432471 120.924457 750.27863 120.924457 751.160802 
C 120.924457 752.042973 121.274947 752.889132 121.898737 753.512922 
C 122.522526 754.136711 123.368685 754.487202 124.250857 754.487202 
z
" clip-path="url(#pa1a49b7fad)" style="fill: #ff00bf"/>
   </g>
   <g id="patch_95">
    <path d="M 757.640802 758.195543 
C 758.522973 758.195543 759.369132 757.845053 759.992922 757.221263 
C 760.616711 756.597474 760.967202 755.751315 760.967202 754.869143 
C 760.967202 753.986972 760.616711 753.140813 759.992922 752.517023 
C 759.369132 751.893234 758.522973 751.542743 757.640802 751.542743 
C 756.75863 751.542743 755.912471 751.893234 755.288682 752.517023 
C 754.664892 753.140813 754.314402 753.986972 754.314402 754.869143 
C 754.314402 755.751315 754.664892 756.597474 755.288682 757.221263 
C 755.912471 757.845053 756.75863 758.195543 757.640802 758.195543 
z
" clip-path="url(#pa1a49b7fad)" style="fill: #ff00bf"/>
   </g>
   <g id="matplotlib.axis_1">
    <g id="xtick_1">
     <g id="line2d_1">
      <defs>
       <path id="mf89308ff38" d="M 0 0 
L 0 3.5 
" style="stroke: #000000; stroke-width: 0.8"/>
      </defs>
      <g>
       <use xlink:href="#mf89308ff38" x="110.16" y="768.96" style="stroke: #000000; stroke-width: 0.8"/>
      </g>
     </g>
     <g id="text_1">
      <!-- 0 -->
      <g transform="translate(106.97875 783.558437)scale(0.1 -0.1)">
       <defs>
        <path id="DejaVuSans-30" d="M 2034 4250 
Q 1547 4250 1301 3770 
Q 1056 3291 1056 2328 
Q 1056 1369 1301 889 
Q 1547 409 2034 409 
Q 2525 409 2770 889 
Q 3016 1369 3016 2328 
Q 3016 3291 2770 3770 
Q 2525 4250 2034 4250 
z
M 2034 4750 
Q 2819 4750 3233 4129 
Q 3647 3509 3647 2328 
Q 3647 1150 3233 529 
Q 2819 -91 2034 -91 
Q 1250 -91 836 529 
Q 422 1150 422 2328 
Q 422 3509 836 4129 
Q 1250 4750 2034 4750 
z
" transform="scale(0.015625)"/>
       </defs>
       <use xlink:href="#DejaVuSans-30"/>
      </g>
     </g>
    </g>
    <g id="xtick_2">
     <g id="line2d_2">
      <g>
       <use xlink:href="#mf89308ff38" x="243.216" y="768.96" style="stroke: #000000; stroke-width: 0.8"/>
      </g>
     </g>
     <g id="text_2">
      <!-- 200 -->
      <g transform="translate(233.67225 783.558437)scale(0.1 -0.1)">
       <defs>
        <path id="DejaVuSans-32" d="M 1228 531 
L 3431 531 
L 3431 0 
L 469 0 
L 469 531 
Q 828 903 1448 1529 
Q 2069 2156 2228 2338 
Q 2531 2678 2651 2914 
Q 2772 3150 2772 3378 
Q 2772 3750 2511 3984 
Q 2250 4219 1831 4219 
Q 1534 4219 1204 4116 
Q 875 4013 500 3803 
L 500 4441 
Q 881 4594 1212 4672 
Q 1544 4750 1819 4750 
Q 2544 4750 2975 4387 
Q 3406 4025 3406 3419 
Q 3406 3131 3298 2873 
Q 3191 2616 2906 2266 
Q 2828 2175 2409 1742 
Q 1991 1309 1228 531 
z
" transform="scale(0.015625)"/>
       </defs>
       <use xlink:href="#DejaVuSans-32"/>
       <use xlink:href="#DejaVuSans-30" x="63.623047"/>
       <use xlink:href="#DejaVuSans-30" x="127.246094"/>
      </g>
     </g>
    </g>
    <g id="xtick_3">
     <g id="line2d_3">
      <g>
       <use xlink:href="#mf89308ff38" x="376.272" y="768.96" style="stroke: #000000; stroke-width: 0.8"/>
      </g>
     </g>
     <g id="text_3">
      <!-- 400 -->
      <g transform="translate(366.72825 783.558437)scale(0.1 -0.1)">
       <defs>
        <path id="DejaVuSans-34" d="M 2419 4116 
L 825 1625 
L 2419 1625 
L 2419 4116 
z
M 2253 4666 
L 3047 4666 
L 3047 1625 
L 3713 1625 
L 3713 1100 
L 3047 1100 
L 3047 0 
L 2419 0 
L 2419 1100 
L 313 1100 
L 313 1709 
L 2253 4666 
z
" transform="scale(0.015625)"/>
       </defs>
       <use xlink:href="#DejaVuSans-34"/>
       <use xlink:href="#DejaVuSans-30" x="63.623047"/>
       <use xlink:href="#DejaVuSans-30" x="127.246094"/>
      </g>
     </g>
    </g>
    <g id="xtick_4">
     <g id="line2d_4">
      <g>
       <use xlink:href="#mf89308ff38" x="509.328" y="768.96" style="stroke: #000000; stroke-width: 0.8"/>
      </g>
     </g>
     <g id="text_4">
      <!-- 600 -->
      <g transform="translate(499.78425 783.558437)scale(0.1 -0.1)">
       <defs>
        <path id="DejaVuSans-36" d="M 2113 2584 
Q 1688 2584 1439 2293 
Q 1191 2003 1191 1497 
Q 1191 994 1439 701 
Q 1688 409 2113 409 
Q 2538 409 2786 701 
Q 3034 994 3034 1497 
Q 3034 2003 2786 2293 
Q 2538 2584 2113 2584 
z
M 3366 4563 
L 3366 3988 
Q 3128 4100 2886 4159 
Q 2644 4219 2406 4219 
Q 1781 4219 1451 3797 
Q 1122 3375 1075 2522 
Q 1259 2794 1537 2939 
Q 1816 3084 2150 3084 
Q 2853 3084 3261 2657 
Q 3669 2231 3669 1497 
Q 3669 778 3244 343 
Q 2819 -91 2113 -91 
Q 1303 -91 875 529 
Q 447 1150 447 2328 
Q 447 3434 972 4092 
Q 1497 4750 2381 4750 
Q 2619 4750 2861 4703 
Q 3103 4656 3366 4563 
z
" transform="scale(0.015625)"/>
       </defs>
       <use xlink:href="#DejaVuSans-36"/>
       <use xlink:href="#DejaVuSans-30" x="63.623047"/>
       <use xlink:href="#DejaVuSans-30" x="127.246094"/>
      </g>
     </g>
    </g>
    <g id="xtick_5">
     <g id="line2d_5">
      <g>
       <use xlink:href="#mf89308ff38" x="642.384" y="768.96" style="stroke: #000000; stroke-width: 0.8"/>
      </g>
     </g>
     <g id="text_5">
      <!-- 800 -->
      <g transform="translate(632.84025 783.558437)scale(0.1 -0.1)">
       <defs>
        <path id="DejaVuSans-38" d="M 2034 2216 
Q 1584 2216 1326 1975 
Q 1069 1734 1069 1313 
Q 1069 891 1326 650 
Q 1584 409 2034 409 
Q 2484 409 2743 651 
Q 3003 894 3003 1313 
Q 3003 1734 2745 1975 
Q 2488 2216 2034 2216 
z
M 1403 2484 
Q 997 2584 770 2862 
Q 544 3141 544 3541 
Q 544 4100 942 4425 
Q 1341 4750 2034 4750 
Q 2731 4750 3128 4425 
Q 3525 4100 3525 3541 
Q 3525 3141 3298 2862 
Q 3072 2584 2669 2484 
Q 3125 2378 3379 2068 
Q 3634 1759 3634 1313 
Q 3634 634 3220 271 
Q 2806 -91 2034 -91 
Q 1263 -91 848 271 
Q 434 634 434 1313 
Q 434 1759 690 2068 
Q 947 2378 1403 2484 
z
M 1172 3481 
Q 1172 3119 1398 2916 
Q 1625 2713 2034 2713 
Q 2441 2713 2670 2916 
Q 2900 3119 2900 3481 
Q 2900 3844 2670 4047 
Q 2441 4250 2034 4250 
Q 1625 4250 1398 4047 
Q 1172 3844 1172 3481 
z
" transform="scale(0.015625)"/>
       </defs>
       <use xlink:href="#DejaVuSans-38"/>
       <use xlink:href="#DejaVuSans-30" x="63.623047"/>
       <use xlink:href="#DejaVuSans-30" x="127.246094"/>
      </g>
     </g>
    </g>
    <g id="xtick_6">
     <g id="line2d_6">
      <g>
       <use xlink:href="#mf89308ff38" x="775.44" y="768.96" style="stroke: #000000; stroke-width: 0.8"/>
      </g>
     </g>
     <g id="text_6">
      <!-- 1000 -->
      <g transform="translate(762.715 783.558437)scale(0.1 -0.1)">
       <defs>
        <path id="DejaVuSans-31" d="M 794 531 
L 1825 531 
L 1825 4091 
L 703 3866 
L 703 4441 
L 1819 4666 
L 2450 4666 
L 2450 531 
L 3481 531 
L 3481 0 
L 794 0 
L 794 531 
z
" transform="scale(0.015625)"/>
       </defs>
       <use xlink:href="#DejaVuSans-31"/>
       <use xlink:href="#DejaVuSans-30" x="63.623047"/>
       <use xlink:href="#DejaVuSans-30" x="127.246094"/>
       <use xlink:href="#DejaVuSans-30" x="190.869141"/>
      </g>
     </g>
    </g>
   </g>
   <g id="matplotlib.axis_2">
    <g id="ytick_1">
     <g id="line2d_7">
      <defs>
       <path id="m3d69d71157" d="M 0 0 
L -3.5 0 
" style="stroke: #000000; stroke-width: 0.8"/>
      </defs>
      <g>
       <use xlink:href="#m3d69d71157" x="110.16" y="768.96" style="stroke: #000000; stroke-width: 0.8"/>
      </g>
     </g>
     <g id="text_7">
      <!-- 0 -->
      <g transform="translate(96.7975 772.759219)scale(0.1 -0.1)">
       <use xlink:href="#DejaVuSans-30"/>
      </g>
     </g>
    </g>
    <g id="ytick_2">
     <g id="line2d_8">
      <g>
       <use xlink:href="#m3d69d71157" x="110.16" y="635.904" style="stroke: #000000; stroke-width: 0.8"/>
      </g>
     </g>
     <g id="text_8">
      <!-- 200 -->
      <g transform="translate(84.0725 639.703219)scale(0.1 -0.1)">
       <use xlink:href="#DejaVuSans-32"/>
       <use xlink:href="#DejaVuSans-30" x="63.623047"/>
       <use xlink:href="#DejaVuSans-30" x="127.246094"/>
      </g>
     </g>
    </g>
    <g id="ytick_3">
     <g id="line2d_9">
      <g>
       <use xlink:href="#m3d69d71157" x="110.16" y="502.848" style="stroke: #000000; stroke-width: 0.8"/>
      </g>
     </g>
     <g id="text_9">
      <!-- 400 -->
      <g transform="translate(84.0725 506.647219)scale(0.1 -0.1)">
       <use xlink:href="#DejaVuSans-34"/>
       <use xlink:href="#DejaVuSans-30" x="63.623047"/>
       <use xlink:href="#DejaVuSans-30" x="127.246094"/>
      </g>
     </g>
    </g>
    <g id="ytick_4">
     <g id="line2d_10">
      <g>
       <use xlink:href="#m3d69d71157" x="110.16" y="369.792" style="stroke: #000000; stroke-width: 0.8"/>
      </g>
     </g>
     <g id="text_10">
      <!-- 600 -->
      <g transform="translate(84.0725 373.591219)scale(0.1 -0.1)">
       <use xlink:href="#DejaVuSans-36"/>
       <use xlink:href="#DejaVuSans-30" x="63.623047"/>
       <use xlink:href="#DejaVuSans-30" x="127.246094"/>
      </g>
     </g>
    </g>
    <g id="ytick_5">
     <g id="line2d_11">
      <g>
       <use xlink:href="#m3d69d71157" x="110.16" y="236.736" style="stroke: #000000; stroke-width: 0.8"/>
      </g>
     </g>
     <g id="text_11">
      <!-- 800 -->
      <g transform="translate(84.0725 240.535219)scale(0.1 -0.1)">
       <use xlink:href="#DejaVuSans-38"/>
       <use xlink:href="#DejaVuSans-30" x="63.623047"/>
       <use xlink:href="#DejaVuSans-30" x="127.246094"/>
      </g>
     </g>
    </g>
    <g id="ytick_6">
     <g id="line2d_12">
      <g>
       <use xlink:href="#m3d69d71157" x="110.16" y="103.68" style="stroke: #000000; stroke-width: 0.8"/>
      </g>
     </g>
     <g id="text_12">
      <!-- 1000 -->
      <g transform="translate(77.71 107.479219)scale(0.1 -0.1)">
       <use xlink:href="#DejaVuSans-31"/>
       <use xlink:href="#DejaVuSans-30" x="63.623047"/>
       <use xlink:href="#DejaVuSans-30" x="127.246094"/>
       <use xlink:href="#DejaVuSans-30" x="190.869141"/>
      </g>
     </g>
    </g>
   </g>
   <g id="patch_96">
    <path d="M 110.16 768.96 
L 110.16 103.68 
" style="fill: none; stroke: #000000; stroke-width: 0.8; stroke-linejoin: miter; stroke-linecap: square"/>
   </g>
   <g id="patch_97">
    <path d="M 775.44 768.96 
L 775.44 103.68 
" style="fill: none; stroke: #000000; stroke-width: 0.8; stroke-linejoin: miter; stroke-linecap: square"/>
   </g>
   <g id="patch_98">
    <path d="M 110.16 768.96 
L 775.44 768.96 
" style="fill: none; stroke: #000000; stroke-width: 0.8; stroke-linejoin: miter; stroke-linecap: square"/>
   </g>
   <g id="patch_99">
    <path d="M 110.16 103.68 
L 775.44 103.68 
" style="fill: none; stroke: #000000; stroke-width: 0.8; stroke-linejoin: miter; stroke-linecap: square"/>
   </g>
   <g id="text_13">
    <!-- BadMadWorld, b=0.2503516, a=0.3720431, d=0.6729102 -->
    <g transform="translate(266.180625 97.68)scale(0.12 -0.12)">
     <defs>
      <path id="DejaVuSans-42" d="M 1259 2228 
L 1259 519 
L 2272 519 
Q 2781 519 3026 730 
Q 3272 941 3272 1375 
Q 3272 1813 3026 2020 
Q 2781 2228 2272 2228 
L 1259 2228 
z
M 1259 4147 
L 1259 2741 
L 2194 2741 
Q 2656 2741 2882 2914 
Q 3109 3088 3109 3444 
Q 3109 3797 2882 3972 
Q 2656 4147 2194 4147 
L 1259 4147 
z
M 628 4666 
L 2241 4666 
Q 2963 4666 3353 4366 
Q 3744 4066 3744 3513 
Q 3744 3084 3544 2831 
Q 3344 2578 2956 2516 
Q 3422 2416 3680 2098 
Q 3938 1781 3938 1306 
Q 3938 681 3513 340 
Q 3088 0 2303 0 
L 628 0 
L 628 4666 
z
" transform="scale(0.015625)"/>
      <path id="DejaVuSans-61" d="M 2194 1759 
Q 1497 1759 1228 1600 
Q 959 1441 959 1056 
Q 959 750 1161 570 
Q 1363 391 1709 391 
Q 2188 391 2477 730 
Q 2766 1069 2766 1631 
L 2766 1759 
L 2194 1759 
z
M 3341 1997 
L 3341 0 
L 2766 0 
L 2766 531 
Q 2569 213 2275 61 
Q 1981 -91 1556 -91 
Q 1019 -91 701 211 
Q 384 513 384 1019 
Q 384 1609 779 1909 
Q 1175 2209 1959 2209 
L 2766 2209 
L 2766 2266 
Q 2766 2663 2505 2880 
Q 2244 3097 1772 3097 
Q 1472 3097 1187 3025 
Q 903 2953 641 2809 
L 641 3341 
Q 956 3463 1253 3523 
Q 1550 3584 1831 3584 
Q 2591 3584 2966 3190 
Q 3341 2797 3341 1997 
z
" transform="scale(0.015625)"/>
      <path id="DejaVuSans-64" d="M 2906 2969 
L 2906 4863 
L 3481 4863 
L 3481 0 
L 2906 0 
L 2906 525 
Q 2725 213 2448 61 
Q 2172 -91 1784 -91 
Q 1150 -91 751 415 
Q 353 922 353 1747 
Q 353 2572 751 3078 
Q 1150 3584 1784 3584 
Q 2172 3584 2448 3432 
Q 2725 3281 2906 2969 
z
M 947 1747 
Q 947 1113 1208 752 
Q 1469 391 1925 391 
Q 2381 391 2643 752 
Q 2906 1113 2906 1747 
Q 2906 2381 2643 2742 
Q 2381 3103 1925 3103 
Q 1469 3103 1208 2742 
Q 947 2381 947 1747 
z
" transform="scale(0.015625)"/>
      <path id="DejaVuSans-4d" d="M 628 4666 
L 1569 4666 
L 2759 1491 
L 3956 4666 
L 4897 4666 
L 4897 0 
L 4281 0 
L 4281 4097 
L 3078 897 
L 2444 897 
L 1241 4097 
L 1241 0 
L 628 0 
L 628 4666 
z
" transform="scale(0.015625)"/>
      <path id="DejaVuSans-57" d="M 213 4666 
L 850 4666 
L 1831 722 
L 2809 4666 
L 3519 4666 
L 4500 722 
L 5478 4666 
L 6119 4666 
L 4947 0 
L 4153 0 
L 3169 4050 
L 2175 0 
L 1381 0 
L 213 4666 
z
" transform="scale(0.015625)"/>
      <path id="DejaVuSans-6f" d="M 1959 3097 
Q 1497 3097 1228 2736 
Q 959 2375 959 1747 
Q 959 1119 1226 758 
Q 1494 397 1959 397 
Q 2419 397 2687 759 
Q 2956 1122 2956 1747 
Q 2956 2369 2687 2733 
Q 2419 3097 1959 3097 
z
M 1959 3584 
Q 2709 3584 3137 3096 
Q 3566 2609 3566 1747 
Q 3566 888 3137 398 
Q 2709 -91 1959 -91 
Q 1206 -91 779 398 
Q 353 888 353 1747 
Q 353 2609 779 3096 
Q 1206 3584 1959 3584 
z
" transform="scale(0.015625)"/>
      <path id="DejaVuSans-72" d="M 2631 2963 
Q 2534 3019 2420 3045 
Q 2306 3072 2169 3072 
Q 1681 3072 1420 2755 
Q 1159 2438 1159 1844 
L 1159 0 
L 581 0 
L 581 3500 
L 1159 3500 
L 1159 2956 
Q 1341 3275 1631 3429 
Q 1922 3584 2338 3584 
Q 2397 3584 2469 3576 
Q 2541 3569 2628 3553 
L 2631 2963 
z
" transform="scale(0.015625)"/>
      <path id="DejaVuSans-6c" d="M 603 4863 
L 1178 4863 
L 1178 0 
L 603 0 
L 603 4863 
z
" transform="scale(0.015625)"/>
      <path id="DejaVuSans-2c" d="M 750 794 
L 1409 794 
L 1409 256 
L 897 -744 
L 494 -744 
L 750 256 
L 750 794 
z
" transform="scale(0.015625)"/>
      <path id="DejaVuSans-20" transform="scale(0.015625)"/>
      <path id="DejaVuSans-62" d="M 3116 1747 
Q 3116 2381 2855 2742 
Q 2594 3103 2138 3103 
Q 1681 3103 1420 2742 
Q 1159 2381 1159 1747 
Q 1159 1113 1420 752 
Q 1681 391 2138 391 
Q 2594 391 2855 752 
Q 3116 1113 3116 1747 
z
M 1159 2969 
Q 1341 3281 1617 3432 
Q 1894 3584 2278 3584 
Q 2916 3584 3314 3078 
Q 3713 2572 3713 1747 
Q 3713 922 3314 415 
Q 2916 -91 2278 -91 
Q 1894 -91 1617 61 
Q 1341 213 1159 525 
L 1159 0 
L 581 0 
L 581 4863 
L 1159 4863 
L 1159 2969 
z
" transform="scale(0.015625)"/>
      <path id="DejaVuSans-3d" d="M 678 2906 
L 4684 2906 
L 4684 2381 
L 678 2381 
L 678 2906 
z
M 678 1631 
L 4684 1631 
L 4684 1100 
L 678 1100 
L 678 1631 
z
" transform="scale(0.015625)"/>
      <path id="DejaVuSans-2e" d="M 684 794 
L 1344 794 
L 1344 0 
L 684 0 
L 684 794 
z
" transform="scale(0.015625)"/>
      <path id="DejaVuSans-35" d="M 691 4666 
L 3169 4666 
L 3169 4134 
L 1269 4134 
L 1269 2991 
Q 1406 3038 1543 3061 
Q 1681 3084 1819 3084 
Q 2600 3084 3056 2656 
Q 3513 2228 3513 1497 
Q 3513 744 3044 326 
Q 2575 -91 1722 -91 
Q 1428 -91 1123 -41 
Q 819 9 494 109 
L 494 744 
Q 775 591 1075 516 
Q 1375 441 1709 441 
Q 2250 441 2565 725 
Q 2881 1009 2881 1497 
Q 2881 1984 2565 2268 
Q 2250 2553 1709 2553 
Q 1456 2553 1204 2497 
Q 953 2441 691 2322 
L 691 4666 
z
" transform="scale(0.015625)"/>
      <path id="DejaVuSans-33" d="M 2597 2516 
Q 3050 2419 3304 2112 
Q 3559 1806 3559 1356 
Q 3559 666 3084 287 
Q 2609 -91 1734 -91 
Q 1441 -91 1130 -33 
Q 819 25 488 141 
L 488 750 
Q 750 597 1062 519 
Q 1375 441 1716 441 
Q 2309 441 2620 675 
Q 2931 909 2931 1356 
Q 2931 1769 2642 2001 
Q 2353 2234 1838 2234 
L 1294 2234 
L 1294 2753 
L 1863 2753 
Q 2328 2753 2575 2939 
Q 2822 3125 2822 3475 
Q 2822 3834 2567 4026 
Q 2313 4219 1838 4219 
Q 1578 4219 1281 4162 
Q 984 4106 628 3988 
L 628 4550 
Q 988 4650 1302 4700 
Q 1616 4750 1894 4750 
Q 2613 4750 3031 4423 
Q 3450 4097 3450 3541 
Q 3450 3153 3228 2886 
Q 3006 2619 2597 2516 
z
" transform="scale(0.015625)"/>
      <path id="DejaVuSans-37" d="M 525 4666 
L 3525 4666 
L 3525 4397 
L 1831 0 
L 1172 0 
L 2766 4134 
L 525 4134 
L 525 4666 
z
" transform="scale(0.015625)"/>
      <path id="DejaVuSans-39" d="M 703 97 
L 703 672 
Q 941 559 1184 500 
Q 1428 441 1663 441 
Q 2288 441 2617 861 
Q 2947 1281 2994 2138 
Q 2813 1869 2534 1725 
Q 2256 1581 1919 1581 
Q 1219 1581 811 2004 
Q 403 2428 403 3163 
Q 403 3881 828 4315 
Q 1253 4750 1959 4750 
Q 2769 4750 3195 4129 
Q 3622 3509 3622 2328 
Q 3622 1225 3098 567 
Q 2575 -91 1691 -91 
Q 1453 -91 1209 -44 
Q 966 3 703 97 
z
M 1959 2075 
Q 2384 2075 2632 2365 
Q 2881 2656 2881 3163 
Q 2881 3666 2632 3958 
Q 2384 4250 1959 4250 
Q 1534 4250 1286 3958 
Q 1038 3666 1038 3163 
Q 1038 2656 1286 2365 
Q 1534 2075 1959 2075 
z
" transform="scale(0.015625)"/>
     </defs>
     <use xlink:href="#DejaVuSans-42"/>
     <use xlink:href="#DejaVuSans-61" x="68.603516"/>
     <use xlink:href="#DejaVuSans-64" x="129.882812"/>
     <use xlink:href="#DejaVuSans-4d" x="193.359375"/>
     <use xlink:href="#DejaVuSans-61" x="279.638672"/>
     <use xlink:href="#DejaVuSans-64" x="340.917969"/>
     <use xlink:href="#DejaVuSans-57" x="404.394531"/>
     <use xlink:href="#DejaVuSans-6f" x="497.396484"/>
     <use xlink:href="#DejaVuSans-72" x="558.578125"/>
     <use xlink:href="#DejaVuSans-6c" x="599.691406"/>
     <use xlink:href="#DejaVuSans-64" x="627.474609"/>
     <use xlink:href="#DejaVuSans-2c" x="690.951172"/>
     <use xlink:href="#DejaVuSans-20" x="722.738281"/>
     <use xlink:href="#DejaVuSans-62" x="754.525391"/>
     <use xlink:href="#DejaVuSans-3d" x="818.001953"/>
     <use xlink:href="#DejaVuSans-30" x="901.791016"/>
     <use xlink:href="#DejaVuSans-2e" x="965.414062"/>
     <use xlink:href="#DejaVuSans-32" x="997.201172"/>
     <use xlink:href="#DejaVuSans-35" x="1060.824219"/>
     <use xlink:href="#DejaVuSans-30" x="1124.447266"/>
     <use xlink:href="#DejaVuSans-33" x="1188.070312"/>
     <use xlink:href="#DejaVuSans-35" x="1251.693359"/>
     <use xlink:href="#DejaVuSans-31" x="1315.316406"/>
     <use xlink:href="#DejaVuSans-36" x="1378.939453"/>
     <use xlink:href="#DejaVuSans-2c" x="1442.5625"/>
     <use xlink:href="#DejaVuSans-20" x="1474.349609"/>
     <use xlink:href="#DejaVuSans-61" x="1506.136719"/>
     <use xlink:href="#DejaVuSans-3d" x="1567.416016"/>
     <use xlink:href="#DejaVuSans-30" x="1651.205078"/>
     <use xlink:href="#DejaVuSans-2e" x="1714.828125"/>
     <use xlink:href="#DejaVuSans-33" x="1746.615234"/>
     <use xlink:href="#DejaVuSans-37" x="1810.238281"/>
     <use xlink:href="#DejaVuSans-32" x="1873.861328"/>
     <use xlink:href="#DejaVuSans-30" x="1937.484375"/>
     <use xlink:href="#DejaVuSans-34" x="2001.107422"/>
     <use xlink:href="#DejaVuSans-33" x="2064.730469"/>
     <use xlink:href="#DejaVuSans-31" x="2128.353516"/>
     <use xlink:href="#DejaVuSans-2c" x="2191.976562"/>
     <use xlink:href="#DejaVuSans-20" x="2223.763672"/>
     <use xlink:href="#DejaVuSans-64" x="2255.550781"/>
     <use xlink:href="#DejaVuSans-3d" x="2319.027344"/>
     <use xlink:href="#DejaVuSans-30" x="2402.816406"/>
     <use xlink:href="#DejaVuSans-2e" x="2466.439453"/>
     <use xlink:href="#DejaVuSans-36" x="2498.226562"/>
     <use xlink:href="#DejaVuSans-37" x="2561.849609"/>
     <use xlink:href="#DejaVuSans-32" x="2625.472656"/>
     <use xlink:href="#DejaVuSans-39" x="2689.095703"/>
     <use xlink:href="#DejaVuSans-31" x="2752.71875"/>
     <use xlink:href="#DejaVuSans-30" x="2816.341797"/>
     <use xlink:href="#DejaVuSans-32" x="2879.964844"/>
    </g>
   </g>
  </g>
 </g>
 <defs>
  <clipPath id="pa1a49b7fad">
   <rect x="110.16" y="103.68" width="665.28" height="665.28"/>
  </clipPath>
 </defs>
</svg>
