<svg xmlns="http://www.w3.org/2000/svg" xmlns:xlink="http://www.w3.org/1999/xlink" width="1728" height="1728" viewBox="0 0 1296 1296"><defs><style>*{stroke-linejoin:round;stroke-linecap:butt}</style></defs><g id="figure_1"><path id="patch_1" d="M0 1296h1296V0H0z" style="fill:#fff"/><g id="axes_1"><path id="patch_2" d="M165.24 1153.44h997.92V155.52H165.24z" style="fill:#fff"/><path id="patch_3" d="M1066.362 349.116a96.803 96.803 0 0 0 68.446-28.351 96.803 96.803 0 0 0 28.352-68.447 96.803 96.803 0 0 0-28.352-68.446 96.803 96.803 0 0 0-68.446-28.352 96.803 96.803 0 0 0-68.447 28.352 96.803 96.803 0 0 0-28.351 68.446 96.803 96.803 0 0 0 28.351 68.447 96.803 96.803 0 0 0 68.447 28.351z" clip-path="url(#p04187059df)" style="fill:#ff0"/><path id="patch_4" d="M254.055 333.15a88.819 88.819 0 0 0 88.815-88.815 88.819 88.819 0 0 0-88.815-88.815 88.819 88.819 0 0 0-88.815 88.815 88.819 88.819 0 0 0 88.815 88.815z" clip-path="url(#p04187059df)" style="fill:#fff50a"/><path id="patch_5" d="M1080.333 1153.44a82.831 82.831 0 0 0 82.827-82.827 82.831 82.831 0 0 0-82.827-82.828 82.831 82.831 0 0 0-82.828 82.828 82.831 82.831 0 0 0 82.828 82.827z" clip-path="url(#p04187059df)" style="fill:#ffea15"/><path id="patch_6" d="M244.076 1153.44a78.84 78.84 0 0 0 78.835-78.836 78.84 78.84 0 0 0-78.835-78.835 78.84 78.84 0 0 0-78.836 78.835 78.84 78.84 0 0 0 78.836 78.836z" clip-path="url(#p04187059df)" style="fill:#ffe01f"/><path id="patch_7" d="M898.414 301.216a72.852 72.852 0 0 0 72.849-72.848 72.852 72.852 0 0 0-72.849-72.848 72.852 72.852 0 0 0-72.848 72.848 72.852 72.852 0 0 0 72.848 72.848z" clip-path="url(#p04187059df)" style="fill:#ffd52a"/><path id="patch_8" d="M412.708 297.225a70.856 70.856 0 0 0 70.853-70.853 70.856 70.856 0 0 0-70.853-70.852 70.856 70.856 0 0 0-70.852 70.852 70.856 70.856 0 0 0 70.852 70.853z" clip-path="url(#p04187059df)" style="fill:#ffca35"/><path id="patch_9" d="M931.499 1153.44a66.864 66.864 0 0 0 66.86-66.86 66.864 66.864 0 0 0-66.86-66.861 66.864 66.864 0 0 0-66.861 66.86 66.864 66.864 0 0 0 66.86 66.861z" clip-path="url(#p04187059df)" style="fill:#ffc03f"/><path id="patch_10" d="M226.113 996.928a60.876 60.876 0 0 0 60.873-60.873 60.876 60.876 0 0 0-60.873-60.873 60.876 60.876 0 0 0-60.873 60.873 60.876 60.876 0 0 0 60.873 60.873z" clip-path="url(#p04187059df)" style="fill:#ffb54a"/><path id="patch_11" d="M1104.283 462.182a58.88 58.88 0 0 0 58.877-58.877 58.88 58.88 0 0 0-58.877-58.878 58.88 58.88 0 0 0-58.878 58.878 58.88 58.88 0 0 0 58.878 58.877z" clip-path="url(#p04187059df)" style="fill:#fa5"/><path id="patch_12" d="M1110.27 991.128a52.892 52.892 0 0 0 52.89-52.89 52.892 52.892 0 0 0-52.89-52.89 52.892 52.892 0 0 0-52.89 52.89 52.892 52.892 0 0 0 52.89 52.89z" clip-path="url(#p04187059df)" style="fill:#ffa05f"/><path id="patch_13" d="M365.691 1153.44a46.904 46.904 0 0 0 46.902-46.902 46.904 46.904 0 0 0-46.902-46.902 46.904 46.904 0 0 0-46.902 46.902 46.904 46.904 0 0 0 46.902 46.902z" clip-path="url(#p04187059df)" style="fill:#ff956a"/><path id="patch_14" d="M1017.401 1004.667a42.913 42.913 0 0 0 42.911-42.91 42.913 42.913 0 0 0-42.91-42.911 42.913 42.913 0 0 0-42.911 42.91 42.913 42.913 0 0 0 42.91 42.91z" clip-path="url(#p04187059df)" style="fill:#ff8a75"/><path id="patch_15" d="M350.66 1060.931a40.917 40.917 0 0 0 40.915-40.914 40.917 40.917 0 0 0-40.914-40.915 40.917 40.917 0 0 0-40.915 40.915 40.917 40.917 0 0 0 40.915 40.914z" clip-path="url(#p04187059df)" style="fill:#ff807f"/><path id="patch_16" d="M188.192 357.586a22.953 22.953 0 1 0 0-45.906 22.953 22.953 0 0 0 0 45.906z" clip-path="url(#p04187059df)" style="fill:#f5a"/><path id="patch_17" d="M980.68 193.441a18.961 18.961 0 1 0 0-37.923 18.961 18.961 0 0 0 0 37.923z" clip-path="url(#p04187059df)" style="fill:#ff4ab5"/><path id="patch_18" d="M1005.362 1153.44a16.965 16.965 0 1 0 0-33.93 16.965 16.965 0 0 0 0 33.93z" clip-path="url(#p04187059df)" style="fill:#ff40bf"/><path id="patch_19" d="M1150.187 181.466a12.974 12.974 0 1 0 0-25.947 12.974 12.974 0 0 0 0 25.947z" clip-path="url(#p04187059df)" style="fill:#ff35ca"/><path id="patch_20" d="M176.217 177.474a10.978 10.978 0 1 0 0-21.955 10.978 10.978 0 0 0 0 21.955z" clip-path="url(#p04187059df)" style="fill:#ff2ad5"/><path id="patch_21" d="M1156.175 207.297a6.986 6.986 0 1 0 0-13.972 6.986 6.986 0 0 0 0 13.972z" clip-path="url(#p04187059df)" style="fill:#ff20df"/><path id="patch_22" d="M1158.17 193.493a4.99 4.99 0 1 0 0-9.98 4.99 4.99 0 0 0 0 9.98z" clip-path="url(#p04187059df)" style="fill:#ff15ea"/><path id="patch_23" d="M1160.166 212.451a2.994 2.994 0 1 0 0-5.988 2.994 2.994 0 0 0 0 5.988z" clip-path="url(#p04187059df)" style="fill:#ff0af5"/><path id="patch_24" d="M1161.164 159.512a1.996 1.996 0 1 0 0-3.992 1.996 1.996 0 0 0 0 3.992z" clip-path="url(#p04187059df)" style="fill:#f0f"/><path id="patch_25" d="M500.45 1153.44a96.803 96.803 0 0 0 68.448-28.352 96.803 96.803 0 0 0 28.351-68.446 96.803 96.803 0 0 0-28.351-68.447 96.803 96.803 0 0 0-68.447-28.351 96.803 96.803 0 0 0-68.447 28.351 96.803 96.803 0 0 0-28.351 68.447 96.803 96.803 0 0 0 28.351 68.446 96.803 96.803 0 0 0 68.447 28.352z" clip-path="url(#p04187059df)" style="fill:#ff0"/><path id="patch_26" d="M257.998 510.736a88.819 88.819 0 0 0 88.815-88.815 88.819 88.819 0 0 0-88.815-88.815 88.819 88.819 0 0 0-88.814 88.815 88.819 88.819 0 0 0 88.814 88.815z" clip-path="url(#p04187059df)" style="fill:#fff50a"/><path id="patch_27" d="M1080.333 625.798a82.831 82.831 0 0 0 82.827-82.827 82.831 82.831 0 0 0-82.827-82.828 82.831 82.831 0 0 0-82.828 82.828 82.831 82.831 0 0 0 82.828 82.827z" clip-path="url(#p04187059df)" style="fill:#ffea15"/><path id="patch_28" d="M786.295 1153.44a78.84 78.84 0 0 0 78.836-78.836 78.84 78.84 0 0 0-78.836-78.835 78.84 78.84 0 0 0-78.835 78.835 78.84 78.84 0 0 0 78.835 78.836z" clip-path="url(#p04187059df)" style="fill:#ffe01f"/><path id="patch_29" d="M1090.312 886.943a72.852 72.852 0 0 0 72.848-72.848 72.852 72.852 0 0 0-72.848-72.848 72.852 72.852 0 0 0-72.848 72.848 72.852 72.852 0 0 0 72.848 72.848z" clip-path="url(#p04187059df)" style="fill:#ffd52a"/><path id="patch_30" d="M353.283 373.879a42.913 42.913 0 0 0 42.91-42.91 42.913 42.913 0 0 0-42.91-42.911 42.913 42.913 0 0 0-42.91 42.91 42.913 42.913 0 0 0 42.91 42.91z" clip-path="url(#p04187059df)" style="fill:#ff8a75"/><path id="patch_31" d="M626.315 1153.44a40.917 40.917 0 0 0 40.915-40.915 40.917 40.917 0 0 0-40.915-40.914 40.917 40.917 0 0 0-40.914 40.914 40.917 40.917 0 0 0 40.914 40.915z" clip-path="url(#p04187059df)" style="fill:#ff807f"/><path id="patch_32" d="M1126.237 690.496a36.925 36.925 0 0 0 26.108-63.031 36.925 36.925 0 0 0-63.031 26.108 36.925 36.925 0 0 0 36.923 36.923z" clip-path="url(#p04187059df)" style="fill:#ff758a"/><path id="patch_33" d="M627.183 1071.616a30.937 30.937 0 0 0 21.875-52.81 30.937 30.937 0 0 0-52.81 21.874 30.937 30.937 0 0 0 30.935 30.936z" clip-path="url(#p04187059df)" style="fill:#ff6a95"/><path id="patch_34" d="M1134.22 747.89a28.941 28.941 0 0 0 20.464-49.403 28.941 28.941 0 0 0-49.403 20.463 28.941 28.941 0 0 0 28.94 28.94z" clip-path="url(#p04187059df)" style="fill:#ff609f"/><path id="patch_35" d="M701.22 1153.44a22.953 22.953 0 1 0 0-45.906 22.953 22.953 0 0 0 0 45.906z" clip-path="url(#p04187059df)" style="fill:#f5a"/><path id="patch_36" d="M336.127 193.441a18.961 18.961 0 1 0 0-37.923 18.961 18.961 0 0 0 0 37.923z" clip-path="url(#p04187059df)" style="fill:#ff4ab5"/><path id="patch_37" d="M1146.195 350.33a16.965 16.965 0 1 0 0-33.931 16.965 16.965 0 0 0 0 33.93z" clip-path="url(#p04187059df)" style="fill:#ff40bf"/><path id="patch_38" d="M1150.187 1153.44a12.974 12.974 0 1 0 0-25.947 12.974 12.974 0 0 0 0 25.947z" clip-path="url(#p04187059df)" style="fill:#ff35ca"/><path id="patch_39" d="M389.905 1064.944a10.978 10.978 0 1 0 0-21.955 10.978 10.978 0 0 0 0 21.955z" clip-path="url(#p04187059df)" style="fill:#ff2ad5"/><path id="patch_40" d="M172.225 190.996a6.986 6.986 0 1 0 0-13.972 6.986 6.986 0 0 0 0 13.972z" clip-path="url(#p04187059df)" style="fill:#ff20df"/><path id="patch_41" d="M1148.533 196.081a4.99 4.99 0 1 0 0-9.98 4.99 4.99 0 0 0 0 9.98z" clip-path="url(#p04187059df)" style="fill:#ff15ea"/><path id="patch_42" d="M1160.166 218.439a2.994 2.994 0 1 0 0-5.988 2.994 2.994 0 0 0 0 5.988z" clip-path="url(#p04187059df)" style="fill:#ff0af5"/><path id="patch_43" d="M1161.164 180.666a1.996 1.996 0 1 0 0-3.992 1.996 1.996 0 0 0 0 3.992z" clip-path="url(#p04187059df)" style="fill:#f0f"/><path id="patch_44" d="M262.038 879.33a96.803 96.803 0 0 0 68.447-28.352 96.803 96.803 0 0 0 28.351-68.447 96.803 96.803 0 0 0-28.351-68.447 96.803 96.803 0 0 0-68.447-28.351 96.803 96.803 0 0 0-68.446 28.351 96.803 96.803 0 0 0-28.352 68.447 96.803 96.803 0 0 0 28.352 68.447 96.803 96.803 0 0 0 68.446 28.351z" clip-path="url(#p04187059df)" style="fill:#ff0"/><path id="patch_45" d="M883.961 1027.154a88.819 88.819 0 0 0 88.815-88.814 88.819 88.819 0 0 0-88.815-88.815 88.819 88.819 0 0 0-88.815 88.815 88.819 88.819 0 0 0 88.815 88.814z" clip-path="url(#p04187059df)" style="fill:#fff50a"/><path id="patch_46" d="M248.067 686.277a82.831 82.831 0 0 0 82.828-82.827 82.831 82.831 0 0 0-82.828-82.828 82.831 82.831 0 0 0-82.827 82.828 82.831 82.831 0 0 0 82.827 82.827z" clip-path="url(#p04187059df)" style="fill:#ffea15"/><path id="patch_47" d="M182.205 1018.427a16.965 16.965 0 1 0-.001-33.93 16.965 16.965 0 0 0 0 33.93z" clip-path="url(#p04187059df)" style="fill:#ff40bf"/><path id="patch_48" d="M178.213 1153.44a12.974 12.974 0 1 0 0-25.947 12.974 12.974 0 0 0 0 25.947z" clip-path="url(#p04187059df)" style="fill:#ff35ca"/><path id="patch_49" d="M1152.183 768.515a10.978 10.978 0 1 0 0-21.955 10.978 10.978 0 0 0 0 21.955z" clip-path="url(#p04187059df)" style="fill:#ff2ad5"/><path id="patch_50" d="M1156.175 1128.413a6.986 6.986 0 1 0 0-13.971 6.986 6.986 0 0 0 0 13.971z" clip-path="url(#p04187059df)" style="fill:#ff20df"/><path id="patch_51" d="M170.23 207.222a4.99 4.99 0 1 0 0-9.98 4.99 4.99 0 0 0 0 9.98z" clip-path="url(#p04187059df)" style="fill:#ff15ea"/><path id="patch_52" d="M395.704 1069.671a2.994 2.994 0 1 0 0-5.987 2.994 2.994 0 0 0 0 5.987z" clip-path="url(#p04187059df)" style="fill:#ff0af5"/><path id="patch_53" d="M1161.164 1153.44a1.996 1.996 0 1 0 0-3.992 1.996 1.996 0 0 0 0 3.992z" clip-path="url(#p04187059df)" style="fill:#f0f"/><path id="patch_54" d="M730.467 349.116a96.803 96.803 0 0 0 68.447-28.351 96.803 96.803 0 0 0 28.351-68.447 96.803 96.803 0 0 0-28.351-68.446 96.803 96.803 0 0 0-68.447-28.352 96.803 96.803 0 0 0-68.447 28.352 96.803 96.803 0 0 0-28.351 68.446 96.803 96.803 0 0 0 28.351 68.447 96.803 96.803 0 0 0 68.447 28.351z" clip-path="url(#p04187059df)" style="fill:#ff0"/><path id="patch_55" d="M344.15 387.007a6.986 6.986 0 1 0 0-13.972 6.986 6.986 0 0 0 0 13.972z" clip-path="url(#p04187059df)" style="fill:#ff20df"/><path id="patch_56" d="M194.304 1153.44a4.99 4.99 0 1 0 0-9.98 4.99 4.99 0 0 0 0 9.98z" clip-path="url(#p04187059df)" style="fill:#ff15ea"/><path id="patch_57" d="M1160.166 1105.1a2.994 2.994 0 1 0 0-5.988 2.994 2.994 0 0 0 0 5.988z" clip-path="url(#p04187059df)" style="fill:#ff0af5"/><path id="patch_58" d="M167.236 1153.44a1.996 1.996 0 1 0 0-3.992 1.996 1.996 0 0 0 0 3.992z" clip-path="url(#p04187059df)" style="fill:#f0f"/><path id="patch_59" d="M949.494 516.697a96.803 96.803 0 0 0 68.447-28.351 96.803 96.803 0 0 0 28.351-68.447 96.803 96.803 0 0 0-28.351-68.447 96.803 96.803 0 0 0-68.447-28.351 96.803 96.803 0 0 0-68.447 28.351 96.803 96.803 0 0 0-28.351 68.447 96.803 96.803 0 0 0 28.351 68.447 96.803 96.803 0 0 0 68.447 28.351z" clip-path="url(#p04187059df)" style="fill:#ff0"/><path id="patch_60" d="M556.395 301.216a72.852 72.852 0 0 0 72.848-72.848 72.852 72.852 0 0 0-72.848-72.848 72.852 72.852 0 0 0-72.848 72.848 72.852 72.852 0 0 0 72.848 72.848z" clip-path="url(#p04187059df)" style="fill:#ffd52a"/><path id="patch_61" d="M1023.361 756.552a70.856 70.856 0 0 0 70.853-70.852 70.856 70.856 0 0 0-70.853-70.852A70.856 70.856 0 0 0 952.51 685.7a70.856 70.856 0 0 0 70.852 70.852z" clip-path="url(#p04187059df)" style="fill:#ffca35"/><path id="patch_62" d="M844.987 369.72a40.917 40.917 0 0 0 40.914-40.915 40.917 40.917 0 0 0-40.914-40.915 40.917 40.917 0 0 0-40.915 40.915 40.917 40.917 0 0 0 40.915 40.914z" clip-path="url(#p04187059df)" style="fill:#ff807f"/><path id="patch_63" d="M374.202 428.645a28.941 28.941 0 0 0 20.464-49.403 28.941 28.941 0 0 0-49.403 20.464 28.941 28.941 0 0 0 28.94 28.94z" clip-path="url(#p04187059df)" style="fill:#ff609f"/><path id="patch_64" d="M188.192 539.2a22.953 22.953 0 1 0 0-45.907 22.953 22.953 0 0 0 0 45.906z" clip-path="url(#p04187059df)" style="fill:#f5a"/><path id="patch_65" d="M184.2 715.81a18.961 18.961 0 1 0 0-37.923 18.961 18.961 0 0 0 0 37.923z" clip-path="url(#p04187059df)" style="fill:#ff4ab5"/><path id="patch_66" d="M486.086 189.45a16.965 16.965 0 1 0 0-33.932 16.965 16.965 0 0 0 0 33.931z" clip-path="url(#p04187059df)" style="fill:#ff40bf"/><path id="patch_67" d="M1150.187 1018.026a12.974 12.974 0 1 0 0-25.947 12.974 12.974 0 0 0 0 25.947z" clip-path="url(#p04187059df)" style="fill:#ff35ca"/><path id="patch_68" d="M669.474 1153.44a10.978 10.978 0 1 0 0-21.955 10.978 10.978 0 0 0 0 21.955z" clip-path="url(#p04187059df)" style="fill:#ff2ad5"/><path id="patch_69" d="M1014.355 169.49a6.986 6.986 0 1 0 0-13.97 6.986 6.986 0 0 0 0 13.97z" clip-path="url(#p04187059df)" style="fill:#ff20df"/><path id="patch_70" d="M204.41 1153.44a4.99 4.99 0 1 0-.001-9.98 4.99 4.99 0 0 0 0 9.98z" clip-path="url(#p04187059df)" style="fill:#ff15ea"/><path id="patch_71" d="M168.234 214.716a2.994 2.994 0 1 0 0-5.987 2.994 2.994 0 0 0 0 5.987z" clip-path="url(#p04187059df)" style="fill:#ff0af5"/><path id="patch_72" d="M1161.164 1132.286a1.996 1.996 0 1 0 0-3.992 1.996 1.996 0 0 0 0 3.992z" clip-path="url(#p04187059df)" style="fill:#f0f"/><path id="patch_73" d="M630.226 1009.781a96.803 96.803 0 0 0 68.447-28.352 96.803 96.803 0 0 0 28.352-68.446 96.803 96.803 0 0 0-28.352-68.447 96.803 96.803 0 0 0-68.447-28.351 96.803 96.803 0 0 0-68.446 28.351 96.803 96.803 0 0 0-28.352 68.447 96.803 96.803 0 0 0 28.352 68.446 96.803 96.803 0 0 0 68.446 28.352z" clip-path="url(#p04187059df)" style="fill:#ff0"/><path id="patch_74" d="M407.445 755.98a88.819 88.819 0 0 0 88.815-88.814 88.819 88.819 0 0 0-88.815-88.815 88.819 88.819 0 0 0-88.815 88.815 88.819 88.819 0 0 0 88.815 88.815z" clip-path="url(#p04187059df)" style="fill:#fff50a"/><path id="patch_75" d="M480.501 447.118a82.831 82.831 0 0 0 82.828-82.827 82.831 82.831 0 0 0-82.828-82.827 82.831 82.831 0 0 0-82.827 82.827 82.831 82.831 0 0 0 82.827 82.827z" clip-path="url(#p04187059df)" style="fill:#ffea15"/><path id="patch_76" d="M771.241 501.99a78.84 78.84 0 0 0 78.836-78.836 78.84 78.84 0 0 0-78.836-78.836 78.84 78.84 0 0 0-78.835 78.836 78.84 78.84 0 0 0 78.835 78.835z" clip-path="url(#p04187059df)" style="fill:#ffe01f"/><path id="patch_77" d="M461.956 964.269a72.852 72.852 0 0 0 72.848-72.848 72.852 72.852 0 0 0-72.848-72.849 72.852 72.852 0 0 0-72.848 72.849 72.852 72.852 0 0 0 72.848 72.848z" clip-path="url(#p04187059df)" style="fill:#ffd52a"/><path id="patch_78" d="M942.392 634.29a58.88 58.88 0 0 0 58.877-58.878 58.88 58.88 0 0 0-58.877-58.877 58.88 58.88 0 0 0-58.878 58.877 58.88 58.88 0 0 0 58.878 58.878z" clip-path="url(#p04187059df)" style="fill:#fa5"/><path id="patch_79" d="M337.288 964.819a52.892 52.892 0 0 0 52.89-52.89 52.892 52.892 0 0 0-52.89-52.89 52.892 52.892 0 0 0-52.89 52.89 52.892 52.892 0 0 0 52.89 52.89z" clip-path="url(#p04187059df)" style="fill:#ffa05f"/><path id="patch_80" d="M607.278 383.673a46.904 46.904 0 0 0 46.903-46.903 46.904 46.904 0 0 0-46.903-46.902 46.904 46.904 0 0 0-46.902 46.902 46.904 46.904 0 0 0 46.902 46.903z" clip-path="url(#p04187059df)" style="fill:#ff956a"/><path id="patch_81" d="M873.938 549.344A28.941 28.941 0 0 0 894.4 499.94a28.941 28.941 0 0 0-49.403 20.463 28.941 28.941 0 0 0 28.94 28.94z" clip-path="url(#p04187059df)" style="fill:#ff609f"/><path id="patch_82" d="M295.967 1009.99a22.953 22.953 0 1 0 0-45.907 22.953 22.953 0 0 0 0 45.906z" clip-path="url(#p04187059df)" style="fill:#f5a"/><path id="patch_83" d="M644.785 193.441a18.961 18.961 0 1 0 0-37.923 18.961 18.961 0 0 0 0 37.923z" clip-path="url(#p04187059df)" style="fill:#ff4ab5"/><path id="patch_84" d="M1146.195 483.478a16.965 16.965 0 1 0 0-33.931 16.965 16.965 0 0 0 0 33.93z" clip-path="url(#p04187059df)" style="fill:#ff40bf"/><path id="patch_85" d="M316.357 1153.44a12.974 12.974 0 1 0 0-25.947 12.974 12.974 0 0 0 0 25.947z" clip-path="url(#p04187059df)" style="fill:#ff35ca"/><path id="patch_86" d="M176.217 674.733a10.978 10.978 0 1 0 0-21.956 10.978 10.978 0 0 0 0 21.956z" clip-path="url(#p04187059df)" style="fill:#ff2ad5"/><path id="patch_87" d="M1131.148 169.49a6.986 6.986 0 1 0 0-13.97 6.986 6.986 0 0 0 0 13.97z" clip-path="url(#p04187059df)" style="fill:#ff20df"/><path id="patch_88" d="M1158.17 1034.944a4.99 4.99 0 1 0 0-9.98 4.99 4.99 0 0 0 0 9.98z" clip-path="url(#p04187059df)" style="fill:#ff15ea"/><path id="patch_89" d="M1032.315 161.508a2.994 2.994 0 1 0 0-5.988 2.994 2.994 0 0 0 0 5.988z" clip-path="url(#p04187059df)" style="fill:#ff0af5"/><path id="patch_90" d="M167.236 177.854a1.996 1.996 0 1 0 0-3.992 1.996 1.996 0 0 0 0 3.992z" clip-path="url(#p04187059df)" style="fill:#f0f"/><path id="patch_91" d="M792.052 712.621A96.803 96.803 0 0 0 860.5 684.27a96.803 96.803 0 0 0 28.352-68.447 96.803 96.803 0 0 0-28.352-68.447 96.803 96.803 0 0 0-68.447-28.351 96.803 96.803 0 0 0-68.446 28.351 96.803 96.803 0 0 0-28.352 68.447 96.803 96.803 0 0 0 28.352 68.447 96.803 96.803 0 0 0 68.446 28.351z" clip-path="url(#p04187059df)" style="fill:#ff0"/><path id="patch_92" d="M824.084 193.441a18.961 18.961 0 1 0 0-37.923 18.961 18.961 0 0 0 0 37.923z" clip-path="url(#p04187059df)" style="fill:#ff4ab5"/><path id="patch_93" d="M182.205 888.749a16.965 16.965 0 1 0-.001-33.931 16.965 16.965 0 0 0 0 33.93z" clip-path="url(#p04187059df)" style="fill:#ff40bf"/><path id="patch_94" d="M571.324 1153.44a12.974 12.974 0 1 0 0-25.947 12.974 12.974 0 0 0 0 25.947z" clip-path="url(#p04187059df)" style="fill:#ff35ca"/><path id="patch_95" d="M615.932 177.474a10.978 10.978 0 1 0 0-21.955 10.978 10.978 0 0 0 0 21.955z" clip-path="url(#p04187059df)" style="fill:#ff2ad5"/><path id="patch_96" d="M172.225 301.136a6.986 6.986 0 1 0 0-13.971 6.986 6.986 0 0 0 0 13.971z" clip-path="url(#p04187059df)" style="fill:#ff20df"/><path id="patch_97" d="M1110.316 165.5a4.99 4.99 0 1 0 0-9.98 4.99 4.99 0 0 0 0 9.98z" clip-path="url(#p04187059df)" style="fill:#ff15ea"/><path id="patch_98" d="M1160.166 1042.113a2.994 2.994 0 1 0 0-5.988 2.994 2.994 0 0 0 0 5.988z" clip-path="url(#p04187059df)" style="fill:#ff0af5"/><path id="patch_99" d="M1140.01 159.512a1.996 1.996 0 1 0 0-3.992 1.996 1.996 0 0 0 0 3.992z" clip-path="url(#p04187059df)" style="fill:#f0f"/><path id="patch_100" d="M358.248 588.041a40.917 40.917 0 0 0 40.915-40.914 40.917 40.917 0 0 0-40.915-40.915 40.917 40.917 0 0 0-40.914 40.915 40.917 40.917 0 0 0 40.914 40.914z" clip-path="url(#p04187059df)" style="fill:#ff807f"/><path id="patch_101" d="M760.426 998.696a36.925 36.925 0 0 0 26.109-63.031 36.925 36.925 0 0 0-63.032 26.108 36.925 36.925 0 0 0 36.923 36.923z" clip-path="url(#p04187059df)" style="fill:#ff758a"/><path id="patch_102" d="M772.34 925.904a30.937 30.937 0 0 0 21.875-52.81 30.937 30.937 0 0 0-52.81 21.875 30.937 30.937 0 0 0 30.936 30.935z" clip-path="url(#p04187059df)" style="fill:#ff6a95"/><path id="patch_103" d="M679.177 396.06a28.941 28.941 0 0 0 20.464-49.404 28.941 28.941 0 0 0-49.403 20.464 28.941 28.941 0 0 0 28.94 28.94z" clip-path="url(#p04187059df)" style="fill:#ff609f"/><path id="patch_104" d="M673.04 1091.936a22.953 22.953 0 1 0-.001-45.906 22.953 22.953 0 0 0 0 45.906z" clip-path="url(#p04187059df)" style="fill:#f5a"/><path id="patch_105" d="M992.865 1037.514a18.961 18.961 0 1 0-.001-37.922 18.961 18.961 0 0 0 0 37.922z" clip-path="url(#p04187059df)" style="fill:#ff4ab5"/><path id="patch_106" d="M852.717 496.664a16.965 16.965 0 1 0-.001-33.93 16.965 16.965 0 0 0 0 33.93z" clip-path="url(#p04187059df)" style="fill:#ff40bf"/><path id="patch_107" d="M415.025 1153.44a12.974 12.974 0 1 0 0-25.947 12.974 12.974 0 0 0 0 25.947z" clip-path="url(#p04187059df)" style="fill:#ff35ca"/><path id="patch_108" d="M176.217 495.478a10.978 10.978 0 1 0 0-21.955 10.978 10.978 0 0 0 0 21.955z" clip-path="url(#p04187059df)" style="fill:#ff2ad5"/><path id="patch_109" d="M1156.175 311.31a6.986 6.986 0 1 0 0-13.971 6.986 6.986 0 0 0 0 13.972z" clip-path="url(#p04187059df)" style="fill:#ff20df"/><path id="patch_110" d="M170.23 1129.366a4.99 4.99 0 1 0 0-9.98 4.99 4.99 0 0 0 0 9.98z" clip-path="url(#p04187059df)" style="fill:#ff15ea"/><path id="patch_111" d="M168.234 279.94a2.994 2.994 0 1 0 0-5.987 2.994 2.994 0 0 0 0 5.988z" clip-path="url(#p04187059df)" style="fill:#ff0af5"/><path id="patch_112" d="M1037.204 159.512a1.996 1.996 0 1 0 0-3.992 1.996 1.996 0 0 0 0 3.992z" clip-path="url(#p04187059df)" style="fill:#f0f"/><path id="patch_113" d="M540.736 841.708a72.852 72.852 0 0 0 72.848-72.848 72.852 72.852 0 0 0-72.848-72.848 72.852 72.852 0 0 0-72.848 72.848 72.852 72.852 0 0 0 72.848 72.848z" clip-path="url(#p04187059df)" style="fill:#ffd52a"/><path id="patch_114" d="M466.357 589.617a70.856 70.856 0 0 0 70.852-70.853 70.856 70.856 0 0 0-70.852-70.852 70.856 70.856 0 0 0-70.852 70.852 70.856 70.856 0 0 0 70.852 70.853z" clip-path="url(#p04187059df)" style="fill:#ffca35"/><path id="patch_115" d="M439.164 821.106a30.937 30.937 0 0 0 21.875-52.81 30.937 30.937 0 0 0-52.81 21.875 30.937 30.937 0 0 0 30.935 30.935z" clip-path="url(#p04187059df)" style="fill:#ff6a95"/><path id="patch_116" d="M374.387 867.932a28.941 28.941 0 0 0 20.463-49.403 28.941 28.941 0 0 0-49.403 20.463 28.941 28.941 0 0 0 28.94 28.94z" clip-path="url(#p04187059df)" style="fill:#ff609f"/><path id="patch_117" d="M678.216 1046.325a22.953 22.953 0 1 0 0-45.907 22.953 22.953 0 0 0 0 45.907z" clip-path="url(#p04187059df)" style="fill:#f5a"/><path id="patch_118" d="M305.26 538.209a18.961 18.961 0 1 0-.001-37.923 18.961 18.961 0 0 0 0 37.923z" clip-path="url(#p04187059df)" style="fill:#ff4ab5"/><path id="patch_119" d="M864.14 1153.44a16.965 16.965 0 1 0 0-33.93 16.965 16.965 0 0 0 0 33.93z" clip-path="url(#p04187059df)" style="fill:#ff40bf"/><path id="patch_120" d="M1150.187 888.551a12.974 12.974 0 1 0 0-25.947 12.974 12.974 0 0 0 0 25.947z" clip-path="url(#p04187059df)" style="fill:#ff35ca"/><path id="patch_121" d="M481.624 281.47a10.978 10.978 0 1 0 0-21.955 10.978 10.978 0 0 0 0 21.955z" clip-path="url(#p04187059df)" style="fill:#ff2ad5"/><path id="patch_122" d="M291.01 1153.44a6.986 6.986 0 1 0 0-13.972 6.986 6.986 0 0 0 0 13.972z" clip-path="url(#p04187059df)" style="fill:#ff20df"/><path id="patch_123" d="M170.23 1119.386a4.99 4.99 0 1 0 0-9.98 4.99 4.99 0 0 0 0 9.98z" clip-path="url(#p04187059df)" style="fill:#ff15ea"/><path id="patch_124" d="M1160.166 289.358a2.994 2.994 0 1 0 0-5.987 2.994 2.994 0 0 0 0 5.987z" clip-path="url(#p04187059df)" style="fill:#ff0af5"/><path id="patch_125" d="M1161.164 1098.323a1.996 1.996 0 1 0 0-3.992 1.996 1.996 0 0 0 0 3.992z" clip-path="url(#p04187059df)" style="fill:#f0f"/><path id="patch_126" d="M431.141 984.492a12.974 12.974 0 1 0 0-25.947 12.974 12.974 0 0 0 0 25.947z" clip-path="url(#p04187059df)" style="fill:#ff35ca"/><path id="patch_127" d="M989.378 531a10.978 10.978 0 1 0 0-21.955 10.978 10.978 0 0 0 0 21.955z" clip-path="url(#p04187059df)" style="fill:#ff2ad5"/><path id="patch_128" d="M1032.225 1153.44a6.986 6.986 0 1 0 0-13.972 6.986 6.986 0 0 0 0 13.972z" clip-path="url(#p04187059df)" style="fill:#ff20df"/><path id="patch_129" d="M601.13 165.5a4.99 4.99 0 1 0 0-9.98 4.99 4.99 0 0 0 0 9.98z" clip-path="url(#p04187059df)" style="fill:#ff15ea"/><path id="patch_130" d="M274.801 1153.44a2.994 2.994 0 1 0 0-5.988 2.994 2.994 0 0 0 0 5.988z" clip-path="url(#p04187059df)" style="fill:#ff0af5"/><path id="patch_131" d="M167.236 272.959a1.996 1.996 0 1 0 0-3.992 1.996 1.996 0 0 0 0 3.992z" clip-path="url(#p04187059df)" style="fill:#f0f"/><path id="patch_132" d="M415.812 1000.897a10.978 10.978 0 1 0 0-21.955 10.978 10.978 0 0 0 0 21.955z" clip-path="url(#p04187059df)" style="fill:#ff2ad5"/><path id="patch_133" d="M1131.148 1153.44a6.986 6.986 0 1 0 0-13.972 6.986 6.986 0 0 0 0 13.972z" clip-path="url(#p04187059df)" style="fill:#ff20df"/><path id="patch_134" d="M170.23 653.944a4.99 4.99 0 1 0 0-9.98 4.99 4.99 0 0 0 0 9.98z" clip-path="url(#p04187059df)" style="fill:#ff15ea"/><path id="patch_135" d="M168.234 1108.324a2.994 2.994 0 1 0 0-5.988 2.994 2.994 0 0 0 0 5.988z" clip-path="url(#p04187059df)" style="fill:#ff0af5"/><path id="patch_136" d="M1161.164 282.113a1.996 1.996 0 1 0 0-3.992 1.996 1.996 0 0 0 0 3.992z" clip-path="url(#p04187059df)" style="fill:#f0f"/><path id="patch_137" d="M193.73 169.49a6.986 6.986 0 1 0 0-13.97 6.986 6.986 0 0 0 0 13.97z" clip-path="url(#p04187059df)" style="fill:#ff20df"/><path id="patch_138" d="M396.287 1153.44a4.99 4.99 0 1 0 0-9.98 4.99 4.99 0 0 0 0 9.98z" clip-path="url(#p04187059df)" style="fill:#ff15ea"/><path id="patch_139" d="M1048.839 1153.44a2.994 2.994 0 1 0 0-5.988 2.994 2.994 0 0 0 0 5.988z" clip-path="url(#p04187059df)" style="fill:#ff0af5"/><path id="patch_140" d="M269.163 1153.44a1.996 1.996 0 1 0 0-3.992 1.996 1.996 0 0 0 0 3.992z" clip-path="url(#p04187059df)" style="fill:#f0f"/><path id="patch_141" d="M396.492 984.98a22.953 22.953 0 1 0 0-45.906 22.953 22.953 0 0 0 0 45.906z" clip-path="url(#p04187059df)" style="fill:#f5a"/><path id="patch_142" d="M959.525 315.844a18.961 18.961 0 1 0 0-37.923 18.961 18.961 0 0 0 0 37.923z" clip-path="url(#p04187059df)" style="fill:#ff4ab5"/><path id="patch_143" d="M829.62 525.407a16.965 16.965 0 1 0-.001-33.931 16.965 16.965 0 0 0 0 33.93z" clip-path="url(#p04187059df)" style="fill:#ff40bf"/><path id="patch_144" d="M1150.187 621.503a12.974 12.974 0 1 0 0-25.947 12.974 12.974 0 0 0 0 25.947z" clip-path="url(#p04187059df)" style="fill:#ff35ca"/><path id="patch_145" d="M867.768 1047.786a10.978 10.978 0 1 0 0-21.955 10.978 10.978 0 0 0 0 21.955z" clip-path="url(#p04187059df)" style="fill:#ff2ad5"/><path id="patch_146" d="M172.225 1034.656a6.986 6.986 0 1 0 0-13.972 6.986 6.986 0 0 0 0 13.972z" clip-path="url(#p04187059df)" style="fill:#ff20df"/><path id="patch_147" d="M211.953 165.5a4.99 4.99 0 1 0 0-9.98 4.99 4.99 0 0 0 0 9.98z" clip-path="url(#p04187059df)" style="fill:#ff15ea"/><path id="patch_148" d="M1111.826 1153.44a2.994 2.994 0 1 0 0-5.988 2.994 2.994 0 0 0 0 5.988z" clip-path="url(#p04187059df)" style="fill:#ff0af5"/><path id="patch_149" d="M185.578 159.512a1.996 1.996 0 1 0 0-3.992 1.996 1.996 0 0 0 0 3.992z" clip-path="url(#p04187059df)" style="fill:#f0f"/><path id="patch_150" d="M685.522 825.45A72.852 72.852 0 0 0 758.37 752.6a72.852 72.852 0 0 0-72.848-72.848 72.852 72.852 0 0 0-72.848 72.848 72.852 72.852 0 0 0 72.848 72.848z" clip-path="url(#p04187059df)" style="fill:#ffd52a"/><path id="patch_151" d="M806.998 870.826a60.876 60.876 0 0 0 60.873-60.873 60.876 60.876 0 0 0-60.873-60.873 60.876 60.876 0 0 0-60.873 60.873 60.876 60.876 0 0 0 60.873 60.873z" clip-path="url(#p04187059df)" style="fill:#ffb54a"/><path id="patch_152" d="M1043.935 924.427a22.953 22.953 0 1 0-.001-45.907 22.953 22.953 0 0 0 0 45.907z" clip-path="url(#p04187059df)" style="fill:#f5a"/><path id="patch_153" d="M721.223 1020.56a18.961 18.961 0 1 0 0-37.923 18.961 18.961 0 0 0 0 37.923z" clip-path="url(#p04187059df)" style="fill:#ff4ab5"/><path id="patch_154" d="M1054.876 463.664a10.978 10.978 0 1 0 0-21.956 10.978 10.978 0 0 0 0 21.956z" clip-path="url(#p04187059df)" style="fill:#ff2ad5"/><path id="patch_155" d="M303.871 169.49a6.986 6.986 0 1 0 0-13.97 6.986 6.986 0 0 0 0 13.97z" clip-path="url(#p04187059df)" style="fill:#ff20df"/><path id="patch_156" d="M555.233 1153.44a4.99 4.99 0 1 0 0-9.98 4.99 4.99 0 0 0 0 9.98z" clip-path="url(#p04187059df)" style="fill:#ff15ea"/><path id="patch_157" d="M1100.408 161.508a2.994 2.994 0 1 0 0-5.988 2.994 2.994 0 0 0 0 5.988z" clip-path="url(#p04187059df)" style="fill:#ff0af5"/><path id="patch_158" d="M1140.01 1153.44a1.996 1.996 0 1 0 0-3.992 1.996 1.996 0 0 0 0 3.992z" clip-path="url(#p04187059df)" style="fill:#f0f"/><path id="patch_159" d="M572.425 393.957a10.978 10.978 0 1 0 0-21.955 10.978 10.978 0 0 0 0 21.955z" clip-path="url(#p04187059df)" style="fill:#ff2ad5"/><path id="patch_160" d="M957.663 169.49a6.986 6.986 0 1 0 0-13.97 6.986 6.986 0 0 0 0 13.97z" clip-path="url(#p04187059df)" style="fill:#ff20df"/><path id="patch_161" d="M316.674 165.5a4.99 4.99 0 1 0 0-9.98 4.99 4.99 0 0 0 0 9.98z" clip-path="url(#p04187059df)" style="fill:#ff15ea"/><path id="patch_162" d="M213.35 1153.44a2.994 2.994 0 1 0 0-5.988 2.994 2.994 0 0 0 0 5.988z" clip-path="url(#p04187059df)" style="fill:#ff0af5"/><path id="patch_163" d="M1094.16 159.512a1.996 1.996 0 1 0 0-3.992 1.996 1.996 0 0 0 0 3.992z" clip-path="url(#p04187059df)" style="fill:#f0f"/><path id="patch_164" d="M614.556 541.133a78.84 78.84 0 0 0 78.836-78.835 78.84 78.84 0 0 0-78.836-78.836 78.84 78.84 0 0 0-78.835 78.836 78.84 78.84 0 0 0 78.835 78.835z" clip-path="url(#p04187059df)" style="fill:#ffe01f"/><path id="patch_165" d="M563.435 697.564a72.852 72.852 0 0 0 72.848-72.848 72.852 72.852 0 0 0-72.848-72.849 72.852 72.852 0 0 0-72.848 72.849 72.852 72.852 0 0 0 72.848 72.848z" clip-path="url(#p04187059df)" style="fill:#ffd52a"/><path id="patch_166" d="M405.548 318.865a10.978 10.978 0 1 0 0-21.955 10.978 10.978 0 0 0 0 21.955z" clip-path="url(#p04187059df)" style="fill:#ff2ad5"/><path id="patch_167" d="M172.225 737.51a6.986 6.986 0 1 0 0-13.972 6.986 6.986 0 0 0 0 13.972z" clip-path="url(#p04187059df)" style="fill:#ff20df"/><path id="patch_168" d="M335.095 1153.44a4.99 4.99 0 1 0 0-9.98 4.99 4.99 0 0 0 0 9.98z" clip-path="url(#p04187059df)" style="fill:#ff15ea"/><path id="patch_169" d="M221.443 161.508a2.994 2.994 0 1 0 0-5.988 2.994 2.994 0 0 0 0 5.988z" clip-path="url(#p04187059df)" style="fill:#ff0af5"/><path id="patch_170" d="M1106.047 1153.44a1.996 1.996 0 1 0 0-3.992 1.996 1.996 0 0 0 0 3.992z" clip-path="url(#p04187059df)" style="fill:#f0f"/><path id="patch_171" d="M1156.175 901.603a6.986 6.986 0 1 0 0-13.972 6.986 6.986 0 0 0 0 13.972z" clip-path="url(#p04187059df)" style="fill:#ff20df"/><path id="patch_172" d="M1158.17 631.417a4.99 4.99 0 1 0 0-9.98 4.99 4.99 0 0 0 0 9.98z" clip-path="url(#p04187059df)" style="fill:#ff15ea"/><path id="patch_173" d="M286.667 161.508a2.994 2.994 0 1 0 0-5.988 2.994 2.994 0 0 0 0 5.988z" clip-path="url(#p04187059df)" style="fill:#ff0af5"/><path id="patch_174" d="M1161.164 1046.894a1.996 1.996 0 1 0 0-3.992 1.996 1.996 0 0 0 0 3.992z" clip-path="url(#p04187059df)" style="fill:#f0f"/><path id="patch_175" d="M538.279 867.735a10.978 10.978 0 1 0 0-21.955 10.978 10.978 0 0 0 0 21.955z" clip-path="url(#p04187059df)" style="fill:#ff2ad5"/><path id="patch_176" d="M359.145 169.49a6.986 6.986 0 1 0 0-13.97 6.986 6.986 0 0 0 0 13.97z" clip-path="url(#p04187059df)" style="fill:#ff20df"/><path id="patch_177" d="M1158.17 864.477a4.99 4.99 0 1 0 0-9.98 4.99 4.99 0 0 0 0 9.98z" clip-path="url(#p04187059df)" style="fill:#ff15ea"/><path id="patch_178" d="M168.234 1046.873a2.994 2.994 0 1 0 0-5.988 2.994 2.994 0 0 0 0 5.988z" clip-path="url(#p04187059df)" style="fill:#ff0af5"/><path id="patch_179" d="M280.683 159.512a1.996 1.996 0 1 0 0-3.992 1.996 1.996 0 0 0 0 3.992z" clip-path="url(#p04187059df)" style="fill:#f0f"/><path id="patch_180" d="M482.814 612.737a10.978 10.978 0 1 0 0-21.955 10.978 10.978 0 0 0 0 21.955z" clip-path="url(#p04187059df)" style="fill:#ff2ad5"/><path id="patch_181" d="M172.225 841.523a6.986 6.986 0 1 0 0-13.971 6.986 6.986 0 0 0 0 13.971z" clip-path="url(#p04187059df)" style="fill:#ff20df"/><path id="patch_182" d="M1000.133 165.5a4.99 4.99 0 1 0 0-9.98 4.99 4.99 0 0 0 0 9.98z" clip-path="url(#p04187059df)" style="fill:#ff15ea"/><path id="patch_183" d="M1160.166 846.624a2.994 2.994 0 1 0 0-5.987 2.994 2.994 0 0 0 0 5.987z" clip-path="url(#p04187059df)" style="fill:#ff0af5"/><path id="patch_184" d="M167.236 1051.513a1.996 1.996 0 1 0 0-3.992 1.996 1.996 0 0 0 0 3.992z" clip-path="url(#p04187059df)" style="fill:#f0f"/><path id="patch_185" d="M370.82 810.205a12.974 12.974 0 1 0 0-25.947 12.974 12.974 0 0 0 0 25.947z" clip-path="url(#p04187059df)" style="fill:#ff35ca"/><path id="patch_186" d="M615.796 817.155a10.978 10.978 0 1 0 0-21.955 10.978 10.978 0 0 0 0 21.955z" clip-path="url(#p04187059df)" style="fill:#ff2ad5"/><path id="patch_187" d="M172.225 548.557a6.986 6.986 0 1 0 0-13.972 6.986 6.986 0 0 0 0 13.972z" clip-path="url(#p04187059df)" style="fill:#ff20df"/><path id="patch_188" d="M545.254 1153.44a4.99 4.99 0 1 0 0-9.98 4.99 4.99 0 0 0 0 9.98z" clip-path="url(#p04187059df)" style="fill:#ff15ea"/><path id="patch_189" d="M1160.166 906.757a2.994 2.994 0 1 0 0-5.988 2.994 2.994 0 0 0 0 5.988z" clip-path="url(#p04187059df)" style="fill:#ff0af5"/><path id="patch_190" d="M218.988 1153.44a1.996 1.996 0 1 0 0-3.992 1.996 1.996 0 0 0 0 3.992z" clip-path="url(#p04187059df)" style="fill:#f0f"/><path id="patch_191" d="M506.817 702.184a12.974 12.974 0 1 0 0-25.947 12.974 12.974 0 0 0 0 25.947z" clip-path="url(#p04187059df)" style="fill:#ff35ca"/><path id="patch_192" d="M1009.945 615.955a10.978 10.978 0 1 0 0-21.955 10.978 10.978 0 0 0 0 21.955z" clip-path="url(#p04187059df)" style="fill:#ff2ad5"/><path id="patch_193" d="M172.225 901.799a6.986 6.986 0 1 0 0-13.972 6.986 6.986 0 0 0 0 13.972z" clip-path="url(#p04187059df)" style="fill:#ff20df"/><path id="patch_194" d="M370.952 165.5a4.99 4.99 0 1 0 0-9.98 4.99 4.99 0 0 0 0 9.98z" clip-path="url(#p04187059df)" style="fill:#ff15ea"/><path id="patch_195" d="M1160.166 316.465a2.994 2.994 0 1 0 0-5.988 2.994 2.994 0 0 0 0 5.988z" clip-path="url(#p04187059df)" style="fill:#ff0af5"/><path id="patch_196" d="M167.236 1101.687a1.996 1.996 0 1 0 0-3.991 1.996 1.996 0 0 0 0 3.991z" clip-path="url(#p04187059df)" style="fill:#f0f"/><path id="patch_197" d="M725.06 862.814a22.953 22.953 0 1 0 0-45.906 22.953 22.953 0 0 0 0 45.906z" clip-path="url(#p04187059df)" style="fill:#f5a"/><path id="patch_198" d="M1002.024 920.787a18.961 18.961 0 1 0-.001-37.922 18.961 18.961 0 0 0 0 37.922z" clip-path="url(#p04187059df)" style="fill:#ff4ab5"/><path id="patch_199" d="M552.552 552.53a16.965 16.965 0 1 0 0-33.932 16.965 16.965 0 0 0 0 33.931z" clip-path="url(#p04187059df)" style="fill:#ff40bf"/><path id="patch_200" d="M371.232 784.262a12.974 12.974 0 1 0 0-25.947 12.974 12.974 0 0 0 0 25.947z" clip-path="url(#p04187059df)" style="fill:#ff35ca"/><path id="patch_201" d="M621.837 291.73a10.978 10.978 0 1 0 0-21.956 10.978 10.978 0 0 0 0 21.955z" clip-path="url(#p04187059df)" style="fill:#ff2ad5"/><path id="patch_202" d="M888.276 1153.44a6.986 6.986 0 1 0 0-13.972 6.986 6.986 0 0 0 0 13.972z" clip-path="url(#p04187059df)" style="fill:#ff20df"/><path id="patch_203" d="M1158.17 780.954a4.99 4.99 0 1 0 0-9.98 4.99 4.99 0 0 0 0 9.98z" clip-path="url(#p04187059df)" style="fill:#ff15ea"/><path id="patch_204" d="M168.234 1018.71a2.994 2.994 0 1 0 0-5.988 2.994 2.994 0 0 0 0 5.988z" clip-path="url(#p04187059df)" style="fill:#ff0af5"/><path id="patch_205" d="M1054.618 1153.44a1.996 1.996 0 1 0 0-3.992 1.996 1.996 0 0 0 0 3.992z" clip-path="url(#p04187059df)" style="fill:#f0f"/><path id="patch_206" d="M1156.175 369.73a6.986 6.986 0 1 0 0-13.972 6.986 6.986 0 0 0 0 13.972z" clip-path="url(#p04187059df)" style="fill:#ff20df"/><path id="patch_207" d="M1158.17 597.429a4.99 4.99 0 1 0 0-9.98 4.99 4.99 0 0 0 0 9.98z" clip-path="url(#p04187059df)" style="fill:#ff15ea"/><path id="patch_208" d="M168.234 828.386a2.994 2.994 0 1 0 0-5.988 2.994 2.994 0 0 0 0 5.988z" clip-path="url(#p04187059df)" style="fill:#ff0af5"/><path id="patch_209" d="M227.427 159.512a1.996 1.996 0 1 0 0-3.992 1.996 1.996 0 0 0 0 3.992z" clip-path="url(#p04187059df)" style="fill:#f0f"/><path id="patch_210" d="M974.721 1153.44a6.986 6.986 0 1 0 0-13.972 6.986 6.986 0 0 0 0 13.972z" clip-path="url(#p04187059df)" style="fill:#ff20df"/><path id="patch_211" d="M170.23 558.369a4.99 4.99 0 1 0 0-9.98 4.99 4.99 0 0 0 0 9.98z" clip-path="url(#p04187059df)" style="fill:#ff15ea"/><path id="patch_212" d="M168.234 1040.885a2.994 2.994 0 1 0 0-5.988 2.994 2.994 0 0 0 0 5.988z" clip-path="url(#p04187059df)" style="fill:#ff0af5"/><path id="patch_213" d="M167.236 219.703a1.996 1.996 0 1 0 0-3.992 1.996 1.996 0 0 0 0 3.992z" clip-path="url(#p04187059df)" style="fill:#f0f"/><path id="patch_214" d="M1156.175 697.5a6.986 6.986 0 1 0 0-13.972 6.986 6.986 0 0 0 0 13.971z" clip-path="url(#p04187059df)" style="fill:#ff20df"/><path id="patch_215" d="M986.962 1153.44a4.99 4.99 0 1 0 0-9.98 4.99 4.99 0 0 0 0 9.98z" clip-path="url(#p04187059df)" style="fill:#ff15ea"/><path id="patch_216" d="M1160.166 916.066a2.994 2.994 0 1 0 0-5.988 2.994 2.994 0 0 0 0 5.988z" clip-path="url(#p04187059df)" style="fill:#ff0af5"/><path id="patch_217" d="M1161.164 226.515a1.996 1.996 0 1 0 0-3.992 1.996 1.996 0 0 0 0 3.992z" clip-path="url(#p04187059df)" style="fill:#f0f"/><path id="patch_218" d="M464.314 169.49a6.986 6.986 0 1 0 0-13.97 6.986 6.986 0 0 0 0 13.97z" clip-path="url(#p04187059df)" style="fill:#ff20df"/><path id="patch_219" d="M170.23 721.292a4.99 4.99 0 1 0 0-9.98 4.99 4.99 0 0 0 0 9.98z" clip-path="url(#p04187059df)" style="fill:#ff15ea"/><path id="patch_220" d="M680.94 1153.44a2.994 2.994 0 1 0 0-5.988 2.994 2.994 0 0 0 0 5.988z" clip-path="url(#p04187059df)" style="fill:#ff0af5"/><path id="patch_221" d="M348.43 159.512a1.996 1.996 0 1 0 0-3.992 1.996 1.996 0 0 0 0 3.992z" clip-path="url(#p04187059df)" style="fill:#f0f"/><path id="patch_222" d="M348.371 287.914a10.978 10.978 0 1 0 0-21.955 10.978 10.978 0 0 0 0 21.955z" clip-path="url(#p04187059df)" style="fill:#ff2ad5"/><path id="patch_223" d="M1156.175 993a6.986 6.986 0 1 0 0-13.972 6.986 6.986 0 0 0 0 13.971z" clip-path="url(#p04187059df)" style="fill:#ff20df"/><path id="patch_224" d="M452.506 165.5a4.99 4.99 0 1 0 0-9.98 4.99 4.99 0 0 0 0 9.98z" clip-path="url(#p04187059df)" style="fill:#ff15ea"/><path id="patch_225" d="M168.234 502.662a2.994 2.994 0 1 0 0-5.988 2.994 2.994 0 0 0 0 5.988z" clip-path="url(#p04187059df)" style="fill:#ff0af5"/><path id="patch_226" d="M341.407 1153.44a1.996 1.996 0 1 0 0-3.992 1.996 1.996 0 0 0 0 3.992z" clip-path="url(#p04187059df)" style="fill:#f0f"/><path id="patch_227" d="M458.434 763.928a10.978 10.978 0 1 0 0-21.955 10.978 10.978 0 0 0 0 21.955z" clip-path="url(#p04187059df)" style="fill:#ff2ad5"/><path id="patch_228" d="M847.102 169.49a6.986 6.986 0 1 0 0-13.97 6.986 6.986 0 0 0 0 13.97z" clip-path="url(#p04187059df)" style="fill:#ff20df"/><path id="patch_229" d="M1158.17 975.718a4.99 4.99 0 1 0 0-9.98 4.99 4.99 0 0 0 0 9.98z" clip-path="url(#p04187059df)" style="fill:#ff15ea"/><path id="patch_230" d="M294.725 161.508a2.994 2.994 0 1 0 0-5.988 2.994 2.994 0 0 0 0 5.988z" clip-path="url(#p04187059df)" style="fill:#ff0af5"/><path id="patch_231" d="M993.822 159.512a1.996 1.996 0 1 0 0-3.992 1.996 1.996 0 0 0 0 3.992z" clip-path="url(#p04187059df)" style="fill:#f0f"/><path id="patch_232" d="M172.225 315.107a6.986 6.986 0 1 0 0-13.971 6.986 6.986 0 0 0 0 13.971z" clip-path="url(#p04187059df)" style="fill:#ff20df"/><path id="patch_233" d="M860.284 165.5a4.99 4.99 0 1 0 0-9.98 4.99 4.99 0 0 0 0 9.98z" clip-path="url(#p04187059df)" style="fill:#ff15ea"/><path id="patch_234" d="M1122.002 161.508a2.994 2.994 0 1 0 0-5.988 2.994 2.994 0 0 0 0 5.988z" clip-path="url(#p04187059df)" style="fill:#ff0af5"/><path id="patch_235" d="M345.398 1153.44a1.996 1.996 0 1 0 0-3.992 1.996 1.996 0 0 0 0 3.992z" clip-path="url(#p04187059df)" style="fill:#f0f"/><path id="patch_236" d="M726.544 1153.44a6.986 6.986 0 1 0 0-13.972 6.986 6.986 0 0 0 0 13.972z" clip-path="url(#p04187059df)" style="fill:#ff20df"/><path id="patch_237" d="M494.094 594.342a4.99 4.99 0 1 0 0-9.98 4.99 4.99 0 0 0 0 9.98z" clip-path="url(#p04187059df)" style="fill:#ff15ea"/><path id="patch_238" d="M303.893 1153.44a2.994 2.994 0 1 0 0-5.988 2.994 2.994 0 0 0 0 5.988z" clip-path="url(#p04187059df)" style="fill:#ff0af5"/><path id="patch_239" d="M836.388 159.512a1.996 1.996 0 1 0 0-3.992 1.996 1.996 0 0 0 0 3.992z" clip-path="url(#p04187059df)" style="fill:#f0f"/><path id="patch_240" d="M872.63 850.17a10.978 10.978 0 1 0-.001-21.955 10.978 10.978 0 0 0 0 21.955z" clip-path="url(#p04187059df)" style="fill:#ff2ad5"/><path id="patch_241" d="M833.23 1153.44a6.986 6.986 0 1 0 0-13.972 6.986 6.986 0 0 0 0 13.972z" clip-path="url(#p04187059df)" style="fill:#ff20df"/><path id="patch_242" d="M738.352 1153.44a4.99 4.99 0 1 0 0-9.98 4.99 4.99 0 0 0 0 9.98z" clip-path="url(#p04187059df)" style="fill:#ff15ea"/><path id="patch_243" d="M1160.166 684.362a2.994 2.994 0 1 0 0-5.988 2.994 2.994 0 0 0 0 5.988z" clip-path="url(#p04187059df)" style="fill:#ff0af5"/><path id="patch_244" d="M167.236 725.052a1.996 1.996 0 1 0 0-3.992 1.996 1.996 0 0 0 0 3.992z" clip-path="url(#p04187059df)" style="fill:#f0f"/><path id="patch_245" d="M1156.175 451.727a6.986 6.986 0 1 0 0-13.972 6.986 6.986 0 0 0 0 13.972z" clip-path="url(#p04187059df)" style="fill:#ff20df"/><path id="patch_246" d="M845.037 1153.44a4.99 4.99 0 1 0 0-9.98 4.99 4.99 0 0 0 0 9.98z" clip-path="url(#p04187059df)" style="fill:#ff15ea"/><path id="patch_247" d="M1160.166 703.328a2.994 2.994 0 1 0 0-5.988 2.994 2.994 0 0 0 0 5.988z" clip-path="url(#p04187059df)" style="fill:#ff0af5"/><path id="patch_248" d="M1161.164 966.413a1.996 1.996 0 1 0 0-3.992 1.996 1.996 0 0 0 0 3.992z" clip-path="url(#p04187059df)" style="fill:#f0f"/><path id="patch_249" d="M801.067 169.49a6.986 6.986 0 1 0 0-13.97 6.986 6.986 0 0 0 0 13.97z" clip-path="url(#p04187059df)" style="fill:#ff20df"/><path id="patch_250" d="M965.71 272.473a4.99 4.99 0 1 0 0-9.98 4.99 4.99 0 0 0 0 9.98z" clip-path="url(#p04187059df)" style="fill:#ff15ea"/><path id="patch_251" d="M629.717 161.508a2.994 2.994 0 1 0 0-5.988 2.994 2.994 0 0 0 0 5.988z" clip-path="url(#p04187059df)" style="fill:#ff0af5"/><path id="patch_252" d="M328.784 1153.44a1.996 1.996 0 1 0 0-3.992 1.996 1.996 0 0 0 0 3.992z" clip-path="url(#p04187059df)" style="fill:#f0f"/><path id="patch_253" d="M590.363 1153.44a6.986 6.986 0 1 0 0-13.972 6.986 6.986 0 0 0 0 13.972z" clip-path="url(#p04187059df)" style="fill:#ff20df"/><path id="patch_254" d="M791.018 930.647a4.99 4.99 0 1 0 0-9.98 4.99 4.99 0 0 0 0 9.98z" clip-path="url(#p04187059df)" style="fill:#ff15ea"/><path id="patch_255" d="M746.082 1153.44a2.994 2.994 0 1 0 0-5.988 2.994 2.994 0 0 0 0 5.988z" clip-path="url(#p04187059df)" style="fill:#ff0af5"/><path id="patch_256" d="M714.756 1153.44a1.996 1.996 0 1 0 0-3.992 1.996 1.996 0 0 0 0 3.992z" clip-path="url(#p04187059df)" style="fill:#f0f"/><path id="patch_257" d="M526.925 963.084a12.974 12.974 0 1 0 0-25.947 12.974 12.974 0 0 0 0 25.947z" clip-path="url(#p04187059df)" style="fill:#ff35ca"/><path id="patch_258" d="M801.678 519.455a10.978 10.978 0 1 0 0-21.955 10.978 10.978 0 0 0 0 21.955z" clip-path="url(#p04187059df)" style="fill:#ff2ad5"/><path id="patch_259" d="M172.225 473.973a6.986 6.986 0 1 0 0-13.971 6.986 6.986 0 0 0 0 13.971z" clip-path="url(#p04187059df)" style="fill:#ff20df"/><path id="patch_260" d="M442.534 759.393a4.99 4.99 0 1 0 0-9.98 4.99 4.99 0 0 0 0 9.98z" clip-path="url(#p04187059df)" style="fill:#ff15ea"/><path id="patch_261" d="M1122.002 1153.44a2.994 2.994 0 1 0 0-5.988 2.994 2.994 0 0 0 0 5.988z" clip-path="url(#p04187059df)" style="fill:#ff0af5"/><path id="patch_262" d="M965.13 159.512a1.996 1.996 0 1 0 0-3.992 1.996 1.996 0 0 0 0 3.992z" clip-path="url(#p04187059df)" style="fill:#f0f"/><path id="patch_263" d="M172.225 856.997a6.986 6.986 0 1 0 0-13.971 6.986 6.986 0 0 0 0 13.971z" clip-path="url(#p04187059df)" style="fill:#ff20df"/><path id="patch_264" d="M170.23 460.17a4.99 4.99 0 1 0 0-9.98 4.99 4.99 0 0 0 0 9.98z" clip-path="url(#p04187059df)" style="fill:#ff15ea"/><path id="patch_265" d="M1160.166 786.688a2.994 2.994 0 1 0 0-5.988 2.994 2.994 0 0 0 0 5.988z" clip-path="url(#p04187059df)" style="fill:#ff0af5"/><path id="patch_266" d="M718.748 1153.44a1.996 1.996 0 1 0 0-3.992 1.996 1.996 0 0 0 0 3.992z" clip-path="url(#p04187059df)" style="fill:#f0f"/><path id="patch_267" d="M373.564 507.863a30.937 30.937 0 0 0 21.875-52.81 30.937 30.937 0 0 0-52.81 21.875 30.937 30.937 0 0 0 30.935 30.935z" clip-path="url(#p04187059df)" style="fill:#ff6a95"/><path id="patch_268" d="M910.743 686.268a28.941 28.941 0 0 0 20.463-49.404 28.941 28.941 0 0 0-49.403 20.464 28.941 28.941 0 0 0 28.94 28.94z" clip-path="url(#p04187059df)" style="fill:#ff609f"/><path id="patch_269" d="M955.736 1023.487a12.974 12.974 0 1 0 0-25.947 12.974 12.974 0 0 0 0 25.947z" clip-path="url(#p04187059df)" style="fill:#ff35ca"/><path id="patch_270" d="M948.702 655.958a10.978 10.978 0 1 0 0-21.955 10.978 10.978 0 0 0 0 21.955z" clip-path="url(#p04187059df)" style="fill:#ff2ad5"/><path id="patch_271" d="M507.858 169.49a6.986 6.986 0 1 0 0-13.97 6.986 6.986 0 0 0 0 13.97z" clip-path="url(#p04187059df)" style="fill:#ff20df"/><path id="patch_272" d="M1050.276 442.386a4.99 4.99 0 1 0 0-9.98 4.99 4.99 0 0 0 0 9.98z" clip-path="url(#p04187059df)" style="fill:#ff15ea"/><path id="patch_273" d="M1160.166 587.703a2.994 2.994 0 1 0 0-5.988 2.994 2.994 0 0 0 0 5.988z" clip-path="url(#p04187059df)" style="fill:#ff0af5"/><path id="patch_274" d="M167.236 885.418a1.996 1.996 0 1 0 0-3.992 1.996 1.996 0 0 0 0 3.992z" clip-path="url(#p04187059df)" style="fill:#f0f"/><path id="patch_275" d="M306.788 695.268a12.974 12.974 0 1 0 0-25.947 12.974 12.974 0 0 0 0 25.947z" clip-path="url(#p04187059df)" style="fill:#ff35ca"/><path id="patch_276" d="M699.222 1107.595a10.978 10.978 0 1 0 0-21.956 10.978 10.978 0 0 0 0 21.956z" clip-path="url(#p04187059df)" style="fill:#ff2ad5"/><path id="patch_277" d="M943.692 169.49a6.986 6.986 0 1 0 0-13.97 6.986 6.986 0 0 0 0 13.97z" clip-path="url(#p04187059df)" style="fill:#ff20df"/><path id="patch_278" d="M190.32 178.974a4.99 4.99 0 1 0 0-9.98 4.99 4.99 0 0 0 0 9.98z" clip-path="url(#p04187059df)" style="fill:#ff15ea"/><path id="patch_279" d="M441.837 161.508a2.994 2.994 0 1 0 0-5.988 2.994 2.994 0 0 0 0 5.988z" clip-path="url(#p04187059df)" style="fill:#ff0af5"/><path id="patch_280" d="M1161.164 960.783a1.996 1.996 0 1 0 0-3.992 1.996 1.996 0 0 0 0 3.992z" clip-path="url(#p04187059df)" style="fill:#f0f"/><path id="patch_281" d="M1156.175 501.848a6.986 6.986 0 1 0 0-13.971 6.986 6.986 0 0 0 0 13.971z" clip-path="url(#p04187059df)" style="fill:#ff20df"/><path id="patch_282" d="M938.294 1019.796a4.99 4.99 0 1 0 0-9.98 4.99 4.99 0 0 0 0 9.98z" clip-path="url(#p04187059df)" style="fill:#ff15ea"/><path id="patch_283" d="M1160.166 356.592a2.994 2.994 0 1 0 0-5.988 2.994 2.994 0 0 0 0 5.988z" clip-path="url(#p04187059df)" style="fill:#ff0af5"/><path id="patch_284" d="M808.535 159.512a1.996 1.996 0 1 0 0-3.992 1.996 1.996 0 0 0 0 3.992z" clip-path="url(#p04187059df)" style="fill:#f0f"/><path id="patch_285" d="M172.225 366.944a6.986 6.986 0 1 0 0-13.971 6.986 6.986 0 0 0 0 13.971z" clip-path="url(#p04187059df)" style="fill:#ff20df"/><path id="patch_286" d="M391.255 513.185a4.99 4.99 0 1 0 0-9.98 4.99 4.99 0 0 0 0 9.98z" clip-path="url(#p04187059df)" style="fill:#ff15ea"/><path id="patch_287" d="M1160.166 1115.276a2.994 2.994 0 1 0 0-5.988 2.994 2.994 0 0 0 0 5.988z" clip-path="url(#p04187059df)" style="fill:#ff0af5"/><path id="patch_288" d="M852.503 1153.44a1.996 1.996 0 1 0 0-3.992 1.996 1.996 0 0 0 0 3.992z" clip-path="url(#p04187059df)" style="fill:#f0f"/><path id="patch_289" d="M667.803 169.49a6.986 6.986 0 1 0 0-13.97 6.986 6.986 0 0 0 0 13.97z" clip-path="url(#p04187059df)" style="fill:#ff20df"/><path id="patch_290" d="M841.44 1142.727a4.99 4.99 0 1 0 0-9.98 4.99 4.99 0 0 0 0 9.98z" clip-path="url(#p04187059df)" style="fill:#ff15ea"/><path id="patch_291" d="M1160.166 432.851a2.994 2.994 0 1 0 0-5.988 2.994 2.994 0 0 0 0 5.988z" clip-path="url(#p04187059df)" style="fill:#ff0af5"/><path id="patch_292" d="M471.782 159.512a1.996 1.996 0 1 0 0-3.992 1.996 1.996 0 0 0 0 3.992z" clip-path="url(#p04187059df)" style="fill:#f0f"/><path id="patch_293" d="M172.225 380.915a6.986 6.986 0 1 0 0-13.972 6.986 6.986 0 0 0 0 13.972z" clip-path="url(#p04187059df)" style="fill:#ff20df"/><path id="patch_294" d="M686.513 165.5a4.99 4.99 0 1 0 0-9.98 4.99 4.99 0 0 0 0 9.98z" clip-path="url(#p04187059df)" style="fill:#ff15ea"/><path id="patch_295" d="M879.13 1153.44a2.994 2.994 0 1 0 0-5.988 2.994 2.994 0 0 0 0 5.988z" clip-path="url(#p04187059df)" style="fill:#ff0af5"/><path id="patch_296" d="M1161.164 791.975a1.996 1.996 0 1 0 0-3.992 1.996 1.996 0 0 0 0 3.992z" clip-path="url(#p04187059df)" style="fill:#f0f"/><path id="patch_297" d="M968.994 1001.545a10.978 10.978 0 1 0 0-21.955 10.978 10.978 0 0 0 0 21.955z" clip-path="url(#p04187059df)" style="fill:#ff2ad5"/><path id="patch_298" d="M787.096 169.49a6.986 6.986 0 1 0 0-13.97 6.986 6.986 0 0 0 0 13.97z" clip-path="url(#p04187059df)" style="fill:#ff20df"/><path id="patch_299" d="M170.23 390.727a4.99 4.99 0 1 0 0-9.98 4.99 4.99 0 0 0 0 9.98z" clip-path="url(#p04187059df)" style="fill:#ff15ea"/><path id="patch_300" d="M1023.079 1153.44a2.994 2.994 0 1 0 0-5.988 2.994 2.994 0 0 0 0 5.988z" clip-path="url(#p04187059df)" style="fill:#ff0af5"/><path id="patch_301" d="M1006.444 159.512a1.996 1.996 0 1 0 0-3.992 1.996 1.996 0 0 0 0 3.992z" clip-path="url(#p04187059df)" style="fill:#f0f"/><path id="patch_302" d="M434.064 1153.44a6.986 6.986 0 1 0 0-13.972 6.986 6.986 0 0 0 0 13.972z" clip-path="url(#p04187059df)" style="fill:#ff20df"/><path id="patch_303" d="M774.421 165.5a4.99 4.99 0 1 0 0-9.98 4.99 4.99 0 0 0 0 9.98z" clip-path="url(#p04187059df)" style="fill:#ff15ea"/><path id="patch_304" d="M1160.166 678.374a2.994 2.994 0 1 0 0-5.988 2.994 2.994 0 0 0 0 5.988z" clip-path="url(#p04187059df)" style="fill:#ff0af5"/><path id="patch_305" d="M323.824 159.512a1.996 1.996 0 1 0 0-3.992 1.996 1.996 0 0 0 0 3.992z" clip-path="url(#p04187059df)" style="fill:#f0f"/><path id="patch_306" d="M933.582 857.645a66.864 66.864 0 0 0 66.86-66.86 66.864 66.864 0 0 0-66.86-66.862 66.864 66.864 0 0 0-66.86 66.861 66.864 66.864 0 0 0 66.86 66.86z" clip-path="url(#p04187059df)" style="fill:#ffc03f"/><path id="patch_307" d="M1019.103 887.186a16.965 16.965 0 1 0 0-33.93 16.965 16.965 0 0 0 0 33.93z" clip-path="url(#p04187059df)" style="fill:#ff40bf"/><path id="patch_308" d="M331.146 513.523a12.974 12.974 0 1 0 0-25.947 12.974 12.974 0 0 0 0 25.947z" clip-path="url(#p04187059df)" style="fill:#ff35ca"/><path id="patch_309" d="M404.047 1019.433a10.978 10.978 0 1 0 0-21.955 10.978 10.978 0 0 0 0 21.955z" clip-path="url(#p04187059df)" style="fill:#ff2ad5"/><g id="matplotlib.axis_1"><g id="xtick_1"><g id="line2d_1"><defs><path id="m29b60ea522" d="M0 0v3.5" style="stroke:#000;stroke-width:.8"/></defs><use xlink:href="#m29b60ea522" x="165.24" y="1153.44" style="stroke:#000;stroke-width:.8"/></g><g id="text_1" transform="matrix(.1 0 0 -.1 162.059 1168.038)"><defs><path id="DejaVuSans-30" d="M2034 4250q-487 0-733-480-245-479-245-1442 0-959 245-1439 246-480 733-480 491 0 736 480 246 480 246 1439 0 963-246 1442-245 480-736 480zm0 500q785 0 1199-621 414-620 414-1801 0-1178-414-1799Q2819-91 2034-91q-784 0-1198 620-414 621-414 1799 0 1181 414 1801 414 621 1198 621z" transform="scale(.01563)"/></defs><use xlink:href="#DejaVuSans-30"/></g></g><g id="xtick_2"><use xlink:href="#m29b60ea522" id="line2d_2" x="364.824" y="1153.44" style="stroke:#000;stroke-width:.8"/><g id="text_2" transform="matrix(.1 0 0 -.1 355.28 1168.038)"><defs><path id="DejaVuSans-32" d="M1228 531h2203V0H469v531q359 372 979 998 621 627 780 809 303 340 423 576 121 236 121 464 0 372-261 606-261 235-680 235-297 0-627-103-329-103-704-313v638q381 153 712 231 332 78 607 78 725 0 1156-363 431-362 431-968 0-288-108-546-107-257-392-607-78-91-497-524-418-433-1181-1211z" transform="scale(.01563)"/></defs><use xlink:href="#DejaVuSans-32"/><use xlink:href="#DejaVuSans-30" x="63.623"/><use xlink:href="#DejaVuSans-30" x="127.246"/></g></g><g id="xtick_3"><use xlink:href="#m29b60ea522" id="line2d_3" x="564.408" y="1153.44" style="stroke:#000;stroke-width:.8"/><g id="text_3" transform="matrix(.1 0 0 -.1 554.864 1168.038)"><defs><path id="DejaVuSans-34" d="M2419 4116 825 1625h1594v2491zm-166 550h794V1625h666v-525h-666V0h-628v1100H313v609l1940 2957z" transform="scale(.01563)"/></defs><use xlink:href="#DejaVuSans-34"/><use xlink:href="#DejaVuSans-30" x="63.623"/><use xlink:href="#DejaVuSans-30" x="127.246"/></g></g><g id="xtick_4"><use xlink:href="#m29b60ea522" id="line2d_4" x="763.992" y="1153.44" style="stroke:#000;stroke-width:.8"/><g id="text_4" transform="matrix(.1 0 0 -.1 754.448 1168.038)"><defs><path id="DejaVuSans-36" d="M2113 2584q-425 0-674-291-248-290-248-796 0-503 248-796 249-292 674-292t673 292q248 293 248 796 0 506-248 796-248 291-673 291zm1253 1979v-575q-238 112-480 171-242 60-480 60-625 0-955-422-329-422-376-1275 184 272 462 417 279 145 613 145 703 0 1111-427 408-426 408-1160 0-719-425-1154Q2819-91 2113-91q-810 0-1238 620-428 621-428 1799 0 1106 525 1764t1409 658q238 0 480-47t505-140z" transform="scale(.01563)"/></defs><use xlink:href="#DejaVuSans-36"/><use xlink:href="#DejaVuSans-30" x="63.623"/><use xlink:href="#DejaVuSans-30" x="127.246"/></g></g><g id="xtick_5"><use xlink:href="#m29b60ea522" id="line2d_5" x="963.576" y="1153.44" style="stroke:#000;stroke-width:.8"/><g id="text_5" transform="matrix(.1 0 0 -.1 954.032 1168.038)"><defs><path id="DejaVuSans-38" d="M2034 2216q-450 0-708-241-257-241-257-662 0-422 257-663 258-241 708-241t709 242q260 243 260 662 0 421-258 662-257 241-711 241zm-631 268q-406 100-633 378-226 279-226 679 0 559 398 884 399 325 1092 325 697 0 1094-325t397-884q0-400-227-679-226-278-629-378 456-106 710-416 255-309 255-755 0-679-414-1042Q2806-91 2034-91q-771 0-1186 362-414 363-414 1042 0 446 256 755 257 310 713 416zm-231 997q0-362 226-565 227-203 636-203 407 0 636 203 230 203 230 565 0 363-230 566-229 203-636 203-409 0-636-203-226-203-226-566z" transform="scale(.01563)"/></defs><use xlink:href="#DejaVuSans-38"/><use xlink:href="#DejaVuSans-30" x="63.623"/><use xlink:href="#DejaVuSans-30" x="127.246"/></g></g><g id="xtick_6"><use xlink:href="#m29b60ea522" id="line2d_6" x="1163.16" y="1153.44" style="stroke:#000;stroke-width:.8"/><g id="text_6" transform="matrix(.1 0 0 -.1 1150.435 1168.038)"><defs><path id="DejaVuSans-31" d="M794 531h1031v3560L703 3866v575l1116 225h631V531h1031V0H794v531z" transform="scale(.01563)"/></defs><use xlink:href="#DejaVuSans-31"/><use xlink:href="#DejaVuSans-30" x="63.623"/><use xlink:href="#DejaVuSans-30" x="127.246"/><use xlink:href="#DejaVuSans-30" x="190.869"/></g></g></g><g id="matplotlib.axis_2"><g id="ytick_1"><g id="line2d_7"><defs><path id="ma26271048e" d="M0 0h-3.5" style="stroke:#000;stroke-width:.8"/></defs><use xlink:href="#ma26271048e" x="165.24" y="1153.44" style="stroke:#000;stroke-width:.8"/></g><use xlink:href="#DejaVuSans-30" id="text_7" transform="matrix(.1 0 0 -.1 151.877 1157.24)"/></g><g id="ytick_2"><use xlink:href="#ma26271048e" id="line2d_8" x="165.24" y="953.856" style="stroke:#000;stroke-width:.8"/><g id="text_8" transform="matrix(.1 0 0 -.1 139.153 957.655)"><use xlink:href="#DejaVuSans-32"/><use xlink:href="#DejaVuSans-30" x="63.623"/><use xlink:href="#DejaVuSans-30" x="127.246"/></g></g><g id="ytick_3"><use xlink:href="#ma26271048e" id="line2d_9" x="165.24" y="754.272" style="stroke:#000;stroke-width:.8"/><g id="text_9" transform="matrix(.1 0 0 -.1 139.153 758.071)"><use xlink:href="#DejaVuSans-34"/><use xlink:href="#DejaVuSans-30" x="63.623"/><use xlink:href="#DejaVuSans-30" x="127.246"/></g></g><g id="ytick_4"><use xlink:href="#ma26271048e" id="line2d_10" x="165.24" y="554.688" style="stroke:#000;stroke-width:.8"/><g id="text_10" transform="matrix(.1 0 0 -.1 139.153 558.487)"><use xlink:href="#DejaVuSans-36"/><use xlink:href="#DejaVuSans-30" x="63.623"/><use xlink:href="#DejaVuSans-30" x="127.246"/></g></g><g id="ytick_5"><use xlink:href="#ma26271048e" id="line2d_11" x="165.24" y="355.104" style="stroke:#000;stroke-width:.8"/><g id="text_11" transform="matrix(.1 0 0 -.1 139.153 358.903)"><use xlink:href="#DejaVuSans-38"/><use xlink:href="#DejaVuSans-30" x="63.623"/><use xlink:href="#DejaVuSans-30" x="127.246"/></g></g><g id="ytick_6"><use xlink:href="#ma26271048e" id="line2d_12" x="165.24" y="155.52" style="stroke:#000;stroke-width:.8"/><g id="text_12" transform="matrix(.1 0 0 -.1 132.79 159.32)"><use xlink:href="#DejaVuSans-31"/><use xlink:href="#DejaVuSans-30" x="63.623"/><use xlink:href="#DejaVuSans-30" x="127.246"/><use xlink:href="#DejaVuSans-30" x="190.869"/></g></g></g><path id="patch_310" d="M165.24 1153.44V155.52" style="fill:none;stroke:#000;stroke-width:.8;stroke-linejoin:miter;stroke-linecap:square"/><path id="patch_311" d="M1163.16 1153.44V155.52" style="fill:none;stroke:#000;stroke-width:.8;stroke-linejoin:miter;stroke-linecap:square"/><path id="patch_312" d="M165.24 1153.44h997.92" style="fill:none;stroke:#000;stroke-width:.8;stroke-linejoin:miter;stroke-linecap:square"/><path id="patch_313" d="M165.24 155.52h997.92" style="fill:none;stroke:#000;stroke-width:.8;stroke-linejoin:miter;stroke-linecap:square"/><g id="text_13" transform="matrix(.12 0 0 -.12 473.336 149.52)"><defs><path id="DejaVuSans-50" d="M1259 4147V2394h794q441 0 681 228 241 228 241 650 0 419-241 647-240 228-681 228h-794zm-631 519h1425q785 0 1186-355 402-355 402-1039 0-691-402-1044-401-353-1186-353h-794V0H628v4666z" transform="scale(.01563)"/><path id="DejaVuSans-72" d="M2631 2963q-97 56-211 82-114 27-251 27-488 0-749-317t-261-911V0H581v3500h578v-544q182 319 472 473 291 155 707 155 59 0 131-8 72-7 159-23l3-590z" transform="scale(.01563)"/><path id="DejaVuSans-69" d="M603 3500h575V0H603v3500zm0 1363h575v-729H603v729z" transform="scale(.01563)"/><path id="DejaVuSans-6d" d="M3328 2828q216 388 516 572t706 184q547 0 844-383 297-382 297-1088V0h-578v2094q0 503-179 746-178 244-543 244-447 0-707-297-259-296-259-809V0h-578v2094q0 506-178 748t-550 242q-441 0-701-298-259-298-259-808V0H581v3500h578v-544q197 322 472 475t653 153q382 0 649-194 267-193 395-562z" transform="scale(.01563)"/><path id="DejaVuSans-65" d="M3597 1894v-281H953q38-594 358-905t892-311q331 0 642 81t618 244V178Q3153 47 2828-22t-659-69q-838 0-1327 487-489 488-489 1320 0 859 464 1363 464 505 1252 505 706 0 1117-455 411-454 411-1235zm-575 169q-6 471-264 752-258 282-683 282-481 0-770-272t-333-766l2050 4z" transform="scale(.01563)"/><path id="DejaVuSans-52" d="M2841 2188q203-69 395-294t386-619L4263 0h-679l-596 1197q-232 469-449 622t-592 153h-688V0H628v4666h1425q800 0 1194-335 394-334 394-1009 0-441-205-732-205-290-595-402zM1259 4147V2491h794q456 0 689 211t233 620q0 409-233 617t-689 208h-794z" transform="scale(.01563)"/><path id="DejaVuSans-61" d="M2194 1759q-697 0-966-159t-269-544q0-306 202-486 202-179 548-179 479 0 768 339t289 901v128h-572zm1147 238V0h-575v531q-197-318-491-470T1556-91q-537 0-855 302-317 302-317 808 0 590 395 890 396 300 1180 300h807v57q0 397-261 614t-733 217q-300 0-585-72-284-72-546-216v532q315 122 612 182 297 61 578 61 760 0 1135-394 375-393 375-1193z" transform="scale(.01563)"/><path id="DejaVuSans-64" d="M2906 2969v1894h575V0h-575v525q-181-312-458-464-276-152-664-152-634 0-1033 506-398 507-398 1332t398 1331q399 506 1033 506 388 0 664-152 277-151 458-463zM947 1747q0-634 261-995t717-361q456 0 718 361 263 361 263 995t-263 995q-262 361-718 361t-717-361q-261-361-261-995z" transform="scale(.01563)"/><path id="DejaVuSans-75" d="M544 1381v2119h575V1403q0-497 193-746 194-248 582-248 465 0 735 297 271 297 271 810v1984h575V0h-575v538q-209-319-486-474-276-155-642-155-603 0-916 375-312 375-312 1097zm1447 2203z" transform="scale(.01563)"/><path id="DejaVuSans-73" d="M2834 3397v-544q-243 125-506 187-262 63-544 63-428 0-642-131t-214-394q0-200 153-314t616-217l197-44q612-131 870-370t258-667q0-488-386-773Q2250-91 1575-91q-281 0-586 55T347 128v594q319-166 628-249 309-82 613-82 406 0 624 139 219 139 219 392 0 234-158 359-157 125-692 241l-200 47q-534 112-772 345-237 233-237 639 0 494 350 762 350 269 994 269 318 0 599-47 282-46 519-140z" transform="scale(.01563)"/><path id="DejaVuSans-46" d="M628 4666h2681v-532H1259V2759h1850v-531H1259V0H628v4666z" transform="scale(.01563)"/><path id="DejaVuSans-6f" d="M1959 3097q-462 0-731-361t-269-989q0-628 267-989 268-361 733-361 460 0 728 362 269 363 269 988 0 622-269 986-268 364-728 364zm0 487q750 0 1178-488 429-487 429-1349 0-859-429-1349Q2709-91 1959-91q-753 0-1180 489-426 490-426 1349 0 862 426 1349 427 488 1180 488z" transform="scale(.01563)"/><path id="DejaVuSans-74" d="M1172 4494v-994h1184v-447H1172V1153q0-428 117-550t477-122h590V0h-590q-666 0-919 248-253 249-253 905v1900H172v447h422v994h578z" transform="scale(.01563)"/><path id="DejaVuSans-2c" d="M750 794h659V256L897-744H494L750 256v538z" transform="scale(.01563)"/><path id="DejaVuSans-62" d="M3116 1747q0 634-261 995t-717 361q-457 0-718-361t-261-995q0-634 261-995t718-361q456 0 717 361t261 995zM1159 2969q182 312 458 463 277 152 661 152 638 0 1036-506 399-506 399-1331T3314 415Q2916-91 2278-91q-384 0-661 152-276 152-458 464V0H581v4863h578V2969z" transform="scale(.01563)"/><path id="DejaVuSans-3d" d="M678 2906h4006v-525H678v525zm0-1275h4006v-531H678v531z" transform="scale(.01563)"/><path id="DejaVuSans-2e" d="M684 794h660V0H684v794z" transform="scale(.01563)"/><path id="DejaVuSans-37" d="M525 4666h3000v-269L1831 0h-659l1594 4134H525v532z" transform="scale(.01563)"/><path id="DejaVuSans-39" d="M703 97v575q238-113 481-172 244-59 479-59 625 0 954 420 330 420 377 1277-181-269-460-413-278-144-615-144-700 0-1108 423-408 424-408 1159 0 718 425 1152 425 435 1131 435 810 0 1236-621 427-620 427-1801 0-1103-524-1761Q2575-91 1691-91q-238 0-482 47Q966 3 703 97zm1256 1978q425 0 673 290 249 291 249 798 0 503-249 795-248 292-673 292t-673-292q-248-292-248-795 0-507 248-798 248-290 673-290z" transform="scale(.01563)"/><path id="DejaVuSans-33" d="M2597 2516q453-97 707-404 255-306 255-756 0-690-475-1069Q2609-91 1734-91q-293 0-604 58T488 141v609q262-153 574-231 313-78 654-78 593 0 904 234t311 681q0 413-289 645-289 233-804 233h-544v519h569q465 0 712 186t247 536q0 359-255 551-254 193-729 193-260 0-557-57-297-56-653-174v562q360 100 674 150t592 50q719 0 1137-327 419-326 419-882 0-388-222-655t-631-370z" transform="scale(.01563)"/></defs><use xlink:href="#DejaVuSans-50"/><use xlink:href="#DejaVuSans-72" x="58.553"/><use xlink:href="#DejaVuSans-69" x="99.666"/><use xlink:href="#DejaVuSans-6d" x="127.449"/><use xlink:href="#DejaVuSans-65" x="224.861"/><use xlink:href="#DejaVuSans-52" x="286.385"/><use xlink:href="#DejaVuSans-61" x="353.617"/><use xlink:href="#DejaVuSans-64" x="414.896"/><use xlink:href="#DejaVuSans-69" x="478.373"/><use xlink:href="#DejaVuSans-75" x="506.156"/><use xlink:href="#DejaVuSans-73" x="569.535"/><use xlink:href="#DejaVuSans-46" x="621.635"/><use xlink:href="#DejaVuSans-6f" x="675.529"/><use xlink:href="#DejaVuSans-72" x="736.711"/><use xlink:href="#DejaVuSans-65" x="775.574"/><use xlink:href="#DejaVuSans-73" x="837.098"/><use xlink:href="#DejaVuSans-74" x="889.197"/><use xlink:href="#DejaVuSans-2c" x="928.406"/><use xlink:href="#DejaVuSans-20" x="960.193"/><use xlink:href="#DejaVuSans-62" x="991.98"/><use xlink:href="#DejaVuSans-3d" x="1055.457"/><use xlink:href="#DejaVuSans-30" x="1139.246"/><use xlink:href="#DejaVuSans-2e" x="1202.869"/><use xlink:href="#DejaVuSans-37" x="1234.656"/><use xlink:href="#DejaVuSans-39" x="1298.279"/><use xlink:href="#DejaVuSans-31" x="1361.902"/><use xlink:href="#DejaVuSans-32" x="1425.525"/><use xlink:href="#DejaVuSans-33" x="1489.148"/><use xlink:href="#DejaVuSans-32" x="1552.771"/><use xlink:href="#DejaVuSans-31" x="1616.395"/><use xlink:href="#DejaVuSans-2c" x="1680.018"/><use xlink:href="#DejaVuSans-20" x="1711.805"/><use xlink:href="#DejaVuSans-61" x="1743.592"/><use xlink:href="#DejaVuSans-3d" x="1804.871"/><use xlink:href="#DejaVuSans-30" x="1888.66"/><use xlink:href="#DejaVuSans-2e" x="1952.283"/><use xlink:href="#DejaVuSans-38" x="1984.07"/><use xlink:href="#DejaVuSans-37" x="2047.693"/><use xlink:href="#DejaVuSans-38" x="2111.316"/><use xlink:href="#DejaVuSans-30" x="2174.939"/><use xlink:href="#DejaVuSans-30" x="2238.563"/><use xlink:href="#DejaVuSans-39" x="2302.186"/><use xlink:href="#DejaVuSans-32" x="2365.809"/><use xlink:href="#DejaVuSans-2c" x="2429.432"/><use xlink:href="#DejaVuSans-20" x="2461.219"/><use xlink:href="#DejaVuSans-64" x="2493.006"/><use xlink:href="#DejaVuSans-3d" x="2556.482"/><use xlink:href="#DejaVuSans-30" x="2640.271"/><use xlink:href="#DejaVuSans-2e" x="2703.895"/><use xlink:href="#DejaVuSans-39" x="2735.682"/><use xlink:href="#DejaVuSans-30" x="2799.305"/><use xlink:href="#DejaVuSans-31" x="2862.928"/><use xlink:href="#DejaVuSans-31" x="2926.551"/><use xlink:href="#DejaVuSans-36" x="2990.174"/><use xlink:href="#DejaVuSans-36" x="3053.797"/><use xlink:href="#DejaVuSans-31" x="3117.42"/></g></g></g><defs><clipPath id="p04187059df"><path d="M165.24 155.52h997.92v997.92H165.24z"/></clipPath></defs></svg>