<svg xmlns="http://www.w3.org/2000/svg" xmlns:xlink="http://www.w3.org/1999/xlink" width="1728" height="1728" viewBox="0 0 1296 1296"><defs><style>*{stroke-linejoin:round;stroke-linecap:butt}</style></defs><g id="figure_1"><path id="patch_1" d="M0 1296h1296V0H0z" style="fill:#fff"/><g id="axes_1"><path id="patch_2" d="M165.24 1153.44h997.92V155.52H165.24z" style="fill:#fff"/><path id="patch_3" d="M1063.368 355.104a99.797 99.797 0 0 0 70.564-29.228 99.797 99.797 0 0 0 29.228-70.564 99.797 99.797 0 0 0-29.228-70.564 99.797 99.797 0 0 0-70.564-29.228 99.797 99.797 0 0 0-70.564 29.228 99.797 99.797 0 0 0-29.228 70.564 99.797 99.797 0 0 0 29.228 70.564 99.797 99.797 0 0 0 70.564 29.228z" clip-path="url(#p1778e0b5b4)" style="fill:#ff0"/><path id="patch_4" d="M264.034 353.108c26.2 0 51.331-10.41 69.858-28.936a98.799 98.799 0 0 0 28.936-69.858c0-26.2-10.41-51.331-28.936-69.858a98.799 98.799 0 0 0-69.858-28.936 98.799 98.799 0 0 0-69.858 28.936 98.799 98.799 0 0 0-28.936 69.858c0 26.2 10.41 51.331 28.936 69.858a98.799 98.799 0 0 0 69.858 28.936z" clip-path="url(#p1778e0b5b4)" style="fill:#fffd02"/><path id="patch_5" d="M1065.364 1153.44a97.8 97.8 0 0 0 69.152-28.644 97.8 97.8 0 0 0 28.644-69.152 97.8 97.8 0 0 0-28.644-69.152 97.8 97.8 0 0 0-69.152-28.644 97.8 97.8 0 0 0-69.152 28.644 97.8 97.8 0 0 0-28.644 69.152 97.8 97.8 0 0 0 28.644 69.152 97.8 97.8 0 0 0 69.152 28.644z" clip-path="url(#p1778e0b5b4)" style="fill:#fffa05"/><path id="patch_6" d="M262.038 1153.44a96.803 96.803 0 0 0 68.447-28.352 96.803 96.803 0 0 0 28.351-68.446 96.803 96.803 0 0 0-28.351-68.447 96.803 96.803 0 0 0-68.447-28.351 96.803 96.803 0 0 0-68.446 28.351 96.803 96.803 0 0 0-28.352 68.447 96.803 96.803 0 0 0 28.352 68.446 96.803 96.803 0 0 0 68.446 28.352z" clip-path="url(#p1778e0b5b4)" style="fill:#fff807"/><path id="patch_7" d="M458.605 347.12a95.805 95.805 0 0 0 67.742-28.059 95.805 95.805 0 0 0 28.059-67.74 95.805 95.805 0 0 0-28.06-67.742 95.805 95.805 0 0 0-67.74-28.059 95.805 95.805 0 0 0-67.742 28.06 95.805 95.805 0 0 0-28.059 67.74 95.805 95.805 0 0 0 28.06 67.741 95.805 95.805 0 0 0 67.74 28.06z" clip-path="url(#p1778e0b5b4)" style="fill:#fff50a"/><path id="patch_8" d="M872.789 1153.44a94.807 94.807 0 0 0 67.035-27.767 94.807 94.807 0 0 0 27.767-67.035 94.807 94.807 0 0 0-27.767-67.036 94.807 94.807 0 0 0-67.035-27.767 94.807 94.807 0 0 0-67.036 27.767 94.807 94.807 0 0 0-27.767 67.036 94.807 94.807 0 0 0 27.767 67.035 94.807 94.807 0 0 0 67.036 27.767z" clip-path="url(#p1778e0b5b4)" style="fill:#fff30c"/><path id="patch_9" d="M648.2 343.129a93.809 93.809 0 0 0 66.33-27.475 93.809 93.809 0 0 0 27.474-66.33 93.809 93.809 0 0 0-27.474-66.33 93.809 93.809 0 0 0-66.33-27.474 93.809 93.809 0 0 0-66.33 27.475 93.809 93.809 0 0 0-27.475 66.33 93.809 93.809 0 0 0 27.475 66.33 93.809 93.809 0 0 0 66.33 27.474z" clip-path="url(#p1778e0b5b4)" style="fill:#fff00f"/><path id="patch_10" d="M685.19 1153.44a92.81 92.81 0 0 0 65.624-27.182 92.81 92.81 0 0 0 27.183-65.625 92.81 92.81 0 0 0-27.183-65.624 92.81 92.81 0 0 0-65.624-27.182 92.81 92.81 0 0 0-65.624 27.182 92.81 92.81 0 0 0-27.182 65.624 92.81 92.81 0 0 0 27.182 65.625 92.81 92.81 0 0 0 65.624 27.182z" clip-path="url(#p1778e0b5b4)" style="fill:#ffed12"/><path id="patch_11" d="M963.641 987.445a91.813 91.813 0 0 0 64.919-26.89 91.813 91.813 0 0 0 26.89-64.919 91.813 91.813 0 0 0-26.89-64.918 91.813 91.813 0 0 0-64.919-26.89 91.813 91.813 0 0 0-64.918 26.89 91.813 91.813 0 0 0-26.89 64.918 91.813 91.813 0 0 0 26.89 64.919 91.813 91.813 0 0 0 64.918 26.89z" clip-path="url(#p1778e0b5b4)" style="fill:#ffeb14"/><path id="patch_12" d="M832.79 337.141a90.815 90.815 0 0 0 90.811-90.81 90.815 90.815 0 0 0-90.81-90.811 90.815 90.815 0 0 0-90.811 90.81 90.815 90.815 0 0 0 90.81 90.811z" clip-path="url(#p1778e0b5b4)" style="fill:#ffe817"/><path id="patch_13" d="M366.657 502.37a89.817 89.817 0 0 0 89.812-89.812 89.817 89.817 0 0 0-89.812-89.813 89.817 89.817 0 0 0-89.813 89.813 89.817 89.817 0 0 0 89.813 89.813z" clip-path="url(#p1778e0b5b4)" style="fill:#ffe619"/><path id="patch_14" d="M775.38 991.803a88.819 88.819 0 0 0 88.815-88.815 88.819 88.819 0 0 0-88.815-88.815 88.819 88.819 0 0 0-88.815 88.815 88.819 88.819 0 0 0 88.815 88.815z" clip-path="url(#p1778e0b5b4)" style="fill:#ffe31c"/><path id="patch_15" d="M253.057 960.062a87.821 87.821 0 0 0 87.817-87.817 87.821 87.821 0 0 0-87.817-87.817 87.821 87.821 0 0 0-87.817 87.817 87.821 87.821 0 0 0 87.817 87.817z" clip-path="url(#p1778e0b5b4)" style="fill:#ffe01f"/><path id="patch_16" d="M505.664 1153.44a86.823 86.823 0 0 0 86.82-86.819 86.823 86.823 0 0 0-86.82-86.82 86.823 86.823 0 0 0-86.819 86.82 86.823 86.823 0 0 0 86.82 86.819z" clip-path="url(#p1778e0b5b4)" style="fill:#ffde21"/><path id="patch_17" d="M1077.339 526.22a85.825 85.825 0 0 0 85.821-85.821 85.825 85.825 0 0 0-85.821-85.822 85.825 85.825 0 0 0-85.821 85.822 85.825 85.825 0 0 0 85.82 85.82z" clip-path="url(#p1778e0b5b4)" style="fill:#ffdb24"/><path id="patch_18" d="M250.063 784.454a84.827 84.827 0 0 0 84.823-84.823 84.827 84.827 0 0 0-84.823-84.823 84.827 84.827 0 0 0-84.823 84.823 84.827 84.827 0 0 0 84.823 84.823z" clip-path="url(#p1778e0b5b4)" style="fill:#ffd926"/><path id="patch_19" d="M1079.335 693.859a83.83 83.83 0 0 0 83.825-83.826 83.83 83.83 0 0 0-83.825-83.825 83.83 83.83 0 0 0-83.826 83.825 83.83 83.83 0 0 0 83.826 83.826z" clip-path="url(#p1778e0b5b4)" style="fill:#ffd629"/><path id="patch_20" d="M937.244 441.109a70.856 70.856 0 0 0 70.852-70.853 70.856 70.856 0 0 0-70.852-70.852 70.856 70.856 0 0 0-70.852 70.852 70.856 70.856 0 0 0 70.852 70.853z" clip-path="url(#p1778e0b5b4)" style="fill:#ffb54a"/><path id="patch_21" d="M949.03 598.412a69.858 69.858 0 0 0 69.855-69.855 69.858 69.858 0 0 0-69.854-69.854 69.858 69.858 0 0 0-69.855 69.854 69.858 69.858 0 0 0 69.855 69.855z" clip-path="url(#p1778e0b5b4)" style="fill:#ffb24d"/><path id="patch_22" d="M388.964 1019.05a68.86 68.86 0 0 0 68.856-68.857 68.86 68.86 0 0 0-68.856-68.857 68.86 68.86 0 0 0-68.857 68.857 68.86 68.86 0 0 0 68.857 68.856z" clip-path="url(#p1778e0b5b4)" style="fill:#ffaf50"/><path id="patch_23" d="M1095.301 828.733a67.862 67.862 0 0 0 67.859-67.859 67.862 67.862 0 0 0-67.859-67.858 67.862 67.862 0 0 0-67.858 67.858 67.862 67.862 0 0 0 67.858 67.859z" clip-path="url(#p1778e0b5b4)" style="fill:#ffad52"/><path id="patch_24" d="M232.1 615.875a66.864 66.864 0 0 0 66.861-66.86 66.864 66.864 0 0 0-66.86-66.861 66.864 66.864 0 0 0-66.861 66.86 66.864 66.864 0 0 0 66.86 66.861z" clip-path="url(#p1778e0b5b4)" style="fill:#fa5"/><path id="patch_25" d="M221.124 458.804a55.886 55.886 0 0 0 55.883-55.884 55.886 55.886 0 0 0-55.883-55.883 55.886 55.886 0 0 0-55.884 55.883 55.886 55.886 0 0 0 55.884 55.884z" clip-path="url(#p1778e0b5b4)" style="fill:#ff8e71"/><path id="patch_26" d="M983.468 765.17a54.888 54.888 0 0 0 54.885-54.886 54.888 54.888 0 0 0-54.885-54.885 54.888 54.888 0 0 0-54.886 54.885 54.888 54.888 0 0 0 54.886 54.886z" clip-path="url(#p1778e0b5b4)" style="fill:#ff8b74"/><path id="patch_27" d="M1109.272 964.342a53.89 53.89 0 0 0 53.888-53.888 53.89 53.89 0 0 0-53.888-53.887 53.89 53.89 0 0 0-53.887 53.887 53.89 53.89 0 0 0 53.887 53.888z" clip-path="url(#p1778e0b5b4)" style="fill:#ff8976"/><path id="patch_28" d="M972.639 656.136a24.95 24.95 0 0 0 0-49.896 24.95 24.95 0 0 0 0 49.896z" clip-path="url(#p1778e0b5b4)" style="fill:#ff3ec1"/><path id="patch_29" d="M968.089 1153.44a23.951 23.951 0 1 0-.001-47.902 23.951 23.951 0 0 0 0 47.902z" clip-path="url(#p1778e0b5b4)" style="fill:#ff3bc4"/><path id="patch_30" d="M741.482 201.424a22.953 22.953 0 1 0 0-45.906 22.953 22.953 0 0 0 0 45.906z" clip-path="url(#p1778e0b5b4)" style="fill:#ff38c7"/><path id="patch_31" d="M594.913 1153.44a21.955 21.955 0 1 0 0-43.91 21.955 21.955 0 0 0 0 43.91z" clip-path="url(#p1778e0b5b4)" style="fill:#ff36c9"/><path id="patch_32" d="M1142.204 546.172a20.957 20.957 0 1 0-.001-41.914 20.957 20.957 0 0 0 0 41.914z" clip-path="url(#p1778e0b5b4)" style="fill:#f3c"/><path id="patch_33" d="M185.198 489.672a19.96 19.96 0 1 0 0-39.918 19.96 19.96 0 0 0 0 39.918z" clip-path="url(#p1778e0b5b4)" style="fill:#ff31ce"/><path id="patch_34" d="M184.2 798.798a18.961 18.961 0 1 0 0-37.922 18.961 18.961 0 0 0 0 37.922z" clip-path="url(#p1778e0b5b4)" style="fill:#ff2ed1"/><path id="patch_35" d="M183.203 636.288a17.963 17.963 0 1 0-.001-35.927 17.963 17.963 0 0 0 0 35.927z" clip-path="url(#p1778e0b5b4)" style="fill:#ff2bd4"/><path id="patch_36" d="M1146.195 189.45a16.965 16.965 0 1 0 0-33.932 16.965 16.965 0 0 0 0 33.931z" clip-path="url(#p1778e0b5b4)" style="fill:#ff29d6"/><path id="patch_37" d="M1147.193 1153.44a15.967 15.967 0 1 0 0-31.935 15.967 15.967 0 0 0 0 31.935z" clip-path="url(#p1778e0b5b4)" style="fill:#ff26d9"/><path id="patch_38" d="M976.731 461.422a14.97 14.97 0 1 0 0-29.939 14.97 14.97 0 0 0 0 29.94z" clip-path="url(#p1778e0b5b4)" style="fill:#ff24db"/><path id="patch_39" d="M777.74 1019.717a13.972 13.972 0 1 0 0-27.943 13.972 13.972 0 0 0 0 27.943z" clip-path="url(#p1778e0b5b4)" style="fill:#ff21de"/><path id="patch_40" d="M1020.397 372.638a12.974 12.974 0 1 0 0-25.947 12.974 12.974 0 0 0 0 25.947z" clip-path="url(#p1778e0b5b4)" style="fill:#ff1fe0"/><path id="patch_41" d="M217.118 482.636a11.976 11.976 0 1 0 0-23.952 11.976 11.976 0 0 0 0 23.952z" clip-path="url(#p1778e0b5b4)" style="fill:#ff1ce3"/><path id="patch_42" d="M1055.878 958.262a10.978 10.978 0 1 0 0-21.955 10.978 10.978 0 0 0 0 21.955z" clip-path="url(#p1778e0b5b4)" style="fill:#ff19e6"/><path id="patch_43" d="M709.391 175.478a9.98 9.98 0 1 0 0-19.959 9.98 9.98 0 0 0 0 19.96z" clip-path="url(#p1778e0b5b4)" style="fill:#ff17e8"/><path id="patch_44" d="M1154.179 504.906a8.982 8.982 0 1 0 0-17.964 8.982 8.982 0 0 0 0 17.964z" clip-path="url(#p1778e0b5b4)" style="fill:#ff14eb"/><path id="patch_45" d="M1155.177 1122.876a7.984 7.984 0 1 0 0-15.967 7.984 7.984 0 0 0 0 15.967z" clip-path="url(#p1778e0b5b4)" style="fill:#ff12ed"/><path id="patch_46" d="M172.225 449.421a6.986 6.986 0 1 0 0-13.971 6.986 6.986 0 0 0 0 13.971z" clip-path="url(#p1778e0b5b4)" style="fill:#ff0ff0"/><path id="patch_47" d="M996.538 656.818a5.988 5.988 0 1 0 0-11.975 5.988 5.988 0 0 0 0 11.975z" clip-path="url(#p1778e0b5b4)" style="fill:#ff0cf3"/><path id="patch_48" d="M1009.022 350.753a4.99 4.99 0 1 0 0-9.98 4.99 4.99 0 0 0 0 9.98z" clip-path="url(#p1778e0b5b4)" style="fill:#ff0af5"/><path id="patch_49" d="M205.802 485.917a3.992 3.992 0 1 0 0-7.984 3.992 3.992 0 0 0 0 7.984z" clip-path="url(#p1778e0b5b4)" style="fill:#ff07f8"/><path id="patch_50" d="M168.234 454.576a2.994 2.994 0 1 0 0-5.988 2.994 2.994 0 0 0 0 5.988z" clip-path="url(#p1778e0b5b4)" style="fill:#ff05fa"/><path id="patch_51" d="M1161.164 1153.44a1.996 1.996 0 1 0 0-3.992 1.996 1.996 0 0 0 0 3.992z" clip-path="url(#p1778e0b5b4)" style="fill:#ff02fd"/><path id="patch_52" d="M1006.522 352.202a.998.998 0 1 0 0-1.996.998.998 0 0 0 0 1.996z" clip-path="url(#p1778e0b5b4)" style="fill:#f0f"/><path id="patch_53" d="M583.548 996.831a99.797 99.797 0 0 0 70.563-29.228 99.797 99.797 0 0 0 29.229-70.564 99.797 99.797 0 0 0-29.229-70.563 99.797 99.797 0 0 0-70.563-29.229 99.797 99.797 0 0 0-70.564 29.229 99.797 99.797 0 0 0-29.228 70.563 99.797 99.797 0 0 0 29.228 70.564 99.797 99.797 0 0 0 70.564 29.228z" clip-path="url(#p1778e0b5b4)" style="fill:#ff0"/><path id="patch_54" d="M555.109 317.606a13.972 13.972 0 1 0 0-27.943 13.972 13.972 0 0 0 0 27.943z" clip-path="url(#p1778e0b5b4)" style="fill:#ff21de"/><path id="patch_55" d="M241.976 481.517a12.974 12.974 0 1 0 0-25.948 12.974 12.974 0 0 0 0 25.948z" clip-path="url(#p1778e0b5b4)" style="fill:#ff1fe0"/><path id="patch_56" d="M308.297 967.328a11.976 11.976 0 1 0 0-23.951 11.976 11.976 0 0 0 0 23.951z" clip-path="url(#p1778e0b5b4)" style="fill:#ff1ce3"/><path id="patch_57" d="M176.217 819.669a10.978 10.978 0 1 0 0-21.956 10.978 10.978 0 0 0 0 21.956z" clip-path="url(#p1778e0b5b4)" style="fill:#ff19e6"/><path id="patch_58" d="M772.584 175.478a9.98 9.98 0 1 0 0-19.959 9.98 9.98 0 0 0 0 19.96z" clip-path="url(#p1778e0b5b4)" style="fill:#ff17e8"/><path id="patch_59" d="M174.221 505.472a8.982 8.982 0 1 0 0-17.963 8.982 8.982 0 0 0 0 17.963z" clip-path="url(#p1778e0b5b4)" style="fill:#ff14eb"/><path id="patch_60" d="M173.223 759.66a7.984 7.984 0 1 0 0-15.968 7.984 7.984 0 0 0 0 15.967z" clip-path="url(#p1778e0b5b4)" style="fill:#ff12ed"/><path id="patch_61" d="M172.225 602.907a6.986 6.986 0 1 0 0-13.971 6.986 6.986 0 0 0 0 13.971z" clip-path="url(#p1778e0b5b4)" style="fill:#ff0ff0"/><path id="patch_62" d="M988.552 469.745a5.988 5.988 0 1 0 0-11.975 5.988 5.988 0 0 0 0 11.975z" clip-path="url(#p1778e0b5b4)" style="fill:#ff0cf3"/><path id="patch_63" d="M1158.17 487.526a4.99 4.99 0 1 0 0-9.98 4.99 4.99 0 0 0 0 9.98z" clip-path="url(#p1778e0b5b4)" style="fill:#ff0af5"/><path id="patch_64" d="M722.014 163.503a3.992 3.992 0 1 0 0-7.983 3.992 3.992 0 0 0 0 7.983z" clip-path="url(#p1778e0b5b4)" style="fill:#ff07f8"/><path id="patch_65" d="M1160.166 512.368a2.994 2.994 0 1 0 0-5.988 2.994 2.994 0 0 0 0 5.988z" clip-path="url(#p1778e0b5b4)" style="fill:#ff05fa"/><path id="patch_66" d="M1161.164 159.512a1.996 1.996 0 1 0 0-3.992 1.996 1.996 0 0 0 0 3.992z" clip-path="url(#p1778e0b5b4)" style="fill:#ff02fd"/><path id="patch_67" d="M166.238 448.714a.998.998 0 1 0 0-1.995.998.998 0 0 0 0 1.995z" clip-path="url(#p1778e0b5b4)" style="fill:#f0f"/><path id="patch_68" d="M418.717 883.982a99.797 99.797 0 0 0 70.564-29.229 99.797 99.797 0 0 0 29.228-70.563 99.797 99.797 0 0 0-29.228-70.564 99.797 99.797 0 0 0-70.564-29.228 99.797 99.797 0 0 0-70.563 29.228 99.797 99.797 0 0 0-29.229 70.564 99.797 99.797 0 0 0 29.229 70.563 99.797 99.797 0 0 0 70.563 29.229z" clip-path="url(#p1778e0b5b4)" style="fill:#ff0"/><path id="patch_69" d="M556.988 481.246a81.833 81.833 0 0 0 81.83-81.83 81.833 81.833 0 0 0-81.83-81.829 81.833 81.833 0 0 0-81.83 81.83 81.833 81.833 0 0 0 81.83 81.83z" clip-path="url(#p1778e0b5b4)" style="fill:#ffd12e"/><path id="patch_70" d="M1006.194 811.763a24.95 24.95 0 0 0 0-49.896 24.95 24.95 0 0 0 0 49.896z" clip-path="url(#p1778e0b5b4)" style="fill:#ff3ec1"/><path id="patch_71" d="M362.805 203.42a23.951 23.951 0 1 0 0-47.902 23.951 23.951 0 0 0 0 47.902z" clip-path="url(#p1778e0b5b4)" style="fill:#ff3bc4"/><path id="patch_72" d="M777.496 1153.44a22.953 22.953 0 1 0 0-45.906 22.953 22.953 0 0 0 0 45.906z" clip-path="url(#p1778e0b5b4)" style="fill:#ff38c7"/><path id="patch_73" d="M479.918 982.893a21.955 21.955 0 1 0 0-43.91 21.955 21.955 0 0 0 0 43.91z" clip-path="url(#p1778e0b5b4)" style="fill:#ff36c9"/><path id="patch_74" d="M461.427 918.089a20.957 20.957 0 1 0 0-41.915 20.957 20.957 0 0 0 0 41.915z" clip-path="url(#p1778e0b5b4)" style="fill:#f3c"/><path id="patch_75" d="M961.563 801.81a19.96 19.96 0 1 0-.001-39.92 19.96 19.96 0 0 0 0 39.92z" clip-path="url(#p1778e0b5b4)" style="fill:#ff31ce"/><path id="patch_76" d="M563.853 193.441a18.961 18.961 0 1 0 0-37.923 18.961 18.961 0 0 0 0 37.923z" clip-path="url(#p1778e0b5b4)" style="fill:#ff2ed1"/><path id="patch_77" d="M1145.197 709.011a17.963 17.963 0 1 0 0-35.927 17.963 17.963 0 0 0 0 35.927z" clip-path="url(#p1778e0b5b4)" style="fill:#ff2bd4"/><path id="patch_78" d="M1146.195 987.89a16.965 16.965 0 1 0 0-33.931 16.965 16.965 0 0 0 0 33.93z" clip-path="url(#p1778e0b5b4)" style="fill:#ff29d6"/><path id="patch_79" d="M181.207 1153.44a15.967 15.967 0 1 0 0-31.935 15.967 15.967 0 0 0 0 31.935z" clip-path="url(#p1778e0b5b4)" style="fill:#ff26d9"/><path id="patch_80" d="M868.43 963.922a14.97 14.97 0 1 0 0-29.94 14.97 14.97 0 0 0 0 29.94z" clip-path="url(#p1778e0b5b4)" style="fill:#ff24db"/><path id="patch_81" d="M590.237 1025.764a13.972 13.972 0 1 0 0-27.943 13.972 13.972 0 0 0 0 27.943z" clip-path="url(#p1778e0b5b4)" style="fill:#ff21de"/><path id="patch_82" d="M532.486 181.466a12.974 12.974 0 1 0 0-25.947 12.974 12.974 0 0 0 0 25.947z" clip-path="url(#p1778e0b5b4)" style="fill:#ff1fe0"/><path id="patch_83" d="M475.94 939.218a11.976 11.976 0 1 0-.001-23.95 11.976 11.976 0 0 0 0 23.95z" clip-path="url(#p1778e0b5b4)" style="fill:#ff1ce3"/><path id="patch_84" d="M330.377 177.474a10.978 10.978 0 1 0 0-21.955 10.978 10.978 0 0 0 0 21.955z" clip-path="url(#p1778e0b5b4)" style="fill:#ff19e6"/><path id="patch_85" d="M747.228 1153.44a9.98 9.98 0 1 0 0-19.96 9.98 9.98 0 0 0 0 19.96z" clip-path="url(#p1778e0b5b4)" style="fill:#ff17e8"/><path id="patch_86" d="M1154.179 674.627a8.982 8.982 0 1 0 0-17.964 8.982 8.982 0 0 0 0 17.964z" clip-path="url(#p1778e0b5b4)" style="fill:#ff14eb"/><path id="patch_87" d="M1124.613 1153.44a7.984 7.984 0 1 0 0-15.967 7.984 7.984 0 0 0 0 15.967z" clip-path="url(#p1778e0b5b4)" style="fill:#ff12ed"/><path id="patch_88" d="M1156.175 724.316a6.986 6.986 0 1 0 0-13.972 6.986 6.986 0 0 0 0 13.972z" clip-path="url(#p1778e0b5b4)" style="fill:#ff0ff0"/><path id="patch_89" d="M1157.172 956.756a5.988 5.988 0 1 0 0-11.976 5.988 5.988 0 0 0 0 11.976z" clip-path="url(#p1778e0b5b4)" style="fill:#ff0cf3"/><path id="patch_90" d="M790.218 165.5a4.99 4.99 0 1 0 0-9.98 4.99 4.99 0 0 0 0 9.98z" clip-path="url(#p1778e0b5b4)" style="fill:#ff0af5"/><path id="patch_91" d="M169.232 744.378a3.992 3.992 0 1 0 0-7.984 3.992 3.992 0 0 0 0 7.984z" clip-path="url(#p1778e0b5b4)" style="fill:#ff07f8"/><path id="patch_92" d="M758.061 161.508a2.994 2.994 0 1 0 0-5.988 2.994 2.994 0 0 0 0 5.988z" clip-path="url(#p1778e0b5b4)" style="fill:#ff05fa"/><path id="patch_93" d="M167.236 1153.44a1.996 1.996 0 1 0 0-3.992 1.996 1.996 0 0 0 0 3.992z" clip-path="url(#p1778e0b5b4)" style="fill:#ff02fd"/><path id="patch_94" d="M1162.162 517.068a.998.998 0 1 0 0-1.996.998.998 0 0 0 0 1.996z" clip-path="url(#p1778e0b5b4)" style="fill:#f0f"/><path id="patch_95" d="M737.298 520.992a99.797 99.797 0 0 0 70.564-29.229A99.797 99.797 0 0 0 837.09 421.2a99.797 99.797 0 0 0-29.228-70.564 99.797 99.797 0 0 0-70.564-29.228 99.797 99.797 0 0 0-70.563 29.228 99.797 99.797 0 0 0-29.229 70.564 99.797 99.797 0 0 0 29.229 70.563 99.797 99.797 0 0 0 70.563 29.229z" clip-path="url(#p1778e0b5b4)" style="fill:#ff0"/><path id="patch_96" d="M946.992 223.379a33.93 33.93 0 0 0 23.991-57.921 33.93 33.93 0 0 0-57.92 23.991 33.93 33.93 0 0 0 33.929 33.93z" clip-path="url(#p1778e0b5b4)" style="fill:#f5a"/><path id="patch_97" d="M181.207 187.453a15.967 15.967 0 1 0 0-31.934 15.967 15.967 0 0 0 0 31.934z" clip-path="url(#p1778e0b5b4)" style="fill:#ff26d9"/><path id="patch_98" d="M683.814 967.836a14.97 14.97 0 1 0 0-29.94 14.97 14.97 0 0 0 0 29.94z" clip-path="url(#p1778e0b5b4)" style="fill:#ff24db"/><path id="patch_99" d="M642.87 370.939a13.972 13.972 0 1 0 0-27.943 13.972 13.972 0 0 0 0 27.943z" clip-path="url(#p1778e0b5b4)" style="fill:#ff21de"/><path id="patch_100" d="M905.031 181.466a12.974 12.974 0 1 0 0-25.947 12.974 12.974 0 0 0 0 25.947z" clip-path="url(#p1778e0b5b4)" style="fill:#ff1fe0"/><path id="patch_101" d="M352.685 889.935a11.976 11.976 0 1 0 0-23.951 11.976 11.976 0 0 0 0 23.951z" clip-path="url(#p1778e0b5b4)" style="fill:#ff1ce3"/><path id="patch_102" d="M554.022 214.37a10.978 10.978 0 1 0 0-21.956 10.978 10.978 0 0 0 0 21.956z" clip-path="url(#p1778e0b5b4)" style="fill:#ff19e6"/><path id="patch_103" d="M934.304 1153.44a9.98 9.98 0 1 0 0-19.96 9.98 9.98 0 0 0 0 19.96z" clip-path="url(#p1778e0b5b4)" style="fill:#ff17e8"/><path id="patch_104" d="M174.221 652.71a8.982 8.982 0 1 0 0-17.964 8.982 8.982 0 0 0 0 17.963z" clip-path="url(#p1778e0b5b4)" style="fill:#ff14eb"/><path id="patch_105" d="M1122.92 171.487a7.984 7.984 0 1 0 0-15.968 7.984 7.984 0 0 0 0 15.968z" clip-path="url(#p1778e0b5b4)" style="fill:#ff12ed"/><path id="patch_106" d="M883.163 169.49a6.986 6.986 0 1 0 0-13.97 6.986 6.986 0 0 0 0 13.97z" clip-path="url(#p1778e0b5b4)" style="fill:#ff0ff0"/><path id="patch_107" d="M171.228 830.893a5.988 5.988 0 1 0 0-11.975 5.988 5.988 0 0 0 0 11.975z" clip-path="url(#p1778e0b5b4)" style="fill:#ff0cf3"/><path id="patch_108" d="M695.278 165.5a4.99 4.99 0 1 0 0-9.98 4.99 4.99 0 0 0 0 9.98z" clip-path="url(#p1778e0b5b4)" style="fill:#ff0af5"/><path id="patch_109" d="M1159.168 944.982a3.992 3.992 0 1 0 0-7.983 3.992 3.992 0 0 0 0 7.983z" clip-path="url(#p1778e0b5b4)" style="fill:#ff07f8"/><path id="patch_110" d="M168.234 797.9a2.994 2.994 0 1 0 0-5.988 2.994 2.994 0 0 0 0 5.988z" clip-path="url(#p1778e0b5b4)" style="fill:#ff05fa"/><path id="patch_111" d="M167.236 458.467a1.996 1.996 0 1 0 0-3.992 1.996 1.996 0 0 0 0 3.992z" clip-path="url(#p1778e0b5b4)" style="fill:#ff02fd"/><path id="patch_112" d="M166.238 745.376a.998.998 0 1 0 0-1.996.998.998 0 0 0 0 1.996z" clip-path="url(#p1778e0b5b4)" style="fill:#f0f"/><path id="patch_113" d="M608.428 673.393a99.797 99.797 0 0 0 70.564-29.228A99.797 99.797 0 0 0 708.22 573.6a99.797 99.797 0 0 0-29.228-70.563 99.797 99.797 0 0 0-70.564-29.229 99.797 99.797 0 0 0-70.563 29.229 99.797 99.797 0 0 0-29.229 70.563 99.797 99.797 0 0 0 29.229 70.564 99.797 99.797 0 0 0 70.563 29.228z" clip-path="url(#p1778e0b5b4)" style="fill:#ff0"/><path id="patch_114" d="M1140.208 863.069a22.953 22.953 0 1 0-.001-45.907 22.953 22.953 0 0 0 0 45.907z" clip-path="url(#p1778e0b5b4)" style="fill:#ff38c7"/><path id="patch_115" d="M631.154 476.102a13.972 13.972 0 1 0 0-27.943 13.972 13.972 0 0 0 0 27.943z" clip-path="url(#p1778e0b5b4)" style="fill:#ff21de"/><path id="patch_116" d="M988.952 181.466a12.974 12.974 0 1 0 0-25.947 12.974 12.974 0 0 0 0 25.947z" clip-path="url(#p1778e0b5b4)" style="fill:#ff1fe0"/><path id="patch_117" d="M1031.72 538.878a11.976 11.976 0 1 0 0-23.95 11.976 11.976 0 0 0 0 23.95z" clip-path="url(#p1778e0b5b4)" style="fill:#ff1ce3"/><path id="patch_118" d="M564.533 1153.44a9.98 9.98 0 1 0 0-19.96 9.98 9.98 0 0 0 0 19.96z" clip-path="url(#p1778e0b5b4)" style="fill:#ff17e8"/><path id="patch_119" d="M1154.179 564.138a8.982 8.982 0 1 0 0-17.963 8.982 8.982 0 0 0 0 17.963z" clip-path="url(#p1778e0b5b4)" style="fill:#ff14eb"/><path id="patch_120" d="M1155.177 875.173a7.984 7.984 0 1 0 0-15.967 7.984 7.984 0 0 0 0 15.967z" clip-path="url(#p1778e0b5b4)" style="fill:#ff12ed"/><path id="patch_121" d="M510.344 169.49a6.986 6.986 0 1 0 0-13.97 6.986 6.986 0 0 0 0 13.97z" clip-path="url(#p1778e0b5b4)" style="fill:#ff0ff0"/><path id="patch_122" d="M314.162 167.495a5.988 5.988 0 1 0 0-11.976 5.988 5.988 0 0 0 0 11.976z" clip-path="url(#p1778e0b5b4)" style="fill:#ff0cf3"/><path id="patch_123" d="M1111.99 1153.44a4.99 4.99 0 1 0 0-9.98 4.99 4.99 0 0 0 0 9.98z" clip-path="url(#p1778e0b5b4)" style="fill:#ff0af5"/><path id="patch_124" d="M946.927 1153.44a3.992 3.992 0 1 0 0-7.984 3.992 3.992 0 0 0 0 7.984z" clip-path="url(#p1778e0b5b4)" style="fill:#ff07f8"/><path id="patch_125" d="M168.234 764.447a2.994 2.994 0 1 0 0-5.987 2.994 2.994 0 0 0 0 5.987z" clip-path="url(#p1778e0b5b4)" style="fill:#ff05fa"/><path id="patch_126" d="M167.236 159.512a1.996 1.996 0 1 0 0-3.992 1.996 1.996 0 0 0 0 3.992z" clip-path="url(#p1778e0b5b4)" style="fill:#ff02fd"/><path id="patch_127" d="M166.238 803.07a.998.998 0 1 0 0-1.996.998.998 0 0 0 0 1.996z" clip-path="url(#p1778e0b5b4)" style="fill:#f0f"/><path id="patch_128" d="M183.843 357.138a17.963 17.963 0 1 0 0-35.927 17.963 17.963 0 0 0 0 35.927z" clip-path="url(#p1778e0b5b4)" style="fill:#ff2bd4"/><path id="patch_129" d="M461.775 381.005a16.965 16.965 0 1 0 0-33.93 16.965 16.965 0 0 0 0 33.93z" clip-path="url(#p1778e0b5b4)" style="fill:#ff29d6"/><path id="patch_130" d="M742.474 321.523a15.967 15.967 0 1 0 0-31.935 15.967 15.967 0 0 0 0 31.935z" clip-path="url(#p1778e0b5b4)" style="fill:#ff26d9"/><path id="patch_131" d="M362.735 322.82a13.972 13.972 0 1 0 0-27.944 13.972 13.972 0 0 0 0 27.943z" clip-path="url(#p1778e0b5b4)" style="fill:#ff21de"/><path id="patch_132" d="M807.765 1153.44a9.98 9.98 0 1 0 0-19.96 9.98 9.98 0 0 0 0 19.96z" clip-path="url(#p1778e0b5b4)" style="fill:#ff17e8"/><path id="patch_133" d="M622.997 1153.44a8.982 8.982 0 1 0 0-17.963 8.982 8.982 0 0 0 0 17.963z" clip-path="url(#p1778e0b5b4)" style="fill:#ff14eb"/><path id="patch_134" d="M173.223 206.13a7.984 7.984 0 1 0 0-15.968 7.984 7.984 0 0 0 0 15.968z" clip-path="url(#p1778e0b5b4)" style="fill:#ff12ed"/><path id="patch_135" d="M172.225 370.39a6.986 6.986 0 1 0 0-13.971 6.986 6.986 0 0 0 0 13.971z" clip-path="url(#p1778e0b5b4)" style="fill:#ff0ff0"/><path id="patch_136" d="M1121.257 697.728a5.988 5.988 0 1 0 0-11.976 5.988 5.988 0 0 0 0 11.976z" clip-path="url(#p1778e0b5b4)" style="fill:#ff0cf3"/><path id="patch_137" d="M170.23 663.475a4.99 4.99 0 1 0 0-9.98 4.99 4.99 0 0 0 0 9.98z" clip-path="url(#p1778e0b5b4)" style="fill:#ff0af5"/><path id="patch_138" d="M169.232 585.68a3.992 3.992 0 1 0 0-7.984 3.992 3.992 0 0 0 0 7.983z" clip-path="url(#p1778e0b5b4)" style="fill:#ff07f8"/><path id="patch_139" d="M758.16 1153.44a2.994 2.994 0 1 0 0-5.988 2.994 2.994 0 0 0 0 5.988z" clip-path="url(#p1778e0b5b4)" style="fill:#ff05fa"/><path id="patch_140" d="M1130.903 159.512a1.996 1.996 0 1 0 0-3.992 1.996 1.996 0 0 0 0 3.992z" clip-path="url(#p1778e0b5b4)" style="fill:#ff02fd"/><path id="patch_141" d="M1162.162 490.935a.998.998 0 1 0 0-1.996.998.998 0 0 0 0 1.996z" clip-path="url(#p1778e0b5b4)" style="fill:#f0f"/><path id="patch_142" d="M284.795 367.037a7.984 7.984 0 1 0 0-15.967 7.984 7.984 0 0 0 0 15.967z" clip-path="url(#p1778e0b5b4)" style="fill:#ff12ed"/><path id="patch_143" d="M1007.99 169.49a6.986 6.986 0 1 0 0-13.97 6.986 6.986 0 0 0 0 13.97z" clip-path="url(#p1778e0b5b4)" style="fill:#ff0ff0"/><path id="patch_144" d="M825.139 1153.44a5.988 5.988 0 1 0 0-11.976 5.988 5.988 0 0 0 0 11.976z" clip-path="url(#p1778e0b5b4)" style="fill:#ff0cf3"/><path id="patch_145" d="M170.23 517.474a4.99 4.99 0 1 0 0-9.98 4.99 4.99 0 0 0 0 9.98z" clip-path="url(#p1778e0b5b4)" style="fill:#ff0af5"/><path id="patch_146" d="M1159.168 885.113a3.992 3.992 0 1 0 0-7.984 3.992 3.992 0 0 0 0 7.984z" clip-path="url(#p1778e0b5b4)" style="fill:#ff07f8"/><path id="patch_147" d="M1160.166 711.178a2.994 2.994 0 1 0 0-5.988 2.994 2.994 0 0 0 0 5.988z" clip-path="url(#p1778e0b5b4)" style="fill:#ff05fa"/><path id="patch_148" d="M763.658 159.512a1.996 1.996 0 1 0 0-3.992 1.996 1.996 0 0 0 0 3.992z" clip-path="url(#p1778e0b5b4)" style="fill:#ff02fd"/><path id="patch_149" d="M1133.726 157.516a.998.998 0 1 0 0-1.996.998.998 0 0 0 0 1.996z" clip-path="url(#p1778e0b5b4)" style="fill:#f0f"/><path id="patch_150" d="M269.852 366.919a6.986 6.986 0 1 0 0-13.972 6.986 6.986 0 0 0 0 13.972z" clip-path="url(#p1778e0b5b4)" style="fill:#ff0ff0"/><path id="patch_151" d="M637.663 1153.44a5.988 5.988 0 1 0 0-11.976 5.988 5.988 0 0 0 0 11.976z" clip-path="url(#p1778e0b5b4)" style="fill:#ff0cf3"/><path id="patch_152" d="M550.42 1153.44a4.99 4.99 0 1 0 0-9.98 4.99 4.99 0 0 0 0 9.98z" clip-path="url(#p1778e0b5b4)" style="fill:#ff0af5"/><path id="patch_153" d="M169.232 838.792a3.992 3.992 0 1 0 0-7.984 3.992 3.992 0 0 0 0 7.984z" clip-path="url(#p1778e0b5b4)" style="fill:#ff07f8"/><path id="patch_154" d="M168.234 670.754a2.994 2.994 0 1 0 0-5.988 2.994 2.994 0 0 0 0 5.988z" clip-path="url(#p1778e0b5b4)" style="fill:#ff05fa"/><path id="patch_155" d="M1161.164 877.472a1.996 1.996 0 1 0 0-3.992 1.996 1.996 0 0 0 0 3.992z" clip-path="url(#p1778e0b5b4)" style="fill:#ff02fd"/><path id="patch_156" d="M1162.162 946.877a.998.998 0 1 0 0-1.996.998.998 0 0 0 0 1.996z" clip-path="url(#p1778e0b5b4)" style="fill:#f0f"/><path id="patch_157" d="M456.411 1153.44a6.986 6.986 0 1 0 0-13.972 6.986 6.986 0 0 0 0 13.972z" clip-path="url(#p1778e0b5b4)" style="fill:#ff0ff0"/><path id="patch_158" d="M363.442 293.427a5.988 5.988 0 1 0 0-11.975 5.988 5.988 0 0 0 0 11.975z" clip-path="url(#p1778e0b5b4)" style="fill:#ff0cf3"/><path id="patch_159" d="M916.287 1153.44a4.99 4.99 0 1 0 0-9.98 4.99 4.99 0 0 0 0 9.98z" clip-path="url(#p1778e0b5b4)" style="fill:#ff0af5"/><path id="patch_160" d="M970.267 163.503a3.992 3.992 0 1 0 0-7.983 3.992 3.992 0 0 0 0 7.983z" clip-path="url(#p1778e0b5b4)" style="fill:#ff07f8"/><path id="patch_161" d="M168.234 431.783a2.994 2.994 0 1 0 0-5.988 2.994 2.994 0 0 0 0 5.988z" clip-path="url(#p1778e0b5b4)" style="fill:#ff05fa"/><path id="patch_162" d="M167.236 768.338a1.996 1.996 0 1 0 0-3.992 1.996 1.996 0 0 0 0 3.992z" clip-path="url(#p1778e0b5b4)" style="fill:#ff02fd"/><path id="patch_163" d="M166.238 758.32a.998.998 0 1 0 0-1.997.998.998 0 0 0 0 1.996z" clip-path="url(#p1778e0b5b4)" style="fill:#f0f"/><path id="patch_164" d="M388.543 1078.924a29.939 29.939 0 0 0 21.169-51.107 29.939 29.939 0 0 0-51.107 21.17 29.939 29.939 0 0 0 29.938 29.937z" clip-path="url(#p1778e0b5b4)" style="fill:#ff4ab5"/><path id="patch_165" d="M188.416 985.149a22.953 22.953 0 1 0-.001-45.907 22.953 22.953 0 0 0 0 45.907z" clip-path="url(#p1778e0b5b4)" style="fill:#ff38c7"/><path id="patch_166" d="M1141.206 375.54a21.955 21.955 0 1 0-.001-43.911 21.955 21.955 0 0 0 0 43.91z" clip-path="url(#p1778e0b5b4)" style="fill:#ff36c9"/><path id="patch_167" d="M352.117 1153.44a20.957 20.957 0 1 0-.001-41.915 20.957 20.957 0 0 0 0 41.915z" clip-path="url(#p1778e0b5b4)" style="fill:#f3c"/><path id="patch_168" d="M944.225 263.224a19.96 19.96 0 1 0 0-39.918 19.96 19.96 0 0 0 0 39.918z" clip-path="url(#p1778e0b5b4)" style="fill:#ff31ce"/><path id="patch_169" d="M175.22 941.43a9.98 9.98 0 1 0-.001-19.959 9.98 9.98 0 0 0 0 19.96z" clip-path="url(#p1778e0b5b4)" style="fill:#ff17e8"/><path id="patch_170" d="M324.678 1153.44a8.982 8.982 0 1 0 0-17.963 8.982 8.982 0 0 0 0 17.963z" clip-path="url(#p1778e0b5b4)" style="fill:#ff14eb"/><path id="patch_171" d="M173.223 1122.876a7.984 7.984 0 1 0 0-15.967 7.984 7.984 0 0 0 0 15.967z" clip-path="url(#p1778e0b5b4)" style="fill:#ff12ed"/><path id="patch_172" d="M278.48 379.61a6.986 6.986 0 1 0-.001-13.97 6.986 6.986 0 0 0 0 13.97z" clip-path="url(#p1778e0b5b4)" style="fill:#ff0ff0"/><path id="patch_173" d="M1019.876 765.057a5.988 5.988 0 1 0 0-11.976 5.988 5.988 0 0 0 0 11.976z" clip-path="url(#p1778e0b5b4)" style="fill:#ff0cf3"/><path id="patch_174" d="M1158.17 657.247a4.99 4.99 0 1 0 0-9.98 4.99 4.99 0 0 0 0 9.98z" clip-path="url(#p1778e0b5b4)" style="fill:#ff0af5"/><path id="patch_175" d="M872.602 163.503a3.992 3.992 0 1 0 0-7.983 3.992 3.992 0 0 0 0 7.983z" clip-path="url(#p1778e0b5b4)" style="fill:#ff07f8"/><path id="patch_176" d="M796.833 1153.44a2.994 2.994 0 1 0 0-5.988 2.994 2.994 0 0 0 0 5.988z" clip-path="url(#p1778e0b5b4)" style="fill:#ff05fa"/><path id="patch_177" d="M167.236 589.329a1.996 1.996 0 1 0 0-3.992 1.996 1.996 0 0 0 0 3.992z" clip-path="url(#p1778e0b5b4)" style="fill:#ff02fd"/><path id="patch_178" d="M751.054 157.516a.998.998 0 1 0 0-1.996.998.998 0 0 0 0 1.996z" clip-path="url(#p1778e0b5b4)" style="fill:#f0f"/><path id="patch_179" d="M176.404 1002.839a9.98 9.98 0 1 0 0-19.96 9.98 9.98 0 0 0 0 19.96z" clip-path="url(#p1778e0b5b4)" style="fill:#ff17e8"/><path id="patch_180" d="M1154.179 1004.594a8.982 8.982 0 1 0 0-17.964 8.982 8.982 0 0 0 0 17.964z" clip-path="url(#p1778e0b5b4)" style="fill:#ff14eb"/><path id="patch_181" d="M203.787 171.487a7.984 7.984 0 1 0 0-15.968 7.984 7.984 0 0 0 0 15.968z" clip-path="url(#p1778e0b5b4)" style="fill:#ff12ed"/><path id="patch_182" d="M594.627 1109.533a6.986 6.986 0 1 0 0-13.972 6.986 6.986 0 0 0 0 13.972z" clip-path="url(#p1778e0b5b4)" style="fill:#ff0ff0"/><path id="patch_183" d="M633.65 448.317a5.988 5.988 0 1 0 0-11.975 5.988 5.988 0 0 0 0 11.975z" clip-path="url(#p1778e0b5b4)" style="fill:#ff0cf3"/><path id="patch_184" d="M1158.17 1107.26a4.99 4.99 0 1 0 0-9.98 4.99 4.99 0 0 0 0 9.98z" clip-path="url(#p1778e0b5b4)" style="fill:#ff0af5"/><path id="patch_185" d="M1159.168 731.95a3.992 3.992 0 1 0 0-7.984 3.992 3.992 0 0 0 0 7.984z" clip-path="url(#p1778e0b5b4)" style="fill:#ff07f8"/><path id="patch_186" d="M168.234 734.496a2.994 2.994 0 1 0 0-5.988 2.994 2.994 0 0 0 0 5.988z" clip-path="url(#p1778e0b5b4)" style="fill:#ff05fa"/><path id="patch_187" d="M167.236 1124.872a1.996 1.996 0 1 0 0-3.992 1.996 1.996 0 0 0 0 3.992z" clip-path="url(#p1778e0b5b4)" style="fill:#ff02fd"/><path id="patch_188" d="M753.54 1153.44a.998.998 0 1 0 0-1.996.998.998 0 0 0 0 1.996z" clip-path="url(#p1778e0b5b4)" style="fill:#f0f"/><path id="patch_189" d="M371.75 1116.545a19.96 19.96 0 1 0-.002-39.918 19.96 19.96 0 0 0 .001 39.918z" clip-path="url(#p1778e0b5b4)" style="fill:#ff31ce"/><path id="patch_190" d="M1103.386 856.822a13.972 13.972 0 1 0 0-27.943 13.972 13.972 0 0 0 0 27.943z" clip-path="url(#p1778e0b5b4)" style="fill:#ff21de"/><path id="patch_191" d="M437.372 1153.44a12.974 12.974 0 1 0 0-25.947 12.974 12.974 0 0 0 0 25.947z" clip-path="url(#p1778e0b5b4)" style="fill:#ff1fe0"/><path id="patch_192" d="M1079.077 863.896a11.976 11.976 0 1 0 0-23.951 11.976 11.976 0 0 0 0 23.951z" clip-path="url(#p1778e0b5b4)" style="fill:#ff1ce3"/><path id="patch_193" d="M1152.183 333.514a10.978 10.978 0 1 0 0-21.955 10.978 10.978 0 0 0 0 21.955z" clip-path="url(#p1778e0b5b4)" style="fill:#ff19e6"/><path id="patch_194" d="M999.008 1153.44a9.98 9.98 0 1 0 0-19.96 9.98 9.98 0 0 0 0 19.96z" clip-path="url(#p1778e0b5b4)" style="fill:#ff17e8"/><path id="patch_195" d="M1154.179 820.383a8.982 8.982 0 1 0 0-17.963 8.982 8.982 0 0 0 0 17.963z" clip-path="url(#p1778e0b5b4)" style="fill:#ff14eb"/><path id="patch_196" d="M203.787 1153.44a7.984 7.984 0 1 0 0-15.967 7.984 7.984 0 0 0 0 15.967z" clip-path="url(#p1778e0b5b4)" style="fill:#ff12ed"/><path id="patch_197" d="M506.307 979.804a6.986 6.986 0 1 0 0-13.971 6.986 6.986 0 0 0 0 13.971z" clip-path="url(#p1778e0b5b4)" style="fill:#ff0ff0"/><path id="patch_198" d="M207.137 623.44a5.988 5.988 0 1 0 0-11.976 5.988 5.988 0 0 0 0 11.975z" clip-path="url(#p1778e0b5b4)" style="fill:#ff0cf3"/><path id="patch_199" d="M170.23 919.1a4.99 4.99 0 1 0 0-9.98 4.99 4.99 0 0 0 0 9.98z" clip-path="url(#p1778e0b5b4)" style="fill:#ff0af5"/><path id="patch_200" d="M919.424 163.503a3.992 3.992 0 1 0 0-7.983 3.992 3.992 0 0 0 0 7.983z" clip-path="url(#p1778e0b5b4)" style="fill:#ff07f8"/><path id="patch_201" d="M168.234 523.208a2.994 2.994 0 1 0 0-5.988 2.994 2.994 0 0 0 0 5.988z" clip-path="url(#p1778e0b5b4)" style="fill:#ff05fa"/><path id="patch_202" d="M763.048 1153.44a1.996 1.996 0 1 0 0-3.992 1.996 1.996 0 0 0 0 3.992z" clip-path="url(#p1778e0b5b4)" style="fill:#ff02fd"/><path id="patch_203" d="M877.883 157.516a.998.998 0 1 0 0-1.996.998.998 0 0 0 0 1.996z" clip-path="url(#p1778e0b5b4)" style="fill:#f0f"/><path id="patch_204" d="M965.286 1015.374a13.972 13.972 0 1 0 0-27.943 13.972 13.972 0 0 0 0 27.943z" clip-path="url(#p1778e0b5b4)" style="fill:#ff21de"/><path id="patch_205" d="M300.586 796.339a12.974 12.974 0 1 0 0-25.948 12.974 12.974 0 0 0 0 25.948z" clip-path="url(#p1778e0b5b4)" style="fill:#ff1fe0"/><path id="patch_206" d="M1155.177 203.743a7.984 7.984 0 1 0 0-15.967 7.984 7.984 0 0 0 0 15.967z" clip-path="url(#p1778e0b5b4)" style="fill:#ff12ed"/><path id="patch_207" d="M312.25 774.156a6.986 6.986 0 1 0 0-13.972 6.986 6.986 0 0 0 0 13.972z" clip-path="url(#p1778e0b5b4)" style="fill:#ff0ff0"/><path id="patch_208" d="M1014.468 1153.44a5.988 5.988 0 1 0 0-11.976 5.988 5.988 0 0 0 0 11.976z" clip-path="url(#p1778e0b5b4)" style="fill:#ff0cf3"/><path id="patch_209" d="M1110.297 165.5a4.99 4.99 0 1 0 0-9.98 4.99 4.99 0 0 0 0 9.98z" clip-path="url(#p1778e0b5b4)" style="fill:#ff0af5"/><path id="patch_210" d="M497.716 163.503a3.992 3.992 0 1 0 0-7.983 3.992 3.992 0 0 0 0 7.983z" clip-path="url(#p1778e0b5b4)" style="fill:#ff07f8"/><path id="patch_211" d="M611.127 1153.44a2.994 2.994 0 1 0 0-5.988 2.994 2.994 0 0 0 0 5.988z" clip-path="url(#p1778e0b5b4)" style="fill:#ff05fa"/><path id="patch_212" d="M866.957 159.512a1.996 1.996 0 1 0 0-3.992 1.996 1.996 0 0 0 0 3.992z" clip-path="url(#p1778e0b5b4)" style="fill:#ff02fd"/><path id="patch_213" d="M1162.162 513.83a.998.998 0 1 0 0-1.997.998.998 0 0 0 0 1.996z" clip-path="url(#p1778e0b5b4)" style="fill:#f0f"/><path id="patch_214" d="M270.23 617.075a5.988 5.988 0 1 0-.001-11.975 5.988 5.988 0 0 0 0 11.975z" clip-path="url(#p1778e0b5b4)" style="fill:#ff0cf3"/><path id="patch_215" d="M733.115 1153.44a4.99 4.99 0 1 0 0-9.98 4.99 4.99 0 0 0 0 9.98z" clip-path="url(#p1778e0b5b4)" style="fill:#ff0af5"/><path id="patch_216" d="M169.232 213.428a3.992 3.992 0 1 0 0-7.984 3.992 3.992 0 0 0 0 7.984z" clip-path="url(#p1778e0b5b4)" style="fill:#ff07f8"/><path id="patch_217" d="M908.557 1153.44a2.994 2.994 0 1 0 0-5.988 2.994 2.994 0 0 0 0 5.988z" clip-path="url(#p1778e0b5b4)" style="fill:#ff05fa"/><path id="patch_218" d="M963.45 159.512a1.996 1.996 0 1 0 0-3.992 1.996 1.996 0 0 0 0 3.992z" clip-path="url(#p1778e0b5b4)" style="fill:#ff02fd"/><path id="patch_219" d="M703.08 157.516a.998.998 0 1 0 0-1.996.998.998 0 0 0 0 1.996z" clip-path="url(#p1778e0b5b4)" style="fill:#f0f"/><path id="patch_220" d="M1154.179 393.854a8.982 8.982 0 1 0 0-17.964 8.982 8.982 0 0 0 0 17.964z" clip-path="url(#p1778e0b5b4)" style="fill:#ff14eb"/><path id="patch_221" d="M210.859 791.734a7.984 7.984 0 1 0 0-15.968 7.984 7.984 0 0 0 0 15.968z" clip-path="url(#p1778e0b5b4)" style="fill:#ff12ed"/><path id="patch_222" d="M868.122 933.986a6.986 6.986 0 1 0 0-13.971 6.986 6.986 0 0 0 0 13.971z" clip-path="url(#p1778e0b5b4)" style="fill:#ff0ff0"/><path id="patch_223" d="M1157.172 312.31a5.988 5.988 0 1 0 0-11.975 5.988 5.988 0 0 0 0 11.976z" clip-path="url(#p1778e0b5b4)" style="fill:#ff0cf3"/><path id="patch_224" d="M1158.17 574.12a4.99 4.99 0 1 0 0-9.98 4.99 4.99 0 0 0 0 9.98z" clip-path="url(#p1778e0b5b4)" style="fill:#ff0af5"/><path id="patch_225" d="M466.972 1153.44a3.992 3.992 0 1 0 0-7.984 3.992 3.992 0 0 0 0 7.984z" clip-path="url(#p1778e0b5b4)" style="fill:#ff07f8"/><path id="patch_226" d="M548.785 161.508a2.994 2.994 0 1 0 0-5.988 2.994 2.994 0 0 0 0 5.988z" clip-path="url(#p1778e0b5b4)" style="fill:#ff05fa"/><path id="patch_227" d="M1161.164 959.678a1.996 1.996 0 1 0 0-3.992 1.996 1.996 0 0 0 0 3.992z" clip-path="url(#p1778e0b5b4)" style="fill:#ff02fd"/><path id="patch_228" d="M753.05 157.516a.998.998 0 1 0 0-1.996.998.998 0 0 0 0 1.996z" clip-path="url(#p1778e0b5b4)" style="fill:#f0f"/><path id="patch_229" d="M1110.015 360.453a7.984 7.984 0 1 0 0-15.968 7.984 7.984 0 0 0 0 15.968z" clip-path="url(#p1778e0b5b4)" style="fill:#ff12ed"/><path id="patch_230" d="M218.352 969.486a6.986 6.986 0 1 0 0-13.971 6.986 6.986 0 0 0 0 13.971z" clip-path="url(#p1778e0b5b4)" style="fill:#ff0ff0"/><path id="patch_231" d="M722.898 321.483a5.988 5.988 0 1 0 0-11.976 5.988 5.988 0 0 0 0 11.976z" clip-path="url(#p1778e0b5b4)" style="fill:#ff0cf3"/><path id="patch_232" d="M216.41 1153.44a4.99 4.99 0 1 0 0-9.98 4.99 4.99 0 0 0 0 9.98z" clip-path="url(#p1778e0b5b4)" style="fill:#ff0af5"/><path id="patch_233" d="M1024.245 1153.44a3.992 3.992 0 1 0 0-7.984 3.992 3.992 0 0 0 0 7.984z" clip-path="url(#p1778e0b5b4)" style="fill:#ff07f8"/><path id="patch_234" d="M1160.166 647.521a2.994 2.994 0 1 0 0-5.988 2.994 2.994 0 0 0 0 5.988z" clip-path="url(#p1778e0b5b4)" style="fill:#ff05fa"/><path id="patch_235" d="M486.26 159.512a1.996 1.996 0 1 0 0-3.992 1.996 1.996 0 0 0 0 3.992z" clip-path="url(#p1778e0b5b4)" style="fill:#ff02fd"/><path id="patch_236" d="M1116.453 1153.44a.998.998 0 1 0 0-1.996.998.998 0 0 0 0 1.996z" clip-path="url(#p1778e0b5b4)" style="fill:#f0f"/><path id="patch_237" d="M887.924 705.8a60.876 60.876 0 0 0 60.873-60.873 60.876 60.876 0 0 0-60.873-60.873 60.876 60.876 0 0 0-60.873 60.873 60.876 60.876 0 0 0 60.873 60.874z" clip-path="url(#p1778e0b5b4)" style="fill:#ff9b64"/><path id="patch_238" d="M882.903 825.446a59.878 59.878 0 0 0 59.875-59.875 59.878 59.878 0 0 0-59.875-59.875 59.878 59.878 0 0 0-59.876 59.875 59.878 59.878 0 0 0 59.876 59.875z" clip-path="url(#p1778e0b5b4)" style="fill:#ff9867"/><path id="patch_239" d="M1047.189 708.137a9.98 9.98 0 1 0 0-19.96 9.98 9.98 0 0 0 0 19.96z" clip-path="url(#p1778e0b5b4)" style="fill:#ff17e8"/><path id="patch_240" d="M589.952 173.483a8.982 8.982 0 1 0 0-17.964 8.982 8.982 0 0 0 0 17.964z" clip-path="url(#p1778e0b5b4)" style="fill:#ff14eb"/><path id="patch_241" d="M361.821 1030.063a7.984 7.984 0 1 0 0-15.968 7.984 7.984 0 0 0 0 15.968z" clip-path="url(#p1778e0b5b4)" style="fill:#ff12ed"/><path id="patch_242" d="M482.107 358.369a6.986 6.986 0 1 0 0-13.972 6.986 6.986 0 0 0 0 13.972z" clip-path="url(#p1778e0b5b4)" style="fill:#ff0ff0"/><path id="patch_243" d="M953.895 661.787a5.988 5.988 0 1 0 0-11.976 5.988 5.988 0 0 0 0 11.976z" clip-path="url(#p1778e0b5b4)" style="fill:#ff0cf3"/><path id="patch_244" d="M1158.17 1013.99a4.99 4.99 0 1 0 0-9.98 4.99 4.99 0 0 0 0 9.98z" clip-path="url(#p1778e0b5b4)" style="fill:#ff0af5"/><path id="patch_245" d="M1159.168 376.89a3.992 3.992 0 1 0 0-7.984 3.992 3.992 0 0 0 0 7.983z" clip-path="url(#p1778e0b5b4)" style="fill:#ff07f8"/><path id="patch_246" d="M1160.166 679.01a2.994 2.994 0 1 0 0-5.988 2.994 2.994 0 0 0 0 5.988z" clip-path="url(#p1778e0b5b4)" style="fill:#ff05fa"/><path id="patch_247" d="M479.337 1153.44a1.996 1.996 0 1 0 0-3.992 1.996 1.996 0 0 0 0 3.992z" clip-path="url(#p1778e0b5b4)" style="fill:#ff02fd"/><path id="patch_248" d="M166.238 650.713a.998.998 0 1 0 0-1.996.998.998 0 0 0 0 1.996z" clip-path="url(#p1778e0b5b4)" style="fill:#f0f"/><path id="patch_249" d="M1033.518 828.5a13.972 13.972 0 1 0 0-27.943 13.972 13.972 0 0 0 0 27.943z" clip-path="url(#p1778e0b5b4)" style="fill:#ff21de"/><path id="patch_250" d="M264.78 469.141a12.974 12.974 0 1 0 0-25.947 12.974 12.974 0 0 0 0 25.947z" clip-path="url(#p1778e0b5b4)" style="fill:#ff1fe0"/><path id="patch_251" d="M1054.65 841.558a11.976 11.976 0 1 0 0-23.951 11.976 11.976 0 0 0 0 23.951z" clip-path="url(#p1778e0b5b4)" style="fill:#ff1ce3"/><path id="patch_252" d="M287.192 622.295a10.978 10.978 0 1 0 0-21.955 10.978 10.978 0 0 0 0 21.955z" clip-path="url(#p1778e0b5b4)" style="fill:#ff19e6"/><path id="patch_253" d="M393.725 175.478a9.98 9.98 0 1 0 0-19.959 9.98 9.98 0 0 0 0 19.96z" clip-path="url(#p1778e0b5b4)" style="fill:#ff17e8"/><path id="patch_254" d="M174.221 322.87a8.982 8.982 0 1 0 0-17.963 8.982 8.982 0 0 0 0 17.963z" clip-path="url(#p1778e0b5b4)" style="fill:#ff14eb"/><path id="patch_255" d="M968.077 1105.156a7.984 7.984 0 1 0 0-15.967 7.984 7.984 0 0 0 0 15.967z" clip-path="url(#p1778e0b5b4)" style="fill:#ff12ed"/><path id="patch_256" d="M273.236 445.075a6.986 6.986 0 1 0 0-13.972 6.986 6.986 0 0 0 0 13.972z" clip-path="url(#p1778e0b5b4)" style="fill:#ff0ff0"/><path id="patch_257" d="M171.228 1014.48a5.988 5.988 0 1 0 0-11.975 5.988 5.988 0 0 0 0 11.975z" clip-path="url(#p1778e0b5b4)" style="fill:#ff0cf3"/><path id="patch_258" d="M170.23 1107.26a4.99 4.99 0 1 0 0-9.98 4.99 4.99 0 0 0 0 9.98z" clip-path="url(#p1778e0b5b4)" style="fill:#ff0af5"/><path id="patch_259" d="M723.685 1153.44a3.992 3.992 0 1 0 0-7.984 3.992 3.992 0 0 0 0 7.984z" clip-path="url(#p1778e0b5b4)" style="fill:#ff07f8"/><path id="patch_260" d="M168.234 636.351a2.994 2.994 0 1 0 0-5.988 2.994 2.994 0 0 0 0 5.988z" clip-path="url(#p1778e0b5b4)" style="fill:#ff05fa"/><path id="patch_261" d="M1029.89 1153.44a1.996 1.996 0 1 0 0-3.992 1.996 1.996 0 0 0 0 3.992z" clip-path="url(#p1778e0b5b4)" style="fill:#ff02fd"/><path id="patch_262" d="M166.238 816.309a.998.998 0 1 0 0-1.996.998.998 0 0 0 0 1.996z" clip-path="url(#p1778e0b5b4)" style="fill:#f0f"/><path id="patch_263" d="M278.078 787.903a3.992 3.992 0 1 0 0-7.983 3.992 3.992 0 0 0 0 7.983z" clip-path="url(#p1778e0b5b4)" style="fill:#ff07f8"/><path id="patch_264" d="M985.024 1153.44a2.994 2.994 0 1 0 0-5.988 2.994 2.994 0 0 0 0 5.988z" clip-path="url(#p1778e0b5b4)" style="fill:#ff05fa"/><path id="patch_265" d="M791.033 1153.44a1.996 1.996 0 1 0 0-3.992 1.996 1.996 0 0 0 0 3.992z" clip-path="url(#p1778e0b5b4)" style="fill:#ff02fd"/><path id="patch_266" d="M166.238 831.806a.998.998 0 1 0 0-1.996.998.998 0 0 0 0 1.996z" clip-path="url(#p1778e0b5b4)" style="fill:#f0f"/><path id="patch_267" d="M749.058 789.623a88.819 88.819 0 0 0 88.815-88.815 88.819 88.819 0 0 0-88.815-88.815 88.819 88.819 0 0 0-88.815 88.815 88.819 88.819 0 0 0 88.815 88.815z" clip-path="url(#p1778e0b5b4)" style="fill:#ffe31c"/><path id="patch_268" d="M383.743 678.204a87.821 87.821 0 0 0 87.817-87.817 87.821 87.821 0 0 0-87.817-87.817 87.821 87.821 0 0 0-87.816 87.817 87.821 87.821 0 0 0 87.816 87.817z" clip-path="url(#p1778e0b5b4)" style="fill:#ffe01f"/><path id="patch_269" d="M751.819 608.073a43.91 43.91 0 0 0 43.908-43.908 43.91 43.91 0 0 0-43.908-43.909 43.91 43.91 0 0 0-43.909 43.909 43.91 43.91 0 0 0 43.909 43.908z" clip-path="url(#p1778e0b5b4)" style="fill:#ff6f90"/><path id="patch_270" d="M806.702 817.35a21.955 21.955 0 1 0-.001-43.91 21.955 21.955 0 0 0 0 43.91z" clip-path="url(#p1778e0b5b4)" style="fill:#ff36c9"/><path id="patch_271" d="M394.03 1153.44a20.957 20.957 0 1 0-.001-41.915 20.957 20.957 0 0 0 0 41.915z" clip-path="url(#p1778e0b5b4)" style="fill:#f3c"/><path id="patch_272" d="M778.327 1107.142a7.984 7.984 0 1 0 0-15.968 7.984 7.984 0 0 0 0 15.968z" clip-path="url(#p1778e0b5b4)" style="fill:#ff12ed"/><path id="patch_273" d="M418.228 1153.44a6.986 6.986 0 1 0 0-13.972 6.986 6.986 0 0 0 0 13.972z" clip-path="url(#p1778e0b5b4)" style="fill:#ff0ff0"/><path id="patch_274" d="M409.184 167.495a5.988 5.988 0 1 0 0-11.976 5.988 5.988 0 0 0 0 11.976z" clip-path="url(#p1778e0b5b4)" style="fill:#ff0cf3"/><path id="patch_275" d="M311.29 1153.44a4.99 4.99 0 1 0 0-9.98 4.99 4.99 0 0 0 0 9.98z" clip-path="url(#p1778e0b5b4)" style="fill:#ff0af5"/><path id="patch_276" d="M1018.552 163.503a3.992 3.992 0 1 0 0-7.983 3.992 3.992 0 0 0 0 7.983z" clip-path="url(#p1778e0b5b4)" style="fill:#ff07f8"/><path id="patch_277" d="M646.13 1153.44a2.994 2.994 0 1 0 0-5.988 2.994 2.994 0 0 0 0 5.988z" clip-path="url(#p1778e0b5b4)" style="fill:#ff05fa"/><path id="patch_278" d="M718.04 1153.44a1.996 1.996 0 1 0 0-3.992 1.996 1.996 0 0 0 0 3.992z" clip-path="url(#p1778e0b5b4)" style="fill:#ff02fd"/><path id="patch_279" d="M1135.722 157.516a.998.998 0 1 0 0-1.996.998.998 0 0 0 0 1.996z" clip-path="url(#p1778e0b5b4)" style="fill:#f0f"/><path id="patch_280" d="M817.053 772.857a5.988 5.988 0 1 0 0-11.975 5.988 5.988 0 0 0 0 11.975z" clip-path="url(#p1778e0b5b4)" style="fill:#ff0cf3"/><path id="patch_281" d="M373.578 1153.44a4.99 4.99 0 1 0 0-9.98 4.99 4.99 0 0 0 0 9.98z" clip-path="url(#p1778e0b5b4)" style="fill:#ff0af5"/><path id="patch_282" d="M418.962 163.503a3.992 3.992 0 1 0 0-7.983 3.992 3.992 0 0 0 0 7.983z" clip-path="url(#p1778e0b5b4)" style="fill:#ff07f8"/><path id="patch_283" d="M1160.166 824.766a2.994 2.994 0 1 0 0-5.988 2.994 2.994 0 0 0 0 5.988z" clip-path="url(#p1778e0b5b4)" style="fill:#ff05fa"/><path id="patch_284" d="M727.659 159.512a1.996 1.996 0 1 0 0-3.992 1.996 1.996 0 0 0 0 3.992z" clip-path="url(#p1778e0b5b4)" style="fill:#ff02fd"/><path id="patch_285" d="M1162.162 660.656a.998.998 0 1 0 0-1.996.998.998 0 0 0 0 1.996z" clip-path="url(#p1778e0b5b4)" style="fill:#f0f"/><path id="patch_286" d="M818.54 640.556a9.98 9.98 0 1 0 0-19.96 9.98 9.98 0 0 0 0 19.96z" clip-path="url(#p1778e0b5b4)" style="fill:#ff17e8"/><path id="patch_287" d="M952.872 457.526a8.982 8.982 0 1 0 0-17.963 8.982 8.982 0 0 0 0 17.963z" clip-path="url(#p1778e0b5b4)" style="fill:#ff14eb"/><path id="patch_288" d="M362.805 219.387a7.984 7.984 0 1 0 0-15.968 7.984 7.984 0 0 0 0 15.968z" clip-path="url(#p1778e0b5b4)" style="fill:#ff12ed"/><path id="patch_289" d="M742.656 215.372a6.986 6.986 0 1 0 0-13.971 6.986 6.986 0 0 0 0 13.971z" clip-path="url(#p1778e0b5b4)" style="fill:#ff0ff0"/><path id="patch_290" d="M572.51 1008.23a5.988 5.988 0 1 0 0-11.977 5.988 5.988 0 0 0 0 11.976z" clip-path="url(#p1778e0b5b4)" style="fill:#ff0cf3"/><path id="patch_291" d="M170.23 305.49a4.99 4.99 0 1 0 0-9.98 4.99 4.99 0 0 0 0 9.98z" clip-path="url(#p1778e0b5b4)" style="fill:#ff0af5"/><path id="patch_292" d="M302.364 1153.44a3.992 3.992 0 1 0 0-7.984 3.992 3.992 0 0 0 0 7.984z" clip-path="url(#p1778e0b5b4)" style="fill:#ff07f8"/><path id="patch_293" d="M168.234 219.344a2.994 2.994 0 1 0 0-5.988 2.994 2.994 0 0 0 0 5.988z" clip-path="url(#p1778e0b5b4)" style="fill:#ff05fa"/><path id="patch_294" d="M167.236 1003.575a1.996 1.996 0 1 0 0-3.992 1.996 1.996 0 0 0 0 3.992z" clip-path="url(#p1778e0b5b4)" style="fill:#ff02fd"/><path id="patch_295" d="M800.29 1153.44a.998.998 0 1 0 0-1.996.998.998 0 0 0 0 1.996z" clip-path="url(#p1778e0b5b4)" style="fill:#f0f"/><path id="patch_296" d="M781.676 529.49a8.982 8.982 0 1 0 0-17.964 8.982 8.982 0 0 0 0 17.964z" clip-path="url(#p1778e0b5b4)" style="fill:#ff14eb"/><path id="patch_297" d="M460.176 991.428a7.984 7.984 0 1 0 0-15.968 7.984 7.984 0 0 0 0 15.968z" clip-path="url(#p1778e0b5b4)" style="fill:#ff12ed"/><path id="patch_298" d="M541.486 197.513a6.986 6.986 0 1 0 0-13.971 6.986 6.986 0 0 0 0 13.971z" clip-path="url(#p1778e0b5b4)" style="fill:#ff0ff0"/><path id="patch_299" d="M606.746 1006.565a5.988 5.988 0 1 0 0-11.976 5.988 5.988 0 0 0 0 11.976z" clip-path="url(#p1778e0b5b4)" style="fill:#ff0cf3"/><path id="patch_300" d="M1158.17 213.372a4.99 4.99 0 1 0 0-9.98 4.99 4.99 0 0 0 0 9.98z" clip-path="url(#p1778e0b5b4)" style="fill:#ff0af5"/><path id="patch_301" d="M304.385 163.503a3.992 3.992 0 1 0 0-7.983 3.992 3.992 0 0 0 0 7.983z" clip-path="url(#p1778e0b5b4)" style="fill:#ff07f8"/><path id="patch_302" d="M1160.166 1097.534a2.994 2.994 0 1 0 0-5.988 2.994 2.994 0 0 0 0 5.988z" clip-path="url(#p1778e0b5b4)" style="fill:#ff05fa"/><path id="patch_303" d="M167.236 924.522a1.996 1.996 0 1 0 0-3.992 1.996 1.996 0 0 0 0 3.992z" clip-path="url(#p1778e0b5b4)" style="fill:#ff02fd"/><path id="patch_304" d="M462.98 1153.44a.998.998 0 1 0 0-1.996.998.998 0 0 0 0 1.996z" clip-path="url(#p1778e0b5b4)" style="fill:#f0f"/><path id="patch_305" d="M483.965 545.686a43.91 43.91 0 0 0 43.908-43.909 43.91 43.91 0 0 0-43.908-43.908 43.91 43.91 0 0 0-43.909 43.908 43.91 43.91 0 0 0 43.909 43.909z" clip-path="url(#p1778e0b5b4)" style="fill:#ff6f90"/><path id="patch_306" d="M847.82 713.316a9.98 9.98 0 1 0 0-19.96 9.98 9.98 0 0 0 0 19.96z" clip-path="url(#p1778e0b5b4)" style="fill:#ff17e8"/><path id="patch_307" d="M934.974 459.039a8.982 8.982 0 1 0 0-17.964 8.982 8.982 0 0 0 0 17.964z" clip-path="url(#p1778e0b5b4)" style="fill:#ff14eb"/><path id="patch_308" d="M987.879 609.98a7.984 7.984 0 1 0 0-15.968 7.984 7.984 0 0 0 0 15.967z" clip-path="url(#p1778e0b5b4)" style="fill:#ff12ed"/><path id="patch_309" d="M1114.264 532.529a6.986 6.986 0 1 0 0-13.972 6.986 6.986 0 0 0 0 13.972z" clip-path="url(#p1778e0b5b4)" style="fill:#ff0ff0"/><path id="patch_310" d="M435.126 897.268a5.988 5.988 0 1 0 0-11.975 5.988 5.988 0 0 0 0 11.975z" clip-path="url(#p1778e0b5b4)" style="fill:#ff0cf3"/><path id="patch_311" d="M603.34 165.5a4.99 4.99 0 1 0 0-9.98 4.99 4.99 0 0 0 0 9.98z" clip-path="url(#p1778e0b5b4)" style="fill:#ff0af5"/><path id="patch_312" d="M1159.168 300.537a3.992 3.992 0 1 0 0-7.984 3.992 3.992 0 0 0 0 7.984z" clip-path="url(#p1778e0b5b4)" style="fill:#ff07f8"/><path id="patch_313" d="M520.022 161.508a2.994 2.994 0 1 0 0-5.988 2.994 2.994 0 0 0 0 5.988z" clip-path="url(#p1778e0b5b4)" style="fill:#ff05fa"/><path id="patch_314" d="M167.236 223.235a1.996 1.996 0 1 0 0-3.992 1.996 1.996 0 0 0 0 3.992z" clip-path="url(#p1778e0b5b4)" style="fill:#ff02fd"/><path id="patch_315" d="M166.238 305.961a.998.998 0 1 0 0-1.996.998.998 0 0 0 0 1.996z" clip-path="url(#p1778e0b5b4)" style="fill:#f0f"/><path id="patch_316" d="M440.46 357.465a5.988 5.988 0 1 0 0-11.975 5.988 5.988 0 0 0 0 11.975z" clip-path="url(#p1778e0b5b4)" style="fill:#ff0cf3"/><path id="patch_317" d="M1158.17 404.002a4.99 4.99 0 1 0 0-9.98 4.99 4.99 0 0 0 0 9.98z" clip-path="url(#p1778e0b5b4)" style="fill:#ff0af5"/><path id="patch_318" d="M840.252 722.025a3.992 3.992 0 1 0 0-7.984 3.992 3.992 0 0 0 0 7.984z" clip-path="url(#p1778e0b5b4)" style="fill:#ff07f8"/><path id="patch_319" d="M614.684 161.508a2.994 2.994 0 1 0 0-5.988 2.994 2.994 0 0 0 0 5.988z" clip-path="url(#p1778e0b5b4)" style="fill:#ff05fa"/><path id="patch_320" d="M954.261 1153.44a1.996 1.996 0 1 0 0-3.992 1.996 1.996 0 0 0 0 3.992z" clip-path="url(#p1778e0b5b4)" style="fill:#ff02fd"/><path id="patch_321" d="M642.674 1153.44a.998.998 0 1 0 0-1.996.998.998 0 0 0 0 1.996z" clip-path="url(#p1778e0b5b4)" style="fill:#f0f"/><path id="patch_322" d="M486.618 457.94a5.988 5.988 0 1 0 0-11.976 5.988 5.988 0 0 0 0 11.975z" clip-path="url(#p1778e0b5b4)" style="fill:#ff0cf3"/><path id="patch_323" d="M216.41 165.5a4.99 4.99 0 1 0 0-9.98 4.99 4.99 0 0 0 0 9.98z" clip-path="url(#p1778e0b5b4)" style="fill:#ff0af5"/><path id="patch_324" d="M229.946 965.09a3.992 3.992 0 1 0 0-7.985 3.992 3.992 0 0 0 0 7.984z" clip-path="url(#p1778e0b5b4)" style="fill:#ff07f8"/><path id="patch_325" d="M1160.166 547.78a2.994 2.994 0 1 0 0-5.988 2.994 2.994 0 0 0 0 5.988z" clip-path="url(#p1778e0b5b4)" style="fill:#ff05fa"/><path id="patch_326" d="M900.3 1153.44a1.996 1.996 0 1 0 0-3.992 1.996 1.996 0 0 0 0 3.992z" clip-path="url(#p1778e0b5b4)" style="fill:#ff02fd"/><path id="patch_327" d="M1162.162 818.387a.998.998 0 1 0 0-1.996.998.998 0 0 0 0 1.996z" clip-path="url(#p1778e0b5b4)" style="fill:#f0f"/><path id="patch_328" d="M500.601 563.012a9.98 9.98 0 1 0 0-19.96 9.98 9.98 0 0 0 0 19.96z" clip-path="url(#p1778e0b5b4)" style="fill:#ff17e8"/><path id="patch_329" d="M919.668 716.333a8.982 8.982 0 1 0 0-17.963 8.982 8.982 0 0 0 0 17.963z" clip-path="url(#p1778e0b5b4)" style="fill:#ff14eb"/><path id="patch_330" d="M477.551 449.306a7.984 7.984 0 1 0 0-15.967 7.984 7.984 0 0 0 0 15.967z" clip-path="url(#p1778e0b5b4)" style="fill:#ff12ed"/><path id="patch_331" d="M476.791 880.78a6.986 6.986 0 1 0 0-13.972 6.986 6.986 0 0 0 0 13.971z" clip-path="url(#p1778e0b5b4)" style="fill:#ff0ff0"/><path id="patch_332" d="M665.9 969.729a5.988 5.988 0 1 0 0-11.976 5.988 5.988 0 0 0 0 11.976z" clip-path="url(#p1778e0b5b4)" style="fill:#ff0cf3"/><path id="patch_333" d="M1158.17 802.665a4.99 4.99 0 1 0 0-9.98 4.99 4.99 0 0 0 0 9.98z" clip-path="url(#p1778e0b5b4)" style="fill:#ff0af5"/><path id="patch_334" d="M552.78 222.301a3.992 3.992 0 1 0 0-7.984 3.992 3.992 0 0 0 0 7.984z" clip-path="url(#p1778e0b5b4)" style="fill:#ff07f8"/><path id="patch_335" d="M168.234 295.765a2.994 2.994 0 1 0 0-5.988 2.994 2.994 0 0 0 0 5.988z" clip-path="url(#p1778e0b5b4)" style="fill:#ff05fa"/><path id="patch_336" d="M167.236 674.645a1.996 1.996 0 1 0 0-3.992 1.996 1.996 0 0 0 0 3.992z" clip-path="url(#p1778e0b5b4)" style="fill:#ff02fd"/><path id="patch_337" d="M966.272 157.516a.998.998 0 1 0 0-1.996.998.998 0 0 0 0 1.996z" clip-path="url(#p1778e0b5b4)" style="fill:#f0f"/><path id="patch_338" d="M947.481 617.404a8.982 8.982 0 1 0 0-17.964 8.982 8.982 0 0 0 0 17.964z" clip-path="url(#p1778e0b5b4)" style="fill:#ff14eb"/><path id="patch_339" d="M1123.356 974.637a5.988 5.988 0 1 0 0-11.976 5.988 5.988 0 0 0 0 11.976z" clip-path="url(#p1778e0b5b4)" style="fill:#ff0cf3"/><path id="patch_340" d="M206.734 345.836a4.99 4.99 0 1 0 0-9.98 4.99 4.99 0 0 0 0 9.98z" clip-path="url(#p1778e0b5b4)" style="fill:#ff0af5"/><path id="patch_341" d="M186.87 497.597a3.992 3.992 0 1 0 0-7.983 3.992 3.992 0 0 0 0 7.983z" clip-path="url(#p1778e0b5b4)" style="fill:#ff07f8"/><path id="patch_342" d="M1160.166 340.365a2.994 2.994 0 1 0 0-5.988 2.994 2.994 0 0 0 0 5.988z" clip-path="url(#p1778e0b5b4)" style="fill:#ff05fa"/><path id="patch_343" d="M978.775 159.512a1.996 1.996 0 1 0 0-3.992 1.996 1.996 0 0 0 0 3.992z" clip-path="url(#p1778e0b5b4)" style="fill:#ff02fd"/><path id="patch_344" d="M730.481 157.516a.998.998 0 1 0 0-1.996.998.998 0 0 0 0 1.996z" clip-path="url(#p1778e0b5b4)" style="fill:#f0f"/><path id="patch_345" d="M979.114 804.57a4.99 4.99 0 1 0 0-9.98 4.99 4.99 0 0 0 0 9.98z" clip-path="url(#p1778e0b5b4)" style="fill:#ff0af5"/><path id="patch_346" d="M1042.337 715.25a3.992 3.992 0 1 0 0-7.983 3.992 3.992 0 0 0 0 7.984z" clip-path="url(#p1778e0b5b4)" style="fill:#ff07f8"/><path id="patch_347" d="M799.814 161.508a2.994 2.994 0 1 0 0-5.988 2.994 2.994 0 0 0 0 5.988z" clip-path="url(#p1778e0b5b4)" style="fill:#ff05fa"/><path id="patch_348" d="M543.896 159.512a1.996 1.996 0 1 0 0-3.992 1.996 1.996 0 0 0 0 3.992z" clip-path="url(#p1778e0b5b4)" style="fill:#ff02fd"/><path id="patch_349" d="M1162.162 723.609a.998.998 0 1 0 0-1.996.998.998 0 0 0 0 1.996z" clip-path="url(#p1778e0b5b4)" style="fill:#f0f"/><path id="patch_350" d="M801.865 625.671a19.96 19.96 0 1 0 0-39.918 19.96 19.96 0 0 0 0 39.918z" clip-path="url(#p1778e0b5b4)" style="fill:#ff31ce"/><path id="patch_351" d="M490.807 597.164a17.963 17.963 0 1 0 0-35.927 17.963 17.963 0 0 0 0 35.927z" clip-path="url(#p1778e0b5b4)" style="fill:#ff2bd4"/><path id="patch_352" d="M710.045 539.54a10.978 10.978 0 1 0 0-21.954 10.978 10.978 0 0 0 0 21.955z" clip-path="url(#p1778e0b5b4)" style="fill:#ff19e6"/><path id="patch_353" d="M536.282 498.839a9.98 9.98 0 1 0 0-19.96 9.98 9.98 0 0 0 0 19.96z" clip-path="url(#p1778e0b5b4)" style="fill:#ff17e8"/><path id="patch_354" d="M261.826 486.904a8.982 8.982 0 1 0 0-17.964 8.982 8.982 0 0 0 0 17.964z" clip-path="url(#p1778e0b5b4)" style="fill:#ff14eb"/><path id="patch_355" d="M482.703 562.537a7.984 7.984 0 1 0 0-15.968 7.984 7.984 0 0 0 0 15.968z" clip-path="url(#p1778e0b5b4)" style="fill:#ff12ed"/><path id="patch_356" d="M1073.394 839.426a6.986 6.986 0 1 0 0-13.972 6.986 6.986 0 0 0 0 13.972z" clip-path="url(#p1778e0b5b4)" style="fill:#ff0ff0"/><path id="patch_357" d="M741.917 289.597a5.988 5.988 0 1 0 0-11.976 5.988 5.988 0 0 0 0 11.976z" clip-path="url(#p1778e0b5b4)" style="fill:#ff0cf3"/><path id="patch_358" d="M1054.247 936.391a4.99 4.99 0 1 0 0-9.98 4.99 4.99 0 0 0 0 9.98z" clip-path="url(#p1778e0b5b4)" style="fill:#ff0af5"/><path id="patch_359" d="M345.116 896.01a3.992 3.992 0 1 0 0-7.983 3.992 3.992 0 0 0 0 7.983z" clip-path="url(#p1778e0b5b4)" style="fill:#ff07f8"/><path id="patch_360" d="M1160.166 411.334a2.994 2.994 0 1 0 0-5.987 2.994 2.994 0 0 0 0 5.987z" clip-path="url(#p1778e0b5b4)" style="fill:#ff05fa"/><path id="patch_361" d="M425.695 1153.44a1.996 1.996 0 1 0 0-3.992 1.996 1.996 0 0 0 0 3.992z" clip-path="url(#p1778e0b5b4)" style="fill:#ff02fd"/><path id="patch_362" d="M554.883 1153.44a.998.998 0 1 0 0-1.996.998.998 0 0 0 0 1.996z" clip-path="url(#p1778e0b5b4)" style="fill:#f0f"/><path id="patch_363" d="M834.116 571.297a43.91 43.91 0 0 0 43.909-43.909 43.91 43.91 0 0 0-43.909-43.908 43.91 43.91 0 0 0-43.908 43.908 43.91 43.91 0 0 0 43.908 43.909z" clip-path="url(#p1778e0b5b4)" style="fill:#ff6f90"/><path id="patch_364" d="M702.257 969.312a5.988 5.988 0 1 0 0-11.975 5.988 5.988 0 0 0 0 11.975z" clip-path="url(#p1778e0b5b4)" style="fill:#ff0cf3"/><path id="patch_365" d="M344.84 863.484a4.99 4.99 0 1 0-.001-9.98 4.99 4.99 0 0 0 0 9.98z" clip-path="url(#p1778e0b5b4)" style="fill:#ff0af5"/><path id="patch_366" d="M1038.086 691.551a3.992 3.992 0 1 0 0-7.983 3.992 3.992 0 0 0 0 7.983z" clip-path="url(#p1778e0b5b4)" style="fill:#ff07f8"/><path id="patch_367" d="M537.908 1153.44a2.994 2.994 0 1 0 0-5.988 2.994 2.994 0 0 0 0 5.988z" clip-path="url(#p1778e0b5b4)" style="fill:#ff05fa"/><path id="patch_368" d="M298.74 159.512a1.996 1.996 0 1 0 0-3.992 1.996 1.996 0 0 0 0 3.992z" clip-path="url(#p1778e0b5b4)" style="fill:#ff02fd"/><path id="patch_369" d="M765.871 1153.44a.998.998 0 1 0 0-1.996.998.998 0 0 0 0 1.996z" clip-path="url(#p1778e0b5b4)" style="fill:#f0f"/><path id="patch_370" d="M1042.19 960.494a4.99 4.99 0 1 0 0-9.98 4.99 4.99 0 0 0 0 9.98z" clip-path="url(#p1778e0b5b4)" style="fill:#ff0af5"/><path id="patch_371" d="M349.809 1110.181a3.992 3.992 0 1 0 0-7.983 3.992 3.992 0 0 0 0 7.983z" clip-path="url(#p1778e0b5b4)" style="fill:#ff07f8"/><path id="patch_372" d="M1102.567 161.508a2.994 2.994 0 1 0 0-5.988 2.994 2.994 0 0 0 0 5.988z" clip-path="url(#p1778e0b5b4)" style="fill:#ff05fa"/><path id="patch_373" d="M862.966 159.512a1.996 1.996 0 1 0 0-3.992 1.996 1.996 0 0 0 0 3.992z" clip-path="url(#p1778e0b5b4)" style="fill:#ff02fd"/><path id="patch_374" d="M523.48 157.516a.998.998 0 1 0 0-1.996.998.998 0 0 0 0 1.996z" clip-path="url(#p1778e0b5b4)" style="fill:#f0f"/><path id="patch_375" d="M832.874 831.497a12.974 12.974 0 1 0 0-25.947 12.974 12.974 0 0 0 0 25.947z" clip-path="url(#p1778e0b5b4)" style="fill:#ff1fe0"/><path id="patch_376" d="M697.26 523.02a4.99 4.99 0 1 0 0-9.98 4.99 4.99 0 0 0 0 9.98z" clip-path="url(#p1778e0b5b4)" style="fill:#ff0af5"/><path id="patch_377" d="M222.827 788.158a3.992 3.992 0 1 0 0-7.984 3.992 3.992 0 0 0 0 7.984z" clip-path="url(#p1778e0b5b4)" style="fill:#ff07f8"/><path id="patch_378" d="M926.835 161.508a2.994 2.994 0 1 0 0-5.988 2.994 2.994 0 0 0 0 5.988z" clip-path="url(#p1778e0b5b4)" style="fill:#ff05fa"/><path id="patch_379" d="M1161.164 369.248a1.996 1.996 0 1 0 0-3.992 1.996 1.996 0 0 0 0 3.992z" clip-path="url(#p1778e0b5b4)" style="fill:#ff02fd"/><path id="patch_380" d="M400.036 157.516a.998.998 0 1 0 0-1.996.998.998 0 0 0 0 1.996z" clip-path="url(#p1778e0b5b4)" style="fill:#f0f"/><path id="patch_381" d="M967.945 1089.19a3.992 3.992 0 1 0 0-7.984 3.992 3.992 0 0 0 0 7.984z" clip-path="url(#p1778e0b5b4)" style="fill:#ff07f8"/><path id="patch_382" d="M892.567 161.508a2.994 2.994 0 1 0 0-5.988 2.994 2.994 0 0 0 0 5.988z" clip-path="url(#p1778e0b5b4)" style="fill:#ff05fa"/><path id="patch_383" d="M492.07 159.512a1.996 1.996 0 1 0 0-3.992 1.996 1.996 0 0 0 0 3.992z" clip-path="url(#p1778e0b5b4)" style="fill:#ff02fd"/><path id="patch_384" d="M1162.162 395.547a.998.998 0 1 0 0-1.996.998.998 0 0 0 0 1.996z" clip-path="url(#p1778e0b5b4)" style="fill:#f0f"/><path id="patch_385" d="M948.721 300.149a17.963 17.963 0 1 0 0-35.927 17.963 17.963 0 0 0 0 35.927z" clip-path="url(#p1778e0b5b4)" style="fill:#ff2bd4"/><path id="patch_386" d="M498.609 630.21a16.965 16.965 0 1 0-.001-33.93 16.965 16.965 0 0 0 0 33.93z" clip-path="url(#p1778e0b5b4)" style="fill:#ff29d6"/><path id="patch_387" d="M350.25 704.584a15.967 15.967 0 1 0-.001-31.935 15.967 15.967 0 0 0 0 31.935z" clip-path="url(#p1778e0b5b4)" style="fill:#ff26d9"/><path id="patch_388" d="M855.33 850.12a14.97 14.97 0 1 0 0-29.939 14.97 14.97 0 0 0 0 29.94z" clip-path="url(#p1778e0b5b4)" style="fill:#ff24db"/><path id="patch_389" d="M712.14 600.404a5.988 5.988 0 1 0 0-11.976 5.988 5.988 0 0 0 0 11.976z" clip-path="url(#p1778e0b5b4)" style="fill:#ff0cf3"/><g id="matplotlib.axis_1"><g id="xtick_1"><g id="line2d_1"><defs><path id="m517044059f" d="M0 0v3.5" style="stroke:#000;stroke-width:.8"/></defs><use xlink:href="#m517044059f" x="165.24" y="1153.44" style="stroke:#000;stroke-width:.8"/></g><g id="text_1" transform="matrix(.1 0 0 -.1 162.059 1168.038)"><defs><path id="DejaVuSans-30" d="M2034 4250q-487 0-733-480-245-479-245-1442 0-959 245-1439 246-480 733-480 491 0 736 480 246 480 246 1439 0 963-246 1442-245 480-736 480zm0 500q785 0 1199-621 414-620 414-1801 0-1178-414-1799Q2819-91 2034-91q-784 0-1198 620-414 621-414 1799 0 1181 414 1801 414 621 1198 621z" transform="scale(.01563)"/></defs><use xlink:href="#DejaVuSans-30"/></g></g><g id="xtick_2"><use xlink:href="#m517044059f" id="line2d_2" x="364.824" y="1153.44" style="stroke:#000;stroke-width:.8"/><g id="text_2" transform="matrix(.1 0 0 -.1 355.28 1168.038)"><defs><path id="DejaVuSans-32" d="M1228 531h2203V0H469v531q359 372 979 998 621 627 780 809 303 340 423 576 121 236 121 464 0 372-261 606-261 235-680 235-297 0-627-103-329-103-704-313v638q381 153 712 231 332 78 607 78 725 0 1156-363 431-362 431-968 0-288-108-546-107-257-392-607-78-91-497-524-418-433-1181-1211z" transform="scale(.01563)"/></defs><use xlink:href="#DejaVuSans-32"/><use xlink:href="#DejaVuSans-30" x="63.623"/><use xlink:href="#DejaVuSans-30" x="127.246"/></g></g><g id="xtick_3"><use xlink:href="#m517044059f" id="line2d_3" x="564.408" y="1153.44" style="stroke:#000;stroke-width:.8"/><g id="text_3" transform="matrix(.1 0 0 -.1 554.864 1168.038)"><defs><path id="DejaVuSans-34" d="M2419 4116 825 1625h1594v2491zm-166 550h794V1625h666v-525h-666V0h-628v1100H313v609l1940 2957z" transform="scale(.01563)"/></defs><use xlink:href="#DejaVuSans-34"/><use xlink:href="#DejaVuSans-30" x="63.623"/><use xlink:href="#DejaVuSans-30" x="127.246"/></g></g><g id="xtick_4"><use xlink:href="#m517044059f" id="line2d_4" x="763.992" y="1153.44" style="stroke:#000;stroke-width:.8"/><g id="text_4" transform="matrix(.1 0 0 -.1 754.448 1168.038)"><defs><path id="DejaVuSans-36" d="M2113 2584q-425 0-674-291-248-290-248-796 0-503 248-796 249-292 674-292t673 292q248 293 248 796 0 506-248 796-248 291-673 291zm1253 1979v-575q-238 112-480 171-242 60-480 60-625 0-955-422-329-422-376-1275 184 272 462 417 279 145 613 145 703 0 1111-427 408-426 408-1160 0-719-425-1154Q2819-91 2113-91q-810 0-1238 620-428 621-428 1799 0 1106 525 1764t1409 658q238 0 480-47t505-140z" transform="scale(.01563)"/></defs><use xlink:href="#DejaVuSans-36"/><use xlink:href="#DejaVuSans-30" x="63.623"/><use xlink:href="#DejaVuSans-30" x="127.246"/></g></g><g id="xtick_5"><use xlink:href="#m517044059f" id="line2d_5" x="963.576" y="1153.44" style="stroke:#000;stroke-width:.8"/><g id="text_5" transform="matrix(.1 0 0 -.1 954.032 1168.038)"><defs><path id="DejaVuSans-38" d="M2034 2216q-450 0-708-241-257-241-257-662 0-422 257-663 258-241 708-241t709 242q260 243 260 662 0 421-258 662-257 241-711 241zm-631 268q-406 100-633 378-226 279-226 679 0 559 398 884 399 325 1092 325 697 0 1094-325t397-884q0-400-227-679-226-278-629-378 456-106 710-416 255-309 255-755 0-679-414-1042Q2806-91 2034-91q-771 0-1186 362-414 363-414 1042 0 446 256 755 257 310 713 416zm-231 997q0-362 226-565 227-203 636-203 407 0 636 203 230 203 230 565 0 363-230 566-229 203-636 203-409 0-636-203-226-203-226-566z" transform="scale(.01563)"/></defs><use xlink:href="#DejaVuSans-38"/><use xlink:href="#DejaVuSans-30" x="63.623"/><use xlink:href="#DejaVuSans-30" x="127.246"/></g></g><g id="xtick_6"><use xlink:href="#m517044059f" id="line2d_6" x="1163.16" y="1153.44" style="stroke:#000;stroke-width:.8"/><g id="text_6" transform="matrix(.1 0 0 -.1 1150.435 1168.038)"><defs><path id="DejaVuSans-31" d="M794 531h1031v3560L703 3866v575l1116 225h631V531h1031V0H794v531z" transform="scale(.01563)"/></defs><use xlink:href="#DejaVuSans-31"/><use xlink:href="#DejaVuSans-30" x="63.623"/><use xlink:href="#DejaVuSans-30" x="127.246"/><use xlink:href="#DejaVuSans-30" x="190.869"/></g></g></g><g id="matplotlib.axis_2"><g id="ytick_1"><g id="line2d_7"><defs><path id="m29d98ca388" d="M0 0h-3.5" style="stroke:#000;stroke-width:.8"/></defs><use xlink:href="#m29d98ca388" x="165.24" y="1153.44" style="stroke:#000;stroke-width:.8"/></g><use xlink:href="#DejaVuSans-30" id="text_7" transform="matrix(.1 0 0 -.1 151.877 1157.24)"/></g><g id="ytick_2"><use xlink:href="#m29d98ca388" id="line2d_8" x="165.24" y="953.856" style="stroke:#000;stroke-width:.8"/><g id="text_8" transform="matrix(.1 0 0 -.1 139.153 957.655)"><use xlink:href="#DejaVuSans-32"/><use xlink:href="#DejaVuSans-30" x="63.623"/><use xlink:href="#DejaVuSans-30" x="127.246"/></g></g><g id="ytick_3"><use xlink:href="#m29d98ca388" id="line2d_9" x="165.24" y="754.272" style="stroke:#000;stroke-width:.8"/><g id="text_9" transform="matrix(.1 0 0 -.1 139.153 758.071)"><use xlink:href="#DejaVuSans-34"/><use xlink:href="#DejaVuSans-30" x="63.623"/><use xlink:href="#DejaVuSans-30" x="127.246"/></g></g><g id="ytick_4"><use xlink:href="#m29d98ca388" id="line2d_10" x="165.24" y="554.688" style="stroke:#000;stroke-width:.8"/><g id="text_10" transform="matrix(.1 0 0 -.1 139.153 558.487)"><use xlink:href="#DejaVuSans-36"/><use xlink:href="#DejaVuSans-30" x="63.623"/><use xlink:href="#DejaVuSans-30" x="127.246"/></g></g><g id="ytick_5"><use xlink:href="#m29d98ca388" id="line2d_11" x="165.24" y="355.104" style="stroke:#000;stroke-width:.8"/><g id="text_11" transform="matrix(.1 0 0 -.1 139.153 358.903)"><use xlink:href="#DejaVuSans-38"/><use xlink:href="#DejaVuSans-30" x="63.623"/><use xlink:href="#DejaVuSans-30" x="127.246"/></g></g><g id="ytick_6"><use xlink:href="#m29d98ca388" id="line2d_12" x="165.24" y="155.52" style="stroke:#000;stroke-width:.8"/><g id="text_12" transform="matrix(.1 0 0 -.1 132.79 159.32)"><use xlink:href="#DejaVuSans-31"/><use xlink:href="#DejaVuSans-30" x="63.623"/><use xlink:href="#DejaVuSans-30" x="127.246"/><use xlink:href="#DejaVuSans-30" x="190.869"/></g></g></g><path id="patch_390" d="M165.24 1153.44V155.52" style="fill:none;stroke:#000;stroke-width:.8;stroke-linejoin:miter;stroke-linecap:square"/><path id="patch_391" d="M1163.16 1153.44V155.52" style="fill:none;stroke:#000;stroke-width:.8;stroke-linejoin:miter;stroke-linecap:square"/><path id="patch_392" d="M165.24 1153.44h997.92" style="fill:none;stroke:#000;stroke-width:.8;stroke-linejoin:miter;stroke-linecap:square"/><path id="patch_393" d="M165.24 155.52h997.92" style="fill:none;stroke:#000;stroke-width:.8;stroke-linejoin:miter;stroke-linecap:square"/><g id="text_13" transform="matrix(.12 0 0 -.12 445.252 149.52)"><defs><path id="DejaVuSans-4c" d="M628 4666h631V531h2272V0H628v4666z" transform="scale(.01563)"/><path id="DejaVuSans-69" d="M603 3500h575V0H603v3500zm0 1363h575v-729H603v729z" transform="scale(.01563)"/><path id="DejaVuSans-6e" d="M3513 2113V0h-575v2094q0 497-194 743-194 247-581 247-466 0-735-297-269-296-269-809V0H581v3500h578v-544q207 316 486 472 280 156 646 156 603 0 912-373 310-373 310-1098z" transform="scale(.01563)"/><path id="DejaVuSans-65" d="M3597 1894v-281H953q38-594 358-905t892-311q331 0 642 81t618 244V178Q3153 47 2828-22t-659-69q-838 0-1327 487-489 488-489 1320 0 859 464 1363 464 505 1252 505 706 0 1117-455 411-454 411-1235zm-575 169q-6 471-264 752-258 282-683 282-481 0-770-272t-333-766l2050 4z" transform="scale(.01563)"/><path id="DejaVuSans-61" d="M2194 1759q-697 0-966-159t-269-544q0-306 202-486 202-179 548-179 479 0 768 339t289 901v128h-572zm1147 238V0h-575v531q-197-318-491-470T1556-91q-537 0-855 302-317 302-317 808 0 590 395 890 396 300 1180 300h807v57q0 397-261 614t-733 217q-300 0-585-72-284-72-546-216v532q315 122 612 182 297 61 578 61 760 0 1135-394 375-393 375-1193z" transform="scale(.01563)"/><path id="DejaVuSans-72" d="M2631 2963q-97 56-211 82-114 27-251 27-488 0-749-317t-261-911V0H581v3500h578v-544q182 319 472 473 291 155 707 155 59 0 131-8 72-7 159-23l3-590z" transform="scale(.01563)"/><path id="DejaVuSans-52" d="M2841 2188q203-69 395-294t386-619L4263 0h-679l-596 1197q-232 469-449 622t-592 153h-688V0H628v4666h1425q800 0 1194-335 394-334 394-1009 0-441-205-732-205-290-595-402zM1259 4147V2491h794q456 0 689 211t233 620q0 409-233 617t-689 208h-794z" transform="scale(.01563)"/><path id="DejaVuSans-64" d="M2906 2969v1894h575V0h-575v525q-181-312-458-464-276-152-664-152-634 0-1033 506-398 507-398 1332t398 1331q399 506 1033 506 388 0 664-152 277-151 458-463zM947 1747q0-634 261-995t717-361q456 0 718 361 263 361 263 995t-263 995q-262 361-718 361t-717-361q-261-361-261-995z" transform="scale(.01563)"/><path id="DejaVuSans-75" d="M544 1381v2119h575V1403q0-497 193-746 194-248 582-248 465 0 735 297 271 297 271 810v1984h575V0h-575v538q-209-319-486-474-276-155-642-155-603 0-916 375-312 375-312 1097zm1447 2203z" transform="scale(.01563)"/><path id="DejaVuSans-73" d="M2834 3397v-544q-243 125-506 187-262 63-544 63-428 0-642-131t-214-394q0-200 153-314t616-217l197-44q612-131 870-370t258-667q0-488-386-773Q2250-91 1575-91q-281 0-586 55T347 128v594q319-166 628-249 309-82 613-82 406 0 624 139 219 139 219 392 0 234-158 359-157 125-692 241l-200 47q-534 112-772 345-237 233-237 639 0 494 350 762 350 269 994 269 318 0 599-47 282-46 519-140z" transform="scale(.01563)"/><path id="DejaVuSans-56" d="M1831 0 50 4666h659L2188 738l1481 3928h656L2547 0h-716z" transform="scale(.01563)"/><path id="DejaVuSans-74" d="M1172 4494v-994h1184v-447H1172V1153q0-428 117-550t477-122h590V0h-590q-666 0-919 248-253 249-253 905v1900H172v447h422v994h578z" transform="scale(.01563)"/><path id="DejaVuSans-6f" d="M1959 3097q-462 0-731-361t-269-989q0-628 267-989 268-361 733-361 460 0 728 362 269 363 269 988 0 622-269 986-268 364-728 364zm0 487q750 0 1178-488 429-487 429-1349 0-859-429-1349Q2709-91 1959-91q-753 0-1180 489-426 490-426 1349 0 862 426 1349 427 488 1180 488z" transform="scale(.01563)"/><path id="DejaVuSans-46" d="M628 4666h2681v-532H1259V2759h1850v-531H1259V0H628v4666z" transform="scale(.01563)"/><path id="DejaVuSans-2c" d="M750 794h659V256L897-744H494L750 256v538z" transform="scale(.01563)"/><path id="DejaVuSans-62" d="M3116 1747q0 634-261 995t-717 361q-457 0-718-361t-261-995q0-634 261-995t718-361q456 0 717 361t261 995zM1159 2969q182 312 458 463 277 152 661 152 638 0 1036-506 399-506 399-1331T3314 415Q2916-91 2278-91q-384 0-661 152-276 152-458 464V0H581v4863h578V2969z" transform="scale(.01563)"/><path id="DejaVuSans-3d" d="M678 2906h4006v-525H678v525zm0-1275h4006v-531H678v531z" transform="scale(.01563)"/><path id="DejaVuSans-2e" d="M684 794h660V0H684v794z" transform="scale(.01563)"/><path id="DejaVuSans-35" d="M691 4666h2478v-532H1269V2991q137 47 274 70 138 23 276 23 781 0 1237-428 457-428 457-1159 0-753-469-1171Q2575-91 1722-91q-294 0-599 50Q819 9 494 109v635q281-153 581-228t634-75q541 0 856 284 316 284 316 772 0 487-316 771-315 285-856 285-253 0-505-56-251-56-513-175v2344z" transform="scale(.01563)"/><path id="DejaVuSans-37" d="M525 4666h3000v-269L1831 0h-659l1594 4134H525v532z" transform="scale(.01563)"/><path id="DejaVuSans-39" d="M703 97v575q238-113 481-172 244-59 479-59 625 0 954 420 330 420 377 1277-181-269-460-413-278-144-615-144-700 0-1108 423-408 424-408 1159 0 718 425 1152 425 435 1131 435 810 0 1236-621 427-620 427-1801 0-1103-524-1761Q2575-91 1691-91q-238 0-482 47Q966 3 703 97zm1256 1978q425 0 673 290 249 291 249 798 0 503-249 795-248 292-673 292t-673-292q-248-292-248-795 0-507 248-798 248-290 673-290z" transform="scale(.01563)"/><path id="DejaVuSans-33" d="M2597 2516q453-97 707-404 255-306 255-756 0-690-475-1069Q2609-91 1734-91q-293 0-604 58T488 141v609q262-153 574-231 313-78 654-78 593 0 904 234t311 681q0 413-289 645-289 233-804 233h-544v519h569q465 0 712 186t247 536q0 359-255 551-254 193-729 193-260 0-557-57-297-56-653-174v562q360 100 674 150t592 50q719 0 1137-327 419-326 419-882 0-388-222-655t-631-370z" transform="scale(.01563)"/></defs><use xlink:href="#DejaVuSans-4c"/><use xlink:href="#DejaVuSans-69" x="55.713"/><use xlink:href="#DejaVuSans-6e" x="83.496"/><use xlink:href="#DejaVuSans-65" x="146.875"/><use xlink:href="#DejaVuSans-61" x="208.398"/><use xlink:href="#DejaVuSans-72" x="269.678"/><use xlink:href="#DejaVuSans-52" x="310.791"/><use xlink:href="#DejaVuSans-61" x="378.023"/><use xlink:href="#DejaVuSans-64" x="439.303"/><use xlink:href="#DejaVuSans-69" x="502.779"/><use xlink:href="#DejaVuSans-75" x="530.563"/><use xlink:href="#DejaVuSans-73" x="593.941"/><use xlink:href="#DejaVuSans-56" x="646.041"/><use xlink:href="#DejaVuSans-61" x="706.699"/><use xlink:href="#DejaVuSans-72" x="767.979"/><use xlink:href="#DejaVuSans-69" x="809.092"/><use xlink:href="#DejaVuSans-61" x="836.875"/><use xlink:href="#DejaVuSans-74" x="898.154"/><use xlink:href="#DejaVuSans-69" x="937.363"/><use xlink:href="#DejaVuSans-6f" x="965.146"/><use xlink:href="#DejaVuSans-6e" x="1026.328"/><use xlink:href="#DejaVuSans-46" x="1089.707"/><use xlink:href="#DejaVuSans-6f" x="1143.602"/><use xlink:href="#DejaVuSans-72" x="1204.783"/><use xlink:href="#DejaVuSans-65" x="1243.646"/><use xlink:href="#DejaVuSans-73" x="1305.17"/><use xlink:href="#DejaVuSans-74" x="1357.27"/><use xlink:href="#DejaVuSans-2c" x="1396.479"/><use xlink:href="#DejaVuSans-20" x="1428.266"/><use xlink:href="#DejaVuSans-62" x="1460.053"/><use xlink:href="#DejaVuSans-3d" x="1523.529"/><use xlink:href="#DejaVuSans-30" x="1607.318"/><use xlink:href="#DejaVuSans-2e" x="1670.941"/><use xlink:href="#DejaVuSans-38" x="1702.729"/><use xlink:href="#DejaVuSans-34" x="1766.352"/><use xlink:href="#DejaVuSans-31" x="1829.975"/><use xlink:href="#DejaVuSans-35" x="1893.598"/><use xlink:href="#DejaVuSans-37" x="1957.221"/><use xlink:href="#DejaVuSans-36" x="2020.844"/><use xlink:href="#DejaVuSans-35" x="2084.467"/><use xlink:href="#DejaVuSans-2c" x="2148.09"/><use xlink:href="#DejaVuSans-20" x="2179.877"/><use xlink:href="#DejaVuSans-61" x="2211.664"/><use xlink:href="#DejaVuSans-3d" x="2272.943"/><use xlink:href="#DejaVuSans-30" x="2356.732"/><use xlink:href="#DejaVuSans-2e" x="2420.355"/><use xlink:href="#DejaVuSans-38" x="2452.143"/><use xlink:href="#DejaVuSans-39" x="2515.766"/><use xlink:href="#DejaVuSans-32" x="2579.389"/><use xlink:href="#DejaVuSans-36" x="2643.012"/><use xlink:href="#DejaVuSans-31" x="2706.635"/><use xlink:href="#DejaVuSans-31" x="2770.258"/><use xlink:href="#DejaVuSans-33" x="2833.881"/><use xlink:href="#DejaVuSans-2c" x="2897.504"/><use xlink:href="#DejaVuSans-20" x="2929.291"/><use xlink:href="#DejaVuSans-64" x="2961.078"/><use xlink:href="#DejaVuSans-3d" x="3024.555"/><use xlink:href="#DejaVuSans-30" x="3108.344"/><use xlink:href="#DejaVuSans-2e" x="3171.967"/><use xlink:href="#DejaVuSans-39" x="3203.754"/><use xlink:href="#DejaVuSans-34" x="3267.377"/><use xlink:href="#DejaVuSans-32" x="3331"/><use xlink:href="#DejaVuSans-38" x="3394.623"/><use xlink:href="#DejaVuSans-32" x="3458.246"/><use xlink:href="#DejaVuSans-35" x="3521.869"/><use xlink:href="#DejaVuSans-33" x="3585.492"/></g></g></g><defs><clipPath id="p1778e0b5b4"><path d="M165.24 155.52h997.92v997.92H165.24z"/></clipPath></defs></svg>