<svg xmlns="http://www.w3.org/2000/svg" xmlns:xlink="http://www.w3.org/1999/xlink" width="864" height="345.6" viewBox="0 0 648 259.2"><defs><style>*{stroke-linejoin:round;stroke-linecap:butt}</style></defs><g id="figure_1"><path id="patch_1" d="M0 259.2h648V0H0z" style="fill:#fff"/><g id="axes_1"><path id="patch_2" d="M82.62 230.688h498.96V31.104H82.62z" style="fill:#fff"/><path id="patch_3" d="M569.605 55.054a11.976 11.976 0 1 0 0-23.951 11.976 11.976 0 0 0 0 23.951z" clip-path="url(#p684f9f0d0f)" style="fill:#f0f"/><path id="patch_4" d="M548.864 49.067a8.982 8.982 0 1 0 0-17.964 8.982 8.982 0 0 0 0 17.964z" clip-path="url(#p684f9f0d0f)" style="fill:#ffc03f"/><path id="patch_5" d="M88.608 43.079a5.988 5.988 0 1 0 0-11.976 5.988 5.988 0 0 0 0 11.976z" clip-path="url(#p684f9f0d0f)" style="fill:#ff40bf"/><path id="patch_6" d="M577.588 230.688a3.992 3.992 0 1 0 0-7.984 3.992 3.992 0 0 0 0 7.984z" clip-path="url(#p684f9f0d0f)" style="fill:#ff807f"/><path id="patch_7" d="M85.614 230.688a2.994 2.994 0 1 0 0-5.988 2.994 2.994 0 0 0 0 5.988z" clip-path="url(#p684f9f0d0f)" style="fill:#ff0"/><path id="patch_8" d="M528.122 55.054a11.976 11.976 0 1 0 0-23.951 11.976 11.976 0 0 0 0 23.951z" clip-path="url(#p684f9f0d0f)" style="fill:#f0f"/><path id="patch_9" d="M103.274 49.067a8.982 8.982 0 1 0 0-17.964 8.982 8.982 0 0 0 0 17.964z" clip-path="url(#p684f9f0d0f)" style="fill:#ffc03f"/><path id="patch_10" d="M91.106 54.79a5.988 5.988 0 1 0 0-11.975 5.988 5.988 0 0 0 0 11.976z" clip-path="url(#p684f9f0d0f)" style="fill:#ff40bf"/><path id="patch_11" d="M514.295 39.087a3.992 3.992 0 1 0 0-7.983 3.992 3.992 0 0 0 0 7.983z" clip-path="url(#p684f9f0d0f)" style="fill:#ff807f"/><path id="patch_12" d="M113.645 37.092a2.994 2.994 0 1 0 0-5.988 2.994 2.994 0 0 0 0 5.988z" clip-path="url(#p684f9f0d0f)" style="fill:#ff0"/><path id="patch_13" d="M500.467 55.054a11.976 11.976 0 1 0 0-23.951 11.976 11.976 0 0 0 0 23.951z" clip-path="url(#p684f9f0d0f)" style="fill:#f0f"/><path id="patch_14" d="M565.613 230.688a8.982 8.982 0 1 0 0-17.963 8.982 8.982 0 0 0 0 17.963z" clip-path="url(#p684f9f0d0f)" style="fill:#ffc03f"/><path id="patch_15" d="M483.532 43.079a5.988 5.988 0 1 0 0-11.976 5.988 5.988 0 0 0 0 11.976z" clip-path="url(#p684f9f0d0f)" style="fill:#ff40bf"/><path id="patch_16" d="M120.558 39.087a3.992 3.992 0 1 0 0-7.983 3.992 3.992 0 0 0 0 7.983z" clip-path="url(#p684f9f0d0f)" style="fill:#ff807f"/><path id="patch_17" d="M578.586 222.776a2.994 2.994 0 1 0 0-5.988 2.994 2.994 0 0 0 0 5.988z" clip-path="url(#p684f9f0d0f)" style="fill:#ff0"/><path id="patch_18" d="M466.597 55.054a11.976 11.976 0 1 0-.001-23.951 11.976 11.976 0 0 0 0 23.951z" clip-path="url(#p684f9f0d0f)" style="fill:#f0f"/><path id="patch_19" d="M575.592 66.002a5.988 5.988 0 1 0 0-11.976 5.988 5.988 0 0 0 0 11.976z" clip-path="url(#p684f9f0d0f)" style="fill:#ff40bf"/><path id="patch_20" d="M577.588 216.86a3.992 3.992 0 1 0 0-7.983 3.992 3.992 0 0 0 0 7.983z" clip-path="url(#p684f9f0d0f)" style="fill:#ff807f"/><path id="patch_21" d="M115.412 42.812a2.994 2.994 0 1 0 0-5.987 2.994 2.994 0 0 0 0 5.987z" clip-path="url(#p684f9f0d0f)" style="fill:#ff0"/><path id="patch_22" d="M442.646 55.054a11.976 11.976 0 1 0 0-23.951 11.976 11.976 0 0 0 0 23.951z" clip-path="url(#p684f9f0d0f)" style="fill:#f0f"/><path id="patch_23" d="M124.685 56.376a8.982 8.982 0 1 0 0-17.963 8.982 8.982 0 0 0 0 17.963z" clip-path="url(#p684f9f0d0f)" style="fill:#ffc03f"/><path id="patch_24" d="M483.532 55.054a5.988 5.988 0 1 0 0-11.976 5.988 5.988 0 0 0 0 11.976z" clip-path="url(#p684f9f0d0f)" style="fill:#ff40bf"/><path id="patch_25" d="M577.588 208.877a3.992 3.992 0 1 0 0-7.984 3.992 3.992 0 0 0 0 7.984z" clip-path="url(#p684f9f0d0f)" style="fill:#ff807f"/><path id="patch_26" d="M454.621 37.092a2.994 2.994 0 1 0 0-5.988 2.994 2.994 0 0 0 0 5.988z" clip-path="url(#p684f9f0d0f)" style="fill:#ff0"/><path id="patch_27" d="M569.605 88.925a11.976 11.976 0 1 0 0-23.952 11.976 11.976 0 0 0 0 23.952z" clip-path="url(#p684f9f0d0f)" style="fill:#f0f"/><path id="patch_28" d="M554.164 66.23a8.982 8.982 0 1 0 0-17.964 8.982 8.982 0 0 0 0 17.963z" clip-path="url(#p684f9f0d0f)" style="fill:#ffc03f"/><path id="patch_29" d="M94.081 230.688a5.988 5.988 0 1 0 0-11.976 5.988 5.988 0 0 0 0 11.976z" clip-path="url(#p684f9f0d0f)" style="fill:#ff40bf"/><path id="patch_30" d="M542.57 55.42a3.992 3.992 0 1 0 0-7.983 3.992 3.992 0 0 0 0 7.984z" clip-path="url(#p684f9f0d0f)" style="fill:#ff807f"/><path id="patch_31" d="M127.472 37.092a2.994 2.994 0 1 0 0-5.988 2.994 2.994 0 0 0 0 5.988z" clip-path="url(#p684f9f0d0f)" style="fill:#ff0"/><path id="patch_32" d="M418.696 55.054a11.976 11.976 0 1 0 0-23.951 11.976 11.976 0 0 0 0 23.951z" clip-path="url(#p684f9f0d0f)" style="fill:#f0f"/><path id="patch_33" d="M537.236 72.236a8.982 8.982 0 1 0 0-17.963 8.982 8.982 0 0 0 0 17.963z" clip-path="url(#p684f9f0d0f)" style="fill:#ffc03f"/><path id="patch_34" d="M135.94 43.079a5.988 5.988 0 1 0 0-11.976 5.988 5.988 0 0 0 0 11.976z" clip-path="url(#p684f9f0d0f)" style="fill:#ff40bf"/><path id="patch_35" d="M570.675 212.869a3.992 3.992 0 1 0 0-7.984 3.992 3.992 0 0 0 0 7.984z" clip-path="url(#p684f9f0d0f)" style="fill:#ff807f"/><path id="patch_36" d="M430.671 37.092a2.994 2.994 0 1 0 0-5.988 2.994 2.994 0 0 0 0 5.988z" clip-path="url(#p684f9f0d0f)" style="fill:#ff0"/><path id="patch_37" d="M454.621 75.795a11.976 11.976 0 1 0 0-23.95 11.976 11.976 0 0 0 0 23.95z" clip-path="url(#p684f9f0d0f)" style="fill:#f0f"/><path id="patch_38" d="M475.503 71.03a8.982 8.982 0 1 0 0-17.963 8.982 8.982 0 0 0 0 17.963z" clip-path="url(#p684f9f0d0f)" style="fill:#ffc03f"/><path id="patch_39" d="M549.705 77.525a5.988 5.988 0 1 0 0-11.976 5.988 5.988 0 0 0 0 11.976z" clip-path="url(#p684f9f0d0f)" style="fill:#ff40bf"/><path id="patch_40" d="M404.869 39.087a3.992 3.992 0 1 0 0-7.983 3.992 3.992 0 0 0 0 7.983z" clip-path="url(#p684f9f0d0f)" style="fill:#ff807f"/><path id="patch_41" d="M85.614 224.7a2.994 2.994 0 1 0 0-5.987 2.994 2.994 0 0 0 0 5.987z" clip-path="url(#p684f9f0d0f)" style="fill:#ff0"/><path id="patch_42" d="M544.872 230.688a11.976 11.976 0 1 0 0-23.951 11.976 11.976 0 0 0 0 23.951z" clip-path="url(#p684f9f0d0f)" style="fill:#f0f"/><path id="patch_43" d="M150.606 49.067a8.982 8.982 0 1 0 0-17.964 8.982 8.982 0 0 0 0 17.964z" clip-path="url(#p684f9f0d0f)" style="fill:#ffc03f"/><path id="patch_44" d="M88.608 219.227a5.988 5.988 0 1 0 0-11.976 5.988 5.988 0 0 0 0 11.976z" clip-path="url(#p684f9f0d0f)" style="fill:#ff40bf"/><path id="patch_45" d="M139.32 50.473a3.992 3.992 0 1 0 0-7.984 3.992 3.992 0 0 0 0 7.984z" clip-path="url(#p684f9f0d0f)" style="fill:#ff807f"/><path id="patch_46" d="M566.133 60.633a2.994 2.994 0 1 0 0-5.987 2.994 2.994 0 0 0 0 5.987z" clip-path="url(#p684f9f0d0f)" style="fill:#ff0"/><path id="patch_47" d="M111.017 230.688a11.976 11.976 0 1 0 0-23.951 11.976 11.976 0 0 0 0 23.951z" clip-path="url(#p684f9f0d0f)" style="fill:#f0f"/><path id="patch_48" d="M392.894 49.067a8.982 8.982 0 1 0 0-17.964 8.982 8.982 0 0 0 0 17.964z" clip-path="url(#p684f9f0d0f)" style="fill:#ffc03f"/><path id="patch_49" d="M559.367 214.091a5.988 5.988 0 1 0 0-11.975 5.988 5.988 0 0 0 0 11.975z" clip-path="url(#p684f9f0d0f)" style="fill:#ff40bf"/><path id="patch_50" d="M490.864 59.827a3.992 3.992 0 1 0 0-7.984 3.992 3.992 0 0 0 0 7.984z" clip-path="url(#p684f9f0d0f)" style="fill:#ff807f"/><path id="patch_51" d="M571.265 204.91a2.994 2.994 0 1 0 0-5.987 2.994 2.994 0 0 0 0 5.987z" clip-path="url(#p684f9f0d0f)" style="fill:#ff0"/><path id="patch_52" d="M134.967 230.688a11.976 11.976 0 1 0 0-23.951 11.976 11.976 0 0 0 0 23.951z" clip-path="url(#p684f9f0d0f)" style="fill:#f0f"/><path id="patch_53" d="M91.601 207.554a8.982 8.982 0 1 0 0-17.963 8.982 8.982 0 0 0 0 17.963z" clip-path="url(#p684f9f0d0f)" style="fill:#ffc03f"/><path id="patch_54" d="M165.273 43.079a5.988 5.988 0 1 0 0-11.976 5.988 5.988 0 0 0 0 11.976z" clip-path="url(#p684f9f0d0f)" style="fill:#ff40bf"/><path id="patch_55" d="M577.588 200.894a3.992 3.992 0 1 0 0-7.984 3.992 3.992 0 0 0 0 7.984z" clip-path="url(#p684f9f0d0f)" style="fill:#ff807f"/><path id="patch_56" d="M122.992 230.688a2.994 2.994 0 1 0 0-5.988 2.994 2.994 0 0 0 0 5.988z" clip-path="url(#p684f9f0d0f)" style="fill:#ff0"/><path id="patch_57" d="M372.152 55.054a11.976 11.976 0 1 0 0-23.951 11.976 11.976 0 0 0 0 23.951z" clip-path="url(#p684f9f0d0f)" style="fill:#f0f"/><path id="patch_58" d="M572.599 106.672a8.982 8.982 0 1 0 0-17.963 8.982 8.982 0 0 0 0 17.963z" clip-path="url(#p684f9f0d0f)" style="fill:#ffc03f"/><path id="patch_59" d="M88.608 189.894a5.988 5.988 0 1 0 0-11.976 5.988 5.988 0 0 0 0 11.976z" clip-path="url(#p684f9f0d0f)" style="fill:#ff40bf"/><path id="patch_60" d="M531.044 230.688a3.992 3.992 0 1 0 0-7.984 3.992 3.992 0 0 0 0 7.984z" clip-path="url(#p684f9f0d0f)" style="fill:#ff807f"/><path id="patch_61" d="M96.725 212.39a2.994 2.994 0 1 0 0-5.988 2.994 2.994 0 0 0 0 5.988z" clip-path="url(#p684f9f0d0f)" style="fill:#ff0"/><path id="patch_62" d="M569.605 195.05a11.976 11.976 0 1 0 0-23.952 11.976 11.976 0 0 0 0 23.951z" clip-path="url(#p684f9f0d0f)" style="fill:#f0f"/><path id="patch_63" d="M572.599 124.635a8.982 8.982 0 1 0 0-17.964 8.982 8.982 0 0 0 0 17.964z" clip-path="url(#p684f9f0d0f)" style="fill:#ffc03f"/><path id="patch_64" d="M151.902 230.688a5.988 5.988 0 1 0 0-11.976 5.988 5.988 0 0 0 0 11.976z" clip-path="url(#p684f9f0d0f)" style="fill:#ff40bf"/><path id="patch_65" d="M358.325 39.087a3.992 3.992 0 1 0 0-7.983 3.992 3.992 0 0 0 0 7.983z" clip-path="url(#p684f9f0d0f)" style="fill:#ff807f"/><path id="patch_66" d="M101.325 208.556a2.994 2.994 0 1 0 0-5.987 2.994 2.994 0 0 0 0 5.987z" clip-path="url(#p684f9f0d0f)" style="fill:#ff0"/><path id="patch_67" d="M517.217 230.688a11.976 11.976 0 1 0 0-23.951 11.976 11.976 0 0 0 0 23.951z" clip-path="url(#p684f9f0d0f)" style="fill:#f0f"/><path id="patch_68" d="M109.475 205.77a8.982 8.982 0 1 0 0-17.963 8.982 8.982 0 0 0 0 17.964z" clip-path="url(#p684f9f0d0f)" style="fill:#ffc03f"/><path id="patch_69" d="M122.992 211.312a5.988 5.988 0 1 0 0-11.976 5.988 5.988 0 0 0 0 11.976z" clip-path="url(#p684f9f0d0f)" style="fill:#ff40bf"/><path id="patch_70" d="M97.997 191.278a3.992 3.992 0 1 0 0-7.984 3.992 3.992 0 0 0 0 7.984z" clip-path="url(#p684f9f0d0f)" style="fill:#ff807f"/><path id="patch_71" d="M578.586 174.093a2.994 2.994 0 1 0 0-5.988 2.994 2.994 0 0 0 0 5.988z" clip-path="url(#p684f9f0d0f)" style="fill:#ff0"/><path id="patch_72" d="M182.208 55.054a11.976 11.976 0 1 0 0-23.951 11.976 11.976 0 0 0 0 23.951z" clip-path="url(#p684f9f0d0f)" style="fill:#f0f"/><path id="patch_73" d="M572.599 142.597a8.982 8.982 0 1 0 0-17.963 8.982 8.982 0 0 0 0 17.963z" clip-path="url(#p684f9f0d0f)" style="fill:#ffc03f"/><path id="patch_74" d="M162.774 54.79a5.988 5.988 0 1 0 0-11.975 5.988 5.988 0 0 0 0 11.976z" clip-path="url(#p684f9f0d0f)" style="fill:#ff40bf"/><path id="patch_75" d="M577.588 168.177a3.992 3.992 0 1 0 0-7.983 3.992 3.992 0 0 0 0 7.983z" clip-path="url(#p684f9f0d0f)" style="fill:#ff807f"/><path id="patch_76" d="M160.37 230.688a2.994 2.994 0 1 0 0-5.988 2.994 2.994 0 0 0 0 5.988z" clip-path="url(#p684f9f0d0f)" style="fill:#ff0"/><path id="patch_77" d="M94.595 178.946a11.976 11.976 0 1 0 0-23.951 11.976 11.976 0 0 0 0 23.951z" clip-path="url(#p684f9f0d0f)" style="fill:#f0f"/><path id="patch_78" d="M572.599 161.192a8.982 8.982 0 1 0 0-17.964 8.982 8.982 0 0 0 0 17.964z" clip-path="url(#p684f9f0d0f)" style="fill:#ffc03f"/><path id="patch_79" d="M348.547 43.079a5.988 5.988 0 1 0 0-11.976 5.988 5.988 0 0 0 0 11.976z" clip-path="url(#p684f9f0d0f)" style="fill:#ff40bf"/><path id="patch_80" d="M569.632 168.831a3.992 3.992 0 1 0 0-7.983 3.992 3.992 0 0 0 0 7.983z" clip-path="url(#p684f9f0d0f)" style="fill:#ff807f"/><path id="patch_81" d="M356.222 44.75a2.994 2.994 0 1 0 0-5.987 2.994 2.994 0 0 0 0 5.988z" clip-path="url(#p684f9f0d0f)" style="fill:#ff0"/><path id="patch_82" d="M172.345 230.688a11.976 11.976 0 1 0 0-23.951 11.976 11.976 0 0 0 0 23.951z" clip-path="url(#p684f9f0d0f)" style="fill:#f0f"/><path id="patch_83" d="M91.601 155.211a8.982 8.982 0 1 0 0-17.963 8.982 8.982 0 0 0 0 17.963z" clip-path="url(#p684f9f0d0f)" style="fill:#ffc03f"/><path id="patch_84" d="M151.902 218.713a5.988 5.988 0 1 0 0-11.976 5.988 5.988 0 0 0 0 11.976z" clip-path="url(#p684f9f0d0f)" style="fill:#ff40bf"/><path id="patch_85" d="M196.035 39.087a3.992 3.992 0 1 0 0-7.983 3.992 3.992 0 0 0 0 7.983z" clip-path="url(#p684f9f0d0f)" style="fill:#ff807f"/><path id="patch_86" d="M505.242 230.688a2.994 2.994 0 1 0 0-5.988 2.994 2.994 0 0 0 0 5.988z" clip-path="url(#p684f9f0d0f)" style="fill:#ff0"/><path id="patch_87" d="M94.595 137.463a11.976 11.976 0 1 0 0-23.95 11.976 11.976 0 0 0 0 23.95z" clip-path="url(#p684f9f0d0f)" style="fill:#f0f"/><path id="patch_88" d="M333.88 49.067a8.982 8.982 0 1 0 0-17.964 8.982 8.982 0 0 0 0 17.964z" clip-path="url(#p684f9f0d0f)" style="fill:#ffc03f"/><path id="patch_89" d="M189.28 230.688a5.988 5.988 0 1 0 0-11.976 5.988 5.988 0 0 0 0 11.976z" clip-path="url(#p684f9f0d0f)" style="fill:#ff40bf"/><path id="patch_90" d="M498.328 230.688a3.992 3.992 0 1 0 0-7.984 3.992 3.992 0 0 0 0 7.984z" clip-path="url(#p684f9f0d0f)" style="fill:#ff807f"/><path id="patch_91" d="M202.95 37.092a2.994 2.994 0 1 0 0-5.988 2.994 2.994 0 0 0 0 5.988z" clip-path="url(#p684f9f0d0f)" style="fill:#ff0"/><path id="patch_92" d="M94.595 113.513a11.976 11.976 0 1 0 0-23.95 11.976 11.976 0 0 0 0 23.95z" clip-path="url(#p684f9f0d0f)" style="fill:#f0f"/><path id="patch_93" d="M202.95 55.054a8.982 8.982 0 1 0-.001-17.963 8.982 8.982 0 0 0 0 17.963z" clip-path="url(#p684f9f0d0f)" style="fill:#ffc03f"/><path id="patch_94" d="M201.255 230.688a5.988 5.988 0 1 0 0-11.976 5.988 5.988 0 0 0 0 11.976z" clip-path="url(#p684f9f0d0f)" style="fill:#ff40bf"/><path id="patch_95" d="M209.863 39.087a3.992 3.992 0 1 0 0-7.983 3.992 3.992 0 0 0 0 7.983z" clip-path="url(#p684f9f0d0f)" style="fill:#ff807f"/><path id="patch_96" d="M85.614 116.507a2.994 2.994 0 1 0 0-5.988 2.994 2.994 0 0 0 0 5.988z" clip-path="url(#p684f9f0d0f)" style="fill:#ff0"/><path id="patch_97" d="M313.14 55.054a11.976 11.976 0 1 0-.001-23.951 11.976 11.976 0 0 0 0 23.951z" clip-path="url(#p684f9f0d0f)" style="fill:#f0f"/><path id="patch_98" d="M486.353 230.688a8.982 8.982 0 1 0 0-17.963 8.982 8.982 0 0 0 0 17.963z" clip-path="url(#p684f9f0d0f)" style="fill:#ffc03f"/><path id="patch_99" d="M213.23 230.688a5.988 5.988 0 1 0 0-11.976 5.988 5.988 0 0 0 0 11.976z" clip-path="url(#p684f9f0d0f)" style="fill:#ff40bf"/><path id="patch_100" d="M498.982 222.731a3.992 3.992 0 1 0 0-7.983 3.992 3.992 0 0 0 0 7.983z" clip-path="url(#p684f9f0d0f)" style="fill:#ff807f"/><path id="patch_101" d="M216.777 37.092a2.994 2.994 0 1 0 0-5.988 2.994 2.994 0 0 0 0 5.988z" clip-path="url(#p684f9f0d0f)" style="fill:#ff0"/><path id="patch_102" d="M94.595 89.563a11.976 11.976 0 1 0 0-23.951 11.976 11.976 0 0 0 0 23.951z" clip-path="url(#p684f9f0d0f)" style="fill:#f0f"/><path id="patch_103" d="M102.882 67.025a8.982 8.982 0 1 0 0-17.964 8.982 8.982 0 0 0 0 17.964z" clip-path="url(#p684f9f0d0f)" style="fill:#ffc03f"/><path id="patch_104" d="M471.686 230.688a5.988 5.988 0 1 0 0-11.976 5.988 5.988 0 0 0 0 11.976z" clip-path="url(#p684f9f0d0f)" style="fill:#ff40bf"/><path id="patch_105" d="M86.612 67.752a3.992 3.992 0 1 0 0-7.983 3.992 3.992 0 0 0 0 7.983z" clip-path="url(#p684f9f0d0f)" style="fill:#ff807f"/><path id="patch_106" d="M85.614 92.557a2.994 2.994 0 1 0 0-5.988 2.994 2.994 0 0 0 0 5.988z" clip-path="url(#p684f9f0d0f)" style="fill:#ff0"/><path id="patch_107" d="M230.165 230.688a11.976 11.976 0 1 0 0-23.951 11.976 11.976 0 0 0 0 23.951z" clip-path="url(#p684f9f0d0f)" style="fill:#f0f"/><path id="patch_108" d="M227.147 49.067a8.982 8.982 0 1 0 0-17.964 8.982 8.982 0 0 0 0 17.964z" clip-path="url(#p684f9f0d0f)" style="fill:#ffc03f"/><path id="patch_109" d="M296.204 43.079a5.988 5.988 0 1 0 0-11.976 5.988 5.988 0 0 0 0 11.976z" clip-path="url(#p684f9f0d0f)" style="fill:#ff40bf"/><path id="patch_110" d="M461.909 230.688a3.992 3.992 0 1 0 0-7.984 3.992 3.992 0 0 0 0 7.984z" clip-path="url(#p684f9f0d0f)" style="fill:#ff807f"/><path id="patch_111" d="M85.614 59.84a2.994 2.994 0 1 0 0-5.987 2.994 2.994 0 0 0 0 5.988z" clip-path="url(#p684f9f0d0f)" style="fill:#ff0"/><path id="patch_112" d="M279.269 55.054a11.976 11.976 0 1 0 0-23.951 11.976 11.976 0 0 0 0 23.951z" clip-path="url(#p684f9f0d0f)" style="fill:#f0f"/><path id="patch_113" d="M250.907 230.688a8.982 8.982 0 1 0 0-17.963 8.982 8.982 0 0 0 0 17.963z" clip-path="url(#p684f9f0d0f)" style="fill:#ffc03f"/><path id="patch_114" d="M296.204 55.054a5.988 5.988 0 1 0 0-11.976 5.988 5.988 0 0 0 0 11.976z" clip-path="url(#p684f9f0d0f)" style="fill:#ff40bf"/><path id="patch_115" d="M453.926 230.688a3.992 3.992 0 1 0 0-7.984 3.992 3.992 0 0 0 0 7.984z" clip-path="url(#p684f9f0d0f)" style="fill:#ff807f"/><path id="patch_116" d="M110.997 52.231a2.994 2.994 0 1 0 0-5.988 2.994 2.994 0 0 0 0 5.988z" clip-path="url(#p684f9f0d0f)" style="fill:#ff0"/><path id="patch_117" d="M247.889 55.054a11.976 11.976 0 1 0 0-23.951 11.976 11.976 0 0 0 0 23.951z" clip-path="url(#p684f9f0d0f)" style="fill:#f0f"/><path id="patch_118" d="M268.87 230.688a8.982 8.982 0 1 0-.001-17.963 8.982 8.982 0 0 0 0 17.963z" clip-path="url(#p684f9f0d0f)" style="fill:#ffc03f"/><path id="patch_119" d="M444.148 230.688a5.988 5.988 0 1 0 0-11.976 5.988 5.988 0 0 0 0 11.976z" clip-path="url(#p684f9f0d0f)" style="fill:#ff40bf"/><path id="patch_120" d="M265.441 39.087a3.992 3.992 0 1 0 0-7.983 3.992 3.992 0 0 0 0 7.983z" clip-path="url(#p684f9f0d0f)" style="fill:#ff807f"/><path id="patch_121" d="M114.246 57.26a2.994 2.994 0 1 0 0-5.987 2.994 2.994 0 0 0 0 5.987z" clip-path="url(#p684f9f0d0f)" style="fill:#ff0"/><path id="patch_122" d="M289.61 230.688a11.976 11.976 0 1 0 0-23.951 11.976 11.976 0 0 0 0 23.951z" clip-path="url(#p684f9f0d0f)" style="fill:#f0f"/><path id="patch_123" d="M119.413 74.05a8.982 8.982 0 1 0 0-17.963 8.982 8.982 0 0 0 0 17.964z" clip-path="url(#p684f9f0d0f)" style="fill:#ffc03f"/><path id="patch_124" d="M306.546 230.688a5.988 5.988 0 1 0 0-11.976 5.988 5.988 0 0 0 0 11.976z" clip-path="url(#p684f9f0d0f)" style="fill:#ff40bf"/><path id="patch_125" d="M434.37 230.688a3.992 3.992 0 1 0 0-7.984 3.992 3.992 0 0 0 0 7.984z" clip-path="url(#p684f9f0d0f)" style="fill:#ff807f"/><path id="patch_126" d="M215.01 42.812a2.994 2.994 0 1 0 0-5.987 2.994 2.994 0 0 0 0 5.987z" clip-path="url(#p684f9f0d0f)" style="fill:#ff0"/><path id="patch_127" d="M323.481 230.688a11.976 11.976 0 1 0 0-23.951 11.976 11.976 0 0 0 0 23.951z" clip-path="url(#p684f9f0d0f)" style="fill:#f0f"/><path id="patch_128" d="M548.288 207.018a8.982 8.982 0 1 0 0-17.963 8.982 8.982 0 0 0 0 17.963z" clip-path="url(#p684f9f0d0f)" style="fill:#ffc03f"/><path id="patch_129" d="M306.546 218.713a5.988 5.988 0 1 0 0-11.976 5.988 5.988 0 0 0 0 11.976z" clip-path="url(#p684f9f0d0f)" style="fill:#ff40bf"/><path id="patch_130" d="M561.259 202.297a3.992 3.992 0 1 0 0-7.984 3.992 3.992 0 0 0 0 7.984z" clip-path="url(#p684f9f0d0f)" style="fill:#ff807f"/><path id="patch_131" d="M108.05 71.84a2.994 2.994 0 1 0 0-5.988 2.994 2.994 0 0 0 0 5.988z" clip-path="url(#p684f9f0d0f)" style="fill:#ff0"/><path id="patch_132" d="M347.431 230.688a11.976 11.976 0 1 0 0-23.951 11.976 11.976 0 0 0 0 23.951z" clip-path="url(#p684f9f0d0f)" style="fill:#f0f"/><path id="patch_133" d="M422.395 230.688a8.982 8.982 0 1 0 0-17.963 8.982 8.982 0 0 0 0 17.963z" clip-path="url(#p684f9f0d0f)" style="fill:#ffc03f"/><path id="patch_134" d="M534.56 209.992a5.988 5.988 0 1 0 0-11.975 5.988 5.988 0 0 0 0 11.975z" clip-path="url(#p684f9f0d0f)" style="fill:#ff40bf"/><path id="patch_135" d="M111.177 79.084a3.992 3.992 0 1 0 0-7.984 3.992 3.992 0 0 0 0 7.984z" clip-path="url(#p684f9f0d0f)" style="fill:#ff807f"/><path id="patch_136" d="M335.456 230.688a2.994 2.994 0 1 0 0-5.988 2.994 2.994 0 0 0 0 5.988z" clip-path="url(#p684f9f0d0f)" style="fill:#ff0"/><path id="patch_137" d="M112.093 153.817a11.976 11.976 0 1 0 0-23.952 11.976 11.976 0 0 0 0 23.952z" clip-path="url(#p684f9f0d0f)" style="fill:#f0f"/><path id="patch_138" d="M111.793 98.544a8.982 8.982 0 1 0 0-17.963 8.982 8.982 0 0 0 0 17.963z" clip-path="url(#p684f9f0d0f)" style="fill:#ffc03f"/><path id="patch_139" d="M364.366 230.688a5.988 5.988 0 1 0 0-11.976 5.988 5.988 0 0 0 0 11.976z" clip-path="url(#p684f9f0d0f)" style="fill:#ff40bf"/><path id="patch_140" d="M436.036 222.88a3.992 3.992 0 1 0 0-7.983 3.992 3.992 0 0 0 0 7.983z" clip-path="url(#p684f9f0d0f)" style="fill:#ff807f"/><path id="patch_141" d="M101.118 156.492a2.994 2.994 0 1 0 0-5.988 2.994 2.994 0 0 0 0 5.988z" clip-path="url(#p684f9f0d0f)" style="fill:#ff0"/><path id="patch_142" d="M149.604 72.993a11.976 11.976 0 1 0 0-23.952 11.976 11.976 0 0 0 0 23.952z" clip-path="url(#p684f9f0d0f)" style="fill:#f0f"/><path id="patch_143" d="M170.552 70.574a8.982 8.982 0 1 0 0-17.964 8.982 8.982 0 0 0 0 17.964z" clip-path="url(#p684f9f0d0f)" style="fill:#ffc03f"/><path id="patch_144" d="M244.66 214.091a5.988 5.988 0 1 0 0-11.975 5.988 5.988 0 0 0 0 11.975z" clip-path="url(#p684f9f0d0f)" style="fill:#ff40bf"/><path id="patch_145" d="M118.606 82.009a3.992 3.992 0 1 0 0-7.984 3.992 3.992 0 0 0 0 7.984z" clip-path="url(#p684f9f0d0f)" style="fill:#ff807f"/><path id="patch_146" d="M531.31 215.371a2.994 2.994 0 1 0 0-5.988 2.994 2.994 0 0 0 0 5.988z" clip-path="url(#p684f9f0d0f)" style="fill:#ff0"/><path id="patch_147" d="M381.302 230.688a11.976 11.976 0 1 0 0-23.951 11.976 11.976 0 0 0 0 23.951z" clip-path="url(#p684f9f0d0f)" style="fill:#f0f"/><path id="patch_148" d="M402.043 230.688a8.982 8.982 0 1 0 0-17.963 8.982 8.982 0 0 0 0 17.963z" clip-path="url(#p684f9f0d0f)" style="fill:#ffc03f"/><path id="patch_149" d="M364.366 218.713a5.988 5.988 0 1 0 0-11.976 5.988 5.988 0 0 0 0 11.976z" clip-path="url(#p684f9f0d0f)" style="fill:#ff40bf"/><path id="patch_150" d="M107.121 161.062a3.992 3.992 0 1 0 0-7.984 3.992 3.992 0 0 0 0 7.984z" clip-path="url(#p684f9f0d0f)" style="fill:#ff807f"/><path id="patch_151" d="M264.34 44.987a2.994 2.994 0 1 0 0-5.987 2.994 2.994 0 0 0 0 5.987z" clip-path="url(#p684f9f0d0f)" style="fill:#ff0"/><path id="patch_152" d="M430.671 75.795a11.976 11.976 0 1 0 0-23.95 11.976 11.976 0 0 0 0 23.95z" clip-path="url(#p684f9f0d0f)" style="fill:#f0f"/><path id="patch_153" d="M259.468 214.897a8.982 8.982 0 1 0 0-17.963 8.982 8.982 0 0 0 0 17.963z" clip-path="url(#p684f9f0d0f)" style="fill:#ffc03f"/><path id="patch_154" d="M275.116 214.091a5.988 5.988 0 1 0 0-11.975 5.988 5.988 0 0 0 0 11.975z" clip-path="url(#p684f9f0d0f)" style="fill:#ff40bf"/><path id="patch_155" d="M264.432 52.97a3.992 3.992 0 1 0 0-7.984 3.992 3.992 0 0 0 0 7.984z" clip-path="url(#p684f9f0d0f)" style="fill:#ff807f"/><path id="patch_156" d="M335.456 212.725a2.994 2.994 0 1 0 0-5.987 2.994 2.994 0 0 0 0 5.987z" clip-path="url(#p684f9f0d0f)" style="fill:#ff0"/><path id="patch_157" d="M329.493 72.552a11.976 11.976 0 1 0 0-23.951 11.976 11.976 0 0 0 0 23.951z" clip-path="url(#p684f9f0d0f)" style="fill:#f0f"/><path id="patch_158" d="M350.001 60.97a8.982 8.982 0 1 0 0-17.963 8.982 8.982 0 0 0 0 17.964z" clip-path="url(#p684f9f0d0f)" style="fill:#ffc03f"/><path id="patch_159" d="M144.375 209.399a5.988 5.988 0 1 0 0-11.976 5.988 5.988 0 0 0 0 11.976z" clip-path="url(#p684f9f0d0f)" style="fill:#ff40bf"/><path id="patch_160" d="M134.418 206.747a3.992 3.992 0 1 0 0-7.983 3.992 3.992 0 0 0 0 7.983z" clip-path="url(#p684f9f0d0f)" style="fill:#ff807f"/><path id="patch_161" d="M464.012 223.029a2.994 2.994 0 1 0 0-5.988 2.994 2.994 0 0 0 0 5.988z" clip-path="url(#p684f9f0d0f)" style="fill:#ff0"/><path id="patch_162" d="M388.506 72.552a11.976 11.976 0 1 0 0-23.951 11.976 11.976 0 0 0 0 23.951z" clip-path="url(#p684f9f0d0f)" style="fill:#f0f"/><path id="patch_163" d="M367.764 72.552a8.982 8.982 0 1 0 0-17.963 8.982 8.982 0 0 0 0 17.963z" clip-path="url(#p684f9f0d0f)" style="fill:#ffc03f"/><path id="patch_164" d="M453.104 222.739a5.988 5.988 0 1 0 0-11.976 5.988 5.988 0 0 0 0 11.976z" clip-path="url(#p684f9f0d0f)" style="fill:#ff40bf"/><path id="patch_165" d="M400.79 54.37a3.992 3.992 0 1 0 0-7.984 3.992 3.992 0 0 0 0 7.984z" clip-path="url(#p684f9f0d0f)" style="fill:#ff807f"/><path id="patch_166" d="M536.638 198.26a2.994 2.994 0 1 0 0-5.987 2.994 2.994 0 0 0 0 5.988z" clip-path="url(#p684f9f0d0f)" style="fill:#ff0"/><path id="patch_167" d="M268.43 76.411a11.976 11.976 0 1 0 0-23.95 11.976 11.976 0 0 0 0 23.95z" clip-path="url(#p684f9f0d0f)" style="fill:#f0f"/><path id="patch_168" d="M538.263 90.17a8.982 8.982 0 1 0 0-17.964 8.982 8.982 0 0 0 0 17.963z" clip-path="url(#p684f9f0d0f)" style="fill:#ffc03f"/><path id="patch_169" d="M406.365 64.643a5.988 5.988 0 1 0 0-11.976 5.988 5.988 0 0 0 0 11.976z" clip-path="url(#p684f9f0d0f)" style="fill:#ff40bf"/><path id="patch_170" d="M443.326 218.747a3.992 3.992 0 1 0 0-7.984 3.992 3.992 0 0 0 0 7.984z" clip-path="url(#p684f9f0d0f)" style="fill:#ff807f"/><path id="patch_171" d="M281.859 60.816a2.994 2.994 0 1 0 0-5.988 2.994 2.994 0 0 0 0 5.988z" clip-path="url(#p684f9f0d0f)" style="fill:#ff0"/><path id="patch_172" d="M495.93 215.042a11.976 11.976 0 1 0 0-23.95 11.976 11.976 0 0 0 0 23.95z" clip-path="url(#p684f9f0d0f)" style="fill:#f0f"/><path id="patch_173" d="M555.436 101.371a8.982 8.982 0 1 0 0-17.963 8.982 8.982 0 0 0 0 17.963z" clip-path="url(#p684f9f0d0f)" style="fill:#ffc03f"/><path id="patch_174" d="M560.484 112.47a5.988 5.988 0 1 0 0-11.976 5.988 5.988 0 0 0 0 11.976z" clip-path="url(#p684f9f0d0f)" style="fill:#ff40bf"/><path id="patch_175" d="M288.61 60.02a3.992 3.992 0 1 0 0-7.984 3.992 3.992 0 0 0 0 7.984z" clip-path="url(#p684f9f0d0f)" style="fill:#ff807f"/><path id="patch_176" d="M550.218 83.497a2.994 2.994 0 1 0 0-5.987 2.994 2.994 0 0 0 0 5.987z" clip-path="url(#p684f9f0d0f)" style="fill:#ff0"/><path id="patch_177" d="M340.725 207.696a11.976 11.976 0 1 0 0-23.951 11.976 11.976 0 0 0 0 23.95z" clip-path="url(#p684f9f0d0f)" style="fill:#f0f"/><path id="patch_178" d="M191.346 218.856a8.982 8.982 0 1 0 0-17.963 8.982 8.982 0 0 0 0 17.963z" clip-path="url(#p684f9f0d0f)" style="fill:#ffc03f"/><path id="patch_179" d="M207.242 220.317a5.988 5.988 0 1 0 0-11.975 5.988 5.988 0 0 0 0 11.975z" clip-path="url(#p684f9f0d0f)" style="fill:#ff40bf"/><path id="patch_180" d="M285.883 67.523a3.992 3.992 0 1 0 0-7.983 3.992 3.992 0 0 0 0 7.983z" clip-path="url(#p684f9f0d0f)" style="fill:#ff807f"/><path id="patch_181" d="M352.7 207.696a2.994 2.994 0 1 0 0-5.988 2.994 2.994 0 0 0 0 5.988z" clip-path="url(#p684f9f0d0f)" style="fill:#ff0"/><path id="patch_182" d="M471.686 218.713a11.976 11.976 0 1 0 0-23.951 11.976 11.976 0 0 0 0 23.951z" clip-path="url(#p684f9f0d0f)" style="fill:#f0f"/><path id="patch_183" d="M298.848 72.977a8.982 8.982 0 1 0 0-17.964 8.982 8.982 0 0 0 0 17.964z" clip-path="url(#p684f9f0d0f)" style="fill:#ffc03f"/><path id="patch_184" d="M403.604 76.295a5.988 5.988 0 1 0 0-11.976 5.988 5.988 0 0 0 0 11.976z" clip-path="url(#p684f9f0d0f)" style="fill:#ff40bf"/><path id="patch_185" d="M313.6 63.03a3.992 3.992 0 1 0 0-7.983 3.992 3.992 0 0 0 0 7.984z" clip-path="url(#p684f9f0d0f)" style="fill:#ff807f"/><path id="patch_186" d="M355.262 202.284a2.994 2.994 0 1 0 0-5.988 2.994 2.994 0 0 0 0 5.988z" clip-path="url(#p684f9f0d0f)" style="fill:#ff0"/><path id="patch_187" d="M518.846 85.28a11.976 11.976 0 1 0 0-23.952 11.976 11.976 0 0 0 0 23.951z" clip-path="url(#p684f9f0d0f)" style="fill:#f0f"/><path id="patch_188" d="M285.957 85.486a8.982 8.982 0 1 0 0-17.964 8.982 8.982 0 0 0 0 17.964z" clip-path="url(#p684f9f0d0f)" style="fill:#ffc03f"/><path id="patch_189" d="M313.637 75.006a5.988 5.988 0 1 0 0-11.976 5.988 5.988 0 0 0 0 11.976z" clip-path="url(#p684f9f0d0f)" style="fill:#ff40bf"/><path id="patch_190" d="M412.753 70.313a3.992 3.992 0 1 0 0-7.983 3.992 3.992 0 0 0 0 7.983z" clip-path="url(#p684f9f0d0f)" style="fill:#ff807f"/><path id="patch_191" d="M415.272 62.8a2.994 2.994 0 1 0 0-5.988 2.994 2.994 0 0 0 0 5.988z" clip-path="url(#p684f9f0d0f)" style="fill:#ff0"/><path id="patch_192" d="M231.536 72.552a11.976 11.976 0 1 0 0-23.951 11.976 11.976 0 0 0 0 23.951z" clip-path="url(#p684f9f0d0f)" style="fill:#f0f"/><path id="patch_193" d="M415.847 87.902a8.982 8.982 0 1 0 0-17.964 8.982 8.982 0 0 0 0 17.964z" clip-path="url(#p684f9f0d0f)" style="fill:#ffc03f"/><path id="patch_194" d="M249.494 66.957a5.988 5.988 0 1 0 0-11.975 5.988 5.988 0 0 0 0 11.975z" clip-path="url(#p684f9f0d0f)" style="fill:#ff40bf"/><path id="patch_195" d="M219.25 54.37a3.992 3.992 0 1 0 0-7.984 3.992 3.992 0 0 0 0 7.984z" clip-path="url(#p684f9f0d0f)" style="fill:#ff807f"/><path id="patch_196" d="M256.486 58.327a2.994 2.994 0 1 0 0-5.988 2.994 2.994 0 0 0 0 5.988z" clip-path="url(#p684f9f0d0f)" style="fill:#ff0"/><path id="patch_197" d="M162.746 93.015a11.976 11.976 0 1 0 0-23.95 11.976 11.976 0 0 0 0 23.95z" clip-path="url(#p684f9f0d0f)" style="fill:#f0f"/><path id="patch_198" d="M303.236 90.395a8.982 8.982 0 1 0 0-17.963 8.982 8.982 0 0 0 0 17.963z" clip-path="url(#p684f9f0d0f)" style="fill:#ffc03f"/><path id="patch_199" d="M213.676 64.643a5.988 5.988 0 1 0 0-11.976 5.988 5.988 0 0 0 0 11.976z" clip-path="url(#p684f9f0d0f)" style="fill:#ff40bf"/><path id="patch_200" d="M110.534 106.467a3.992 3.992 0 1 0 0-7.984 3.992 3.992 0 0 0 0 7.984z" clip-path="url(#p684f9f0d0f)" style="fill:#ff807f"/><path id="patch_201" d="M358.668 207.209a2.994 2.994 0 1 0 0-5.988 2.994 2.994 0 0 0 0 5.988z" clip-path="url(#p684f9f0d0f)" style="fill:#ff0"/><path id="patch_202" d="M118.51 180.236a11.976 11.976 0 1 0 0-23.952 11.976 11.976 0 0 0 0 23.952z" clip-path="url(#p684f9f0d0f)" style="fill:#f0f"/><path id="patch_203" d="M323.172 89.539a8.982 8.982 0 1 0 0-17.964 8.982 8.982 0 0 0 0 17.964z" clip-path="url(#p684f9f0d0f)" style="fill:#ffc03f"/><path id="patch_204" d="M499.397 66.997a5.988 5.988 0 1 0 0-11.975 5.988 5.988 0 0 0 0 11.975z" clip-path="url(#p684f9f0d0f)" style="fill:#ff40bf"/><path id="patch_205" d="M508.485 60.878a3.992 3.992 0 1 0 0-7.983 3.992 3.992 0 0 0 0 7.983z" clip-path="url(#p684f9f0d0f)" style="fill:#ff807f"/><path id="patch_206" d="M525.711 62.996a2.994 2.994 0 1 0 0-5.988 2.994 2.994 0 0 0 0 5.988z" clip-path="url(#p684f9f0d0f)" style="fill:#ff0"/><path id="patch_207" d="M138.835 94.385a11.976 11.976 0 1 0 0-23.951 11.976 11.976 0 0 0 0 23.95z" clip-path="url(#p684f9f0d0f)" style="fill:#f0f"/><path id="patch_208" d="M137.449 199.123a8.982 8.982 0 1 0 0-17.963 8.982 8.982 0 0 0 0 17.963z" clip-path="url(#p684f9f0d0f)" style="fill:#ffc03f"/><path id="patch_209" d="M107.984 119.5a5.988 5.988 0 1 0 0-11.975 5.988 5.988 0 0 0 0 11.976z" clip-path="url(#p684f9f0d0f)" style="fill:#ff40bf"/><path id="patch_210" d="M489.801 67.74a3.992 3.992 0 1 0 0-7.984 3.992 3.992 0 0 0 0 7.983z" clip-path="url(#p684f9f0d0f)" style="fill:#ff807f"/><path id="patch_211" d="M125.152 78.574a2.994 2.994 0 1 0 0-5.988 2.994 2.994 0 0 0 0 5.988z" clip-path="url(#p684f9f0d0f)" style="fill:#ff0"/><path id="patch_212" d="M522.338 202.817a11.976 11.976 0 1 0 0-23.952 11.976 11.976 0 0 0 0 23.952z" clip-path="url(#p684f9f0d0f)" style="fill:#f0f"/><path id="patch_213" d="M495.42 84.422a8.982 8.982 0 1 0 0-17.964 8.982 8.982 0 0 0 0 17.964z" clip-path="url(#p684f9f0d0f)" style="fill:#ffc03f"/><path id="patch_214" d="M105.832 186.972a5.988 5.988 0 1 0 0-11.975 5.988 5.988 0 0 0 0 11.975z" clip-path="url(#p684f9f0d0f)" style="fill:#ff40bf"/><path id="patch_215" d="M134.786 70.957a3.992 3.992 0 1 0 0-7.984 3.992 3.992 0 0 0 0 7.984z" clip-path="url(#p684f9f0d0f)" style="fill:#ff807f"/><path id="patch_216" d="M128.876 201.497a2.994 2.994 0 1 0 0-5.988 2.994 2.994 0 0 0 0 5.988z" clip-path="url(#p684f9f0d0f)" style="fill:#ff0"/><path id="patch_217" d="M314.378 208.535a11.976 11.976 0 1 0 0-23.95 11.976 11.976 0 0 0 0 23.95z" clip-path="url(#p684f9f0d0f)" style="fill:#f0f"/><path id="patch_218" d="M372.078 208.877a8.982 8.982 0 1 0 0-17.963 8.982 8.982 0 0 0 0 17.963z" clip-path="url(#p684f9f0d0f)" style="fill:#ffc03f"/><path id="patch_219" d="M357.98 196.718a5.988 5.988 0 1 0 0-11.976 5.988 5.988 0 0 0 0 11.976z" clip-path="url(#p684f9f0d0f)" style="fill:#ff40bf"/><path id="patch_220" d="M110.555 129.94a3.992 3.992 0 1 0 0-7.983 3.992 3.992 0 0 0 0 7.984z" clip-path="url(#p684f9f0d0f)" style="fill:#ff807f"/><path id="patch_221" d="M485.279 72.066a2.994 2.994 0 1 0 0-5.988 2.994 2.994 0 0 0 0 5.988z" clip-path="url(#p684f9f0d0f)" style="fill:#ff0"/><path id="patch_222" d="M542.703 121.01a11.976 11.976 0 1 0 0-23.951 11.976 11.976 0 0 0 0 23.95z" clip-path="url(#p684f9f0d0f)" style="fill:#f0f"/><path id="patch_223" d="M557.043 133.616a8.982 8.982 0 1 0 0-17.963 8.982 8.982 0 0 0 0 17.963z" clip-path="url(#p684f9f0d0f)" style="fill:#ffc03f"/><path id="patch_224" d="M480.503 82.665a5.988 5.988 0 1 0 0-11.975 5.988 5.988 0 0 0 0 11.975z" clip-path="url(#p684f9f0d0f)" style="fill:#ff40bf"/><path id="patch_225" d="M539.208 192.763a3.992 3.992 0 1 0 0-7.983 3.992 3.992 0 0 0 0 7.983z" clip-path="url(#p684f9f0d0f)" style="fill:#ff807f"/><path id="patch_226" d="M543.583 97.086a2.994 2.994 0 1 0 0-5.988 2.994 2.994 0 0 0 0 5.988z" clip-path="url(#p684f9f0d0f)" style="fill:#ff0"/><path id="patch_227" d="M553.96 173.764a11.976 11.976 0 1 0-.001-23.952 11.976 11.976 0 0 0 0 23.952z" clip-path="url(#p684f9f0d0f)" style="fill:#f0f"/><path id="patch_228" d="M525.025 102.31a8.982 8.982 0 1 0 0-17.963 8.982 8.982 0 0 0 0 17.963z" clip-path="url(#p684f9f0d0f)" style="fill:#ffc03f"/><path id="patch_229" d="M468.469 81.25a5.988 5.988 0 1 0 0-11.976 5.988 5.988 0 0 0 0 11.975z" clip-path="url(#p684f9f0d0f)" style="fill:#ff40bf"/><path id="patch_230" d="M133.76 63.04a3.992 3.992 0 1 0 0-7.984 3.992 3.992 0 0 0 0 7.984z" clip-path="url(#p684f9f0d0f)" style="fill:#ff807f"/><path id="patch_231" d="M327.237 207.217a2.994 2.994 0 1 0 0-5.988 2.994 2.994 0 0 0 0 5.988z" clip-path="url(#p684f9f0d0f)" style="fill:#ff0"/><path id="patch_232" d="M289.421 109.147a11.976 11.976 0 1 0 0-23.95 11.976 11.976 0 0 0 0 23.95z" clip-path="url(#p684f9f0d0f)" style="fill:#f0f"/><path id="patch_233" d="M271.223 95.76a8.982 8.982 0 1 0 0-17.963 8.982 8.982 0 0 0 0 17.964z" clip-path="url(#p684f9f0d0f)" style="fill:#ffc03f"/><path id="patch_234" d="M559.626 150.73a5.988 5.988 0 1 0 0-11.975 5.988 5.988 0 0 0 0 11.976z" clip-path="url(#p684f9f0d0f)" style="fill:#ff40bf"/><path id="patch_235" d="M124.763 196.848a3.992 3.992 0 1 0 0-7.983 3.992 3.992 0 0 0 0 7.983z" clip-path="url(#p684f9f0d0f)" style="fill:#ff807f"/><path id="patch_236" d="M525.693 208.423a2.994 2.994 0 1 0 0-5.987 2.994 2.994 0 0 0 0 5.987z" clip-path="url(#p684f9f0d0f)" style="fill:#ff0"/><path id="patch_237" d="M396.416 98.744a11.976 11.976 0 1 0 0-23.951 11.976 11.976 0 0 0 0 23.951z" clip-path="url(#p684f9f0d0f)" style="fill:#f0f"/><path id="patch_238" d="M507.247 99.739a8.982 8.982 0 1 0 0-17.964 8.982 8.982 0 0 0 0 17.964z" clip-path="url(#p684f9f0d0f)" style="fill:#ffc03f"/><path id="patch_239" d="M377.603 80.84a5.988 5.988 0 1 0 0-11.976 5.988 5.988 0 0 0 0 11.976z" clip-path="url(#p684f9f0d0f)" style="fill:#ff40bf"/><path id="patch_240" d="M125.575 188.907a3.992 3.992 0 1 0 0-7.984 3.992 3.992 0 0 0 0 7.984z" clip-path="url(#p684f9f0d0f)" style="fill:#ff807f"/><path id="patch_241" d="M119.466 191.296a2.994 2.994 0 1 0 0-5.988 2.994 2.994 0 0 0 0 5.988z" clip-path="url(#p684f9f0d0f)" style="fill:#ff0"/><path id="patch_242" d="M176.465 207.095a11.976 11.976 0 1 0 0-23.951 11.976 11.976 0 0 0 0 23.951z" clip-path="url(#p684f9f0d0f)" style="fill:#f0f"/><path id="patch_243" d="M155.175 202.028a8.982 8.982 0 1 0 0-17.964 8.982 8.982 0 0 0 0 17.964z" clip-path="url(#p684f9f0d0f)" style="fill:#ffc03f"/><path id="patch_244" d="M547.415 189.081a5.988 5.988 0 1 0 0-11.975 5.988 5.988 0 0 0 0 11.975z" clip-path="url(#p684f9f0d0f)" style="fill:#ff40bf"/><path id="patch_245" d="M300.634 208.678a3.992 3.992 0 1 0 0-7.984 3.992 3.992 0 0 0 0 7.984z" clip-path="url(#p684f9f0d0f)" style="fill:#ff807f"/><path id="patch_246" d="M554.902 191.048a2.994 2.994 0 1 0 0-5.988 2.994 2.994 0 0 0 0 5.988z" clip-path="url(#p684f9f0d0f)" style="fill:#ff0"/><path id="patch_247" d="M448.068 211.484a11.976 11.976 0 1 0 0-23.951 11.976 11.976 0 0 0 0 23.95z" clip-path="url(#p684f9f0d0f)" style="fill:#f0f"/><path id="patch_248" d="M215.083 82.539a8.982 8.982 0 1 0 0-17.964 8.982 8.982 0 0 0 0 17.964z" clip-path="url(#p684f9f0d0f)" style="fill:#ffc03f"/><path id="patch_249" d="M413.02 99.607a5.988 5.988 0 1 0 0-11.975 5.988 5.988 0 0 0 0 11.975z" clip-path="url(#p684f9f0d0f)" style="fill:#ff40bf"/><path id="patch_250" d="M164.001 209.091a3.992 3.992 0 1 0 0-7.983 3.992 3.992 0 0 0 0 7.983z" clip-path="url(#p684f9f0d0f)" style="fill:#ff807f"/><path id="patch_251" d="M537.656 97.936a2.994 2.994 0 1 0 0-5.987 2.994 2.994 0 0 0 0 5.987z" clip-path="url(#p684f9f0d0f)" style="fill:#ff0"/><path id="patch_252" d="M287.27 206.853a11.976 11.976 0 1 0 0-23.952 11.976 11.976 0 0 0 0 23.952z" clip-path="url(#p684f9f0d0f)" style="fill:#f0f"/><path id="patch_253" d="M199.764 73.16a8.982 8.982 0 1 0 0-17.963 8.982 8.982 0 0 0 0 17.963z" clip-path="url(#p684f9f0d0f)" style="fill:#ffc03f"/><path id="patch_254" d="M337.609 82.59a5.988 5.988 0 1 0 0-11.977 5.988 5.988 0 0 0 0 11.976z" clip-path="url(#p684f9f0d0f)" style="fill:#ff40bf"/><path id="patch_255" d="M514.167 55.27a3.992 3.992 0 1 0 0-7.983 3.992 3.992 0 0 0 0 7.984z" clip-path="url(#p684f9f0d0f)" style="fill:#ff807f"/><path id="patch_256" d="M386.566 78.413a2.994 2.994 0 1 0 0-5.987 2.994 2.994 0 0 0 0 5.987z" clip-path="url(#p684f9f0d0f)" style="fill:#ff0"/><path id="patch_257" d="M149.373 184.884a11.976 11.976 0 1 0 0-23.951 11.976 11.976 0 0 0 0 23.951z" clip-path="url(#p684f9f0d0f)" style="fill:#f0f"/><path id="patch_258" d="M182.746 83.764a8.982 8.982 0 1 0 0-17.964 8.982 8.982 0 0 0 0 17.964z" clip-path="url(#p684f9f0d0f)" style="fill:#ffc03f"/><path id="patch_259" d="M345.877 73.927a5.988 5.988 0 1 0 0-11.976 5.988 5.988 0 0 0 0 11.976z" clip-path="url(#p684f9f0d0f)" style="fill:#ff40bf"/><path id="patch_260" d="M436.538 214.545a3.992 3.992 0 1 0 0-7.983 3.992 3.992 0 0 0 0 7.983z" clip-path="url(#p684f9f0d0f)" style="fill:#ff807f"/><path id="patch_261" d="M519.949 61.37a2.994 2.994 0 1 0 0-5.988 2.994 2.994 0 0 0 0 5.988z" clip-path="url(#p684f9f0d0f)" style="fill:#ff0"/><path id="patch_262" d="M232.966 96.46a11.976 11.976 0 1 0 0-23.952 11.976 11.976 0 0 0 0 23.951z" clip-path="url(#p684f9f0d0f)" style="fill:#f0f"/><path id="patch_263" d="M199.301 91.117a8.982 8.982 0 1 0 0-17.964 8.982 8.982 0 0 0 0 17.964z" clip-path="url(#p684f9f0d0f)" style="fill:#ffc03f"/><path id="patch_264" d="M212.91 94.355a5.988 5.988 0 1 0 0-11.975 5.988 5.988 0 0 0 0 11.975z" clip-path="url(#p684f9f0d0f)" style="fill:#ff40bf"/><path id="patch_265" d="M130.884 182.944a3.992 3.992 0 1 0 0-7.984 3.992 3.992 0 0 0 0 7.984z" clip-path="url(#p684f9f0d0f)" style="fill:#ff807f"/><path id="patch_266" d="M114.644 185.715a2.994 2.994 0 1 0 0-5.988 2.994 2.994 0 0 0 0 5.988z" clip-path="url(#p684f9f0d0f)" style="fill:#ff0"/><path id="patch_267" d="M267.79 119.427a11.976 11.976 0 1 0-.001-23.95 11.976 11.976 0 0 0 0 23.95z" clip-path="url(#p684f9f0d0f)" style="fill:#f0f"/><path id="patch_268" d="M253.952 100.695a8.982 8.982 0 1 0 0-17.963 8.982 8.982 0 0 0 0 17.963z" clip-path="url(#p684f9f0d0f)" style="fill:#ffc03f"/><path id="patch_269" d="M151.556 101.08a5.988 5.988 0 1 0 0-11.976 5.988 5.988 0 0 0 0 11.975z" clip-path="url(#p684f9f0d0f)" style="fill:#ff40bf"/><path id="patch_270" d="M162.337 186.222a3.992 3.992 0 1 0 0-7.984 3.992 3.992 0 0 0 0 7.984z" clip-path="url(#p684f9f0d0f)" style="fill:#ff807f"/><path id="patch_271" d="M241.216 74.988a2.994 2.994 0 1 0 0-5.988 2.994 2.994 0 0 0 0 5.988z" clip-path="url(#p684f9f0d0f)" style="fill:#ff0"/><path id="patch_272" d="M181.676 107.686a11.976 11.976 0 1 0 0-23.95 11.976 11.976 0 0 0 0 23.95z" clip-path="url(#p684f9f0d0f)" style="fill:#f0f"/><path id="patch_273" d="M203.117 108.67a8.982 8.982 0 1 0 0-17.964 8.982 8.982 0 0 0 0 17.963z" clip-path="url(#p684f9f0d0f)" style="fill:#ffc03f"/><path id="patch_274" d="M249.023 82.422a5.988 5.988 0 1 0 0-11.976 5.988 5.988 0 0 0 0 11.976z" clip-path="url(#p684f9f0d0f)" style="fill:#ff40bf"/><path id="patch_275" d="M537.671 184.93a3.992 3.992 0 1 0 0-7.984 3.992 3.992 0 0 0 0 7.983z" clip-path="url(#p684f9f0d0f)" style="fill:#ff807f"/><path id="patch_276" d="M272.993 202.37a2.994 2.994 0 1 0 0-5.987 2.994 2.994 0 0 0 0 5.988z" clip-path="url(#p684f9f0d0f)" style="fill:#ff0"/><path id="patch_277" d="M442.646 96.537a11.976 11.976 0 1 0 0-23.951 11.976 11.976 0 0 0 0 23.95z" clip-path="url(#p684f9f0d0f)" style="fill:#f0f"/><path id="patch_278" d="M267.183 197.887a8.982 8.982 0 1 0 0-17.963 8.982 8.982 0 0 0 0 17.963z" clip-path="url(#p684f9f0d0f)" style="fill:#ffc03f"/><path id="patch_279" d="M218.077 105.159a5.988 5.988 0 1 0 0-11.976 5.988 5.988 0 0 0 0 11.976z" clip-path="url(#p684f9f0d0f)" style="fill:#ff40bf"/><path id="patch_280" d="M542.37 178.475a3.992 3.992 0 1 0 0-7.984 3.992 3.992 0 0 0 0 7.984z" clip-path="url(#p684f9f0d0f)" style="fill:#ff807f"/><path id="patch_281" d="M428.88 81.676a2.994 2.994 0 1 0 0-5.988 2.994 2.994 0 0 0 0 5.988z" clip-path="url(#p684f9f0d0f)" style="fill:#ff0"/><path id="patch_282" d="M353.993 95.939a11.976 11.976 0 1 0 0-23.951 11.976 11.976 0 0 0 0 23.951z" clip-path="url(#p684f9f0d0f)" style="fill:#f0f"/><path id="patch_283" d="M530.041 179.427a8.982 8.982 0 1 0 0-17.964 8.982 8.982 0 0 0 0 17.964z" clip-path="url(#p684f9f0d0f)" style="fill:#ffc03f"/><path id="patch_284" d="M424.703 96.976a5.988 5.988 0 1 0 0-11.976 5.988 5.988 0 0 0 0 11.976z" clip-path="url(#p684f9f0d0f)" style="fill:#ff40bf"/><path id="patch_285" d="M183.523 65.824a3.992 3.992 0 1 0 0-7.983 3.992 3.992 0 0 0 0 7.983z" clip-path="url(#p684f9f0d0f)" style="fill:#ff807f"/><path id="patch_286" d="M368.646 78.507a2.994 2.994 0 1 0 0-5.988 2.994 2.994 0 0 0 0 5.988z" clip-path="url(#p684f9f0d0f)" style="fill:#ff0"/><path id="patch_287" d="M513.425 122.758a11.976 11.976 0 1 0 0-23.952 11.976 11.976 0 0 0 0 23.952z" clip-path="url(#p684f9f0d0f)" style="fill:#f0f"/><path id="patch_288" d="M396.742 213.525a8.982 8.982 0 1 0 0-17.963 8.982 8.982 0 0 0 0 17.963z" clip-path="url(#p684f9f0d0f)" style="fill:#ffc03f"/><path id="patch_289" d="M162.874 104.99a5.988 5.988 0 1 0 0-11.976 5.988 5.988 0 0 0 0 11.976z" clip-path="url(#p684f9f0d0f)" style="fill:#ff40bf"/><path id="patch_290" d="M260.016 84.237a3.992 3.992 0 1 0 0-7.983 3.992 3.992 0 0 0 0 7.983z" clip-path="url(#p684f9f0d0f)" style="fill:#ff807f"/><path id="patch_291" d="M354.793 72.01a2.994 2.994 0 1 0 0-5.987 2.994 2.994 0 0 0 0 5.987z" clip-path="url(#p684f9f0d0f)" style="fill:#ff0"/><path id="patch_292" d="M245.641 202.143a11.976 11.976 0 1 0 0-23.951 11.976 11.976 0 0 0 0 23.951z" clip-path="url(#p684f9f0d0f)" style="fill:#f0f"/><path id="patch_293" d="M214.384 122.659a8.982 8.982 0 1 0 0-17.964 8.982 8.982 0 0 0 0 17.964z" clip-path="url(#p684f9f0d0f)" style="fill:#ffc03f"/><path id="patch_294" d="M410.834 215.58a5.988 5.988 0 1 0 0-11.977 5.988 5.988 0 0 0 0 11.976z" clip-path="url(#p684f9f0d0f)" style="fill:#ff40bf"/><path id="patch_295" d="M457.78 83.463a3.992 3.992 0 1 0 0-7.983 3.992 3.992 0 0 0 0 7.983z" clip-path="url(#p684f9f0d0f)" style="fill:#ff807f"/><path id="patch_296" d="M527.27 108.085a2.994 2.994 0 1 0 0-5.987 2.994 2.994 0 0 0 0 5.987z" clip-path="url(#p684f9f0d0f)" style="fill:#ff0"/><path id="patch_297" d="M126.354 116.61a11.976 11.976 0 1 0 0-23.952 11.976 11.976 0 0 0 0 23.951z" clip-path="url(#p684f9f0d0f)" style="fill:#f0f"/><path id="patch_298" d="M427.21 210.519a8.982 8.982 0 1 0 0-17.963 8.982 8.982 0 0 0 0 17.963z" clip-path="url(#p684f9f0d0f)" style="fill:#ffc03f"/><path id="patch_299" d="M335.89 94.44a5.988 5.988 0 1 0-.001-11.976 5.988 5.988 0 0 0 0 11.976z" clip-path="url(#p684f9f0d0f)" style="fill:#ff40bf"/><path id="patch_300" d="M370.804 86.149a3.992 3.992 0 1 0 0-7.984 3.992 3.992 0 0 0 0 7.984z" clip-path="url(#p684f9f0d0f)" style="fill:#ff807f"/><path id="patch_301" d="M383.368 206.881a2.994 2.994 0 1 0 0-5.988 2.994 2.994 0 0 0 0 5.988z" clip-path="url(#p684f9f0d0f)" style="fill:#ff0"/><path id="patch_302" d="M485.538 105.895a11.976 11.976 0 1 0 0-23.95 11.976 11.976 0 0 0 0 23.95z" clip-path="url(#p684f9f0d0f)" style="fill:#f0f"/><path id="patch_303" d="M462.386 100.58a8.982 8.982 0 1 0 0-17.963 8.982 8.982 0 0 0 0 17.964z" clip-path="url(#p684f9f0d0f)" style="fill:#ffc03f"/><path id="patch_304" d="M120.534 131.973a5.988 5.988 0 1 0 0-11.975 5.988 5.988 0 0 0 0 11.975z" clip-path="url(#p684f9f0d0f)" style="fill:#ff40bf"/><path id="patch_305" d="M235.69 207.724a3.992 3.992 0 1 0-.001-7.984 3.992 3.992 0 0 0 0 7.984z" clip-path="url(#p684f9f0d0f)" style="fill:#ff807f"/><path id="patch_306" d="M123.763 92.885a2.994 2.994 0 1 0 0-5.988 2.994 2.994 0 0 0 0 5.988z" clip-path="url(#p684f9f0d0f)" style="fill:#ff0"/><path id="patch_307" d="M542.056 152.981a11.976 11.976 0 1 0 0-23.951 11.976 11.976 0 0 0 0 23.951z" clip-path="url(#p684f9f0d0f)" style="fill:#f0f"/><path id="patch_308" d="M230.969 115.76a8.982 8.982 0 1 0 0-17.964 8.982 8.982 0 0 0 0 17.963z" clip-path="url(#p684f9f0d0f)" style="fill:#ffc03f"/><path id="patch_309" d="M410.026 203.631a5.988 5.988 0 1 0 0-11.975 5.988 5.988 0 0 0 0 11.975z" clip-path="url(#p684f9f0d0f)" style="fill:#ff40bf"/><path id="patch_310" d="M538.843 160.638a3.992 3.992 0 1 0 0-7.984 3.992 3.992 0 0 0 0 7.984z" clip-path="url(#p684f9f0d0f)" style="fill:#ff807f"/><path id="patch_311" d="M122.426 87.049a2.994 2.994 0 1 0 0-5.988 2.994 2.994 0 0 0 0 5.988z" clip-path="url(#p684f9f0d0f)" style="fill:#ff0"/><path id="patch_312" d="M448.937 119.646a11.976 11.976 0 1 0 0-23.951 11.976 11.976 0 0 0 0 23.951z" clip-path="url(#p684f9f0d0f)" style="fill:#f0f"/><path id="patch_313" d="M469.892 116.9a8.982 8.982 0 1 0 0-17.963 8.982 8.982 0 0 0 0 17.963z" clip-path="url(#p684f9f0d0f)" style="fill:#ffc03f"/><path id="patch_314" d="M529.318 159.658a5.988 5.988 0 1 0 0-11.975 5.988 5.988 0 0 0 0 11.975z" clip-path="url(#p684f9f0d0f)" style="fill:#ff40bf"/><path id="patch_315" d="M500.289 105.698a3.992 3.992 0 1 0 0-7.983 3.992 3.992 0 0 0 0 7.983z" clip-path="url(#p684f9f0d0f)" style="fill:#ff807f"/><path id="patch_316" d="M474.733 86.554a2.994 2.994 0 1 0 0-5.987 2.994 2.994 0 0 0 0 5.987z" clip-path="url(#p684f9f0d0f)" style="fill:#ff0"/><path id="patch_317" d="M323.554 113.485a11.976 11.976 0 1 0 0-23.95 11.976 11.976 0 0 0 0 23.95z" clip-path="url(#p684f9f0d0f)" style="fill:#f0f"/><path id="patch_318" d="M351.03 186.454a8.982 8.982 0 1 0 0-17.963 8.982 8.982 0 0 0 0 17.963z" clip-path="url(#p684f9f0d0f)" style="fill:#ffc03f"/><path id="patch_319" d="M249.877 112.105a5.988 5.988 0 1 0 0-11.976 5.988 5.988 0 0 0 0 11.976z" clip-path="url(#p684f9f0d0f)" style="fill:#ff40bf"/><path id="patch_320" d="M435.601 102.882a3.992 3.992 0 1 0 0-7.984 3.992 3.992 0 0 0 0 7.984z" clip-path="url(#p684f9f0d0f)" style="fill:#ff807f"/><path id="patch_321" d="M314.949 92.256a2.994 2.994 0 1 0 0-5.988 2.994 2.994 0 0 0 0 5.988z" clip-path="url(#p684f9f0d0f)" style="fill:#ff0"/><path id="patch_322" d="M432.544 193.246a11.976 11.976 0 1 0 0-23.95 11.976 11.976 0 0 0 0 23.95z" clip-path="url(#p684f9f0d0f)" style="fill:#f0f"/><path id="patch_323" d="M368.761 189.327a8.982 8.982 0 1 0 0-17.963 8.982 8.982 0 0 0 0 17.963z" clip-path="url(#p684f9f0d0f)" style="fill:#ffc03f"/><path id="patch_324" d="M341.355 105.095a5.988 5.988 0 1 0 0-11.976 5.988 5.988 0 0 0 0 11.976z" clip-path="url(#p684f9f0d0f)" style="fill:#ff40bf"/><path id="patch_325" d="M243.088 102.795a3.992 3.992 0 1 0 0-7.984 3.992 3.992 0 0 0 0 7.984z" clip-path="url(#p684f9f0d0f)" style="fill:#ff807f"/><path id="patch_326" d="M421.282 194.126a2.994 2.994 0 1 0 0-5.987 2.994 2.994 0 0 0 0 5.987z" clip-path="url(#p684f9f0d0f)" style="fill:#ff0"/><path id="patch_327" d="M151.684 125.029a11.976 11.976 0 1 0 0-23.951 11.976 11.976 0 0 0 0 23.95z" clip-path="url(#p684f9f0d0f)" style="fill:#f0f"/><path id="patch_328" d="M279.186 184.524a8.982 8.982 0 1 0 0-17.963 8.982 8.982 0 0 0 0 17.963z" clip-path="url(#p684f9f0d0f)" style="fill:#ffc03f"/><path id="patch_329" d="M495.466 116.43a5.988 5.988 0 1 0 0-11.975 5.988 5.988 0 0 0 0 11.976z" clip-path="url(#p684f9f0d0f)" style="fill:#ff40bf"/><path id="patch_330" d="M305.118 98.241a3.992 3.992 0 1 0 0-7.983 3.992 3.992 0 0 0 0 7.983z" clip-path="url(#p684f9f0d0f)" style="fill:#ff807f"/><path id="patch_331" d="M142.75 99.851a2.994 2.994 0 1 0 0-5.987 2.994 2.994 0 0 0 0 5.987z" clip-path="url(#p684f9f0d0f)" style="fill:#ff0"/><path id="patch_332" d="M259.099 181.547a11.976 11.976 0 1 0 0-23.951 11.976 11.976 0 0 0 0 23.95z" clip-path="url(#p684f9f0d0f)" style="fill:#f0f"/><path id="patch_333" d="M453.402 188.224a8.982 8.982 0 1 0 0-17.964 8.982 8.982 0 0 0 0 17.964z" clip-path="url(#p684f9f0d0f)" style="fill:#ffc03f"/><path id="patch_334" d="M169.22 115.146a5.988 5.988 0 1 0 0-11.976 5.988 5.988 0 0 0 0 11.976z" clip-path="url(#p684f9f0d0f)" style="fill:#ff40bf"/><path id="patch_335" d="M384.732 201.028a3.992 3.992 0 1 0 0-7.984 3.992 3.992 0 0 0 0 7.984z" clip-path="url(#p684f9f0d0f)" style="fill:#ff807f"/><path id="patch_336" d="M303.86 104.115a2.994 2.994 0 1 0 0-5.988 2.994 2.994 0 0 0 0 5.988z" clip-path="url(#p684f9f0d0f)" style="fill:#ff0"/><path id="patch_337" d="M200.022 202.774a11.976 11.976 0 1 0 0-23.951 11.976 11.976 0 0 0 0 23.95z" clip-path="url(#p684f9f0d0f)" style="fill:#f0f"/><path id="patch_338" d="M223.699 207.76a8.982 8.982 0 1 0 0-17.963 8.982 8.982 0 0 0 0 17.964z" clip-path="url(#p684f9f0d0f)" style="fill:#ffc03f"/><path id="patch_339" d="M414.928 190.773a5.988 5.988 0 1 0 0-11.976 5.988 5.988 0 0 0 0 11.976z" clip-path="url(#p684f9f0d0f)" style="fill:#ff40bf"/><path id="patch_340" d="M380.661 194.16a3.992 3.992 0 1 0 0-7.983 3.992 3.992 0 0 0 0 7.983z" clip-path="url(#p684f9f0d0f)" style="fill:#ff807f"/><path id="patch_341" d="M202.516 208.552a2.994 2.994 0 1 0 0-5.988 2.994 2.994 0 0 0 0 5.988z" clip-path="url(#p684f9f0d0f)" style="fill:#ff0"/><path id="patch_342" d="M444.262 172.36a11.976 11.976 0 1 0 0-23.952 11.976 11.976 0 0 0 0 23.951z" clip-path="url(#p684f9f0d0f)" style="fill:#f0f"/><path id="patch_343" d="M399.682 195.805a8.982 8.982 0 1 0 0-17.963 8.982 8.982 0 0 0 0 17.963z" clip-path="url(#p684f9f0d0f)" style="fill:#ffc03f"/><path id="patch_344" d="M463.49 196.288a5.988 5.988 0 1 0 0-11.976 5.988 5.988 0 0 0 0 11.976z" clip-path="url(#p684f9f0d0f)" style="fill:#ff40bf"/><path id="patch_345" d="M378.335 88.796a3.992 3.992 0 1 0 0-7.984 3.992 3.992 0 0 0 0 7.984z" clip-path="url(#p684f9f0d0f)" style="fill:#ff807f"/><path id="patch_346" d="M387.628 193.674a2.994 2.994 0 1 0 0-5.988 2.994 2.994 0 0 0 0 5.988z" clip-path="url(#p684f9f0d0f)" style="fill:#ff0"/><path id="patch_347" d="M135.354 148.112a11.976 11.976 0 1 0 0-23.952 11.976 11.976 0 0 0 0 23.952z" clip-path="url(#p684f9f0d0f)" style="fill:#f0f"/><path id="patch_348" d="M276.431 166.774a8.982 8.982 0 1 0 0-17.963 8.982 8.982 0 0 0 0 17.963z" clip-path="url(#p684f9f0d0f)" style="fill:#ffc03f"/><path id="patch_349" d="M126.912 157.98a5.988 5.988 0 1 0 0-11.976 5.988 5.988 0 0 0 0 11.976z" clip-path="url(#p684f9f0d0f)" style="fill:#ff40bf"/><path id="patch_350" d="M385.69 187.96a3.992 3.992 0 1 0 0-7.984 3.992 3.992 0 0 0 0 7.984z" clip-path="url(#p684f9f0d0f)" style="fill:#ff807f"/><path id="patch_351" d="M218.366 212.495a2.994 2.994 0 1 0 0-5.988 2.994 2.994 0 0 0 0 5.988z" clip-path="url(#p684f9f0d0f)" style="fill:#ff0"/><path id="patch_352" d="M518.147 151.58a11.976 11.976 0 1 0 0-23.952 11.976 11.976 0 0 0 0 23.951z" clip-path="url(#p684f9f0d0f)" style="fill:#f0f"/><path id="patch_353" d="M498.182 134.145a8.982 8.982 0 1 0 0-17.964 8.982 8.982 0 0 0 0 17.964z" clip-path="url(#p684f9f0d0f)" style="fill:#ffc03f"/><path id="patch_354" d="M138.754 159.762a5.988 5.988 0 1 0 0-11.976 5.988 5.988 0 0 0 0 11.976z" clip-path="url(#p684f9f0d0f)" style="fill:#ff40bf"/><path id="patch_355" d="M129.364 125.328a3.992 3.992 0 1 0 0-7.984 3.992 3.992 0 0 0 0 7.984z" clip-path="url(#p684f9f0d0f)" style="fill:#ff807f"/><path id="patch_356" d="M131.837 162.497a2.994 2.994 0 1 0 0-5.988 2.994 2.994 0 0 0 0 5.988z" clip-path="url(#p684f9f0d0f)" style="fill:#ff0"/><path id="patch_357" d="M425.223 122.998a11.976 11.976 0 1 0-.001-23.95 11.976 11.976 0 0 0 0 23.95z" clip-path="url(#p684f9f0d0f)" style="fill:#f0f"/><path id="patch_358" d="M404.66 115.017a8.982 8.982 0 1 0 0-17.963 8.982 8.982 0 0 0 0 17.963z" clip-path="url(#p684f9f0d0f)" style="fill:#ffc03f"/><path id="patch_359" d="M371.537 98.097a5.988 5.988 0 1 0 0-11.976 5.988 5.988 0 0 0 0 11.976z" clip-path="url(#p684f9f0d0f)" style="fill:#ff40bf"/><path id="patch_360" d="M137.278 124.278a3.992 3.992 0 1 0 0-7.984 3.992 3.992 0 0 0 0 7.984z" clip-path="url(#p684f9f0d0f)" style="fill:#ff807f"/><path id="patch_361" d="M136.975 165.571a2.994 2.994 0 1 0 0-5.987 2.994 2.994 0 0 0 0 5.987z" clip-path="url(#p684f9f0d0f)" style="fill:#ff0"/><path id="patch_362" d="M362.924 172.194a11.976 11.976 0 1 0 0-23.951 11.976 11.976 0 0 0 0 23.951z" clip-path="url(#p684f9f0d0f)" style="fill:#f0f"/><path id="patch_363" d="M285.987 126.827a8.982 8.982 0 1 0 0-17.964 8.982 8.982 0 0 0 0 17.964z" clip-path="url(#p684f9f0d0f)" style="fill:#ffc03f"/><path id="patch_364" d="M530.885 132.927a5.988 5.988 0 1 0 0-11.975 5.988 5.988 0 0 0 0 11.975z" clip-path="url(#p684f9f0d0f)" style="fill:#ff40bf"/><path id="patch_365" d="M209.279 207.8a3.992 3.992 0 1 0 0-7.984 3.992 3.992 0 0 0 0 7.984z" clip-path="url(#p684f9f0d0f)" style="fill:#ff807f"/><path id="patch_366" d="M380.494 94.442a2.994 2.994 0 1 0 0-5.988 2.994 2.994 0 0 0 0 5.988z" clip-path="url(#p684f9f0d0f)" style="fill:#ff0"/><path id="patch_367" d="M330.34 186.114a11.976 11.976 0 1 0 0-23.95 11.976 11.976 0 0 0 0 23.95z" clip-path="url(#p684f9f0d0f)" style="fill:#f0f"/><path id="patch_368" d="M381.375 112.372a8.982 8.982 0 1 0 0-17.963 8.982 8.982 0 0 0 0 17.963z" clip-path="url(#p684f9f0d0f)" style="fill:#ffc03f"/><path id="patch_369" d="M485.542 123.132a5.988 5.988 0 1 0 0-11.975 5.988 5.988 0 0 0 0 11.975z" clip-path="url(#p684f9f0d0f)" style="fill:#ff40bf"/><path id="patch_370" d="M540.693 129.09a3.992 3.992 0 1 0 0-7.984 3.992 3.992 0 0 0 0 7.983z" clip-path="url(#p684f9f0d0f)" style="fill:#ff807f"/><path id="patch_371" d="M327.44 191.818a2.994 2.994 0 1 0 0-5.988 2.994 2.994 0 0 0 0 5.988z" clip-path="url(#p684f9f0d0f)" style="fill:#ff0"/><path id="patch_372" d="M184.501 184.533a11.976 11.976 0 1 0 0-23.95 11.976 11.976 0 0 0 0 23.95z" clip-path="url(#p684f9f0d0f)" style="fill:#f0f"/><path id="patch_373" d="M363.461 113.694a8.982 8.982 0 1 0 0-17.963 8.982 8.982 0 0 0 0 17.963z" clip-path="url(#p684f9f0d0f)" style="fill:#ffc03f"/><path id="patch_374" d="M345.291 169.636a5.988 5.988 0 1 0 0-11.976 5.988 5.988 0 0 0 0 11.976z" clip-path="url(#p684f9f0d0f)" style="fill:#ff40bf"/><path id="patch_375" d="M165.23 178.78a3.992 3.992 0 1 0-.001-7.983 3.992 3.992 0 0 0 0 7.983z" clip-path="url(#p684f9f0d0f)" style="fill:#ff807f"/><path id="patch_376" d="M393.59 104.462a2.994 2.994 0 1 0 0-5.987 2.994 2.994 0 0 0 0 5.987z" clip-path="url(#p684f9f0d0f)" style="fill:#ff0"/><path id="patch_377" d="M413.393 178.864a11.976 11.976 0 1 0 0-23.952 11.976 11.976 0 0 0 0 23.952z" clip-path="url(#p684f9f0d0f)" style="fill:#f0f"/><path id="patch_378" d="M464.649 174.219a8.982 8.982 0 1 0 0-17.964 8.982 8.982 0 0 0 0 17.964z" clip-path="url(#p684f9f0d0f)" style="fill:#ffc03f"/><path id="patch_379" d="M302.074 115.91a5.988 5.988 0 1 0 0-11.975 5.988 5.988 0 0 0 0 11.975z" clip-path="url(#p684f9f0d0f)" style="fill:#ff40bf"/><path id="patch_380" d="M466.324 182.093a3.992 3.992 0 1 0 0-7.983 3.992 3.992 0 0 0 0 7.983z" clip-path="url(#p684f9f0d0f)" style="fill:#ff807f"/><path id="patch_381" d="M169.126 183.58a2.994 2.994 0 1 0 0-5.988 2.994 2.994 0 0 0 0 5.988z" clip-path="url(#p684f9f0d0f)" style="fill:#ff0"/><path id="patch_382" d="M229.949 139.685a11.976 11.976 0 1 0 0-23.952 11.976 11.976 0 0 0 0 23.952z" clip-path="url(#p684f9f0d0f)" style="fill:#f0f"/><path id="patch_383" d="M251.772 129.947a8.982 8.982 0 1 0 0-17.963 8.982 8.982 0 0 0 0 17.963z" clip-path="url(#p684f9f0d0f)" style="fill:#ffc03f"/><path id="patch_384" d="M517.994 163.554a5.988 5.988 0 1 0 0-11.976 5.988 5.988 0 0 0 0 11.976z" clip-path="url(#p684f9f0d0f)" style="fill:#ff40bf"/><path id="patch_385" d="M291.543 183.485a3.992 3.992 0 1 0 0-7.984 3.992 3.992 0 0 0 0 7.984z" clip-path="url(#p684f9f0d0f)" style="fill:#ff807f"/><path id="patch_386" d="M392.762 110.392a2.994 2.994 0 1 0 0-5.987 2.994 2.994 0 0 0 0 5.987z" clip-path="url(#p684f9f0d0f)" style="fill:#ff0"/><path id="patch_387" d="M155.905 160.41a11.976 11.976 0 1 0 0-23.95 11.976 11.976 0 0 0 0 23.95z" clip-path="url(#p684f9f0d0f)" style="fill:#f0f"/><path id="patch_388" d="M271.254 137.102a8.982 8.982 0 1 0 0-17.964 8.982 8.982 0 0 0 0 17.964z" clip-path="url(#p684f9f0d0f)" style="fill:#ffc03f"/><path id="patch_389" d="M165.407 170.799a5.988 5.988 0 1 0 0-11.976 5.988 5.988 0 0 0 0 11.976z" clip-path="url(#p684f9f0d0f)" style="fill:#ff40bf"/><path id="patch_390" d="M151.052 137.215a3.992 3.992 0 1 0 0-7.983 3.992 3.992 0 0 0 0 7.983z" clip-path="url(#p684f9f0d0f)" style="fill:#ff807f"/><path id="patch_391" d="M510.155 128.383a2.994 2.994 0 1 0 0-5.987 2.994 2.994 0 0 0 0 5.987z" clip-path="url(#p684f9f0d0f)" style="fill:#ff0"/><path id="patch_392" d="M208.058 180.212a11.976 11.976 0 1 0 0-23.95 11.976 11.976 0 0 0 0 23.95z" clip-path="url(#p684f9f0d0f)" style="fill:#f0f"/><path id="patch_393" d="M462.002 133.037a8.982 8.982 0 1 0 0-17.963 8.982 8.982 0 0 0 0 17.963z" clip-path="url(#p684f9f0d0f)" style="fill:#ffc03f"/><path id="patch_394" d="M300.843 189.1a5.988 5.988 0 1 0 0-11.976 5.988 5.988 0 0 0 0 11.975z" clip-path="url(#p684f9f0d0f)" style="fill:#ff40bf"/><path id="patch_395" d="M474.357 124.09a3.992 3.992 0 1 0 0-7.983 3.992 3.992 0 0 0 0 7.984z" clip-path="url(#p684f9f0d0f)" style="fill:#ff807f"/><path id="patch_396" d="M428.362 169.892a2.994 2.994 0 1 0 0-5.988 2.994 2.994 0 0 0 0 5.988z" clip-path="url(#p684f9f0d0f)" style="fill:#ff0"/><path id="patch_397" d="M194.004 130.534a11.976 11.976 0 1 0 0-23.951 11.976 11.976 0 0 0 0 23.951z" clip-path="url(#p684f9f0d0f)" style="fill:#f0f"/><path id="patch_398" d="M477.799 141.588a8.982 8.982 0 1 0 0-17.963 8.982 8.982 0 0 0 0 17.963z" clip-path="url(#p684f9f0d0f)" style="fill:#ffc03f"/><path id="patch_399" d="M160.815 137.144a5.988 5.988 0 1 0 0-11.975 5.988 5.988 0 0 0 0 11.975z" clip-path="url(#p684f9f0d0f)" style="fill:#ff40bf"/><path id="patch_400" d="M427.768 163.93a3.992 3.992 0 1 0 0-7.984 3.992 3.992 0 0 0 0 7.984z" clip-path="url(#p684f9f0d0f)" style="fill:#ff807f"/><path id="patch_401" d="M243.432 115.366a2.994 2.994 0 1 0 0-5.987 2.994 2.994 0 0 0 0 5.987z" clip-path="url(#p684f9f0d0f)" style="fill:#ff0"/><path id="patch_402" d="M296.519 175.74a11.976 11.976 0 1 0 0-23.952 11.976 11.976 0 0 0 0 23.952z" clip-path="url(#p684f9f0d0f)" style="fill:#f0f"/><path id="patch_403" d="M462.495 150.993a8.982 8.982 0 1 0 0-17.963 8.982 8.982 0 0 0 0 17.963z" clip-path="url(#p684f9f0d0f)" style="fill:#ffc03f"/><path id="patch_404" d="M209.41 133.783a5.988 5.988 0 1 0 0-11.975 5.988 5.988 0 0 0 0 11.975z" clip-path="url(#p684f9f0d0f)" style="fill:#ff40bf"/><path id="patch_405" d="M213.989 187.053a3.992 3.992 0 1 0 0-7.983 3.992 3.992 0 0 0 0 7.983z" clip-path="url(#p684f9f0d0f)" style="fill:#ff807f"/><path id="patch_406" d="M522.081 128.156a2.994 2.994 0 1 0 0-5.988 2.994 2.994 0 0 0 0 5.988z" clip-path="url(#p684f9f0d0f)" style="fill:#ff0"/><path id="patch_407" d="M343.843 157.719a11.976 11.976 0 1 0 0-23.951 11.976 11.976 0 0 0 0 23.951z" clip-path="url(#p684f9f0d0f)" style="fill:#f0f"/><path id="patch_408" d="M478.292 159.544a8.982 8.982 0 1 0 0-17.963 8.982 8.982 0 0 0 0 17.963z" clip-path="url(#p684f9f0d0f)" style="fill:#ffc03f"/><path id="patch_409" d="M167.771 127.033a5.988 5.988 0 1 0 0-11.976 5.988 5.988 0 0 0 0 11.976z" clip-path="url(#p684f9f0d0f)" style="fill:#ff40bf"/><path id="patch_410" d="M176.42 120.059a3.992 3.992 0 1 0 0-7.984 3.992 3.992 0 0 0 0 7.984z" clip-path="url(#p684f9f0d0f)" style="fill:#ff807f"/><path id="patch_411" d="M466.623 156.247a2.994 2.994 0 1 0 0-5.988 2.994 2.994 0 0 0 0 5.988z" clip-path="url(#p684f9f0d0f)" style="fill:#ff0"/><path id="patch_412" d="M289.001 153a11.976 11.976 0 1 0 0-23.951A11.976 11.976 0 0 0 289 153z" clip-path="url(#p684f9f0d0f)" style="fill:#f0f"/><path id="patch_413" d="M226.21 187.691a8.982 8.982 0 1 0 0-17.963 8.982 8.982 0 0 0 0 17.963z" clip-path="url(#p684f9f0d0f)" style="fill:#ffc03f"/><path id="patch_414" d="M271.247 149.738a5.988 5.988 0 1 0 0-11.975 5.988 5.988 0 0 0 0 11.975z" clip-path="url(#p684f9f0d0f)" style="fill:#ff40bf"/><path id="patch_415" d="M177.303 127.993a3.992 3.992 0 1 0 0-7.983 3.992 3.992 0 0 0 0 7.983z" clip-path="url(#p684f9f0d0f)" style="fill:#ff807f"/><path id="patch_416" d="M458.269 158.097a2.994 2.994 0 1 0 0-5.988 2.994 2.994 0 0 0 0 5.988z" clip-path="url(#p684f9f0d0f)" style="fill:#ff0"/><path id="patch_417" d="M391.457 134.285a11.976 11.976 0 1 0 0-23.95 11.976 11.976 0 0 0 0 23.95z" clip-path="url(#p684f9f0d0f)" style="fill:#f0f"/><path id="patch_418" d="M174.105 147.027a8.982 8.982 0 1 0 0-17.963 8.982 8.982 0 0 0 0 17.963z" clip-path="url(#p684f9f0d0f)" style="fill:#ffc03f"/><path id="patch_419" d="M409.303 126.254a5.988 5.988 0 1 0 0-11.976 5.988 5.988 0 0 0 0 11.976z" clip-path="url(#p684f9f0d0f)" style="fill:#ff40bf"/><path id="patch_420" d="M265.048 155.563a3.992 3.992 0 1 0 0-7.984 3.992 3.992 0 0 0 0 7.984z" clip-path="url(#p684f9f0d0f)" style="fill:#ff807f"/><path id="patch_421" d="M337.446 162.27a2.994 2.994 0 1 0 0-5.987 2.994 2.994 0 0 0 0 5.988z" clip-path="url(#p684f9f0d0f)" style="fill:#ff0"/><path id="patch_422" d="M341.766 129.04a11.976 11.976 0 1 0 0-23.951 11.976 11.976 0 0 0 0 23.951z" clip-path="url(#p684f9f0d0f)" style="fill:#f0f"/><path id="patch_423" d="M256.392 150.89a8.982 8.982 0 1 0 0-17.964 8.982 8.982 0 0 0 0 17.964z" clip-path="url(#p684f9f0d0f)" style="fill:#ffc03f"/><path id="patch_424" d="M490.016 147.244a5.988 5.988 0 1 0 0-11.976 5.988 5.988 0 0 0 0 11.976z" clip-path="url(#p684f9f0d0f)" style="fill:#ff40bf"/><path id="patch_425" d="M350.285 107.553a3.992 3.992 0 1 0 0-7.984 3.992 3.992 0 0 0 0 7.984z" clip-path="url(#p684f9f0d0f)" style="fill:#ff807f"/><path id="patch_426" d="M258.4 156.708a2.994 2.994 0 1 0 0-5.988 2.994 2.994 0 0 0 0 5.988z" clip-path="url(#p684f9f0d0f)" style="fill:#ff0"/><path id="patch_427" d="M409.352 150.204a11.976 11.976 0 1 0 0-23.951 11.976 11.976 0 0 0 0 23.95z" clip-path="url(#p684f9f0d0f)" style="fill:#f0f"/><path id="patch_428" d="M503.354 163.43a8.982 8.982 0 1 0 0-17.964 8.982 8.982 0 0 0 0 17.963z" clip-path="url(#p684f9f0d0f)" style="fill:#ffc03f"/><path id="patch_429" d="M173.28 158.98a5.988 5.988 0 1 0 0-11.976 5.988 5.988 0 0 0 0 11.976z" clip-path="url(#p684f9f0d0f)" style="fill:#ff40bf"/><path id="patch_430" d="M502.295 145.51a3.992 3.992 0 1 0 0-7.984 3.992 3.992 0 0 0 0 7.984z" clip-path="url(#p684f9f0d0f)" style="fill:#ff807f"/><path id="patch_431" d="M490.262 153.228a2.994 2.994 0 1 0 0-5.988 2.994 2.994 0 0 0 0 5.988z" clip-path="url(#p684f9f0d0f)" style="fill:#ff0"/><path id="patch_432" d="M319.19 137.034a11.976 11.976 0 1 0-.001-23.951 11.976 11.976 0 0 0 0 23.951z" clip-path="url(#p684f9f0d0f)" style="fill:#f0f"/><path id="patch_433" d="M187.859 158.58a8.982 8.982 0 1 0 0-17.963 8.982 8.982 0 0 0 0 17.963z" clip-path="url(#p684f9f0d0f)" style="fill:#ffc03f"/><path id="patch_434" d="M373.3 121.982a5.988 5.988 0 1 0 0-11.976 5.988 5.988 0 0 0 0 11.976z" clip-path="url(#p684f9f0d0f)" style="fill:#ff40bf"/><path id="patch_435" d="M187.003 140.646a3.992 3.992 0 1 0 0-7.984 3.992 3.992 0 0 0 0 7.984z" clip-path="url(#p684f9f0d0f)" style="fill:#ff807f"/><path id="patch_436" d="M183.494 133.608a2.994 2.994 0 1 0 0-5.988 2.994 2.994 0 0 0 0 5.988z" clip-path="url(#p684f9f0d0f)" style="fill:#ff0"/><path id="patch_437" d="M482.225 188.625a11.976 11.976 0 1 0 0-23.951 11.976 11.976 0 0 0 0 23.951z" clip-path="url(#p684f9f0d0f)" style="fill:#f0f"/><path id="patch_438" d="M510.902 179.73a8.982 8.982 0 1 0 0-17.964 8.982 8.982 0 0 0 0 17.963z" clip-path="url(#p684f9f0d0f)" style="fill:#ffc03f"/><path id="patch_439" d="M361.88 125.586a5.988 5.988 0 1 0 0-11.976 5.988 5.988 0 0 0 0 11.976z" clip-path="url(#p684f9f0d0f)" style="fill:#ff40bf"/><path id="patch_440" d="M489.454 161.164a3.992 3.992 0 1 0 0-7.983 3.992 3.992 0 0 0 0 7.983z" clip-path="url(#p684f9f0d0f)" style="fill:#ff807f"/><path id="patch_441" d="M312.54 114.641a2.994 2.994 0 1 0 0-5.987 2.994 2.994 0 0 0 0 5.987z" clip-path="url(#p684f9f0d0f)" style="fill:#ff0"/><path id="patch_442" d="M443.322 145.528a11.976 11.976 0 1 0 0-23.95 11.976 11.976 0 0 0 0 23.95z" clip-path="url(#p684f9f0d0f)" style="fill:#f0f"/><path id="patch_443" d="M371.718 139.86a8.982 8.982 0 1 0 0-17.963 8.982 8.982 0 0 0 0 17.964z" clip-path="url(#p684f9f0d0f)" style="fill:#ffc03f"/><path id="patch_444" d="M196.928 143.678a5.988 5.988 0 1 0 0-11.976 5.988 5.988 0 0 0 0 11.976z" clip-path="url(#p684f9f0d0f)" style="fill:#ff40bf"/><path id="patch_445" d="M334.002 135.01a3.992 3.992 0 1 0 0-7.985 3.992 3.992 0 0 0 0 7.984z" clip-path="url(#p684f9f0d0f)" style="fill:#ff807f"/><path id="patch_446" d="M483.759 164.21a2.994 2.994 0 1 0 0-5.987 2.994 2.994 0 0 0 0 5.988z" clip-path="url(#p684f9f0d0f)" style="fill:#ff0"/><path id="patch_447" d="M386.619 157.742a11.976 11.976 0 1 0 0-23.951 11.976 11.976 0 0 0 0 23.95z" clip-path="url(#p684f9f0d0f)" style="fill:#f0f"/><path id="patch_448" d="M382.204 177.413a8.982 8.982 0 1 0 0-17.964 8.982 8.982 0 0 0 0 17.964z" clip-path="url(#p684f9f0d0f)" style="fill:#ffc03f"/><path id="patch_449" d="M202.758 154.138a5.988 5.988 0 1 0 0-11.976 5.988 5.988 0 0 0 0 11.976z" clip-path="url(#p684f9f0d0f)" style="fill:#ff40bf"/><path id="patch_450" d="M498.633 170.523a3.992 3.992 0 1 0 0-7.984 3.992 3.992 0 0 0 0 7.984z" clip-path="url(#p684f9f0d0f)" style="fill:#ff807f"/><path id="patch_451" d="M451.287 149.22a2.994 2.994 0 1 0 0-5.987 2.994 2.994 0 0 0 0 5.988z" clip-path="url(#p684f9f0d0f)" style="fill:#ff0"/><path id="patch_452" d="M229.735 170.027a11.976 11.976 0 1 0 0-23.951 11.976 11.976 0 0 0 0 23.951z" clip-path="url(#p684f9f0d0f)" style="fill:#f0f"/><path id="patch_453" d="M309.089 155.978a8.982 8.982 0 1 0 0-17.964 8.982 8.982 0 0 0 0 17.964z" clip-path="url(#p684f9f0d0f)" style="fill:#ffc03f"/><path id="patch_454" d="M356.756 136.41a5.988 5.988 0 1 0 0-11.976 5.988 5.988 0 0 0 0 11.975z" clip-path="url(#p684f9f0d0f)" style="fill:#ff40bf"/><path id="patch_455" d="M498.487 178.505a3.992 3.992 0 1 0 0-7.983 3.992 3.992 0 0 0 0 7.983z" clip-path="url(#p684f9f0d0f)" style="fill:#ff807f"/><path id="patch_456" d="M416.784 128.23a2.994 2.994 0 1 0 0-5.989 2.994 2.994 0 0 0 0 5.988z" clip-path="url(#p684f9f0d0f)" style="fill:#ff0"/><path id="patch_457" d="M361.475 148.302a5.988 5.988 0 1 0 0-11.975 5.988 5.988 0 0 0 0 11.975z" clip-path="url(#p684f9f0d0f)" style="fill:#ff40bf"/><path id="patch_458" d="M206.816 143.026a3.992 3.992 0 1 0 0-7.984 3.992 3.992 0 0 0 0 7.984z" clip-path="url(#p684f9f0d0f)" style="fill:#ff807f"/><path id="patch_459" d="M438.337 121.234a2.994 2.994 0 1 0 0-5.988 2.994 2.994 0 0 0 0 5.988z" clip-path="url(#p684f9f0d0f)" style="fill:#ff0"/><path id="patch_460" d="M422.548 157.421a5.988 5.988 0 1 0 0-11.975 5.988 5.988 0 0 0 0 11.975z" clip-path="url(#p684f9f0d0f)" style="fill:#ff40bf"/><path id="patch_461" d="M303.84 139.124a3.992 3.992 0 1 0 0-7.984 3.992 3.992 0 0 0 0 7.984z" clip-path="url(#p684f9f0d0f)" style="fill:#ff807f"/><path id="patch_462" d="M476.387 165.86a2.994 2.994 0 1 0 0-5.987 2.994 2.994 0 0 0 0 5.987z" clip-path="url(#p684f9f0d0f)" style="fill:#ff0"/><path id="patch_463" d="M214.432 151.47a5.988 5.988 0 1 0 0-11.975 5.988 5.988 0 0 0 0 11.975z" clip-path="url(#p684f9f0d0f)" style="fill:#ff40bf"/><path id="patch_464" d="M251.416 157.881a3.992 3.992 0 1 0 0-7.984 3.992 3.992 0 0 0 0 7.984z" clip-path="url(#p684f9f0d0f)" style="fill:#ff807f"/><path id="patch_465" d="M214.968 192.972a2.994 2.994 0 1 0 0-5.988 2.994 2.994 0 0 0 0 5.988z" clip-path="url(#p684f9f0d0f)" style="fill:#ff0"/><path id="patch_466" d="M329.088 161.976a5.988 5.988 0 1 0 0-11.976 5.988 5.988 0 0 0 0 11.976z" clip-path="url(#p684f9f0d0f)" style="fill:#ff40bf"/><path id="patch_467" d="M370.648 150.237a3.992 3.992 0 1 0 0-7.984 3.992 3.992 0 0 0 0 7.984z" clip-path="url(#p684f9f0d0f)" style="fill:#ff807f"/><path id="patch_468" d="M210.086 156.336a2.994 2.994 0 1 0 0-5.987 2.994 2.994 0 0 0 0 5.987z" clip-path="url(#p684f9f0d0f)" style="fill:#ff0"/><path id="patch_469" d="M325.928 150.426a5.988 5.988 0 1 0 0-11.976 5.988 5.988 0 0 0 0 11.976z" clip-path="url(#p684f9f0d0f)" style="fill:#ff40bf"/><path id="patch_470" d="M245.343 152.7a3.992 3.992 0 1 0 0-7.985 3.992 3.992 0 0 0 0 7.984z" clip-path="url(#p684f9f0d0f)" style="fill:#ff807f"/><path id="patch_471" d="M194.66 164.558a2.994 2.994 0 1 0 0-5.988 2.994 2.994 0 0 0 0 5.988z" clip-path="url(#p684f9f0d0f)" style="fill:#ff0"/><path id="patch_472" d="M299.249 132.26a5.988 5.988 0 1 0 0-11.976 5.988 5.988 0 0 0 0 11.976z" clip-path="url(#p684f9f0d0f)" style="fill:#ff40bf"/><path id="patch_473" d="M401.31 156.014a3.992 3.992 0 1 0 0-7.984 3.992 3.992 0 0 0 0 7.984z" clip-path="url(#p684f9f0d0f)" style="fill:#ff807f"/><path id="patch_474" d="M213.352 139.56a2.994 2.994 0 1 0 0-5.987 2.994 2.994 0 0 0 0 5.988z" clip-path="url(#p684f9f0d0f)" style="fill:#ff0"/><path id="patch_475" d="M502.958 189.423a5.988 5.988 0 1 0 0-11.976 5.988 5.988 0 0 0 0 11.976z" clip-path="url(#p684f9f0d0f)" style="fill:#ff40bf"/><path id="patch_476" d="M243.454 144.942a3.992 3.992 0 1 0 0-7.983 3.992 3.992 0 0 0 0 7.983z" clip-path="url(#p684f9f0d0f)" style="fill:#ff807f"/><path id="patch_477" d="M198.346 159.84a2.994 2.994 0 1 0 0-5.988 2.994 2.994 0 0 0 0 5.988z" clip-path="url(#p684f9f0d0f)" style="fill:#ff0"/><path id="patch_478" d="M396.501 166.754a5.988 5.988 0 1 0 0-11.976 5.988 5.988 0 0 0 0 11.976z" clip-path="url(#p684f9f0d0f)" style="fill:#ff40bf"/><path id="patch_479" d="M246.465 137.548a3.992 3.992 0 1 0 0-7.983 3.992 3.992 0 0 0 0 7.983z" clip-path="url(#p684f9f0d0f)" style="fill:#ff807f"/><path id="patch_480" d="M321.051 154.974a2.994 2.994 0 1 0 0-5.988 2.994 2.994 0 0 0 0 5.988z" clip-path="url(#p684f9f0d0f)" style="fill:#ff0"/><path id="patch_481" d="M239.969 178.802a5.988 5.988 0 1 0 0-11.976 5.988 5.988 0 0 0 0 11.976z" clip-path="url(#p684f9f0d0f)" style="fill:#ff40bf"/><path id="patch_482" d="M319.511 162.785a3.992 3.992 0 1 0 0-7.984 3.992 3.992 0 0 0 0 7.984z" clip-path="url(#p684f9f0d0f)" style="fill:#ff807f"/><path id="patch_483" d="M244.658 158.653a2.994 2.994 0 1 0 0-5.988 2.994 2.994 0 0 0 0 5.988z" clip-path="url(#p684f9f0d0f)" style="fill:#ff0"/><path id="patch_484" d="M421.282 132.182a2.994 2.994 0 1 0 0-5.988 2.994 2.994 0 0 0 0 5.988z" clip-path="url(#p684f9f0d0f)" style="fill:#ff0"/><path id="patch_485" d="M425.008 139.088a3.992 3.992 0 1 0 0-7.984 3.992 3.992 0 0 0 0 7.984z" clip-path="url(#p684f9f0d0f)" style="fill:#ff807f"/><path id="patch_486" d="M243.263 167.453a2.994 2.994 0 1 0 0-5.988 2.994 2.994 0 0 0 0 5.988z" clip-path="url(#p684f9f0d0f)" style="fill:#ff0"/><path id="patch_487" d="M428.116 131.735a3.992 3.992 0 1 0 0-7.984 3.992 3.992 0 0 0 0 7.984z" clip-path="url(#p684f9f0d0f)" style="fill:#ff807f"/><path id="patch_488" d="M310.664 161.861a2.994 2.994 0 1 0 0-5.988 2.994 2.994 0 0 0 0 5.988z" clip-path="url(#p684f9f0d0f)" style="fill:#ff0"/><path id="patch_489" d="M311.452 167.797a2.994 2.994 0 1 0 0-5.988 2.994 2.994 0 0 0 0 5.988z" clip-path="url(#p684f9f0d0f)" style="fill:#ff0"/><path id="patch_490" d="M311.427 179.772a5.988 5.988 0 1 0 0-11.976 5.988 5.988 0 0 0 0 11.976z" clip-path="url(#p684f9f0d0f)" style="fill:#ff40bf"/><path id="patch_491" d="M423.842 144.978a2.994 2.994 0 1 0 0-5.988 2.994 2.994 0 0 0 0 5.988z" clip-path="url(#p684f9f0d0f)" style="fill:#ff0"/><path id="patch_492" d="M317.091 169.808a2.994 2.994 0 1 0 0-5.988 2.994 2.994 0 0 0 0 5.988z" clip-path="url(#p684f9f0d0f)" style="fill:#ff0"/><path id="patch_493" d="M429.604 143.35a2.994 2.994 0 1 0 0-5.987 2.994 2.994 0 0 0 0 5.988z" clip-path="url(#p684f9f0d0f)" style="fill:#ff0"/><g id="matplotlib.axis_1"><g id="xtick_1"><g id="line2d_1"><defs><path id="m38a8c90c77" d="M0 0v3.5" style="stroke:#000;stroke-width:.8"/></defs><use xlink:href="#m38a8c90c77" x="82.62" y="230.688" style="stroke:#000;stroke-width:.8"/></g><g id="text_1" transform="matrix(.1 0 0 -.1 79.439 245.286)"><defs><path id="DejaVuSans-30" d="M2034 4250q-487 0-733-480-245-479-245-1442 0-959 245-1439 246-480 733-480 491 0 736 480 246 480 246 1439 0 963-246 1442-245 480-736 480zm0 500q785 0 1199-621 414-620 414-1801 0-1178-414-1799Q2819-91 2034-91q-784 0-1198 620-414 621-414 1799 0 1181 414 1801 414 621 1198 621z" transform="scale(.01563)"/></defs><use xlink:href="#DejaVuSans-30"/></g></g><g id="xtick_2"><use xlink:href="#m38a8c90c77" id="line2d_2" x="182.412" y="230.688" style="stroke:#000;stroke-width:.8"/><g id="text_2" transform="matrix(.1 0 0 -.1 172.868 245.286)"><defs><path id="DejaVuSans-31" d="M794 531h1031v3560L703 3866v575l1116 225h631V531h1031V0H794v531z" transform="scale(.01563)"/></defs><use xlink:href="#DejaVuSans-31"/><use xlink:href="#DejaVuSans-30" x="63.623"/><use xlink:href="#DejaVuSans-30" x="127.246"/></g></g><g id="xtick_3"><use xlink:href="#m38a8c90c77" id="line2d_3" x="282.204" y="230.688" style="stroke:#000;stroke-width:.8"/><g id="text_3" transform="matrix(.1 0 0 -.1 272.66 245.286)"><defs><path id="DejaVuSans-32" d="M1228 531h2203V0H469v531q359 372 979 998 621 627 780 809 303 340 423 576 121 236 121 464 0 372-261 606-261 235-680 235-297 0-627-103-329-103-704-313v638q381 153 712 231 332 78 607 78 725 0 1156-363 431-362 431-968 0-288-108-546-107-257-392-607-78-91-497-524-418-433-1181-1211z" transform="scale(.01563)"/></defs><use xlink:href="#DejaVuSans-32"/><use xlink:href="#DejaVuSans-30" x="63.623"/><use xlink:href="#DejaVuSans-30" x="127.246"/></g></g><g id="xtick_4"><use xlink:href="#m38a8c90c77" id="line2d_4" x="381.996" y="230.688" style="stroke:#000;stroke-width:.8"/><g id="text_4" transform="matrix(.1 0 0 -.1 372.452 245.286)"><defs><path id="DejaVuSans-33" d="M2597 2516q453-97 707-404 255-306 255-756 0-690-475-1069Q2609-91 1734-91q-293 0-604 58T488 141v609q262-153 574-231 313-78 654-78 593 0 904 234t311 681q0 413-289 645-289 233-804 233h-544v519h569q465 0 712 186t247 536q0 359-255 551-254 193-729 193-260 0-557-57-297-56-653-174v562q360 100 674 150t592 50q719 0 1137-327 419-326 419-882 0-388-222-655t-631-370z" transform="scale(.01563)"/></defs><use xlink:href="#DejaVuSans-33"/><use xlink:href="#DejaVuSans-30" x="63.623"/><use xlink:href="#DejaVuSans-30" x="127.246"/></g></g><g id="xtick_5"><use xlink:href="#m38a8c90c77" id="line2d_5" x="481.788" y="230.688" style="stroke:#000;stroke-width:.8"/><g id="text_5" transform="matrix(.1 0 0 -.1 472.244 245.286)"><defs><path id="DejaVuSans-34" d="M2419 4116 825 1625h1594v2491zm-166 550h794V1625h666v-525h-666V0h-628v1100H313v609l1940 2957z" transform="scale(.01563)"/></defs><use xlink:href="#DejaVuSans-34"/><use xlink:href="#DejaVuSans-30" x="63.623"/><use xlink:href="#DejaVuSans-30" x="127.246"/></g></g><g id="xtick_6"><use xlink:href="#m38a8c90c77" id="line2d_6" x="581.58" y="230.688" style="stroke:#000;stroke-width:.8"/><g id="text_6" transform="matrix(.1 0 0 -.1 572.036 245.286)"><defs><path id="DejaVuSans-35" d="M691 4666h2478v-532H1269V2991q137 47 274 70 138 23 276 23 781 0 1237-428 457-428 457-1159 0-753-469-1171Q2575-91 1722-91q-294 0-599 50Q819 9 494 109v635q281-153 581-228t634-75q541 0 856 284 316 284 316 772 0 487-316 771-315 285-856 285-253 0-505-56-251-56-513-175v2344z" transform="scale(.01563)"/></defs><use xlink:href="#DejaVuSans-35"/><use xlink:href="#DejaVuSans-30" x="63.623"/><use xlink:href="#DejaVuSans-30" x="127.246"/></g></g></g><g id="matplotlib.axis_2"><g id="ytick_1"><g id="line2d_7"><defs><path id="m4adffc0c64" d="M0 0h-3.5" style="stroke:#000;stroke-width:.8"/></defs><use xlink:href="#m4adffc0c64" x="82.62" y="230.688" style="stroke:#000;stroke-width:.8"/></g><use xlink:href="#DejaVuSans-30" id="text_7" transform="matrix(.1 0 0 -.1 69.257 234.487)"/></g><g id="ytick_2"><use xlink:href="#m4adffc0c64" id="line2d_8" x="82.62" y="205.74" style="stroke:#000;stroke-width:.8"/><g id="text_8" transform="matrix(.1 0 0 -.1 62.895 209.54)"><use xlink:href="#DejaVuSans-32"/><use xlink:href="#DejaVuSans-35" x="63.623"/></g></g><g id="ytick_3"><use xlink:href="#m4adffc0c64" id="line2d_9" x="82.62" y="180.792" style="stroke:#000;stroke-width:.8"/><g id="text_9" transform="matrix(.1 0 0 -.1 62.895 184.591)"><use xlink:href="#DejaVuSans-35"/><use xlink:href="#DejaVuSans-30" x="63.623"/></g></g><g id="ytick_4"><use xlink:href="#m4adffc0c64" id="line2d_10" x="82.62" y="155.844" style="stroke:#000;stroke-width:.8"/><g id="text_10" transform="matrix(.1 0 0 -.1 62.895 159.643)"><defs><path id="DejaVuSans-37" d="M525 4666h3000v-269L1831 0h-659l1594 4134H525v532z" transform="scale(.01563)"/></defs><use xlink:href="#DejaVuSans-37"/><use xlink:href="#DejaVuSans-35" x="63.623"/></g></g><g id="ytick_5"><use xlink:href="#m4adffc0c64" id="line2d_11" x="82.62" y="130.896" style="stroke:#000;stroke-width:.8"/><g id="text_11" transform="matrix(.1 0 0 -.1 56.532 134.695)"><use xlink:href="#DejaVuSans-31"/><use xlink:href="#DejaVuSans-30" x="63.623"/><use xlink:href="#DejaVuSans-30" x="127.246"/></g></g><g id="ytick_6"><use xlink:href="#m4adffc0c64" id="line2d_12" x="82.62" y="105.948" style="stroke:#000;stroke-width:.8"/><g id="text_12" transform="matrix(.1 0 0 -.1 56.532 109.747)"><use xlink:href="#DejaVuSans-31"/><use xlink:href="#DejaVuSans-32" x="63.623"/><use xlink:href="#DejaVuSans-35" x="127.246"/></g></g><g id="ytick_7"><use xlink:href="#m4adffc0c64" id="line2d_13" x="82.62" y="81" style="stroke:#000;stroke-width:.8"/><g id="text_13" transform="matrix(.1 0 0 -.1 56.532 84.8)"><use xlink:href="#DejaVuSans-31"/><use xlink:href="#DejaVuSans-35" x="63.623"/><use xlink:href="#DejaVuSans-30" x="127.246"/></g></g><g id="ytick_8"><use xlink:href="#m4adffc0c64" id="line2d_14" x="82.62" y="56.052" style="stroke:#000;stroke-width:.8"/><g id="text_14" transform="matrix(.1 0 0 -.1 56.532 59.851)"><use xlink:href="#DejaVuSans-31"/><use xlink:href="#DejaVuSans-37" x="63.623"/><use xlink:href="#DejaVuSans-35" x="127.246"/></g></g><g id="ytick_9"><use xlink:href="#m4adffc0c64" id="line2d_15" x="82.62" y="31.104" style="stroke:#000;stroke-width:.8"/><g id="text_15" transform="matrix(.1 0 0 -.1 56.532 34.903)"><use xlink:href="#DejaVuSans-32"/><use xlink:href="#DejaVuSans-30" x="63.623"/><use xlink:href="#DejaVuSans-30" x="127.246"/></g></g></g><path id="patch_494" d="M82.62 230.688V31.104" style="fill:none;stroke:#000;stroke-width:.8;stroke-linejoin:miter;stroke-linecap:square"/><path id="patch_495" d="M581.58 230.688V31.104" style="fill:none;stroke:#000;stroke-width:.8;stroke-linejoin:miter;stroke-linecap:square"/><path id="patch_496" d="M82.62 230.688h498.96" style="fill:none;stroke:#000;stroke-width:.8;stroke-linejoin:miter;stroke-linecap:square"/><path id="patch_497" d="M82.62 31.104h498.96" style="fill:none;stroke:#000;stroke-width:.8;stroke-linejoin:miter;stroke-linecap:square"/><g id="text_16" transform="matrix(.12 0 0 -.12 148.705 25.104)"><defs><path id="DejaVuSans-53" d="M3425 4513v-616q-359 172-678 256-319 85-616 85-515 0-795-200t-280-569q0-310 186-468 186-157 705-254l381-78q706-135 1042-474t336-907q0-679-455-1029Q2797-91 1919-91q-331 0-705 75-373 75-773 222v650q384-215 753-325 369-109 725-109 540 0 834 212 294 213 294 607 0 343-211 537t-692 291l-385 75q-706 140-1022 440-315 300-315 835 0 619 436 975t1201 356q329 0 669-60 341-59 697-177z" transform="scale(.01563)"/><path id="DejaVuSans-68" d="M3513 2113V0h-575v2094q0 497-194 743-194 247-581 247-466 0-735-297-269-296-269-809V0H581v4863h578V2956q207 316 486 472 280 156 646 156 603 0 912-373 310-373 310-1098z" transform="scale(.01563)"/><path id="DejaVuSans-65" d="M3597 1894v-281H953q38-594 358-905t892-311q331 0 642 81t618 244V178Q3153 47 2828-22t-659-69q-838 0-1327 487-489 488-489 1320 0 859 464 1363 464 505 1252 505 706 0 1117-455 411-454 411-1235zm-575 169q-6 471-264 752-258 282-683 282-481 0-770-272t-333-766l2050 4z" transform="scale(.01563)"/><path id="DejaVuSans-72" d="M2631 2963q-97 56-211 82-114 27-251 27-488 0-749-317t-261-911V0H581v3500h578v-544q182 319 472 473 291 155 707 155 59 0 131-8 72-7 159-23l3-590z" transform="scale(.01563)"/><path id="DejaVuSans-77" d="M269 3500h575l719-2731 715 2731h678l719-2731 716 2731h575L4050 0h-678l-753 2869L1863 0h-679L269 3500z" transform="scale(.01563)"/><path id="DejaVuSans-6f" d="M1959 3097q-462 0-731-361t-269-989q0-628 267-989 268-361 733-361 460 0 728 362 269 363 269 988 0 622-269 986-268 364-728 364zm0 487q750 0 1178-488 429-487 429-1349 0-859-429-1349Q2709-91 1959-91q-753 0-1180 489-426 490-426 1349 0 862 426 1349 427 488 1180 488z" transform="scale(.01563)"/><path id="DejaVuSans-64" d="M2906 2969v1894h575V0h-575v525q-181-312-458-464-276-152-664-152-634 0-1033 506-398 507-398 1332t398 1331q399 506 1033 506 388 0 664-152 277-151 458-463zM947 1747q0-634 261-995t717-361q456 0 718 361 263 361 263 995t-263 995q-262 361-718 361t-717-361q-261-361-261-995z" transform="scale(.01563)"/><path id="DejaVuSans-46" d="M628 4666h2681v-532H1259V2759h1850v-531H1259V0H628v4666z" transform="scale(.01563)"/><path id="DejaVuSans-73" d="M2834 3397v-544q-243 125-506 187-262 63-544 63-428 0-642-131t-214-394q0-200 153-314t616-217l197-44q612-131 870-370t258-667q0-488-386-773Q2250-91 1575-91q-281 0-586 55T347 128v594q319-166 628-249 309-82 613-82 406 0 624 139 219 139 219 392 0 234-158 359-157 125-692 241l-200 47q-534 112-772 345-237 233-237 639 0 494 350 762 350 269 994 269 318 0 599-47 282-46 519-140z" transform="scale(.01563)"/><path id="DejaVuSans-74" d="M1172 4494v-994h1184v-447H1172V1153q0-428 117-550t477-122h590V0h-590q-666 0-919 248-253 249-253 905v1900H172v447h422v994h578z" transform="scale(.01563)"/><path id="DejaVuSans-2c" d="M750 794h659V256L897-744H494L750 256v538z" transform="scale(.01563)"/><path id="DejaVuSans-62" d="M3116 1747q0 634-261 995t-717 361q-457 0-718-361t-261-995q0-634 261-995t718-361q456 0 717 361t261 995zM1159 2969q182 312 458 463 277 152 661 152 638 0 1036-506 399-506 399-1331T3314 415Q2916-91 2278-91q-384 0-661 152-276 152-458 464V0H581v4863h578V2969z" transform="scale(.01563)"/><path id="DejaVuSans-3d" d="M678 2906h4006v-525H678v525zm0-1275h4006v-531H678v531z" transform="scale(.01563)"/><path id="DejaVuSans-2e" d="M684 794h660V0H684v794z" transform="scale(.01563)"/><path id="DejaVuSans-36" d="M2113 2584q-425 0-674-291-248-290-248-796 0-503 248-796 249-292 674-292t673 292q248 293 248 796 0 506-248 796-248 291-673 291zm1253 1979v-575q-238 112-480 171-242 60-480 60-625 0-955-422-329-422-376-1275 184 272 462 417 279 145 613 145 703 0 1111-427 408-426 408-1160 0-719-425-1154Q2819-91 2113-91q-810 0-1238 620-428 621-428 1799 0 1106 525 1764t1409 658q238 0 480-47t505-140z" transform="scale(.01563)"/><path id="DejaVuSans-38" d="M2034 2216q-450 0-708-241-257-241-257-662 0-422 257-663 258-241 708-241t709 242q260 243 260 662 0 421-258 662-257 241-711 241zm-631 268q-406 100-633 378-226 279-226 679 0 559 398 884 399 325 1092 325 697 0 1094-325t397-884q0-400-227-679-226-278-629-378 456-106 710-416 255-309 255-755 0-679-414-1042Q2806-91 2034-91q-771 0-1186 362-414 363-414 1042 0 446 256 755 257 310 713 416zm-231 997q0-362 226-565 227-203 636-203 407 0 636 203 230 203 230 565 0 363-230 566-229 203-636 203-409 0-636-203-226-203-226-566z" transform="scale(.01563)"/><path id="DejaVuSans-61" d="M2194 1759q-697 0-966-159t-269-544q0-306 202-486 202-179 548-179 479 0 768 339t289 901v128h-572zm1147 238V0h-575v531q-197-318-491-470T1556-91q-537 0-855 302-317 302-317 808 0 590 395 890 396 300 1180 300h807v57q0 397-261 614t-733 217q-300 0-585-72-284-72-546-216v532q315 122 612 182 297 61 578 61 760 0 1135-394 375-393 375-1193z" transform="scale(.01563)"/><path id="DejaVuSans-39" d="M703 97v575q238-113 481-172 244-59 479-59 625 0 954 420 330 420 377 1277-181-269-460-413-278-144-615-144-700 0-1108 423-408 424-408 1159 0 718 425 1152 425 435 1131 435 810 0 1236-621 427-620 427-1801 0-1103-524-1761Q2575-91 1691-91q-238 0-482 47Q966 3 703 97zm1256 1978q425 0 673 290 249 291 249 798 0 503-249 795-248 292-673 292t-673-292q-248-292-248-795 0-507 248-798 248-290 673-290z" transform="scale(.01563)"/></defs><use xlink:href="#DejaVuSans-53"/><use xlink:href="#DejaVuSans-68" x="63.477"/><use xlink:href="#DejaVuSans-65" x="126.855"/><use xlink:href="#DejaVuSans-72" x="188.379"/><use xlink:href="#DejaVuSans-77" x="229.492"/><use xlink:href="#DejaVuSans-6f" x="311.279"/><use xlink:href="#DejaVuSans-6f" x="372.461"/><use xlink:href="#DejaVuSans-64" x="433.643"/><use xlink:href="#DejaVuSans-46" x="497.119"/><use xlink:href="#DejaVuSans-6f" x="551.014"/><use xlink:href="#DejaVuSans-72" x="612.195"/><use xlink:href="#DejaVuSans-65" x="651.059"/><use xlink:href="#DejaVuSans-73" x="712.582"/><use xlink:href="#DejaVuSans-74" x="764.682"/><use xlink:href="#DejaVuSans-2c" x="803.891"/><use xlink:href="#DejaVuSans-20" x="835.678"/><use xlink:href="#DejaVuSans-62" x="867.465"/><use xlink:href="#DejaVuSans-3d" x="930.941"/><use xlink:href="#DejaVuSans-30" x="1014.73"/><use xlink:href="#DejaVuSans-2e" x="1078.354"/><use xlink:href="#DejaVuSans-36" x="1110.141"/><use xlink:href="#DejaVuSans-36" x="1173.764"/><use xlink:href="#DejaVuSans-38" x="1237.387"/><use xlink:href="#DejaVuSans-34" x="1301.01"/><use xlink:href="#DejaVuSans-30" x="1364.633"/><use xlink:href="#DejaVuSans-30" x="1428.256"/><use xlink:href="#DejaVuSans-31" x="1491.879"/><use xlink:href="#DejaVuSans-2c" x="1555.502"/><use xlink:href="#DejaVuSans-20" x="1587.289"/><use xlink:href="#DejaVuSans-61" x="1619.076"/><use xlink:href="#DejaVuSans-3d" x="1680.355"/><use xlink:href="#DejaVuSans-30" x="1764.145"/><use xlink:href="#DejaVuSans-2e" x="1827.768"/><use xlink:href="#DejaVuSans-38" x="1859.555"/><use xlink:href="#DejaVuSans-33" x="1923.178"/><use xlink:href="#DejaVuSans-36" x="1986.801"/><use xlink:href="#DejaVuSans-34" x="2050.424"/><use xlink:href="#DejaVuSans-34" x="2114.047"/><use xlink:href="#DejaVuSans-39" x="2177.67"/><use xlink:href="#DejaVuSans-30" x="2241.293"/><use xlink:href="#DejaVuSans-2c" x="2304.916"/><use xlink:href="#DejaVuSans-20" x="2336.703"/><use xlink:href="#DejaVuSans-64" x="2368.49"/><use xlink:href="#DejaVuSans-3d" x="2431.967"/><use xlink:href="#DejaVuSans-30" x="2515.756"/><use xlink:href="#DejaVuSans-2e" x="2579.379"/><use xlink:href="#DejaVuSans-37" x="2611.166"/><use xlink:href="#DejaVuSans-39" x="2674.789"/><use xlink:href="#DejaVuSans-39" x="2738.412"/><use xlink:href="#DejaVuSans-30" x="2802.035"/><use xlink:href="#DejaVuSans-39" x="2865.658"/><use xlink:href="#DejaVuSans-32" x="2929.281"/><use xlink:href="#DejaVuSans-34" x="2992.904"/></g></g></g><defs><clipPath id="p684f9f0d0f"><path d="M82.62 31.104h498.96v199.584H82.62z"/></clipPath></defs></svg>